<svg xmlns="http://www.w3.org/2000/svg" width="162" height="52" viewBox="0 0 162 52">
    <g fill="none" fill-rule="evenodd">
        <g>
            <g>
                <g>
                    <g>
                        <path fill="#FFF" d="M0 0H162V52H0z" transform="translate(-1075 -3230) translate(0 2756) translate(1020 402) translate(55 72)"/>
                        <g fill-rule="nonzero">
                            <path fill="#3780FF" d="M14.367 0H15.4c3.59.078 7.12 1.522 9.657 4.078-.936.956-1.892 1.873-2.81 2.829-1.423-1.288-3.14-2.283-5.013-2.634-2.77-.586-5.756-.059-8.077 1.521-2.537 1.659-4.254 4.468-4.624 7.473-.41 2.965.429 6.087 2.36 8.389 1.854 2.244 4.683 3.648 7.61 3.746 2.73.156 5.58-.683 7.57-2.595 1.56-1.346 2.282-3.395 2.516-5.385-3.239 0-6.477.02-9.716 0v-4.019h13.637c.703 4.312-.312 9.17-3.59 12.253-2.184 2.185-5.208 3.472-8.291 3.726-2.985.293-6.068-.273-8.721-1.717-3.18-1.697-5.716-4.565-6.965-7.94-1.17-3.103-1.19-6.614-.098-9.736.995-2.848 2.907-5.365 5.366-7.121C8.572 1.132 11.44.176 14.367 0z" transform="translate(-1075 -3230) translate(0 2756) translate(1020 402) translate(55 72) translate(22 7)"/>
                            <path fill="#38B137" d="M92.602 1.015h4.175v27.86c-1.386 0-2.79.02-4.175-.02.019-9.267 0-18.554 0-27.84z" transform="translate(-1075 -3230) translate(0 2756) translate(1020 402) translate(55 72) translate(22 7)"/>
                            <path fill="#FA3913" d="M37.798 10.672c2.575-.488 5.365.058 7.492 1.6 1.931 1.365 3.278 3.512 3.687 5.853.527 2.712-.136 5.677-1.892 7.823-1.893 2.4-4.995 3.688-8.019 3.492-2.77-.156-5.462-1.54-7.101-3.804-1.854-2.497-2.302-5.931-1.288-8.857 1.015-3.142 3.883-5.541 7.121-6.107m.585 3.707c-1.053.273-2.029.878-2.73 1.736-1.893 2.263-1.776 5.95.311 8.058 1.19 1.21 2.985 1.775 4.644 1.444 1.54-.274 2.887-1.308 3.628-2.673 1.288-2.322.917-5.522-1.053-7.336-1.268-1.17-3.122-1.658-4.8-1.23z" transform="translate(-1075 -3230) translate(0 2756) translate(1020 402) translate(55 72) translate(22 7)"/>
                            <path fill="#FCBD06" d="M58.479 10.672c2.946-.566 6.165.254 8.37 2.322 3.59 3.219 3.98 9.247.916 12.954-1.853 2.341-4.858 3.629-7.823 3.492-2.829-.078-5.619-1.482-7.297-3.804-1.892-2.556-2.302-6.068-1.229-9.053 1.073-3.043 3.883-5.365 7.063-5.911m.585 3.707c-1.054.273-2.029.878-2.731 1.717-1.873 2.224-1.795 5.853.214 7.98 1.19 1.267 3.044 1.892 4.76 1.54 1.522-.292 2.888-1.307 3.63-2.672 1.268-2.342.897-5.541-1.093-7.356-1.268-1.17-3.122-1.638-4.78-1.21z" transform="translate(-1075 -3230) translate(0 2756) translate(1020 402) translate(55 72) translate(22 7)"/>
                            <path fill="#3780FF" d="M76.018 11.803c2.244-1.404 5.229-1.794 7.648-.585.76.332 1.385.898 1.99 1.463.02-.526 0-1.073.02-1.619 1.307.02 2.614 0 3.94.02v17.207c-.019 2.595-.682 5.346-2.555 7.239-2.049 2.087-5.19 2.73-8.019 2.302-3.024-.449-5.658-2.654-6.828-5.444 1.17-.565 2.4-1.014 3.609-1.54.683 1.599 2.068 2.965 3.804 3.277 1.737.312 3.746-.117 4.878-1.561 1.21-1.483 1.21-3.512 1.151-5.326-.897.878-1.931 1.658-3.18 1.95-2.712.762-5.697-.175-7.785-2.009-2.107-1.834-3.355-4.663-3.238-7.472.058-3.18 1.853-6.243 4.565-7.902m4.039 2.498c-1.19.195-2.303.858-3.063 1.775-1.834 2.185-1.834 5.678.02 7.824 1.053 1.268 2.75 1.97 4.389 1.795 1.541-.157 2.965-1.132 3.726-2.478 1.288-2.283 1.073-5.385-.663-7.375-1.073-1.23-2.79-1.834-4.41-1.541z" transform="translate(-1075 -3230) translate(0 2756) translate(1020 402) translate(55 72) translate(22 7)"/>
                            <path fill="#FA3913" d="M101.79 12.799c2.342-2.186 5.951-2.927 8.956-1.776 2.848 1.073 4.663 3.785 5.58 6.575-4.234 1.756-8.448 3.492-12.682 5.248.585 1.112 1.483 2.127 2.693 2.536 1.697.605 3.726.39 5.15-.741.566-.43 1.015-.995 1.444-1.541 1.073.722 2.146 1.424 3.219 2.146-1.522 2.282-4.078 3.882-6.828 4.136-3.044.37-6.283-.8-8.253-3.18-3.239-3.746-2.927-10.028.722-13.403m2.087 3.609c-.663.956-.936 2.126-.917 3.278 2.83-1.171 5.658-2.342 8.487-3.532-.468-1.092-1.6-1.756-2.75-1.931-1.854-.332-3.786.663-4.82 2.185z" transform="translate(-1075 -3230) translate(0 2756) translate(1020 402) translate(55 72) translate(22 7)"/>
                        </g>
                    </g>
                </g>
            </g>
        </g>
    </g>
</svg>
