<svg xmlns="http://www.w3.org/2000/svg" width="80" height="80" viewBox="0 0 80 80">
    <g fill="none" fill-rule="evenodd">
        <g>
            <g>
                <g>
                    <g transform="translate(-180 -3968) translate(150 3758) translate(0 180) translate(30 30)">
                        <rect width="80" height="80" opacity=".1" rx="40"/>
                        <path fill="#1ED760" fill-rule="nonzero" d="M40 12c-15.464 0-28 12.536-28 28 0 15.465 12.536 28 28 28 15.465 0 28-12.535 28-28 0-15.463-12.535-27.999-28-27.999V12zm12.84 40.384c-.24.396-.63.679-1.08.787-.45.109-.925.034-1.32-.208-6.574-4.016-14.85-4.925-24.597-2.699-.94.214-1.875-.374-2.09-1.314-.103-.45-.023-.925.224-1.317.246-.392.638-.67 1.09-.772 10.665-2.437 19.814-1.388 27.195 3.123.822.504 1.083 1.578.578 2.4zm3.428-7.624c-.632 1.027-1.977 1.352-3.003.72-7.526-4.627-18.999-5.966-27.901-3.264-1.155.349-2.374-.302-2.725-1.454-.348-1.154.304-2.372 1.456-2.723 10.169-3.086 22.81-1.591 31.454 3.72 1.026.632 1.35 1.976.719 3.001zm.294-7.939c-9.024-5.36-23.913-5.853-32.53-3.238-1.383.42-2.846-.361-3.265-1.745-.42-1.384.361-2.847 1.745-3.267 9.891-3.003 26.333-2.422 36.723 3.746.598.353 1.03.93 1.202 1.604.172.673.069 1.387-.286 1.984-.736 1.245-2.347 1.655-3.588.916h-.001z"/>
                    </g>
                </g>
            </g>
        </g>
    </g>
</svg>
