<svg xmlns="http://www.w3.org/2000/svg" width="42" height="42" viewBox="0 0 42 42">
    <g fill="none" fill-rule="evenodd">
        <g>
            <g>
                <g>
                    <g>
                        <path d="M0 0L42 0 42 42 0 42z" transform="translate(-769 -1106) translate(-145 880) translate(879 174) translate(35 52)"/>
                        <path fill="#3B5AFB" fill-rule="nonzero" d="M31.92 22.158l-7.203 14.41c-.128.256-.379.427-.663.453L6.248 38.64l9.011-8.802c1.585.953 3.672.746 5.039-.62 1.61-1.611 1.61-4.222 0-5.833-1.61-1.61-4.221-1.61-5.831 0-1.454 1.454-1.595 3.723-.424 5.336L5.04 37.514l1.626-17.886c.025-.284.197-.535.452-.663l14.406-7.205c.066.528.3 1.039.706 1.444l8.246 8.248c.405.406.916.641 1.444.706zm-16.287 2.394c.966-.967 2.532-.967 3.499 0 .966.966.966 2.533 0 3.5-.967.965-2.533.965-3.5 0-.965-.967-.965-2.534 0-3.5z" transform="translate(-769 -1106) translate(-145 880) translate(879 174) translate(35 52)"/>
                        <path fill="#44D5E9" fill-rule="nonzero" d="M32.166 19.914l-8.4-8.4c-.328-.328-.328-.86 0-1.188l5.04-5.04c.328-.328.86-.328 1.188 0l8.4 8.4c.328.328.328.86 0 1.188l-5.04 5.04c-.328.328-.86.328-1.188 0z" transform="translate(-769 -1106) translate(-145 880) translate(879 174) translate(35 52)"/>
                    </g>
                </g>
            </g>
        </g>
    </g>
</svg>
