<svg xmlns="http://www.w3.org/2000/svg" width="42" height="42" viewBox="0 0 42 42">
    <g fill="none" fill-rule="evenodd">
        <g>
            <g>
                <g>
                    <g>
                        <path d="M0 0L42 0 42 42 0 42z" transform="translate(-1355 -1106) translate(-145 880) translate(1465 174) translate(35 52)"/>
                        <path fill="#3B5AFB" fill-rule="nonzero" d="M12.08 10.08l1.461-2.92c.133-.246.35-.596.625-.953.354-.46.713-.805 1.116-1.002.216-.105.442-.165.678-.165h10.08c.236 0 .462.06.678.165.403.197.762.542 1.116 1.002.275.357.492.707.637.977l1.448 2.896h2.841c3.247 0 5.88 2.633 5.88 5.88v15.12c0 3.247-2.633 5.88-5.88 5.88H9.24c-3.247 0-5.88-2.633-5.88-5.88V15.96c0-3.247 2.633-5.88 5.88-5.88h2.84zm-2 8.4c.928 0 1.68-.752 1.68-1.68 0-.928-.752-1.68-1.68-1.68-.928 0-1.68.752-1.68 1.68 0 .928.752 1.68 1.68 1.68zM21 30.24c4.175 0 7.56-3.385 7.56-7.56s-3.385-7.56-7.56-7.56-7.56 3.385-7.56 7.56 3.385 7.56 7.56 7.56z" transform="translate(-1355 -1106) translate(-145 880) translate(1465 174) translate(35 52)"/>
                        <path fill="#44D5E9" d="M21 28.56c3.247 0 5.88-2.633 5.88-5.88S24.247 16.8 21 16.8s-5.88 2.633-5.88 5.88 2.633 5.88 5.88 5.88z" transform="translate(-1355 -1106) translate(-145 880) translate(1465 174) translate(35 52)"/>
                    </g>
                </g>
            </g>
        </g>
    </g>
</svg>
