<svg xmlns="http://www.w3.org/2000/svg" width="42" height="42" viewBox="0 0 42 42">
    <g fill="none" fill-rule="evenodd">
        <g>
            <g>
                <g>
                    <g>
                        <path d="M0 0L42 0 42 42 0 42z" transform="translate(-183 -1106) translate(-145 880) translate(293 174) translate(35 52)"/>
                        <path fill="#3B5AFB" fill-rule="nonzero" d="M15.12 9.39l2.996-.322L26.88 6.26v8.02c0 .464.376.84.84.84.464 0 .84-.376.84-.84V5.722l1.751-.561c1.326-.425 2.744.305 3.169 1.63.08.25.12.509.12.77v18.48c0 1.391-1.128 2.52-2.52 2.52-.26 0-.518-.04-.766-.12L18.2 24.56l-3.08-.337V9.391zm-1.68.182v14.467l-4.838-.529c-2.983-.325-5.242-2.844-5.242-5.845V15.94c0-3.003 2.263-5.524 5.25-5.846l4.83-.521z" transform="translate(-183 -1106) translate(-145 880) translate(293 174) translate(35 52)"/>
                        <path fill="#44D5E9" fill-rule="nonzero" d="M7.58 25.041c.274.062.554.108.84.14l7.157.781 1.144 6.354c.247 1.37-.663 2.68-2.033 2.927-.148.026-.297.04-.447.04h-.94c-1.038 0-1.97-.637-2.347-1.604L7.58 25.041zm27.7-12.38c1.518.904 2.52 2.408 2.52 4.139 0 1.73-1.002 3.235-2.52 4.139V12.66z" transform="translate(-183 -1106) translate(-145 880) translate(293 174) translate(35 52)"/>
                    </g>
                </g>
            </g>
        </g>
    </g>
</svg>
