<svg xmlns="http://www.w3.org/2000/svg" width="42" height="42" viewBox="0 0 42 42">
    <g fill="none" fill-rule="evenodd">
        <g>
            <g>
                <g>
                    <g>
                        <path d="M0 0L42 0 42 42 0 42z" transform="translate(-1062 -1106) translate(-145 880) translate(1172 174) translate(35 52)"/>
                        <path fill="#3B5AFB" fill-rule="nonzero" d="M8.474 25.25c-.048.255-.074.52-.074.79v10.08c0 .27.026.535.074.79-2.885-.375-5.114-2.842-5.114-5.83s2.229-5.455 5.114-5.83zm25.052 0c2.885.375 5.114 2.842 5.114 5.83s-2.229 5.455-5.114 5.83c.048-.255.074-.52.074-.79V26.04c0-.27-.026-.535-.074-.79zM21 3.41c9.974 0 17.64 7.616 17.64 17.59v5.328c-.682-.842-1.54-1.535-2.52-2.022V21c0-8.583-6.537-15.07-15.12-15.07-8.583 0-15.12 6.487-15.12 15.07v3.306c-.98.487-1.838 1.18-2.52 2.022V21c0-9.974 7.666-17.59 17.64-17.59z" transform="translate(-1062 -1106) translate(-145 880) translate(1172 174) translate(35 52)"/>
                        <path fill="#44D5E9" fill-rule="nonzero" d="M14.28 23.52c1.392 0 2.52 1.128 2.52 2.52v10.08c0 1.392-1.128 2.52-2.52 2.52H12.6c-1.392 0-2.52-1.128-2.52-2.52V26.04c0-1.392 1.128-2.52 2.52-2.52h1.68zm15.12 0c1.392 0 2.52 1.128 2.52 2.52v10.08c0 1.392-1.128 2.52-2.52 2.52h-1.68c-1.392 0-2.52-1.128-2.52-2.52V26.04c0-1.392 1.128-2.52 2.52-2.52h1.68z" transform="translate(-1062 -1106) translate(-145 880) translate(1172 174) translate(35 52)"/>
                    </g>
                </g>
            </g>
        </g>
    </g>
</svg>
