<svg xmlns="http://www.w3.org/2000/svg" width="42" height="42" viewBox="0 0 42 42">
    <g fill="none" fill-rule="evenodd">
        <g>
            <g>
                <g>
                    <g>
                        <path d="M0 0L42 0 42 42 0 42z" transform="translate(-476 -1106) translate(-145 880) translate(586 174) translate(35 52)"/>
                        <path fill="#44D5E9" fill-rule="nonzero" d="M36.179 16.154c0-.68.55-1.231 1.23-1.231.68 0 1.231.551 1.231 1.23v16.334c0 3.398-2.755 6.153-6.153 6.153H9.513c-3.398 0-6.153-2.755-6.153-6.153V9.513c0-3.398 2.755-6.153 6.153-6.153h14.78c.68 0 1.23.551 1.23 1.23 0 .68-.55 1.231-1.23 1.231H9.513c-2.039 0-3.692 1.653-3.692 3.692v22.974c0 2.039 1.653 3.692 3.692 3.692h22.974c2.039 0 3.692-1.653 3.692-3.692V16.154z" transform="translate(-476 -1106) translate(-145 880) translate(586 174) translate(35 52)"/>
                        <path fill="#3B5AFB" fill-rule="nonzero" d="M23.823 24.327l-6.168-6.13L31.903 3.948c.785-.785 2.057-.785 2.842 0l3.307 3.307c.785.785.785 2.057 0 2.841l-14.23 14.23zm-1.189 1.187c-.116.108-.26.18-.416.21l-6.103 1.142c-.58.108-1.089-.4-.98-.98l1.142-6.103c.027-.148.094-.285.192-.397l6.165 6.128z" transform="translate(-476 -1106) translate(-145 880) translate(586 174) translate(35 52)"/>
                    </g>
                </g>
            </g>
        </g>
    </g>
</svg>
