<svg xmlns="http://www.w3.org/2000/svg" width="162" height="52" viewBox="0 0 162 52">
    <g fill="none" fill-rule="evenodd">
        <g>
            <g>
                <g>
                    <g>
                        <path fill="#FFF" d="M0 0H162V52H0z" transform="translate(-474 -3230) translate(0 2756) translate(420 402) translate(54 72)"/>
                        <g fill="#D81F26" fill-rule="nonzero">
                            <path d="M18.307 33.662c-2.003.351-4.041.457-6.15.738l-6.43-18.834v19.642c-2.002.21-3.83.492-5.727.773V0h5.341l7.308 20.415V0h5.658v33.662zm11.068-20.485c2.179 0 5.517-.106 7.52-.106v5.622c-2.495 0-5.412 0-7.52.105v8.363c3.303-.21 6.606-.492 9.944-.597v5.41l-15.566 1.23V0h15.566v5.622h-9.944v7.555zm30.85-7.555h-5.832v25.861c-1.898 0-3.795 0-5.622.07V5.623h-5.833V0h17.288v5.622zm9.136 7.168h7.696v5.622H69.36v12.755h-5.517V0h15.707v5.622h-10.19v7.168zm19.326 13.458c3.198.07 6.43.316 9.557.492v5.551c-5.024-.316-10.049-.632-15.179-.738V0h5.622v26.248zm14.3 6.43c1.793.105 3.69.21 5.517.421V0h-5.516v32.678zM133.138 0l-7.134 17.112 7.133 18.869c-2.108-.281-4.217-.668-6.325-1.02l-4.04-10.4-4.111 9.558c-2.039-.352-4.006-.457-6.044-.739l7.238-16.479L113.32 0h6.043l3.69 9.452L126.986 0h6.15z" transform="translate(-474 -3230) translate(0 2756) translate(420 402) translate(54 72) translate(14 8)"/>
                        </g>
                    </g>
                </g>
            </g>
        </g>
    </g>
</svg>
