<svg xmlns="http://www.w3.org/2000/svg" width="123" height="258" viewBox="0 0 123 258">
    <g fill="none" fill-rule="evenodd">
        <g fill="#FFF">
            <g>
                <g transform="translate(-689 -142) translate(689 142)">
                    <circle cx="4" cy="4" r="4"/>
                    <circle cx="4" cy="27" r="4"/>
                    <circle cx="27" cy="4" r="4"/>
                    <circle cx="27" cy="27" r="4"/>
                    <circle cx="50" cy="4" r="4"/>
                    <circle cx="50" cy="27" r="4"/>
                    <circle cx="73" cy="4" r="4"/>
                    <circle cx="73" cy="27" r="4"/>
                    <circle cx="96" cy="4" r="4"/>
                    <circle cx="96" cy="27" r="4"/>
                    <circle cx="119" cy="4" r="4"/>
                    <circle cx="119" cy="27" r="4"/>
                    <circle cx="4" cy="50" r="4"/>
                    <circle cx="27" cy="50" r="4"/>
                    <circle cx="50" cy="50" r="4"/>
                    <circle cx="73" cy="50" r="4"/>
                    <circle cx="96" cy="50" r="4"/>
                    <circle cx="119" cy="50" r="4"/>
                    <circle cx="4" cy="73" r="4"/>
                    <circle cx="27" cy="73" r="4"/>
                    <circle cx="50" cy="73" r="4"/>
                    <circle cx="73" cy="73" r="4"/>
                    <circle cx="96" cy="73" r="4"/>
                    <circle cx="119" cy="73" r="4"/>
                    <circle cx="4" cy="96" r="4"/>
                    <circle cx="27" cy="96" r="4"/>
                    <circle cx="50" cy="96" r="4"/>
                    <circle cx="73" cy="96" r="4"/>
                    <circle cx="96" cy="96" r="4"/>
                    <circle cx="119" cy="96" r="4"/>
                    <circle cx="4" cy="119" r="4"/>
                    <circle cx="27" cy="119" r="4"/>
                    <circle cx="50" cy="119" r="4"/>
                    <circle cx="73" cy="119" r="4"/>
                    <circle cx="96" cy="119" r="4"/>
                    <circle cx="119" cy="119" r="4"/>
                </g>
                <g transform="translate(-689 -142) translate(689 142) translate(0 135)">
                    <circle cx="4" cy="4" r="4"/>
                    <circle cx="4" cy="27" r="4"/>
                    <circle cx="27" cy="4" r="4"/>
                    <circle cx="27" cy="27" r="4"/>
                    <circle cx="50" cy="4" r="4"/>
                    <circle cx="50" cy="27" r="4"/>
                    <circle cx="73" cy="4" r="4"/>
                    <circle cx="73" cy="27" r="4"/>
                    <circle cx="96" cy="4" r="4"/>
                    <circle cx="96" cy="27" r="4"/>
                    <circle cx="119" cy="4" r="4"/>
                    <circle cx="119" cy="27" r="4"/>
                    <circle cx="4" cy="50" r="4"/>
                    <circle cx="27" cy="50" r="4"/>
                    <circle cx="50" cy="50" r="4"/>
                    <circle cx="73" cy="50" r="4"/>
                    <circle cx="96" cy="50" r="4"/>
                    <circle cx="119" cy="50" r="4"/>
                    <circle cx="4" cy="73" r="4"/>
                    <circle cx="27" cy="73" r="4"/>
                    <circle cx="50" cy="73" r="4"/>
                    <circle cx="73" cy="73" r="4"/>
                    <circle cx="96" cy="73" r="4"/>
                    <circle cx="119" cy="73" r="4"/>
                    <circle cx="4" cy="96" r="4"/>
                    <circle cx="27" cy="96" r="4"/>
                    <circle cx="50" cy="96" r="4"/>
                    <circle cx="73" cy="96" r="4"/>
                    <circle cx="96" cy="96" r="4"/>
                    <circle cx="119" cy="96" r="4"/>
                    <circle cx="4" cy="119" r="4"/>
                    <circle cx="27" cy="119" r="4"/>
                    <circle cx="50" cy="119" r="4"/>
                    <circle cx="73" cy="119" r="4"/>
                    <circle cx="96" cy="119" r="4"/>
                    <circle cx="119" cy="119" r="4"/>
                </g>
            </g>
        </g>
    </g>
</svg>
