<svg xmlns="http://www.w3.org/2000/svg" width="187" height="62" viewBox="0 0 187 62">
    <g fill="none" fill-rule="evenodd">
        <g>
            <g>
                <g>
                    <g>
                        <path fill="#FFF" d="M0 0H187V62H0z" transform="translate(-762 -3225) translate(0 2756) translate(720 402) translate(42 67)"/>
                        <g fill="#3142A0" fill-rule="nonzero">
                            <path d="M58.48 11.896c0-5.446-3.107-7.833-7.904-7.833-4.796 0-7.808 2.41-7.808 7.712v10.049h4.748v-9.976c0-2.409 1.229-3.568 3.109-3.568s3.108 1.086 3.108 3.448v10.096h4.748M65.567 4.33h-4.58v13.037h4.58v-1.831c.842 1.084 2.047 2.072 3.903 2.072 2.771 0 4.434-1.831 4.434-4.796V4.329h-4.579v7.012c0 1.447-.745 2.217-1.831 2.217-1.109 0-1.928-.77-1.928-2.217M76.362 4.33h4.58v13.037h-4.58V4.33zm0 14.523h4.58v2.972h-4.58v-2.972zm13.423-5.1c-1.685 0-2.722-1.278-2.722-2.893 0-1.638 1.156-2.94 2.77-2.94 1.687 0 2.723 1.278 2.723 2.893 0 1.64-1.156 2.94-2.771 2.94zm0-9.689c-4.17 0-7.182 3.013-7.182 6.749 0 3.735 3.037 6.796 7.23 6.796 4.17 0 7.181-3.013 7.181-6.749 0-3.734-3.037-6.796-7.23-6.796m13.356.267h-4.58v13.037h4.58v-1.831c.842 1.084 2.05 2.072 3.905 2.072 2.77 0 4.434-1.831 4.434-4.796V4.329h-4.58v7.012c0 1.447-.746 2.217-1.83 2.217-1.11 0-1.928-.77-1.928-2.217m23.228-2.014c-.006-1.742-1.442-2.8-3.99-2.819h-5.533v5.565h5.19c1.468.001 2.567-.265 3.277-.73.707-.467 1.05-1.106 1.056-1.968v-.048zm-9.523 10.32h4.993c2.397-.021 3.563-1.018 3.574-2.552v-.048c-.003-.939-.368-1.616-1.008-2.09-.642-.473-1.58-.73-2.712-.73h-4.847v5.42zm8.633-6.237c1.219.665 2.352 1.867 2.347 3.905v.048c.015 1.08-.405 2.119-1.167 2.884-1.039 1.006-2.646 1.578-4.647 1.578h-7.532V4.329h7.848c1.91 0 3.514.44 4.654 1.274 1.142.834 1.8 2.077 1.798 3.602v.048c.006 2.249-1.472 3.495-3.302 4.157m13.803-4.23c-.002-.924-.432-1.701-1.148-2.264-.716-.561-1.723-.896-2.84-.896-.819 0-1.57.223-2.103.618-.534.396-.857.947-.859 1.666v.05c.002 1.345 1.172 2.29 3.476 2.307 1.43 0 2.577-.234 3.474-.48V9.18zm-3.351 8.384c-1.9 0-3.293-.454-4.702-1.092l-.19-.086.719-1.958.223.101c1.16.528 2.295.88 3.753.88 1.153 0 2.03-.283 2.615-.806.583-.524.907-1.302.908-2.377v-.095c-1.047.277-2.146.466-3.646.464-1.637 0-3.038-.358-4.045-1.087-1.01-.726-1.599-1.84-1.598-3.252v-.05c-.002-1.36.63-2.418 1.566-3.107.933-.693 2.16-1.037 3.391-1.037h.009c1.987 0 3.391.798 4.323 1.765V4.33h2.316v7.92c.002 1.645-.457 2.935-1.39 3.86-.961.955-2.425 1.454-4.252 1.454m14.383.072c-1.925.005-3.238-.838-4.111-1.957v1.69h-2.34V4.329h2.34v7.432c.01 2.257 1.507 3.711 3.572 3.722 2.117-.02 3.256-1.317 3.278-3.575v-7.58h2.34v8.043c0 1.54-.462 2.862-1.339 3.797-.874.936-2.16 1.47-3.74 1.468m13.555-5.918l5.558 5.65h-2.988l-6.515-6.75v11.207h-2.34V4.329h2.34v3.42l2.326 2.333 4.444-5.752h2.823M29.648 27.293V14.235C29.648 3.49 19.952-.569 11.095.747c3.107.79 5.978 2.876 5.978 8.556v5.988c0 5.65 1.767 11.059 12.575 12.002" transform="translate(-762 -3225) translate(0 2756) translate(720 402) translate(42 67) matrix(1 0 0 -1 6 50)"/>
                            <path d="M.67 36.796V14.064C.67 3.752 6.85 2.205 8.865 1.886c2.114-.335 4.813.662 5.99 2.444-1.475.89-1.608 3.887-1.608 7.415v13.454c0 8.682-6.154 11.597-12.575 11.597M172.706 15.698c.23 0 .36.12.36.288 0 .19-.13.292-.36.292h-.428v-.58h.428zm-.769.878h.8c.39 0 .68-.19.68-.56 0-.289-.17-.468-.41-.539l.47-.67h-.411l-.42.61h-.368v-.61h-.34v1.769zm2.22-.918v.01c0 .848-.66 1.547-1.54 1.547-.412 0-.805-.166-1.094-.458-.288-.293-.449-.688-.445-1.1v-.01c0-.849.658-1.549 1.538-1.549.412.001.806.167 1.095.46.29.292.45.688.445 1.1zm-3.277-.011v.01c0 .95.768 1.75 1.736 1.75.98 0 1.74-.79 1.74-1.74v-.01c0-.962-.777-1.744-1.74-1.75-.98 0-1.736.79-1.736 1.74" transform="translate(-762 -3225) translate(0 2756) translate(720 402) translate(42 67) matrix(1 0 0 -1 6 50)"/>
                        </g>
                    </g>
                </g>
            </g>
        </g>
    </g>
</svg>
