<svg xmlns="http://www.w3.org/2000/svg" width="163" height="52" viewBox="0 0 163 52">
    <g fill="none" fill-rule="evenodd">
        <g>
            <g>
                <g>
                    <g>
                        <path fill="#FFF" d="M1 0H163V52H1z" transform="translate(-1375 -3230) translate(0 2756) translate(1320 402) translate(55 72)"/>
                        <g fill-rule="nonzero">
                            <path fill="red" d="M158.302.065c1.243-.065 2.487-.065 3.73-.032-3.73 7.789-7.33 15.643-10.963 23.465h-3.044c-1.669-3.927-3.632-7.756-5.367-11.683 1.211-.033 2.422-.033 3.633 0 1.047 2.421 2.29 4.745 3.24 7.167 2.913-6.317 5.924-12.6 8.77-18.917z" transform="translate(-1375 -3230) translate(0 2756) translate(1320 402) translate(55 72) translate(0 8)"/>
                            <path fill="#000" d="M64.604 3.404c2.389.032 4.81.032 7.2 0-.033 2.127-.033 4.287 0 6.414-2.39-.033-4.811 0-7.233-.033.065-2.127 0-4.254.033-6.381zm-36.23 9.163c4.91-2.782 12.044-1.832 15.35 2.978 2.029 2.848 2.618 6.448 2.585 9.851-5.629.033-11.258 0-16.887.033.262 1.735 1.014 3.567 2.618 4.484 2.29 1.342 5.89.949 7.036-1.702 2.324-.066 4.615-.066 6.939 0-.72 2.65-2.651 4.909-5.073 6.153-2.618 1.44-5.76 1.701-8.673 1.21-3.076-.49-5.924-2.225-7.658-4.81-1.898-2.75-2.39-6.251-1.964-9.491.426-3.568 2.553-6.938 5.728-8.706zm3.83 4.091c-1.604.753-2.39 2.487-2.75 4.157h9.622c-.196-1.277-.654-2.619-1.636-3.502-1.375-1.342-3.567-1.375-5.236-.655zm71.64-5.334c3.861-.688 8.149.13 11.127 2.814 5.073 4.517 5.302 13.255.589 18.098-3.73 3.895-9.982 4.615-14.76 2.422-3.698-1.669-6.218-5.433-6.644-9.425-.163-2.324-.065-4.713.884-6.873 1.44-3.698 4.942-6.382 8.804-7.036zm.818 5.334c-2.03.72-2.978 2.913-3.273 4.91-.229 2.487-.196 5.301 1.407 7.363 1.735 2.258 5.564 2.193 7.299-.033 1.44-1.8 1.669-4.254 1.505-6.48-.098-1.963-.785-4.058-2.422-5.269-1.309-.884-3.043-1.014-4.516-.49zm24.873-3.993c2.389-1.865 5.792-2.061 8.541-.949 1.964.851 3.437 2.586 4.124 4.582.785 2.062.556 4.287.556 6.447 0 4.124-.032 8.248.033 12.339-2.389.032-4.778 0-7.2.032V20.978c0-1.21-.458-2.52-1.473-3.273-1.538-1.047-3.763-.85-5.072.459-1.048 1.047-1.506 2.552-1.473 3.992v12.96c-2.356-.032-4.746 0-7.102-.032 0-7.79.033-15.579 0-23.368 2.324.033 4.615-.032 6.938.033-.032 1.08-.032 2.16-.065 3.24.72-.785 1.309-1.669 2.193-2.324zM0 11.782h7.462c1.505 5.007 3.109 10.014 4.516 15.054 1.735-4.941 3.044-10.047 4.68-15.054 2.39-.033 4.811 0 7.2-.033-2.749 7.79-5.433 15.578-8.149 23.367-2.487 0-4.974-.032-7.462.033C5.4 27.393 2.88 19.505 0 11.782zm47.945-.033h6.873c-.033 1.31 0 2.618-.065 3.927.589-.654 1.014-1.472 1.636-2.094 1.538-1.702 4.058-2.39 6.284-1.8-.033 2.062-.033 4.123 0 6.153-1.768-.197-3.731-.131-5.237.949-1.603 1.112-2.323 3.174-2.29 5.072-.033 3.731 0 7.43 0 11.16-2.39 0-4.811-.032-7.2.033.032-7.822.032-15.61 0-23.4zm16.659.033c2.421-.033 4.81 0 7.232-.033-.032 7.79 0 15.578 0 23.367-2.389-.032-4.81 0-7.232 0V11.782zm9.163-.033c6.513.033 13.026 0 19.506.033-.066 1.8 0 3.567-.033 5.367-.23.458-.622.786-.916 1.178-3.339 3.698-6.611 7.495-10.015 11.16 3.83.066 7.658 0 11.487.033v5.63c-6.676-.034-13.352-.034-20.029 0v-5.434C77.27 25.79 80.738 21.895 84.273 18c.098-.196.523-.393.294-.655-3.6.099-7.2 0-10.8.066v-5.662z" transform="translate(-1375 -3230) translate(0 2756) translate(1320 402) translate(55 72) translate(0 8)"/>
                        </g>
                    </g>
                </g>
            </g>
        </g>
    </g>
</svg>
