<?xml version="1.0" encoding="UTF-8"?>
<svg width="520px" height="469px" viewBox="0 0 520 469" version="1.1" xmlns="http://www.w3.org/2000/svg" xmlns:xlink="http://www.w3.org/1999/xlink">
    <title>pattern-group</title>
    <g id="[NEW-UPDATE-Landing]" stroke="none" stroke-width="1" fill="none" fill-rule="evenodd">
        <g id="53---Personal-Web-Designer" transform="translate(-477.000000, -167.000000)">
            <g id="Shape" transform="translate(150.000000, 167.000000)">
                <g id="pattern-group" transform="translate(327.000000, 0.000000)">
                    <path d="M118.411765,461.779661 C120.393492,461.779661 122,463.395989 122,465.389831 C122,467.383672 120.393492,469 118.411765,469 C116.430037,469 114.823529,467.383672 114.823529,465.389831 C114.823529,463.395989 116.430037,461.779661 118.411765,461.779661 Z M99.2745098,461.779661 C101.256237,461.779661 102.862745,463.395989 102.862745,465.389831 C102.862745,467.383672 101.256237,469 99.2745098,469 C97.2927822,469 95.6862745,467.383672 95.6862745,465.389831 C95.6862745,463.395989 97.2927822,461.779661 99.2745098,461.779661 Z M80.1372549,461.779661 C82.1189825,461.779661 83.7254902,463.395989 83.7254902,465.389831 C83.7254902,467.383672 82.1189825,469 80.1372549,469 C78.1555273,469 76.5490196,467.383672 76.5490196,465.389831 C76.5490196,463.395989 78.1555273,461.779661 80.1372549,461.779661 Z M61,461.779661 C62.9817276,461.779661 64.5882353,463.395989 64.5882353,465.389831 C64.5882353,467.383672 62.9817276,469 61,469 C59.0182724,469 57.4117647,467.383672 57.4117647,465.389831 C57.4117647,463.395989 59.0182724,461.779661 61,461.779661 Z M41.8627451,461.779661 C43.8444727,461.779661 45.4509804,463.395989 45.4509804,465.389831 C45.4509804,467.383672 43.8444727,469 41.8627451,469 C39.8810175,469 38.2745098,467.383672 38.2745098,465.389831 C38.2745098,463.395989 39.8810175,461.779661 41.8627451,461.779661 Z M22.7254902,461.779661 C24.7072178,461.779661 26.3137255,463.395989 26.3137255,465.389831 C26.3137255,467.383672 24.7072178,469 22.7254902,469 C20.7437626,469 19.1372549,467.383672 19.1372549,465.389831 C19.1372549,463.395989 20.7437626,461.779661 22.7254902,461.779661 Z M3.58823529,461.779661 C5.56996293,461.779661 7.17647059,463.395989 7.17647059,465.389831 C7.17647059,467.383672 5.56996293,469 3.58823529,469 C1.60650766,469 0,467.383672 0,465.389831 C0,463.395989 1.60650766,461.779661 3.58823529,461.779661 Z M118.411765,442.525424 C120.393492,442.525424 122,444.141752 122,446.135593 C122,448.129435 120.393492,449.745763 118.411765,449.745763 C116.430037,449.745763 114.823529,448.129435 114.823529,446.135593 C114.823529,444.141752 116.430037,442.525424 118.411765,442.525424 Z M99.2745098,442.525424 C101.256237,442.525424 102.862745,444.141752 102.862745,446.135593 C102.862745,448.129435 101.256237,449.745763 99.2745098,449.745763 C97.2927822,449.745763 95.6862745,448.129435 95.6862745,446.135593 C95.6862745,444.141752 97.2927822,442.525424 99.2745098,442.525424 Z M80.1372549,442.525424 C82.1189825,442.525424 83.7254902,444.141752 83.7254902,446.135593 C83.7254902,448.129435 82.1189825,449.745763 80.1372549,449.745763 C78.1555273,449.745763 76.5490196,448.129435 76.5490196,446.135593 C76.5490196,444.141752 78.1555273,442.525424 80.1372549,442.525424 Z M61,442.525424 C62.9817276,442.525424 64.5882353,444.141752 64.5882353,446.135593 C64.5882353,448.129435 62.9817276,449.745763 61,449.745763 C59.0182724,449.745763 57.4117647,448.129435 57.4117647,446.135593 C57.4117647,444.141752 59.0182724,442.525424 61,442.525424 Z M41.8627451,442.525424 C43.8444727,442.525424 45.4509804,444.141752 45.4509804,446.135593 C45.4509804,448.129435 43.8444727,449.745763 41.8627451,449.745763 C39.8810175,449.745763 38.2745098,448.129435 38.2745098,446.135593 C38.2745098,444.141752 39.8810175,442.525424 41.8627451,442.525424 Z M22.7254902,442.525424 C24.7072178,442.525424 26.3137255,444.141752 26.3137255,446.135593 C26.3137255,448.129435 24.7072178,449.745763 22.7254902,449.745763 C20.7437626,449.745763 19.1372549,448.129435 19.1372549,446.135593 C19.1372549,444.141752 20.7437626,442.525424 22.7254902,442.525424 Z M3.58823529,442.525424 C5.56996293,442.525424 7.17647059,444.141752 7.17647059,446.135593 C7.17647059,448.129435 5.56996293,449.745763 3.58823529,449.745763 C1.60650766,449.745763 0,448.129435 0,446.135593 C0,444.141752 1.60650766,442.525424 3.58823529,442.525424 Z M118.411765,423.271186 C120.393492,423.271186 122,424.887514 122,426.881356 C122,428.875197 120.393492,430.491525 118.411765,430.491525 C116.430037,430.491525 114.823529,428.875197 114.823529,426.881356 C114.823529,424.887514 116.430037,423.271186 118.411765,423.271186 Z M99.2745098,423.271186 C101.256237,423.271186 102.862745,424.887514 102.862745,426.881356 C102.862745,428.875197 101.256237,430.491525 99.2745098,430.491525 C97.2927822,430.491525 95.6862745,428.875197 95.6862745,426.881356 C95.6862745,424.887514 97.2927822,423.271186 99.2745098,423.271186 Z M80.1372549,423.271186 C82.1189825,423.271186 83.7254902,424.887514 83.7254902,426.881356 C83.7254902,428.875197 82.1189825,430.491525 80.1372549,430.491525 C78.1555273,430.491525 76.5490196,428.875197 76.5490196,426.881356 C76.5490196,424.887514 78.1555273,423.271186 80.1372549,423.271186 Z M61,423.271186 C62.9817276,423.271186 64.5882353,424.887514 64.5882353,426.881356 C64.5882353,428.875197 62.9817276,430.491525 61,430.491525 C59.0182724,430.491525 57.4117647,428.875197 57.4117647,426.881356 C57.4117647,424.887514 59.0182724,423.271186 61,423.271186 Z M41.8627451,423.271186 C43.8444727,423.271186 45.4509804,424.887514 45.4509804,426.881356 C45.4509804,428.875197 43.8444727,430.491525 41.8627451,430.491525 C39.8810175,430.491525 38.2745098,428.875197 38.2745098,426.881356 C38.2745098,424.887514 39.8810175,423.271186 41.8627451,423.271186 Z M22.7254902,423.271186 C24.7072178,423.271186 26.3137255,424.887514 26.3137255,426.881356 C26.3137255,428.875197 24.7072178,430.491525 22.7254902,430.491525 C20.7437626,430.491525 19.1372549,428.875197 19.1372549,426.881356 C19.1372549,424.887514 20.7437626,423.271186 22.7254902,423.271186 Z M3.58823529,423.271186 C5.56996293,423.271186 7.17647059,424.887514 7.17647059,426.881356 C7.17647059,428.875197 5.56996293,430.491525 3.58823529,430.491525 C1.60650766,430.491525 0,428.875197 0,426.881356 C0,424.887514 1.60650766,423.271186 3.58823529,423.271186 Z M118.411765,404.016949 C120.393492,404.016949 122,405.633277 122,407.627119 C122,409.62096 120.393492,411.237288 118.411765,411.237288 C116.430037,411.237288 114.823529,409.62096 114.823529,407.627119 C114.823529,405.633277 116.430037,404.016949 118.411765,404.016949 Z M99.2745098,404.016949 C101.256237,404.016949 102.862745,405.633277 102.862745,407.627119 C102.862745,409.62096 101.256237,411.237288 99.2745098,411.237288 C97.2927822,411.237288 95.6862745,409.62096 95.6862745,407.627119 C95.6862745,405.633277 97.2927822,404.016949 99.2745098,404.016949 Z M80.1372549,404.016949 C82.1189825,404.016949 83.7254902,405.633277 83.7254902,407.627119 C83.7254902,409.62096 82.1189825,411.237288 80.1372549,411.237288 C78.1555273,411.237288 76.5490196,409.62096 76.5490196,407.627119 C76.5490196,405.633277 78.1555273,404.016949 80.1372549,404.016949 Z M61,404.016949 C62.9817276,404.016949 64.5882353,405.633277 64.5882353,407.627119 C64.5882353,409.62096 62.9817276,411.237288 61,411.237288 C59.0182724,411.237288 57.4117647,409.62096 57.4117647,407.627119 C57.4117647,405.633277 59.0182724,404.016949 61,404.016949 Z M41.8627451,404.016949 C43.8444727,404.016949 45.4509804,405.633277 45.4509804,407.627119 C45.4509804,409.62096 43.8444727,411.237288 41.8627451,411.237288 C39.8810175,411.237288 38.2745098,409.62096 38.2745098,407.627119 C38.2745098,405.633277 39.8810175,404.016949 41.8627451,404.016949 Z M22.7254902,404.016949 C24.7072178,404.016949 26.3137255,405.633277 26.3137255,407.627119 C26.3137255,409.62096 24.7072178,411.237288 22.7254902,411.237288 C20.7437626,411.237288 19.1372549,409.62096 19.1372549,407.627119 C19.1372549,405.633277 20.7437626,404.016949 22.7254902,404.016949 Z M3.58823529,404.016949 C5.56996293,404.016949 7.17647059,405.633277 7.17647059,407.627119 C7.17647059,409.62096 5.56996293,411.237288 3.58823529,411.237288 C1.60650766,411.237288 0,409.62096 0,407.627119 C0,405.633277 1.60650766,404.016949 3.58823529,404.016949 Z M118.411765,384.762712 C120.393492,384.762712 122,386.37904 122,388.372881 C122,390.366723 120.393492,391.983051 118.411765,391.983051 C116.430037,391.983051 114.823529,390.366723 114.823529,388.372881 C114.823529,386.37904 116.430037,384.762712 118.411765,384.762712 Z M99.2745098,384.762712 C101.256237,384.762712 102.862745,386.37904 102.862745,388.372881 C102.862745,390.366723 101.256237,391.983051 99.2745098,391.983051 C97.2927822,391.983051 95.6862745,390.366723 95.6862745,388.372881 C95.6862745,386.37904 97.2927822,384.762712 99.2745098,384.762712 Z M80.1372549,384.762712 C82.1189825,384.762712 83.7254902,386.37904 83.7254902,388.372881 C83.7254902,390.366723 82.1189825,391.983051 80.1372549,391.983051 C78.1555273,391.983051 76.5490196,390.366723 76.5490196,388.372881 C76.5490196,386.37904 78.1555273,384.762712 80.1372549,384.762712 Z M61,384.762712 C62.9817276,384.762712 64.5882353,386.37904 64.5882353,388.372881 C64.5882353,390.366723 62.9817276,391.983051 61,391.983051 C59.0182724,391.983051 57.4117647,390.366723 57.4117647,388.372881 C57.4117647,386.37904 59.0182724,384.762712 61,384.762712 Z M41.8627451,384.762712 C43.8444727,384.762712 45.4509804,386.37904 45.4509804,388.372881 C45.4509804,390.366723 43.8444727,391.983051 41.8627451,391.983051 C39.8810175,391.983051 38.2745098,390.366723 38.2745098,388.372881 C38.2745098,386.37904 39.8810175,384.762712 41.8627451,384.762712 Z M22.7254902,384.762712 C24.7072178,384.762712 26.3137255,386.37904 26.3137255,388.372881 C26.3137255,390.366723 24.7072178,391.983051 22.7254902,391.983051 C20.7437626,391.983051 19.1372549,390.366723 19.1372549,388.372881 C19.1372549,386.37904 20.7437626,384.762712 22.7254902,384.762712 Z M3.58823529,384.762712 C5.56996293,384.762712 7.17647059,386.37904 7.17647059,388.372881 C7.17647059,390.366723 5.56996293,391.983051 3.58823529,391.983051 C1.60650766,391.983051 0,390.366723 0,388.372881 C0,386.37904 1.60650766,384.762712 3.58823529,384.762712 Z M118.411765,365.508475 C120.393492,365.508475 122,367.124803 122,369.118644 C122,371.112486 120.393492,372.728814 118.411765,372.728814 C116.430037,372.728814 114.823529,371.112486 114.823529,369.118644 C114.823529,367.124803 116.430037,365.508475 118.411765,365.508475 Z M99.2745098,365.508475 C101.256237,365.508475 102.862745,367.124803 102.862745,369.118644 C102.862745,371.112486 101.256237,372.728814 99.2745098,372.728814 C97.2927822,372.728814 95.6862745,371.112486 95.6862745,369.118644 C95.6862745,367.124803 97.2927822,365.508475 99.2745098,365.508475 Z M80.1372549,365.508475 C82.1189825,365.508475 83.7254902,367.124803 83.7254902,369.118644 C83.7254902,371.112486 82.1189825,372.728814 80.1372549,372.728814 C78.1555273,372.728814 76.5490196,371.112486 76.5490196,369.118644 C76.5490196,367.124803 78.1555273,365.508475 80.1372549,365.508475 Z M61,365.508475 C62.9817276,365.508475 64.5882353,367.124803 64.5882353,369.118644 C64.5882353,371.112486 62.9817276,372.728814 61,372.728814 C59.0182724,372.728814 57.4117647,371.112486 57.4117647,369.118644 C57.4117647,367.124803 59.0182724,365.508475 61,365.508475 Z M41.8627451,365.508475 C43.8444727,365.508475 45.4509804,367.124803 45.4509804,369.118644 C45.4509804,371.112486 43.8444727,372.728814 41.8627451,372.728814 C39.8810175,372.728814 38.2745098,371.112486 38.2745098,369.118644 C38.2745098,367.124803 39.8810175,365.508475 41.8627451,365.508475 Z M22.7254902,365.508475 C24.7072178,365.508475 26.3137255,367.124803 26.3137255,369.118644 C26.3137255,371.112486 24.7072178,372.728814 22.7254902,372.728814 C20.7437626,372.728814 19.1372549,371.112486 19.1372549,369.118644 C19.1372549,367.124803 20.7437626,365.508475 22.7254902,365.508475 Z M3.58823529,365.508475 C5.56996293,365.508475 7.17647059,367.124803 7.17647059,369.118644 C7.17647059,371.112486 5.56996293,372.728814 3.58823529,372.728814 C1.60650766,372.728814 0,371.112486 0,369.118644 C0,367.124803 1.60650766,365.508475 3.58823529,365.508475 Z M118.411765,346.254237 C120.393492,346.254237 122,347.870565 122,349.864407 C122,351.858248 120.393492,353.474576 118.411765,353.474576 C116.430037,353.474576 114.823529,351.858248 114.823529,349.864407 C114.823529,347.870565 116.430037,346.254237 118.411765,346.254237 Z M99.2745098,346.254237 C101.256237,346.254237 102.862745,347.870565 102.862745,349.864407 C102.862745,351.858248 101.256237,353.474576 99.2745098,353.474576 C97.2927822,353.474576 95.6862745,351.858248 95.6862745,349.864407 C95.6862745,347.870565 97.2927822,346.254237 99.2745098,346.254237 Z M80.1372549,346.254237 C82.1189825,346.254237 83.7254902,347.870565 83.7254902,349.864407 C83.7254902,351.858248 82.1189825,353.474576 80.1372549,353.474576 C78.1555273,353.474576 76.5490196,351.858248 76.5490196,349.864407 C76.5490196,347.870565 78.1555273,346.254237 80.1372549,346.254237 Z M61,346.254237 C62.9817276,346.254237 64.5882353,347.870565 64.5882353,349.864407 C64.5882353,351.858248 62.9817276,353.474576 61,353.474576 C59.0182724,353.474576 57.4117647,351.858248 57.4117647,349.864407 C57.4117647,347.870565 59.0182724,346.254237 61,346.254237 Z M41.8627451,346.254237 C43.8444727,346.254237 45.4509804,347.870565 45.4509804,349.864407 C45.4509804,351.858248 43.8444727,353.474576 41.8627451,353.474576 C39.8810175,353.474576 38.2745098,351.858248 38.2745098,349.864407 C38.2745098,347.870565 39.8810175,346.254237 41.8627451,346.254237 Z M22.7254902,346.254237 C24.7072178,346.254237 26.3137255,347.870565 26.3137255,349.864407 C26.3137255,351.858248 24.7072178,353.474576 22.7254902,353.474576 C20.7437626,353.474576 19.1372549,351.858248 19.1372549,349.864407 C19.1372549,347.870565 20.7437626,346.254237 22.7254902,346.254237 Z M3.58823529,346.254237 C5.56996293,346.254237 7.17647059,347.870565 7.17647059,349.864407 C7.17647059,351.858248 5.56996293,353.474576 3.58823529,353.474576 C1.60650766,353.474576 0,351.858248 0,349.864407 C0,347.870565 1.60650766,346.254237 3.58823529,346.254237 Z M118.411765,327 C120.393492,327 122,328.616328 122,330.610169 C122,332.604011 120.393492,334.220339 118.411765,334.220339 C116.430037,334.220339 114.823529,332.604011 114.823529,330.610169 C114.823529,328.616328 116.430037,327 118.411765,327 Z M99.2745098,327 C101.256237,327 102.862745,328.616328 102.862745,330.610169 C102.862745,332.604011 101.256237,334.220339 99.2745098,334.220339 C97.2927822,334.220339 95.6862745,332.604011 95.6862745,330.610169 C95.6862745,328.616328 97.2927822,327 99.2745098,327 Z M80.1372549,327 C82.1189825,327 83.7254902,328.616328 83.7254902,330.610169 C83.7254902,332.604011 82.1189825,334.220339 80.1372549,334.220339 C78.1555273,334.220339 76.5490196,332.604011 76.5490196,330.610169 C76.5490196,328.616328 78.1555273,327 80.1372549,327 Z M61,327 C62.9817276,327 64.5882353,328.616328 64.5882353,330.610169 C64.5882353,332.604011 62.9817276,334.220339 61,334.220339 C59.0182724,334.220339 57.4117647,332.604011 57.4117647,330.610169 C57.4117647,328.616328 59.0182724,327 61,327 Z M41.8627451,327 C43.8444727,327 45.4509804,328.616328 45.4509804,330.610169 C45.4509804,332.604011 43.8444727,334.220339 41.8627451,334.220339 C39.8810175,334.220339 38.2745098,332.604011 38.2745098,330.610169 C38.2745098,328.616328 39.8810175,327 41.8627451,327 Z M22.7254902,327 C24.7072178,327 26.3137255,328.616328 26.3137255,330.610169 C26.3137255,332.604011 24.7072178,334.220339 22.7254902,334.220339 C20.7437626,334.220339 19.1372549,332.604011 19.1372549,330.610169 C19.1372549,328.616328 20.7437626,327 22.7254902,327 Z M3.58823529,327 C5.56996293,327 7.17647059,328.616328 7.17647059,330.610169 C7.17647059,332.604011 5.56996293,334.220339 3.58823529,334.220339 C1.60650766,334.220339 0,332.604011 0,330.610169 C0,328.616328 1.60650766,327 3.58823529,327 Z" id="Pattern" fill="#1565D8" opacity="0.100000001"></path>
                    <g id="Elements/Shape/Fill/99-R" transform="translate(129.000000, 85.000000)">
                        <rect id="Shadow" x="0" y="0" width="221" height="221"></rect>
                        <rect id="Fill" fill="#FAAD13" x="0" y="0" width="221" height="221"></rect>
                    </g>
                    <g id="Elements/Shape/Fill/99-R-Copy" transform="translate(490.000000, 0.000000)">
                        <rect id="Shadow" x="0" y="0" width="30" height="30"></rect>
                        <rect id="Fill" fill="#00B8D9" x="0" y="0" width="30" height="30"></rect>
                    </g>
                    <path d="M441.828427,31.8284271 L484.171573,74.1715729 C485.73367,75.73367 485.73367,78.26633 484.171573,79.8284271 C483.421427,80.5785726 482.404012,81 481.343146,81 L439,81 C436.790861,81 435,79.209139 435,77 L435,34.6568542 C435,32.4477153 436.790861,30.6568542 439,30.6568542 C440.060866,30.6568542 441.078282,31.0782816 441.828427,31.8284271 Z" id="Shape" fill="#E95432"></path>
                </g>
            </g>
        </g>
    </g>
</svg>