<?xml version="1.0" encoding="UTF-8"?>
<svg width="64px" height="64px" viewBox="0 0 64 64" version="1.1" xmlns="http://www.w3.org/2000/svg" xmlns:xlink="http://www.w3.org/1999/xlink">
    <title>Icon</title>
    <g id="Desktop" stroke="none" stroke-width="1" fill="none" fill-rule="evenodd">
        <g id="50---Cryptocurrency" transform="translate(-194.000000, -1069.000000)">
            <g id="Benefit" transform="translate(150.000000, 1069.000000)">
                <g id="Icon" transform="translate(44.000000, 0.000000)">
                    <circle id="Base" stroke="#E5EAF4" fill="#FFFFFF" cx="32" cy="32" r="31.5"></circle>
                    <g transform="translate(14.000000, 14.000000)">
                        <polygon id="path" points="0 0 36 0 36 36 0 36"></polygon>
                        <path d="M18,34 C9.163444,34 2,26.836556 2,18 C2,9.163444 9.163444,2 18,2 C26.836556,2 34,9.163444 34,18 C34,26.836556 26.836556,34 18,34 Z" id="path" fill="#3B5AFB" fill-rule="nonzero"></path>
                        <g id="bitcoin-alt" transform="translate(12.000000, 11.000000)" fill="#FFFFFF" fill-rule="nonzero">
                            <path d="M9.37467429,6.27897143 C10.0068311,5.34530628 10.0714921,4.13880266 9.54274708,3.14292041 C9.01400202,2.14703815 7.9783617,1.52471899 6.85081905,1.52533333 L6.85081905,0.763428571 C6.85081905,0.342640191 6.50970267,0.00152380952 6.08891429,0.00152380952 C5.6681259,0.00152380952 5.32700952,0.342640191 5.32700952,0.763428571 L5.32700952,1.52533333 L3.8032,1.52533333 L3.8032,0.763428571 C3.8032,0.342640191 3.46208362,0.00152380952 3.04129524,0.00152380952 C2.62050686,0.00152380952 2.27939048,0.342640191 2.27939048,0.763428571 L2.27939048,1.52533333 L1.51748571,1.52533333 C1.09669733,1.52533333 0.755580952,1.86644971 0.755580952,2.2872381 C0.755580952,2.70802648 1.09669733,3.04914286 1.51748571,3.04914286 L2.27939048,3.04914286 L2.27939048,10.6681905 L1.51748571,10.6681905 C1.09669733,10.6681905 0.755580952,11.0093069 0.755580952,11.4300952 C0.755580952,11.8508836 1.09669733,12.192 1.51748571,12.192 L2.27939048,12.192 L2.27939048,12.9539048 C2.27939048,13.3746931 2.62050686,13.7158095 3.04129524,13.7158095 C3.46208362,13.7158095 3.8032,13.3746931 3.8032,12.9539048 L3.8032,12.192 L5.32700952,12.192 L5.32700952,12.9539048 C5.32700952,13.3746931 5.6681259,13.7158095 6.08891429,13.7158095 C6.50970267,13.7158095 6.85081905,13.3746931 6.85081905,12.9539048 L6.85081905,12.192 L8.37462857,12.192 C9.8607953,12.19585 11.1318487,11.1245345 11.3796808,9.6591726 C11.6275129,8.19381067 10.779451,6.76409583 9.37467429,6.27900952 L9.37467429,6.27897143 Z M3.8032,3.04914286 L6.85081905,3.04914286 C7.6923958,3.04914286 8.37462854,3.73137563 8.37462854,4.57295238 C8.37462854,5.41452913 7.6923958,6.0967619 6.85081905,6.0967619 L3.8032,6.0967619 L3.8032,3.04914286 Z M8.37462857,10.6681905 L3.8032,10.6681905 L3.8032,7.62057143 L8.37462857,7.62057143 C9.21620533,7.62057143 9.8984381,8.30280419 9.8984381,9.14438095 C9.8984381,9.98595771 9.21620533,10.6681905 8.37462857,10.6681905 Z" id="Shape"></path>
                        </g>
                    </g>
                </g>
            </g>
        </g>
    </g>
</svg>