<?xml version="1.0" encoding="UTF-8"?>
<svg width="64px" height="64px" viewBox="0 0 64 64" version="1.1" xmlns="http://www.w3.org/2000/svg" xmlns:xlink="http://www.w3.org/1999/xlink">
    <title>Icon</title>
    <g id="Desktop" stroke="none" stroke-width="1" fill="none" fill-rule="evenodd">
        <g id="50---Cryptocurrency" transform="translate(-981.000000, -1069.000000)">
            <g id="Benefit" transform="translate(150.000000, 1069.000000)">
                <g id="Item" transform="translate(779.000000, 0.000000)">
                    <g id="Icon" transform="translate(52.000000, 0.000000)">
                        <circle id="Base" stroke="#E5EAF4" fill="#FFFFFF" cx="32" cy="32" r="31.5"></circle>
                        <g transform="translate(14.000000, 14.000000)" id="path">
                            <polygon points="0 0 36 0 36 36 0 36"></polygon>
                            <path d="M22.68,29.2473506 L22.68,26.3417662 L22.7854416,26.0872078 L27.72,21.1526494 L27.72,24.0582338 L27.6145584,24.3127922 L22.68,29.2473506 Z M15.5854416,24.3127922 L15.48,24.0582338 L15.48,21.1526494 L20.4145584,26.0872078 L20.52,26.3417662 L20.52,29.2473506 L15.5854416,24.3127922 Z M13.32,21.1526494 L13.32,24.0582338 L13.2145584,24.3127922 L8.28,29.2473506 L8.28,26.3417662 L8.38544156,26.0872078 L13.32,21.1526494 Z M27.72,5.31264935 L27.72,8.21823376 L27.6145584,8.47279221 L22.68,13.4073506 L22.68,10.5017662 L22.7854416,10.2472078 L27.72,5.31264935 Z M15.48,5.31264935 L20.4145584,10.2472078 L20.52,10.5017662 L20.52,13.4073506 L15.5854416,8.47279221 L15.48,8.21823376 L15.48,5.31264935 Z M13.32,5.31264935 L13.32,8.21823376 L13.2145584,8.47279221 L8.28,13.4073506 L8.28,10.5017662 L8.38544156,10.2472078 L13.32,5.31264935 Z" fill="#44D5E9" fill-rule="nonzero"></path>
                            <path d="M21.6,25.92 C23.1905801,25.92 24.48,27.2094199 24.48,28.8 C24.48,30.3905801 23.1905801,31.68 21.6,31.68 C20.0094199,31.68 18.72,30.3905801 18.72,28.8 C18.72,27.2094199 20.0094199,25.92 21.6,25.92 Z M7.2,25.92 C8.79058008,25.92 10.08,27.2094199 10.08,28.8 C10.08,30.3905801 8.79058008,31.68 7.2,31.68 C5.60941992,31.68 4.32,30.3905801 4.32,28.8 C4.32,27.2094199 5.60941992,25.92 7.2,25.92 Z M14.4,18.72 C15.9905801,18.72 17.28,20.0094199 17.28,21.6 C17.28,23.1905801 15.9905801,24.48 14.4,24.48 C12.8094199,24.48 11.52,23.1905801 11.52,21.6 C11.52,20.0094199 12.8094199,18.72 14.4,18.72 Z M28.8,18.72 C30.3905801,18.72 31.68,20.0094199 31.68,21.6 C31.68,23.1905801 30.3905801,24.48 28.8,24.48 C27.2094199,24.48 25.92,23.1905801 25.92,21.6 C25.92,20.0094199 27.2094199,18.72 28.8,18.72 Z M21.6,10.08 C23.1905801,10.08 24.48,11.3694199 24.48,12.96 C24.48,14.5505801 23.1905801,15.84 21.6,15.84 C20.0094199,15.84 18.72,14.5505801 18.72,12.96 C18.72,11.3694199 20.0094199,10.08 21.6,10.08 Z M7.2,10.08 C8.79058008,10.08 10.08,11.3694199 10.08,12.96 C10.08,14.5505801 8.79058008,15.84 7.2,15.84 C5.60941992,15.84 4.32,14.5505801 4.32,12.96 C4.32,11.3694199 5.60941992,10.08 7.2,10.08 Z M14.4,2.88 C15.9905801,2.88 17.28,4.16941992 17.28,5.76 C17.28,7.35058008 15.9905801,8.64 14.4,8.64 C12.8094199,8.64 11.52,7.35058008 11.52,5.76 C11.52,4.16941992 12.8094199,2.88 14.4,2.88 Z M28.8,2.88 C30.3905801,2.88 31.68,4.16941992 31.68,5.76 C31.68,7.35058008 30.3905801,8.64 28.8,8.64 C27.2094199,8.64 25.92,7.35058008 25.92,5.76 C25.92,4.16941992 27.2094199,2.88 28.8,2.88 Z" fill="#3B5AFB" fill-rule="nonzero"></path>
                        </g>
                    </g>
                </g>
            </g>
        </g>
    </g>
</svg>