<?xml version="1.0" encoding="UTF-8"?>
<svg width="64px" height="64px" viewBox="0 0 64 64" version="1.1" xmlns="http://www.w3.org/2000/svg" xmlns:xlink="http://www.w3.org/1999/xlink">
    <title>Icon</title>
    <g id="Desktop" stroke="none" stroke-width="1" fill="none" fill-rule="evenodd">
        <g id="50---Cryptocurrency" transform="translate(-981.000000, -1341.000000)">
            <g id="Benefit" transform="translate(150.000000, 1069.000000)">
                <g id="Item" transform="translate(779.000000, 272.000000)">
                    <g id="Icon" transform="translate(52.000000, 0.000000)">
                        <circle id="Base" stroke="#E5EAF4" fill="#FFFFFF" cx="32" cy="32" r="31.5"></circle>
                        <g transform="translate(14.000000, 14.000000)" id="path">
                            <polygon points="0 0 36 0 36 36 0 36"></polygon>
                            <path d="M18,2.88 C26.3505454,2.88 33.12,9.64945458 33.12,18 C33.12,26.3505454 26.3505454,33.12 18,33.12 C9.64945458,33.12 2.88,26.3505454 2.88,18 C2.88,9.64945458 9.64945458,2.88 18,2.88 Z M18,7.2 C12.0353247,7.2 7.2,12.0353247 7.2,18 C7.2,23.9646753 12.0353247,28.8 18,28.8 C23.9646753,28.8 28.8,23.9646753 28.8,18 C28.8,12.0353247 23.9646753,7.2 18,7.2 Z" fill="#3B5AFB" fill-rule="nonzero"></path>
                            <path d="M18,8.64 C23.1693853,8.64 27.36,12.8306147 27.36,18 C27.36,23.1693853 23.1693853,27.36 18,27.36 C12.8306147,27.36 8.64,23.1693853 8.64,18 C8.64,12.8306147 12.8306147,8.64 18,8.64 Z M18,12.96 C17.602355,12.96 17.28,13.282355 17.28,13.68 L17.28,13.68 L17.28,14.4 L16.5800811,14.4 C15.387146,14.4 14.4200811,15.3670649 14.4200811,16.56 L14.4200811,16.56 L14.4200811,17.2810896 C14.4200811,18.4740247 15.387146,19.4410896 16.5800811,19.4410896 L16.5800811,19.4410896 L19.4400071,19.4410896 C19.8376521,19.4410896 20.1600071,19.7634446 20.1600071,20.1610896 L20.1600071,20.1610896 L20.1600071,20.88 C20.1600071,21.277645 19.8376521,21.6 19.4400071,21.6 L19.4400071,21.6 L15.8576476,21.6 C15.8280054,21.2397681 15.5318086,20.9515219 15.161968,20.9402741 C14.7645067,20.9281864 14.4325016,21.2405933 14.4204138,21.6380545 L14.4204138,21.6380545 L14.4003398,22.2981131 C14.3879913,22.7041463 14.7137862,23.04 15.1200071,23.04 L15.1200071,23.04 L17.28,23.04 L17.28,23.7473877 C17.28,24.1450327 17.602355,24.4673877 18,24.4673877 C18.397645,24.4673877 18.72,24.1450327 18.72,23.7473877 L18.72,23.7473877 L18.72,23.04 L19.4400071,23.04 C20.6329421,23.04 21.6000071,22.0729351 21.6000071,20.88 L21.6000071,20.88 L21.6000071,20.1610896 C21.6000071,18.9681546 20.6329421,18.0010896 19.4400071,18.0010896 L19.4400071,18.0010896 L16.5800811,18.0010896 C16.1824361,18.0010896 15.8600811,17.6787346 15.8600811,17.2810896 L15.8600811,17.2810896 L15.8600811,16.56 C15.8600811,16.162355 16.1824361,15.84 16.5800811,15.84 L16.5800811,15.84 L20.1138565,15.84 C20.1919973,16.1531242 20.4751412,16.3850977 20.8124654,16.3850977 C21.2101104,16.3850977 21.5324654,16.0627427 21.5324654,15.6650977 L21.5324654,15.6650977 L21.5324654,15.12 C21.5324654,14.722355 21.2101104,14.4 20.8124654,14.4 L20.8124654,14.4 L18.72,14.4 L18.72,13.68 C18.72,13.282355 18.397645,12.96 18,12.96 Z" fill="#44D5E9"></path>
                        </g>
                    </g>
                </g>
            </g>
        </g>
    </g>
</svg>