<?xml version="1.0" encoding="UTF-8"?>
<svg width="64px" height="64px" viewBox="0 0 64 64" version="1.1" xmlns="http://www.w3.org/2000/svg" xmlns:xlink="http://www.w3.org/1999/xlink">
    <title>Icon</title>
    <g id="Desktop" stroke="none" stroke-width="1" fill="none" fill-rule="evenodd">
        <g id="50---Cryptocurrency" transform="translate(-194.000000, -1341.000000)">
            <g id="Benefit" transform="translate(150.000000, 1069.000000)">
                <g id="Item" transform="translate(0.000000, 272.000000)">
                    <g id="Icon" transform="translate(44.000000, 0.000000)">
                        <circle id="Base" stroke="#E5EAF4" fill="#FFFFFF" cx="32" cy="32" r="31.5"></circle>
                        <g transform="translate(14.000000, 14.000000)" id="Path">
                            <polygon points="0 0 36 0 36 36 0 36"></polygon>
                            <path d="M9.20871203,8.37099436 L7.98638582,27.8763787 L27.6089237,25.4300624 L23.9491142,12.0463278 L9.20871203,8.37099436 Z M30.2397363,27.1881432 L5.76,30.24 L7.29406593,5.76 L25.6303694,10.3319261 L30.2397363,27.1881432 Z" fill="#44D5E9" fill-rule="nonzero"></path>
                            <path d="M25.0153846,13.4403203 C23.6593131,13.4403203 22.56,12.3409686 22.56,10.9848495 C22.56,9.62873037 23.6593131,8.52937862 25.0153846,8.52937862 C26.3714561,8.52937862 27.4707692,9.62873037 27.4707692,10.9848495 C27.4707692,12.3409686 26.3714561,13.4403203 25.0153846,13.4403203 Z M8.17846154,9.23094172 C6.82239006,9.23094172 5.72307692,8.13158997 5.72307692,6.77547086 C5.72307692,5.41935175 6.82239006,4.32 8.17846154,4.32 C9.53453302,4.32 10.6338462,5.41935175 10.6338462,6.77547086 C10.6338462,8.13158997 9.53453302,9.23094172 8.17846154,9.23094172 Z M6.77538462,31.680961 C5.41931314,31.680961 4.32,30.5816093 4.32,29.2254902 C4.32,27.8693711 5.41931314,26.7700193 6.77538462,26.7700193 C8.13145609,26.7700193 9.23076923,27.8693711 9.23076923,29.2254902 C9.23076923,30.5816093 8.13145609,31.680961 6.77538462,31.680961 Z M29.2246154,28.8747086 C27.8685439,28.8747086 26.7692308,27.7753569 26.7692308,26.4192378 C26.7692308,25.0631186 27.8685439,23.9637669 29.2246154,23.9637669 C30.5806869,23.9637669 31.68,25.0631186 31.68,26.4192378 C31.68,27.7753569 30.5806869,28.8747086 29.2246154,28.8747086 Z" fill="#3B5AFB" fill-rule="nonzero"></path>
                        </g>
                    </g>
                </g>
            </g>
        </g>
    </g>
</svg>