<?xml version="1.0" encoding="UTF-8"?>
<svg width="64px" height="64px" viewBox="0 0 64 64" version="1.1" xmlns="http://www.w3.org/2000/svg" xmlns:xlink="http://www.w3.org/1999/xlink">
    <title>Icon</title>
    <g id="Desktop" stroke="none" stroke-width="1" fill="none" fill-rule="evenodd">
        <g id="50---Cryptocurrency" transform="translate(-591.000000, -1341.000000)">
            <g id="Benefit" transform="translate(150.000000, 1069.000000)">
                <g id="Item" transform="translate(389.000000, 272.000000)">
                    <g id="Icon" transform="translate(52.000000, 0.000000)">
                        <circle id="Base" stroke="#E5EAF4" fill="#FFFFFF" cx="32" cy="32" r="31.5"></circle>
                        <g transform="translate(14.000000, 14.000000)" id="Path">
                            <polygon points="0 0 36 0 36 36 0 36"></polygon>
                            <path d="M27.0912963,30.1519404 C24.5610677,32.0168808 21.4281075,33.12 18.0358713,33.12 C16.2917252,33.12 14.6161209,32.8283809 13.0557418,32.2915326 C13.0290484,32.2558744 12.9986401,32.2221808 12.9645403,32.1909961 C11.6679875,31.0052844 11.77619,28.3034888 13.4148915,27.1178504 C17.0068749,24.5189675 16.6500781,20.2651203 12.3099163,19.0423521 C8.97714288,18.1033988 7.72534709,15.666242 9.34225137,14.1485089 C9.76550881,13.7536193 9.97851692,13.5535914 10.1851267,13.351948 C12.5910215,11.0038851 12.364295,8.39552989 9.49380808,5.48574808 C11.9290573,3.84110212 14.8695161,2.88 18.0358713,2.88 C20.5221128,2.88 22.8690781,3.4725662 24.9415468,4.5233277 C22.0094849,4.94842707 19.5172647,5.89306012 18.8308746,7.17518741 C17.8973408,8.91896155 18.5076403,10.7047722 20.557538,11.4871007 C23.1315879,12.469468 23.5056936,12.9850657 23.4048704,14.0856522 C23.3001643,15.2298402 22.489954,15.9906834 20.3251975,15.9906834 C18.4047153,15.9906834 17.1494232,17.8864312 17.3282316,19.8612051 C17.5252023,22.0365647 19.3418597,23.2237398 21.928017,22.3517073 C26.0070667,20.9762828 28.1503343,25.6879083 27.0912963,30.1519404 L27.0912963,30.1519404 Z" fill="#44D5E9" fill-rule="nonzero"></path>
                            <path d="M28.6682441,29.0435006 C29.0083179,24.0945055 26.0477454,19.6075023 21.405214,21.2053963 C19.7210871,21.7850491 18.8434333,21.1996119 18.7310053,19.9321957 C18.6214896,18.6976094 19.3343541,17.5987094 20.2749445,17.5987094 C23.1815433,17.5987094 24.5987526,16.2402497 24.7661864,14.3725499 C24.9319321,12.5257668 24.1476457,11.4224335 21.0218472,10.2047532 C19.8120244,9.73345691 19.5307695,8.89340133 20.0611488,7.88214299 C20.6520166,6.75555303 22.6575174,6.03117529 26.8798397,5.76090779 C30.66141,8.54867718 33.12,13.0707897 33.12,18.1753643 C33.12,22.4224235 31.4180625,26.2662783 28.6682441,29.0435006 L28.6682441,29.0435006 Z M10.829236,31.6809078 C6.09607247,29.0898599 2.88,24.0135704 2.88,18.1753643 C2.88,13.4255701 5.00871036,9.18008661 8.3512287,6.36692517 C10.7358904,8.76688007 11.0856716,10.5322504 9.19341247,12.4173273 C8.99962561,12.6103787 8.79965879,12.8020546 8.37599357,13.2056039 C5.79550241,15.6780615 7.67761301,19.4183965 11.9191477,20.6381627 C14.9962709,21.5230714 15.2226897,24.2784981 12.5639997,26.2420188 C10.8941776,27.4752315 10.3013277,29.7862661 10.829236,31.6809078 L10.829236,31.6809078 Z" fill="#3B5AFB"></path>
                        </g>
                    </g>
                </g>
            </g>
        </g>
    </g>
</svg>