<?xml version="1.0" encoding="UTF-8"?>
<svg width="64px" height="64px" viewBox="0 0 64 64" version="1.1" xmlns="http://www.w3.org/2000/svg" xmlns:xlink="http://www.w3.org/1999/xlink">
    <title>Icon</title>
    <g id="Desktop" stroke="none" stroke-width="1" fill="none" fill-rule="evenodd">
        <g id="50---Cryptocurrency" transform="translate(-591.000000, -1069.000000)">
            <g id="Benefit" transform="translate(150.000000, 1069.000000)">
                <g id="Item" transform="translate(390.000000, 0.000000)">
                    <g id="Icon" transform="translate(51.000000, 0.000000)">
                        <circle id="Base" stroke="#E5EAF4" fill="#FFFFFF" cx="32" cy="32" r="31.5"></circle>
                        <g transform="translate(14.000000, 14.000000)" id="Path">
                            <polygon points="0 0 36 0 36 36 0 36"></polygon>
                            <path d="M22.32,18.72 L22.32,12.6 C22.32,10.0153074 20.5846926,7.92 18,7.92 C15.4153074,7.92 13.68,10.0153074 13.68,12.6 L13.68,18.72 L11.52,18.72 L11.52,12.6 C11.52,8.82237231 14.2223723,5.76 18,5.76 C21.7776277,5.76 24.48,8.82237231 24.48,12.6 L24.48,18.72 L22.32,18.72 Z" fill="#44D5E9" fill-rule="nonzero"></path>
                            <path d="M9.36,15.84 L26.64,15.84 C27.037645,15.84 27.36,16.162355 27.36,16.56 L27.36,29.52 C27.36,29.917645 27.037645,30.24 26.64,30.24 L9.36,30.24 C8.96235498,30.24 8.64,29.917645 8.64,29.52 L8.64,16.56 C8.64,16.162355 8.96235498,15.84 9.36,15.84 Z" fill="#3B5AFB" fill-rule="nonzero"></path>
                        </g>
                    </g>
                </g>
            </g>
        </g>
    </g>
</svg>