<?xml version="1.0" encoding="UTF-8"?>
<svg width="56px" height="56px" viewBox="0 0 56 56" version="1.1" xmlns="http://www.w3.org/2000/svg" xmlns:xlink="http://www.w3.org/1999/xlink">
    <title>Icon</title>
    <g id="Desktop" stroke="none" stroke-width="1" fill="none" fill-rule="evenodd">
        <g id="50---Cryptocurrency" transform="translate(-150.000000, -2727.000000)">
            <g id="Offering" transform="translate(150.000000, 2541.000000)">
                <g id="Icon" transform="translate(0.000000, 186.000000)">
                    <circle id="Base" fill="#FFFFFF" cx="28" cy="28" r="28"></circle>
                    <g transform="translate(12.000000, 12.000000)" id="path">
                        <polygon points="0 0 32 0 32 32 0 32"></polygon>
                        <path d="M24.96,2.56 L27.52,2.56 C28.5803867,2.56 29.44,3.41961328 29.44,4.48 L29.44,27.52 C29.44,28.5803867 28.5803867,29.44 27.52,29.44 L24.96,29.44 C23.8996133,29.44 23.04,28.5803867 23.04,27.52 L23.04,4.48 C23.04,3.41961328 23.8996133,2.56 24.96,2.56 Z" fill="#44D5E9" fill-rule="nonzero"></path>
                        <path d="M7.04,17.92 C8.10038672,17.92 8.96,18.7796133 8.96,19.84 L8.96,27.52 C8.96,28.5803867 8.10038672,29.44 7.04,29.44 L4.48,29.44 C3.41961328,29.44 2.56,28.5803867 2.56,27.52 L2.56,19.84 C2.56,18.7796133 3.41961328,17.92 4.48,17.92 L7.04,17.92 Z M17.28,10.24 C18.3403867,10.24 19.2,11.0996133 19.2,12.16 L19.2,27.52 C19.2,28.5803867 18.3403867,29.44 17.28,29.44 L14.72,29.44 C13.6596133,29.44 12.8,28.5803867 12.8,27.52 L12.8,12.16 C12.8,11.0996133 13.6596133,10.24 14.72,10.24 L17.28,10.24 Z" fill="#3B5AFB" fill-rule="nonzero"></path>
                    </g>
                </g>
            </g>
        </g>
    </g>
</svg>