<?xml version="1.0" encoding="UTF-8"?>
<svg width="56px" height="56px" viewBox="0 0 56 56" version="1.1" xmlns="http://www.w3.org/2000/svg" xmlns:xlink="http://www.w3.org/1999/xlink">
    <title>Icon</title>
    <g id="Desktop" stroke="none" stroke-width="1" fill="none" fill-rule="evenodd">
        <g id="50---Cryptocurrency" transform="translate(-150.000000, -2866.000000)">
            <g id="Offering" transform="translate(150.000000, 2541.000000)">
                <g id="Icon" transform="translate(0.000000, 325.000000)">
                    <circle id="Base" fill="#FFFFFF" cx="28" cy="28" r="28"></circle>
                    <g transform="translate(12.000000, 12.000000)" id="path">
                        <polygon points="0 0 32 0 32 32 0 32"></polygon>
                        <path d="M11.52,3.84 L20.48,3.84 L20.48,5.76 C20.48,6.82038672 21.3396133,7.68 22.4,7.68 C23.4603867,7.68 24.32,6.82038672 24.32,5.76 L24.32,3.84 L28.16,3.84 C28.8669245,3.84 29.44,4.41307552 29.44,5.12 L29.44,8.96 L2.56,8.96 L2.56,5.12 C2.56,4.41307552 3.13307552,3.84 3.84,3.84 L7.68,3.84 L7.68,5.76 C7.68,6.82038672 8.53961328,7.68 9.6,7.68 C10.6603867,7.68 11.52,6.82038672 11.52,5.76 L11.52,3.84 Z" fill="#44D5E9"></path>
                        <path d="M29.44,10.24 L29.44,23.68 C29.44,26.1542357 27.4342357,28.16 24.96,28.16 L7.04,28.16 C4.56576432,28.16 2.56,26.1542357 2.56,23.68 L2.56,10.24 L29.44,10.24 Z M11.7074517,18.1074517 L9.6,20.2149033 L8.77254834,19.3874517 C8.52261279,19.1375161 8.11738721,19.1375161 7.86745166,19.3874517 C7.61751611,19.6373872 7.61751611,20.0426128 7.86745166,20.2925483 L9.14745166,21.5725483 C9.39738721,21.8224839 9.80261279,21.8224839 10.0525483,21.5725483 L12.6125483,19.0125483 C12.8624839,18.7626128 12.8624839,18.3573872 12.6125483,18.1074517 C12.3626128,17.8575161 11.9573872,17.8575161 11.7074517,18.1074517 Z M16.0026356,19.2 C15.6480698,19.1996495 15.3603522,19.4859028 15.36,19.8393648 C15.3596484,20.1928269 15.6467955,20.4796489 16.0013612,20.4799997 L22.3973644,20.4863281 C22.7519302,20.4866786 23.0396478,20.2004254 23.04,19.8469633 C23.0403516,19.4935013 22.7532045,19.2066792 22.3986388,19.2063284 L16.0026356,19.2 Z M11.7074517,12.9874517 L9.6,15.0949033 L8.77254834,14.2674517 C8.52261279,14.0175161 8.11738721,14.0175161 7.86745166,14.2674517 C7.61751611,14.5173872 7.61751611,14.9226128 7.86745166,15.1725483 L9.14745166,16.4525483 C9.39738721,16.7024839 9.80261279,16.7024839 10.0525483,16.4525483 L12.6125483,13.8925483 C12.8624839,13.6426128 12.8624839,13.2373872 12.6125483,12.9874517 C12.3626128,12.7375161 11.9573872,12.7375161 11.7074517,12.9874517 Z M16.0026356,14.08 C15.6480698,14.0796495 15.3603522,14.3659028 15.36,14.7193648 C15.3596484,15.0728269 15.6467955,15.3596489 16.0013612,15.3599997 L22.3973644,15.3663281 C22.7519302,15.3666786 23.0396478,15.0804254 23.04,14.7269633 C23.0403516,14.3735013 22.7532045,14.0866792 22.3986388,14.0863284 L16.0026356,14.08 Z M22.4,2.56 C22.7534622,2.56 23.04,2.84653776 23.04,3.2 L23.04,3.2 L23.04,5.76 C23.04,6.11346224 22.7534622,6.4 22.4,6.4 C22.0465378,6.4 21.76,6.11346224 21.76,5.76 L21.76,5.76 L21.76,3.2 C21.76,2.84653776 22.0465378,2.56 22.4,2.56 Z M9.6,2.56 C9.95346224,2.56 10.24,2.84653776 10.24,3.2 L10.24,3.2 L10.24,5.76 C10.24,6.11346224 9.95346224,6.4 9.6,6.4 C9.24653776,6.4 8.96,6.11346224 8.96,5.76 L8.96,5.76 L8.96,3.2 C8.96,2.84653776 9.24653776,2.56 9.6,2.56 Z" fill="#3B5AFB" fill-rule="nonzero"></path>
                    </g>
                </g>
            </g>
        </g>
    </g>
</svg>