<?xml version="1.0" encoding="UTF-8"?>
<svg width="56px" height="56px" viewBox="0 0 56 56" version="1.1" xmlns="http://www.w3.org/2000/svg" xmlns:xlink="http://www.w3.org/1999/xlink">
    <title>Icon</title>
    <g id="Desktop" stroke="none" stroke-width="1" fill="none" fill-rule="evenodd">
        <g id="50---Cryptocurrency" transform="translate(-150.000000, -3005.000000)">
            <g id="Offering" transform="translate(150.000000, 2541.000000)">
                <g id="Icon" transform="translate(0.000000, 464.000000)">
                    <circle id="Base" fill="#FFFFFF" cx="28" cy="28" r="28"></circle>
                    <g transform="translate(12.000000, 12.000000)" id="Path">
                        <polygon points="0 0 32 0 32 32 0 32"></polygon>
                        <path d="M16,29.44 C11.14533,29.44 2.56,20.1195215 2.56,13.44 C2.56,6.45273462 7.938915,2.56 16,2.56 C24.061085,2.56 29.44,6.45273462 29.44,13.44 C29.44,20.1195215 20.85467,29.44 16,29.44 Z M17.2619818,17.9016942 C19.8499345,18.0444697 21.9398991,17.3478148 23.483857,15.803857 C25.0278148,14.2598991 25.7244697,12.1699345 25.5816942,9.58198179 C25.5637244,9.25626036 25.3036421,8.99617806 24.9779207,8.97820825 C22.389968,8.83543281 20.3000034,9.53208766 18.7560455,11.0760455 C17.2120877,12.6200034 16.5154328,14.709968 16.6582083,17.2979207 C16.6761781,17.6236421 16.9362604,17.8837244 17.2619818,17.9016942 Z M14.7379207,17.9016942 C15.0636421,17.8837244 15.3237244,17.6236421 15.3416942,17.2979207 C15.4844697,14.709968 14.7878148,12.6200034 13.243857,11.0760455 C11.6998991,9.53208766 9.60993454,8.83543281 7.02198179,8.97820825 C6.69626036,8.99617806 6.43617806,9.25626036 6.41820825,9.58198179 C6.27543281,12.1699345 6.97208766,14.2598991 8.51604554,15.803857 C10.0600034,17.3478148 12.149968,18.0444697 14.7379207,17.9016942 Z" fill="#3B5AFB" fill-rule="nonzero"></path>
                        <path d="M22.5787603,14.8987603 C21.4210127,16.0565079 19.8801536,16.638908 17.919892,16.6400105 C17.9209945,14.6797489 18.5033946,13.1388898 19.6611422,11.9811422 C20.8188898,10.8233946 22.3597489,10.2409945 24.3200105,10.239892 C24.318908,12.2001536 23.7365079,13.7410127 22.5787603,14.8987603 Z M12.3387603,11.9811422 C13.4965079,13.1388898 14.078908,14.6797489 14.0800105,16.6400105 C12.1197489,16.638908 10.5788898,16.0565079 9.42114222,14.8987603 C8.26339459,13.7410127 7.68099452,12.2001536 7.67989203,10.239892 C9.64015364,10.2409945 11.1810127,10.8233946 12.3387603,11.9811422 Z" fill="#44D5E9"></path>
                    </g>
                </g>
            </g>
        </g>
    </g>
</svg>