<?xml version="1.0" encoding="UTF-8"?>
<svg width="351px" height="129px" viewBox="0 0 351 129" version="1.1" xmlns="http://www.w3.org/2000/svg" xmlns:xlink="http://www.w3.org/1999/xlink">
    <title>Pairing</title>
    <g id="Desktop" stroke="none" stroke-width="1" fill="none" fill-rule="evenodd">
        <g id="50---Cryptocurrency" transform="translate(-545.000000, -1781.000000)">
            <g id="Pairing" transform="translate(150.000000, 1653.000000)">
                <g transform="translate(395.000000, 128.000000)">
                    <rect id="Base" stroke="#ECEEF2" x="0.5" y="0.5" width="350" height="128" rx="16"></rect>
                    <g id="Pair" transform="translate(5.000000, 5.000000)">
                        <rect id="Shape" fill="#B3BAC5" opacity="0.100000001" x="0" y="0" width="341" height="48" rx="16"></rect>
                        <g id="Item" transform="translate(18.000000, 12.000000)">
                            <text id="Ethereum" font-family="HKGrotesk-SemiBold, HK Grotesk" font-size="16" font-weight="500" line-spacing="24" letter-spacing="0.16" fill="#183B56">
                                <tspan x="34" y="16">Ethereum</tspan>
                            </text>
                            <g id="ETH">
                                <path d="M23.9895881,12.0592716 C23.9895881,18.6537791 18.643797,23.9995701 12.0492896,23.9995701 C5.45490149,23.9995701 0.108991045,18.6537791 0.108991045,12.0592716 C0.108991045,5.46476418 5.45490149,0.118973134 12.0492896,0.118973134 C18.643797,0.118973134 23.9895881,5.46476418 23.9895881,12.0592716" id="Fill-506" fill="#497391"></path>
                                <polygon id="Fill-507" fill="#FFFFFF" points="6.76244776 13.5387463 11.8838806 2.98913433 11.8838806 16.2346269"></polygon>
                                <polygon id="Fill-508" fill="#FFFFFF" points="17.3363224 13.5387463 12.1967403 16.2346269 12.1967403 2.98555224"></polygon>
                                <polygon id="Fill-509" fill="#FFFFFF" points="6.76244776 13.9246567 11.8838806 16.4889552 11.8838806 20.6124179"></polygon>
                                <polygon id="Fill-510" fill="#FFFFFF" points="17.3363224 13.9246567 12.1967403 20.6124179 12.1967403 16.4889552"></polygon>
                            </g>
                        </g>
                        <g id="Item" transform="translate(199.000000, 12.000000)">
                            <text id="Peercoin" font-family="HKGrotesk-SemiBold, HK Grotesk" font-size="16" font-weight="500" line-spacing="24" letter-spacing="0.16" fill="#183B56">
                                <tspan x="34" y="16">Peercoin</tspan>
                            </text>
                            <g id="PPC">
                                <path d="M23.9761194,11.9717612 C23.9761194,18.5662687 18.6303284,23.9120597 12.0358209,23.9120597 C5.44143284,23.9120597 0.0955223881,18.5662687 0.0955223881,11.9717612 C0.0955223881,5.37725373 5.44143284,0.0314626866 12.0358209,0.0314626866 C18.6303284,0.0314626866 23.9761194,5.37725373 23.9761194,11.9717612" id="Fill-923" fill="#35B14F"></path>
                                <path d="M6.87917213,5.73412537 L6.87917213,12.7240955 C6.87917213,12.7240955 6.84347463,19.2684537 13.5304,18.9116776 C13.5304,18.9116776 17.4533851,13.1699463 9.14377313,7.78475224 C9.14377313,7.78475224 17.1859224,10.2023045 15.7416239,18.9257672 C15.7416239,18.9257672 20.4490866,15.7556179 17.1146388,10.0315582 C17.1146388,10.0315582 14.8321313,5.93030448 6.87917213,5.73412537" id="Fill-925" fill="#FFFFFF"></path>
                            </g>
                        </g>
                        <g id="Icon" transform="translate(147.000000, 12.000000)">
                            <polygon id="Path" points="0 0 24 0 24 24 0 24"></polygon>
                            <path d="M19.3236876,6.72 L14.5730859,2.76905995 C14.3692665,2.59954917 14.3414539,2.29690526 14.5109646,2.09308587 C14.6804754,1.88926648 14.9831193,1.86145385 15.1869387,2.03096463 L20.9469387,6.8213925 C21.063826,6.91860437 21.1215211,7.05748936 21.1200123,7.19583582 L21.1200123,7.2 C21.1200123,7.37830771 21.0227757,7.53390747 20.8784479,7.61667855 L15.187662,12.3684572 C14.9841755,12.5383674 14.6814776,12.5111485 14.5115674,12.307662 C14.3416571,12.1041755 14.3688761,11.8014776 14.5723626,11.6315674 L19.304806,7.68 L3.36,7.68 C3.09490332,7.68 2.88,7.46509668 2.88,7.2 C2.88,6.93490332 3.09490332,6.72 3.36,6.72 L19.3236876,6.72 Z" id="Path" fill="#5A7184" fill-rule="nonzero"></path>
                            <path d="M4.69520628,17.28 L9.42764972,21.2315674 C9.63113622,21.4014776 9.65835516,21.7041755 9.48844491,21.907662 C9.31853466,22.1111485 9.01583679,22.1383674 8.81235029,21.9684572 L3.14572652,17.2368538 C2.96695297,17.1564095 2.87838489,16.9752905 2.88,16.7950935 C2.87938651,16.728802 2.89235065,16.6624043 2.91891014,16.6005441 C2.9509553,16.5229733 3.00279398,16.4538557 3.07442619,16.4036341 L8.81307358,11.6309646 C9.01689298,11.4614539 9.31953688,11.4892665 9.48904766,11.6930859 C9.65855844,11.8969053 9.63074581,12.1995492 9.42692642,12.3690599 L4.67632473,16.32 L20.64,16.32 C21.28,16.32 21.28,17.28 20.64,17.28 L4.69520628,17.28 Z" id="Path" fill="#5A7184" fill-rule="nonzero"></path>
                        </g>
                    </g>
                    <g id="Rate" transform="translate(23.000000, 79.000000)" fill="#183B56" font-size="18" letter-spacing="0.18" line-spacing="24">
                        <text id="0.00615272" font-family="HKGrotesk-SemiBold, HK Grotesk" font-weight="500">
                            <tspan x="63" y="18">0.00615272</tspan>
                        </text>
                        <text id="Rate:" font-family="HKGrotesk-Regular, HK Grotesk" font-weight="normal">
                            <tspan x="0" y="18">Rate:</tspan>
                        </text>
                    </g>
                </g>
            </g>
        </g>
    </g>
</svg>