<?xml version="1.0" encoding="UTF-8"?>
<svg width="351px" height="129px" viewBox="0 0 351 129" version="1.1" xmlns="http://www.w3.org/2000/svg" xmlns:xlink="http://www.w3.org/1999/xlink">
    <title>Pairing</title>
    <g id="Desktop" stroke="none" stroke-width="1" fill="none" fill-rule="evenodd">
        <g id="50---Cryptocurrency" transform="translate(-150.000000, -1781.000000)">
            <g id="Pairing" transform="translate(150.000000, 1653.000000)">
                <g transform="translate(0.000000, 128.000000)">
                    <rect id="Base" stroke="#ECEEF2" x="0.5" y="0.5" width="350" height="128" rx="16"></rect>
                    <g id="Pair" transform="translate(5.000000, 5.000000)">
                        <rect id="Shape" fill="#B3BAC5" opacity="0.100000001" x="0" y="0" width="341" height="48" rx="16"></rect>
                        <g id="Item" transform="translate(18.000000, 12.000000)">
                            <text id="Bitcoin" font-family="HKGrotesk-SemiBold, HK Grotesk" font-size="16" font-weight="500" line-spacing="24" letter-spacing="0.16" fill="#183B56">
                                <tspan x="34" y="16">Bitcoin</tspan>
                            </text>
                            <g id="BTC">
                                <path d="M23.8980657,12.0592716 C23.8980657,18.6537791 18.5522746,23.9995701 11.9577672,23.9995701 C5.3632597,23.9995701 0.0174686567,18.6537791 0.0174686567,12.0592716 C0.0174686567,5.46476418 5.3632597,0.118973134 11.9577672,0.118973134 C18.5522746,0.118973134 23.8980657,5.46476418 23.8980657,12.0592716" id="Fill-504" fill="#F7931A"></path>
                                <path d="M14.8568358,15.5488955 C14.7568955,15.8847761 14.5320597,16.1615522 14.2237612,16.3282388 C13.9154627,16.4951642 13.5608358,16.5319403 13.2249552,16.4318806 L9.86244776,15.4304478 L10.6115821,12.9154627 L13.9738507,13.9170149 L13.9739701,13.9170149 C14.6672239,14.1234627 15.063403,14.8555224 14.8568358,15.5488955 M15.9909254,10.3948657 C16.1576119,10.7031642 16.1943881,11.057791 16.0944478,11.393791 C15.8878806,12.0869254 15.1554627,12.4828657 14.4625672,12.2767761 L14.4624478,12.2767761 L11.1000597,11.2753433 L11.8489552,8.76035821 L15.2114627,9.76179104 C15.5473433,9.86185075 15.8241194,10.0865672 15.9909254,10.3948657 M17.4961194,9.58053731 C17.1117612,8.87020896 16.473791,8.352 15.6999403,8.12155224 L15.2550448,7.98913433 L15.8778507,5.89791045 L14.2798806,5.42197015 L13.6570746,7.51319403 L12.2927761,7.10686567 L12.9157015,5.01564179 L12.5328955,4.90161194 L10.9820896,4.43976119 L10.3817313,6.45552239 L8.4918209,5.89265672 L7.95844776,7.68370149 L9.84835821,8.24668657 L7.90674627,14.7658507 L6.01683582,14.2029851 L5.48346269,15.9941493 L7.37325373,16.5568955 L6.86662687,18.2582687 L7.24931343,18.3722985 L8.8001194,18.8341493 L9.32931343,17.0573134 L10.6968358,17.464597 L10.1676418,19.2415522 L11.7591642,19.7155821 L12.2883582,17.9386269 L12.7363582,18.072 C13.0219701,18.1570149 13.3136716,18.1991642 13.6035821,18.1991642 C14.0991045,18.1991642 14.5899701,18.0760597 15.0380896,17.8335522 C15.7484179,17.449194 16.2665075,16.8113433 16.4970746,16.0372537 C16.7394627,15.2230448 16.6198209,14.3866269 16.2342687,13.6981493 C16.934209,13.3328955 17.4919403,12.6968358 17.7345672,11.8822687 C17.9651343,11.1081791 17.8803582,10.2907463 17.4961194,9.58053731" id="Fill-505" fill="#FFFFFF"></path>
                            </g>
                        </g>
                        <g id="Item" transform="translate(183.000000, 12.000000)">
                            <text id="Dash" font-family="HKGrotesk-SemiBold, HK Grotesk" font-size="16" font-weight="500" line-spacing="24" letter-spacing="0.16" fill="#183B56">
                                <tspan x="34" y="16">Dash</tspan>
                            </text>
                            <g id="DASH">
                                <path d="M23.8980657,11.9680239 C23.8980657,18.5625313 18.5522746,23.9083224 11.9577672,23.9083224 C5.3632597,23.9083224 0.0174686567,18.5625313 0.0174686567,11.9680239 C0.0174686567,5.37351642 5.3632597,0.0277253731 11.9577672,0.0277253731 C18.5522746,0.0277253731 23.8980657,5.37351642 23.8980657,11.9680239" id="Fill-501" fill="#0986D3"></path>
                                <path d="M19.7856478,10.3355104 L18.0890507,15.2483463 C17.7333493,16.2802269 16.7610507,16.9739582 15.6695881,16.9739582 L5.28069254,16.9739582 L6.08069254,14.3984358 L15.6583642,14.3984358 L17.345409,9.51461493 L7.59699104,9.51461493 L8.39699104,6.93909254 L17.3663045,6.93909254 C18.1920955,6.93909254 18.9712,7.3414806 19.4508418,8.01431642 C19.9304836,8.68715224 20.0560955,9.55473433 19.7856478,10.3355104" id="Fill-502" fill="#FFFFFF"></path>
                                <polygon id="Fill-503" fill="#FFFFFF" points="11.6888716 10.6687045 11.6888716 10.8313313 10.9403343 13.2442269 3.98964776 13.2442269 4.78964776 10.6687045"></polygon>
                            </g>
                        </g>
                        <g id="Icon" transform="translate(131.000000, 12.000000)">
                            <polygon id="Path" points="0 0 24 0 24 24 0 24"></polygon>
                            <path d="M19.3236876,6.72 L14.5730859,2.76905995 C14.3692665,2.59954917 14.3414539,2.29690526 14.5109646,2.09308587 C14.6804754,1.88926648 14.9831193,1.86145385 15.1869387,2.03096463 L20.9469387,6.8213925 C21.063826,6.91860437 21.1215211,7.05748936 21.1200123,7.19583582 L21.1200123,7.2 C21.1200123,7.37830771 21.0227757,7.53390747 20.8784479,7.61667855 L15.187662,12.3684572 C14.9841755,12.5383674 14.6814776,12.5111485 14.5115674,12.307662 C14.3416571,12.1041755 14.3688761,11.8014776 14.5723626,11.6315674 L19.304806,7.68 L3.36,7.68 C3.09490332,7.68 2.88,7.46509668 2.88,7.2 C2.88,6.93490332 3.09490332,6.72 3.36,6.72 L19.3236876,6.72 Z" id="Path" fill="#5A7184" fill-rule="nonzero"></path>
                            <path d="M4.69520628,17.28 L9.42764972,21.2315674 C9.63113622,21.4014776 9.65835516,21.7041755 9.48844491,21.907662 C9.31853466,22.1111485 9.01583679,22.1383674 8.81235029,21.9684572 L3.14572652,17.2368538 C2.96695297,17.1564095 2.87838489,16.9752905 2.88,16.7950935 C2.87938651,16.728802 2.89235065,16.6624043 2.91891014,16.6005441 C2.9509553,16.5229733 3.00279398,16.4538557 3.07442619,16.4036341 L8.81307358,11.6309646 C9.01689298,11.4614539 9.31953688,11.4892665 9.48904766,11.6930859 C9.65855844,11.8969053 9.63074581,12.1995492 9.42692642,12.3690599 L4.67632473,16.32 L20.64,16.32 C21.28,16.32 21.28,17.28 20.64,17.28 L4.69520628,17.28 Z" id="Path" fill="#5A7184" fill-rule="nonzero"></path>
                        </g>
                    </g>
                    <g id="Rate" transform="translate(23.000000, 79.000000)" fill="#183B56" font-size="18" letter-spacing="0.18" line-spacing="24">
                        <text id="47.77171128" font-family="HKGrotesk-SemiBold, HK Grotesk" font-weight="500">
                            <tspan x="63" y="18">47.77171128</tspan>
                        </text>
                        <text id="Rate:" font-family="HKGrotesk-Regular, HK Grotesk" font-weight="normal">
                            <tspan x="0" y="18">Rate:</tspan>
                        </text>
                    </g>
                </g>
            </g>
        </g>
    </g>
</svg>