<?xml version="1.0" encoding="UTF-8"?>
<svg width="351px" height="129px" viewBox="0 0 351 129" version="1.1" xmlns="http://www.w3.org/2000/svg" xmlns:xlink="http://www.w3.org/1999/xlink">
    <title>Pairing</title>
    <g id="Desktop" stroke="none" stroke-width="1" fill="none" fill-rule="evenodd">
        <g id="50---Cryptocurrency" transform="translate(-939.000000, -1781.000000)">
            <g id="Pairing" transform="translate(150.000000, 1653.000000)">
                <g transform="translate(789.000000, 128.000000)">
                    <rect id="Base" stroke="#ECEEF2" x="0.5" y="0.5" width="350" height="128" rx="16"></rect>
                    <g id="Pair" transform="translate(5.000000, 5.000000)">
                        <rect id="Shape" fill="#B3BAC5" opacity="0.100000001" x="0" y="0" width="341" height="48" rx="16"></rect>
                        <g id="Item" transform="translate(18.000000, 12.000000)">
                            <text id="Litecoin" font-family="HKGrotesk-SemiBold, HK Grotesk" font-size="16" font-weight="500" line-spacing="24" letter-spacing="0.16" fill="#183B56">
                                <tspan x="34" y="16">Litecoin</tspan>
                            </text>
                            <g id="LTC">
                                <path d="M11.9480239,0.0928 C5.35351642,0.0928 0.00772537313,5.43859104 0.00772537313,12.0330985 C0.00772537313,18.627606 5.35351642,23.973397 11.9480239,23.973397 C18.5425313,23.973397 23.8883224,18.627606 23.8883224,12.0330985 C23.8883224,5.43859104 18.5425313,0.0928 11.9480239,0.0928" id="Fill-491" fill="#3D3E3C"></path>
                                <path d="M11.9480239,1.08784478 C17.9832478,1.08784478 22.8933373,5.99793433 22.8933373,12.0331582 C22.8933373,18.0682627 17.9832478,22.9783522 11.9480239,22.9783522 C5.9128,22.9783522 1.00271045,18.0682627 1.00271045,12.0331582 C1.00271045,5.99793433 5.9128,1.08784478 11.9480239,1.08784478" id="Fill-492" fill="#FFFFFF"></path>
                                <path d="M19.4725731,7.59629851 C19.2079761,7.1481791 18.8975284,6.72 18.5458866,6.31510448 L6.23006567,18.6309254 C6.63496119,18.9824478 7.0631403,19.2930149 7.5112597,19.5576119 L19.4725731,7.59629851 Z" id="Fill-493" fill="#B6B7BA"></path>
                                <path d="M17.5329194,5.32093134 C17.1196657,4.97621493 16.6818149,4.67639403 16.2260537,4.42003582 L4.33494925,16.3110209 C4.59130746,16.7669015 4.89112836,17.2046328 5.23596418,17.6178866 L17.5329194,5.32093134 Z" id="Fill-494" fill="#B6B7BA"></path>
                                <path d="M14.8458866,3.79288358 C14.263797,3.58870448 13.6642746,3.44983881 13.0581851,3.37270448 L3.28767761,13.1433313 C3.36493134,13.7491821 3.50355821,14.3488239 3.70785672,14.9309134 L14.8458866,3.79288358 Z" id="Fill-495" fill="#B6B7BA"></path>
                                <path d="M11.0800836,3.34366567 C9.14253134,3.53602388 7.25703881,4.37363582 5.7728597,5.85781493 C4.2886806,7.34199403 3.45094925,9.22760597 3.25859104,11.1651582 L11.0800836,3.34366567 Z" id="Fill-496" fill="#B6B7BA"></path>
                                <path d="M20.5787343,10.7052657 C20.4877493,10.1108776 20.3343164,9.52460896 20.1204657,8.95565373 L8.87055522,20.2054448 C9.43951045,20.4192955 10.0257791,20.5728478 10.6201672,20.6637134 L20.5787343,10.7052657 Z" id="Fill-497" fill="#B6B7BA"></path>
                                <path d="M20.658209,12.6329075 L12.5478806,20.7432358 C14.578806,20.6042507 16.570806,19.7609075 18.1232836,18.2083104 C19.6758806,16.6557134 20.5192239,14.6639522 20.658209,12.6329075" id="Fill-498" fill="#B6B7BA"></path>
                                <polygon id="Fill-499" fill="#F8F9F7" points="10.9799164 15.0860896 11.4913194 11.4101493 14.7193791 9.08680597 14.7193791 6.85791045 11.8360358 8.93253731 12.4272 4.68334328 8.8993194 4.68334328 8.14242388 11.5900896 5.89609552 13.2063284 5.89609552 15.4370149 7.87711045 14.0113433 7.45203582 17.8902687 10.9799164 17.8902687 18.9949612 17.8902687 18.9949612 15.0860896"></polygon>
                                <path d="M7.75160597,17.6217672 L18.7265313,17.6217672 L18.7265313,15.3545433 L10.6713672,15.3545433 L11.2412776,11.2593791 L14.4510687,8.94928955 L14.4510687,7.38188657 L11.4836657,9.51681194 L12.1187701,4.95179701 L9.14014328,4.95179701 L8.39638209,11.7381851 L6.1646209,13.3440358 L6.1646209,14.912991 L8.20975522,13.4411104 L7.75160597,17.6217672 Z M19.2633672,18.1587224 L7.15256119,18.1587224 L7.5446806,14.5815284 L5.62766567,15.960991 L5.62766567,13.0688119 L7.88856119,11.4420657 L8.65871045,4.41484179 L12.7357254,4.41484179 L12.1881433,8.34833433 L14.9879045,6.33412537 L14.9879045,9.22427463 L11.7412179,11.5608716 L11.2884418,14.8177075 L19.2633672,14.8177075 L19.2633672,18.1587224 Z" id="Fill-500" fill="#3D3E3C"></path>
                            </g>
                        </g>
                        <g id="Item" transform="translate(190.000000, 12.000000)">
                            <text id="BcNext" font-family="HKGrotesk-SemiBold, HK Grotesk" font-size="16" font-weight="500" line-spacing="24" letter-spacing="0.16" fill="#183B56">
                                <tspan x="34" y="16">BcNext</tspan>
                            </text>
                            <g id="NXT">
                                <path d="M23.9837015,12.0039403 C23.9837015,18.5984478 18.6379104,23.9442388 12.043403,23.9442388 C5.44889552,23.9442388 0.103104478,18.5984478 0.103104478,12.0039403 C0.103104478,5.40943284 5.44889552,0.063641791 12.043403,0.063641791 C18.6379104,0.063641791 23.9837015,5.40943284 23.9837015,12.0039403" id="Fill-69" fill="#008EBD"></path>
                                <path d="M16.9110567,12.6162866 L15.1717134,12.6162866 L11.5447284,10.2070925 C11.5204896,10.1909731 11.4946985,10.1796299 11.4692657,10.1672119 C11.4659224,10.1654209 11.4625791,10.1636299 11.4593552,10.1619582 C11.4461015,10.1557493 11.4334448,10.1483463 11.4200716,10.1430925 C11.3388776,10.106794 11.2490866,10.0862567 11.1545194,10.0862567 L10.1320716,10.0862567 C9.77159403,10.0862567 9.47941493,10.3784358 9.47941493,10.7389134 C9.47941493,11.0992716 9.77159403,11.3915701 10.1320716,11.3915701 L10.9687284,11.3915701 L14.6093254,13.8098388 C14.731594,13.8910328 14.8709373,13.923391 15.0070567,13.9156299 C15.0346388,13.9192119 15.0628179,13.9217194 15.0914746,13.9217194 L16.9110567,13.9217194 C17.2716537,13.9217194 17.5638328,13.6294209 17.5638328,13.2689433 C17.5638328,12.9084657 17.2716537,12.6162866 16.9110567,12.6162866" id="Fill-71" fill="#FFFFFF"></path>
                                <path d="M11.3596418,12.6162866 L10.2895522,12.6162866 L6.73349254,10.2541373 C6.61791045,10.1500179 6.46543284,10.0862567 6.29755224,10.0862567 L5.27510448,10.0862567 C4.91462687,10.0862567 4.62244776,10.3784358 4.62244776,10.7389134 C4.62244776,11.0992716 4.91462687,11.3915701 5.27510448,11.3915701 L6.08668657,11.3915701 L9.64322388,13.7539582 C9.75880597,13.8578388 9.91116418,13.9217194 10.078806,13.9217194 L11.3596418,13.9217194 C11.7201194,13.9217194 12.0122985,13.6294209 12.0122985,13.2689433 C12.0122985,12.9084657 11.7201194,12.6162866 11.3596418,12.6162866" id="Fill-73" fill="#FFFFFF"></path>
                                <path d="M19.3855284,10.427797 C19.2749612,10.2243343 19.0595582,10.0861851 18.8115582,10.0861851 L15.1101851,10.0861851 C14.7498269,10.0861851 14.4576478,10.3783642 14.4576478,10.7388418 C14.4576478,11.0993194 14.7498269,11.3914985 15.1101851,11.3914985 L18.1590209,11.3914985 L18.1590209,11.9375284 C18.1590209,12.298006 18.4512,12.5901851 18.8115582,12.5901851 C19.1721552,12.5901851 19.4643343,12.298006 19.4643343,11.9375284 L19.4643343,10.7388418 C19.4643343,10.6262448 19.435797,10.5202149 19.3855284,10.427797" id="Fill-75" fill="#FFFFFF"></path>
                                <path d="M6.39497313,12.6162866 L5.27509254,12.6162866 C4.91473433,12.6162866 4.62243582,12.9084657 4.62243582,13.2689433 C4.62243582,13.6294209 4.91473433,13.9217194 5.27509254,13.9217194 L6.39497313,13.9217194 C6.75545075,13.9217194 7.04762985,13.6294209 7.04762985,13.2689433 C7.04762985,12.9084657 6.75545075,12.6162866 6.39497313,12.6162866" id="Fill-77" fill="#FFFFFF"></path>
                            </g>
                        </g>
                        <g id="Icon-Copy" transform="translate(138.000000, 12.000000)">
                            <polygon id="Path" points="0 0 24 0 24 24 0 24"></polygon>
                            <path d="M19.3236876,6.72 L14.5730859,2.76905995 C14.3692665,2.59954917 14.3414539,2.29690526 14.5109646,2.09308587 C14.6804754,1.88926648 14.9831193,1.86145385 15.1869387,2.03096463 L20.9469387,6.8213925 C21.063826,6.91860437 21.1215211,7.05748936 21.1200123,7.19583582 L21.1200123,7.2 C21.1200123,7.37830771 21.0227757,7.53390747 20.8784479,7.61667855 L15.187662,12.3684572 C14.9841755,12.5383674 14.6814776,12.5111485 14.5115674,12.307662 C14.3416571,12.1041755 14.3688761,11.8014776 14.5723626,11.6315674 L19.304806,7.68 L3.36,7.68 C3.09490332,7.68 2.88,7.46509668 2.88,7.2 C2.88,6.93490332 3.09490332,6.72 3.36,6.72 L19.3236876,6.72 Z" id="Path" fill="#5A7184" fill-rule="nonzero"></path>
                            <path d="M4.69520628,17.28 L9.42764972,21.2315674 C9.63113622,21.4014776 9.65835516,21.7041755 9.48844491,21.907662 C9.31853466,22.1111485 9.01583679,22.1383674 8.81235029,21.9684572 L3.14572652,17.2368538 C2.96695297,17.1564095 2.87838489,16.9752905 2.88,16.7950935 C2.87938651,16.728802 2.89235065,16.6624043 2.91891014,16.6005441 C2.9509553,16.5229733 3.00279398,16.4538557 3.07442619,16.4036341 L8.81307358,11.6309646 C9.01689298,11.4614539 9.31953688,11.4892665 9.48904766,11.6930859 C9.65855844,11.8969053 9.63074581,12.1995492 9.42692642,12.3690599 L4.67632473,16.32 L20.64,16.32 C21.28,16.32 21.28,17.28 20.64,17.28 L4.69520628,17.28 Z" id="Path" fill="#5A7184" fill-rule="nonzero"></path>
                        </g>
                    </g>
                    <g id="Rate" transform="translate(23.000000, 79.000000)" fill="#183B56" font-size="18" letter-spacing="0.18" line-spacing="24">
                        <text id="0.82777516" font-family="HKGrotesk-SemiBold, HK Grotesk" font-weight="500">
                            <tspan x="63" y="18">0.82777516</tspan>
                        </text>
                        <text id="Rate:" font-family="HKGrotesk-Regular, HK Grotesk" font-weight="normal">
                            <tspan x="0" y="18">Rate:</tspan>
                        </text>
                    </g>
                </g>
            </g>
        </g>
    </g>
</svg>