<?xml version="1.0" encoding="UTF-8"?>
<svg width="351px" height="129px" viewBox="0 0 351 129" version="1.1" xmlns="http://www.w3.org/2000/svg" xmlns:xlink="http://www.w3.org/1999/xlink">
    <title>Pairing</title>
    <g id="Desktop" stroke="none" stroke-width="1" fill="none" fill-rule="evenodd">
        <g id="50---Cryptocurrency" transform="translate(-150.000000, -1954.000000)">
            <g id="Pairing" transform="translate(150.000000, 1653.000000)">
                <g transform="translate(0.000000, 301.000000)">
                    <rect id="Base" stroke="#ECEEF2" x="0.5" y="0.5" width="350" height="128" rx="16"></rect>
                    <g id="Pair" transform="translate(5.000000, 5.000000)">
                        <rect id="Shape" fill="#B3BAC5" opacity="0.100000001" x="0" y="0" width="341" height="48" rx="16"></rect>
                        <g id="Item" transform="translate(18.000000, 12.000000)">
                            <text id="Ripple" font-family="HKGrotesk-SemiBold, HK Grotesk" font-size="16" font-weight="500" line-spacing="24" letter-spacing="0.16" fill="#183B56">
                                <tspan x="34" y="16">Ripple</tspan>
                            </text>
                            <g id="XRP">
                                <path d="M11.9936119,0.118973134 C5.39910448,0.118973134 0.0533134328,5.46476418 0.0533134328,12.0592716 C0.0533134328,18.6537791 5.39910448,23.9995701 11.9936119,23.9995701 C18.5881194,23.9995701 23.9339104,18.6537791 23.9339104,12.0592716 C23.9339104,5.46476418 18.5881194,0.118973134 11.9936119,0.118973134" id="Fill-513" fill="#266BA6"></path>
                                <path d="M11.9936119,22.9940896 C5.95444776,22.9940896 1.05880597,18.0984478 1.05880597,12.0592836 C1.05880597,6.0201194 5.95444776,1.12447761 11.9936119,1.12447761 C18.0327761,1.12447761 22.9284179,6.0201194 22.9284179,12.0592836 C22.9284179,18.0984478 18.0327761,22.9940896 11.9936119,22.9940896" id="Fill-514" fill="#FFFFFF"></path>
                                <path d="M14.5726209,13.3722985 C14.4085612,13.3722985 14.2473672,13.3847164 14.089994,13.4084776 C13.6191881,13.0076418 13.2557254,12.5097313 13.287606,11.9379104 C13.3124418,11.4922985 13.5204418,11.1210746 13.8190687,10.8140896 C14.0349493,10.8598209 14.258591,10.8842985 14.4880836,10.8842985 C16.2637254,10.8842985 17.7031284,9.44477612 17.7031284,7.66913433 C17.7031284,5.89349254 16.2637254,4.45397015 14.4880836,4.45397015 C12.7123224,4.45397015 11.2729194,5.89349254 11.2729194,7.66913433 C11.2729194,8.49468657 11.5843224,9.24740299 12.0957254,9.81671642 C12.0249194,10.2419104 11.8698149,10.6175522 11.5690388,10.8137313 C11.2484418,11.022806 10.6130985,11.0556418 9.9209194,11.0095522 C9.45082985,9.81695522 8.28915821,8.97265672 6.92963582,8.97265672 C5.15399403,8.97265672 3.71447164,10.4120597 3.71447164,12.1878209 C3.71447164,13.9634627 5.15399403,15.4029851 6.92963582,15.4029851 C8.39184478,15.4029851 9.62515821,14.4265075 10.0153672,13.0902687 C10.5793075,13.0041791 11.0879642,13.0118209 11.3574567,13.225194 C11.6997851,13.4961194 11.8736358,14.0751045 11.9538746,14.7232239 C11.5788299,15.249194 11.3574567,15.8922985 11.3574567,16.5874627 C11.3574567,18.3631045 12.7969791,19.8026269 14.5726209,19.8026269 C16.3483821,19.8026269 17.7877851,18.3631045 17.7877851,16.5874627 C17.7877851,14.8118209 16.3483821,13.3722985 14.5726209,13.3722985" id="Fill-515" fill="#2C71AE"></path>
                            </g>
                        </g>
                        <g id="Item" transform="translate(179.000000, 12.000000)">
                            <text id="ByteCoin" font-family="HKGrotesk-SemiBold, HK Grotesk" font-size="16" font-weight="500" line-spacing="24" letter-spacing="0.16" fill="#183B56">
                                <tspan x="34" y="16">ByteCoin</tspan>
                            </text>
                            <g id="BCN">
                                <path d="M23.9652776,12.0221373 C23.9652776,18.6165254 18.6194866,23.9624358 12.0249791,23.9624358 C5.43047164,23.9624358 0.084680597,18.6165254 0.084680597,12.0221373 C0.084680597,5.42762985 5.43047164,0.081838806 12.0249791,0.081838806 C18.6194866,0.081838806 23.9652776,5.42762985 23.9652776,12.0221373" id="Fill-93" fill="#EF4084"></path>
                                <path d="M11.035009,11.0617791 C12.2775164,11.0017194 13.4530388,11.0087642 14.6100537,10.8660776 C15.3661134,10.7728239 15.739009,10.1645851 15.7350996,9.39885373 C15.7312478,8.66810746 15.3527403,8.04303284 14.6440836,7.96088358 C13.4531582,7.82297313 12.2457552,7.82846567 11.035009,7.77318209 L11.035009,11.0617791 Z M5.30545672,12.9851224 L5.30545672,11.0283463 L8.45459104,11.0283463 L8.45459104,5.8974806 C8.66712836,5.87873433 8.81900896,5.8537791 8.97088955,5.8535403 C10.8797851,5.85151045 12.7886806,5.84291343 14.6973373,5.86118209 C15.150591,5.8656 15.6130388,5.92124179 16.0538746,6.02643582 C17.4885015,6.36864478 18.3126209,7.34786866 18.389994,8.74536119 C18.4698746,10.1876299 17.812203,11.1405851 16.3683821,11.6770627 C16.3326806,11.6903164 16.3021134,11.7169433 16.2031284,11.778197 C16.3219343,11.8135403 16.3959642,11.8374209 16.4711881,11.8576 C17.7856955,12.210197 18.541994,13.0617791 18.718591,14.4088836 C18.8838448,15.6702567 18.254591,16.9731821 17.0532776,17.5104955 C16.2742925,17.8589134 15.3915463,18.1024955 14.5433075,18.1433313 C12.6191284,18.2358687 10.6874269,18.1746149 8.75871045,18.1737791 C8.68348657,18.1737791 8.60826269,18.153003 8.50390448,18.1376 L8.50390448,14.6870925 L10.9995463,14.6870925 L10.9995463,16.227391 C12.3405612,16.1649433 13.6475463,16.193003 14.9255164,16.0133015 C15.7728,15.8941373 16.1341134,15.1324657 16.0278448,14.2285851 C15.9434269,13.5103761 15.4504119,13.0479284 14.5640836,13.0350328 C11.7415164,12.9938388 8.91811343,12.9982567 6.09518806,12.9853612 C5.84205373,12.9841672 5.5889194,12.9851224 5.30545672,12.9851224 L5.30545672,12.9851224 Z" id="Fill-95" fill="#FFFFFF"></path>
                            </g>
                        </g>
                        <g id="Icon" transform="translate(127.000000, 12.000000)">
                            <polygon id="Path" points="0 0 24 0 24 24 0 24"></polygon>
                            <path d="M19.3236876,6.72 L14.5730859,2.76905995 C14.3692665,2.59954917 14.3414539,2.29690526 14.5109646,2.09308587 C14.6804754,1.88926648 14.9831193,1.86145385 15.1869387,2.03096463 L20.9469387,6.8213925 C21.063826,6.91860437 21.1215211,7.05748936 21.1200123,7.19583582 L21.1200123,7.2 C21.1200123,7.37830771 21.0227757,7.53390747 20.8784479,7.61667855 L15.187662,12.3684572 C14.9841755,12.5383674 14.6814776,12.5111485 14.5115674,12.307662 C14.3416571,12.1041755 14.3688761,11.8014776 14.5723626,11.6315674 L19.304806,7.68 L3.36,7.68 C3.09490332,7.68 2.88,7.46509668 2.88,7.2 C2.88,6.93490332 3.09490332,6.72 3.36,6.72 L19.3236876,6.72 Z" id="Path" fill="#5A7184" fill-rule="nonzero"></path>
                            <path d="M4.69520628,17.28 L9.42764972,21.2315674 C9.63113622,21.4014776 9.65835516,21.7041755 9.48844491,21.907662 C9.31853466,22.1111485 9.01583679,22.1383674 8.81235029,21.9684572 L3.14572652,17.2368538 C2.96695297,17.1564095 2.87838489,16.9752905 2.88,16.7950935 C2.87938651,16.728802 2.89235065,16.6624043 2.91891014,16.6005441 C2.9509553,16.5229733 3.00279398,16.4538557 3.07442619,16.4036341 L8.81307358,11.6309646 C9.01689298,11.4614539 9.31953688,11.4892665 9.48904766,11.6930859 C9.65855844,11.8969053 9.63074581,12.1995492 9.42692642,12.3690599 L4.67632473,16.32 L20.64,16.32 C21.28,16.32 21.28,17.28 20.64,17.28 L4.69520628,17.28 Z" id="Path" fill="#5A7184" fill-rule="nonzero"></path>
                        </g>
                    </g>
                    <g id="Rate" transform="translate(23.000000, 79.000000)" fill="#183B56" font-size="18" letter-spacing="0.18" line-spacing="24">
                        <text id="0.72832778" font-family="HKGrotesk-SemiBold, HK Grotesk" font-weight="500">
                            <tspan x="63" y="18">0.72832778</tspan>
                        </text>
                        <text id="Rate:" font-family="HKGrotesk-Regular, HK Grotesk" font-weight="normal">
                            <tspan x="0" y="18">Rate:</tspan>
                        </text>
                    </g>
                </g>
            </g>
        </g>
    </g>
</svg>