<?xml version="1.0" encoding="UTF-8"?>
<svg width="351px" height="129px" viewBox="0 0 351 129" version="1.1" xmlns="http://www.w3.org/2000/svg" xmlns:xlink="http://www.w3.org/1999/xlink">
    <title>Pairing</title>
    <g id="Desktop" stroke="none" stroke-width="1" fill="none" fill-rule="evenodd">
        <g id="50---Cryptocurrency" transform="translate(-545.000000, -1954.000000)">
            <g id="Pairing" transform="translate(150.000000, 1653.000000)">
                <g transform="translate(395.000000, 301.000000)">
                    <rect id="Base" stroke="#ECEEF2" x="0.5" y="0.5" width="350" height="128" rx="16"></rect>
                    <g id="Pair" transform="translate(5.000000, 5.000000)">
                        <rect id="Shape" fill="#B3BAC5" opacity="0.100000001" x="0" y="0" width="341" height="48" rx="16"></rect>
                        <g id="Item" transform="translate(18.000000, 12.000000)">
                            <text id="Bitcoin" font-family="HKGrotesk-SemiBold, HK Grotesk" font-size="16" font-weight="500" line-spacing="24" letter-spacing="0.16" fill="#183B56">
                                <tspan x="34" y="16">Bitcoin</tspan>
                            </text>
                            <g id="BTC">
                                <path d="M23.8980657,12.0592716 C23.8980657,18.6537791 18.5522746,23.9995701 11.9577672,23.9995701 C5.3632597,23.9995701 0.0174686567,18.6537791 0.0174686567,12.0592716 C0.0174686567,5.46476418 5.3632597,0.118973134 11.9577672,0.118973134 C18.5522746,0.118973134 23.8980657,5.46476418 23.8980657,12.0592716" id="Fill-504" fill="#F7931A"></path>
                                <path d="M14.8568358,15.5488955 C14.7568955,15.8847761 14.5320597,16.1615522 14.2237612,16.3282388 C13.9154627,16.4951642 13.5608358,16.5319403 13.2249552,16.4318806 L9.86244776,15.4304478 L10.6115821,12.9154627 L13.9738507,13.9170149 L13.9739701,13.9170149 C14.6672239,14.1234627 15.063403,14.8555224 14.8568358,15.5488955 M15.9909254,10.3948657 C16.1576119,10.7031642 16.1943881,11.057791 16.0944478,11.393791 C15.8878806,12.0869254 15.1554627,12.4828657 14.4625672,12.2767761 L14.4624478,12.2767761 L11.1000597,11.2753433 L11.8489552,8.76035821 L15.2114627,9.76179104 C15.5473433,9.86185075 15.8241194,10.0865672 15.9909254,10.3948657 M17.4961194,9.58053731 C17.1117612,8.87020896 16.473791,8.352 15.6999403,8.12155224 L15.2550448,7.98913433 L15.8778507,5.89791045 L14.2798806,5.42197015 L13.6570746,7.51319403 L12.2927761,7.10686567 L12.9157015,5.01564179 L12.5328955,4.90161194 L10.9820896,4.43976119 L10.3817313,6.45552239 L8.4918209,5.89265672 L7.95844776,7.68370149 L9.84835821,8.24668657 L7.90674627,14.7658507 L6.01683582,14.2029851 L5.48346269,15.9941493 L7.37325373,16.5568955 L6.86662687,18.2582687 L7.24931343,18.3722985 L8.8001194,18.8341493 L9.32931343,17.0573134 L10.6968358,17.464597 L10.1676418,19.2415522 L11.7591642,19.7155821 L12.2883582,17.9386269 L12.7363582,18.072 C13.0219701,18.1570149 13.3136716,18.1991642 13.6035821,18.1991642 C14.0991045,18.1991642 14.5899701,18.0760597 15.0380896,17.8335522 C15.7484179,17.449194 16.2665075,16.8113433 16.4970746,16.0372537 C16.7394627,15.2230448 16.6198209,14.3866269 16.2342687,13.6981493 C16.934209,13.3328955 17.4919403,12.6968358 17.7345672,11.8822687 C17.9651343,11.1081791 17.8803582,10.2907463 17.4961194,9.58053731" id="Fill-505" fill="#FFFFFF"></path>
                            </g>
                        </g>
                        <g id="Item" transform="translate(183.000000, 12.000000)">
                            <text id="Monero" font-family="HKGrotesk-SemiBold, HK Grotesk" font-size="16" font-weight="500" line-spacing="24" letter-spacing="0.16" fill="#183B56">
                                <tspan x="34" y="16">Monero</tspan>
                            </text>
                            <g id="XMR">
                                <path d="M23.9785791,11.9680239 C23.9785791,18.5625313 18.6327881,23.9083224 12.0382806,23.9083224 C5.44377313,23.9083224 0.0979820896,18.5625313 0.0979820896,11.9680239 C0.0979820896,5.37351642 5.44377313,0.0277253731 12.0382806,0.0277253731 C18.6327881,0.0277253731 23.9785791,5.37351642 23.9785791,11.9680239" id="Fill-609" fill="#FFFFFF"></path>
                                <path d="M22.1987224,18.2417552 C21.5510806,19.2901134 20.7445134,20.2300537 19.8136478,21.0295761 C19.7600358,21.0760239 19.7064239,21.1216358 19.6517373,21.1661731 C18.9971701,21.7094567 18.2826627,22.183009 17.5207522,22.5766806 C17.3982448,22.6415164 17.2749015,22.7031284 17.149409,22.7608 C15.6001552,23.4975164 13.8667821,23.9083821 12.0382448,23.9083821 C10.1704239,23.9083821 8.40254328,23.4792478 6.82809552,22.7132776 C6.74606567,22.6748299 6.66511045,22.6343522 6.58427463,22.5918448 C5.82128955,22.200203 5.10582687,21.7277254 4.44911045,21.1852776 C4.3753194,21.1255761 4.30236418,21.0639642 4.23060299,21.0022328 C3.31275224,20.2089194 2.51848358,19.2779343 1.87788657,18.2417552 L6.82809552,18.2417552 L6.82809552,11.8840239 L10.2898269,15.3457552 L10.8037373,15.8597851 L12.0605731,17.1165015 L13.3163343,15.8597851 L13.8313194,15.3457552 L17.149409,12.0267104 L17.149409,18.2417552 L22.1987224,18.2417552 Z" id="Fill-610" fill="#4C4C4C"></path>
                                <path d="M23.9785791,11.9680239 C23.9785791,13.3311284 23.7499224,14.6403821 23.3290269,15.8597254 L19.8136836,15.8597254 L19.8136836,5.8208 L17.1494448,8.48515821 L12.060609,13.5749493 L4.2305194,5.7448597 L4.2305194,15.8597254 L0.747653731,15.8597254 C0.326638806,14.6403821 0.0979820896,13.3311284 0.0979820896,11.9680239 C0.0979820896,9.99178507 0.578579104,8.12790448 1.42956418,6.48563582 C1.82323582,5.72372537 2.29690746,5.00921791 2.84031045,4.35453134 C3.26323582,3.84360597 3.72866866,3.36802388 4.2305194,2.93387463 C5.01380299,2.2568597 5.88604179,1.67918806 6.82801194,1.22282985 C8.4025791,0.456740299 10.1703403,0.0277253731 12.0382806,0.0277253731 C13.8666985,0.0277253731 15.600191,0.438591045 17.1494448,1.17518806 C18.1156537,1.6326209 19.0111761,2.21745672 19.8136836,2.90653134 C20.3357134,3.35488955 20.8195343,3.84766567 21.255594,4.37888955 C21.7979224,5.03560597 22.2705194,5.75094925 22.6621612,6.51393433 C23.5039522,8.14915821 23.9785791,10.0028896 23.9785791,11.9680239" id="Fill-611" fill="#FF6600"></path>
                            </g>
                        </g>
                        <g id="Icon" transform="translate(131.000000, 12.000000)">
                            <polygon id="Path" points="0 0 24 0 24 24 0 24"></polygon>
                            <path d="M19.3236876,6.72 L14.5730859,2.76905995 C14.3692665,2.59954917 14.3414539,2.29690526 14.5109646,2.09308587 C14.6804754,1.88926648 14.9831193,1.86145385 15.1869387,2.03096463 L20.9469387,6.8213925 C21.063826,6.91860437 21.1215211,7.05748936 21.1200123,7.19583582 L21.1200123,7.2 C21.1200123,7.37830771 21.0227757,7.53390747 20.8784479,7.61667855 L15.187662,12.3684572 C14.9841755,12.5383674 14.6814776,12.5111485 14.5115674,12.307662 C14.3416571,12.1041755 14.3688761,11.8014776 14.5723626,11.6315674 L19.304806,7.68 L3.36,7.68 C3.09490332,7.68 2.88,7.46509668 2.88,7.2 C2.88,6.93490332 3.09490332,6.72 3.36,6.72 L19.3236876,6.72 Z" id="Path" fill="#5A7184" fill-rule="nonzero"></path>
                            <path d="M4.69520628,17.28 L9.42764972,21.2315674 C9.63113622,21.4014776 9.65835516,21.7041755 9.48844491,21.907662 C9.31853466,22.1111485 9.01583679,22.1383674 8.81235029,21.9684572 L3.14572652,17.2368538 C2.96695297,17.1564095 2.87838489,16.9752905 2.88,16.7950935 C2.87938651,16.728802 2.89235065,16.6624043 2.91891014,16.6005441 C2.9509553,16.5229733 3.00279398,16.4538557 3.07442619,16.4036341 L8.81307358,11.6309646 C9.01689298,11.4614539 9.31953688,11.4892665 9.48904766,11.6930859 C9.65855844,11.8969053 9.63074581,12.1995492 9.42692642,12.3690599 L4.67632473,16.32 L20.64,16.32 C21.28,16.32 21.28,17.28 20.64,17.28 L4.69520628,17.28 Z" id="Path" fill="#5A7184" fill-rule="nonzero"></path>
                        </g>
                    </g>
                    <g id="Rate" transform="translate(23.000000, 79.000000)" fill="#183B56" font-size="18" letter-spacing="0.18" line-spacing="24">
                        <text id="134.53807999" font-family="HKGrotesk-SemiBold, HK Grotesk" font-weight="500">
                            <tspan x="63" y="18">134.53807999</tspan>
                        </text>
                        <text id="Rate:" font-family="HKGrotesk-Regular, HK Grotesk" font-weight="normal">
                            <tspan x="0" y="18">Rate:</tspan>
                        </text>
                    </g>
                </g>
            </g>
        </g>
    </g>
</svg>