<svg xmlns="http://www.w3.org/2000/svg" width="125" height="39" viewBox="0 0 125 39">
    <g fill="none" fill-rule="evenodd">
        <g>
            <g>
                <g>
                    <g>
                        <path d="M0 0H237V41.6H0z" transform="translate(-1132 -5301) translate(128 5299) translate(948 1)"/>
                        <g fill="#8C98A4" fill-rule="nonzero">
                            <path d="M65.629 9.843c0 1.424-1.118 2.538-2.546 2.538-1.428 0-2.546-1.114-2.546-2.538 0-1.424 1.118-2.538 2.546-2.538 1.49.062 2.546 1.176 2.546 2.538zm-10.37 5.076v.62s-1.179-1.549-3.787-1.549c-4.222 0-7.513 3.22-7.513 7.677 0 4.395 3.291 7.676 7.513 7.676 2.608 0 3.788-1.61 3.788-1.61v.681c0 .31.248.557.559.557h3.166v-14.61H55.82c-.373 0-.56.249-.56.558zm0 9.286c-.558.866-1.738 1.61-3.166 1.61-2.483 0-4.408-1.548-4.408-4.21s1.925-4.21 4.408-4.21c1.366 0 2.608.805 3.167 1.61v5.2zm5.961-9.843h3.726V28.91H61.22V14.362zm55.695-.372c-2.546 0-3.788 1.548-3.788 1.548V7.367h-3.725V28.91h3.166c.31 0 .56-.248.56-.558v-.68s1.179 1.609 3.787 1.609c4.222 0 7.512-3.281 7.512-7.676s-3.29-7.615-7.512-7.615zm-.621 11.762c-1.428 0-2.546-.742-3.167-1.61v-5.2c.559-.804 1.8-1.609 3.167-1.609 2.483 0 4.408 1.548 4.408 4.21s-1.925 4.21-4.408 4.21zm-8.817-5.447v8.666h-3.725v-8.233c0-2.414-.808-3.343-2.856-3.343-1.118 0-2.298.557-3.043 1.424v10.152h-3.725v-14.61h2.98c.31 0 .559.249.559.558v.62c1.117-1.115 2.546-1.549 3.974-1.549 1.614 0 2.98.496 4.098 1.424 1.241 1.053 1.738 2.415 1.738 4.89zM85.063 13.99c-2.546 0-3.788 1.548-3.788 1.548V7.367H77.55V28.91h3.166c.31 0 .56-.248.56-.558v-.68s1.179 1.609 3.787 1.609c4.222 0 7.513-3.281 7.513-7.676.062-4.395-3.23-7.615-7.513-7.615zm-.621 11.762c-1.428 0-2.546-.742-3.167-1.61v-5.2c.559-.804 1.8-1.609 3.167-1.609 2.483 0 4.408 1.548 4.408 4.21s-1.925 4.21-4.408 4.21zM74.383 13.99c1.118 0 1.739.186 1.739.186v3.467s-3.105-1.053-5.03 1.176v10.152h-3.725v-14.61h3.167c.31 0 .559.249.559.558v.62c.62-.806 2.11-1.549 3.29-1.549zM35.64 27.61c-.186-.496-.372-.991-.558-1.424-.31-.681-.621-1.362-.87-1.981h-.062c-2.67-5.82-5.526-11.7-8.568-17.52l-.124-.247c-.31-.557-.621-1.176-.932-1.795-.372-.681-.807-1.424-1.428-2.105C21.856.99 20.055.124 18.192.124c-1.925 0-3.663.866-4.967 2.352-.559.681-.993 1.424-1.428 2.105-.31.619-.62 1.238-.931 1.795l-.125.248c-2.98 5.819-5.836 11.7-8.568 17.519l-.062.062c-.248.619-.559 1.3-.87 1.98-.185.434-.372.867-.558 1.425C.186 28.97 0 30.333.186 31.757c.435 2.91 2.422 5.324 5.092 6.438.993.434 2.049.62 3.166.62.31 0 .683-.063.994-.063 1.303-.185 2.607-.557 3.911-1.3 1.615-.866 3.105-2.166 4.843-4.023 1.739 1.857 3.291 3.157 4.843 4.023 1.304.743 2.608 1.177 3.912 1.3.31.062.683.062.993.062 1.118 0 2.173-.185 3.167-.619 2.732-1.114 4.594-3.59 5.03-6.438.185-1.362.061-2.724-.498-4.147zM18.13 29.59c-2.11-2.661-3.477-5.138-3.911-7.18-.187-.867-.249-1.672-.125-2.353.062-.619.31-1.176.621-1.61.745-1.052 1.987-1.733 3.415-1.733s2.732.62 3.415 1.734c.31.495.559.99.621 1.61.124.68.062 1.485-.124 2.352-.435 2.042-1.8 4.519-3.912 7.18zm15.523 1.858c-.249 2.042-1.615 3.776-3.54 4.519-.93.371-1.924.495-2.98.371-.993-.124-1.925-.433-2.98-.99-1.428-.805-2.794-1.981-4.409-3.777 2.546-3.157 4.098-6.004 4.72-8.542.248-1.177.31-2.29.186-3.281-.187-.99-.497-1.858-1.056-2.662-1.18-1.734-3.229-2.724-5.464-2.724-2.235 0-4.284 1.052-5.464 2.724-.559.804-.869 1.671-1.055 2.662-.187.99-.124 2.104.186 3.28.559 2.539 2.173 5.448 4.719 8.605-1.615 1.796-3.043 2.972-4.409 3.777-.993.557-1.986.866-2.98.99-1.055.124-2.049-.062-2.918-.371-1.925-.805-3.29-2.539-3.54-4.52-.123-.99-.061-1.919.373-3.033.125-.371.31-.805.497-1.238.248-.619.559-1.3.87-1.919l.061-.062C7.14 19.5 9.996 13.62 13.04 7.862l.124-.248c.31-.557.62-1.176.931-1.795.31-.619.683-1.176 1.118-1.733.807-.929 1.925-1.424 3.104-1.424 1.18 0 2.298.495 3.105 1.424.435.495.807 1.114 1.118 1.733.31.557.62 1.176.93 1.795l.125.248c2.98 5.757 5.836 11.638 8.506 17.395v.062c.31.62.56 1.3.87 1.92.186.494.372.866.496 1.237.187.99.31 1.92.187 2.972z" transform="translate(-1132 -5301) translate(128 5299) translate(948 1) translate(56 1)"/>
                        </g>
                    </g>
                </g>
            </g>
        </g>
    </g>
</svg>
