<svg xmlns="http://www.w3.org/2000/svg" width="125" height="32" viewBox="0 0 125 32">
    <g fill="none" fill-rule="evenodd">
        <g>
            <g>
                <g>
                    <g>
                        <path d="M0 0H237V41.6H0z" transform="translate(-658 -5305) translate(128 5299) translate(474 1)"/>
                        <g fill="#8C98A4" fill-rule="nonzero">
                            <g>
                                <path d="M18.22 2.392c0 1.287-1.122 2.391-2.433 2.391-1.31 0-2.433-1.104-2.433-2.391C13.354 1.104 14.477 0 15.787 0c1.31 0 2.434 1.104 2.434 2.392zm-2.433 4.353c-1.435 0-2.558 1.104-2.558 2.514 0 1.41 1.123 2.515 2.558 2.515 1.435 0 2.559-1.104 2.559-2.515 0-1.471-1.124-2.514-2.559-2.514zm0 6.684c-1.435 0-2.62 1.165-2.62 2.576 0 1.41 1.185 2.575 2.62 2.575s2.621-1.165 2.621-2.575c.062-1.41-1.186-2.576-2.62-2.576zm0 6.807c-1.435 0-2.558 1.104-2.558 2.514 0 1.41 1.123 2.514 2.558 2.514 1.435 0 2.559-1.104 2.559-2.514 0-1.35-1.124-2.514-2.559-2.514zm0 6.93c-1.31 0-2.433 1.103-2.433 2.39 0 1.288 1.123 2.392 2.433 2.392 1.31 0 2.434-1.104 2.434-2.391 0-1.288-1.061-2.392-2.434-2.392zm6.74-20.727c-1.56 0-2.871 1.287-2.871 2.82s1.31 2.821 2.87 2.821 2.87-1.288 2.87-2.82c0-1.534-1.31-2.821-2.87-2.821zm0 6.684c-1.623 0-2.996 1.287-2.996 2.943 0 1.594 1.31 2.943 2.995 2.943 1.623 0 2.996-1.287 2.996-2.943 0-1.656-1.373-2.943-2.996-2.943zm0 6.806c-1.56 0-2.871 1.288-2.871 2.821 0 1.533 1.31 2.82 2.87 2.82s2.87-1.287 2.87-2.82-1.31-2.82-2.87-2.82zm6.926-7.174c-1.747 0-3.307 1.41-3.307 3.25 0 1.717 1.435 3.25 3.307 3.25 1.872 0 3.307-1.41 3.307-3.25-.125-1.84-1.56-3.25-3.307-3.25zM8.986 7.052c-1.186 0-2.184.981-2.184 2.146s.998 2.146 2.184 2.146c1.185 0 2.184-.98 2.184-2.146 0-1.165-.936-2.146-2.184-2.146zm0 6.684c-1.31 0-2.31.981-2.31 2.269 0 1.287 1 2.269 2.31 2.269s2.308-.982 2.308-2.27c0-1.287-.998-2.268-2.308-2.268zm0 6.806c-1.186 0-2.184.982-2.184 2.147 0 1.165.998 2.146 2.184 2.146 1.185 0 2.184-.981 2.184-2.146s-.936-2.147-2.184-2.147zm-6.802-6.438c-1.123 0-1.997.858-1.997 1.962s.874 1.962 1.997 1.962c1.123 0 1.997-.858 1.997-1.962s-.874-1.962-1.997-1.962z" transform="translate(-658 -5305) translate(128 5299) translate(474 1) translate(56 5)"/>
                            </g>
                            <g>
                                <g>
                                    <path d="M15.787 9.382c-.25 0-.437.245-.437.43v16.985c0 .245.25.43.437.43h2.06c.249 0 .436-.246.436-.43V9.811c0-.245-.25-.429-.437-.429h-2.059zM16.91 2.208c-1.123 0-1.996.858-1.996 1.962s.873 1.962 1.996 1.962c1.124 0 1.997-.858 1.997-1.962s-.936-1.962-1.997-1.962zM60.091 9.382c-.25 0-.437.245-.437.43v16.985c0 .245.25.43.437.43h2.06c.249 0 .436-.246.436-.43V9.811c0-.245-.25-.429-.437-.429h-2.059zM61.09 2.208c-1.124 0-1.997.858-1.997 1.962s.873 1.962 1.997 1.962c1.123 0 1.996-.858 1.996-1.962s-.873-1.962-1.996-1.962zM82.038 25.57c.13-.122.13-.245.13-.306v-.122s0-.123-.13-.123c0 0-.13-.123-.26-.123h-.845v1.533h.26v-.552h.325l.455.552h.26l-.585-.674c.26.061.39-.062.39-.184zm-.78.123v-.551h.455c.13 0 .26 0 .325.122.13 0 .13.123.13.245 0 .123 0 .246-.13.246s-.26.122-.325.122h-.455v-.184z" transform="translate(-658 -5305) translate(128 5299) translate(474 1) translate(56 5) translate(41.808 1.84) translate(0 .613)"/>
                                    <path d="M81.557 24.283c-.749 0-1.435.675-1.435 1.41 0 .736.686 1.41 1.435 1.41s1.435-.674 1.435-1.41c0-.797-.624-1.41-1.435-1.41zm0 2.698c-.749 0-1.31-.552-1.31-1.288 0-.735.561-1.287 1.31-1.287s1.31.552 1.31 1.287c0 .736-.624 1.288-1.31 1.288zM32.947 12.142c.25 0 .437-.246.437-.43V9.69c0-.246-.25-.43-.437-.43h-4.43v-6.5c0-.245-.25-.429-.437-.429h-2.06c-.249 0-.436.245-.436.43v6.5H23.4c-.25 0-.437.245-.437.429v2.023c0 .246.25.43.437.43h2.184v9.81c0 3.006 2.06 4.968 5.054 4.968h2.184c.25 0 .437-.245.437-.43v-2.023c0-.245-.25-.43-.437-.43H30.95c-1.435 0-2.433-.98-2.433-2.513V12.08h4.43v.062zM76.752 12.142c.25 0 .437-.246.437-.43V9.69c0-.246-.25-.43-.437-.43h-4.43v-6.5c0-.245-.25-.429-.437-.429h-2.06c-.249 0-.436.245-.436.43v6.5h-2.184c-.25 0-.437.245-.437.429v2.023c0 .246.25.43.437.43h2.184v9.81c0 3.006 2.059 4.968 5.054 4.968h2.184c.25 0 .437-.245.437-.43v-2.023c0-.245-.25-.43-.437-.43H74.63c-1.435 0-2.433-.98-2.433-2.513V12.08h4.493l.062.062zM2.683 12.142v14.471c0 .245.25.43.437.43h2.06c.249 0 .436-.246.436-.43V12.142h4.867c.25 0 .437-.246.437-.43V9.69c0-.246-.25-.43-.437-.43H5.616V5.458c0-1.533 1.123-2.576 2.434-2.576h2.433c.25 0 .437-.245.437-.43V.43c0-.245-.25-.429-.437-.429H8.174c-3.057 0-5.49 2.514-5.49 5.396V9.26H.498c-.25 0-.437.246-.437.43v2.023c0 .246.25.43.437.43h2.184z" transform="translate(-658 -5305) translate(128 5299) translate(474 1) translate(56 5) translate(41.808 1.84) translate(0 .613)"/>
                                </g>
                                <path d="M53.102 12.019c-1.622-1.717-3.93-2.698-6.364-2.698-2.31 0-4.618.98-6.053 2.391V.92c0-.245-.25-.43-.437-.43h-2.06c-.249 0-.436.246-.436.43v17.844c0 6.623 4.493 9.505 8.923 9.505 4.368 0 8.923-2.944 8.923-9.505 0-2.637-.873-5.028-2.496-6.745zm-6.427 13.49c-4.43 0-6.053-3.434-6.053-6.684 0-3.985 2.434-6.622 6.053-6.622 3.62 0 6.053 2.698 6.053 6.622-.062 3.25-1.622 6.684-6.053 6.684z" transform="translate(-658 -5305) translate(128 5299) translate(474 1) translate(56 5) translate(41.808 1.84)"/>
                            </g>
                        </g>
                    </g>
                </g>
            </g>
        </g>
    </g>
</svg>
