<svg xmlns="http://www.w3.org/2000/svg" width="125" height="42" viewBox="0 0 125 42">
    <g fill="none" fill-rule="evenodd">
        <g>
            <g>
                <g>
                    <g>
                        <path d="M0 0H237V41.6H0z" transform="translate(-895 -5299) translate(128 5299) translate(711)"/>
                        <g fill="#8C98A4" fill-rule="nonzero">
                            <path d="M30.715 14.56h-14.55v4.29h10.347c-.517 6.045-5.561 8.71-10.282 8.71-6.078 0-11.38-4.81-11.38-11.505C4.85 9.49 9.893 4.42 16.23 4.42c4.915 0 7.76 3.12 7.76 3.12l2.975-3.12S23.085.13 16.036.13C7.048.065.13 7.67.13 15.925c0 8.06 6.531 15.925 16.166 15.925 8.471 0 14.679-5.785 14.679-14.43 0-1.82-.259-2.86-.259-2.86zM42.548 11.375c-5.949 0-10.216 4.68-10.216 10.14 0 5.59 4.138 10.335 10.346 10.335 5.625 0 10.152-4.225 10.152-10.205-.065-6.76-5.367-10.27-10.282-10.27zm.065 4.095c2.91 0 5.69 2.405 5.69 6.175s-2.715 6.175-5.69 6.175c-3.233 0-5.755-2.6-5.755-6.24-.065-3.51 2.457-6.11 5.755-6.11zM64.793 11.375c-5.95 0-10.217 4.68-10.217 10.14 0 5.59 4.138 10.335 10.346 10.335 5.626 0 10.152-4.225 10.152-10.205-.065-6.76-5.367-10.27-10.281-10.27zm.064 4.095c2.91 0 5.69 2.405 5.69 6.175s-2.715 6.175-5.69 6.175c-3.233 0-5.755-2.6-5.755-6.24-.064-3.51 2.457-6.11 5.755-6.11zM86.584 11.44c-5.496 0-9.764 4.81-9.764 10.205 0 6.11 4.979 10.27 9.635 10.27 2.91 0 4.397-1.105 5.625-2.47v2.015c0 3.51-2.133 5.655-5.367 5.655-3.103 0-4.655-2.34-5.237-3.64L77.53 35.1c1.358 2.925 4.139 5.98 9.118 5.98 5.431 0 9.57-3.445 9.57-10.66V12.025H91.95v1.755c-1.164-1.43-2.974-2.34-5.367-2.34zm.388 4.03c2.651 0 5.432 2.34 5.432 6.24 0 4.03-2.716 6.175-5.497 6.175-2.91 0-5.625-2.405-5.625-6.11.064-4.03 2.845-6.305 5.69-6.305zM115.36 11.375c-5.174 0-9.506 4.095-9.506 10.205 0 6.435 4.85 10.27 9.958 10.27 4.268 0 6.983-2.405 8.535-4.485l-3.556-2.405c-.905 1.43-2.457 2.795-4.98 2.795-2.844 0-4.138-1.56-4.978-3.12l13.644-5.72-.712-1.69c-1.358-3.12-4.397-5.85-8.406-5.85zm.128 3.965c1.876 0 3.169.975 3.816 2.21l-9.053 3.835c-.518-2.99 2.328-6.045 5.237-6.045zM99.387 31.265L103.849 31.265 103.849 1.105 99.387 1.105z" transform="translate(-895 -5299) translate(128 5299) translate(711) translate(56)"/>
                        </g>
                    </g>
                </g>
            </g>
        </g>
    </g>
</svg>
