<svg xmlns="http://www.w3.org/2000/svg" width="142" height="110" viewBox="0 0 142 110">
    <g fill="none" fill-rule="evenodd">
        <g>
            <g>
                <g>
                    <g>
                        <path fill="#1565D8" d="M98.876 30.71c7.647 16.949 3.991 36.757-5.483 52.005-9.475 15.274-24.768 25.99-42.12 27.174-17.353 1.185-36.765-7.186-45.57-22.048-8.805-14.888-7.029-36.267 2.677-54.4C18.086 15.308 35.697.394 53.976.008c18.28-.387 37.228 13.754 44.9 30.703z" opacity=".1" transform="translate(-913 -2379) translate(0 2027) translate(785 284) translate(128 68)"/>
                        <g>
                            <path fill="#FFF" d="M15 55L26.577 45.162 45.642 55 42 62.487 54.276 64 80.139 56.162 85.273 58.571 85.273 65.979 55.856 86.378 31.891 78.232 15 78.232z" transform="translate(-913 -2379) translate(0 2027) translate(785 284) translate(128 68) translate(42)"/>
                            <path d="M0 0L100 0 100 100 0 100z" transform="translate(-913 -2379) translate(0 2027) translate(785 284) translate(128 68) translate(42)"/>
                            <path fill="#2E2E2E" fill-rule="nonzero" d="M16 76h15.426l.673.117 20.955 7.49c1.708.61 3.6.416 5.147-.53 15.186-9.272 22.325-16.183 23.641-17.28.337-.28.908-1.011 1.627-2.143.529-.833.673-1.853.396-2.8-.532-1.815-2.435-2.856-4.221-2.333l-25.04 7.752c-.318.098-.657.116-.984.05l-19.549-3.912-.292-.033c-1.098-.122-1.889-1.11-1.767-2.208.006-.05.013-.098.022-.145.227-1.143 1.281-1.845 2.364-1.628l.288.057 5.258.585c1.101.122 2.152-.49 2.589-1.509.547-1.276-.045-2.754-1.427-3.35l-11.092-5.546c-2.218-1.11-4.89-.74-6.724.93L16 56v-5.335l4.596-4.057c3.056-2.784 7.51-3.4 11.207-1.552l10.985 5.496c3.307 1.417 4.839 5.247 3.421 8.554-.23.539-.528 1.034-.88 1.478l8.578 1.717 24.583-7.61c3.936-1.153 8.061 1.104 9.214 5.04.6 2.052.288 4.263-.859 6.067-.924 1.456-1.71 2.463-2.442 3.073-1.555 1.295-8.54 8.108-24.118 17.62-2.579 1.575-5.731 1.9-8.577.883L31.08 80H16v-4z" transform="translate(-913 -2379) translate(0 2027) translate(785 284) translate(128 68) translate(42)"/>
                            <path fill="#2E2E2E" d="M14 40c1.105 0 2 .895 2 2v44c0 1.105-.895 2-2 2h-4c-1.105 0-2-.895-2-2s.895-2 2-2h2V44h-2c-1.105 0-2-.895-2-2s.895-2 2-2h4zm49.521-27.298C71.801 22.402 76 30.8 76 38c0 10.006-4.936 14-14 14s-14-3.994-14-14c0-7.2 4.199-15.598 12.479-25.298.798-.936 2.244-.936 3.042 0zM62 17.124C55.302 25.37 52 32.357 52 38c0 7.588 2.98 10 10 10s10-2.412 10-10c0-5.643-3.302-12.63-10-20.876z" transform="translate(-913 -2379) translate(0 2027) translate(785 284) translate(128 68) translate(42)"/>
                        </g>
                    </g>
                </g>
            </g>
        </g>
    </g>
</svg>
