<svg xmlns="http://www.w3.org/2000/svg" width="159" height="109" viewBox="0 0 159 109">
    <g fill="none" fill-rule="evenodd">
        <g>
            <g>
                <g>
                    <g>
                        <path fill="#36B37E" d="M120.887 20.111c10.16 15.274 7.018 40.612-4.727 57.65-11.717 17.07-32.066 25.78-53.18 26.221-21.112.442-42.988-7.386-54.206-24.13-11.246-16.775-11.833-42.407-.88-58.122C18.816 6.045 41.28.306 64.243.012c22.992-.294 46.454 4.856 56.643 20.1z" opacity=".1" transform="translate(-427 -2736) translate(0 2027) translate(315 649) translate(112 60)"/>
                        <g>
                            <path fill="#FFF" d="M48.07 22.064l-26.917 25.9c-8.668 8.341-8.997 22.11-.737 30.855 8.26 8.747 22.026 9.207 30.852 1.03l26.208-24.278c9.188-8.511 9.924-22.792 1.66-32.202-7.837-8.923-21.423-9.804-30.346-1.968-.245.216-.485.436-.72.663z" transform="translate(-427 -2736) translate(0 2027) translate(315 649) translate(112 60) translate(58 8)"/>
                            <path d="M0 0L100.08 0 100.08 100.08 0 100.08z" transform="translate(-427 -2736) translate(0 2027) translate(315 649) translate(112 60) translate(58 8)"/>
                            <path fill="#2E2E2E" d="M32.559 35.496L64.775 67.712 67.704 64.783 35.488 32.567z" transform="translate(-427 -2736) translate(0 2027) translate(315 649) translate(112 60) translate(58 8)"/>
                            <path fill="#2E2E2E" fill-rule="nonzero" d="M80.792 19.288c9.705 9.705 9.705 25.44 0 35.145L54.433 80.792c-9.705 9.705-25.44 9.705-35.145 0-9.705-9.705-9.705-25.44 0-35.145l26.359-26.359c9.705-9.705 25.44-9.705 35.145 0zm-32.216 2.93L22.217 48.575c-8.087 8.087-8.087 21.2 0 29.287 8.088 8.087 21.2 8.087 29.287 0l26.359-26.359c8.087-8.087 8.087-21.2 0-29.287-8.088-8.087-21.2-8.087-29.287 0z" transform="translate(-427 -2736) translate(0 2027) translate(315 649) translate(112 60) translate(58 8)"/>
                        </g>
                    </g>
                </g>
            </g>
        </g>
    </g>
</svg>
