<svg xmlns="http://www.w3.org/2000/svg" width="135" height="103" viewBox="0 0 135 103">
    <g fill="none" fill-rule="evenodd">
        <g>
            <g>
                <g>
                    <g>
                        <path fill="#FAAD13" d="M131.268 16.852c7.986 13.253 2.238 34.976-8.572 52.833-10.835 17.883-26.782 31.899-43.39 32.306-16.635.407-33.98-12.82-42.349-29.279-8.368-16.432-7.783-36.12.89-49.755C46.521 9.297 63.257 1.666 82.46.24c19.203-1.424 40.848 3.383 48.809 16.61z" opacity=".1" transform="translate(-955 -2742) translate(0 2027) translate(785 649) translate(170 66)"/>
                        <g>
                            <path d="M0 0L100.08 0 100.08 100.08 0 100.08z" transform="translate(-955 -2742) translate(0 2027) translate(785 649) translate(170 66) translate(0 2)"/>
                            <path fill="#FFF" d="M26.01 78.074V46.026c0-7.732 6.268-14 14-14h19.427c7.732 0 14 6.268 14 14v32.048c0 7.732-6.268 14-14 14H40.01c-7.732 0-14-6.268-14-14z" transform="translate(-955 -2742) translate(0 2027) translate(785 649) translate(170 66) translate(0 2)"/>
                            <path fill="#2E2E2E" d="M52.042 60.048H62.05c1.105 0 2.001.896 2.001 2.002 0 1.105-.896 2.001-2.001 2.001H52.042V74.06c0 1.106-.897 2.002-2.002 2.002-1.105 0-2.002-.896-2.002-2.002V64.051H38.03c-1.105 0-2.001-.896-2.001-2.001 0-1.106.896-2.002 2.001-2.002h10.008V50.04c0-1.105.897-2.002 2.002-2.002 1.105 0 2.002.897 2.002 2.002v10.008z" transform="translate(-955 -2742) translate(0 2027) translate(785 649) translate(170 66) translate(0 2)"/>
                            <path fill="#2E2E2E" fill-rule="nonzero" d="M43.235 32.026c-.232.174-.504.3-.803.36-8.328 1.69-14.41 9.048-14.41 17.654v32.026c0 3.316 2.689 6.004 6.005 6.004h32.026c3.316 0 6.005-2.688 6.005-6.004V50.04c0-8.606-6.082-15.964-14.41-17.654-.299-.06-.571-.186-.803-.36h-13.61zm.8-4.004h12.01v-14.01c0-1.106-.896-2.002-2.002-2.002h-8.006c-1.106 0-2.002.896-2.002 2.001v14.011zM76.061 50.04v32.026c0 5.527-4.48 10.008-10.008 10.008H34.027c-5.527 0-10.008-4.481-10.008-10.008V50.04c0-9.959 6.66-18.548 16.013-21.189v-14.84c0-3.316 2.688-6.005 6.005-6.005h8.006c3.317 0 6.005 2.689 6.005 6.005v14.84c9.352 2.641 16.013 11.23 16.013 21.189z" transform="translate(-955 -2742) translate(0 2027) translate(785 649) translate(170 66) translate(0 2)"/>
                        </g>
                    </g>
                </g>
            </g>
        </g>
    </g>
</svg>
