<svg xmlns="http://www.w3.org/2000/svg" width="36" height="36" viewBox="0 0 36 36">
    <g fill="none" fill-rule="evenodd">
        <g>
            <g>
                <g>
                    <g>
                        <g>
                            <g>
                                <path d="M0 0L36 0 36 36 0 36z" transform="translate(-262 -6143) translate(0 4947) translate(150 1134) translate(37 48) translate(61) translate(14 14)"/>
                                <path fill="#1565D8" fill-rule="nonzero" d="M31.68 28.08c0 2.784-2.256 5.04-5.04 5.04H9.36c-2.784 0-5.04-2.256-5.04-5.04V5.04c0-1.193.967-2.16 2.16-2.16h16.606c.64 0 1.249.285 1.659.777l6.434 7.722c.324.388.501.877.501 1.382V28.08zm-2.257-16.56L24.48 5.589V10.8c0 .398.322.72.72.72h4.223zM6.48 4.32c-.398 0-.72.322-.72.72v23.04c0 1.988 1.612 3.6 3.6 3.6h17.28c1.988 0 3.6-1.612 3.6-3.6v-14.4c0-.398-.322-.72-.72-.72H25.2c-1.193 0-2.16-.967-2.16-2.16V5.04c0-.398-.322-.72-.72-.72H6.48z" transform="translate(-262 -6143) translate(0 4947) translate(150 1134) translate(37 48) translate(61) translate(14 14)"/>
                                <path fill="#36B37E" fill-rule="nonzero" d="M12.24 21.6c-.398 0-.72-.322-.72-.72 0-.398.322-.72.72-.72h11.52c.398 0 .72.322.72.72 0 .398-.322.72-.72.72H12.24zm0 4.32c-.398 0-.72-.322-.72-.72 0-.398.322-.72.72-.72h8.64c.398 0 .72.322.72.72 0 .398-.322.72-.72.72h-8.64zm0-8.64c-.398 0-.72-.322-.72-.72 0-.398.322-.72.72-.72h4.32c.398 0 .72.322.72.72 0 .398-.322.72-.72.72h-4.32z" transform="translate(-262 -6143) translate(0 4947) translate(150 1134) translate(37 48) translate(61) translate(14 14)"/>
                            </g>
                        </g>
                    </g>
                </g>
            </g>
        </g>
    </g>
</svg>
