<?xml version="1.0" encoding="UTF-8"?>
<svg width="110px" height="33px" viewBox="0 0 110 33" version="1.1" xmlns="http://www.w3.org/2000/svg" xmlns:xlink="http://www.w3.org/1999/xlink">
    <title>slack</title>
    <g id="[NEW-UPDATE-Landing]" stroke="none" stroke-width="1" fill="none" fill-rule="evenodd">
        <g id="57---SaaS-01" transform="translate(-190.000000, -692.000000)" fill="#FFFFFF">
            <g id="Company" transform="translate(150.000000, 691.000000)">
                <g id="Item" transform="translate(0.000000, 1.000000)">
                    <g id="slack" transform="translate(40.000000, 0.000000)">
                        <g id="Group-4" transform="translate(3.283582, 1.103448)">
                            <path d="M16.4179104,2.09655172 C15.9800995,0.662068966 14.4477612,-0.110344828 13.0248756,0.331034483 C11.60199,0.772413793 10.8358209,2.31724138 11.2736318,3.75172414 L18.278607,25.4896552 C18.7711443,26.8137931 20.1940299,27.5862069 21.5621891,27.2 C22.9850746,26.7586207 23.8606965,25.2689655 23.4228856,23.8344828 C23.4228856,23.7793103 16.4179104,2.09655172 16.4179104,2.09655172" id="Fill-1"></path>
                            <path d="M5.58208955,5.68275862 C5.14427861,4.24827586 3.6119403,3.47586207 2.18905473,3.91724138 C0.766169154,4.35862069 2.22044605e-16,5.90344828 0.437810945,7.33793103 L7.44278607,29.0758621 C7.93532338,30.4 9.35820896,31.1724138 10.7263682,30.7862069 C12.1492537,30.3448276 13.0248756,28.8551724 12.5870647,27.4206897 C12.5870647,27.3655172 5.58208955,5.68275862 5.58208955,5.68275862" id="Fill-3"></path>
                        </g>
                        <path d="M28.5671642,21.2413793 C29.9900498,20.8 30.7562189,19.2551724 30.318408,17.8206897 C29.880597,16.3862069 28.3482587,15.6137931 26.9253731,16.0551724 L5.30845771,23.062069 C3.99502488,23.5586207 3.22885572,24.9931034 3.6119403,26.3724138 C4.04975124,27.8068966 5.52736318,28.6896552 6.95024876,28.2482759 C7.05970149,28.2482759 28.5671642,21.2413793 28.5671642,21.2413793" id="Fill-5"></path>
                        <path d="M9.7960199,27.3655172 C11.2189055,26.9241379 13.0248756,26.3172414 14.9402985,25.6551724 C14.5024876,24.2206897 13.9004975,22.4 13.2437811,20.4689655 L8.09950249,22.1793103 L9.7960199,27.3655172" id="Fill-6"></path>
                        <g id="Group-10" transform="translate(0.000000, 4.413793)">
                            <path d="M20.6865672,19.3655172 C22.6567164,18.7034483 24.4626866,18.1517241 25.8308458,17.6551724 C25.3930348,16.2206897 24.7910448,14.4 24.1343284,12.4689655 L18.9900498,14.1793103 L20.6865672,19.3655172" id="Fill-7"></path>
                            <path d="M25.0099502,5.84827586 C26.4328358,5.40689655 27.199005,3.86206897 26.761194,2.42758621 C26.3233831,0.993103448 24.7910448,0.220689655 23.3681592,0.662068966 L1.80597015,7.72413793 C0.492537313,8.22068966 -0.273631841,9.65517241 0.109452736,11.0344828 C0.547263682,12.5241379 2.02487562,13.4068966 3.44776119,12.9103448 C3.50248756,12.9103448 25.0099502,5.84827586 25.0099502,5.84827586" id="Fill-9"></path>
                        </g>
                        <path d="M6.29353234,16.3862069 C7.71641791,15.9448276 9.52238806,15.337931 11.4378109,14.6758621 C10.7810945,12.6896552 10.2338308,10.8689655 9.74129353,9.48965517 L4.59701493,11.2 L6.29353234,16.3862069" id="Fill-11"></path>
                        <path d="M17.1293532,12.8551724 C19.0995025,12.1931034 20.9054726,11.6413793 22.2736318,11.1448276 C21.6169154,9.15862069 21.0696517,7.33793103 20.5771144,5.95862069 L15.4328358,7.66896552 L17.1293532,12.8551724" id="Fill-12"></path>
                        <path d="M50.4029851,8.93793103 C51.3333333,9.37931034 51.4427861,9.65517241 50.6766169,11.0896552 C49.9104478,12.5793103 49.7462687,12.6344828 48.761194,12.2482759 C47.5572139,11.7517241 46.079602,11.3655172 45.0945274,11.3655172 C43.5074627,11.3655172 42.4676617,11.9172414 42.4676617,12.8 C42.4676617,15.6689655 51.6069652,14.1241379 51.6069652,20.3034483 C51.6069652,23.3931034 48.9800995,25.4344828 45.039801,25.4344828 C42.960199,25.4344828 40.3880597,24.7172414 38.6368159,23.8344828 C37.761194,23.3931034 37.7064677,23.1172414 38.4726368,21.6275862 C39.1293532,20.3586207 39.3482587,20.1931034 40.278607,20.5793103 C41.8109453,21.2413793 43.6716418,21.737931 44.9850746,21.737931 C46.4626866,21.737931 47.3930348,21.1310345 47.3930348,20.2482759 C47.3930348,17.4344828 38.0895522,18.7586207 38.0895522,12.8 C38.0895522,9.65517241 40.7164179,7.50344828 44.60199,7.50344828 C46.4626866,7.66896552 48.8159204,8.22068966 50.4029851,8.93793103" id="Fill-13"></path>
                        <path d="M57.7910448,1.65517241 L57.7910448,24.6068966 C57.7910448,24.937931 57.4079602,25.3241379 56.9154229,25.3241379 L54.5074627,25.3241379 C53.960199,25.3241379 53.6318408,24.937931 53.6318408,24.6068966 L53.6318408,1.65517241 C53.6318408,0.496551724 53.960199,0.44137931 55.7114428,0.44137931 C57.681592,0.386206897 57.7910448,0.551724138 57.7910448,1.65517241" id="Fill-14"></path>
                        <path d="M63.7562189,20.2482759 C63.7562189,21.4068966 64.7412935,22.1793103 66.2189055,22.1793103 C68.0248756,22.1793103 69.6666667,21.2965517 70.5970149,19.8068966 L70.5970149,18.262069 C69.6666667,17.8758621 68.4626866,17.7103448 67.4228856,17.7103448 C65.2338308,17.7103448 63.7562189,18.8137931 63.7562189,20.2482759 Z M74.7562189,14.5103448 L74.7562189,24.3862069 C74.7562189,24.937931 74.3731343,25.2689655 73.880597,25.2689655 L71.5273632,25.2689655 C70.9800995,25.2689655 70.5970149,24.8827586 70.6517413,24.3310345 L70.7064677,23.2827586 C69.4477612,24.7172414 67.5870647,25.4896552 65.7263682,25.4896552 C62.1691542,25.4896552 59.761194,23.3931034 59.761194,20.3034483 C59.761194,16.9931034 62.4427861,14.7862069 66.5472637,14.7862069 C68.079602,14.7862069 69.5024876,15.062069 70.6517413,15.5586207 L70.6517413,14.4 C70.6517413,12.5793103 69.2288557,11.4758621 66.8208955,11.4758621 C65.6716418,11.4758621 64.3034826,11.9172414 63.2089552,12.5793103 C62.3333333,13.0758621 62.1691542,13.0206897 61.238806,11.6413793 C60.3631841,10.262069 60.3631841,9.9862069 61.238806,9.43448276 C62.880597,8.33103448 65.1791045,7.66896552 67.2587065,7.66896552 C71.8557214,7.66896552 74.7562189,10.2068966 74.7562189,14.5103448 L74.7562189,14.5103448 Z" id="Fill-15"></path>
                        <g id="Group-19" transform="translate(76.616915, 0.000000)">
                            <path d="M14.3930348,8.99310345 C15.2686567,9.48965517 15.2686567,9.76551724 14.3383085,11.2551724 C13.4626866,12.6344828 13.2985075,12.7448276 12.3134328,12.2482759 C11.60199,11.862069 10.39801,11.5310345 9.46766169,11.5310345 C6.45771144,11.5310345 4.48756219,13.5172414 4.48756219,16.5517241 C4.48756219,19.6965517 6.45771144,21.7931034 9.46766169,21.7931034 C10.5074627,21.7931034 11.8208955,21.4068966 12.641791,20.9103448 C13.5174129,20.4137931 13.681592,20.4137931 14.6119403,21.7931034 C15.4328358,23.062069 15.4328358,23.337931 14.6666667,23.8896552 C13.3532338,24.8275862 11.2189055,25.5448276 9.35820896,25.5448276 C3.83084577,25.5448276 0.109452736,21.9586207 0.109452736,16.6068966 C0.109452736,11.2551724 3.83084577,7.72413793 9.41293532,7.72413793 C11.1641791,7.66896552 13.1343284,8.22068966 14.3930348,8.99310345" id="Fill-16"></path>
                            <path d="M32.5074627,23.1172414 C33.2189055,24 32.9452736,24.3310345 31.1940299,24.937931 C29.4427861,25.6 29.1691542,25.5448276 28.5671642,24.7172414 L23.5870647,18.0413793 L21.3432836,20.1931034 L21.3432836,24.5517241 C21.3432836,24.8827586 20.960199,25.2689655 20.4676617,25.2689655 L18.0597015,25.2689655 C17.5124378,25.2689655 17.1840796,24.8827586 17.1840796,24.5517241 L17.1840796,1.65517241 C17.1840796,0.496551724 17.5124378,0.44137931 19.2636816,0.44137931 C21.2885572,0.44137931 21.3432836,0.606896552 21.3432836,1.65517241 L21.3432836,14.6758621 L28.1293532,8.11034483 C28.8955224,7.39310345 29.278607,7.44827586 30.6467662,8.33103448 C32.1243781,9.26896552 32.2338308,9.54482759 31.5223881,10.262069 L26.4875622,15.2275862 L32.5074627,23.1172414" id="Fill-18"></path>
                        </g>
                    </g>
                </g>
            </g>
        </g>
    </g>
</svg>