<?xml version="1.0" encoding="UTF-8"?>
<svg width="96px" height="21px" viewBox="0 0 96 21" version="1.1" xmlns="http://www.w3.org/2000/svg" xmlns:xlink="http://www.w3.org/1999/xlink">
    <title>uber</title>
    <g id="[NEW-UPDATE-Landing]" stroke="none" stroke-width="1" fill="none" fill-rule="evenodd">
        <g id="57---SaaS-01" transform="translate(-1147.000000, -698.000000)" fill="#FFFFFF">
            <g id="Company" transform="translate(150.000000, 691.000000)">
                <g id="Item" transform="translate(950.000000, 1.000000)">
                    <g id="uber" transform="translate(47.000000, 6.000000)">
                        <path d="M15.0447761,0.73255814 L15.0447761,12.0139535 C15.0447761,15.7744186 13.4208955,17.3372093 9.6,17.3372093 C5.77910448,17.3372093 4.15522388,15.7744186 4.15522388,12.0139535 L4.15522388,0.244186047 L0.47761194,0.244186047 C0.143283582,0.244186047 0,0.390697674 0,0.73255814 L0,12.1604651 C0,18.4604651 3.91641791,20.6581395 9.6,20.6581395 C15.2835821,20.6581395 19.2,18.4604651 19.2,12.1604651 L19.2,0.244186047 L15.5223881,0.244186047 C15.2358209,0.244186047 15.0447761,0.390697674 15.0447761,0.73255814" id="Fill-1"></path>
                        <path d="M68.3940299,3.51627907 C68.680597,3.51627907 68.8238806,3.41860465 68.919403,3.1744186 L69.9701493,0.488372093 C70.0179104,0.341860465 69.9701493,0.244186047 69.8268657,0.244186047 L55.0208955,0.244186047 C53.6358209,0.244186047 53.1104478,0.68372093 53.1104478,1.66046512 L53.1104478,19.144186 C53.1104478,19.9744186 53.4925373,20.3162791 54.5910448,20.3162791 L68.3940299,20.3162791 C68.680597,20.3162791 68.8238806,20.2186047 68.919403,19.9744186 L69.9701493,17.2883721 C70.0179104,17.1418605 69.9701493,17.044186 69.8268657,17.044186 L57.1701493,17.044186 L57.1701493,13.4790698 C57.1701493,12.2581395 57.838806,11.672093 59.6059701,11.672093 L65.0985075,11.672093 C65.3850746,11.672093 65.5283582,11.5744186 65.6238806,11.3302326 L66.6268657,8.74186047 C66.6746269,8.59534884 66.6268657,8.49767442 66.4835821,8.49767442 L57.1223881,8.49767442 L57.1223881,3.51627907 L68.3940299,3.51627907" id="Fill-2"></path>
                        <path d="M38.4477612,17.0930233 L31.1880597,17.0930233 L31.1880597,13.4302326 C31.1880597,12.2093023 31.8567164,11.6232558 33.6238806,11.6232558 L38.4477612,11.6232558 C40.7402985,11.6232558 41.4089552,12.5511628 41.4089552,14.3581395 C41.4089552,16.2139535 40.7402985,17.0930233 38.4477612,17.0930233 Z M31.1880597,3.46744186 L37.6835821,3.46744186 C39.8328358,3.46744186 40.4537313,4.29767442 40.4537313,6.05581395 C40.4537313,7.76511628 39.8328358,8.64418605 37.6835821,8.64418605 L31.1880597,8.64418605 L31.1880597,3.46744186 Z M42.3164179,9.71860465 C43.9402985,8.83953488 44.6089552,7.22790698 44.6089552,5.32325581 C44.6089552,0.879069767 41.0746269,0.244186047 37.3970149,0.244186047 L28.9910448,0.244186047 C27.6059701,0.244186047 27.080597,0.68372093 27.080597,1.66046512 L27.080597,19.144186 C27.080597,19.9744186 27.4626866,20.3162791 28.561194,20.3162791 L38.8298507,20.3162791 C42.6985075,20.3162791 45.4686567,18.7534884 45.4686567,14.7488372 C45.5164179,12.355814 44.5134328,10.3534884 42.3164179,9.71860465 L42.3164179,9.71860465 Z" id="Fill-3"></path>
                        <path d="M87.9761194,9.57209302 L81.1462687,9.57209302 L81.1462687,3.46744186 L87.9761194,3.46744186 C90.5074627,3.46744186 91.080597,4.49302326 91.080597,6.49534884 C91.080597,8.54651163 90.5552239,9.57209302 87.9761194,9.57209302 Z M95.6656716,19.9744186 L91.2716418,12.2581395 C93.4686567,11.672093 95.2358209,10.2069767 95.2358209,6.44651163 C95.2358209,1.5627907 92.2746269,0.244186047 87.4029851,0.244186047 L78.9970149,0.244186047 C77.6119403,0.244186047 77.0865672,0.68372093 77.0865672,1.66046512 L77.0865672,19.827907 C77.0865672,20.1697674 77.2298507,20.3162791 77.5641791,20.3162791 L81.1462687,20.3162791 L81.1462687,14.455814 C81.1462687,13.2348837 81.8149254,12.6488372 83.5820896,12.6488372 L87.2119403,12.6488372 L91.1761194,19.9744186 C91.319403,20.1697674 91.4149254,20.3162791 91.7014925,20.3162791 L95.4268657,20.3162791 C95.761194,20.3162791 95.761194,20.072093 95.6656716,19.9744186 L95.6656716,19.9744186 Z" id="Fill-4"></path>
                    </g>
                </g>
            </g>
        </g>
    </g>
</svg>