<svg xmlns="http://www.w3.org/2000/svg" width="50" height="50" viewBox="0 0 50 50">
    <g fill="none" fill-rule="evenodd">
        <g>
            <g>
                <g>
                    <path d="M0 0L50 0 50 50 0 50z" transform="translate(-575 -1924) translate(0 1533) translate(575 391)"/>
                    <path fill="#2E2E2E" fill-rule="nonzero" d="M25 4c11.598 0 21 9.402 21 21s-9.402 21-21 21S4 36.598 4 25 13.402 4 25 4zm0 2C14.507 6 6 14.507 6 25s8.507 19 19 19 19-8.507 19-19S35.493 6 25 6zm1.143 8.279c.502.258.905.679 1.15 1.194l2.023 4.278 4.508.683c1.397.212 2.347 1.541 2.15 2.957-.078.563-.334 1.086-.729 1.488l-3.287 3.342.778 4.73c.232 1.41-.685 2.762-2.075 3.01-.56.1-1.138.005-1.639-.27L25 33.486l-4.022 2.205c-1.258.69-2.815.186-3.465-1.104-.254-.504-.341-1.078-.25-1.637l.778-4.73-3.286-3.341c-.989-1.005-1.009-2.638-.046-3.668.39-.418.906-.692 1.467-.777l4.508-.683 2.024-4.278c.617-1.305 2.16-1.85 3.435-1.194zm-1.627 2.05l-2.252 4.759c-.142.3-.425.51-.754.56l-5.035.764c-.113.017-.22.074-.305.165-.23.247-.226.659.01.9l3.644 3.704c.223.227.325.548.273.863l-.86 5.23c-.023.142 0 .288.062.413.146.289.461.391.717.25l4.503-2.469c.3-.164.662-.164.962 0l4.503 2.47c.101.056.215.074.325.055.296-.053.51-.37.453-.718l-.86-5.231c-.051-.315.05-.636.274-.863l3.643-3.705c.093-.094.155-.22.174-.36.049-.35-.173-.66-.469-.704l-5.034-.763c-.33-.05-.612-.26-.754-.561l-2.252-4.76c-.057-.12-.148-.215-.257-.271-.258-.133-.572-.022-.711.272z" transform="translate(-575 -1924) translate(0 1533) translate(575 391)"/>
                </g>
            </g>
        </g>
    </g>
</svg>
