<svg xmlns="http://www.w3.org/2000/svg" width="48" height="48" viewBox="0 0 48 48">
    <g fill="none" fill-rule="evenodd">
        <g>
            <g>
                <g>
                    <path d="M0 0L48 0 48 48 0 48z" transform="translate(-970 -1925) translate(0 1533) translate(970 392)"/>
                    <path fill="#2E2E2E" fill-rule="nonzero" d="M17.28 9.6h8.242l-2.2-2.201c-.376-.375-.376-.983 0-1.358.374-.375.982-.375 1.357 0l3.84 3.84c.375.375.375.983 0 1.358l-3.84 3.84c-.375.375-.983.375-1.358 0-.375-.375-.375-.983 0-1.358l2.201-2.201H17.28v2.88c0 1.59-1.29 2.88-2.88 2.88H6.72c-1.59 0-2.88-1.29-2.88-2.88V6.72c0-1.59 1.29-2.88 2.88-2.88h7.68c1.59 0 2.88 1.29 2.88 2.88V9.6zm-1.92 4.8V6.72c0-.53-.43-.96-.96-.96H6.72c-.53 0-.96.43-.96.96v7.68c0 .53.43.96.96.96h7.68c.53 0 .96-.43.96-.96zm23.04 2.88v8.242l2.201-2.2c.375-.376.983-.376 1.358 0 .375.374.375.982 0 1.357l-3.84 3.84c-.188.187-.433.281-.679.281-.246 0-.491-.094-.679-.281l-3.84-3.84c-.375-.375-.375-.983 0-1.358.375-.375.983-.375 1.358 0l2.201 2.201V17.28H33.6c-1.59 0-2.88-1.29-2.88-2.88V6.72c0-1.59 1.29-2.88 2.88-2.88h7.68c1.59 0 2.88 1.29 2.88 2.88v7.68c0 1.59-1.29 2.88-2.88 2.88H38.4zm-4.8-1.92h7.68c.53 0 .96-.43.96-.96V6.72c0-.53-.43-.96-.96-.96H33.6c-.53 0-.96.43-.96.96v7.68c0 .53.43.96.96.96zM30.72 38.4h-8.242l2.2 2.201c.376.375.376.983 0 1.358-.374.375-.982.375-1.357 0l-3.84-3.84c-.375-.375-.375-.983 0-1.358l3.84-3.84c.375-.375.983-.375 1.358 0 .375.375.375.983 0 1.358l-2.201 2.201h8.242V33.6c0-1.59 1.29-2.88 2.88-2.88h7.68c1.59 0 2.88 1.29 2.88 2.88v7.68c0 1.59-1.29 2.88-2.88 2.88H33.6c-1.59 0-2.88-1.29-2.88-2.88V38.4zm1.92-4.8v7.68c0 .53.43.96.96.96h7.68c.53 0 .96-.43.96-.96V33.6c0-.53-.43-.96-.96-.96H33.6c-.53 0-.96.43-.96.96zm-21.12-2.88h2.88c1.59 0 2.88 1.29 2.88 2.88v7.68c0 1.59-1.29 2.88-2.88 2.88H6.72c-1.59 0-2.88-1.29-2.88-2.88V33.6c0-1.59 1.29-2.88 2.88-2.88H9.6v-8.242l-2.201 2.2c-.375.376-.983.376-1.358 0-.375-.374-.375-.982 0-1.357l3.84-3.84c.375-.375.983-.375 1.358 0l3.84 3.84c.375.375.375.983 0 1.358-.375.375-.983.375-1.358 0l-2.201-2.201v8.242zm-4.8 1.92c-.53 0-.96.43-.96.96v7.68c0 .53.43.96.96.96h7.68c.53 0 .96-.43.96-.96V33.6c0-.53-.43-.96-.96-.96H6.72z" transform="translate(-970 -1925) translate(0 1533) translate(970 392)"/>
                </g>
            </g>
        </g>
    </g>
</svg>
