<svg xmlns="http://www.w3.org/2000/svg" width="29" height="29" viewBox="0 0 29 29">
    <g fill="none" fill-rule="evenodd">
        <g>
            <g>
                <g>
                    <g>
                        <g>
                            <path d="M0 0L27.927 0 27.927 27.927 0 27.927z" transform="translate(-922 -1117) translate(0 703) translate(832 280) translate(40 116) translate(50.036 18.036)"/>
                            <path fill="#1565D8" d="M8.142 24.577c.54-.582.795-1.133.795-1.657 0-.575-.308-1.195-.959-1.863-.345-.354-.094-.949.4-.949h12.847V3.6L17.54 4.988c-.126.048-.265.048-.392 0L12.85 3.39 8.66 5c-.127.05-.267.05-.394.003L4.468 3.596v18.188c0 1.542 1.25 2.793 2.793 2.793h.88zM22.9 25.694H7.261c-2.16 0-3.91-1.75-3.91-3.91V2.794c0-.39.388-.66.753-.525l4.352 1.613 4.19-1.61c.127-.049.268-.05.395-.002l4.3 1.599 4.245-1.598c.366-.138.756.132.756.522v17.315h.558c1.543 0 2.793 1.25 2.793 2.793 0 1.542-1.25 2.793-2.793 2.793zM10.054 22.92c0 .565-.172 1.118-.506 1.657H22.9c.926 0 1.676-.75 1.676-1.676 0-.926-.75-1.676-1.676-1.676H9.533c.344.557.52 1.122.52 1.695z" transform="translate(-922 -1117) translate(0 703) translate(832 280) translate(40 116) translate(50.036 18.036)"/>
                            <path fill="#00B8D9" d="M17.315 14.523c.308 0 .558.25.558.558 0 .309-.25.559-.558.559H8.378c-.308 0-.558-.25-.558-.559 0-.308.25-.558.558-.558h8.937zm-4.468-4.469c.308 0 .558.25.558.559 0 .308-.25.558-.558.558H8.378c-.308 0-.558-.25-.558-.558 0-.309.25-.559.558-.559h4.469z" transform="translate(-922 -1117) translate(0 703) translate(832 280) translate(40 116) translate(50.036 18.036)"/>
                        </g>
                    </g>
                </g>
            </g>
        </g>
    </g>
</svg>
