<svg xmlns="http://www.w3.org/2000/svg" width="29" height="29" viewBox="0 0 29 29">
    <g fill="none" fill-rule="evenodd">
        <g>
            <g>
                <g>
                    <g>
                        <g>
                            <path d="M0 0L27.927 0 27.927 27.927 0 27.927z" transform="translate(-922 -1399) translate(0 703) translate(832 280) translate(40 398) translate(50.036 18.036)"/>
                            <path fill="#00B8D9" d="M12.288 12.847v5.585c0 .308.25.559.559.559.308 0 .558-.25.558-.559v-5.585c0-.309-.25-.559-.558-.559-.309 0-.559.25-.559.559zM14.522 12.847v5.585c0 .308.25.559.559.559.308 0 .558-.25.558-.559v-5.585c0-.309-.25-.559-.558-.559-.309 0-.559.25-.559.559z" transform="translate(-922 -1399) translate(0 703) translate(832 280) translate(40 398) translate(50.036 18.036)"/>
                            <path fill="#1565D8" d="M16.756 18.99h-5.585v2.235h5.585V18.99zm0-1.117v-.194c0-.215.124-.411.32-.504 2.513-1.194 4.149-3.73 4.149-6.563 0-4.01-3.251-7.26-7.261-7.26s-7.261 3.25-7.261 7.26c0 2.833 1.635 5.369 4.149 6.563.195.093.319.289.319.504v.194h5.585zm0 4.469h-5.585v.558c0 .926.75 1.676 1.676 1.676h2.234c.925 0 1.675-.75 1.675-1.676v-.558zm-11.17-11.73c0-4.627 3.75-8.378 8.378-8.378 4.627 0 8.378 3.751 8.378 8.378 0 3.146-1.75 5.977-4.469 7.412V22.9c0 1.543-1.25 2.793-2.792 2.793h-2.234c-1.543 0-2.793-1.25-2.793-2.793v-4.876c-2.718-1.435-4.469-4.266-4.469-7.412z" transform="translate(-922 -1399) translate(0 703) translate(832 280) translate(40 398) translate(50.036 18.036)"/>
                        </g>
                    </g>
                </g>
            </g>
        </g>
    </g>
</svg>
