<svg xmlns="http://www.w3.org/2000/svg" width="50" height="50" viewBox="0 0 50 50">
    <g fill="none" fill-rule="evenodd">
        <g>
            <g>
                <g>
                    <path d="M0 0L50 0 50 50 0 50z" transform="translate(-180 -1924) translate(0 1533) translate(180 391)"/>
                    <path fill="#183B56" d="M25 4c11.598 0 21 9.402 21 21s-9.402 21-21 21S4 36.598 4 25 13.402 4 25 4zm0 2C14.507 6 6 14.507 6 25s8.507 19 19 19 19-8.507 19-19S35.493 6 25 6zm0 4c8.284 0 15 6.716 15 15 0 8.284-6.716 15-15 15-8.284 0-15-6.716-15-15 0-8.284 6.716-15 15-15zm0 2c-7.18 0-13 5.82-13 13s5.82 13 13 13 13-5.82 13-13-5.82-13-13-13zm0 4c.552 0 1 .448 1 1v1h2.906c.552 0 1 .448 1 1v.757c0 .552-.448 1-1 1-.468 0-.862-.322-.97-.757h-4.908c-.552 0-1 .448-1 1v1.002c0 .552.448 1 1 1H27c1.657 0 3 1.343 3 3V27c0 1.657-1.343 3-3 3h-1v.982c0 .553-.448 1-1 1s-1-.447-1-1V30h-3c-.564 0-1.017-.466-1-1.03l.028-.917c.017-.552.478-.986 1.03-.97.514.016.925.417.967.917H27c.552 0 1-.448 1-1v-.998c0-.553-.448-1-1-1h-3.972c-1.657 0-3-1.344-3-3V21c0-1.657 1.343-3 3-3H24v-1c0-.552.448-1 1-1z" transform="translate(-180 -1924) translate(0 1533) translate(180 391)"/>
                </g>
            </g>
        </g>
    </g>
</svg>
