<svg xmlns="http://www.w3.org/2000/svg" width="29" height="29" viewBox="0 0 29 29">
    <g fill="none" fill-rule="evenodd">
        <g>
            <g>
                <g>
                    <g>
                        <g>
                            <path d="M0 0L27.927 0 27.927 27.927 0 27.927z" transform="translate(-922 -1211) translate(0 703) translate(832 280) translate(40 210) translate(50.036 18.036)"/>
                            <path fill="#1565D8" d="M13.405 6.526c-3.319-1.235-6.662-1.234-10.054.003v16.696c3.36-1.11 6.718-1.11 10.054-.002V6.526zm1.117 0v16.697c3.359-1.12 6.716-1.122 10.054-.002V6.525c-3.332-1.253-6.675-1.253-10.054.002zm10.821-.901c.212.085.35.29.35.518v17.873c0 .393-.394.663-.76.521-3.58-1.384-7.16-1.384-10.77 0-.128.05-.27.05-.4 0-3.578-1.37-7.16-1.37-10.772.001-.365.14-.757-.13-.757-.522V6.143c0-.23.141-.437.356-.52 3.826-1.492 7.626-1.519 11.374-.08 3.814-1.46 7.616-1.433 11.38.082z" transform="translate(-922 -1211) translate(0 703) translate(832 280) translate(40 210) translate(50.036 18.036)"/>
                            <path fill="#00B8D9" d="M21.783 18.99c.309 0 .559.25.559.56 0 .308-.25.558-.559.558h-4.468c-.309 0-.559-.25-.559-.559 0-.308.25-.558.559-.558h4.468zm-11.17 0c.308 0 .558.25.558.56 0 .308-.25.558-.559.558H6.144c-.308 0-.559-.25-.559-.559 0-.308.25-.558.559-.558h4.468zm0-3.35c.308 0 .558.25.558.558 0 .308-.25.558-.559.558H6.144c-.308 0-.559-.25-.559-.558 0-.309.25-.559.559-.559h4.468zm11.17 0c.309 0 .559.25.559.558 0 .308-.25.558-.559.558h-4.468c-.309 0-.559-.25-.559-.558 0-.309.25-.559.559-.559zm0-3.352c.309 0 .559.25.559.559 0 .308-.25.558-.559.558h-4.468c-.309 0-.559-.25-.559-.558 0-.309.25-.559.559-.559h4.468zm-11.17 0c.308 0 .558.25.558.559 0 .308-.25.558-.559.558H6.144c-.308 0-.559-.25-.559-.558 0-.309.25-.559.559-.559h4.468zm11.17-3.351c.309 0 .559.25.559.558 0 .309-.25.559-.559.559h-4.468c-.309 0-.559-.25-.559-.559 0-.308.25-.558.559-.558h4.468zm-11.17 0c.308 0 .558.25.558.558 0 .309-.25.559-.559.559H6.144c-.308 0-.559-.25-.559-.559 0-.308.25-.558.559-.558h4.468z" transform="translate(-922 -1211) translate(0 703) translate(832 280) translate(40 210) translate(50.036 18.036)"/>
                        </g>
                    </g>
                </g>
            </g>
        </g>
    </g>
</svg>
