<svg xmlns="http://www.w3.org/2000/svg" width="817" height="463" viewBox="0 0 817 463">
    <defs>
        <linearGradient id="2ql62ehxfa" x1="50%" x2="50%" y1="0%" y2="100%">
            <stop offset="0%" stop-color="#254A72"/>
            <stop offset="100%" stop-color="#10243E"/>
        </linearGradient>
    </defs>
    <g fill="none" fill-rule="evenodd">
        <g>
            <path fill="#B3BAC5" d="M0 0H817V407H0z" opacity=".1" transform="translate(0 56)"/>
            <g>
                <path fill="#FFF" d="M0 0H360V211H0z" transform="translate(0 56) translate(36 148)"/>
                <g>
                    <path fill="#5A7184" d="M0 0H360V44H0z" opacity=".1" transform="translate(0 56) translate(36 148) translate(0 167)"/>
                    <text fill="#183B56" font-family="HKGrotesk-SemiBold, HK Grotesk" font-size="16" font-weight="500" letter-spacing=".2" transform="translate(0 56) translate(36 148) translate(0 167)">
                        <tspan x="20" y="26">Ehya Black Logo</tspan>
                    </text>
                    <text fill="#36B37E" font-family="FontAwesome5Free-Solid, Font Awesome 5 Free" font-size="14" font-weight="700" transform="translate(0 56) translate(36 148) translate(0 167)">
                        <tspan x="326" y="27">download</tspan>
                    </text>
                </g>
                <g transform="translate(0 56) translate(36 148) translate(117 69.898)">
                    <path fill="url(#2ql62ehxfa)" fill-rule="nonzero" d="M58.823 7.376l4.283.018c.422 0 .825.142 1.21.426.384.285.635.638.75 1.061l2.855 9.275c.711 2.275 1.434 3.85 2.167 4.725.733.875 1.601 1.313 2.603 1.313L77.026 8.88c.116-.423.345-.776.686-1.06.341-.285.723-.427 1.144-.427h4.596c.363 0 .632.116.806.35.174.233.261.426.261.58 0 .153-.014.28-.043.382l-5.707 20.431c-1.017 3.617-2.277 6.198-3.78 7.744-1.503 1.546-3.438 2.319-5.805 2.319l-.91-.005c-1.891-.02-3.262-.106-4.111-.258-.98-.175-1.594-.39-1.84-.645-.248-.255-.371-.55-.371-.886V35c0-.394.123-.718.37-.973.247-.256.567-.383.959-.383h.806l2.853.372c1.734 0 3.025-1.082 3.873-3.245.074-.188-3.082.06-5.746-3.277-2.665-3.338-2.83-4.42-4.022-8.24L57.8 8.688c-.044-.117-.066-.251-.066-.405 0-.153.091-.339.273-.557.181-.22.453-.336.816-.35zm38.919-.42c3.456 0 6.23.777 8.321 2.33 2.091 1.553 3.137 3.956 3.137 7.208v13.54c0 .394-.123.715-.37.963s-.567.372-.959.372h-4.204c-.392 0-.712-.128-.958-.383-.247-.255-.37-.572-.37-.952v-.678c-2.295 1.648-4.942 2.468-7.94 2.461-3-.007-5.465-.682-7.396-2.023-1.917-1.342-2.876-3.238-2.876-5.688 0-2.45.962-4.331 2.887-5.644 1.924-1.312 4.403-1.968 7.439-1.968h7.21c0-1.707-.356-2.895-1.067-3.566-.712-.67-1.957-1.006-3.736-1.006-1.66 0-2.86.384-3.596 1.153l-.151.17c-.719.883-2.982.583-5.002.193-2.02-.389-2.15-1.42-1.97-1.956 1.014-3.017 4.88-4.526 11.6-4.526zm-84.999 0c3.994 0 7.109 1.047 9.345 3.14 2.237 2.092 3.355 5.093 3.355 9v1.248c0 .394-.127.718-.381.973s-.577.383-.97.383H7.69c.145 1.794.657 3.099 1.535 3.916.879.816 2.284 1.225 4.215 1.225 1.932 0 3.253-.438 3.965-1.313.712-.875 2.075-.741 4.178-.446 2.103.295 2.577 1.407 2.51 1.759-.668 3.445-4.163 4.979-11.372 4.965-4.008 0-7.13-1.064-9.366-3.194C1.118 26.483 0 23.417 0 19.414s1.125-7.08 3.376-9.231 5.374-3.227 9.367-3.227zM35.66 0c.378 0 .694.128.948.383s.381.58.381.973v8.772c2.498-2.114 5.16-3.172 7.984-3.172s5.122.864 6.894 2.592c1.772 1.729 2.658 4.372 2.658 7.93v12.556c0 .38-.127.697-.381.952-.255.255-.578.383-.97.383h-4.858c-.377 0-.693-.128-.947-.383s-.381-.572-.381-.952V17.478c0-3.485-1.387-4.55-4.16-4.55-1.816 0-3.762 1.865-5.839 3.95v13.156c0 .38-.127.697-.381.952s-.57.383-.948.383h-4.88c-.377 0-.693-.128-.947-.383s-.38-.572-.38-.952V1.356c0-.394.126-.718.38-.973S30.402 0 30.78 0h4.88zm66.004 21.46h-6.688c-1.016 0-1.818.247-2.407.743-.588.496-.882 1.138-.882 1.925 0 .788.305 1.437.915 1.947.61.51 1.474.766 2.592.766 2.105 0 4.14-.582 6.103-1.744l.367-.225v-3.413zm-88.93-9.538c-3.217 0-4.913 1.72-5.087 5.162h10.13c-.146-3.441-1.827-5.162-5.044-5.162z"/>
                    <circle cx="120.4" cy="14" r="5.6" fill="#1576D8"/>
                </g>
            </g>
            <g>
                <path fill="#183B56" d="M0 0H360V211H0z" transform="translate(0 56) translate(421 148)"/>
                <g>
                    <path fill="#FFF" d="M0 0H360V44H0z" opacity=".1" transform="translate(0 56) translate(421 148) translate(0 167)"/>
                    <text fill="#FFF" font-family="HKGrotesk-SemiBold, HK Grotesk" font-size="16" font-weight="500" letter-spacing=".2" transform="translate(0 56) translate(421 148) translate(0 167)">
                        <tspan x="20" y="26">Ehya Black Logo</tspan>
                    </text>
                    <text fill="#36B37E" font-family="FontAwesome5Free-Solid, Font Awesome 5 Free" font-size="14" font-weight="700" transform="translate(0 56) translate(421 148) translate(0 167)">
                        <tspan x="326" y="27">download</tspan>
                    </text>
                </g>
                <path fill="#FFF" fill-rule="nonzero" d="M175.823 77.338l4.283.018c.422 0 .825.141 1.21.424.384.283.635.635.75 1.056l2.855 9.228c.711 2.263 1.434 3.83 2.167 4.7.733.871 1.601 1.306 2.603 1.306l4.335-15.234c.116-.42.345-.773.686-1.056.341-.283.723-.424 1.144-.424h4.596c.363 0 .632.116.806.348.174.232.261.425.261.577 0 .152-.014.28-.043.38l-5.707 20.328c-1.017 3.598-2.277 6.166-3.78 7.704-1.503 1.538-3.438 2.307-5.805 2.307l-.91-.005c-1.891-.02-3.262-.105-4.111-.256-.98-.174-1.594-.388-1.84-.642-.248-.254-.371-.548-.371-.882v-2.394c0-.391.123-.714.37-.968s.567-.38.959-.38h.806l2.853.37c1.734 0 3.025-1.077 3.873-3.229.074-.187-3.082.06-5.746-3.26-2.665-3.322-2.83-4.397-4.022-8.198L174.8 78.644c-.044-.116-.066-.25-.066-.403 0-.152.091-.337.273-.555.181-.217.453-.333.816-.348zm38.919-.417c3.456 0 6.23.772 8.321 2.318 2.091 1.545 3.137 3.935 3.137 7.17v13.472c0 .392-.123.711-.37.958-.247.246-.567.37-.959.37h-4.204c-.392 0-.712-.127-.958-.381-.247-.254-.37-.57-.37-.947v-.675c-2.295 1.64-4.942 2.456-7.94 2.449-3-.007-5.465-.678-7.396-2.013-1.917-1.335-2.876-3.221-2.876-5.659 0-2.437.962-4.309 2.887-5.615 1.924-1.306 4.403-1.958 7.439-1.958h7.21c0-1.698-.356-2.88-1.067-3.548-.712-.667-1.957-1.001-3.736-1.001-1.66 0-2.86.382-3.596 1.147l-.151.17c-.719.878-2.982.58-5.002.192-2.02-.387-2.15-1.413-1.97-1.946 1.014-3.002 4.88-4.503 11.601-4.503zm-84.999 0c3.994 0 7.109 1.04 9.345 3.123 2.237 2.082 3.355 5.067 3.355 8.955v1.241c0 .392-.127.715-.381.968-.254.254-.577.381-.97.381H124.69c.145 1.785.657 3.083 1.535 3.896.879.812 2.284 1.219 4.215 1.219 1.932 0 3.253-.436 3.965-1.306.712-.87 2.075-.737 4.178-.444 2.103.293 2.577 1.4 2.51 1.75-.668 3.427-4.163 4.953-11.372 4.94-4.008 0-7.13-1.06-9.366-3.177-2.237-2.119-3.355-5.17-3.355-9.152 0-3.983 1.125-7.044 3.376-9.184 2.251-2.14 5.374-3.21 9.367-3.21zM152.66 70c.378 0 .694.127.948.38.254.255.381.578.381.97v8.726c2.498-2.103 5.16-3.155 7.984-3.155s5.122.86 6.894 2.579c1.772 1.719 2.658 4.349 2.658 7.889v12.492c0 .377-.127.693-.381.947-.255.254-.578.38-.97.38h-4.858c-.377 0-.693-.126-.947-.38s-.381-.57-.381-.947V87.39c0-3.468-1.387-4.527-4.16-4.527-1.816 0-3.762 1.856-5.839 3.93v13.09c0 .376-.127.692-.381.946s-.57.38-.948.38h-4.88c-.377 0-.693-.126-.947-.38s-.38-.57-.38-.947V71.35c0-.391.126-.714.38-.968s.57-.381.948-.381h4.88zm66.004 21.35h-6.688c-1.016 0-1.818.247-2.407.74-.588.493-.882 1.132-.882 1.915 0 .784.305 1.43.915 1.937.61.508 1.474.762 2.592.762 2.105 0 4.14-.579 6.103-1.735l.367-.224V91.35zM237.4 78.357c3.093 0 5.6 2.495 5.6 5.572s-2.507 5.571-5.6 5.571c-3.093 0-5.6-2.494-5.6-5.571 0-3.077 2.507-5.572 5.6-5.572zm-107.668 3.504c-3.216 0-4.912 1.712-5.086 5.136h10.13c-.146-3.424-1.827-5.136-5.044-5.136z" transform="translate(0 56) translate(421 148)"/>
            </g>
            <g fill="#183B56">
                <text font-family="HKGrotesk-Bold, HK Grotesk" font-size="28" font-weight="bold" letter-spacing=".2" transform="translate(0 56) translate(36 36)">
                    <tspan x="0" y="25">Logo’s</tspan>
                </text>
                <text font-family="OpenSans-Regular, Open Sans" font-size="16" transform="translate(0 56) translate(36 36)">
                    <tspan x="0" y="69">It&apos;s good practice to become familiar with the guidelines before using the logos.</tspan>
                </text>
            </g>
        </g>
        <path stroke="#E3E7ED" d="M0 0.5L817 0.5"/>
    </g>
</svg>
