<svg xmlns="http://www.w3.org/2000/svg" width="22" height="22" viewBox="0 0 22 22">
    <g fill="none" fill-rule="evenodd">
        <path d="M0 0L30 0 30 30 0 30z" transform="translate(-4 -4)"/>
        <path d="M0 0L30 0 30 30 0 30z" transform="translate(-4 -4)"/>
        <path fill="#44D5E9" fill-rule="nonzero" d="M10.57 23.1l.866.863c.352.351.352.92.001 1.273-.351.352-.92.352-1.273.001l-2.4-2.395c-.352-.35-.352-.92-.001-1.272l2.4-2.406c.351-.352.92-.352 1.273-.001.352.351.352.92.001 1.273l-.862.864H21c1.491 0 2.7-1.209 2.7-2.7v-8.4c0-.497.403-.9.9-.9s.9.403.9.9v8.4c0 2.485-2.015 4.5-4.5 4.5H10.57z" transform="translate(-4 -4)"/>
        <path fill="#3B5AFB" fill-rule="nonzero" d="M9 8.7c-1.491 0-2.7 1.209-2.7 2.7v8.4c0 .497-.403.9-.9.9s-.9-.403-.9-.9v-8.4c0-2.485 2.015-4.5 4.5-4.5h10.429l-.867-.87c-.35-.352-.35-.922.003-1.272.352-.351.922-.35 1.273.002l2.4 2.41c.35.352.35.922-.003 1.272l-2.4 2.391c-.352.35-.922.35-1.273-.003-.35-.352-.35-.922.003-1.272l.86-.858H9z" transform="translate(-4 -4)"/>
    </g>
</svg>
