<svg xmlns="http://www.w3.org/2000/svg" width="21" height="22" viewBox="0 0 21 22">
    <g fill="none" fill-rule="evenodd">
        <path d="M0 0L30 0 30 30 0 30z" transform="translate(-6 -4)"/>
        <path d="M0 0L30 0 30 30 0 30z" transform="translate(-6 -4)"/>
        <path fill="#3B5AFB" fill-rule="nonzero" d="M22.206 4.8c2.32 0 4.2 1.88 4.2 4.2v9h-4.68c-1.336 0-2.43 1.04-2.514 2.354l-.006.166v4.68h-9c-2.32 0-4.2-1.88-4.2-4.2V9c0-2.32 1.88-4.2 4.2-4.2h12zm4.2 14.4V21c0 2.32-1.88 4.2-4.2 4.2h-1.8v-4.68c0-.683.52-1.246 1.185-1.313l.135-.007h4.68zM10.63 8.576c-.234-.235-.614-.235-.848 0-.234.234-.234.614 0 .848L15.358 15h-2.152c-.331 0-.6.269-.6.6 0 .331.269.6.6.6h3.6c.332 0 .6-.269.6-.6V12c0-.331-.268-.6-.6-.6-.331 0-.6.269-.6.6v2.151z" transform="translate(-6 -4)"/>
    </g>
</svg>
