<svg xmlns="http://www.w3.org/2000/svg" width="22" height="22" viewBox="0 0 22 22">
    <g fill="none" fill-rule="evenodd">
        <path d="M0 0L30 0 30 30 0 30z" transform="translate(-4 -4)"/>
        <path d="M0 0L30 0 30 30 0 30z" transform="translate(-4 -4)"/>
        <path fill="#3B5AFB" fill-rule="nonzero" d="M16.516 4.8c.284 0 .528.199.587.476l.408 1.938c.42.135.827.304 1.219.505l1.659-1.082c.237-.155.551-.122.752.079l2.143 2.143c.2.201.234.515.079.752l-1.082 1.66c.2.39.37.798.505 1.218l1.938.408c.277.059.476.303.476.587v3.032c0 .284-.199.528-.476.587l-1.938.408c-.135.42-.304.827-.505 1.219l1.082 1.659c.155.237.122.551-.079.752l-2.143 2.143c-.201.2-.515.234-.752.079l-1.66-1.082c-.39.2-.798.37-1.218.505l-.408 1.938c-.059.277-.303.476-.587.476h-3.032c-.284 0-.528-.199-.587-.476l-.408-1.938c-.42-.135-.827-.304-1.219-.505l-1.659 1.082c-.237.155-.551.122-.752-.079l-2.143-2.143c-.2-.201-.234-.515-.079-.752l1.082-1.66c-.2-.39-.37-.798-.505-1.218l-1.938-.408C5 17.044 4.8 16.8 4.8 16.516v-3.032c0-.284.199-.528.476-.587l1.938-.408c.135-.42.304-.827.505-1.219L6.637 9.611c-.155-.237-.122-.551.079-.752l2.143-2.143c.201-.2.515-.234.752-.079l1.66 1.082c.39-.2.798-.37 1.218-.505l.408-1.938c.059-.277.303-.476.587-.476h3.032zM15 10.8c-2.32 0-4.2 1.88-4.2 4.2 0 2.32 1.88 4.2 4.2 4.2 2.32 0 4.2-1.88 4.2-4.2 0-2.32-1.88-4.2-4.2-4.2z" transform="translate(-4 -4)"/>
        <path fill="#44D5E9" fill-rule="nonzero" d="M15 18c1.657 0 3-1.343 3-3s-1.343-3-3-3-3 1.343-3 3 1.343 3 3 3z" transform="translate(-4 -4)"/>
    </g>
</svg>
