<svg xmlns="http://www.w3.org/2000/svg" width="22" height="22" viewBox="0 0 22 22">
    <g fill="none" fill-rule="evenodd">
        <path d="M0 0L30 0 30 30 0 30z" transform="translate(-5 -4)"/>
        <path d="M0 0L30 0 30 30 0 30z" transform="translate(-5 -4)"/>
        <path fill="#3B5AFB" fill-rule="nonzero" d="M14.993 10.8h2.4c1.657 0 3 1.343 3 3v2.4c0 1.657-1.343 3-3 3h-2.4c-1.656 0-3-1.343-3-3v-2.4c0-1.657 1.344-3 3-3z" transform="translate(-5 -4)"/>
        <path fill="#44D5E9" fill-rule="nonzero" d="M25.793 9.3c.498 0 .9.403.9.9s-.402.9-.9.9h-2.4c-1.822 0-3.3-1.477-3.3-3.3V5.4c0-.497.403-.9.9-.9.498 0 .9.403.9.9v2.4c0 .828.672 1.5 1.5 1.5h2.4zM21.893 24.6c0 .497-.402.9-.9.9-.497 0-.9-.403-.9-.9v-2.4c0-1.823 1.478-3.3 3.3-3.3h2.4c.498 0 .9.403.9.9s-.402.9-.9.9h-2.4c-.828 0-1.5.672-1.5 1.5v2.4zM6.593 20.7c-.497 0-.9-.403-.9-.9s.403-.9.9-.9h2.4c1.823 0 3.3 1.477 3.3 3.3v2.4c0 .497-.402.9-.9.9-.497 0-.9-.403-.9-.9v-2.4c0-.828-.671-1.5-1.5-1.5h-2.4zM10.493 5.4c0-.497.403-.9.9-.9.498 0 .9.403.9.9v2.4c0 1.823-1.477 3.3-3.3 3.3h-2.4c-.497 0-.9-.403-.9-.9s.403-.9.9-.9h2.4c.829 0 1.5-.672 1.5-1.5V5.4z" transform="translate(-5 -4)"/>
    </g>
</svg>
