<svg xmlns="http://www.w3.org/2000/svg" width="22" height="22" viewBox="0 0 22 22">
    <g fill="none" fill-rule="evenodd">
        <path d="M0 0L30 0 30 30 0 30z" transform="translate(-5 -4)"/>
        <path d="M0 0L30 0 30 30 0 30z" transform="translate(-5 -4)"/>
        <path fill="#3B5AFB" fill-rule="nonzero" d="M26.1 13.886c0 3.102-2.554 5.614-5.7 5.614h-.96c-.497 0-.9-.403-.9-.9s.403-.9.9-.9h.96c2.156 0 3.9-1.71 3.9-3.814 0-2.105-1.744-3.815-3.9-3.815h-.096c-.427 0-.795-.3-.881-.717C19.057 7.584 17.459 6.3 15.6 6.3s-3.457 1.284-3.823 3.054c-.086.418-.454.717-.881.717H10.8c-2.156 0-3.9 1.71-3.9 3.815 0 2.104 1.744 3.814 3.9 3.814h.96c.497 0 .9.403.9.9s-.403.9-.9.9h-.96c-3.146 0-5.7-2.512-5.7-5.614 0-2.89 2.224-5.29 5.104-5.584C10.983 6.045 13.147 4.5 15.6 4.5s4.617 1.545 5.396 3.802c2.88.295 5.104 2.693 5.104 5.584z" transform="translate(-5 -4)"/>
        <path fill="#44D5E9" fill-rule="nonzero" d="M14.7 13.8c0-.497.403-.9.9-.9s.9.403.9.9v8.627l.864-.863c.351-.352.92-.352 1.272 0 .352.351.352.92 0 1.272l-2.4 2.4c-.351.352-.92.352-1.272 0l-2.4-2.4c-.352-.351-.352-.92 0-1.272.351-.352.92-.352 1.272 0l.864.863V13.8z" transform="translate(-5 -4)"/>
    </g>
</svg>
