<svg xmlns="http://www.w3.org/2000/svg" width="23" height="19" viewBox="0 0 23 19">
    <g fill="none" fill-rule="evenodd">
        <path d="M0 0L30 0 30 30 0 30z" transform="translate(-4 -4)"/>
        <path d="M0 0L30 0 30 30 0 30z" transform="translate(-4 -4)"/>
        <path fill="#3B5AFB" fill-rule="nonzero" d="M16.26 5.402c0-.526.628-.798 1.01-.438l8.94 8.408c.252.237.252.637 0 .874l-8.924 8.392c-.383.36-1.01.09-1.01-.436l-.006-5.22c-5.04.447-8.355 2.253-10.358 5.532-.326.534-1.149.275-1.11-.35.433-7.075 4.2-11.1 11.462-12.129l-.004-4.633z" transform="translate(-4 -4)"/>
    </g>
</svg>
