<svg xmlns="http://www.w3.org/2000/svg" width="20" height="22" viewBox="0 0 20 22">
    <g fill="none" fill-rule="evenodd">
        <path d="M0 0L30 0 30 30 0 30z" transform="translate(-6 -4)"/>
        <path d="M0 0L30 0 30 30 0 30z" transform="translate(-6 -4)"/>
        <path fill="#3B5AFB" fill-rule="nonzero" d="M7.265 16.44c-1.822-3.156-.74-7.193 2.416-9.015 3.157-1.823 7.193-.741 9.016 2.416l2.31 4 3.715 1.836c.43.213.449.818.034 1.058l-14.55 8.4c-.414.24-.929-.08-.898-.558l.267-4.137-2.31-4z" transform="translate(-6 -4)"/>
        <path fill="#44D5E9" fill-rule="nonzero" d="M21.105 20.4c.093 1.17-.536 2.388-1.698 3.06-1.162.67-2.531.605-3.498-.06l5.196-3zM7.201 8.195c-.035-1.127.59-2.277 1.706-2.922 1.117-.645 2.424-.61 3.383-.017-.947.19-1.888.54-2.782 1.055-.895.517-1.668 1.158-2.307 1.884z" transform="translate(-6 -4)"/>
    </g>
</svg>
