<svg xmlns="http://www.w3.org/2000/svg" width="22" height="22" viewBox="0 0 22 22">
    <g fill="none" fill-rule="evenodd">
        <path d="M0 0L30 0 30 30 0 30z" transform="translate(-4 -4)"/>
        <path fill="#3B5AFB" fill-rule="nonzero" d="M23.76 17.4c0-.497.403-.9.9-.9s.9.403.9.9V21c0 2.475-1.821 4.5-4.1 4.5H8.66c-2.278 0-4.1-2.025-4.1-4.5v-3.6c0-.497.403-.9.9-.9s.9.403.9.9V21c0 1.503 1.046 2.7 2.3 2.7h12.8c1.254 0 2.3-1.197 2.3-2.7v-3.6z" transform="translate(-4 -4)"/>
        <path fill="#44D5E9" fill-rule="nonzero" d="M15.96 7.57v11.019c0 .497-.403.9-.9.9s-.9-.403-.9-.9V7.569l-2.064 2.06c-.352.35-.922.35-1.273-.002-.351-.352-.35-.922.002-1.273l3.6-3.591c.167-.167.394-.263.635-.263.242 0 .468.096.636.263l3.6 3.591c.352.351.352.921.001 1.273-.35.352-.92.353-1.272.002l-2.065-2.06z" transform="translate(-4 -4)"/>
    </g>
</svg>
