<svg xmlns="http://www.w3.org/2000/svg" width="21" height="21" viewBox="0 0 21 21">
    <g fill="none" fill-rule="evenodd">
        <path d="M0 0L30 0 30 30 0 30z" transform="translate(-5 -4)"/>
        <path fill="#3B5AFB" fill-rule="nonzero" d="M22.65 10.361c0-.497.403-.9.9-.9s.9.403.9.9v9.983c0 2.188-1.816 3.956-4.05 3.956H9.9c-2.234 0-4.05-1.768-4.05-3.956V9.656C5.85 7.468 7.666 5.7 9.9 5.7h9.773c.497 0 .9.403.9.9s-.403.9-.9.9H9.9c-1.246 0-2.25.97-2.25 2.156v10.688c0 1.187 1.004 2.156 2.25 2.156h10.5c1.246 0 2.25-.97 2.25-2.156v-9.983z" transform="translate(-5 -4)"/>
        <path fill="#44D5E9" fill-rule="nonzero" d="M24.114 4.764c.351-.352.92-.352 1.272 0 .352.351.352.92 0 1.272l-8.4 8.4c-.351.352-.92.352-1.272 0-.352-.351-.352-.92 0-1.272l8.4-8.4z" transform="translate(-5 -4)"/>
    </g>
</svg>
