<svg xmlns="http://www.w3.org/2000/svg" width="20" height="20" viewBox="0 0 20 20">
    <g fill="none" fill-rule="evenodd">
        <path d="M0 0L30 0 30 30 0 30z" transform="translate(-4 -6)"/>
        <path d="M0 0L30 0 30 30 0 30z" transform="translate(-4 -6)"/>
        <path fill="#3B5AFB" fill-rule="nonzero" d="M19.11 9.917c-2.87-2.87-7.524-2.87-10.394 0s-2.87 7.523 0 10.394c2.87 2.87 7.524 2.87 10.394 0s2.87-7.524 0-10.394zm1.841 10.987l2.775 2.774c.831.832-.416 2.08-1.247 1.248l-2.775-2.774c-3.58 2.952-8.886 2.755-12.235-.594-3.559-3.56-3.559-9.33 0-12.889 3.56-3.559 9.33-3.559 12.888 0 3.349 3.349 3.547 8.655.594 12.235z" transform="translate(-4 -6)"/>
        <path fill="#44D5E9" fill-rule="nonzero" d="M11.104 13.713c-.423-.424-.388-1.02 0-1.409.388-.388.985-.423 1.409 0l1.287 1.288 1.287-1.288c.424-.423 1.02-.388 1.409 0 .388.388.423.985 0 1.409L15.208 15l1.288 1.287c.423.424.388 1.02 0 1.409-.388.388-.985.423-1.409 0L13.8 16.408l-1.287 1.288c-.424.423-1.02.388-1.409 0-.388-.388-.423-.985 0-1.409L12.392 15l-1.288-1.287z" transform="translate(-4 -6)"/>
    </g>
</svg>
