<svg xmlns="http://www.w3.org/2000/svg" width="24" height="22" viewBox="0 0 24 22">
    <g fill="none" fill-rule="evenodd">
        <path d="M0 0L30 0 30 30 0 30z" transform="translate(-3 -4)"/>
        <path d="M0 0L30 0 30 30 0 30z" transform="translate(-3 -4)"/>
        <path fill="#44D5E9" fill-rule="nonzero" d="M6.713 5.7c-.074.288-.113.59-.113.9 0 .31.04.612.113.9H4.2c-.497 0-.9-.403-.9-.9s.403-.9.9-.9h2.513zm4.8 16.8c-.074.288-.113.59-.113.9 0 .31.04.612.113.9H4.2c-.497 0-.9-.403-.9-.9s.403-.9.9-.9h7.313zm14.287 0c.497 0 .9.403.9.9s-.403.9-.9.9h-7.313c.074-.288.113-.59.113-.9 0-.31-.04-.612-.113-.9H25.8zm-9.487-8.4c-.074.288-.113.59-.113.9 0 .31.04.612.113.9H4.2c-.497 0-.9-.403-.9-.9s.403-.9.9-.9h12.113zm9.487 0c.497 0 .9.403.9.9s-.403.9-.9.9h-2.513c.074-.288.113-.59.113-.9 0-.31-.04-.612-.113-.9H25.8zm0-8.4c.497 0 .9.403.9.9s-.403.9-.9.9H13.687c.074-.288.113-.59.113-.9 0-.31-.04-.612-.113-.9H25.8z" transform="translate(-3 -4)"/>
        <path fill="#3B5AFB" fill-rule="nonzero" d="M15 21c1.325 0 2.4 1.075 2.4 2.4s-1.075 2.4-2.4 2.4-2.4-1.075-2.4-2.4S13.675 21 15 21zm4.8-8.4c1.325 0 2.4 1.075 2.4 2.4s-1.075 2.4-2.4 2.4-2.4-1.075-2.4-2.4 1.075-2.4 2.4-2.4zm-9.6-8.4c1.325 0 2.4 1.075 2.4 2.4S11.525 9 10.2 9 7.8 7.925 7.8 6.6s1.075-2.4 2.4-2.4z" transform="translate(-3 -4)"/>
    </g>
</svg>
