<svg xmlns="http://www.w3.org/2000/svg" width="20" height="22" viewBox="0 0 20 22">
    <g fill="none" fill-rule="evenodd">
        <path d="M0 0L30 0 30 30 0 30z" transform="translate(-5 -4)"/>
        <path d="M0 0L30 0 30 30 0 30z" transform="translate(-5 -4)"/>
        <path fill="#44D5E9" fill-rule="nonzero" d="M21.26 15.9H12.6c-.497 0-.9-.403-.9-.9s.403-.9.9-.9h9.093l-1.094-1.108c-.349-.354-.345-.924.009-1.273.354-.349.924-.345 1.273.009l2.4 2.432c.347.352.345.919-.005 1.269l-2.4 2.4c-.351.351-.92.351-1.272 0-.352-.352-.352-.922 0-1.273l.655-.656z" transform="translate(-5 -4)"/>
        <path fill="#3B5AFB" fill-rule="nonzero" d="M18.9 21.72V19.8c0-1.2 1.8-1.2 1.8 0v1.92c0 2.104-1.891 3.78-4.2 3.78H9.9c-2.309 0-4.2-1.676-4.2-3.78V8.28c0-2.104 1.891-3.78 4.2-3.78h6.6c2.309 0 4.2 1.676 4.2 3.78v1.92c0 .497-.403.9-.9.9s-.9-.403-.9-.9V8.28c0-1.074-1.062-1.98-2.4-1.98H9.9c-1.338 0-2.4.906-2.4 1.98v13.44c0 1.074 1.062 1.98 2.4 1.98h6.6c1.338 0 2.4-.906 2.4-1.98z" transform="translate(-5 -4)"/>
    </g>
</svg>
