<svg xmlns="http://www.w3.org/2000/svg" width="21" height="20" viewBox="0 0 21 20">
    <g fill="none" fill-rule="evenodd">
        <path d="M0 0L30 0 30 30 0 30z" transform="translate(-5 -4)"/>
        <path fill="#3B5AFB" fill-rule="nonzero" d="M23.989 10.97v9.28c0 2.071-1.68 3.75-3.75 3.75h-10.5c-2.071 0-3.75-1.679-3.75-3.75V9.75C5.989 7.679 7.668 6 9.739 6h9.038l-4.904 4.903c-.323.324-.511.758-.526 1.215l-.085 2.63c-.033 1.04.818 1.891 1.857 1.858l2.63-.085c.458-.015.892-.203 1.216-.526l5.024-5.024z" transform="translate(-5 -4)"/>
        <path fill="#44D5E9" fill-rule="nonzero" d="M24.82 5.049c-.938-.938-2.457-.938-3.395 0l-6.703 6.703c-.108.108-.17.252-.175.405l-.085 2.63c-.011.347.272.63.619.62l2.63-.086c.153-.004.297-.067.405-.175l6.703-6.703c.938-.938.938-2.457 0-3.394z" transform="translate(-5 -4)"/>
    </g>
</svg>
