<svg xmlns="http://www.w3.org/2000/svg" width="26" height="26" viewBox="0 0 26 26">
    <g fill="none" fill-rule="evenodd">
        <path d="M0 0L30 0 30 30 0 30z" transform="translate(-2 -2)"/>
        <path fill="#3B5AFB" fill-rule="nonzero" d="M24.635 12.557v11.337c0 2.047-1.659 3.706-3.706 3.706h-2.975c-.41 0-.741-.332-.741-.741v-3.673c0-.833-.665-1.505-1.482-1.505h-1.472c-.817 0-1.483.672-1.483 1.505v3.673c0 .41-.331.741-.74.741H9.07c-2.047 0-3.706-1.66-3.706-3.706V12.557l-1.736 1.518c-.308.27-.776.239-1.046-.07-.27-.307-.238-.776.07-1.045L14.512 2.583c.28-.244.697-.244.976 0L27.347 12.96c.308.27.34.738.07 1.046-.27.308-.738.339-1.046.07l-1.736-1.52z" transform="translate(-2 -2)"/>
    </g>
</svg>
