<svg xmlns="http://www.w3.org/2000/svg" width="18" height="22" viewBox="0 0 18 22">
    <g fill="none" fill-rule="evenodd">
        <path d="M0 0L30 0 30 30 0 30z" transform="translate(-6 -4)"/>
        <path fill="#3B5AFB" fill-rule="nonzero" d="M20.994 11.4l2.51 3.81c.546.83.317 1.946-.514 2.493-.294.194-.638.297-.99.297H7.8c-.331 0-.6-.269-.6-.6v-12c0-.331.269-.6.6-.6H22c.994 0 1.8.806 1.8 1.8 0 .352-.103.696-.297.99l-2.51 3.81z" transform="translate(-6 -4)"/>
        <path fill="#44D5E9" d="M8.7 24.6c0 .497-.403.9-.9.9s-.9-.403-.9-.9V5.4c0-.497.403-.9.9-.9s.9.403.9.9v19.2z" transform="translate(-6 -4)"/>
    </g>
</svg>
