<svg xmlns="http://www.w3.org/2000/svg" width="21" height="21" viewBox="0 0 21 21">
    <g fill="none" fill-rule="evenodd">
        <path d="M0 0L30 0 30 30 0 30z" transform="translate(-5 -5)"/>
        <path d="M0 0L30 0 30 30 0 30z" transform="translate(-5 -5)"/>
        <path fill="#44D5E9" fill-rule="nonzero" d="M14.1 14.1v-1.5c0-.497.403-.9.9-.9s.9.403.9.9v1.5h1.5c.497 0 .9.403.9.9s-.403.9-.9.9h-1.5v1.5c0 .497-.403.9-.9.9s-.9-.403-.9-.9v-1.5h-1.5c-.497 0-.9-.403-.9-.9s.403-.9.9-.9h1.5z" transform="translate(-5 -5)"/>
        <path fill="#3B5AFB" fill-rule="nonzero" d="M20.303 9.697c-2.929-2.93-7.677-2.93-10.606 0-2.93 2.929-2.93 7.677 0 10.606 2.929 2.93 7.677 2.93 10.606 0 2.93-2.929 2.93-7.677 0-10.606zm1.88 11.212l2.83 2.831c.85.848-.423 2.121-1.272 1.273l-2.832-2.831c-3.653 3.013-9.068 2.811-12.485-.606-3.632-3.632-3.632-9.52 0-13.152 3.632-3.632 9.52-3.632 13.152 0 3.417 3.417 3.62 8.832.606 12.485z" transform="translate(-5 -5)"/>
    </g>
</svg>
