<svg xmlns="http://www.w3.org/2000/svg" width="19" height="20" viewBox="0 0 19 20">
    <g fill="none" fill-rule="evenodd">
        <path d="M0 0L30 0 30 30 0 30z" transform="translate(-6 -5)"/>
        <path d="M0 0L30 0 30 30 0 30z" transform="translate(-6 -5)"/>
        <path fill="#3B5AFB" fill-rule="nonzero" d="M6.922 6.6c0-.497.403-.9.9-.9s.9.403.9.9v1.896c2.76-2.825 7.079-3.631 10.724-1.853 4.616 2.251 6.532 7.818 4.281 12.433-2.25 4.616-7.817 6.532-12.433 4.281-1.843-.899-3.319-2.361-4.232-4.181-.223-.445-.044-.986.4-1.208.445-.223.986-.044 1.209.4.736 1.468 1.924 2.646 3.412 3.371 3.722 1.816 8.211.27 10.026-3.452 1.816-3.722.27-8.21-3.452-10.026-3.264-1.592-7.16-.605-9.286 2.239h3.251c.497 0 .9.403.9.9s-.403.9-.9.9h-4.8c-.497 0-.9-.403-.9-.9V6.6z" transform="translate(-6 -5)"/>
    </g>
</svg>
