<svg xmlns="http://www.w3.org/2000/svg" width="21" height="20" viewBox="0 0 21 20">
    <g fill="none" fill-rule="evenodd">
        <path d="M0 0L30 0 30 30 0 30z" transform="translate(-3 -5)"/>
        <path d="M0 0L30 0 30 30 0 30z" transform="translate(-3 -5)"/>
        <path fill="#3B5AFB" fill-rule="nonzero" d="M20.382 20.31l3.054 3.054c.849.848-.424 2.12-1.272 1.272l-3.055-3.054c-3.67 3.027-9.083 2.796-12.485-.606-3.632-3.632-3.632-9.52 0-13.152 3.632-3.632 9.52-3.632 13.152 0 3.402 3.402 3.633 8.816.606 12.486zM18.503 9.097c-2.929-2.93-7.677-2.93-10.606 0-2.93 2.929-2.93 7.677 0 10.606 2.929 2.93 7.677 2.93 10.606 0 2.93-2.929 2.93-7.677 0-10.606z" transform="translate(-3 -5)"/>
    </g>
</svg>
