<svg xmlns="http://www.w3.org/2000/svg" width="23" height="23" viewBox="0 0 23 23">
    <g fill="none" fill-rule="evenodd">
        <path d="M0 0L30 0 30 30 0 30z" transform="translate(-4 -3)"/>
        <path d="M0 0L30 0 30 30 0 30z" transform="translate(-4 -3)"/>
        <path fill="#44D5E9" fill-rule="nonzero" d="M8.7 10.134V21c0 1.491 1.209 2.7 2.7 2.7h8.4c.497 0 .9.403.9.9s-.403.9-.9.9h-8.4c-2.485 0-4.5-2.015-4.5-4.5V10.164l-.846.848c-.35.352-.92.352-1.272.001-.352-.35-.353-.92-.002-1.272l2.395-2.4c.35-.352.92-.353 1.273-.002l2.405 2.4c.352.351.352.921.001 1.273-.35.352-.92.352-1.272.001l-.882-.88z" transform="translate(-4 -3)"/>
        <path fill="#3B5AFB" fill-rule="nonzero" d="M22.5 7.8c0-1.491-1.209-2.7-2.7-2.7h-8.4c-.497 0-.9-.403-.9-.9s.403-.9.9-.9h8.4c2.485 0 4.5 2.015 4.5 4.5v10.01l.86-.85c.353-.35.923-.347 1.272.006.35.354.347.924-.006 1.273l-2.4 2.374c-.351.347-.916.347-1.266 0l-2.4-2.374c-.354-.35-.357-.92-.007-1.273.35-.353.92-.356 1.273-.006l.874.865V7.8z" transform="translate(-4 -3)"/>
    </g>
</svg>
