<svg xmlns="http://www.w3.org/2000/svg" width="22" height="22" viewBox="0 0 22 22">
    <g fill="none" fill-rule="evenodd">
        <path d="M0 0L30 0 30 30 0 30z" transform="translate(-4 -4)"/>
        <path d="M0 0L30 0 30 30 0 30z" transform="translate(-4 -4)"/>
        <path fill="#3B5AFB" fill-rule="nonzero" d="M21.013 4.797c2.32 0 4.2 1.88 4.2 4.2v9h-4.68c-1.336 0-2.43 1.04-2.515 2.354l-.005.166v4.68h-9c-2.32 0-4.2-1.88-4.2-4.2v-12c0-2.32 1.88-4.2 4.2-4.2h12zm4.2 14.4v1.8c0 2.32-1.88 4.2-4.2 4.2h-1.8v-4.68c0-.684.52-1.246 1.185-1.313l.135-.007h4.68zM12.019 7.789l-3.608.01c-.33.002-.598.27-.598.6v3.59c0 .331.269.6.6.6.331 0 .6-.269.6-.6V9.845l5.576 5.576c.234.234.614.234.848 0 .235-.234.235-.614 0-.848L9.86 8.995l2.163-.006c.331-.001.599-.27.598-.602-.001-.332-.27-.6-.602-.598z" transform="translate(-4 -4)"/>
    </g>
</svg>
