<svg xmlns="http://www.w3.org/2000/svg" width="22" height="22" viewBox="0 0 22 22">
    <g fill="none" fill-rule="evenodd">
        <path d="M0 0L30 0 30 30 0 30z" transform="translate(-4 -4)"/>
        <path d="M0 0L30 0 30 30 0 30z" transform="translate(-4 -4)"/>
        <path fill="#3B5AFB" fill-rule="nonzero" d="M11.4 9.6h7.2c.994 0 1.8.806 1.8 1.8v7.2c0 .994-.806 1.8-1.8 1.8h-7.2c-.994 0-1.8-.806-1.8-1.8v-7.2c0-.994.806-1.8 1.8-1.8z" transform="translate(-4 -4)"/>
        <path fill="#44D5E9" fill-rule="nonzero" d="M21 6.3c-.497 0-.9-.403-.9-.9s.403-.9.9-.9h1.2c1.823 0 3.3 1.477 3.3 3.3V9c0 .497-.403.9-.9.9s-.9-.403-.9-.9V7.8c0-.828-.672-1.5-1.5-1.5H21zM23.7 21c0-.497.403-.9.9-.9s.9.403.9.9v1.2c0 1.823-1.477 3.3-3.3 3.3H21c-.497 0-.9-.403-.9-.9s.403-.9.9-.9h1.2c.828 0 1.5-.672 1.5-1.5V21zM8.989 23.7c.497 0 .9.403.9.9s-.403.9-.9.9H7.8c-1.823 0-3.3-1.477-3.3-3.3V21c0-.497.403-.9.9-.9s.9.403.9.9v1.2c0 .828.672 1.5 1.5 1.5h1.189zM6.3 8.936c0 .497-.403.9-.9.9s-.9-.403-.9-.9V7.8c0-1.823 1.477-3.3 3.3-3.3h1.17c.497 0 .9.403.9.9s-.403.9-.9.9H7.8c-.828 0-1.5.672-1.5 1.5v1.136z" transform="translate(-4 -4)"/>
    </g>
</svg>
