<svg xmlns="http://www.w3.org/2000/svg" width="21" height="22" viewBox="0 0 21 22">
    <g fill="none" fill-rule="evenodd">
        <path d="M0 0L30 0 30 30 0 30z" transform="translate(-3 -4)"/>
        <path fill="#3B5AFB" fill-rule="nonzero" d="M21.688 7.2l-1.086 15.214c-.113 1.57-1.419 2.786-2.993 2.786h-7.54c-1.575 0-2.882-1.218-2.993-2.788L6 7.2h15.688zm-4.286 5.35l-.6 7.2c-.027.33.218.62.548.648.33.027.62-.218.648-.548l.6-7.2c.027-.33-.218-.62-.548-.648-.33-.027-.62.218-.648.548zm-6.604 0c-.028-.33-.318-.575-.648-.548-.33.028-.575.318-.548.648l.6 7.2c.028.33.318.575.648.548.33-.028.575-.318.548-.648l-.6-7.2zm2.402.05v7.2c0 .331.269.6.6.6.331 0 .6-.269.6-.6v-7.2c0-.331-.269-.6-.6-.6-.331 0-.6.269-.6.6z" transform="translate(-3 -4)"/>
        <path fill="#44D5E9" fill-rule="nonzero" d="M9.83 7.2l1.034-2.068c.102-.204.31-.332.537-.332h4.8c.227 0 .435.128.536.332L17.772 7.2H23.4c.331 0 .6.269.6.6 0 .331-.269.6-.6.6H4.2c-.331 0-.6-.269-.6-.6 0-.331.269-.6.6-.6h5.63zm1.342 0h5.258l-.6-1.2h-4.058l-.6 1.2z" transform="translate(-3 -4)"/>
    </g>
</svg>
