<svg xmlns="http://www.w3.org/2000/svg" width="22" height="22" viewBox="0 0 22 22">
    <g fill="none" fill-rule="evenodd">
        <path d="M0 0L30 0 30 30 0 30z" transform="translate(-3 -4)"/>
        <path d="M0 0L30 0 30 30 0 30z" transform="translate(-3 -4)"/>
        <path fill="#3B5AFB" fill-rule="nonzero" d="M19.811 4.8c2.32 0 4.2 1.88 4.2 4.2v12c0 2.32-1.88 4.2-4.2 4.2h-12c-2.32 0-4.2-1.88-4.2-4.2V9c0-2.32 1.88-4.2 4.2-4.2h12zm-7.976 7.375c-.235-.234-.615-.233-.849.001-.234.235-.233.615.001.849l1.983 1.978-1.973 1.973c-.234.234-.234.614 0 .848.235.235.614.235.849 0l1.973-1.973 1.979 1.974c.234.234.614.233.848-.001.234-.235.234-.615 0-.849l-1.978-1.973 1.978-1.978c.234-.234.234-.614 0-.848-.235-.235-.614-.235-.849 0l-1.979 1.979z" transform="translate(-3 -4)"/>
    </g>
</svg>
