<svg xmlns="http://www.w3.org/2000/svg" width="26" height="26" viewBox="0 0 26 26">
    <g fill="none" fill-rule="evenodd">
        <path d="M0 0L30 0 30 30 0 30z" transform="translate(-2 -2)"/>
        <path d="M0 0L30 0 30 30 0 30z" transform="translate(-2 -2)"/>
        <path fill="#44D5E9" fill-rule="nonzero" d="M14.52 20.4c-1.392 0-2.52 1.128-2.52 2.52v3.84c0 .464.376.84.84.84h4.32c.464 0 .84-.376.84-.84v-3.84c0-1.392-1.128-2.52-2.52-2.52h-.96z" transform="translate(-2 -2)"/>
        <path fill="#3B5AFB" fill-rule="nonzero" d="M19.2 26.859v-3.953c0-2.047-1.87-3.706-3.918-3.706h-.564c-2.047 0-3.918 1.66-3.918 3.706v3.953c0 .26.045.51.127.741H9.07c-2.047 0-3.706-1.66-3.706-3.706V12.557l-1.736 1.518c-.308.27-.776.239-1.046-.07-.27-.307-.238-.776.07-1.045L14.512 2.583c.28-.244.697-.244.976 0L27.347 12.96c.308.27.34.738.07 1.046-.27.308-.738.339-1.046.07l-1.736-1.52v11.338c0 2.047-1.659 3.706-3.706 3.706h-1.856c.082-.232.127-.481.127-.741z" transform="translate(-2 -2)"/>
    </g>
</svg>
