<svg xmlns="http://www.w3.org/2000/svg" width="21" height="23" viewBox="0 0 21 23">
    <g fill="none" fill-rule="evenodd">
        <path d="M0 0L30 0 30 30 0 30z" transform="translate(-6 -4)"/>
        <path d="M0 0L30 0 30 30 0 30z" transform="translate(-6 -4)"/>
        <path fill="#3B5AFB" fill-rule="nonzero" d="M20.47 8.4h4.37c.863 0 1.56.7 1.56 1.56 0 .295-.084.585-.245.84l-1.936 2.994 1.814 2.995c.46.726.247 1.687-.478 2.15-.25.16-.541.245-.839.245H12.641c-.333 0-.604-.269-.604-.6V16.8h5.459c1.669-.016 3.007-1.372 2.991-3.029l-.034-3.588.017-1.783zM6 6c0-.663.537-1.2 1.2-1.2h10.269c1 0 1.811.806 1.811 1.8l-.034 3.594.034 3.589c.01.994-.794 1.807-1.794 1.817H6.604C6.27 15.6 6 15.331 6 15V6z" transform="translate(-6 -4)"/>
        <path fill="#44D5E9" fill-rule="nonzero" d="M7.8 25.5c0 .497-.403.9-.9.9s-.9-.403-.9-.9V5.7c0-.497.403-.9.9-.9s.9.403.9.9v19.8z" transform="translate(-6 -4)"/>
    </g>
</svg>
