<svg xmlns="http://www.w3.org/2000/svg" width="22" height="19" viewBox="0 0 22 19">
    <g fill="none" fill-rule="evenodd">
        <path d="M0 0L30 0 30 30 0 30z" transform="translate(-4 -6)"/>
        <path d="M0 0L30 0 30 30 0 30z" transform="translate(-4 -6)"/>
        <path fill="#3B5AFB" fill-rule="nonzero" d="M19.5 14.4c.497 0 .9.403.9.9s-.403.9-.9.9H9.9c-.497 0-.9-.403-.9-.9s.403-.9.9-.9h9.6zM24.9 6c.497 0 .9.403.9.9s-.403.9-.9.9H5.7c-.497 0-.9-.403-.9-.9s.403-.9.9-.9h19.2z" transform="translate(-4 -6)"/>
        <path fill="#44D5E9" fill-rule="nonzero" d="M5.7 24.6c-.497 0-.9-.403-.9-.9s.403-.9.9-.9h19.2c.497 0 .9.403.9.9s-.403.9-.9.9H5.7z" transform="translate(-4 -6)"/>
    </g>
</svg>
