<svg xmlns="http://www.w3.org/2000/svg" width="22" height="22" viewBox="0 0 22 22">
    <g fill="none" fill-rule="evenodd">
        <path d="M0 0L30 0 30 30 0 30z" transform="translate(-4 -4)"/>
        <path fill="#3B5AFB" fill-rule="nonzero" d="M23.745 17.4c0-.497.403-.9.9-.9s.9.403.9.9V21c0 2.475-1.822 4.5-4.1 4.5h-12.8c-2.278 0-4.1-2.025-4.1-4.5v-3.6c0-.497.403-.9.9-.9s.9.403.9.9V21c0 1.503 1.046 2.7 2.3 2.7h12.8c1.254 0 2.3-1.197 2.3-2.7v-3.6z" transform="translate(-4 -4)"/>
        <path fill="#44D5E9" fill-rule="nonzero" d="M18.01 14.363c.351-.351.921-.35 1.272.001.351.352.35.922-.001 1.273l-3.6 3.592c-.352.35-.92.35-1.272 0l-3.6-3.592c-.352-.35-.352-.92-.001-1.273.35-.352.92-.352 1.273-.001l2.064 2.06V5.4c0-.497.403-.9.9-.9s.9.403.9.9v11.022l2.064-2.06z" transform="translate(-4 -4)"/>
    </g>
</svg>
