<svg xmlns="http://www.w3.org/2000/svg" width="20" height="22" viewBox="0 0 20 22">
    <g fill="none" fill-rule="evenodd">
        <path d="M0 0L30 0 30 30 0 30z" transform="translate(-5 -4)"/>
        <path d="M0 0L30 0 30 30 0 30z" transform="translate(-5 -4)"/>
        <path fill="#3B5AFB" fill-rule="nonzero" d="M11.9 6.953c.468-.168.983.077 1.15.545.167.468-.077.983-.545 1.15-1.052.375-2.005.984-2.804 1.793-2.935 2.973-2.935 7.797 0 10.77 2.928 2.966 7.67 2.966 10.598 0 2.935-2.973 2.935-7.797 0-10.77-.799-.809-1.751-1.417-2.803-1.793-.468-.167-.712-.682-.544-1.15.167-.468.682-.712 1.15-.545 1.306.467 2.49 1.222 3.478 2.224 3.627 3.673 3.627 9.625 0 13.298-3.633 3.68-9.527 3.68-13.16 0-3.627-3.673-3.627-9.625 0-13.298.989-1.002 2.173-1.758 3.48-2.224z" transform="translate(-5 -4)"/>
        <path fill="#44D5E9" fill-rule="nonzero" d="M14.1 5.4c0-.497.403-.9.9-.9s.9.403.9.9v4.8c0 .497-.403.9-.9.9s-.9-.403-.9-.9V5.4z" transform="translate(-5 -4)"/>
    </g>
</svg>
