<svg xmlns="http://www.w3.org/2000/svg" width="24" height="24" viewBox="0 0 24 24">
    <g fill="none" fill-rule="evenodd">
        <path d="M0 0L30 0 30 30 0 30z" transform="translate(-3 -3)"/>
        <path d="M0 0L30 0 30 30 0 30z" transform="translate(-3 -3)"/>
        <path fill="#44D5E9" fill-rule="nonzero" d="M7.742 15.585v9.938c0 .484-.39.877-.871.877S6 26.007 6 25.523v-9.938h1.742zm8.129 8.184v1.754c0 .484-.39.877-.871.877s-.871-.393-.871-.877V23.77h1.742zM24 15.585v9.938c0 .484-.39.877-.871.877s-.87-.393-.87-.877v-9.938H24zM15 3.6c.481 0 .871.393.871.877v11.108h-1.742V4.477c0-.484.39-.877.871-.877zm-8.129 0c.481 0 .87.393.87.877V7.4H6V4.477c0-.484.39-.877.871-.877zm16.258 0c.481 0 .871.393.871.877V7.4h-1.742V4.477c0-.484.39-.877.871-.877z" transform="translate(-3 -3)"/>
        <path fill="#3B5AFB" fill-rule="nonzero" d="M16.2 16.8c.994 0 1.8.806 1.8 1.8V21c0 .994-.806 1.8-1.8 1.8h-2.4c-.994 0-1.8-.806-1.8-1.8v-2.4c0-.994.806-1.8 1.8-1.8zM7.8 8.4c.994 0 1.8.806 1.8 1.8v2.4c0 .994-.806 1.8-1.8 1.8H5.4c-.994 0-1.8-.806-1.8-1.8v-2.4c0-.994.806-1.8 1.8-1.8zm16.8 0c.994 0 1.8.806 1.8 1.8v2.4c0 .994-.806 1.8-1.8 1.8h-2.4c-.994 0-1.8-.806-1.8-1.8v-2.4c0-.994.806-1.8 1.8-1.8z" transform="translate(-3 -3)"/>
    </g>
</svg>
