<?xml version="1.0" encoding="UTF-8"?>
<svg width="313px" height="215px" viewBox="0 0 313 215" version="1.1" xmlns="http://www.w3.org/2000/svg" xmlns:xlink="http://www.w3.org/1999/xlink">
    <!-- Generator: Sketch 59.1 (86144) - https://sketch.com -->
    <title>Illustration</title>
    <desc>Created with Sketch.</desc>
    <defs>
        <linearGradient x1="50%" y1="19.6859798%" x2="-33.8124944%" y2="294.476483%" id="linearGradient-1">
            <stop stop-color="#F7FAFF" offset="0%"></stop>
            <stop stop-color="#6B9AD9" offset="100%"></stop>
        </linearGradient>
        <linearGradient x1="140.583572%" y1="-6.48307506%" x2="25.1634099%" y2="143.480192%" id="linearGradient-2">
            <stop stop-color="#E5EDFF" offset="0%"></stop>
            <stop stop-color="#6B9AD9" offset="100%"></stop>
        </linearGradient>
        <linearGradient x1="46.5221216%" y1="15.1595137%" x2="71.5563138%" y2="70.6858623%" id="linearGradient-3">
            <stop stop-color="#F59BA9" offset="0%"></stop>
            <stop stop-color="#F25267" offset="100%"></stop>
        </linearGradient>
        <linearGradient x1="69.0943197%" y1="17.7408447%" x2="0%" y2="93.4932689%" id="linearGradient-4">
            <stop stop-color="#F7FAFF" offset="0%"></stop>
            <stop stop-color="#6B9AD9" offset="100%"></stop>
        </linearGradient>
        <linearGradient x1="84.3552905%" y1="24.4645814%" x2="25.1634099%" y2="117.55794%" id="linearGradient-5">
            <stop stop-color="#E5EDFF" offset="0%"></stop>
            <stop stop-color="#6B9AD9" offset="100%"></stop>
        </linearGradient>
        <linearGradient x1="50%" y1="36.4719893%" x2="-33.8124944%" y2="159.100689%" id="linearGradient-6">
            <stop stop-color="#F7FAFF" offset="0%"></stop>
            <stop stop-color="#6B9AD9" offset="100%"></stop>
        </linearGradient>
        <linearGradient x1="50%" y1="23.0580746%" x2="-33.8592349%" y2="185.71272%" id="linearGradient-7">
            <stop stop-color="#EEF3FF" offset="0%"></stop>
            <stop stop-color="#6B9AD9" offset="100%"></stop>
        </linearGradient>
        <linearGradient x1="50%" y1="19.6859798%" x2="-27.572704%" y2="202.698743%" id="linearGradient-8">
            <stop stop-color="#EEF3FF" offset="0%"></stop>
            <stop stop-color="#6B9AD9" offset="100%"></stop>
        </linearGradient>
        <linearGradient x1="84.3552905%" y1="31.5010041%" x2="25.1634099%" y2="98.9419847%" id="linearGradient-9">
            <stop stop-color="#E5EDFF" offset="0%"></stop>
            <stop stop-color="#6B9AD9" offset="100%"></stop>
        </linearGradient>
        <linearGradient x1="50%" y1="19.6859798%" x2="17.4067484%" y2="294.476483%" id="linearGradient-10">
            <stop stop-color="#F7FAFF" offset="0%"></stop>
            <stop stop-color="#6B9AD9" offset="100%"></stop>
        </linearGradient>
        <linearGradient x1="33.0178465%" y1="-9.9192638%" x2="92.3649417%" y2="110.020248%" id="linearGradient-11">
            <stop stop-color="#E5EDFF" offset="0%"></stop>
            <stop stop-color="#6B9AD9" offset="100%"></stop>
        </linearGradient>
        <linearGradient x1="140.228864%" y1="-6.48307506%" x2="25.2606651%" y2="143.480192%" id="linearGradient-12">
            <stop stop-color="#E5EDFF" offset="0%"></stop>
            <stop stop-color="#6B9AD9" offset="100%"></stop>
        </linearGradient>
        <linearGradient x1="79.4983749%" y1="-6.48307506%" x2="41.9120098%" y2="143.480192%" id="linearGradient-13">
            <stop stop-color="#E5EDFF" offset="0%"></stop>
            <stop stop-color="#6B9AD9" offset="100%"></stop>
        </linearGradient>
        <linearGradient x1="50%" y1="3.05743588%" x2="55.252189%" y2="79.7120819%" id="linearGradient-14">
            <stop stop-color="#FFE579" offset="0%"></stop>
            <stop stop-color="#FEC644" offset="100%"></stop>
        </linearGradient>
        <linearGradient x1="61.0389793%" y1="-64.997747%" x2="50%" y2="87.5876316%" id="linearGradient-15">
            <stop stop-color="#FFEDBF" offset="0%"></stop>
            <stop stop-color="#FEC644" offset="100%"></stop>
        </linearGradient>
        <linearGradient x1="50%" y1="-10.8772052%" x2="50%" y2="100%" id="linearGradient-16">
            <stop stop-color="#FFE579" offset="0%"></stop>
            <stop stop-color="#FEB755" offset="100%"></stop>
        </linearGradient>
        <linearGradient x1="140.583572%" y1="3.44894366%" x2="25.1634099%" y2="127.042577%" id="linearGradient-17">
            <stop stop-color="#E5EDFF" offset="0%"></stop>
            <stop stop-color="#6B9AD9" offset="100%"></stop>
        </linearGradient>
        <linearGradient x1="50%" y1="19.6859798%" x2="-14.2559657%" y2="294.476483%" id="linearGradient-18">
            <stop stop-color="#F7FAFF" offset="0%"></stop>
            <stop stop-color="#6B9AD9" offset="100%"></stop>
        </linearGradient>
        <linearGradient x1="50%" y1="27.7727484%" x2="51.7787756%" y2="103.623291%" id="linearGradient-19">
            <stop stop-color="#1542AB" offset="0%"></stop>
            <stop stop-color="#2B68EE" offset="100%"></stop>
        </linearGradient>
        <linearGradient x1="53.4941927%" y1="0%" x2="50.6776812%" y2="50%" id="linearGradient-20">
            <stop stop-color="#3485F7" offset="0%"></stop>
            <stop stop-color="#1A57CF" offset="100%"></stop>
        </linearGradient>
        <linearGradient x1="50%" y1="19.6859798%" x2="20.69442%" y2="294.476483%" id="linearGradient-21">
            <stop stop-color="#F7FAFF" offset="0%"></stop>
            <stop stop-color="#6B9AD9" offset="100%"></stop>
        </linearGradient>
        <linearGradient x1="107.254377%" y1="-120.462206%" x2="38.2696203%" y2="-120.462203%" id="linearGradient-22">
            <stop stop-color="#FAD0BA" offset="0%"></stop>
            <stop stop-color="#F2A384" offset="100%"></stop>
        </linearGradient>
        <linearGradient x1="50%" y1="32.1187137%" x2="50%" y2="100%" id="linearGradient-23">
            <stop stop-color="#84F0A8" offset="0%"></stop>
            <stop stop-color="#48B676" offset="100%"></stop>
        </linearGradient>
        <linearGradient x1="50%" y1="32.1187137%" x2="50%" y2="100%" id="linearGradient-24">
            <stop stop-color="#84F0A8" offset="0%"></stop>
            <stop stop-color="#48B676" offset="100%"></stop>
        </linearGradient>
        <linearGradient x1="50%" y1="9.59416937%" x2="60.6684975%" y2="52.8914568%" id="linearGradient-25">
            <stop stop-color="#46C36F" stop-opacity="0" offset="0%"></stop>
            <stop stop-color="#4DBB7A" offset="100%"></stop>
        </linearGradient>
        <linearGradient x1="107.254377%" y1="-120.462206%" x2="38.2696203%" y2="-120.462203%" id="linearGradient-26">
            <stop stop-color="#FAD0BA" offset="0%"></stop>
            <stop stop-color="#F2A384" offset="100%"></stop>
        </linearGradient>
        <linearGradient x1="107.254377%" y1="-120.462206%" x2="38.2696203%" y2="-120.462203%" id="linearGradient-27">
            <stop stop-color="#FAD0BA" offset="0%"></stop>
            <stop stop-color="#F2A384" offset="100%"></stop>
        </linearGradient>
        <linearGradient x1="107.254377%" y1="-120.462206%" x2="38.2696203%" y2="-120.462203%" id="linearGradient-28">
            <stop stop-color="#FAD0BA" offset="0%"></stop>
            <stop stop-color="#F2A384" offset="100%"></stop>
        </linearGradient>
        <linearGradient x1="74.9123334%" y1="68.3119178%" x2="-1.57995775%" y2="23.9090012%" id="linearGradient-29">
            <stop stop-color="#092871" offset="0%"></stop>
            <stop stop-color="#2B68EE" offset="100%"></stop>
        </linearGradient>
        <linearGradient x1="50%" y1="14.7279612%" x2="55.252189%" y2="72.3252761%" id="linearGradient-30">
            <stop stop-color="#FFE579" offset="0%"></stop>
            <stop stop-color="#FEC644" offset="100%"></stop>
        </linearGradient>
        <linearGradient x1="79.573667%" y1="68.3119178%" x2="-11.2310563%" y2="23.9090012%" id="linearGradient-31">
            <stop stop-color="#092871" offset="0%"></stop>
            <stop stop-color="#2B68EE" offset="100%"></stop>
        </linearGradient>
        <linearGradient x1="64.0876403%" y1="68.3119178%" x2="20.8321224%" y2="23.9090012%" id="linearGradient-32">
            <stop stop-color="#092871" offset="0%"></stop>
            <stop stop-color="#2B68EE" offset="100%"></stop>
        </linearGradient>
        <linearGradient x1="86.2301616%" y1="41.5499116%" x2="92.4962333%" y2="14.9793833%" id="linearGradient-33">
            <stop stop-color="#F1A385" stop-opacity="0" offset="0%"></stop>
            <stop stop-color="#F2A384" offset="100%"></stop>
        </linearGradient>
        <linearGradient x1="60.7312459%" y1="38.0501565%" x2="52.0812714%" y2="50%" id="linearGradient-34">
            <stop stop-color="#3485F7" offset="0%"></stop>
            <stop stop-color="#1A57CF" offset="100%"></stop>
        </linearGradient>
        <linearGradient x1="107.254377%" y1="-120.462206%" x2="38.2696203%" y2="-120.462203%" id="linearGradient-35">
            <stop stop-color="#FAD0BA" offset="0%"></stop>
            <stop stop-color="#F2A384" offset="100%"></stop>
        </linearGradient>
        <linearGradient x1="100%" y1="50%" x2="0%" y2="50%" id="linearGradient-36">
            <stop stop-color="#2865C6" offset="0%"></stop>
            <stop stop-color="#10378A" offset="100%"></stop>
        </linearGradient>
        <linearGradient x1="50%" y1="27.7727484%" x2="55.005199%" y2="103.623291%" id="linearGradient-37">
            <stop stop-color="#1542AB" offset="0%"></stop>
            <stop stop-color="#2B68EE" offset="100%"></stop>
        </linearGradient>
        <linearGradient x1="107.254377%" y1="-120.462206%" x2="38.2696203%" y2="-120.462203%" id="linearGradient-38">
            <stop stop-color="#FAD0BA" offset="0%"></stop>
            <stop stop-color="#F2A384" offset="100%"></stop>
        </linearGradient>
        <linearGradient x1="56.0582691%" y1="0%" x2="51.1749709%" y2="50%" id="linearGradient-39">
            <stop stop-color="#3485F7" offset="0%"></stop>
            <stop stop-color="#1A57CF" offset="100%"></stop>
        </linearGradient>
        <linearGradient x1="100%" y1="50%" x2="0%" y2="50%" id="linearGradient-40">
            <stop stop-color="#2865C6" offset="0%"></stop>
            <stop stop-color="#10378A" offset="100%"></stop>
        </linearGradient>
        <linearGradient x1="50%" y1="42.0078379%" x2="67.2859088%" y2="79.4893002%" id="linearGradient-41">
            <stop stop-color="#84F0A8" offset="0%"></stop>
            <stop stop-color="#48B676" offset="100%"></stop>
        </linearGradient>
        <linearGradient x1="50%" y1="38.2682919%" x2="60.5143561%" y2="74.0821259%" id="linearGradient-42">
            <stop stop-color="#46C36F" stop-opacity="0" offset="0%"></stop>
            <stop stop-color="#4DBB7A" offset="100%"></stop>
        </linearGradient>
        <linearGradient x1="107.254377%" y1="-120.462206%" x2="38.2696203%" y2="-120.462203%" id="linearGradient-43">
            <stop stop-color="#FAD0BA" offset="0%"></stop>
            <stop stop-color="#F2A384" offset="100%"></stop>
        </linearGradient>
        <linearGradient x1="93.6730597%" y1="46.6824637%" x2="1.75675757%" y2="53.4198908%" id="linearGradient-44">
            <stop stop-color="#7BE7A1" offset="0%"></stop>
            <stop stop-color="#84F0A8" offset="100%"></stop>
        </linearGradient>
        <linearGradient x1="50%" y1="0%" x2="50%" y2="100%" id="linearGradient-45">
            <stop stop-color="#A0ECC3" offset="0%"></stop>
            <stop stop-color="#67D490" offset="100%"></stop>
        </linearGradient>
        <linearGradient x1="140.583572%" y1="9.93414144%" x2="25.1634099%" y2="116.309494%" id="linearGradient-46">
            <stop stop-color="#E5EDFF" offset="0%"></stop>
            <stop stop-color="#6B9AD9" offset="100%"></stop>
        </linearGradient>
        <linearGradient x1="50%" y1="31.4735928%" x2="-33.8124944%" y2="199.411752%" id="linearGradient-47">
            <stop stop-color="#F7FAFF" offset="0%"></stop>
            <stop stop-color="#6B9AD9" offset="100%"></stop>
        </linearGradient>
        <linearGradient x1="140.583572%" y1="7.2099204%" x2="25.1634099%" y2="120.818114%" id="linearGradient-48">
            <stop stop-color="#E5EDFF" offset="0%"></stop>
            <stop stop-color="#6B9AD9" offset="100%"></stop>
        </linearGradient>
    </defs>
    <g id="Desktop" stroke="none" stroke-width="1" fill="none" fill-rule="evenodd">
        <g id="48---Design-Styleguide" transform="translate(-565.000000, -2721.000000)">
            <g id="#Illustration" transform="translate(473.000000, 1790.000000)">
                <g id="Item" transform="translate(0.000000, 884.000000)">
                    <g id="Illustration" transform="translate(92.000000, 47.000000)">
                        <g id="Background" fill="#E2EBFC">
                            <ellipse opacity="0.300000012" cx="240.075129" cy="73.0438055" rx="72.6825921" ry="72.9023098"></ellipse>
                            <ellipse opacity="0.200000003" cx="72.9058755" cy="120.81972" rx="72.6825921" ry="72.9023098"></ellipse>
                        </g>
                        <g id="Shadow" transform="translate(60.167783, 206.237763)" fill="#E2EBFC" opacity="0.340000004">
                            <ellipse cx="85.6499148" cy="4.3494783" rx="85.5736814" ry="4.3494783"></ellipse>
                        </g>
                        <g id="Video" transform="translate(17.397913, 40.957587)" fill-rule="nonzero">
                            <path d="M0.269365784,25.8345831 L25.687262,0.416686824 C25.9173918,0.186557046 26.2905059,0.186557046 26.5206357,0.416686824 L45.2715427,19.1675939 C45.5016725,19.3977237 45.5016725,19.7708378 45.2715427,20.0009675 L19.8536465,45.4188638 C19.6235167,45.6489936 19.2504026,45.6489936 19.0202728,45.4188638 L0.269365784,26.6679567 C0.0392360062,26.4378269 0.0392360062,26.0647128 0.269365784,25.8345831 Z" id="Video-bas" fill="url(#linearGradient-1)"></path>
                            <path d="M29.4374434,29.5847645 C26.790951,32.2312569 22.5001389,32.2312569 19.8536465,29.5847645 C17.207154,26.938272 17.207154,22.64746 19.8536465,20.0009675 C22.5001389,17.3544751 26.790951,17.3544751 29.4374434,20.0009675 C32.0839359,22.64746 32.0839359,26.938272 29.4374434,29.5847645 Z" id="Video-bas" fill="url(#linearGradient-2)"></path>
                            <path d="M22.6633427,23.6712688 L26.068096,22.6212748 C26.3790957,22.5253654 26.7089607,22.6997305 26.8048701,23.0107302 C26.8397626,23.1238741 26.8397626,23.244905 26.8048701,23.3580489 L25.7548761,26.7628021 C25.6589667,27.0738018 25.3291017,27.248167 25.018102,27.1522576 C24.926376,27.1239702 24.8429487,27.0737039 24.7750745,27.0058296 L22.4203152,24.6510704 C22.1901854,24.4209406 22.1901854,24.0478265 22.4203152,23.8176967 C22.4881895,23.7498225 22.5716168,23.6995562 22.6633427,23.6712688 Z" id="Video-bas" fill="#FFFFFF"></path>
                            <path d="M0.269365784,25.8345831 L25.687262,0.416686824 C25.9173918,0.186557046 26.2905059,0.186557046 26.5206357,0.416686824 L28.8124132,2.70846435 L2.56114331,28.9597342 L0.269365784,26.6679567 C0.0392360062,26.4378269 0.0392360062,26.0647128 0.269365784,25.8345831 Z" id="Video-bas" fill="url(#linearGradient-2)"></path>
                            <path d="M3.39451696,26.4596133 C3.16438718,26.6897431 2.79127309,26.6897431 2.56114331,26.4596133 C2.33101354,26.2294835 2.33101354,25.8563694 2.56114331,25.6262397 C2.79127309,25.3961099 3.16438718,25.3961099 3.39451696,25.6262397 C3.62464674,25.8563694 3.62464674,26.2294835 3.39451696,26.4596133 Z" id="Video-bas" fill="#FFFFFF"></path>
                            <path d="M4.85292084,25.0012094 C4.62279107,25.2313392 4.24967698,25.2313392 4.0195472,25.0012094 C3.78941742,24.7710796 3.78941742,24.3979656 4.0195472,24.1678358 C4.24967698,23.937706 4.62279107,23.937706 4.85292084,24.1678358 C5.08305062,24.3979656 5.08305062,24.7710796 4.85292084,25.0012094 Z" id="Video-bas" fill="#FFFFFF"></path>
                        </g>
                        <g id="Like" transform="translate(21.384935, 104.025023)" fill-rule="nonzero">
                            <path d="M9.34701015,0.75448801 C9.67162508,0.196352467 10.3905708,0.00512110672 10.9528204,0.327360813 L21.1332493,6.16202683 C21.6954989,6.48426654 21.8881398,7.19795169 21.5635249,7.75608723 L18.8085548,13.1279985 L21.3665179,14.5819485 C21.5061381,14.6619685 21.606518,14.7954063 21.644158,14.9510233 C21.7199459,15.2643576 21.5255042,15.5793539 21.2098604,15.6545873 L16.898311,16.9205315 L12.600073,23.1676427 C12.275458,23.7257782 11.5565123,23.9170096 10.9942627,23.5947699 L0.813833791,17.7601038 C0.251584226,17.4378641 0.0589432988,16.724179 0.383558236,16.1660434 L9.34701015,0.75448801 Z" id="like-base" fill="url(#linearGradient-3)"></path>
                            <path d="M9.19680656,11.1112051 C8.45074464,10.6836178 8.24067055,9.65830237 8.72759296,8.82109906 C9.21451537,7.98389574 10.1678774,7.62537554 11.4103968,8.33749542 C12.2387431,8.81224201 13.0018403,10.5970511 13.6996886,13.6919227 C10.650771,14.6394263 8.71213903,14.8758048 7.88379275,14.4010582 C6.64127333,13.6889383 6.47736854,12.6900838 6.96429095,11.8528805 C7.45121335,11.0156771 8.45074464,10.6836178 9.19680656,11.1112051 Z" id="like-base" fill="#FFFFFF"></path>
                        </g>
                        <g id="Papper" transform="translate(56.905674, 150.781915)" fill-rule="nonzero">
                            <path d="M2.12710395,7.5269312 C4.82805759,5.29462666 7.16923542,3.47721819 9.15063742,2.07470579 C12.1227404,-0.0290628149 15.9812094,-0.232064104 17.9099621,0.278939955 C20.083372,1.86039041 25.7658914,6.16801931 28.1090921,8.39036074 C26.727285,8.65156075 25.500146,8.65156075 23.6677266,9.11629467 C17.081586,10.7866563 14.7553195,16.4172027 13.8756916,16.7728856 C12.2348571,17.4363669 12.9291235,17.1312261 11.9385325,17.2580625 C11.2781384,17.34262 8.00766225,14.0989096 2.12710395,7.5269312 Z" id="Papper-base" fill="url(#linearGradient-4)"></path>
                            <path d="M2.51149219,5.42483963 C0.0242942591,7.99218453 -0.470887978,9.78251859 1.02594548,10.7958418 C2.63654665,11.8861833 7.60937055,15.1123167 9.90084587,16.4833908 C11.3816564,17.3694142 12.7481332,17.3999833 14.0002761,16.575098 C12.3668457,17.2387476 11.3121767,16.9578029 10.8362689,15.732264 C10.3603612,14.5067252 11.0160685,13.2607936 12.8033909,11.9944693 L2.51149219,5.42483963 Z" id="Papper-base" fill="url(#linearGradient-5)"></path>
                        </g>
                        <g id="Papper" transform="translate(175.114937, 181.166850) scale(-1, 1) rotate(-360.000000) translate(-175.114937, -181.166850) translate(162.114937, 172.166850)" fill="url(#linearGradient-6)" fill-rule="nonzero">
                            <path d="M0.708662701,7.52101427 C3.44296687,5.18469221 5.63827165,3.41915307 7.29457706,2.22439686 C10.2230104,0.112006253 14.0247863,-0.0918270091 15.9251995,0.421271329 C18.0666751,2.00920313 23.6657002,6.33448625 25.9744719,8.56593564 C24.6129679,8.82820614 23.4038595,8.82820614 21.5983642,9.29484471 C15.1089948,10.9720521 12.8169086,16.6256745 11.9502052,16.9828151 C10.3334797,17.6490156 11.0175452,17.3426242 10.0415091,17.4699804 C9.44200613,17.5482054 6.32472077,15.1091555 0.689652992,10.1528308 C-0.0376867335,9.51310034 -0.105020476,8.40903265 0.539258227,7.68682733 C0.59189435,7.62782478 0.64849184,7.57242717 0.708662701,7.52101427 Z" id="Papper-base"></path>
                        </g>
                        <g id="File" transform="translate(201.163372, 142.807871)" fill-rule="nonzero">
                            <path d="M53.8064171,17.2418286 L29.1640012,0.20106174 C22.6285122,14.6455978 12.9717707,24.9164355 0.193776717,31.0135749 L21.2795468,50.7439135 C37.7768222,44.66251 48.6191123,33.4951483 53.8064171,17.2418286 Z" id="File-base" fill="url(#linearGradient-7)"></path>
                            <polygon id="File-base" fill="#C5D7F3" style="mix-blend-mode: multiply;" opacity="0.517118566" points="12.1765177 29.6250594 10.2546197 30.9106616 25.9278031 43.7817503 28.27368 42.5349585"></polygon>
                            <polygon id="File-base" fill="#C5D7F3" style="mix-blend-mode: multiply;" opacity="0.517118566" points="28.5768086 8.72334988 47.0672951 20.3461165 45.8136669 22.3282741 27.4069531 10.7338361"></polygon>
                            <polygon id="File-base" fill="#C5D7F3" style="mix-blend-mode: multiply;" opacity="0.517118566" points="25.802776 13.4862569 44.2932625 25.1090235 43.0396343 27.0911811 24.6329204 15.4967431"></polygon>
                            <polygon id="File-base" fill="#C5D7F3" style="mix-blend-mode: multiply;" opacity="0.517118566" points="31.9176717 24.6407534 41.2104846 30.3447138 39.9568565 32.3268714 30.7478162 26.6512396"></polygon>
                            <path d="M23.2216384,17.4556971 L29.2278509,21.9672191 C29.0696949,22.3482691 28.8637429,22.7817719 28.609995,23.2677276 C27.4498921,25.4894553 25.8129541,27.4276182 23.8162036,28.94366 C23.0030327,29.5610637 22.3193653,30.0990845 21.7652015,30.5577225 L15.5863573,25.7315496 C15.8873729,25.5529361 16.221533,25.3493388 16.5888378,25.1207576 C19.1634707,23.5185112 21.263004,21.2579544 22.670263,18.5729178 C22.8816506,18.1695922 23.0654424,17.7971853 23.2216384,17.4556971 Z" id="File-base" fill="#C5D7F3" style="mix-blend-mode: multiply;" opacity="0.517118566"></path>
                            <path d="M28.4773079,28.7537383 L36.7997175,35.3508954 C35.8413469,36.7800363 34.770435,37.9877469 33.5869818,38.974027 C32.4035286,39.9603072 31.1564658,40.6843777 29.8457932,41.1462387 L21.4036611,34.6759911 C23.1828654,33.6255352 24.5873258,32.664874 25.6170423,31.7940075 C26.6467589,30.923141 27.6001808,29.909718 28.4773079,28.7537383 Z" id="File-base" fill="#C5D7F3" style="mix-blend-mode: multiply;" opacity="0.517118566"></path>
                        </g>
                        <g id="Papper" transform="translate(103.300110, 150.057001)" fill-rule="nonzero">
                            <path d="M0.252006195,13.2588935 C0.252006195,7.8571221 1.1655703,3.45220712 2.9926985,0.0441486121 C9.85058627,9.24683467 17.1045864,13.4124654 24.754699,12.5410409 C24.9900259,19.4319662 19.6701715,41.5377272 44.0024397,45.5328295 C39.2446824,45.5328295 34.979392,44.6050993 31.2065686,42.7496389 C19.1627726,37.6054928 11.0903143,32.9266495 6.98919376,28.7131089 C2.88807318,24.4995683 0.642343992,19.3481632 0.252006195,13.2588935 Z" id="Papper-base" fill="url(#linearGradient-8)"></path>
                            <path d="M0.146376674,12.5526458 C1.2902253,24.6127327 7.82056323,27.9806923 19.7373905,22.6565244 C23.8568601,35.8591509 32.4912031,43.4639107 45.6404196,45.4708037 C32.0343268,45.2468475 21.2305052,42.2400256 13.2289547,36.4503378 C5.22740421,30.6606501 0.866544874,22.6947528 0.146376674,12.5526458 Z" id="Papper-base" fill="url(#linearGradient-9)"></path>
                        </g>
                        <g id="Window-Tab" transform="translate(242.845872, 60.530240)">
                            <path d="M13.9259078,35.6504958 C13.4248581,31.481498 11.527339,27.7431403 8.71573016,24.9187494 C7.72995458,23.7519517 6.40246163,22.7296995 4.70476781,21.8680402 C3.2673632,21.0595244 1.70991747,20.4398703 0.0659252518,20.0426392 C0.121982721,18.1680053 1.41337225,9.16389341 2.75267743,0.100080075 C27.2849977,3.57061152 22.4225839,26.6981343 20.5821437,30.229302 C19.7567851,31.8128793 17.5380398,33.6199439 13.9259078,35.6504958 L13.9259078,35.6504958 Z" id="Window-base" fill="url(#linearGradient-10)" fill-rule="nonzero"></path>
                            <path d="M2.72942098,0.0660778463 C14.0695513,1.59407601 22.6883844,9.21114219 22.6883844,18.3777189 C22.6883844,22.1177681 21.2535931,25.5998676 18.7845829,28.5156819 C20.0075168,26.2909145 20.6837959,23.8447875 20.6837959,21.2770777 C20.6837959,12.5333153 12.8417241,5.19941577 2.27609704,3.21529574 L2.72942098,0.0660778463 Z" id="Window-base" fill="url(#linearGradient-11)"></path>
                            <ellipse id="Window-base" fill="url(#linearGradient-12)" fill-rule="nonzero" cx="4.78931773" cy="2.19996164" rx="1" ry="1"></ellipse>
                            <ellipse id="Window-base" fill="url(#linearGradient-12)" fill-rule="nonzero" cx="7.30754956" cy="2.91715608" rx="1" ry="1"></ellipse>
                            <path d="M2.82834741,36.6758665 C12.0198619,35.4069089 19.4072708,30.1351556 21.8369911,23.2880392 C22.0194985,23.075031 22.1178102,22.9593174 22.1223107,22.9628303 C22.1223107,42.764729 15.6909896,54.0346957 2.82834741,56.7729822 L2.82834741,36.6758665 L2.82834741,36.6758665 Z" id="Window-base" fill="url(#linearGradient-13)" fill-rule="nonzero"></path>
                        </g>
                        <g id="message" transform="translate(82.277631, 34.433370)" fill-rule="nonzero">
                            <path d="M13.1326245,0.485066945 L33.1785586,16.7604017 C33.5559812,17.0668319 33.61418,17.6220044 33.3085491,18.0004142 L21.8337845,32.2076307 C21.5281536,32.5860405 20.9744294,32.6443915 20.5970068,32.3379613 L0.551072729,16.0626266 C0.173650104,15.7561964 0.115451343,15.2010239 0.421082159,14.8226141 L11.8958468,0.615397508 C12.2014777,0.236987727 12.7552019,0.178636746 13.1326245,0.485066945 Z" id="message-base" fill="url(#linearGradient-14)"></path>
                            <path d="M0.717343142,16.005684 C0.653460683,15.9538177 0.614235863,15.8774403 0.609233828,15.7951767 C0.599383021,15.63317 0.72238713,15.493831 0.883971195,15.4839545 L17.816093,14.4490052 C18.2680792,14.4213783 18.6670924,14.742412 18.7380807,15.1908082 L21.4243333,32.1584627 C21.4373616,32.2407562 21.4149357,32.3247264 21.3626352,32.3894811 C21.2607583,32.5156177 21.0761835,32.535068 20.950376,32.4329246 L0.717343142,16.005684 Z" id="message-base" fill="url(#linearGradient-15)"></path>
                            <path d="M13.0065015,0.38266739 L33.3083892,16.8658114 C33.4341967,16.9679548 33.4535963,17.1530123 33.3517194,17.2791489 C33.3025013,17.3400871 33.2310351,17.3787778 33.1532184,17.3866143 L15.5187086,19.1624868 C15.0402355,19.2106711 14.6118978,18.8645662 14.5571861,18.3855586 L12.5308232,0.644494197 C12.5124051,0.483240645 12.627855,0.337548872 12.7886879,0.319082513 C12.8668616,0.310106839 12.945352,0.333020034 13.0065015,0.38266739 Z" id="message-base" fill="url(#linearGradient-16)"></path>
                        </g>
                        <g id="Folder" transform="translate(159.480871, 42.769870)" fill-rule="nonzero">
                            <path d="M0.516083224,21.4260452 C0.515278927,21.4254122 0.514476297,21.4247771 0.513675342,21.4241399 C0.258672539,21.2212868 0.218253649,20.8524293 0.423397223,20.6002736 L4.27810279,15.8621972 C4.47080236,15.6253373 4.8146794,15.5735265 5.06997302,15.7428888 L6.4409552,16.6524013 C6.6679378,16.802982 6.96963004,16.7805109 7.1712399,16.5980071 L23.5720686,1.75144229 C23.5751523,1.74865081 23.5782658,1.74589168 23.5814086,1.74316535 C23.8274309,1.52974341 24.2018376,1.55394448 24.4176693,1.79721996 L36.7352755,15.6810534 C36.9419794,15.9140403 36.9294536,16.265901 36.706694,16.4839391 L18.1517152,34.6456335 C17.9383353,34.8544907 17.6007077,34.8725433 17.3657965,34.6876558 L0.516083224,21.4260452 Z" id="Folder-base" fill="url(#linearGradient-17)"></path>
                            <path d="M17.2790038,34.6489161 L6.86452822,21.951285 C6.6717054,21.7161898 6.69170082,21.3745605 6.91066437,21.1630318 L28.4739417,0.331930698 C28.7080435,0.105777745 29.0832238,0.110102712 29.3119302,0.341590781 C29.3557398,0.385933155 29.3921561,0.436868818 29.4198206,0.492497704 L37.055018,15.8456457 C37.1679822,16.0727984 37.1206668,16.3460004 36.9377013,16.5230397 L18.1537021,34.6986239 C17.9197854,34.9249641 17.5446017,34.9209393 17.315706,34.6896342 C17.3028394,34.6766322 17.2905921,34.6630448 17.2790038,34.6489161 Z" id="Folder-base" fill="url(#linearGradient-18)"></path>
                            <polygon id="Folder-base" fill="#A3C1EA" points="17.7286035 32.7242724 17.1535095 32.1193037 22.7260505 26.8659764 23.1777617 27.5648836"></polygon>
                        </g>
                        <g id="Girl" transform="translate(59.805327, 66.329544)">
                            <g id="Ipad" transform="translate(80.631521, 24.790501)" fill-rule="nonzero">
                                <path d="M1.62497879,4.59983677 L9.70390324,0.269763156 L10.8672647,0.269763156 C11.1515646,0.269763156 11.3952246,0.473573361 11.4462566,0.754062812 L15.6292423,23.7451689 C15.6875887,24.0658603 15.4756643,24.3732676 15.1558959,24.4317824 C15.1287278,24.4367539 15.1012446,24.4398015 15.0736498,24.4409026 L5.38595134,24.8274802 C5.09282079,24.8391773 4.8358583,24.6325947 4.7834636,24.3431158 L1.32329844,5.22582757 C1.27764673,4.97360352 1.39954507,4.72066283 1.62497879,4.59983677 Z" id="Ipad-base" fill="url(#linearGradient-19)"></path>
                                <path d="M0.477560155,4.61071952 L9.5853618,0.327331098 C9.87965721,0.18892431 10.2301087,0.315985621 10.3681172,0.61113048 C10.3901361,0.658220213 10.4058525,0.70802207 10.414858,0.7592423 L14.4629814,23.783556 C14.5194253,24.1045896 14.3056821,24.4107277 13.9855724,24.4673346 C13.9699393,24.4700991 13.9542011,24.4722282 13.9383964,24.4737166 L4.23810607,25.3872358 C3.9328444,25.4159836 3.65671269,25.204885 3.60347136,24.9020669 L0.147836721,5.2476224 C0.101662249,4.98499811 0.236809281,4.72394437 0.477560155,4.61071952 Z" id="Ipad-base" fill="url(#linearGradient-20)"></path>
                                <path d="M1.38473724,6.66941488 L9.51354851,2.97712951 C9.66159566,2.90988322 9.83596858,2.97573168 9.90302133,3.12420616 C9.91318216,3.14670522 9.92048654,3.1703945 9.92476316,3.1947184 L13.2533252,22.1264182 C13.2815472,22.286935 13.1746755,22.4400041 13.0146207,22.4683075 C13.0072115,22.4696178 12.9997549,22.4706425 12.9922674,22.4713796 L4.36362293,23.3207881 C4.21057937,23.3358538 4.07177434,23.2302025 4.04507089,23.0783225 L1.21634206,6.98949961 C1.19300347,6.85675789 1.26230748,6.72502518 1.38473724,6.66941488 Z" id="Ipad-base" fill="url(#linearGradient-21)"></path>
                            </g>
                            <g id="Hand" transform="translate(74.451733, 39.251626)" fill-rule="nonzero">
                                <path d="M6.11966242,15.6721209 L1.91279155,15.1217096 C3.65844638,12.1348367 4.77947905,9.42473886 5.27588955,6.99141606 C5.80640537,5.55362665 5.1688069,5.22608111 5.6804312,3.13593333 C5.96650941,1.96721295 6.54436139,0.459445061 7.96337093,0.10206671 C8.13693722,1.37180892 8.30464736,2.10466858 8.48043048,3.13593333 C8.6562136,4.16719808 9.11711939,1.80274728 10.274243,2.10466858 C11.4313666,2.40658987 9.15244333,4.65761838 9.15244333,5.61298669 C9.15244333,7.13858049 8.81394129,8.15198686 8.13693722,8.6532058 L6.11966242,15.6721209 Z" fill="url(#linearGradient-22)"></path>
                                <path d="M0.507411351,15.2941402 C2.97531632,12.016135 4.2092688,10.1692878 4.2092688,9.75359873 C4.2092688,9.13006512 8.27155468,9.17163403 8.27155468,10.5524447 C8.27155468,11.9332554 6.72016773,17.552029 5.97922985,18.0268441 C5.48527127,18.3433874 3.5045454,18.4964953 0.0370522471,18.4861676 L0.507411351,15.2941402 Z" id="Path-23" fill="url(#linearGradient-23)"></path>
                            </g>
                            <g id="Jacket" transform="translate(76.805938, 36.890626)" fill-rule="nonzero">
                                <path d="M1.76813077,19.4867918 C13.8278211,19.477266 21.3638385,17.0879234 24.3761829,12.318764 C28.8946996,5.16502487 27.0768007,1.66697309 30.4944988,0.458735737 C33.9121968,-0.749501621 38.6774918,4.27994204 40.12301,6.75188694 C41.0866889,8.3998502 43.3806841,18.0840498 47.0049959,35.8044858 L5.2074954,30.4441825 L1.76813077,19.4867918 Z" fill="url(#linearGradient-24)"></path>
                                <path d="M28.2897861,8.74531808 L28.8236859,10.7436104 C28.9500565,11.2165931 28.6701753,11.7027606 28.1985539,11.829496 C27.7269324,11.9562313 27.2421641,11.6755423 27.1157935,11.2025596 L26.5818938,9.20426733 C26.3596307,9.24028982 26.1925201,9.28519623 26.0805619,9.33898654 C25.856396,9.44668701 27.4700602,5.55553247 27.4700602,5.67722901 C27.4700602,6.02360758 27.5907593,6.47536328 27.8321577,7.03249612 L29.8246988,6.49705532 C30.2963203,6.37031998 30.7810886,6.65100895 30.9074592,7.12399167 C31.0338298,7.59697439 30.7539486,8.08314194 30.2823272,8.20987727 L28.2897861,8.74531808 Z" id="Texture" fill="#6EDB96"></path>
                                <path d="M0.0928143851,21.1725143 C14.5992261,20.2975767 23.8473841,17.8120319 27.8372885,13.7158798 C30.5114313,10.970527 31.899989,9.94571491 31.9133812,6.93094378 C31.9267734,3.91617265 28.336646,3.03076525 30.5114313,1.30695828 C33.8194469,-1.3150846 43.4675374,8.39912164 44.4022917,9.99762166 C45.3659705,11.6455849 46.2335386,23.1991231 47.0049959,44.6582361 L5.2074954,39.2979328 L0.0928143851,21.1725143 Z" id="Shadow" fill="url(#linearGradient-25)"></path>
                            </g>
                            <g id="Head" transform="translate(0.147138, 3.246375)">
                                <path d="M66.0265126,51.8079709 C64.0222892,50.8466626 62.3666265,49.1425251 61.0595243,46.6955586 C55.4262589,43.2553458 52.4353458,44.0695976 52.0867853,49.1383141 C52.7540506,51.7035476 56.1179737,55.65057 62.1785544,60.9793812 L62.8278455,61.386002 L69.5556884,55.0851582 L66.0265126,51.8079709 Z" id="Neck" fill="url(#linearGradient-26)"></path>
                                <path d="M60.657972,39.5197888 C60.982468,39.6005256 61.3133916,39.6587006 61.650743,39.6943138 C63.438871,39.8830811 63.0599526,41.2188685 62.1695857,42.2343665 C63.656337,45.9459512 64.2324403,48.4970154 63.8978957,49.8875591 C63.3873749,52.0095525 60.1772541,53.253754 53.7019652,52.2482694 L47.4087437,47.6939969 C46.0511322,49.02937 44.737827,48.7490067 43.4688281,46.8529071 C41.5653297,44.0087576 43.8207159,42.9568942 45.1220497,43.185254 C46.6582028,41.1789002 46.6235966,38.8587295 45.0182311,36.2247417 C48.2892445,35.9683366 50.7394293,35.4010342 52.3687857,34.5228343 C53.9981421,33.6446344 55.0620321,32.4799032 55.5604557,31.0286408 C56.9224546,31.8821686 57.8406703,33.3393951 58.315103,35.4003203 L60.657972,39.5197888 Z" id="Path" fill="url(#linearGradient-27)"></path>
                                <path d="M54.6173068,32.725273 C55.0340315,32.211587 55.3484143,31.6460429 55.5604557,31.0286408 C56.9224546,31.8821686 57.8406703,33.3393951 58.315103,35.4003203 L60.657972,39.5197888 C60.6945874,39.528899 60.7312847,39.5377219 60.7680638,39.5462575 C58.8060787,39.7435013 57.0404249,38.1203137 55.4709549,34.6771886 C55.1466063,33.9656281 54.8620569,33.3149891 54.6173068,32.7252717 L54.6173068,32.725273 Z" id="Path" fill="url(#linearGradient-28)"></path>
                                <path d="M34.4302479,48.6956266 C25.6019792,49.4334391 24.7191523,42.9406889 28.2504598,30.5454385 C31.7817673,18.1501881 35.4602126,8.55862528 22.3649473,1.91831256 C9.26968212,-4.72200015 -7.94544182,8.26350027 4.56127216,24.0526883 C17.0679861,39.8418763 12.8009896,50.0236891 25.6019792,53.1225017 C34.1359723,55.1883768 39.4329335,53.9586893 41.4928628,49.4334391 C38.626169,50.7743882 36.271964,50.5284507 34.4302479,48.6956266 Z" id="Hair" fill="url(#linearGradient-29)"></path>
                                <path d="M33.9888345,47.9578141 C33.2040995,49.5318141 33.4983751,50.9090642 34.8716613,52.0895642 C36.2449476,53.2700642 37.8144175,53.3192517 39.5800713,52.2371267 L33.9888345,47.9578141 Z" id="Hairbands" fill="url(#linearGradient-30)"></path>
                                <path d="M55.6180927,31.1356885 C55.1276334,34.5788136 52.6753365,36.8414387 48.2612022,37.9235637 C48.7516615,40.6780638 48.40834,42.5471889 47.2312375,43.5309389 L48.1140644,45.891939 C46.7407781,44.514689 45.7108134,43.8260639 45.0241703,43.8260639 C43.9942056,43.8260639 42.2285519,45.1541265 43.69993,47.072439 C44.6808488,48.3513141 45.9069972,48.5480641 47.3783753,47.6626891 C49.8306722,48.1545641 52.8224743,49.8761266 56.3537818,52.8273767 L56.3537818,55.0408143 C54.4409902,55.9261893 30.0161135,55.9648049 31.6346295,40.2845638 C31.8733173,37.9721471 32.2488055,35.8679863 32.7610941,33.9720816 L32.7610892,33.9720802 C35.063456,25.4513583 43.8174231,20.4157726 52.3136219,22.7247848 C53.3136116,22.9965521 54.2847967,23.3654563 55.2133931,23.8262617 C58.6021708,25.5079039 60.464577,28.9539814 58.2665733,35.4150012 L57.8694723,34.2202595 C57.4578726,32.9818963 56.6707376,31.9034581 55.6180927,31.1356885 L55.6180927,31.1356885 Z" id="Hair" fill="url(#linearGradient-31)"></path>
                                <path d="M31.1924755,54.040831 C29.5158292,53.9249524 27.6523305,53.6188426 25.6019792,53.1225017 C12.8009896,50.0236891 17.0679861,39.8418763 4.56127216,24.0526883 C-5.21044065,11.7163215 3.16174534,1.09148496 13.536677,0.201668346 L13.5366787,0.29512501 C7.45498245,3.1480001 5.10077746,6.93543773 6.4740637,11.6574379 C8.53399307,18.7404381 16.9208483,17.7075006 15.7437458,25.9710008 C14.5666433,34.2345011 21.1878449,29.9551885 21.1878449,38.6613763 C21.1878449,44.3812691 25.7605849,51.5024209 31.1924755,54.040831 L31.1924755,54.040831 Z" id="Path" fill="url(#linearGradient-32)"></path>
                                <path d="M49.5996617,49.2795181 C50.3331039,47.7928466 51.6526044,47.0079661 53.5581634,46.9248765 C58.0703896,46.7281265 60.915054,45.203314 62.0921564,42.3504389 C62.181335,42.4696868 62.2681714,42.5853211 62.3526656,42.6973416 C63.7032678,46.1588659 64.2183445,48.555605 63.8978957,49.8875591 C63.3873749,52.0095525 60.1772541,53.253754 53.7019652,52.2482694 L49.5996617,49.2795185 L49.5996617,49.2795181 Z" id="Path" fill="url(#linearGradient-33)"></path>
                            </g>
                            <g id="Body" transform="translate(62.680708, 54.303002)" fill="url(#linearGradient-34)" fill-rule="nonzero">
                                <path d="M0.093257348,2.82310418 C2.09185805,2.51446702 3.09115841,2.07639223 3.09115841,1.5088798 C3.09115841,0.941367375 2.97080773,0.550136629 2.73010638,0.335187563 C9.6064574,0.0198331342 13.7498582,-0.03321467 15.1603089,0.17604415 C17.2759849,0.489932379 19.6099302,4.82794764 19.8513006,4.82794764 C20.0926711,4.82794764 25.8112799,9.63888305 28.1142496,9.63888305 C29.6495628,9.63888305 32.3981253,10.4925854 36.3599372,12.1999902 L30.4364731,17.7806426 L6.05109164,14.5468755 L0.093257348,2.82310418 Z"></path>
                            </g>
                            <g id="foot" transform="translate(100.347987, 0.000000)">
                                <path d="M54.4557045,31.941953 C54.0969405,31.6987642 52.6463541,28.8445261 55.4008059,28.3800176 C58.1552578,27.9155092 58.8015634,27.7960549 59.8631053,27.4560495 C60.5707998,27.2293792 61.0860766,26.8574645 61.4089356,26.3403054 L61.0406624,30.1094834 L58.924503,31.6835665 C56.18448,32.01795 54.6948806,32.1040789 54.4557045,31.941953 Z" id="leg" fill="url(#linearGradient-35)" fill-rule="nonzero"></path>
                                <path d="M57.9992991,32.0168986 C57.9965479,31.199336 60.0390922,31.0862932 60.5934921,29.8374965 C61.147892,28.5886999 59.982956,27.1377535 60.2768866,26.8865941 C61.1361855,26.1523358 61.9537359,24.8950102 63.1389176,23.6386465 C66.0547346,20.5477055 66.3972897,20.2752085 68.0747643,21.6632854 C68.5002185,21.8532565 66.8642876,26.1123804 63.1669716,34.4406572 C62.1277696,34.3804088 61.2162867,34.1910298 60.4325231,33.8725204 C59.2568776,33.3947563 58.0020559,32.8344611 57.9992991,32.0168986 Z" id="Shoes" fill="url(#linearGradient-36)" fill-rule="nonzero"></path>
                                <path d="M20.3461333,31.5223089 C24.5927597,29.3822757 54.5495764,25.7518828 56.5092503,26.8354817 C57.5659808,27.4197994 57.6737306,29.4390043 56.8324998,32.8930966 C56.6606471,33.5987202 56.1319124,34.1619876 55.4399651,34.3765796 C41.0894907,38.8270578 33.682358,40.8684669 33.2185668,40.500807 C32.5054158,39.9354729 21.8491421,71.5650334 18.3804148,77.0023992 C14.9116876,82.4397651 10.5986318,90.5162616 3.34602074,80.2440629 C-1.48905329,73.3959305 -0.917249262,68.8089295 5.06143283,66.4830599 C12.4201489,44.6025814 17.5150491,32.9489977 20.3461333,31.5223089 Z" id="Pants" fill="url(#linearGradient-37)" fill-rule="nonzero"></path>
                                <path d="M62.4808074,14.1736155 C62.0715072,14.0318361 59.9337432,11.6513768 62.4744618,10.4877338 C65.0151804,9.32409081 65.6086356,9.0409478 66.5462597,8.43698754 C67.1713424,8.03434736 67.57308,7.54135697 67.7514724,6.95801636 L68.3684752,10.694354 L66.7306523,12.7640848 C64.1702892,13.7982915 62.7536742,14.268135 62.4808074,14.1736155 Z" id="leg" fill="url(#linearGradient-38)" fill-rule="nonzero"></path>
                                <path d="M27.1661525,26.3920778 C31.4350568,21.5037951 61.1282701,8.53924911 63.3259175,8.96249252 C64.5219208,9.19282996 64.9964478,11.1528265 64.7494987,14.8424822 C64.7049633,15.5078887 64.291423,16.0917664 63.679606,16.3530644 C57.2085242,19.1167679 48.8795285,24.3783553 38.6926187,32.1378263 C37.4237044,48.1737944 36.248063,58.2738557 35.1656943,62.4380102 C33.5421413,68.684242 27.684974,85.6644108 17.6221828,78.1426182 C10.9136553,73.1280898 9.63711246,66.0733725 13.7925542,56.9784664 C19.8623503,39.8463958 24.3202164,29.6509329 27.1661525,26.3920778 Z" id="Pants" fill="url(#linearGradient-39)" fill-rule="nonzero"></path>
                                <path d="M62.8278455,10.7720629 C45.8579512,19.1339381 35.4602126,25.0364383 31.6346295,28.4795634 C27.8090464,31.9226885 26.4848061,43.1866264 27.6619086,62.271377" id="Texture" stroke="#1A57CF" stroke-width="0.5" stroke-linecap="round" stroke-linejoin="round" stroke-dasharray="1.812282644970253,3.624565289940506"></path>
                                <path d="M65.9230011,13.3262096 C65.7093491,12.5372197 67.6531221,11.8978534 67.8663491,10.5477051 C68.0795761,9.19755674 66.5798826,8.09842808 66.7989801,7.77953225 C67.439506,6.84724837 67.9047157,5.42055669 68.7252783,3.89936964 C70.7440494,0.156902676 71.0046077,-0.195224919 72.9831505,0.710138806 C73.4431343,0.783203362 72.9621162,5.32183338 71.5400962,14.3260289 C70.5207555,14.5375749 69.5914569,14.591239 68.7522003,14.487021 C67.4933154,14.330694 66.136653,14.1151995 65.9230011,13.3262096 Z" id="Shoes" fill="url(#linearGradient-40)" fill-rule="nonzero"></path>
                            </g>
                            <g id="Jacket" transform="translate(52.381061, 35.119876)">
                                <path d="M5.15878479,22.8929671 C7.51485337,20.2402201 9.22142521,18.9138466 10.2785003,18.9138466 C11.8641129,18.9138466 11.8641129,20.8242224 13.0451392,21.3636502 C16.5547146,22.9666312 38.5131382,37.0125708 52.4157976,25.0909579 C66.3184571,13.169345 66.2652536,0.222108407 68.9606839,0.222108407 C71.6561142,0.222108407 81.3145848,13.7420422 84.1628282,22.2819382 C85.8943541,27.4735773 86.9441634,33.0028127 87.3122559,38.8696442 C87.3801167,39.9512601 86.9504241,41.0044972 86.1460395,41.7282026 C71.9643039,54.4875194 57.1289576,60.0071817 41.6400006,58.2871894 C17.7209362,55.6310643 2.12810278,38.1649311 0.378150289,31.1854089 C-0.788484703,26.5323941 0.805060131,23.7682468 5.15878479,22.8929671 Z" id="Jacket-base" fill="url(#linearGradient-41)" fill-rule="nonzero"></path>
                                <path d="M65.1574418,55.1425782 C64.4539436,55.4166966 63.7489711,55.6744853 63.0425243,55.915944 L62.8710958,55.2743177 L60.3440608,55.9533891 C59.7459282,56.1141208 59.131122,55.7581378 58.9708529,55.1582787 C58.8105837,54.5584196 59.1655422,53.9418389 59.7636748,53.7811071 L62.2907098,53.1020358 L61.6135928,50.5677068 C61.5034789,50.1555697 61.6365764,49.7355392 61.9246524,49.4608807 C62.2897727,49.3761871 62.634106,49.2834427 62.9591399,49.1832597 C63.345237,49.2768627 63.6695775,49.5737655 63.7796228,49.9856456 L64.4567398,52.5199746 L66.9837748,51.8409032 C67.5819075,51.6801714 68.1967136,52.0361545 68.3569828,52.6360135 C68.5172519,53.2358726 68.1622934,53.8524534 67.5641608,54.0131851 L65.0371258,54.6922565 L65.1574418,55.1425782 Z M18.7128576,44.8355442 C16.4002196,44.8355442 14.5254561,42.9553694 14.5254561,40.6360563 C14.5254561,38.3167432 16.4002196,36.4365685 18.7128576,36.4365685 C21.0254956,36.4365685 22.9002591,38.3167432 22.9002591,40.6360563 C22.9002591,42.9553694 21.0254956,44.8355442 18.7128576,44.8355442 Z M18.7128576,42.3158515 C19.6379128,42.3158515 20.3878182,41.5637816 20.3878182,40.6360563 C20.3878182,39.7083311 19.6379128,38.9562612 18.7128576,38.9562612 C17.7878024,38.9562612 17.037897,39.7083311 17.037897,40.6360563 C17.037897,41.5637816 17.7878024,42.3158515 18.7128576,42.3158515 Z M45.4115196,35.7648774 L47.2614376,37.6201349 C47.6993011,38.0592622 47.6993011,38.7712283 47.2614376,39.2103556 C46.8235741,39.649483 46.1136571,39.649483 45.6757936,39.2103556 L43.8258756,37.3550981 L41.9759576,39.2103556 C41.5380941,39.649483 40.8281771,39.649483 40.3903136,39.2103556 C39.9524501,38.7712283 39.9524501,38.0592622 40.3903136,37.6201349 L42.2402316,35.7648774 L40.3903136,33.9096198 C39.9524501,33.4704925 39.9524501,32.7585264 40.3903136,32.3193991 C40.8281771,31.8802717 41.5380941,31.8802717 41.9759576,32.3193991 L43.8258756,34.1746566 L45.6757936,32.3193991 C46.1136571,31.8802717 46.8235741,31.8802717 47.2614376,32.3193991 C47.6993011,32.7585264 47.6993011,33.4704925 47.2614376,33.9096198 L45.4115196,35.7648774 Z M71.0415268,15.9708937 L72.8914448,17.8261513 C73.3293083,18.2652786 73.3293083,18.9772447 72.8914448,19.416372 C72.4535813,19.8554993 71.7436643,19.8554993 71.3058008,19.416372 L69.4558828,17.5611145 L67.6059648,19.416372 C67.1681013,19.8554993 66.4581843,19.8554993 66.0203208,19.416372 C65.5824573,18.9772447 65.5824573,18.2652786 66.0203208,17.8261513 L67.8702388,15.9708937 L66.0203208,14.1156362 C65.5824573,13.6765089 65.5824573,12.9645428 66.0203208,12.5254155 C66.4581843,12.0862881 67.1681013,12.0862881 67.6059648,12.5254155 L69.4558828,14.380673 L71.3058008,12.5254155 C71.7436643,12.0862881 72.4535813,12.0862881 72.8914448,12.5254155 C73.3293083,12.9645428 73.3293083,13.6765089 72.8914448,14.1156362 L71.0415268,15.9708937 Z M37.0362192,55.3929981 C34.5100835,55.3929981 32.4622459,53.3392498 32.4622459,50.8058228 C32.4622459,48.2723958 34.5100835,46.2186474 37.0362192,46.2186474 C39.5623548,46.2186474 41.6101924,48.2723958 41.6101924,50.8058228 C41.6101924,53.3392498 39.5623548,55.3929981 37.0362192,55.3929981 Z M37.0362192,52.6406929 C38.0466734,52.6406929 38.8658084,51.8191936 38.8658084,50.8058228 C38.8658084,49.792452 38.0466734,48.9709526 37.0362192,48.9709526 C36.0257649,48.9709526 35.2066299,49.792452 35.2066299,50.8058228 C35.2066299,51.8191936 36.0257649,52.6406929 37.0362192,52.6406929 Z M61.8851596,37.7774911 C59.359024,37.7774911 57.3111864,35.7237427 57.3111864,33.1903157 C57.3111864,30.6568887 59.359024,28.6031403 61.8851596,28.6031403 C64.4112953,28.6031403 66.4591329,30.6568887 66.4591329,33.1903157 C66.4591329,35.7237427 64.4112953,37.7774911 61.8851596,37.7774911 Z M61.8851596,35.0251858 C62.8956139,35.0251858 63.7147489,34.2036865 63.7147489,33.1903157 C63.7147489,32.1769449 62.8956139,31.3554455 61.8851596,31.3554455 C60.8747054,31.3554455 60.0555704,32.1769449 60.0555704,33.1903157 C60.0555704,34.2036865 60.8747054,35.0251858 61.8851596,35.0251858 Z" id="Texture-" fill="#7DE9A2" fill-rule="nonzero"></path>
                                <path d="M34.5677069,29.545181 C38.6272687,30.1090379 42.8121689,29.9570774 46.7053927,28.4849611 C45.843275,32.1716465 43.82995,35.8506702 40.6654179,39.5220323 C31.8715279,49.7243472 5.1315538,39.7716873 2.58903368,35.2238296 C0.0465135504,30.6759719 3.18016949,23.4353061 8.29544567,22.3869367 C10.0783206,22.0215387 11.234508,30.7755709 13.9780921,32.0210635 C19.1061708,34.3490345 26.5671523,30.1873266 31.4152938,30.1873266 C32.5881359,30.1873266 33.6389402,29.9732781 34.5677069,29.545181 L34.5677069,29.545181 Z" id="Shedow" fill="#52C47D" fill-rule="nonzero" opacity="0.5"></path>
                                <path d="M84.1686285,22.2993384 C85.8966988,27.4859313 86.9445745,33.0093666 87.3122559,38.8696442 C87.3801167,39.9512601 86.9504241,41.0044972 86.1460395,41.7282026 C71.9643039,54.4875194 57.1289576,60.0071817 41.6400006,58.2871894 C31.0127687,57.107074 22.0291529,53.0034306 15.1729949,48.1949176 C15.4597587,48.3093305 15.7481014,48.4270464 16.0380215,48.5480641 C43.2585166,59.910377 33.2531454,49.2858766 53.7053012,50.0236891 C74.157457,50.7615017 65.0349127,39.8418763 74.7460082,37.1857512 C81.1390159,35.4371711 84.2798893,30.4750335 84.1686285,22.2993384 L84.1686285,22.2993384 Z" id="Path" fill="url(#linearGradient-42)" fill-rule="nonzero"></path>
                                <path d="M68.4190823,4.57443765 C61.8469268,22.0851882 52.4791528,31.3324385 40.3157603,32.3161886" id="Texture" stroke="#5FCC89" stroke-width="0.5"></path>
                                <path d="M64.0085977,24.6715395 L64.0085927,24.671545 C63.9273706,24.5976487 63.8639924,24.5061749 63.823264,24.40406 C63.6751078,24.0326005 63.8552643,23.6110221 64.2256547,23.4624383 L64.9791798,23.1601583 C65.2027541,23.0704704 65.4531564,23.0762625 65.6723698,23.1761926 L70.6820775,25.4599051 C71.3556891,25.766976 71.7669345,26.4627021 71.7122743,27.2027449 L71.2627548,33.2887736 C71.2341787,33.6756653 70.9577808,33.9988365 70.5808521,34.0860711 L70.1874313,34.1771225 C70.1847632,34.17774 70.1820922,34.1783451 70.1794184,34.1789377 C69.7033309,34.2844516 69.232096,33.9829284 69.1268857,33.5054667 L69.1268898,33.5054658 C68.7118804,31.622084 68.0878937,29.9743081 67.2549297,28.562138 C66.4596742,27.2138971 65.3775635,25.9170309 64.0085977,24.6715395 Z" id="texture" stroke="#5FCC89" stroke-width="0.5"></path>
                                <ellipse id="texture" fill="#5FCC89" cx="70.5255154" cy="26.8223397" rx="1" ry="1"></ellipse>
                                <ellipse id="texture" fill="#48C172" cx="10.1595886" cy="20.5174155" rx="1" ry="1"></ellipse>
                                <path d="M68.4190823,4.57443765 C77.7378104,14.510313 82.9857257,26.6596259 84.1628282,41.0223763" id="Texture" stroke="#48C172" stroke-width="0.5" stroke-linecap="round" stroke-linejoin="round" stroke-dasharray="1.812282644970253,3.624565289940506"></path>
                            </g>
                            <g id="Hand" transform="translate(53.558163, 37.185751)">
                                <path d="M39.5203412,17.0690169 L39.2154033,11.4269551 C38.2814128,9.9680791 37.8144175,8.47593495 37.8144175,6.95052268 C37.8144175,4.75798392 35.4337142,3.60898479 36.1198813,2.96142545 C36.2581454,2.83094092 36.8417674,2.71842237 37.5805954,2.96142545 C38.2546041,3.18310924 39.0833522,5.12195547 39.8039546,5.45182978 C40.1145391,5.59400787 40.4739081,4.53260963 40.6974436,3.84828865 C40.8655121,3.3337719 41.0062767,2.27610816 41.0062767,2.01333098 C41.0062767,1.7505538 40.6974436,0.566645194 40.6974436,0.311585254 C41.8745482,-0.225837967 44.1580237,1.55407224 44.4441019,2.72279262 C44.7851848,4.11622447 44.3147718,6.40094072 43.0328631,9.57694134 L43.727212,16.5186056 L39.5203412,17.0690169 Z" fill="url(#linearGradient-43)" fill-rule="nonzero"></path>
                                <path d="M38.5707987,13.6795133 C36.9649779,23.1360673 33.6814155,27.8643444 28.7201117,27.8643444 C21.278156,27.8643444 10.3511576,19.0926052 5.23588139,20.1409746 C0.120605202,21.189344 -1.13058894,25.6588467 1.41193118,30.2067044 C3.95445131,34.7545621 30.6944254,44.707222 39.4883154,34.5049071 C45.3509087,27.7033638 47.2624384,20.8755248 45.2229046,14.02139 C44.3670497,13.1632778 43.3664404,12.7047894 42.2210766,12.6459249 C41.0757128,12.5870603 39.8589535,12.9315898 38.5707987,13.6795133 Z" id="Sleeve" fill="url(#linearGradient-44)" fill-rule="nonzero"></path>
                                <path d="M10.6812012,32.7603659 C8.1550656,32.7603659 6.10722803,30.7066175 6.10722803,28.1731905 C6.10722803,25.6397635 8.1550656,23.5860152 10.6812012,23.5860152 C13.2073369,23.5860152 15.2551745,25.6397635 15.2551745,28.1731905 C15.2551745,30.7066175 13.2073369,32.7603659 10.6812012,32.7603659 Z M10.6812012,30.0080607 C11.6916555,30.0080607 12.5107905,29.1865613 12.5107905,28.1731905 C12.5107905,27.1598197 11.6916555,26.3383204 10.6812012,26.3383204 C9.67074699,26.3383204 8.85161196,27.1598197 8.85161196,28.1731905 C8.85161196,29.1865613 9.67074699,30.0080607 10.6812012,30.0080607 Z" id="Shape" fill="url(#linearGradient-45)" fill-rule="nonzero" style="mix-blend-mode: overlay;" opacity="0.395870536"></path>
                                <path d="M3.97272091,25.3807508 C18.2941346,32.8572511 28.4956895,34.8247511 34.5773857,31.283251 C40.6590819,27.7417509 43.1113788,21.9376257 41.9342763,13.8708755" id="Texture" stroke="#5FCC89" stroke-width="0.5"></path>
                            </g>
                        </g>
                        <g id="Chart" transform="translate(115.623632, 54.006022)">
                            <path d="M0.719543265,9.50151043 L35.5872547,0.17945518 C35.9029417,0.0950547053 36.2274287,0.281981904 36.3120168,0.596968763 L43.2042279,26.262006 C43.288816,26.5769929 43.1014733,26.9007603 42.7857863,26.9851608 L7.91807491,36.307216 C7.60238794,36.3916165 7.27790091,36.2046893 7.19331284,35.8897024 L0.301101687,10.2246652 C0.216513618,9.90967831 0.403856294,9.58591091 0.719543265,9.50151043 Z" id="Char-base" fill="url(#linearGradient-46)" fill-rule="nonzero"></path>
                            <polygon id="Char-base" fill="url(#linearGradient-47)" points="36.0111945 4.03944781 41.907864 25.997313 8.18335624 35.0137271 2.2866867 13.0558619"></polygon>
                            <path d="M3.12356986,11.6095524 C2.80788289,11.6939529 2.48339585,11.5070257 2.39880779,11.1920388 C2.31421972,10.877052 2.50156239,10.5532846 2.81724936,10.4688841 C3.13293634,10.3844836 3.45742337,10.5714108 3.54201144,10.8863977 C3.62659951,11.2013845 3.43925683,11.5251519 3.12356986,11.6095524 Z" id="Char-base" fill="#F2F5FF" fill-rule="nonzero"></path>
                            <path d="M5.12417625,11.0746804 C4.80848928,11.1590809 4.48400225,10.9721537 4.39941418,10.6571668 C4.31482611,10.34218 4.50216879,10.0184126 4.81785576,9.93401208 C5.13354273,9.8496116 5.45802976,10.0365388 5.54261783,10.3515257 C5.6272059,10.6665125 5.43986322,10.9902799 5.12417625,11.0746804 Z" id="Char-base" fill="#F2F5FF" fill-rule="nonzero"></path>
                            <polygon id="Char-base" fill="url(#linearGradient-48)" fill-rule="nonzero" points="10.9084939 30.2631233 9.6443018 29.4963971 14.4939704 21.5356042 20.2141973 22.5600346 24.393075 14.0719 29.4497064 15.7042408 33.4460523 8.4167717 34.7438867 9.1253326 30.1596292 17.4848779 25.1562427 15.8697252 21.0503998 24.2095116 15.2311944 23.1673552"></polygon>
                        </g>
                    </g>
                </g>
            </g>
        </g>
    </g>
</svg>