<svg xmlns="http://www.w3.org/2000/svg" width="126" height="39" viewBox="0 0 126 39">
    <defs>
        <linearGradient id="ash5ka1rfa" x1="50%" x2="50%" y1="0%" y2="100%">
            <stop offset="0%" stop-color="#254A72"/>
            <stop offset="100%" stop-color="#10243E"/>
        </linearGradient>
    </defs>
    <g fill="none" fill-rule="evenodd" transform="translate(0 -.102)">
        <path fill="url(#ash5ka1rfa)" fill-rule="nonzero" d="M58.823 7.376l4.283.018c.422 0 .825.142 1.21.426.384.285.635.638.75 1.061l2.855 9.275c.711 2.275 1.434 3.85 2.167 4.725.733.875 1.601 1.313 2.603 1.313L77.026 8.88c.116-.423.345-.776.686-1.06.341-.285.723-.427 1.144-.427h4.596c.363 0 .632.116.806.35.174.233.261.426.261.58 0 .153-.014.28-.043.382l-5.707 20.431c-1.017 3.617-2.277 6.198-3.78 7.744-1.503 1.546-3.438 2.319-5.805 2.319l-.91-.005c-1.891-.02-3.262-.106-4.111-.258-.98-.175-1.594-.39-1.84-.645-.248-.255-.371-.55-.371-.886V35c0-.394.123-.718.37-.973.247-.256.567-.383.959-.383h.806l2.853.372c1.734 0 3.025-1.082 3.873-3.245.074-.188-3.082.06-5.746-3.277-2.665-3.338-2.83-4.42-4.022-8.24L57.8 8.688c-.044-.117-.066-.251-.066-.405 0-.153.091-.339.273-.557.181-.22.453-.336.816-.35zm38.919-.42c3.456 0 6.23.777 8.321 2.33 2.091 1.553 3.137 3.956 3.137 7.208v13.54c0 .394-.123.715-.37.963s-.567.372-.959.372h-4.204c-.392 0-.712-.128-.958-.383-.247-.255-.37-.572-.37-.952v-.678c-2.295 1.648-4.942 2.468-7.94 2.461-3-.007-5.465-.682-7.396-2.023-1.917-1.342-2.876-3.238-2.876-5.688 0-2.45.962-4.331 2.887-5.644 1.924-1.312 4.403-1.968 7.439-1.968h7.21c0-1.707-.356-2.895-1.067-3.566-.712-.67-1.957-1.006-3.736-1.006-1.66 0-2.86.384-3.596 1.153l-.151.17c-.719.883-2.982.583-5.002.193-2.02-.389-2.15-1.42-1.97-1.956 1.014-3.017 4.88-4.526 11.6-4.526zm-84.999 0c3.994 0 7.109 1.047 9.345 3.14 2.237 2.092 3.355 5.093 3.355 9v1.248c0 .394-.127.718-.381.973s-.577.383-.97.383H7.69c.145 1.794.657 3.099 1.535 3.916.879.816 2.284 1.225 4.215 1.225 1.932 0 3.253-.438 3.965-1.313.712-.875 2.075-.741 4.178-.446 2.103.295 2.577 1.407 2.51 1.759-.668 3.445-4.163 4.979-11.372 4.965-4.008 0-7.13-1.064-9.366-3.194C1.118 26.483 0 23.417 0 19.414s1.125-7.08 3.376-9.231 5.374-3.227 9.367-3.227zM35.66 0c.378 0 .694.128.948.383s.381.58.381.973v8.772c2.498-2.114 5.16-3.172 7.984-3.172s5.122.864 6.894 2.592c1.772 1.729 2.658 4.372 2.658 7.93v12.556c0 .38-.127.697-.381.952-.255.255-.578.383-.97.383h-4.858c-.377 0-.693-.128-.947-.383s-.381-.572-.381-.952V17.478c0-3.485-1.387-4.55-4.16-4.55-1.816 0-3.762 1.865-5.839 3.95v13.156c0 .38-.127.697-.381.952s-.57.383-.948.383h-4.88c-.377 0-.693-.128-.947-.383s-.38-.572-.38-.952V1.356c0-.394.126-.718.38-.973S30.402 0 30.78 0h4.88zm66.004 21.46h-6.688c-1.016 0-1.818.247-2.407.743-.588.496-.882 1.138-.882 1.925 0 .788.305 1.437.915 1.947.61.51 1.474.766 2.592.766 2.105 0 4.14-.582 6.103-1.744l.367-.225v-3.413zm-88.93-9.538c-3.217 0-4.913 1.72-5.087 5.162h10.13c-.146-3.441-1.827-5.162-5.044-5.162z"/>
        <circle cx="120.4" cy="14" r="5.6" fill="#1576D8"/>
    </g>
</svg>
