<svg xmlns="http://www.w3.org/2000/svg" width="126" height="39" viewBox="0 0 126 39">
    <path fill="#FFF" d="M58.823 7.338l4.283.018c.422 0 .825.141 1.21.424.384.283.635.635.75 1.056l2.855 9.228c.711 2.263 1.434 3.83 2.167 4.7.733.871 1.601 1.306 2.603 1.306l4.335-15.234c.116-.42.345-.773.686-1.056.341-.283.723-.424 1.144-.424h4.596c.363 0 .632.116.806.348.174.232.261.425.261.577 0 .152-.014.28-.043.38L78.769 28.99c-1.017 3.598-2.277 6.166-3.78 7.704C73.486 38.231 71.551 39 69.184 39l-.91-.005c-1.891-.02-3.262-.105-4.111-.256-.98-.174-1.594-.388-1.84-.642-.248-.254-.371-.548-.371-.882v-2.394c0-.391.123-.714.37-.968s.567-.38.959-.38h.806l2.853.37c1.734 0 3.025-1.077 3.873-3.229.074-.187-3.082.06-5.746-3.26-2.665-3.322-2.83-4.397-4.022-8.198L57.8 8.644c-.044-.116-.066-.25-.066-.403 0-.152.091-.337.273-.555.181-.217.453-.333.816-.348zm38.919-.417c3.456 0 6.23.772 8.321 2.318 2.091 1.545 3.137 3.935 3.137 7.17v13.472c0 .392-.123.711-.37.958-.247.246-.567.37-.959.37h-4.204c-.392 0-.712-.127-.958-.381-.247-.254-.37-.57-.37-.947v-.675c-2.295 1.64-4.942 2.456-7.94 2.449-3-.007-5.465-.678-7.396-2.013-1.917-1.335-2.876-3.221-2.876-5.659 0-2.437.962-4.309 2.887-5.615 1.924-1.306 4.403-1.958 7.439-1.958h7.21c0-1.698-.356-2.88-1.067-3.548-.712-.667-1.957-1.001-3.736-1.001-1.66 0-2.86.382-3.596 1.147l-.151.17c-.719.878-2.982.58-5.002.192-2.02-.387-2.15-1.413-1.97-1.946 1.014-3.002 4.88-4.503 11.601-4.503zm-84.999 0c3.994 0 7.109 1.04 9.345 3.123 2.237 2.082 3.355 5.067 3.355 8.955v1.241c0 .392-.127.715-.381.968-.254.254-.577.381-.97.381H7.69c.145 1.785.657 3.083 1.535 3.896.879.812 2.284 1.219 4.215 1.219 1.932 0 3.253-.436 3.965-1.306.712-.87 2.075-.737 4.178-.444 2.103.293 2.577 1.4 2.51 1.75-.668 3.427-4.163 4.953-11.372 4.94-4.008 0-7.13-1.06-9.366-3.177C1.118 26.348 0 23.297 0 19.315c0-3.983 1.125-7.044 3.376-9.184 2.251-2.14 5.374-3.21 9.367-3.21zM35.66 0c.378 0 .694.127.948.38.254.255.381.578.381.97v8.726c2.498-2.103 5.16-3.155 7.984-3.155s5.122.86 6.894 2.579c1.772 1.719 2.658 4.349 2.658 7.889v12.492c0 .377-.127.693-.381.947-.255.254-.578.38-.97.38h-4.858c-.377 0-.693-.126-.947-.38s-.381-.57-.381-.947V17.39c0-3.468-1.387-4.527-4.16-4.527-1.816 0-3.762 1.856-5.839 3.93v13.09c0 .376-.127.692-.381.946s-.57.38-.948.38h-4.88c-.377 0-.693-.126-.947-.38s-.38-.57-.38-.947V1.35c0-.391.126-.714.38-.968S30.402 0 30.78 0h4.88zm66.004 21.35h-6.688c-1.016 0-1.818.247-2.407.74-.588.493-.882 1.132-.882 1.915 0 .784.305 1.43.915 1.937.61.508 1.474.762 2.592.762 2.105 0 4.14-.579 6.103-1.735l.367-.224V21.35zM120.4 8.357c3.093 0 5.6 2.495 5.6 5.572s-2.507 5.571-5.6 5.571c-3.093 0-5.6-2.494-5.6-5.571 0-3.077 2.507-5.572 5.6-5.572zM12.732 11.861c-3.216 0-4.912 1.712-5.086 5.136h10.13c-.146-3.424-1.827-5.136-5.044-5.136z"/>
</svg>
