<svg xmlns="http://www.w3.org/2000/svg" width="14" height="14" viewBox="0 0 14 14">
    <g fill="none" fill-rule="evenodd">
        <g>
            <g>
                <g>
                    <path d="M0 0L24 0 24 24 0 24z" transform="translate(-39 -33) translate(34 28)"/>
                    <path fill="#183B56" fill-rule="nonzero" d="M10.7 11.993L5.267 6.56c-.357-.357-.357-.936 0-1.293.357-.356.936-.356 1.293 0l5.432 5.435 5.447-5.435c.357-.356.936-.356 1.293.001.356.357.356.936-.001 1.292l-5.446 5.435 5.444 5.445c.357.357.357.936 0 1.293-.358.356-.937.356-1.294 0l-5.444-5.447-5.432 5.42c-.357.357-.936.356-1.293 0-.356-.358-.356-.936.001-1.293l5.431-5.42z" transform="translate(-39 -33) translate(34 28)"/>
                </g>
            </g>
        </g>
    </g>
</svg>
