<svg xmlns="http://www.w3.org/2000/svg" width="790" height="56" viewBox="0 0 790 56">
    <g fill="none" fill-rule="evenodd">
        <g>
            <g>
                <g transform="translate(-500 -3881) translate(472 180) translate(28 3701)">
                    <rect width="790" height="56" fill="#183B56" rx="12"/>
                    <text fill="#FFF" font-family="Helvetica" font-size="20" letter-spacing=".2">
                        <tspan x="26" y="35">Designspace</tspan>
                    </text>
                    <g transform="translate(187 11)">
                        <rect width="110" height="34" fill="#183B56" rx="6"/>
                        <g>
                            <path d="M0 0L16 0 16 16 0 16z" transform="translate(12 9)"/>
                            <path fill="#FFF" fill-rule="nonzero" d="M13.139 6.697v6.047c0 1.091-.885 1.976-1.977 1.976H9.575c-.218 0-.395-.177-.395-.395v-1.96c0-.443-.355-.802-.79-.802h-.785c-.436 0-.79.359-.79.803v1.959c0 .218-.178.395-.396.395H4.838c-1.092 0-1.977-.885-1.977-1.976V6.697l-.925.81c-.165.144-.414.127-.558-.037-.144-.165-.127-.414.037-.558L7.74 1.378c.149-.13.371-.13.52 0l6.325 5.534c.164.144.181.393.037.558-.144.164-.393.18-.558.037l-.925-.81z" transform="translate(12 9)"/>
                        </g>
                        <text fill="#FFF" font-family="Helvetica" font-size="12" letter-spacing=".15">
                            <tspan x="38" y="21">Dashboard</tspan>
                        </text>
                    </g>
                    <g transform="translate(312 11)">
                        <rect width="95" height="34" fill="#183B56" rx="6"/>
                        <g>
                            <path d="M0 0L16 0 16 16 0 16z" transform="translate(12 9)"/>
                            <path fill="#FFF" fill-rule="nonzero" d="M4.697 1.92c.266 0 .52.11.702.306l2.005 2.152c.06.065.146.102.234.102H14.4c.177 0 .32.143.32.32v7.04c0 1.237-1.003 2.24-2.24 2.24H3.52c-1.237 0-2.24-1.003-2.24-2.24V3.928c0-1.11.899-2.008 2.008-2.008h1.409zm8.103.64c.845 0 1.563.546 1.82 1.305-.071-.016-.144-.025-.22-.025H7.778L6.585 2.56H12.8z" transform="translate(12 9)"/>
                        </g>
                        <text fill="#FFF" font-family="Helvetica" font-size="12" letter-spacing=".15">
                            <tspan x="38" y="21">Projects</tspan>
                        </text>
                    </g>
                    <g transform="translate(422 11)">
                        <rect width="84" height="34" fill="#183B56" rx="6"/>
                        <g>
                            <path d="M0 0L16 0 16 16 0 16z" transform="translate(12 9)"/>
                            <path d="M0 0L16 0 16 16 0 16z" transform="translate(12 9)"/>
                            <path fill="#FFF" fill-rule="nonzero" d="M3.58 3.04c-.039.153-.06.314-.06.48 0 .166.021.327.06.48H2.24c-.265 0-.48-.215-.48-.48s.215-.48.48-.48h1.34zM6.14 12c-.039.153-.06.314-.06.48 0 .166.021.327.06.48h-3.9c-.265 0-.48-.215-.48-.48s.215-.48.48-.48h3.9zm7.62 0c.265 0 .48.215.48.48s-.215.48-.48.48h-3.9c.039-.153.06-.314.06-.48 0-.166-.021-.327-.06-.48h3.9zM8.7 7.52c-.039.153-.06.314-.06.48 0 .166.021.327.06.48H2.24c-.265 0-.48-.215-.48-.48s.215-.48.48-.48H8.7zm5.06 0c.265 0 .48.215.48.48s-.215.48-.48.48h-1.34c.039-.153.06-.314.06-.48 0-.166-.021-.327-.06-.48h1.34zm0-4.48c.265 0 .48.215.48.48s-.215.48-.48.48H7.3c.039-.153.06-.314.06-.48 0-.166-.021-.327-.06-.48h6.46zM8 11.2c.707 0 1.28.573 1.28 1.28 0 .707-.573 1.28-1.28 1.28-.707 0-1.28-.573-1.28-1.28 0-.707.573-1.28 1.28-1.28zm2.56-4.48c.707 0 1.28.573 1.28 1.28 0 .707-.573 1.28-1.28 1.28-.707 0-1.28-.573-1.28-1.28 0-.707.573-1.28 1.28-1.28zM5.44 2.24c.707 0 1.28.573 1.28 1.28 0 .707-.573 1.28-1.28 1.28-.707 0-1.28-.573-1.28-1.28 0-.707.573-1.28 1.28-1.28z" transform="translate(12 9)"/>
                        </g>
                        <text fill="#FFF" font-family="Helvetica" font-size="12" letter-spacing=".15">
                            <tspan x="38" y="21">Issues</tspan>
                        </text>
                    </g>
                    <g transform="translate(521 11)">
                        <rect width="94" height="34" fill="#183B56" rx="6"/>
                        <g>
                            <path d="M0 0L16 0 16 16 0 16z" transform="translate(12 9)"/>
                            <path d="M0 0L16 0 16 16 0 16z" transform="translate(12 9)"/>
                            <path fill="#FFF" fill-rule="nonzero" d="M8.808 2.56c.152 0 .282.106.314.254l.217 1.033c.224.073.441.163.65.27l.885-.577c.127-.083.294-.065.401.042l1.143 1.143c.107.107.125.274.042.401l-.577.885c.107.209.197.426.27.65l1.033.217c.148.032.254.162.254.314v1.616c0 .152-.106.282-.254.314l-1.033.217c-.073.224-.163.441-.27.65l.577.885c.083.127.065.294-.042.401l-1.143 1.143c-.107.107-.274.125-.401.042l-.885-.577c-.209.107-.426.197-.65.27l-.217 1.033c-.032.148-.162.254-.314.254H7.192c-.152 0-.282-.106-.314-.254l-.217-1.033c-.224-.073-.441-.163-.65-.27l-.885.577c-.127.083-.294.065-.401-.042l-1.143-1.143c-.107-.107-.125-.274-.042-.401l.577-.885c-.107-.209-.197-.426-.27-.65l-1.033-.217c-.148-.032-.254-.162-.254-.314V7.192c0-.152.106-.282.254-.314l1.033-.217c.073-.224.163-.441.27-.65l-.577-.885c-.083-.127-.065-.294.042-.401l1.143-1.143c.107-.107.274-.125.401-.042l.885.577c.209-.107.426-.197.65-.27l.217-1.033c.032-.148.162-.254.314-.254h1.616zM8 5.76C6.763 5.76 5.76 6.763 5.76 8c0 1.237 1.003 2.24 2.24 2.24 1.237 0 2.24-1.003 2.24-2.24 0-1.237-1.003-2.24-2.24-2.24z" transform="translate(12 9)"/>
                            <path fill="#FFF" fill-rule="nonzero" d="M8 9.6c.884 0 1.6-.716 1.6-1.6 0-.884-.716-1.6-1.6-1.6-.884 0-1.6.716-1.6 1.6 0 .884.716 1.6 1.6 1.6z" transform="translate(12 9)"/>
                        </g>
                        <text fill="#FFF" font-family="Helvetica" font-size="12" letter-spacing=".15">
                            <tspan x="38" y="21">Settings</tspan>
                        </text>
                    </g>
                    <g transform="translate(630 11)">
                        <rect width="84" height="34" fill="#FFF" opacity=".1" rx="6"/>
                        <g>
                            <path d="M0 0H16V16H0z" transform="translate(12 9)"/>
                            <path fill="#FFF" fill-rule="nonzero" d="M7.161 10.756c.985.298 2.097.059 2.875-.72.778-.777 1.018-1.89.72-2.873l3.218-2.245c1.305 2.53.898 5.714-1.222 7.834-2.12 2.12-5.305 2.527-7.834 1.222l2.243-3.218zm3.511-8.924L8.32 5.12c-.854-.11-1.7.187-2.356.844-.656.655-.952 1.503-.844 2.356l-3.288 2.352C.77 8.216 1.241 5.255 3.248 3.248 5.255 1.241 8.216.77 10.672 1.832zM6.416 6.416c.875-.875 2.293-.875 3.168 0s.875 2.293 0 3.168-2.293.875-3.168 0-.875-2.293 0-3.168zm2.715.453c-.624-.625-1.638-.625-2.262 0-.625.624-.625 1.638 0 2.262.624.625 1.638.625 2.262 0 .625-.624.625-1.638 0-2.262z" transform="translate(12 9)"/>
                            <path fill="#FFF" d="M5.326 9.071c.14.352.353.68.638.965.174.175.365.322.567.442l-2.2 3.154c-.383-.25-.746-.544-1.083-.88-.445-.445-.814-.937-1.108-1.46l3.186-2.22zm1.995-1.75c.375-.375.983-.375 1.358 0 .375.375.375.983 0 1.358-.375.375-.983.375-1.358 0-.375-.375-.375-.983 0-1.358zm3.97-5.182c.524.295 1.016.664 1.46 1.11.337.336.631.7.881 1.083l-3.153 2.2c-.12-.203-.268-.394-.443-.568-.285-.286-.615-.499-.967-.64l2.223-3.185z" transform="translate(12 9)"/>
                        </g>
                        <text fill="#FFF" font-family="Helvetica" font-size="12" letter-spacing=".15">
                            <tspan x="38" y="21">Install</tspan>
                        </text>
                    </g>
                </g>
            </g>
        </g>
    </g>
</svg>
