<?xml version="1.0" encoding="UTF-8"?>
<svg width="118px" height="17px" viewBox="0 0 118 17" version="1.1" xmlns="http://www.w3.org/2000/svg" xmlns:xlink="http://www.w3.org/1999/xlink">
    <title>Samsung logo</title>
    <g id="[NEW-UPDATE-Landing]" stroke="none" stroke-width="1" fill="none" fill-rule="evenodd">
        <g id="Header" transform="translate(-150.000000, -170.000000)" fill="#B3BAC5">
            <path d="M214.706831,177.893994 C214.706831,177.893994 213.558785,177.195507 212.848897,176.925242 C212.848897,176.925242 210.651484,175.923158 210.215536,175.44639 C210.215536,175.44639 209.359104,174.652259 209.860592,173.729879 C209.860592,173.729879 210.070465,173.12631 210.975499,173.12631 C210.975499,173.12631 212.153737,173.190073 212.153737,174.142885 L212.153737,175.486966 L216.376247,175.486966 L216.368883,173.507435 C216.368883,173.507435 216.693634,170.2657 211.395246,170.122959 C211.395246,170.122959 207.227966,169.853418 206.032791,172.061914 C206.032791,172.061914 205.563705,172.554623 205.563705,174.27041 L205.563705,175.510152 C205.563705,175.510152 205.51584,176.940458 206.258129,177.862113 C206.258129,177.862113 206.677877,178.466406 207.71178,179.133013 C207.71178,179.133013 209.811253,180.245231 211.071231,180.882129 C211.071231,180.882129 212.342991,181.596557 212.175829,182.733411 C212.175829,182.733411 212.071997,183.900697 210.843684,183.852875 C210.843684,183.852875 209.720676,183.803604 209.720676,182.65878 L209.720676,181.315424 L205.22128,181.315424 L205.22128,183.266696 C205.22128,183.266696 205.095356,186.998242 210.876822,186.998242 C210.876822,186.998242 216.401284,187.108377 216.659024,183.168879 L216.659024,181.579892 C216.658287,181.579892 216.854169,179.165618 214.706831,177.893994 L214.706831,177.893994 Z M193.089113,170.58741 L191.675227,179.305461 L191.344584,179.305461 L189.994029,170.665664 L182.940803,170.665664 L182.587332,186.453364 L186.763448,186.453364 L186.813523,174.558065 L187.141957,174.558065 L189.355572,186.45119 L193.748926,186.45119 L195.935293,174.562412 L196.226171,174.562412 L196.327057,186.453364 L200.525266,186.453364 L200.073117,170.58741 L193.089113,170.58741 L193.089113,170.58741 Z M168.229768,170.653346 L165.451336,186.43525 L169.947049,186.43525 L171.5929,174.198677 L171.962572,174.198677 L173.607687,186.43525 L178.102664,186.43525 L175.324968,170.653346 L168.229768,170.653346 L168.229768,170.653346 Z M262.563905,177.676623 L262.563905,180.004673 L263.717106,180.004673 L263.717106,182.503722 C263.717106,183.72535 262.655955,183.747812 262.655955,183.747812 C261.365785,183.747812 261.414387,182.587047 261.414387,182.587047 L261.414387,173.942903 C261.414387,173.052404 262.559487,173.004582 262.559487,173.004582 C263.658194,173.004582 263.665558,174.066805 263.665558,174.066805 L263.665558,175.381179 L267.898377,175.381179 C268.03682,172.815469 267.516922,172.194511 267.516922,172.194511 C266.466818,169.874431 262.494684,170.001231 262.494684,170.001231 C256.390676,170.001231 257.068162,174.609509 257.068162,174.609509 L257.068162,182.967448 C257.199241,187.28952 263.214145,186.850429 263.315768,186.846806 C265.991105,186.555529 266.798934,185.718648 266.798934,185.718648 C267.542696,185.175219 267.73416,184.422388 267.73416,184.422388 C267.946979,183.984022 268,182.587047 268,182.587047 L268,177.676623 L262.563905,177.676623 L262.563905,177.676623 Z M248.533302,180.245231 L248.349202,180.245231 L244.053789,170.591757 L238.914463,170.591757 L238.914463,186.454813 L243.097207,186.454813 L242.846832,176.802789 L243.033877,176.802789 L247.483934,186.454813 L252.467144,186.454813 L252.467144,170.590308 L248.231379,170.590308 L248.533302,180.245231 L248.533302,180.245231 Z M228.704296,182.502273 C228.704296,182.502273 228.764681,183.804328 227.537841,183.804328 C227.537841,183.804328 226.24767,183.872438 226.24767,182.534878 L226.234415,170.601177 L221.646652,170.601177 L221.646652,182.439959 C221.646652,182.439959 221.176093,186.920768 227.602644,186.920768 C227.602644,186.920768 233.187491,186.985924 233.187491,182.645738 L233.187491,170.601901 L228.704296,170.601901 L228.704296,182.502273 L228.704296,182.502273 Z M159.483561,177.893994 C159.483561,177.893994 158.336988,177.195507 157.626364,176.925966 C157.626364,176.925966 155.430423,175.924608 154.994475,175.447115 C154.994475,175.447115 154.138043,174.651534 154.640267,173.731328 C154.640267,173.731328 154.849404,173.127759 155.753702,173.127759 C155.753702,173.127759 156.932676,173.190797 156.932676,174.143609 L156.932676,175.487691 L161.156659,175.487691 L161.148558,173.507435 C161.148558,173.507435 161.471101,170.2657 156.174922,170.123684 C156.174922,170.123684 155.775794,170.098324 155.190357,170.127307 C155.190357,170.127307 151.981868,170.296857 150.834559,172.028584 C150.827931,172.041626 150.818358,172.051045 150.811731,172.062639 C150.811731,172.062639 150.343381,172.554623 150.343381,174.271134 L150.343381,175.510877 C150.343381,175.510877 150.294779,176.941182 151.037805,177.862838 C151.037805,177.862838 151.457552,178.467131 152.491456,179.133737 C152.491456,179.133737 154.590192,180.245955 155.85017,180.882854 C155.85017,180.882854 157.123403,181.595833 156.954768,182.734136 C156.954768,182.734136 156.850936,183.901421 155.623359,183.853599 C155.623359,183.853599 154.500351,183.804328 154.500351,182.659505 L154.500351,181.315424 L150.000219,181.315424 L150.000219,183.268145 C150.000219,183.268145 149.874295,186.999691 155.655761,186.999691 C155.655761,186.999691 161.178751,187.109826 161.438699,183.170328 L161.438699,181.582791 C161.438699,181.581341 161.631636,179.165618 159.483561,177.893994 L159.483561,177.893994 Z" id="Samsung-logo"></path>
        </g>
    </g>
</svg>