<?xml version="1.0" encoding="UTF-8"?>
<svg width="117px" height="39px" viewBox="0 0 117 39" version="1.1" xmlns="http://www.w3.org/2000/svg" xmlns:xlink="http://www.w3.org/1999/xlink">
    <title>airbnb</title>
    <g id="[NEW-UPDATE-Landing]" stroke="none" stroke-width="1" fill="none" fill-rule="evenodd">
        <g id="59---SaaS-03" transform="translate(-881.000000, -637.000000)" fill="#B3BAC5">
            <g id="Partners" transform="translate(165.000000, 636.000000)">
                <g id="Item" transform="translate(660.000000, 0.110000)">
                    <g id="airbnb" transform="translate(56.870002, 1.210000)">
                        <path d="M61.085137,9.16142897 C61.085137,10.4866671 60.0448981,11.52381 58.715704,11.52381 C57.38651,11.52381 56.3462711,10.4866671 56.3462711,9.16142897 C56.3462711,7.83619082 57.38651,6.79904791 58.715704,6.79904791 C60.1026892,6.85666696 61.085137,7.89380987 61.085137,9.16142897 Z M51.4340321,13.8861911 C51.4340321,14.1166673 51.4340321,14.4623816 51.4340321,14.4623816 C51.4340321,14.4623816 50.3360022,13.0219053 47.9087782,13.0219053 C43.978987,13.0219053 40.9160615,16.0180959 40.9160615,20.1666675 C40.9160615,24.2576201 43.978987,27.3114298 47.9087782,27.3114298 C50.3360022,27.3114298 51.4340321,25.8133345 51.4340321,25.8133345 L51.4340321,26.447144 C51.4340321,26.7352393 51.6651963,26.9657155 51.9541515,26.9657155 L54.9014949,26.9657155 L54.9014949,13.3676196 C54.9014949,13.3676196 52.2431067,13.3676196 51.9541515,13.3676196 C51.6074052,13.3676196 51.4340321,13.5980958 51.4340321,13.8861911 Z M51.4340321,22.5290486 C50.9139127,23.3357153 49.8158828,24.0271439 48.4866887,24.0271439 C46.1750468,24.0271439 44.3835243,22.5866676 44.3835243,20.1090485 C44.3835243,17.6314293 46.1750468,16.1909531 48.4866887,16.1909531 C49.7580917,16.1909531 50.9139127,16.9400007 51.4340321,17.6890484 L51.4340321,22.5290486 Z M56.9819726,13.3676196 L60.4494355,13.3676196 L60.4494355,26.9080964 L56.9819726,26.9080964 L56.9819726,13.3676196 Z M108.820542,13.0219053 C106.451109,13.0219053 105.295288,14.4623816 105.295288,14.4623816 L105.295288,6.85666696 L101.827825,6.85666696 L101.827825,26.9080964 C101.827825,26.9080964 104.486213,26.9080964 104.775169,26.9080964 C105.064124,26.9080964 105.295288,26.6776202 105.295288,26.389525 L105.295288,25.7557154 L105.295288,25.7557154 C105.295288,25.7557154 106.393318,27.2538107 108.820542,27.2538107 C112.750333,27.2538107 115.813259,24.200001 115.813259,20.1090485 C115.813259,16.0180959 112.750333,13.0219053 108.820542,13.0219053 Z M108.242632,23.9695248 C106.913437,23.9695248 105.873199,23.2780962 105.295288,22.4714295 L105.295288,17.6314293 C105.815408,16.8823817 106.971229,16.133334 108.242632,16.133334 C110.554273,16.133334 112.345796,17.5738103 112.345796,20.0514294 C112.345796,22.5290486 110.554273,23.9695248 108.242632,23.9695248 Z M100.036303,18.8990484 L100.036303,26.9657155 L96.56884,26.9657155 L96.56884,19.3023818 C96.56884,17.0552388 95.8175564,16.1909531 93.9104518,16.1909531 C92.870213,16.1909531 91.7721831,16.7095245 91.0786905,17.5161912 L91.0786905,26.9657155 L87.6112277,26.9657155 L87.6112277,13.3676196 L90.3851979,13.3676196 C90.6741532,13.3676196 90.9053174,13.5980958 90.9053174,13.8861911 L90.9053174,14.4623816 C91.9455562,13.4252387 93.2747503,13.0219053 94.6039444,13.0219053 C96.1065116,13.0219053 97.3779147,13.4828577 98.4181535,14.3471435 C99.5739745,15.3266673 100.036303,16.5942864 100.036303,18.8990484 Z M79.1737348,13.0219053 C76.8043018,13.0219053 75.6484809,14.4623816 75.6484809,14.4623816 L75.6484809,6.85666696 L72.1810181,6.85666696 L72.1810181,26.9080964 C72.1810181,26.9080964 74.8394062,26.9080964 75.1283615,26.9080964 C75.4173167,26.9080964 75.6484809,26.6776202 75.6484809,26.389525 L75.6484809,25.7557154 L75.6484809,25.7557154 C75.6484809,25.7557154 76.7465108,27.2538107 79.1737348,27.2538107 C83.103526,27.2538107 86.1664515,24.200001 86.1664515,20.1090485 C86.2242425,16.0180959 83.161317,13.0219053 79.1737348,13.0219053 Z M78.5958243,23.9695248 C77.2666302,23.9695248 76.2263914,23.2780962 75.6484809,22.4714295 L75.6484809,17.6314293 C76.1686003,16.8823817 77.3244213,16.133334 78.5958243,16.133334 C80.9074662,16.133334 82.6989887,17.5738103 82.6989887,20.0514294 C82.6989887,22.5290486 80.9074662,23.9695248 78.5958243,23.9695248 Z M69.2336746,13.0219053 C70.2739135,13.0219053 70.851824,13.1947625 70.851824,13.1947625 L70.851824,16.4214293 C70.851824,16.4214293 67.9622716,15.4419054 66.1707491,17.5161912 L66.1707491,26.9657155 L62.7032863,26.9657155 L62.7032863,13.3676196 C62.7032863,13.3676196 65.3616745,13.3676196 65.6506297,13.3676196 C65.9395849,13.3676196 66.1707491,13.5980958 66.1707491,13.8861911 L66.1707491,14.4623816 C66.7486596,13.7133339 68.1356447,13.0219053 69.2336746,13.0219053 Z M33.1720611,25.6980964 C32.998688,25.237144 32.8253149,24.7761916 32.6519417,24.3728582 C32.3629865,23.7390486 32.0740312,23.1052391 31.8428671,22.5290486 L31.785076,22.5290486 C29.300061,17.1128579 26.6416728,11.6390481 23.8099115,6.22285741 L23.6943294,5.99238121 C23.4053741,5.47380976 23.1164189,4.89761926 22.8274637,4.32142876 C22.4807174,3.68761921 22.0761801,2.99619061 21.4982696,2.36238105 C20.3424486,0.921904802 18.6665083,0.1152381 16.9327769,0.1152381 C15.1412544,0.1152381 13.5231051,0.921904802 12.3094931,2.304762 C11.7893736,2.93857156 11.3848363,3.63000016 10.980299,4.26380971 C10.6913437,4.84000021 10.4023885,5.41619071 10.1134333,5.93476216 L9.99785118,6.16523836 C7.22388091,11.5814291 4.56549274,17.0552388 2.02268665,22.4714295 L1.96489561,22.5290486 C1.73373142,23.1052391 1.44477618,23.7390486 1.15582095,24.3728582 C0.982447804,24.7761916 0.809074662,25.1795249 0.63570152,25.6980964 C0.173373142,26.9657155 -1.2490009e-16,28.2333346 0.173373142,29.5585727 C0.577910473,32.2666681 2.42722399,34.513811 4.91223902,35.5509539 C5.83689578,35.9542873 6.81934358,36.1271444 7.85958243,36.1271444 C8.14853767,36.1271444 8.49528395,36.0695254 8.78423919,36.0695254 C9.99785118,35.8966682 11.2114632,35.5509539 12.4250752,34.8595253 C13.9276424,34.0528586 15.3146275,32.8428586 16.9327769,31.1142871 C18.5509262,32.8428586 19.9957024,34.0528586 21.4404785,34.8595253 C22.6540905,35.5509539 23.8677025,35.9542873 25.0813145,36.0695254 C25.3702698,36.1271444 25.717016,36.1271444 26.0059713,36.1271444 C27.0462101,36.1271444 28.0286579,35.9542873 28.9533147,35.5509539 C31.4961208,34.513811 33.2298522,32.209049 33.6343895,29.5585727 C33.8077627,28.2909536 33.6921806,27.0233345 33.1720611,25.6980964 Z M16.8749858,27.541906 C14.9100902,25.0642868 13.6386872,22.7595248 13.2341498,20.8580961 C13.0607767,20.0514294 13.0029856,19.3023818 13.1185677,18.6685722 C13.1763588,18.0923817 13.407523,17.5738103 13.6964782,17.1704769 C14.3899708,16.1909531 15.5457917,15.5571435 16.8749858,15.5571435 C18.2041799,15.5571435 19.4177919,16.133334 20.0534934,17.1704769 C20.3424486,17.6314293 20.5736128,18.0923817 20.6314039,18.6685722 C20.746986,19.3023818 20.6891949,20.0514294 20.5158218,20.8580961 C20.1112845,22.7595248 18.8398814,25.0642868 16.8749858,27.541906 Z M31.3227476,29.2704775 C31.0915834,31.1719061 29.8201804,32.7852395 28.0286579,33.4766681 C27.1617922,33.8223824 26.2371355,33.9376205 25.2546877,33.8223824 C24.3300309,33.7071443 23.4631652,33.4190491 22.4807174,32.9004776 C21.1515233,32.15143 19.8801203,31.056668 18.377553,29.3857156 C20.746986,26.447144 22.1917622,23.7966677 22.7696726,21.4342866 C23.0008368,20.3395247 23.0586279,19.3023818 22.9430458,18.380477 C22.7696726,17.4585722 22.4807174,16.6519055 21.960598,15.9028578 C20.8625681,14.2895244 18.9554635,13.3676196 16.8749858,13.3676196 C14.7945081,13.3676196 12.8874035,14.3471435 11.7893736,15.9028578 C11.2692542,16.6519055 10.980299,17.4585722 10.8069258,18.380477 C10.6335527,19.3023818 10.6913437,20.3395247 10.980299,21.4342866 C11.5004184,23.7966677 13.0029856,26.5047631 15.3724186,29.4433346 C13.8698513,31.1142871 12.5406573,32.209049 11.2692542,32.9580967 C10.3445975,33.4766681 9.41994071,33.7647634 8.49528395,33.8800015 C7.51283615,33.9952396 6.58817939,33.8223824 5.77910473,33.5342872 C3.98758226,32.7852395 2.71617922,31.1719061 2.48501503,29.3280965 C2.36943294,28.4061917 2.42722399,27.541906 2.83176132,26.5047631 C2.94734341,26.1590488 3.12071655,25.7557154 3.2940897,25.3523821 C3.52525388,24.7761916 3.81420912,24.142382 4.10316436,23.5661915 L4.1609554,23.5085724 C6.64597044,18.1500008 9.30435861,12.676191 12.1361199,7.31761936 L12.251702,7.08714316 C12.5406573,6.56857171 12.8296125,5.99238121 13.1185677,5.41619071 C13.407523,4.84000021 13.7542693,4.32142876 14.1588066,3.80285731 C14.9100902,2.93857156 15.950329,2.47761916 17.0483589,2.47761916 C18.1463888,2.47761916 19.1866277,2.93857156 19.9379113,3.80285731 C20.3424486,4.26380971 20.6891949,4.84000021 20.9781502,5.41619071 C21.2671054,5.93476216 21.5560606,6.51095266 21.8450159,7.08714316 L21.960598,7.31761936 C24.7345682,12.676191 27.3929564,18.1500008 29.8779714,23.5085724 L29.8779714,23.5661915 C30.1669267,24.142382 30.3980909,24.7761916 30.6870461,25.3523821 C30.8604192,25.8133345 31.0337924,26.1590488 31.1493745,26.5047631 C31.3227476,27.4266679 31.4383297,28.2909536 31.3227476,29.2704775 Z" id="Shape"></path>
                    </g>
                </g>
            </g>
        </g>
    </g>
</svg>