<?xml version="1.0" encoding="UTF-8"?>
<svg width="117px" height="40px" viewBox="0 0 117 40" version="1.1" xmlns="http://www.w3.org/2000/svg" xmlns:xlink="http://www.w3.org/1999/xlink">
    <title>google</title>
    <g id="[NEW-UPDATE-Landing]" stroke="none" stroke-width="1" fill="none" fill-rule="evenodd">
        <g id="59---SaaS-03" transform="translate(-661.000000, -636.000000)" fill="#B3BAC5">
            <g id="Partners" transform="translate(165.000000, 636.000000)">
                <g id="Item" transform="translate(440.000000, 0.000000)">
                    <g id="google" transform="translate(56.870002, 0.019928)">
                        <path d="M28.5886023,13.5520006 L15.0466328,13.5520006 L15.0466328,17.5450008 L24.6764778,17.5450008 C24.1949855,23.171501 19.5004361,25.6520011 15.1068193,25.6520011 C9.44928538,25.6520011 4.51398983,21.1750009 4.51398983,14.9435006 C4.51398983,8.83300038 9.20853926,4.11400018 15.1068193,4.11400018 C19.6809957,4.11400018 22.329203,7.0180003 22.329203,7.0180003 L25.0977835,4.11400018 C25.0977835,4.11400018 21.4865916,0.121000005 14.9262597,0.121000005 C6.56033189,0.0605000026 0.120373062,7.13900031 0.120373062,14.8225006 C0.120373062,22.324501 6.1992127,29.6450013 15.1670058,29.6450013 C23.0514414,29.6450013 28.8293484,24.2605011 28.8293484,16.2140007 C28.8293484,14.5200006 28.5886023,13.5520006 28.5886023,13.5520006 L28.5886023,13.5520006 Z" id="g_1_"></path>
                        <path d="M39.6027375,10.5875005 C34.0655766,10.5875005 30.0932656,14.9435006 30.0932656,20.0255009 C30.0932656,25.2285011 33.9452035,29.6450013 39.7231105,29.6450013 C44.9593387,29.6450013 49.1723959,25.7125011 49.1723959,20.1465009 C49.1122094,13.8545006 44.1769138,10.5875005 39.6027375,10.5875005 L39.6027375,10.5875005 Z M39.662924,14.3990006 C42.3713179,14.3990006 44.9593387,16.6375007 44.9593387,20.1465009 C44.9593387,23.655501 42.4315044,25.8940011 39.662924,25.8940011 C36.6535974,25.8940011 34.3063227,23.474001 34.3063227,20.0860009 C34.2461362,16.8190007 36.5934109,14.3990006 39.662924,14.3990006 L39.662924,14.3990006 Z" id="o_2_"></path>
                        <path d="M60.3069042,10.5875005 C54.7697433,10.5875005 50.7974323,14.9435006 50.7974323,20.0255009 C50.7974323,25.2285011 54.6493702,29.6450013 60.4272772,29.6450013 C65.6635054,29.6450013 69.8765626,25.7125011 69.8765626,20.1465009 C69.8163761,13.8545006 64.8810805,10.5875005 60.3069042,10.5875005 L60.3069042,10.5875005 Z M60.3670907,14.3990006 C63.0754846,14.3990006 65.6635054,16.6375007 65.6635054,20.1465009 C65.6635054,23.655501 63.1356711,25.8940011 60.3670907,25.8940011 C57.3577641,25.8940011 55.0104894,23.474001 55.0104894,20.0860009 C54.9503029,16.8190007 57.2975776,14.3990006 60.3670907,14.3990006 L60.3670907,14.3990006 Z" id="o_1_"></path>
                        <path d="M80.5897652,10.6480005 C75.47391,10.6480005 71.501599,15.1250007 71.501599,20.1465009 C71.501599,25.8335011 76.1359618,29.7055013 80.4693921,29.7055013 C83.177786,29.7055013 84.5620762,28.6770012 85.7056203,27.4065012 L85.7056203,29.2820013 C85.7056203,32.5490014 83.7194648,34.5455015 80.7101382,34.5455015 C77.8211847,34.5455015 76.376708,32.3675014 75.8350292,31.1575014 L72.1636508,32.6700014 C73.4275679,35.3925015 76.0155888,38.2360017 80.6499517,38.2360017 C85.7056203,38.2360017 89.5575583,35.0295015 89.5575583,28.3140012 L89.5575583,11.1925005 L85.5852472,11.1925005 L85.5852472,12.8260006 C84.5018897,11.4950005 82.8166668,10.6480005 80.5897652,10.6480005 L80.5897652,10.6480005 Z M80.9508843,14.3990006 C83.4185321,14.3990006 86.006553,16.5770007 86.006553,20.2070009 C86.006553,23.958001 83.4787186,25.9545011 80.8906978,25.9545011 C78.1823039,25.9545011 75.6544696,23.716001 75.6544696,20.2675009 C75.7146561,16.5165007 78.302677,14.3990006 80.9508843,14.3990006 L80.9508843,14.3990006 Z" id="g"></path>
                        <path d="M107.372771,10.5875005 C102.557849,10.5875005 98.5253514,14.3990006 98.5253514,20.0860009 C98.5253514,26.0755011 103.039341,29.6450013 107.794077,29.6450013 C111.766388,29.6450013 114.294223,27.4065012 115.738699,25.4705011 L112.42844,23.232001 C111.585829,24.5630011 110.141352,25.8335011 107.794077,25.8335011 C105.14587,25.8335011 103.942139,24.3815011 103.159714,22.929501 L115.859072,17.6055008 L115.197021,16.0325007 C113.933103,13.1285006 111.104336,10.5875005 107.372771,10.5875005 L107.372771,10.5875005 Z M107.493145,14.2780006 C109.238554,14.2780006 110.442285,15.1855007 111.04415,16.3350007 L102.618036,19.9045009 C102.136543,17.1215007 104.784751,14.2780006 107.493145,14.2780006 L107.493145,14.2780006 Z" id="e"></path>
                        <polygon id="l" points="92.5066983 29.1005013 96.659569 29.1005013 96.659569 1.02850004 92.5066983 1.02850004"></polygon>
                    </g>
                </g>
            </g>
        </g>
    </g>
</svg>