<?xml version="1.0" encoding="UTF-8"?>
<svg width="118px" height="34px" viewBox="0 0 118 34" version="1.1" xmlns="http://www.w3.org/2000/svg" xmlns:xlink="http://www.w3.org/1999/xlink">
    <title>netflix</title>
    <g id="[NEW-UPDATE-Landing]" stroke="none" stroke-width="1" fill="none" fill-rule="evenodd">
        <g id="59---SaaS-03" transform="translate(-441.000000, -639.000000)" fill="#B3BAC5">
            <g id="Partners" transform="translate(165.000000, 636.000000)">
                <g id="Item" transform="translate(220.000000, 0.110000)">
                    <g id="netflix" transform="translate(56.870002, 3.630000)">
                        <path d="M16.3204807,29.0576013 C14.5780806,29.3436013 12.8356806,29.4580013 10.9771205,29.6868013 L5.40144023,13.5564006 L5.40144023,30.3732013 C3.65904016,30.5448013 2.09088009,30.7736013 0.406560018,31.0596013 L0.406560018,0.22880001 L5.05296022,0.22880001 L11.3836805,17.7320008 L11.3836805,0.22880001 L16.3204807,0.22880001 L16.3204807,29.0576013 L16.3204807,29.0576013 Z M25.9617611,11.5544005 C27.8784012,11.5544005 30.7824013,11.4400005 32.5248014,11.4400005 L32.5248014,16.2448007 C30.3758413,16.2448007 27.8203212,16.2448007 25.9617611,16.3592007 L25.9617611,23.509201 C28.8076812,23.337601 31.7116814,23.108801 34.6156815,22.994401 L34.6156815,27.6276012 L21.0830409,28.6572012 L21.0830409,0.22880001 L34.6156815,0.22880001 L34.6156815,5.03360022 L25.9617611,5.03360022 C25.9617611,5.09080022 25.9617611,11.5544005 25.9617611,11.5544005 Z M52.7366423,5.09080022 L47.6836821,5.09080022 L47.6836821,27.2272012 C46.057442,27.2272012 44.3731219,27.2272012 42.8049619,27.2844012 L42.8049619,5.09080022 L37.7520016,5.09080022 L37.7520016,0.22880001 L52.7947223,0.22880001 C52.7366423,0.22880001 52.7366423,5.09080022 52.7366423,5.09080022 Z M60.6936026,11.2112005 L67.3728029,11.2112005 L67.3728029,16.0160007 L60.6936026,16.0160007 L60.6936026,26.9412012 L55.8729624,26.9412012 L55.8729624,0.22880001 L69.521763,0.22880001 L69.521763,5.03360022 L60.6936026,5.03360022 C60.6936026,5.09080022 60.6936026,11.2112005 60.6936026,11.2112005 Z M77.4787234,22.708401 C80.2665635,22.765601 83.0544036,22.994401 85.7841637,23.108801 L85.7841637,27.8564012 C81.4281635,27.5704012 77.0721633,27.3416012 72.6000031,27.2272012 L72.6000031,0.22880001 L77.4787234,0.22880001 L77.4787234,22.708401 L77.4787234,22.708401 Z M89.9078439,28.1996012 C91.476004,28.3140012 93.102244,28.3712012 94.7284841,28.5428012 L94.7284841,0.22880001 L89.9078439,0.22880001 L89.9078439,28.1996012 Z M116.101925,0.22880001 L109.887365,14.8720006 L116.101925,31.0024013 C114.243365,30.7736013 112.442885,30.4304013 110.584325,30.1444013 L107.099525,21.2212009 L103.498564,29.4008013 C101.756164,29.1148013 100.013764,29.0004013 98.2713643,28.7716012 L104.544005,14.7004006 L98.8521643,0.22880001 L104.079365,0.22880001 L107.273765,8.29400036 L110.700485,0.22880001 L116.101925,0.22880001 L116.101925,0.22880001 Z" id="Shape"></path>
                    </g>
                </g>
            </g>
        </g>
    </g>
</svg>