<?xml version="1.0" encoding="UTF-8"?>
<svg width="117px" height="27px" viewBox="0 0 117 27" version="1.1" xmlns="http://www.w3.org/2000/svg" xmlns:xlink="http://www.w3.org/1999/xlink">
    <title>uber</title>
    <g id="[NEW-UPDATE-Landing]" stroke="none" stroke-width="1" fill="none" fill-rule="evenodd">
        <g id="59---SaaS-03" transform="translate(-1101.000000, -643.000000)" fill="#B3BAC5">
            <g id="Partners" transform="translate(165.000000, 636.000000)">
                <g id="Item" transform="translate(880.000000, 0.110000)">
                    <g id="uber" transform="translate(56.870002, 7.260000)">
                        <path d="M18.2041799,0.886395387 L18.2041799,14.5368844 C18.2041799,19.0870473 16.2392843,20.9780242 11.6160005,20.9780242 C6.99271672,20.9780242 5.02782111,19.0870473 5.02782111,14.5368844 L5.02782111,0.295465129 L0.577910473,0.295465129 C0.173373142,0.295465129 0,0.472744207 0,0.886395387 L0,14.7141634 C0,22.3371638 4.73886588,24.9963499 11.6160005,24.9963499 C18.4931351,24.9963499 23.232001,22.3371638 23.232001,14.7141634 L23.232001,0.295465129 L18.7820904,0.295465129 C18.4353441,0.295465129 18.2041799,0.472744207 18.2041799,0.886395387" id="Fill-1"></path>
                        <path d="M82.7567797,4.25469786 C83.103526,4.25469786 83.2768991,4.13651181 83.3924812,3.84104668 L84.6638843,0.590930258 C84.7216753,0.413651181 84.6638843,0.295465129 84.4905111,0.295465129 L66.5752865,0.295465129 C64.8993461,0.295465129 64.2636446,0.827302361 64.2636446,2.00916288 L64.2636446,23.1644661 C64.2636446,24.1690476 64.725973,24.5826987 66.055167,24.5826987 L82.7567797,24.5826987 C83.103526,24.5826987 83.2768991,24.4645127 83.3924812,24.1690476 L84.6638843,20.9189311 C84.7216753,20.7416521 84.6638843,20.623466 84.4905111,20.623466 L69.1758836,20.623466 L69.1758836,16.3096751 C69.1758836,14.8323495 69.9849583,14.1232332 72.123227,14.1232332 L78.7691974,14.1232332 C79.1159437,14.1232332 79.2893169,14.0050471 79.404899,13.709582 L80.618511,10.5776516 C80.676302,10.4003725 80.618511,10.2821865 80.4451378,10.2821865 L69.1180925,10.2821865 L69.1180925,4.25469786 L82.7567797,4.25469786" id="Fill-2"></path>
                        <path d="M46.5217931,20.682559 L37.7375539,20.682559 L37.7375539,16.2505821 C37.7375539,14.7732565 38.5466285,14.0641401 40.6848973,14.0641401 L46.5217931,14.0641401 C49.2957633,14.0641401 50.104838,15.1869076 50.104838,17.3733496 C50.104838,19.6188846 49.2957633,20.682559 46.5217931,20.682559 Z M37.7375539,4.19560483 L45.5971363,4.19560483 C48.1977334,4.19560483 48.949017,5.20018627 48.949017,7.3275352 C48.949017,9.3957911 48.1977334,10.4594656 45.5971363,10.4594656 L37.7375539,10.4594656 L37.7375539,4.19560483 Z M51.2028679,11.7595121 C53.1677635,10.6958377 53.9768382,8.74576782 53.9768382,6.44113981 C53.9768382,1.06367446 49.7003007,0.295465129 45.25039,0.295465129 L35.0791657,0.295465129 C33.4032253,0.295465129 32.7675238,0.827302361 32.7675238,2.00916288 L32.7675238,23.1644661 C32.7675238,24.1690476 33.2298522,24.5826987 34.5590463,24.5826987 L46.9841214,24.5826987 C51.6651963,24.5826987 55.017077,22.6917219 55.017077,17.8460938 C55.0748681,14.9505355 53.8612561,12.5277215 51.2028679,11.7595121 L51.2028679,11.7595121 Z" id="Fill-3"></path>
                        <path d="M106.451109,11.5822331 L98.1869893,11.5822331 L98.1869893,4.19560483 L106.451109,4.19560483 C109.514035,4.19560483 110.207527,5.43655838 110.207527,7.85937243 C110.207527,10.3412795 109.571826,11.5822331 106.451109,11.5822331 Z M115.755468,24.1690476 L110.438691,14.8323495 C113.09708,14.1232332 115.235348,12.3504424 115.235348,7.80027941 C115.235348,1.89097683 111.652303,0.295465129 105.757617,0.295465129 L95.5863922,0.295465129 C93.9104518,0.295465129 93.2747503,0.827302361 93.2747503,2.00916288 L93.2747503,23.9917685 C93.2747503,24.4054197 93.4481235,24.5826987 93.8526608,24.5826987 L98.1869893,24.5826987 L98.1869893,17.4915356 C98.1869893,16.01421 98.996064,15.3050937 101.134333,15.3050937 L105.526452,15.3050937 L110.323109,24.1690476 C110.496482,24.4054197 110.612064,24.5826987 110.958811,24.5826987 L115.466512,24.5826987 C115.87105,24.5826987 115.87105,24.2872336 115.755468,24.1690476 L115.755468,24.1690476 Z" id="Fill-4"></path>
                    </g>
                </g>
            </g>
        </g>
    </g>
</svg>