<svg xmlns="http://www.w3.org/2000/svg" width="40" height="40" viewBox="0 0 40 40">
    <g fill="#0080FF" fill-rule="evenodd">
        <path d="M20.002 40v-7.752c8.21 0 14.582-8.137 11.43-16.773a11.588 11.588 0 0 0-6.917-6.913c-8.64-3.128-16.782 3.219-16.782 11.424H0C0 6.908 12.654-3.292 26.375.992c5.987 1.88 10.772 6.64 12.631 12.625C43.293 27.352 33.11 40 20.002 40z"/>
        <path d="M12.314 32.27h7.71v-7.706h-7.71v7.707zm-5.941 5.94h5.941v-5.94H6.373v5.94zm-4.966-5.94h4.967v-4.963H1.407v4.964z"/>
    </g>
</svg>
