<svg xmlns="http://www.w3.org/2000/svg" width="34" height="40" viewBox="0 0 34 40">
    <g fill="none" fill-rule="evenodd">
        <path fill="#95BF47" d="M28.858 7.454c.153 0 .305.128.335.321.03.225 4.14 29.558 4.14 29.558L21.613 40 0 35.727s2.77-22.65 2.892-23.422c.122-1.06.152-1.092 1.218-1.446.152-.064 1.522-.514 3.409-1.124C8.249 6.458 10.594 0 15.495 0c.639 0 1.37.353 1.978 1.189h.183c2.1 0 3.288 1.895 3.957 3.952.67-.225 1.096-.354 1.127-.354.152-.064.609-.128.822.097.243.224 2.252 2.345 2.252 2.345s2.892.225 3.044.225zM19.3 5.894c.389-.127.754-.248 1.096-.368-.457-1.51-1.157-2.795-2.253-2.923.244.803.426 1.83.426 3.116v.418c.252-.085.495-.165.73-.242h.001zm-2.496-3.067c.304.803.487 1.928.487 3.47v.225l-1.55.5c-.732.236-1.484.479-2.225.72.73-2.923 2.1-4.369 3.288-4.915zm-.822-1.22a1.035 1.035 0 0 0-.64-.226c-3.5 0-5.48 4.852-6.301 7.84.944-.29 1.948-.61 2.983-.964.7-3.92 2.405-5.88 3.958-6.65z"/>
        <path fill="#5E8E3E" fill-rule="nonzero" d="M28.858 7.454c-.152 0-3.044-.225-3.044-.225s-2.009-2.12-2.252-2.345a.57.57 0 0 0-.305-.161L21.613 40l11.72-2.667S29.223 8 29.193 7.807c-.03-.225-.213-.321-.335-.353z"/>
        <path fill="#FFF" fill-rule="nonzero" d="M17.625 14.297l-1.43 4.53s-1.279-.706-2.8-.706c-2.284 0-2.375 1.51-2.375 1.895 0 2.057 5.114 2.86 5.114 7.711 0 3.823-2.283 6.265-5.388 6.265-3.714 0-5.601-2.442-5.601-2.442l1.004-3.47s1.948 1.768 3.592 1.768c1.066 0 1.522-.9 1.522-1.543 0-2.698-4.2-2.827-4.2-7.26 0-3.728 2.526-7.358 7.67-7.358 1.918 0 2.892.61 2.892.61z"/>
    </g>
</svg>
