<svg xmlns="http://www.w3.org/2000/svg" width="20" height="24" viewBox="0 0 20 24">
    <g fill="none" fill-rule="evenodd">
        <g fill="#000" fill-rule="nonzero">
            <g>
                <g>
                    <g>
                        <path d="M16.293 12.729c.033 3.625 3.18 4.832 3.215 4.847-.026.085-.502 1.72-1.658 3.408-.998 1.46-2.035 2.913-3.667 2.944-1.605.03-2.12-.952-3.954-.952s-2.407.921-3.926.981c-1.576.06-2.776-1.578-3.783-3.032C.463 17.95-1.11 12.519 1.002 8.853 2.05 7.033 3.925 5.88 5.959 5.851c1.548-.03 3.009 1.04 3.955 1.04.945 0 2.72-1.287 4.586-1.098.781.033 2.974.316 4.382 2.377-.113.07-2.616 1.527-2.59 4.559m-3.014-8.904c.836-1.012 1.4-2.422 1.246-3.825-1.206.048-2.664.804-3.53 1.816-.775.896-1.454 2.33-1.27 3.706 1.344.104 2.717-.683 3.554-1.697" transform="translate(-580 -2224) translate(150 1452) translate(390 524) translate(40 248)"/>
                    </g>
                </g>
            </g>
        </g>
    </g>
</svg>
