<svg xmlns="http://www.w3.org/2000/svg" width="24" height="24" viewBox="0 0 24 24">
    <g fill="none" fill-rule="evenodd">
        <g fill-rule="nonzero">
            <g>
                <g>
                    <g>
                        <path fill="#4285F4" d="M23.517 12.265c0-.986-.08-1.706-.253-2.453H11.998v4.453h6.613c-.133 1.106-.853 2.773-2.453 3.893l-.023.149 3.562 2.759.247.025c2.266-2.094 3.573-5.173 3.573-8.826" transform="translate(-968 -2224) translate(150 1452) translate(780 524) translate(38 248)"/>
                        <path fill="#34A853" d="M11.998 23.997c3.24 0 5.96-1.067 7.946-2.906l-3.786-2.933c-1.013.706-2.373 1.2-4.16 1.2-3.172 0-5.865-2.094-6.825-4.987l-.141.012-3.704 2.867-.048.134c1.973 3.92 6.026 6.613 10.718 6.613" transform="translate(-968 -2224) translate(150 1452) translate(780 524) translate(38 248)"/>
                        <path fill="#FBBC05" d="M5.173 14.371c-.254-.746-.4-1.546-.4-2.373 0-.826.146-1.626.386-2.373l-.006-.159-3.75-2.912-.123.058C.467 8.24 0 10.065 0 11.998c0 1.933.467 3.76 1.28 5.386l3.893-3.013" transform="translate(-968 -2224) translate(150 1452) translate(780 524) translate(38 248)"/>
                        <path fill="#EB4335" d="M11.998 4.64c2.253 0 3.773.973 4.64 1.786l3.386-3.306C17.944 1.187 15.238 0 11.998 0 7.306 0 3.253 2.693 1.28 6.612l3.88 3.013c.973-2.893 3.666-4.986 6.838-4.986" transform="translate(-968 -2224) translate(150 1452) translate(780 524) translate(38 248)"/>
                    </g>
                </g>
            </g>
        </g>
    </g>
</svg>
