<svg width="142" height="31" viewBox="0 0 142 31" fill="none" xmlns="http://www.w3.org/2000/svg">
<g clip-path="url(#clip0_831_1891)">
<path d="M4.768 23.552H0.512V7.808H4.768V23.552ZM0 2.656C0 1.931 0.256 1.312 0.768 0.8C1.28 0.267 1.898 0 2.624 0C3.349 0 3.968 0.256 4.48 0.768C4.992 1.28 5.248 1.909 5.248 2.656C5.248 3.36 4.992 3.968 4.48 4.48C4.23949 4.72799 3.95073 4.92408 3.63152 5.05616C3.3123 5.18825 2.96942 5.25354 2.624 5.248C2.27858 5.25354 1.9357 5.18825 1.61648 5.05616C1.29727 4.92408 1.00851 4.72799 0.768 4.48C0.256 3.968 0 3.36 0 2.656ZM14.22 14.496V23.552H9.964V7.808H14.092V9.76C14.5392 8.99261 15.2087 8.37893 16.012 8C16.8286 7.59815 17.7269 7.39009 18.637 7.392C20.492 7.392 21.901 7.979 22.86 9.152C23.842 10.304 24.333 11.797 24.333 13.632V23.552H20.077V14.368C20.077 13.429 19.831 12.672 19.34 12.096C18.871 11.52 18.146 11.232 17.165 11.232C16.269 11.232 15.554 11.542 15.021 12.16C14.487 12.779 14.22 13.557 14.22 14.496ZM44.3 0.384V20.704C44.3 21.749 44.343 22.699 44.428 23.552H40.364C40.2512 22.9507 40.1976 22.3398 40.204 21.728C39.841 22.389 39.265 22.923 38.476 23.328C37.708 23.733 36.812 23.936 35.788 23.936C33.548 23.936 31.703 23.157 30.252 21.6C28.822 20.021 28.108 18.037 28.108 15.648C28.108 13.323 28.812 11.371 30.22 9.792C31.65 8.213 33.463 7.424 35.66 7.424C37.921 7.424 39.404 8.074 40.108 9.376V0.384H44.3ZM32.396 15.648C32.396 17.035 32.759 18.133 33.484 18.944C34.209 19.734 35.148 20.128 36.3 20.128C37.43 20.128 38.359 19.723 39.084 18.912C39.809 18.102 40.172 17.002 40.172 15.616C40.172 14.251 39.809 13.184 39.084 12.416C38.359 11.626 37.431 11.232 36.3 11.232C35.17 11.232 34.23 11.627 33.484 12.416C32.759 13.206 32.396 14.283 32.396 15.648ZM53.813 23.552H49.557V7.808H53.813V23.552ZM49.045 2.656C49.045 1.931 49.301 1.312 49.813 0.8C50.325 0.267 50.943 0 51.669 0C52.394 0 53.013 0.256 53.525 0.768C54.037 1.28 54.293 1.909 54.293 2.656C54.293 3.36 54.037 3.968 53.525 4.48C53.2845 4.72799 52.9957 4.92408 52.6765 5.05616C52.3573 5.18825 52.0144 5.25354 51.669 5.248C51.3236 5.25354 50.9807 5.18825 50.6615 5.05616C50.3423 4.92408 50.0535 4.72799 49.813 4.48C49.301 3.968 49.045 3.36 49.045 2.656ZM58.05 19.264C58.05 17.92 58.487 16.843 59.362 16.032C60.236 15.222 61.367 14.709 62.754 14.496L66.626 13.92C67.415 13.813 67.809 13.44 67.809 12.8C67.809 12.203 67.575 11.712 67.106 11.328C66.658 10.944 66.006 10.752 65.153 10.752C64.257 10.752 63.543 10.997 63.009 11.488C62.498 11.978 62.209 12.587 62.145 13.312L58.369 12.512C58.519 11.147 59.191 9.942 60.386 8.896C61.58 7.851 63.159 7.328 65.121 7.328C67.468 7.328 69.196 7.893 70.305 9.024C71.415 10.134 71.969 11.563 71.969 13.312V21.056C71.969 21.995 72.034 22.826 72.162 23.552H68.257C68.151 23.082 68.097 22.453 68.097 21.664C67.096 23.221 65.548 24 63.457 24C61.837 24 60.524 23.53 59.522 22.592C58.54 21.653 58.05 20.544 58.05 19.264ZM64.353 20.832C65.356 20.832 66.178 20.555 66.818 20C67.478 19.424 67.81 18.485 67.81 17.184V16.48L64.257 17.024C62.957 17.216 62.305 17.877 62.305 19.008C62.305 19.52 62.487 19.958 62.849 20.32C63.212 20.661 63.713 20.832 64.353 20.832Z" fill="black"/>
<g filter="url(#filter0_i_831_1891)">
<path d="M76.392 24.4175L80.232 23.3935C80.382 24.2685 80.787 24.9835 81.448 25.5375C82.109 26.0925 82.931 26.3695 83.912 26.3695C86.707 26.3695 88.104 24.9085 88.104 21.9855V20.8335C87.741 21.4095 87.187 21.8895 86.44 22.2735C85.693 22.6575 84.787 22.8495 83.72 22.8495C81.63 22.8495 79.88 22.1245 78.472 20.6735C77.085 19.2235 76.392 17.3985 76.392 15.2015C76.392 13.0685 77.085 11.2545 78.472 9.76148C79.859 8.26848 81.608 7.52148 83.72 7.52148C84.872 7.52148 85.832 7.73448 86.6 8.16148C87.368 8.56648 87.901 9.06848 88.2 9.66548V7.80948H92.296V21.8575C92.296 24.2255 91.613 26.1875 90.248 27.7455C88.883 29.3245 86.813 30.1135 84.04 30.1135C81.97 30.1135 80.232 29.5585 78.824 28.4495C77.437 27.3395 76.627 25.9965 76.392 24.4175ZM84.456 19.2015C85.544 19.2015 86.429 18.8385 87.112 18.1135C87.816 17.3885 88.168 16.4175 88.168 15.2015C88.168 14.0065 87.805 13.0465 87.08 12.3215C86.376 11.5965 85.501 11.2335 84.456 11.2335C83.368 11.2335 82.461 11.5965 81.736 12.3215C81.032 13.0465 80.68 14.0065 80.68 15.2015C80.68 16.4175 81.032 17.3885 81.736 18.1135C82.44 18.8385 83.346 19.2015 84.456 19.2015Z" fill="url(#paint0_linear_831_1891)"/>
<path d="M101.47 18.9761C102.259 19.7661 103.208 20.1601 104.318 20.1601C105.427 20.1601 106.366 19.7651 107.134 18.9761C107.923 18.1861 108.318 17.0881 108.318 15.6801C108.318 14.2721 107.923 13.1731 107.134 12.3841C106.366 11.5941 105.427 11.2001 104.318 11.2001C103.208 11.2001 102.259 11.5951 101.47 12.3841C100.702 13.1741 100.318 14.2721 100.318 15.6801C100.318 17.0881 100.702 18.1871 101.47 18.9761ZM98.398 9.69613C99.976 8.11713 101.95 7.32812 104.318 7.32812C106.686 7.32812 108.648 8.11813 110.206 9.69613C111.784 11.2751 112.574 13.2691 112.574 15.6801C112.574 18.0901 111.784 20.0851 110.206 21.6641C108.648 23.2431 106.686 24.0321 104.318 24.0321C101.95 24.0321 99.976 23.2421 98.398 21.6641C96.84 20.0851 96.062 18.0911 96.062 15.6801C96.062 13.2701 96.84 11.2751 98.398 9.69613Z" fill="url(#paint1_linear_831_1891)"/>
<path d="M120.829 23.5528H116.573V0.384766H120.829V23.5528Z" fill="url(#paint2_linear_831_1891)"/>
<path d="M141.034 0.384766V20.7048C141.034 21.7498 141.076 22.6998 141.162 23.5528H137.098C136.985 22.9515 136.931 22.3405 136.938 21.7288C136.575 22.3898 135.999 22.9238 135.21 23.3288C134.442 23.7338 133.546 23.9368 132.522 23.9368C130.282 23.9368 128.436 23.1578 126.986 21.6008C125.556 20.0218 124.842 18.0378 124.842 15.6488C124.842 13.3238 125.546 11.3718 126.954 9.79277C128.383 8.21377 130.196 7.42477 132.394 7.42477C134.655 7.42477 136.138 8.07477 136.842 9.37677V0.384766H141.034ZM129.13 15.6488C129.13 17.0358 129.492 18.1338 130.218 18.9448C130.943 19.7348 131.882 20.1288 133.034 20.1288C134.164 20.1288 135.092 19.7238 135.818 18.9128C136.543 18.1028 136.906 17.0028 136.906 15.6168C136.906 14.2518 136.543 13.1848 135.818 12.4168C135.092 11.6268 134.164 11.2328 133.034 11.2328C131.903 11.2328 130.964 11.6278 130.218 12.4168C129.492 13.2068 129.13 14.2838 129.13 15.6488Z" fill="url(#paint3_linear_831_1891)"/>
</g>
</g>
<defs>
<filter id="filter0_i_831_1891" x="76.392" y="0.384766" width="64.7701" height="31.7285" filterUnits="userSpaceOnUse" color-interpolation-filters="sRGB">
<feFlood flood-opacity="0" result="BackgroundImageFix"/>
<feBlend mode="normal" in="SourceGraphic" in2="BackgroundImageFix" result="shape"/>
<feColorMatrix in="SourceAlpha" type="matrix" values="0 0 0 0 0 0 0 0 0 0 0 0 0 0 0 0 0 0 127 0" result="hardAlpha"/>
<feOffset dy="2"/>
<feGaussianBlur stdDeviation="1"/>
<feComposite in2="hardAlpha" operator="arithmetic" k2="-1" k3="1"/>
<feColorMatrix type="matrix" values="0 0 0 0 1 0 0 0 0 1 0 0 0 0 1 0 0 0 0.49 0"/>
<feBlend mode="normal" in2="shape" result="effect1_innerShadow_831_1891"/>
</filter>
<linearGradient id="paint0_linear_831_1891" x1="107.301" y1="91.5535" x2="22.709" y2="15.3045" gradientUnits="userSpaceOnUse">
<stop stop-color="#D5A152"/>
<stop offset="1" stop-color="#FFD859"/>
</linearGradient>
<linearGradient id="paint1_linear_831_1891" x1="107.301" y1="91.5521" x2="22.709" y2="15.3031" gradientUnits="userSpaceOnUse">
<stop stop-color="#D5A152"/>
<stop offset="1" stop-color="#FFD859"/>
</linearGradient>
<linearGradient id="paint2_linear_831_1891" x1="107.301" y1="91.5528" x2="22.709" y2="15.3037" gradientUnits="userSpaceOnUse">
<stop stop-color="#D5A152"/>
<stop offset="1" stop-color="#FFD859"/>
</linearGradient>
<linearGradient id="paint3_linear_831_1891" x1="107.301" y1="91.5528" x2="22.709" y2="15.3038" gradientUnits="userSpaceOnUse">
<stop stop-color="#D5A152"/>
<stop offset="1" stop-color="#FFD859"/>
</linearGradient>
<clipPath id="clip0_831_1891">
<rect width="142" height="31" fill="white"/>
</clipPath>
</defs>
</svg>
