<svg xmlns="http://www.w3.org/2000/svg" width="24" height="24" viewBox="0 0 24 24">
    <g fill="none" fill-rule="evenodd">
        <g fill-rule="nonzero">
            <g>
                <g>
                    <g>
                        <path fill="#E74969" d="M3.84 0h16.32C22.28 0 24 1.72 24 3.84v16.32c0 2.12-1.72 3.84-3.84 3.84H3.84C1.72 24 0 22.28 0 20.16V3.84C0 1.72 1.72 0 3.84 0z" transform="translate(-968 -1884) translate(150 1452) translate(780 184) translate(38 248)"/>
                        <path fill="#FFF" d="M18.603 18.566h1.851v1.852h-1.851v-1.852zm-2.918-.69c0-2.114-4.834-.453-4.834-3.923 0-1.38 1.169-2.566 3.093-2.566 2.033 0 3.105 1.247 3.142 2.872h-1.449c-.012-.856-.585-1.54-1.693-1.54-1.01 0-1.631.428-1.631 1.198 0 1.906 4.871.428 4.871 3.897 0 1.576-1.364 2.603-3.434 2.603-2.302 0-3.19-1.466-3.239-2.884h1.462c.06.93.681 1.552 1.85 1.552 1.18 0 1.862-.428 1.862-1.21" transform="translate(-968 -1884) translate(150 1452) translate(780 184) translate(38 248)"/>
                    </g>
                </g>
            </g>
        </g>
    </g>
</svg>
