<svg width="58" height="15" viewBox="0 0 58 15" fill="none" xmlns="http://www.w3.org/2000/svg">
<g clip-path="url(#clip0_831_1899)">
<path d="M29.79 14.7506H26.76V0.140625H29.79V14.7506Z" fill="#197FB0"/>
<path d="M38.4199 3.69945C38.4199 3.69945 38.5399 3.69945 38.6599 3.71945V6.60945C38.4799 6.58945 38.3199 6.57945 38.1799 6.56945C38.0399 6.55945 37.9299 6.56945 37.8399 6.56945C36.6999 6.56945 35.9399 6.93945 35.5499 7.67945C35.3299 8.09945 35.2199 8.73945 35.2199 9.59945V14.7595H32.3799V3.94945H35.0799V5.82945C35.5199 5.10945 35.8999 4.61945 36.2199 4.34945C36.7499 3.90945 37.4299 3.68945 38.2799 3.68945C38.3299 3.68945 38.3799 3.68945 38.4099 3.68945L38.4199 3.69945Z" fill="#197FB0"/>
<path d="M40.2099 6.0593V4.0493H41.7199V1.0293H44.5099V4.0393H46.2599V6.0493H44.5099V11.7593C44.5099 12.1993 44.5699 12.4793 44.6799 12.5893C44.7899 12.6993 45.1399 12.7493 45.7099 12.7493C45.7999 12.7493 45.8899 12.7493 45.9799 12.7493C46.0799 12.7493 46.1699 12.7493 46.2599 12.7393V14.8493L44.9199 14.8993C43.5899 14.9493 42.6699 14.7193 42.1799 14.2093C41.8599 13.8893 41.6999 13.3893 41.6999 12.7093V6.0593H40.1899H40.2099Z" fill="#197FB0"/>
<path d="M55.8401 4.00945C56.3801 4.23945 56.8301 4.58945 57.1801 5.06945C57.4801 5.46945 57.6601 5.88945 57.7201 6.31945C57.7901 6.74945 57.8201 7.43945 57.8201 8.40945V14.7595H54.9401V8.17945C54.9401 7.59945 54.8401 7.12945 54.6401 6.76945C54.3901 6.26945 53.9001 6.01945 53.1801 6.01945C52.4601 6.01945 51.8801 6.26945 51.4901 6.76945C51.1101 7.26945 50.9101 7.97945 50.9101 8.90945V14.7595H48.0901V0.189453H50.9101V5.33945C51.3201 4.70945 51.7901 4.26945 52.3301 4.02945C52.8701 3.78945 53.4301 3.65945 54.0201 3.65945C54.6801 3.65945 55.2901 3.77945 55.8301 4.00945H55.8401Z" fill="#197FB0"/>
<path d="M10.5899 9.25016C10.0099 8.67016 9.05988 8.67016 8.47988 9.25016C7.40988 10.3002 5.75988 10.2902 4.70988 9.22016C4.12988 8.64016 3.17988 8.64016 2.58988 9.22016C1.99988 9.80016 2.00988 10.7502 2.58988 11.3402C3.16988 11.9302 4.11988 11.9202 4.69988 11.3402C5.76988 10.2902 7.41988 10.3002 8.46988 11.3702C9.04988 11.9502 9.99988 11.9502 10.5899 11.3702C11.1799 10.7902 11.1699 9.84016 10.5899 9.25016Z" fill="#197FB0"/>
<path d="M7.63005 6.29047C7.05005 5.71047 6.10005 5.71047 5.51005 6.29047C4.92005 6.87047 4.93005 7.82047 5.51005 8.41047C6.09005 9.00047 7.04005 8.99047 7.62005 8.41047C8.69005 7.36047 10.34 7.37047 11.39 8.44047C11.97 9.02047 12.92 9.02047 13.51 8.44047C14.1 7.86047 14.09 6.91047 13.51 6.32047C12.93 5.73047 11.98 5.74047 11.4 6.32047C10.33 7.37047 8.68005 7.36047 7.63005 6.29047Z" fill="#197FB0"/>
<path d="M2.58002 3.4004C2.00002 3.9804 2.00002 4.9304 2.58002 5.5204C3.16002 6.1104 4.11002 6.1004 4.70002 5.5204C5.75002 4.4504 7.36002 4.4404 8.43002 5.4904C9.02002 6.0704 9.96002 6.0604 10.54 5.4904C11.12 4.9204 11.12 3.9604 10.54 3.3704C9.96002 2.7804 9.01002 2.7904 8.42002 3.3704C7.37002 4.4404 5.76002 4.4504 4.69002 3.4004C4.10002 2.8204 3.16002 2.8304 2.58002 3.4004Z" fill="#197FB0"/>
<path d="M5.54988 12.1709C6.12988 11.5909 7.07988 11.5909 7.66988 12.1709C8.25988 12.7509 8.24988 13.7009 7.66988 14.2909C7.08988 14.8809 6.13988 14.8709 5.54988 14.2909C4.95988 13.7109 4.96988 12.7609 5.54988 12.1709ZM14.3199 5.52095C14.8999 6.10095 15.8499 6.10095 16.4399 5.52095C17.0299 4.94095 17.0199 3.99095 16.4399 3.40095C15.8599 2.81095 14.9099 2.82095 14.3199 3.40095C13.7299 3.98095 13.7399 4.93095 14.3199 5.52095ZM11.3499 2.55095C11.9299 3.13095 12.8799 3.13095 13.4699 2.55095C14.0599 1.97095 14.0499 1.02095 13.4699 0.430945C12.8899 -0.159054 11.9399 -0.149054 11.3499 0.430945C10.7599 1.01095 10.7699 1.96095 11.3499 2.55095ZM5.54988 0.440945C4.96988 1.02095 4.96988 1.97095 5.54988 2.56095C6.12988 3.15095 7.07988 3.14095 7.66988 2.56095C8.25988 1.98095 8.24988 1.03095 7.66988 0.440945C7.08988 -0.149054 6.13988 -0.139055 5.54988 0.440945ZM0.439883 6.31095C-0.140117 6.89095 -0.140117 7.84095 0.439883 8.43095C1.01988 9.02095 1.96988 9.01095 2.55988 8.43095C3.14988 7.85095 3.13988 6.90095 2.55988 6.31095C1.97988 5.72095 1.02988 5.73095 0.439883 6.31095ZM16.6299 6.31095C16.0499 6.89095 16.0499 7.84095 16.6299 8.43095C17.2099 9.02095 18.1599 9.01095 18.7499 8.43095C19.3399 7.85095 19.3299 6.90095 18.7499 6.31095C18.1699 5.72095 17.2199 5.73095 16.6299 6.31095ZM11.3499 12.1809C10.7699 12.7609 10.7699 13.7109 11.3499 14.3009C11.9299 14.8909 12.8799 14.8809 13.4699 14.3009C14.0599 13.7209 14.0499 12.7709 13.4699 12.1809C12.8899 11.5909 11.9399 11.6009 11.3499 12.1809ZM14.3199 9.21095C13.7399 9.79095 13.7399 10.7409 14.3199 11.3309C14.8999 11.9209 15.8499 11.9109 16.4399 11.3309C17.0299 10.7509 17.0199 9.80095 16.4399 9.21095C15.8599 8.62095 14.9099 8.63095 14.3199 9.21095Z" fill="#197FB0"/>
</g>
<defs>
<clipPath id="clip0_831_1899">
<rect width="57.82" height="14.9" fill="white"/>
</clipPath>
</defs>
</svg>
