<svg xmlns="http://www.w3.org/2000/svg" width="14" height="24" viewBox="0 0 14 24">
    <defs>
        <radialGradient id="88ckc305ta" cx="48.326%" cy="49.42%" r="6.591%" fx="48.326%" fy="49.42%" gradientTransform="scale(1 .55075) rotate(-19.101 1.681 .696)">
            <stop offset="0%"/>
            <stop offset="100%" stop-opacity="0"/>
        </radialGradient>
    </defs>
    <g fill="none" fill-rule="evenodd">
        <g fill-rule="nonzero">
            <g>
                <g>
                    <g>
                        <path fill="#B1060F" d="M8.526.07l-.01 5.281-.01 5.28-.433-1.225v-.003L7.51 21.158l.852 2.395c.003.003.318.022.698.041 1.15.057 2.577.18 3.662.314.251.032.465.047.48.035.016-.013.02-5.387.016-11.947L13.208.07H8.527zM.055.055v11.938c0 6.566.006 11.944.016 11.953.009.01.414-.031.905-.085.49-.053 1.166-.122 1.502-.15.516-.045 2.062-.142 2.238-.145.054 0 .057-.267.063-5.058l.01-5.057.373 1.056.132.374.563-11.752c-.12-.336-.056-.16-.192-.544C5.206 1.287 4.817.19 4.801.14L4.77.052H.055v.003z" transform="translate(-583 -2564) translate(150 1452) translate(390 864) translate(43 248)"/>
                        <path fill="url(#88ckc305ta)" d="M.055.055v6.701l4.72 12.522c0-.286 0-.443.004-.77l.01-5.057.373 1.056c2.075 5.884 3.19 9.04 3.197 9.046.003.003.318.022.698.041 1.15.057 2.577.18 3.662.314.251.032.465.047.48.035.01-.01.016-2.643.016-6.362L8.52 4.072l-.003 1.28-.01 5.28-.433-1.226-2.414-6.82C5.2 1.286 4.81.19 4.795.14L4.763.052H.055v.003z" transform="translate(-583 -2564) translate(150 1452) translate(390 864) translate(43 248)"/>
                        <path fill="#E50914" d="M.055.055l4.73 13.406v-.007l.374 1.056c2.078 5.881 3.194 9.037 3.2 9.043.003.003.318.022.698.041 1.15.057 2.577.18 3.662.314.248.032.465.047.477.035l-4.69-13.314v.003l-.433-1.226-2.414-6.82C5.2 1.286 4.81.19 4.795.14L4.763.052H2.41L.055.055z" transform="translate(-583 -2564) translate(150 1452) translate(390 864) translate(43 248)"/>
                    </g>
                </g>
            </g>
        </g>
    </g>
</svg>
