<svg width="1439" height="271" viewBox="0 0 1439 271" fill="none" xmlns="http://www.w3.org/2000/svg">
<path d="M149.66 145.37C134.38 141.18 119.79 136.94 114.66 128.97C103.66 111.78 119.1 88.2803 143.12 88.2803C157.51 88.2803 183.12 95.8503 189.88 125.55C190.948 120.592 191.218 115.494 190.68 110.45C196.24 112.83 200.41 101.45 185.68 92.1703C170.95 82.8903 171.97 74.8803 171.97 74.8803C171.97 74.8803 167.6 79.4503 169.78 83.8203C169.78 83.8203 159.78 78.4103 138.98 79.0503C120.31 79.6203 93.14 95.3903 94.87 125.55C96.41 152.35 122.49 165.09 166.01 175.42C182.28 179.29 196.21 186.85 202.7 194.7C210.12 203.7 203.7 219.23 190.7 213.48C177.47 207.61 119.51 154.37 103.89 187.21C103.89 187.21 118.16 175.92 136.89 191.82C155.28 207.42 174.47 222.59 190.61 229.68C185.78 230.52 166.02 235.27 125.78 206.31C77.99 171.91 56.21 178.53 46.78 190.75C30.8 181 21.28 181.05 0 185.37C0 185.37 19.42 182.03 41.68 202.78C63.94 223.53 71.99 230.24 71.99 230.24C51.06 225.55 20.42 216.18 12.89 230.07C12.89 230.07 26.62 220.53 68.3 240.45C109.98 260.37 124.72 270.25 152.18 270.25C179.64 270.25 227.01 252 227.01 208.81C227.01 168.59 197.88 158.61 149.66 145.37ZM88.73 221.54C70.59 206.85 58.03 197.69 48.28 191.54C54.63 190.21 72.65 188.4 91.4 204.42C115.21 224.76 146.21 245.99 163.73 248.42C163.73 248.51 132.51 257.03 88.73 221.55V221.54Z" fill="url(#paint0_linear_24614_38190)"/>
<path d="M174.98 178C176.31 178.31 177.68 178.66 179.08 179H179.17C185.3 173.36 191.54 167.84 197.31 161.85C184.85 155.5 168.82 150.69 149.67 145.44C134.38 141.24 119.8 136.98 114.67 129.01C109.83 121.46 110.11 112.71 113.97 105.25C109.564 112.398 107.469 120.729 107.97 129.11C109.29 152.11 128.67 164.75 161.58 174.36C163.04 174.75 164.58 175.13 166.09 175.48C169.09 176.18 171.93 176.98 174.72 177.93C174.81 177.94 174.897 177.964 174.98 178Z" fill="url(#paint1_linear_24614_38190)"/>
<path d="M197.54 214.67C205.72 213.48 208.73 201.98 202.75 194.74C196.25 186.91 182.33 179.35 166.07 175.47C162.07 174.53 158.23 173.55 154.53 172.57L164.98 149.77C182.98 155.05 197.57 160.43 208.07 168.2C220.1 178.02 214.36 213.24 197.54 214.67Z" fill="url(#paint2_linear_24614_38190)"/>
<path d="M226.39 199.48C222.72 217.7 205.93 226.83 190.72 229.66C185.201 227.152 179.879 224.231 174.8 220.92L187.32 211.54C188.435 212.262 189.598 212.907 190.8 213.47C203.74 219.24 210.17 203.68 202.8 194.69C200.223 191.716 197.232 189.126 193.92 187L196.74 168.37L199.81 162.99C214.8 171.08 224.08 181.89 226.39 199.48Z" fill="url(#paint3_linear_24614_38190)"/>
<path d="M163.51 248.55C162.05 248.91 152.89 250.77 138.43 247.47C136.94 248.422 135.197 248.903 133.43 248.85C125.6 248.75 118.19 246.85 110.79 244.85L101.79 256.69C120.92 265.75 133.68 270.23 152.18 270.23C171.31 270.23 200.09 261.38 215.76 241.41C196.25 252.71 176.7 251.59 163.51 248.55Z" fill="url(#paint4_linear_24614_38190)"/>
<path d="M132.14 245.77C108.99 239.05 106.83 239.77 72 230.24C71.9889 230.245 71.977 230.247 71.965 230.247C71.953 230.247 71.9411 230.245 71.93 230.24C70.99 229.4 62.59 222.3 41.72 202.82C36.5385 197.884 30.6422 193.758 24.23 190.58C29.3 190.3 42.1 191.39 48.96 192.02C58.61 198.14 71.02 207.19 88.75 221.6C105.32 234.99 120.15 242.13 132.14 245.77Z" fill="url(#paint5_linear_24614_38190)"/>
<path d="M432.33 102.59C451.523 121.777 461.12 144.927 461.12 172.04V253.9C461.158 256.046 460.745 258.175 459.908 260.151C459.071 262.127 457.828 263.905 456.26 265.37C454.774 266.924 452.985 268.157 451.003 268.993C449.022 269.829 446.89 270.25 444.74 270.23H444.21C442.06 270.25 439.928 269.829 437.947 268.993C435.965 268.157 434.176 266.924 432.69 265.37C431.117 263.908 429.869 262.131 429.026 260.155C428.184 258.179 427.766 256.048 427.8 253.9V245.62C409.213 262.06 387.563 270.277 362.85 270.27C335.75 270.27 312.603 260.674 293.41 241.48C274.217 222.287 264.62 199.14 264.62 172.04C264.62 144.934 274.217 121.784 293.41 102.59C312.603 83.397 335.75 73.8003 362.85 73.8003C389.983 73.8003 413.143 83.397 432.33 102.59ZM316.8 126.16C310.7 132.124 305.878 139.268 302.629 147.155C299.38 155.043 297.771 163.51 297.9 172.04C297.9 190.04 304.2 205.394 316.8 218.1C329.513 230.687 344.863 236.984 362.85 236.99C380.837 236.997 396.153 230.7 408.8 218.1C414.942 212.126 419.797 204.957 423.064 197.036C426.332 189.114 427.944 180.608 427.8 172.04C427.8 154.174 421.443 138.88 408.73 126.16C396.143 113.454 380.85 107.097 362.85 107.09C354.279 106.955 345.771 108.577 337.85 111.857C329.93 115.137 322.766 120.005 316.8 126.16Z" fill="#000333"/>
<path d="M521.38 0.0403065C523.534 0.0231134 525.669 0.433106 527.663 1.24656C529.657 2.06001 531.47 3.26078 532.997 4.77941C534.524 6.29803 535.735 8.10437 536.559 10.0939C537.384 12.0835 537.805 14.2167 537.8 16.3703V73.7603H570.18C572.329 73.7407 574.459 74.1618 576.439 74.9977C578.418 75.8336 580.206 77.0665 581.69 78.6203C583.254 80.1369 584.492 81.9569 585.328 83.9688C586.163 85.9806 586.579 88.142 586.55 90.3203V90.6803C586.593 92.8324 586.182 94.9695 585.345 96.9525C584.508 98.9355 583.262 100.72 581.69 102.19C580.206 103.744 578.418 104.977 576.439 105.813C574.459 106.649 572.329 107.07 570.18 107.05H537.8V219.18C537.762 221.524 538.204 223.85 539.1 226.015C539.996 228.181 541.327 230.139 543.01 231.77C544.672 233.468 546.664 234.808 548.864 235.706C551.064 236.603 553.425 237.041 555.8 236.99H570.19C572.338 236.971 574.467 237.392 576.446 238.226C578.426 239.06 580.214 240.29 581.7 241.84C583.264 243.357 584.502 245.177 585.337 247.189C586.173 249.201 586.589 251.362 586.56 253.54V253.9C586.592 256.05 586.171 258.181 585.325 260.157C584.479 262.133 583.227 263.91 581.65 265.37C580.166 266.924 578.378 268.157 576.399 268.993C574.419 269.829 572.289 270.25 570.14 270.23H555.8C549.072 270.267 542.402 268.972 536.176 266.42C529.951 263.868 524.291 260.109 519.525 255.36C514.758 250.611 510.978 244.966 508.403 238.75C505.828 232.533 504.508 225.869 504.52 219.14V16.3703C504.515 14.2286 504.932 12.1068 505.748 10.1264C506.563 8.14606 507.762 6.34599 509.274 4.82921C510.786 3.31244 512.582 2.10874 514.56 1.287C516.538 0.465261 518.658 0.0416148 520.8 0.0403065H521.38Z" fill="#000333"/>
<path d="M681.73 107.09C678.553 107.029 675.397 107.619 672.456 108.823C669.516 110.027 666.852 111.819 664.63 114.09C662.377 116.326 660.597 118.992 659.394 121.93C658.192 124.867 657.592 128.016 657.63 131.19C657.63 140.524 662.067 147.524 670.94 152.19C673.7 153.63 684.077 156.747 702.07 161.54C715.497 165.427 725.327 170.37 731.56 176.37C740.44 184.757 744.88 196.93 744.88 212.89C744.913 220.437 743.451 227.915 740.578 234.894C737.705 241.872 733.478 248.213 728.141 253.549C722.804 258.884 716.463 263.11 709.484 265.982C702.505 268.854 695.027 270.315 687.48 270.28H628.24C626.088 270.292 623.956 269.863 621.976 269.018C619.996 268.174 618.211 266.932 616.73 265.37C615.157 263.901 613.912 262.116 613.074 260.133C612.237 258.15 611.827 256.013 611.87 253.86V253.5C611.841 251.322 612.257 249.161 613.093 247.149C613.928 245.137 615.166 243.317 616.73 241.8C618.217 240.251 620.005 239.021 621.984 238.187C623.964 237.353 626.092 236.932 628.24 236.95H689.24C692.41 236.965 695.552 236.351 698.484 235.145C701.416 233.938 704.079 232.163 706.321 229.921C708.563 227.679 710.338 225.016 711.544 222.084C712.751 219.152 713.365 216.011 713.35 212.84C713.35 203.96 708.913 197.364 700.04 193.05C698 192.09 687.623 188.97 668.91 183.69C655.577 179.73 645.743 174.694 639.41 168.58C630.53 159.834 626.09 147.36 626.09 131.16C625.966 123.628 627.386 116.15 630.263 109.188C633.141 102.226 637.414 95.927 642.82 90.6803C654.1 79.4003 667.657 73.7603 683.49 73.7603H728.87C731.051 73.759 733.21 74.1879 735.225 75.0224C737.24 75.8569 739.07 77.0806 740.611 78.6236C742.152 80.1665 743.374 81.9982 744.206 84.0139C745.038 86.0296 745.464 88.1896 745.46 90.3703V90.7303C745.505 92.8818 745.096 95.0186 744.26 97.0017C743.425 98.9847 742.181 100.77 740.61 102.24C739.093 103.804 737.273 105.042 735.262 105.878C733.25 106.713 731.088 107.129 728.91 107.1L681.73 107.09Z" fill="#000333"/>
<path d="M915.8 78.4803C923.473 80.8803 927.31 86.097 927.31 94.1303V95.0303C927.384 97.6011 926.814 100.15 925.653 102.444C924.491 104.739 922.775 106.707 920.66 108.17C918.607 109.791 916.18 110.871 913.601 111.311C911.023 111.752 908.375 111.538 905.9 110.69C899.527 108.528 892.84 107.433 886.11 107.45C877.537 107.315 869.028 108.937 861.106 112.217C853.184 115.497 846.018 120.364 840.05 126.52C827.463 139.234 821.167 154.587 821.16 172.58C821.16 190.454 827.457 205.747 840.05 218.46C846.018 224.616 853.184 229.484 861.106 232.764C869.028 236.044 877.537 237.666 886.11 237.53C892.826 237.549 899.503 236.517 905.9 234.47C908.364 233.622 910.998 233.391 913.572 233.799C916.146 234.208 918.58 235.241 920.66 236.81C922.789 238.3 924.513 240.297 925.674 242.621C926.835 244.946 927.398 247.523 927.31 250.12C927.31 258.04 923.473 263.257 915.8 265.77C906.19 268.771 896.178 270.289 886.11 270.27C858.997 270.27 835.847 260.674 816.66 241.48C797.473 222.287 787.88 199.14 787.88 172.04C787.88 144.934 797.473 121.784 816.66 102.59C835.847 83.397 858.997 73.8003 886.11 73.8003C896.192 73.7829 906.213 75.3625 915.8 78.4803Z" fill="#000333"/>
<path d="M982.22 0.0403063C984.369 0.0297444 986.499 0.444631 988.488 1.26106C990.476 2.07748 992.283 3.2793 993.805 4.79726C995.326 6.31522 996.533 8.11931 997.354 10.1056C998.175 12.0918 998.595 14.221 998.59 16.3703V89.7803C1012.5 79.2277 1029.53 73.5993 1046.99 73.7803C1069.41 73.7803 1088.6 81.757 1104.56 97.7103C1120.52 113.664 1128.5 132.917 1128.49 155.47V253.88C1128.43 258.203 1126.69 262.333 1123.63 265.39C1120.57 268.447 1116.44 270.191 1112.12 270.25H1111.8C1109.62 270.279 1107.46 269.863 1105.45 269.028C1103.44 268.192 1101.62 266.954 1100.1 265.39C1098.53 263.921 1097.28 262.136 1096.44 260.153C1095.61 258.17 1095.2 256.033 1095.24 253.88V155.49C1095.33 149.088 1094.15 142.732 1091.76 136.791C1089.38 130.849 1085.83 125.441 1081.34 120.882C1076.85 116.322 1071.49 112.701 1065.58 110.229C1059.68 107.758 1053.34 106.485 1046.94 106.485C1040.53 106.485 1034.19 107.758 1028.29 110.229C1022.38 112.701 1017.02 116.322 1012.53 120.882C1008.04 125.441 1004.49 130.849 1002.11 136.791C999.719 142.732 998.538 149.088 998.63 155.49V253.9C998.673 256.053 998.263 258.19 997.426 260.173C996.588 262.156 995.343 263.941 993.77 265.41C992.285 266.963 990.497 268.195 988.518 269.031C986.538 269.867 984.409 270.289 982.26 270.27H981.72C979.56 270.29 977.419 269.866 975.43 269.023C973.441 268.18 971.648 266.937 970.16 265.37C968.59 263.899 967.347 262.114 966.511 260.131C965.676 258.148 965.267 256.012 965.31 253.86V16.3703C965.297 14.2169 965.711 12.0822 966.529 10.0901C967.347 8.09801 968.552 6.28812 970.075 4.76537C971.598 3.24263 973.408 2.03732 975.4 1.21936C977.392 0.401389 979.527 -0.0129676 981.68 0.000309248L982.22 0.0403063Z" fill="#000333"/>
<path d="M1353.92 131.2C1354.85 133.157 1355.37 135.279 1355.46 137.442C1355.56 139.605 1355.21 141.764 1354.46 143.793C1353.71 145.822 1352.55 147.679 1351.07 149.255C1349.58 150.831 1347.8 152.095 1345.82 152.97C1329.03 160.524 1306.96 170.477 1279.61 182.83L1213.61 212.7C1226.57 229.247 1243.6 237.524 1264.71 237.53C1278.21 237.516 1291.37 233.299 1302.36 225.464C1313.36 217.63 1321.64 206.566 1326.06 193.81C1328.73 186.37 1334 182.65 1341.89 182.65C1344.55 182.588 1347.18 183.197 1349.54 184.421C1351.9 185.644 1353.91 187.443 1355.39 189.65C1356.97 191.764 1357.98 194.244 1358.33 196.856C1358.68 199.468 1358.35 202.127 1357.39 204.58C1350.94 223.644 1338.59 240.157 1322.12 251.72C1305.48 263.907 1285.35 270.405 1264.73 270.25C1237.62 270.25 1214.47 260.654 1195.28 241.46C1176.09 222.267 1166.5 199.12 1166.5 172.02C1166.5 144.914 1176.09 121.764 1195.28 102.57C1214.47 83.377 1237.62 73.7803 1264.73 73.7803C1283.54 73.8183 1301.94 79.2452 1317.75 89.4182C1333.57 99.5912 1346.14 114.084 1353.97 131.18L1353.92 131.2ZM1264.68 107.45C1256.11 107.315 1247.6 108.937 1239.68 112.217C1231.75 115.496 1224.59 120.364 1218.62 126.52C1206.03 139.234 1199.74 154.587 1199.73 172.58C1199.73 175.771 1199.97 178.957 1200.45 182.11L1314.34 130.66C1301.38 115.18 1284.83 107.444 1264.68 107.45Z" fill="#000333"/>
<path d="M1422.28 0.0403063C1424.43 0.0297444 1426.56 0.444631 1428.55 1.26106C1430.54 2.07748 1432.34 3.2793 1433.86 4.79726C1435.39 6.31522 1436.59 8.11931 1437.41 10.1056C1438.24 12.0918 1438.66 14.221 1438.65 16.3703V253.9C1438.69 256.045 1438.28 258.174 1437.44 260.15C1436.61 262.126 1435.37 263.904 1433.8 265.37C1432.32 266.924 1430.53 268.157 1428.55 268.993C1426.57 269.829 1424.44 270.25 1422.29 270.23H1421.75C1419.6 270.25 1417.47 269.829 1415.49 268.993C1413.51 268.157 1411.72 266.924 1410.23 265.37C1408.66 263.899 1407.42 262.114 1406.58 260.131C1405.75 258.148 1405.34 256.012 1405.38 253.86V16.3703C1405.37 14.2169 1405.78 12.0822 1406.6 10.0901C1407.42 8.09801 1408.62 6.28812 1410.14 4.76537C1411.67 3.24263 1413.48 2.03732 1415.47 1.21936C1417.46 0.401389 1419.6 -0.0129676 1421.75 0.000309248L1422.28 0.0403063Z" fill="#000333"/>
<defs>
<linearGradient id="paint0_linear_24614_38190" x1="120.67" y1="71.3803" x2="109.35" y2="271.24" gradientUnits="userSpaceOnUse">
<stop offset="0.18" stop-color="#04C9FE"/>
<stop offset="0.95" stop-color="#2403FC"/>
</linearGradient>
<linearGradient id="paint1_linear_24614_38190" x1="150.52" y1="140.47" x2="100.46" y2="161.23" gradientUnits="userSpaceOnUse">
<stop stop-color="#0000FF" stop-opacity="0"/>
<stop offset="0.23" stop-color="#0000FF" stop-opacity="0.01"/>
<stop offset="0.36" stop-color="#0000FF" stop-opacity="0.04"/>
<stop offset="0.47" stop-color="#0000FF" stop-opacity="0.1"/>
<stop offset="0.57" stop-color="#0000FF" stop-opacity="0.18"/>
<stop offset="0.67" stop-color="#0000FF" stop-opacity="0.28"/>
<stop offset="0.75" stop-color="#0000FF" stop-opacity="0.41"/>
<stop offset="0.83" stop-color="#0000FF" stop-opacity="0.56"/>
<stop offset="0.91" stop-color="#0000FF" stop-opacity="0.74"/>
<stop offset="0.98" stop-color="#0000FF" stop-opacity="0.93"/>
<stop offset="1" stop-color="#0000FF"/>
</linearGradient>
<linearGradient id="paint2_linear_24614_38190" x1="12132.8" y1="14597.8" x2="15958.6" y2="15670" gradientUnits="userSpaceOnUse">
<stop stop-color="#0000FF" stop-opacity="0"/>
<stop offset="0.23" stop-color="#0000FF" stop-opacity="0.01"/>
<stop offset="0.36" stop-color="#0000FF" stop-opacity="0.04"/>
<stop offset="0.47" stop-color="#0000FF" stop-opacity="0.1"/>
<stop offset="0.57" stop-color="#0000FF" stop-opacity="0.18"/>
<stop offset="0.67" stop-color="#0000FF" stop-opacity="0.28"/>
<stop offset="0.75" stop-color="#0000FF" stop-opacity="0.41"/>
<stop offset="0.83" stop-color="#0000FF" stop-opacity="0.56"/>
<stop offset="0.91" stop-color="#0000FF" stop-opacity="0.74"/>
<stop offset="0.98" stop-color="#0000FF" stop-opacity="0.93"/>
<stop offset="1" stop-color="#0000FF"/>
</linearGradient>
<linearGradient id="paint3_linear_24614_38190" x1="11724.8" y1="16223.1" x2="13501.3" y2="17851.2" gradientUnits="userSpaceOnUse">
<stop stop-color="#0000FF" stop-opacity="0"/>
<stop offset="0.23" stop-color="#0000FF" stop-opacity="0.01"/>
<stop offset="0.36" stop-color="#0000FF" stop-opacity="0.04"/>
<stop offset="0.47" stop-color="#0000FF" stop-opacity="0.1"/>
<stop offset="0.57" stop-color="#0000FF" stop-opacity="0.18"/>
<stop offset="0.67" stop-color="#0000FF" stop-opacity="0.28"/>
<stop offset="0.75" stop-color="#0000FF" stop-opacity="0.41"/>
<stop offset="0.83" stop-color="#0000FF" stop-opacity="0.56"/>
<stop offset="0.91" stop-color="#0000FF" stop-opacity="0.74"/>
<stop offset="0.98" stop-color="#0000FF" stop-opacity="0.93"/>
<stop offset="1" stop-color="#0000FF"/>
</linearGradient>
<linearGradient id="paint4_linear_24614_38190" x1="17310.1" y1="9557.18" x2="18674.4" y2="4913.07" gradientUnits="userSpaceOnUse">
<stop stop-color="#0000FF" stop-opacity="0"/>
<stop offset="0.23" stop-color="#0000FF" stop-opacity="0.01"/>
<stop offset="0.36" stop-color="#0000FF" stop-opacity="0.04"/>
<stop offset="0.47" stop-color="#0000FF" stop-opacity="0.1"/>
<stop offset="0.57" stop-color="#0000FF" stop-opacity="0.18"/>
<stop offset="0.67" stop-color="#0000FF" stop-opacity="0.28"/>
<stop offset="0.75" stop-color="#0000FF" stop-opacity="0.41"/>
<stop offset="0.83" stop-color="#0000FF" stop-opacity="0.56"/>
<stop offset="0.91" stop-color="#0000FF" stop-opacity="0.74"/>
<stop offset="0.98" stop-color="#0000FF" stop-opacity="0.93"/>
<stop offset="1" stop-color="#0000FF"/>
</linearGradient>
<linearGradient id="paint5_linear_24614_38190" x1="11484.3" y1="13840.8" x2="11598.2" y2="16627.7" gradientUnits="userSpaceOnUse">
<stop stop-color="#0000FF" stop-opacity="0"/>
<stop offset="0.23" stop-color="#0000FF" stop-opacity="0.01"/>
<stop offset="0.36" stop-color="#0000FF" stop-opacity="0.04"/>
<stop offset="0.47" stop-color="#0000FF" stop-opacity="0.1"/>
<stop offset="0.57" stop-color="#0000FF" stop-opacity="0.18"/>
<stop offset="0.67" stop-color="#0000FF" stop-opacity="0.28"/>
<stop offset="0.75" stop-color="#0000FF" stop-opacity="0.41"/>
<stop offset="0.83" stop-color="#0000FF" stop-opacity="0.56"/>
<stop offset="0.91" stop-color="#0000FF" stop-opacity="0.74"/>
<stop offset="0.98" stop-color="#0000FF" stop-opacity="0.93"/>
<stop offset="1" stop-color="#0000FF"/>
</linearGradient>
</defs>
</svg>
