<svg xmlns="http://www.w3.org/2000/svg" width="128" height="32" viewBox="0 0 128 32">
    <g fill="none" fill-rule="nonzero">
        <path fill="#000" d="M33.693 11.395h12.928v2.443h-5.09V27.61h-2.79V13.838h-5.07l.022-2.443zm12.374 4.475h2.386v2.27h.042a2.87 2.87 0 0 1 .447-.93 3.57 3.57 0 0 1 .788-.82c.299-.26.64-.455 1.023-.606a2.937 2.937 0 0 1 1.129-.238c.298 0 .51.022.617.022.107.021.234.043.34.043v2.486a4.25 4.25 0 0 0-.553-.086c-.191-.022-.362-.043-.554-.043-.426 0-.83.086-1.214.259-.383.173-.702.432-1 .757a4.118 4.118 0 0 0-.682 1.254c-.17.497-.256 1.08-.256 1.73v5.578h-2.555l.042-11.676zm18.487 11.74H62.04v-1.642h-.043c-.32.605-.788 1.059-1.406 1.427a3.668 3.668 0 0 1-1.895.54c-1.512 0-2.62-.367-3.301-1.146-.682-.757-1.023-1.924-1.023-3.46V15.87h2.556v7.2c0 1.038.192 1.773.596 2.184.384.432.938.649 1.64.649.533 0 .98-.087 1.342-.26.362-.173.66-.389.873-.67.235-.281.384-.627.49-1.016.107-.39.15-.822.15-1.276v-6.81h2.555v11.74h-.021zm4.345-3.761c.085.756.362 1.275.851 1.6.49.302 1.087.454 1.768.454.234 0 .511-.022.81-.065.298-.043.596-.108.851-.216a1.5 1.5 0 0 0 .66-.476c.171-.216.256-.476.235-.8-.021-.324-.128-.605-.362-.822-.234-.216-.511-.367-.852-.519a7.3 7.3 0 0 0-1.193-.324c-.447-.086-.894-.195-1.363-.303a14.553 14.553 0 0 1-1.384-.389 3.947 3.947 0 0 1-1.193-.627 2.686 2.686 0 0 1-.83-.994c-.213-.411-.32-.887-.32-1.492 0-.649.15-1.168.469-1.6a3.413 3.413 0 0 1 1.171-1.038 5.264 5.264 0 0 1 1.576-.562 8.892 8.892 0 0 1 1.64-.152c.596 0 1.171.065 1.704.195.532.13 1.043.324 1.47.627.447.281.809.67 1.086 1.124.298.454.468 1.016.553 1.665h-2.662c-.128-.627-.405-1.038-.83-1.254-.448-.216-.938-.324-1.513-.324-.17 0-.404.021-.639.043a3.718 3.718 0 0 0-.702.173 1.664 1.664 0 0 0-.554.368.872.872 0 0 0-.235.627c0 .324.107.562.32.756.213.195.49.346.852.498a7.3 7.3 0 0 0 1.193.324c.447.086.915.195 1.384.303.468.108.916.237 1.363.389.447.151.852.346 1.193.627.34.26.639.584.852.973.213.389.319.886.319 1.448 0 .692-.15 1.276-.469 1.773a4.01 4.01 0 0 1-1.214 1.19c-.49.302-1.064.519-1.66.67-.618.13-1.215.216-1.811.216a7.52 7.52 0 0 1-2.023-.26 5.117 5.117 0 0 1-1.619-.756 3.616 3.616 0 0 1-1.065-1.276c-.255-.497-.405-1.102-.426-1.816h2.577v.022h.022zm8.412-7.979h1.938v-3.546h2.556v3.525h2.3v1.924h-2.3v6.27c0 .281.021.498.043.714.02.194.085.367.149.497.085.13.213.238.362.303.17.065.383.108.681.108.17 0 .362 0 .533-.022.17-.021.362-.043.532-.086v2.01c-.277.044-.554.065-.83.087-.277.043-.533.043-.831.043-.682 0-1.214-.065-1.619-.194a2.318 2.318 0 0 1-.958-.562 2.02 2.02 0 0 1-.469-.93c-.085-.368-.127-.822-.149-1.297v-6.92h-1.938v-1.967.043zm8.583 0h2.407v1.6h.042c.362-.692.852-1.167 1.491-1.47a4.768 4.768 0 0 1 2.087-.454c.916 0 1.704.151 2.386.497a4.486 4.486 0 0 1 1.682 1.34 5.623 5.623 0 0 1 1.001 1.99 8.98 8.98 0 0 1 .341 2.422c0 .8-.106 1.556-.298 2.291-.213.736-.511 1.406-.916 1.968a4.551 4.551 0 0 1-1.555 1.362c-.639.346-1.363.52-2.215.52-.362 0-.745-.044-1.107-.109a4.66 4.66 0 0 1-1.065-.324 3.81 3.81 0 0 1-.937-.584 3.279 3.279 0 0 1-.724-.822h-.043v5.86h-2.556V15.87h-.02zm8.924 5.881c0-.519-.064-1.037-.213-1.535a3.942 3.942 0 0 0-.618-1.319 3.427 3.427 0 0 0-1-.93c-.405-.237-.874-.345-1.385-.345-1.065 0-1.874.367-2.428 1.124-.532.757-.81 1.773-.81 3.027 0 .605.065 1.146.214 1.643.149.498.34.93.639 1.298.277.367.617.648 1.022.864.405.217.852.325 1.384.325.597 0 1.065-.13 1.47-.368s.724-.562 1-.93c.256-.389.448-.821.555-1.319.106-.518.17-1.016.17-1.535zm4.494-10.356h2.556v2.443h-2.556v-2.443zm0 4.475h2.556v11.74h-2.556V15.87zm4.834-4.475h2.556V27.61h-2.556V11.395zm10.351 16.54c-.916 0-1.746-.151-2.47-.476a5.606 5.606 0 0 1-1.832-1.275 5.574 5.574 0 0 1-1.129-1.968 7.792 7.792 0 0 1-.404-2.486c0-.887.127-1.708.404-2.465a5.77 5.77 0 0 1 1.129-1.968 5.107 5.107 0 0 1 1.832-1.275 6.38 6.38 0 0 1 2.47-.476c.916 0 1.747.151 2.47.476a5.3 5.3 0 0 1 1.832 1.275c.49.54.874 1.211 1.13 1.968.255.757.404 1.578.404 2.465 0 .908-.128 1.73-.405 2.486-.277.757-.639 1.406-1.129 1.968-.49.54-1.107.973-1.831 1.275a6.302 6.302 0 0 1-2.47.476zm0-2.054c.554 0 1.065-.13 1.47-.367.426-.238.745-.563 1.022-.952s.469-.843.596-1.319a6.016 6.016 0 0 0 0-3.005 3.904 3.904 0 0 0-.596-1.32 3.253 3.253 0 0 0-1.022-.929 2.968 2.968 0 0 0-1.47-.367c-.554 0-1.065.13-1.47.367-.425.238-.745.562-1.022.93-.277.39-.468.822-.596 1.319a5.974 5.974 0 0 0 0 3.005c.128.498.32.93.596 1.32.277.388.618.713 1.023.95.426.26.915.368 1.47.368zm6.603-10.01h1.938v-3.547h2.555v3.525h2.3v1.924h-2.3v6.27c0 .281.022.498.043.714.021.194.085.367.149.497.085.13.213.238.362.303.17.065.383.108.682.108.17 0 .362 0 .532-.022.17-.021.362-.043.533-.086v2.01c-.277.044-.554.065-.831.087-.277.043-.533.043-.83.043-.682 0-1.215-.065-1.62-.194a2.318 2.318 0 0 1-.958-.562 2.02 2.02 0 0 1-.468-.93c-.086-.368-.128-.822-.15-1.297v-6.92H121.1v-1.967.043z"/>
        <path fill="#00B67A" d="M30.711 11.395H19.02L15.419.108 11.8 11.395.106 11.373l9.457 6.984-3.62 11.286 9.455-6.984 9.457 6.984-3.6-11.286z"/>
        <path fill="#005128" d="M22.065 20.908l-.81-2.551-5.835 4.302z"/>
    </g>
</svg>
