<svg xmlns="http://www.w3.org/2000/svg" width="103" height="34" viewBox="0 0 103 34">
    <g fill="none" fill-rule="evenodd">
        <g fill="#3142A0" fill-rule="nonzero">
            <g>
                <g>
                    <g>
                        <g>
                            <g>
                                <path d="M36.165 13.543c0-2.996-1.71-4.308-4.348-4.308s-4.295 1.325-4.295 4.241v5.527h2.612v-5.487c0-1.324.676-1.962 1.71-1.962 1.033 0 1.71.597 1.71 1.896v5.553h2.61m3.898-9.622h-2.519v7.171h2.519v-1.007c.463.596 1.126 1.14 2.146 1.14 1.525 0 2.44-1.008 2.44-2.638V9.38h-2.52v3.857c0 .796-.409 1.22-1.007 1.22-.609 0-1.06-.425-1.06-1.22M46 9.38h2.519v7.17h-2.519v-7.17zm0 7.988h2.519v1.634h-2.519v-1.634zm7.383-2.806c-.927 0-1.497-.702-1.497-1.59 0-.901.635-1.617 1.523-1.617.928 0 1.498.703 1.498 1.59 0 .902-.636 1.617-1.524 1.617zm0-5.328c-2.293 0-3.95 1.657-3.95 3.712 0 2.054 1.67 3.738 3.976 3.738 2.293 0 3.95-1.658 3.95-3.712 0-2.054-1.67-3.738-3.976-3.738m7.345.146h-2.519v7.171h2.519v-1.007c.463.596 1.127 1.14 2.148 1.14 1.524 0 2.438-1.008 2.438-2.638V9.38h-2.518v3.857c0 .796-.41 1.22-1.007 1.22-.61 0-1.06-.425-1.06-1.22m12.775-1.108c-.003-.958-.793-1.54-2.194-1.55h-3.044v3.06h2.855c.807 0 1.412-.146 1.802-.401.389-.257.578-.608.58-1.082v-.027zm-5.238 5.675h2.747c1.318-.01 1.96-.56 1.965-1.403v-.026c-.002-.516-.202-.889-.554-1.15-.354-.26-.87-.401-1.492-.4h-2.666v2.98zm4.748-3.43c.67.366 1.294 1.027 1.291 2.148v.027c.009.593-.223 1.165-.641 1.586-.572.553-1.456.868-2.556.868h-4.143V9.38h4.317c1.05 0 1.932.242 2.56.7.627.46.99 1.143.988 1.982v.026c.003 1.237-.81 1.923-1.816 2.287m7.592-2.327c-.002-.508-.238-.936-.632-1.245-.394-.309-.947-.493-1.562-.493-.45 0-.863.123-1.157.34-.293.218-.47.52-.472.916v.028c.001.74.645 1.259 1.912 1.268.786 0 1.417-.128 1.91-.264v-.55zM78.76 16.66c-1.044 0-1.81-.25-2.586-.6l-.104-.048.395-1.077.123.056c.638.29 1.262.484 2.064.484.634 0 1.117-.155 1.438-.444.321-.288.5-.715.5-1.307v-.052c-.576.152-1.18.256-2.005.255-.9 0-1.671-.196-2.226-.597-.554-.4-.879-1.013-.878-1.79v-.026c-.001-.749.347-1.33.861-1.71.513-.38 1.188-.57 1.865-.57h.005c1.093 0 1.865.439 2.378.97v-.823h1.273v4.356c.002.905-.25 1.615-.764 2.123-.529.526-1.334.8-2.339.8m7.911.04c-1.059.002-1.78-.46-2.261-1.076v.929h-1.287V9.38h1.287v4.088c.005 1.241.83 2.04 1.965 2.047 1.164-.011 1.79-.725 1.803-1.967V9.381h1.287v4.423c0 .847-.254 1.574-.737 2.088-.48.515-1.188.81-2.057.808m7.456-3.255l3.056 3.108h-1.643l-3.583-3.713v6.164H90.67V9.38h1.287v1.88l1.28 1.284 2.443-3.164h1.553M20.306 22.011V14.83c0-5.91-5.332-8.143-10.204-7.419 1.71.435 3.288 1.582 3.288 4.706v3.293c0 3.107.972 6.082 6.916 6.601" transform="translate(-805 -2103) translate(0 1534) translate(804 72) translate(0 379) translate(0 117) matrix(1 0 0 -1 .3 35.5)"/>
                                <path d="M4.369 27.238V14.735c0-5.671 3.398-6.522 4.506-6.698 1.163-.184 2.647.364 3.294 1.344-.81.49-.884 2.138-.884 4.079v7.4c0 4.774-3.384 6.378-6.916 6.378M98.988 15.634c.127 0 .198.066.198.158 0 .105-.071.16-.198.16h-.235v-.318h.235zm-.423.483h.44c.215 0 .375-.105.375-.308 0-.16-.094-.258-.227-.296l.259-.369h-.226l-.23.335h-.203v-.335h-.188v.973zm1.221-.505v.005c0 .467-.363.851-.847.851-.226 0-.442-.091-.601-.252-.159-.16-.247-.378-.245-.604v-.006c0-.467.362-.852.846-.852.226 0 .443.092.602.253.16.16.247.379.245.605zm-1.802-.006v.006c0 .521.422.961.955.961.539 0 .956-.434.956-.956v-.005c0-.53-.427-.96-.956-.963-.54 0-.955.435-.955.957" transform="translate(-805 -2103) translate(0 1534) translate(804 72) translate(0 379) translate(0 117) matrix(1 0 0 -1 .3 35.5)"/>
                            </g>
                        </g>
                    </g>
                </g>
            </g>
        </g>
    </g>
</svg>
