<svg xmlns="http://www.w3.org/2000/svg" width="22" height="22" viewBox="0 0 22 22">
    <g fill="none" fill-rule="evenodd">
        <g>
            <g>
                <g>
                    <g>
                        <path d="M0 0L21 0 21 21 0 21z" transform="translate(-523 -761) translate(80 136) translate(436 618) translate(7.5 7.5)"/>
                        <path fill="#1565D8" d="M6.034 8.244c1.104-1.57 1.793-3.37 2.069-5.407.026-.194.164-.356.352-.414 1.902-.588 2.982.346 2.964 2.478-.003.414-.022.782-.063 1.344-.09 1.257-.083 1.6.057 1.83.136.222.575.298 1.613.1.328-.061.656-.132 1.02-.216.16-.038 1.318-.32 1.614-.384.565-.122.97-.174 1.326-.152.964.06 1.476.68 1.565 1.87.156 2.096-.326 6.305-.806 7.856-.49 1.584-1.346 2.182-3.4 2.218-1.321.024-3.352.024-6.104 0-.702-.016-1.339-.152-1.905-.406.16-.33.248-.698.248-1.087V9.81c0-.592-.206-1.136-.55-1.566z" transform="translate(-523 -761) translate(80 136) translate(436 618) translate(7.5 7.5)"/>
                        <path fill="#1565D8" d="M3.025 8.298c-.842 0-1.525.677-1.525 1.512v8.064c0 .835.683 1.512 1.525 1.512h1.017c.842 0 1.525-.677 1.525-1.512V9.81c0-.835-.683-1.512-1.525-1.512H3.025z" opacity=".3" transform="translate(-523 -761) translate(80 136) translate(436 618) translate(7.5 7.5)"/>
                    </g>
                </g>
            </g>
        </g>
    </g>
</svg>
