<svg xmlns="http://www.w3.org/2000/svg" width="22" height="22" viewBox="0 0 22 22">
    <g fill="none" fill-rule="evenodd">
        <g>
            <g>
                <g>
                    <g>
                        <path d="M1 1L22 1 22 22 1 22z" transform="translate(-194 -761) translate(80 136) translate(107 618) translate(6.5 6.5)"/>
                        <g fill="#1565D8">
                            <path d="M9.483 9.598c.522-1.135.04-2.07-1.29-2.65l-2.203-.91c-.714-.294-1.532-.173-2.13.317l-2.026 1.66-.06.591-.094 4.834v.84h2.452l5 1.42c.631.18 1.31.054 1.834-.34 3.295-2.477 5.497-4.15 5.83-4.46.808-.75 1.126-1.586.55-2.41-.465-.666-1.25-.737-2.223-.296L10.391 10.6l-1.331-.424c.171-.147.313-.34.423-.579z" transform="translate(-194 -761) translate(80 136) translate(107 618) translate(6.5 6.5) translate(2.68 3.52)"/>
                            <path d="M2.1 5.67c.348 0 .63.282.63.63v9.24c0 .348-.282.63-.63.63h-.84c-.348 0-.63-.282-.63-.63 0-.348.282-.63.63-.63h.21V6.93h-.21c-.348 0-.63-.282-.63-.63 0-.348.282-.63.63-.63h.84zM12.39 0c.348 0 .63.282.63.63v.21h1.01c.349 0 .63.283.63.631v.319c0 .348-.281.63-.63.63-.231 0-.437-.126-.547-.318h-1.921c-.116 0-.21.094-.21.21v.421c0 .117.094.21.21.21h1.668c.812 0 1.47.66 1.47 1.472v.42c0 .813-.658 1.471-1.47 1.471h-.21v.204c0 .348-.282.63-.63.63-.348 0-.63-.282-.63-.63v-.204h-1.05c-.355 0-.64-.294-.63-.65l.012-.385c.01-.348.301-.621.649-.61.253.007.468.163.561.385h1.928c.116 0 .21-.095.21-.21v-.42c0-.117-.094-.211-.21-.211h-1.668c-.812 0-1.47-.659-1.47-1.472v-.42c0-.813.658-1.472 1.47-1.472h.198V.63c0-.349.282-.631.63-.631z" opacity=".3" transform="translate(-194 -761) translate(80 136) translate(107 618) translate(6.5 6.5) translate(2.68 3.52)"/>
                        </g>
                    </g>
                </g>
            </g>
        </g>
    </g>
</svg>
