<svg xmlns="http://www.w3.org/2000/svg" width="22" height="22" viewBox="0 0 22 22">
    <g fill="none" fill-rule="evenodd">
        <g>
            <g>
                <g>
                    <g>
                        <path d="M0 0H21V21H0z" transform="translate(-371 -761) translate(80 136) translate(284 618) translate(7.5 7.5)"/>
                        <path fill="#1565D8" d="M10.643 1.705l7.56 2.73c.166.06.277.218.277.395v5.67c0 4.415-2.658 7.369-7.868 8.805-.072.02-.149.02-.22 0C5.178 17.908 2.52 14.953 2.52 10.5V4.83c0-.177.11-.335.277-.395l7.56-2.73c.093-.033.193-.033.286 0zm2.818 5.99l-3.568 3.87L8.194 9.78c-.16-.168-.425-.175-.594-.015-.168.16-.174.426-.014.594l2.008 2.11c.167.176.448.174.613-.004l3.872-4.2c.157-.17.146-.437-.024-.594-.17-.157-.437-.146-.594.024z" transform="translate(-371 -761) translate(80 136) translate(284 618) translate(7.5 7.5)"/>
                    </g>
                </g>
            </g>
        </g>
    </g>
</svg>
