<svg width="150" height="32" viewBox="0 0 150 32" fill="none" xmlns="http://www.w3.org/2000/svg">
<path d="M1.908 30.928V11.632H5.328V13.264L5.568 13.552V23.536L5.532 24.472L5.568 26.632V30.928H1.908ZM7.728 25.192C6.92 25.192 6.256 25.1 5.736 24.916C5.216 24.724 4.88 24.572 4.728 24.46L5.568 22.132C5.768 22.324 6.044 22.464 6.396 22.552C6.756 22.632 7.164 22.672 7.62 22.672C8.212 22.672 8.736 22.496 9.192 22.144C9.648 21.792 10.008 21.28 10.272 20.608C10.544 19.928 10.684 19.1 10.692 18.124C10.7 16.7 10.468 15.692 9.996 15.1C9.524 14.508 8.872 14.212 8.04 14.212C7.52 14.212 7.04 14.304 6.6 14.488C6.168 14.672 5.824 14.864 5.568 15.064L5.124 13.204C5.308 13.004 5.564 12.768 5.892 12.496C6.228 12.224 6.664 11.984 7.2 11.776C7.736 11.568 8.404 11.464 9.204 11.464C10.148 11.464 11.024 11.696 11.832 12.16C12.64 12.616 13.288 13.316 13.776 14.26C14.264 15.196 14.508 16.384 14.508 17.824C14.508 19.312 14.228 20.608 13.668 21.712C13.108 22.808 12.316 23.664 11.292 24.28C10.276 24.888 9.088 25.192 7.728 25.192ZM20.7225 16.288L20.5545 13.72C20.6985 13.336 20.9625 12.972 21.3465 12.628C21.7305 12.276 22.1865 11.992 22.7145 11.776C23.2425 11.552 23.7985 11.44 24.3825 11.44C24.6225 11.44 24.8425 11.452 25.0425 11.476C25.2505 11.5 25.4025 11.54 25.4985 11.596V15.16C25.3865 15.088 25.2145 15.016 24.9825 14.944C24.7505 14.872 24.3985 14.836 23.9265 14.836C23.3505 14.836 22.8545 14.92 22.4385 15.088C22.0225 15.248 21.6705 15.444 21.3825 15.676C21.1025 15.9 20.8825 16.104 20.7225 16.288ZM17.2785 25V11.644H20.4465L20.6505 13.732L20.9385 14.368V25H17.2785ZM33.0996 25.192C31.9316 25.192 30.9396 25.004 30.1236 24.628C29.3076 24.244 28.6476 23.72 28.1436 23.056C27.6476 22.392 27.2876 21.632 27.0636 20.776C26.8396 19.912 26.7316 19 26.7396 18.04C26.7636 16.616 27.0596 15.416 27.6276 14.44C28.2036 13.464 28.9836 12.724 29.9676 12.22C30.9596 11.716 32.0836 11.464 33.3396 11.464C34.9076 11.464 36.1596 11.792 37.0956 12.448C38.0316 13.104 38.7036 13.976 39.1116 15.064C39.5196 16.144 39.7116 17.32 39.6876 18.592C39.6716 20.024 39.3796 21.232 38.8116 22.216C38.2436 23.192 37.4676 23.932 36.4836 24.436C35.4996 24.94 34.3716 25.192 33.0996 25.192ZM33.1956 22.636C34.1476 22.644 34.8396 22.288 35.2716 21.568C35.7036 20.848 35.9196 19.804 35.9196 18.436C35.9196 17.628 35.8316 16.892 35.6556 16.228C35.4796 15.564 35.1956 15.032 34.8036 14.632C34.4196 14.232 33.9076 14.028 33.2676 14.02C32.3076 14.012 31.6116 14.364 31.1796 15.076C30.7476 15.78 30.5316 16.8 30.5316 18.136C30.5316 18.952 30.6196 19.704 30.7956 20.392C30.9716 21.072 31.2516 21.616 31.6356 22.024C32.0276 22.432 32.5476 22.636 33.1956 22.636ZM46.5098 25.192C45.6938 25.192 45.0178 25.06 44.4818 24.796C43.9538 24.524 43.5578 24.096 43.2938 23.512C43.0378 22.928 42.9098 22.156 42.9098 21.196V14.14H41.2898V12.184C41.8818 12.016 42.3538 11.856 42.7058 11.704C43.0658 11.552 43.3258 11.288 43.4858 10.912C43.5658 10.728 43.6498 10.512 43.7378 10.264C43.8338 10.016 43.9338 9.748 44.0378 9.46C44.1418 9.172 44.2498 8.88 44.3618 8.584H46.5698V11.632H50.1578V14.14H46.5698V19.648C46.5698 20.496 46.6138 21.116 46.7018 21.508C46.7898 21.892 46.9418 22.14 47.1578 22.252C47.3738 22.356 47.6858 22.408 48.0938 22.408C48.3018 22.408 48.5418 22.384 48.8138 22.336C49.0858 22.28 49.3458 22.212 49.5938 22.132C49.8418 22.052 50.0338 21.968 50.1698 21.88L50.6498 23.932C50.4338 24.124 50.1098 24.32 49.6778 24.52C49.2458 24.712 48.7538 24.872 48.2018 25C47.6497 25.128 47.0858 25.192 46.5098 25.192ZM58.5058 25.192C57.3378 25.192 56.3458 25.004 55.5298 24.628C54.7138 24.244 54.0538 23.72 53.5498 23.056C53.0538 22.392 52.6938 21.632 52.4698 20.776C52.2458 19.912 52.1378 19 52.1458 18.04C52.1698 16.616 52.4658 15.416 53.0338 14.44C53.6098 13.464 54.3898 12.724 55.3738 12.22C56.3658 11.716 57.4898 11.464 58.7458 11.464C60.3138 11.464 61.5658 11.792 62.5018 12.448C63.4378 13.104 64.1098 13.976 64.5178 15.064C64.9258 16.144 65.1178 17.32 65.0938 18.592C65.0778 20.024 64.7858 21.232 64.2178 22.216C63.6498 23.192 62.8738 23.932 61.8898 24.436C60.9058 24.94 59.7778 25.192 58.5058 25.192ZM58.6018 22.636C59.5538 22.644 60.2458 22.288 60.6778 21.568C61.1098 20.848 61.3258 19.804 61.3258 18.436C61.3258 17.628 61.2378 16.892 61.0618 16.228C60.8858 15.564 60.6018 15.032 60.2098 14.632C59.8258 14.232 59.3138 14.028 58.6738 14.02C57.7138 14.012 57.0178 14.364 56.5858 15.076C56.1538 15.78 55.9378 16.8 55.9378 18.136C55.9378 18.952 56.0258 19.704 56.2018 20.392C56.3778 21.072 56.6578 21.616 57.0418 22.024C57.4338 22.432 57.9538 22.636 58.6018 22.636ZM67.872 25V11.644H71.196L71.256 13.144C71.56 12.888 71.948 12.632 72.42 12.376C72.892 12.112 73.412 11.892 73.98 11.716C74.556 11.54 75.136 11.448 75.72 11.44C77.112 11.408 78.136 11.78 78.792 12.556C79.448 13.324 79.776 14.676 79.776 16.612V25H76.104V17.128C76.104 16.088 75.968 15.36 75.696 14.944C75.424 14.528 74.892 14.336 74.1 14.368C73.86 14.376 73.588 14.42 73.284 14.5C72.988 14.572 72.684 14.684 72.372 14.836C72.068 14.98 71.784 15.16 71.52 15.376V25H67.872Z" fill="#36393D"/>
<path d="M83.3402 25V5.5H87.0122V25H83.3402ZM96.0996 25.192C94.9316 25.192 93.9396 25.004 93.1236 24.628C92.3076 24.244 91.6476 23.72 91.1436 23.056C90.6476 22.392 90.2876 21.632 90.0636 20.776C89.8396 19.912 89.7316 19 89.7396 18.04C89.7636 16.616 90.0596 15.416 90.6276 14.44C91.2036 13.464 91.9836 12.724 92.9676 12.22C93.9596 11.716 95.0836 11.464 96.3396 11.464C97.9076 11.464 99.1596 11.792 100.096 12.448C101.032 13.104 101.704 13.976 102.112 15.064C102.52 16.144 102.712 17.32 102.688 18.592C102.672 20.024 102.38 21.232 101.812 22.216C101.244 23.192 100.468 23.932 99.4836 24.436C98.4996 24.94 97.3716 25.192 96.0996 25.192ZM96.1956 22.636C97.1476 22.644 97.8396 22.288 98.2716 21.568C98.7036 20.848 98.9196 19.804 98.9196 18.436C98.9196 17.628 98.8316 16.892 98.6556 16.228C98.4796 15.564 98.1956 15.032 97.8036 14.632C97.4196 14.232 96.9076 14.028 96.2676 14.02C95.3076 14.012 94.6116 14.364 94.1796 15.076C93.7476 15.78 93.5316 16.8 93.5316 18.136C93.5316 18.952 93.6196 19.704 93.7956 20.392C93.9716 21.072 94.2516 21.616 94.6356 22.024C95.0276 22.432 95.5476 22.636 96.1956 22.636ZM110.361 31.048C108.257 31.032 106.689 30.676 105.657 29.98C104.633 29.292 104.121 28.312 104.121 27.04C104.121 26.568 104.233 26.14 104.457 25.756C104.681 25.38 104.985 25.06 105.369 24.796C105.761 24.524 106.205 24.316 106.701 24.172L108.789 24.364C108.653 24.476 108.493 24.616 108.309 24.784C108.133 24.952 107.977 25.168 107.841 25.432C107.705 25.696 107.637 26.032 107.637 26.44C107.637 26.896 107.721 27.312 107.889 27.688C108.065 28.064 108.361 28.364 108.777 28.588C109.201 28.812 109.789 28.924 110.541 28.924C111.165 28.924 111.733 28.852 112.245 28.708C112.765 28.572 113.173 28.356 113.469 28.06C113.773 27.772 113.925 27.396 113.925 26.932C113.925 26.532 113.853 26.18 113.709 25.876C113.573 25.58 113.297 25.348 112.881 25.18C112.473 25.012 111.869 24.928 111.069 24.928H108.849C108.545 24.928 108.277 24.908 108.045 24.868C107.813 24.82 107.585 24.772 107.361 24.724C107.209 24.684 107.101 24.644 107.037 24.604C106.981 24.556 106.869 24.516 106.701 24.484C106.101 24.316 105.673 24.072 105.417 23.752C105.161 23.424 105.033 23.02 105.033 22.54C105.041 22.228 105.109 21.904 105.237 21.568C105.365 21.224 105.585 20.896 105.897 20.584C106.209 20.264 106.633 19.992 107.169 19.768L109.233 20.14C108.913 20.26 108.661 20.452 108.477 20.716C108.301 20.972 108.213 21.228 108.213 21.484C108.213 21.876 108.333 22.148 108.573 22.3C108.821 22.444 109.245 22.516 109.845 22.516H112.257C113.289 22.516 114.141 22.616 114.813 22.816C115.485 23.016 116.013 23.292 116.397 23.644C116.781 23.988 117.049 24.38 117.201 24.82C117.361 25.252 117.441 25.704 117.441 26.176C117.441 26.976 117.249 27.68 116.865 28.288C116.481 28.904 115.957 29.416 115.293 29.824C114.629 30.232 113.873 30.54 113.025 30.748C112.177 30.956 111.289 31.056 110.361 31.048ZM110.169 20.476C109.065 20.476 108.085 20.3 107.229 19.948C106.381 19.596 105.717 19.088 105.237 18.424C104.757 17.76 104.517 16.968 104.517 16.048C104.517 15.048 104.753 14.208 105.225 13.528C105.697 12.848 106.357 12.336 107.205 11.992C108.061 11.648 109.057 11.472 110.193 11.464C111.337 11.456 112.341 11.62 113.205 11.956C114.077 12.292 114.753 12.796 115.233 13.468C115.721 14.132 115.965 14.956 115.965 15.94C115.965 16.916 115.741 17.744 115.293 18.424C114.845 19.096 114.189 19.608 113.325 19.96C112.461 20.304 111.409 20.476 110.169 20.476ZM110.217 18.424C110.921 18.424 111.485 18.264 111.909 17.944C112.341 17.616 112.557 16.972 112.557 16.012C112.557 15.236 112.369 14.652 111.993 14.26C111.625 13.86 111.061 13.66 110.301 13.66C109.853 13.66 109.461 13.728 109.125 13.864C108.789 13.992 108.525 14.224 108.333 14.56C108.149 14.896 108.057 15.368 108.057 15.976C108.057 16.64 108.221 17.216 108.549 17.704C108.877 18.184 109.433 18.424 110.217 18.424ZM114.393 14.236L113.817 12.724C113.977 12.508 114.301 12.268 114.789 12.004C115.277 11.732 115.849 11.596 116.505 11.596H118.065V14.236H114.393ZM120.303 25V11.644H123.963V25H120.303ZM121.947 9.712C121.355 9.712 120.855 9.528 120.447 9.16C120.039 8.792 119.835 8.312 119.835 7.72C119.835 7.32 119.943 6.956 120.159 6.628C120.383 6.292 120.671 6.024 121.023 5.824C121.383 5.624 121.767 5.524 122.175 5.524C122.831 5.524 123.343 5.712 123.711 6.088C124.087 6.456 124.275 6.932 124.275 7.516C124.275 8.124 124.043 8.644 123.579 9.076C123.123 9.5 122.579 9.712 121.947 9.712ZM126.782 18.46C126.782 17.148 127.022 15.964 127.502 14.908C127.982 13.852 128.71 13.016 129.686 12.4C130.67 11.776 131.918 11.464 133.43 11.464C134.302 11.464 135.054 11.536 135.686 11.68C136.326 11.824 136.754 11.972 136.97 12.124L136.514 14.92C136.218 14.736 135.846 14.588 135.398 14.476C134.958 14.364 134.41 14.308 133.754 14.308C133.234 14.308 132.722 14.428 132.218 14.668C131.722 14.908 131.306 15.304 130.97 15.856C130.642 16.408 130.466 17.148 130.442 18.076C130.418 19.076 130.55 19.896 130.838 20.536C131.134 21.168 131.534 21.636 132.038 21.94C132.55 22.236 133.118 22.384 133.742 22.384C134.35 22.384 134.914 22.32 135.434 22.192C135.954 22.064 136.358 21.928 136.646 21.784L137.186 24.028C136.802 24.412 136.222 24.704 135.446 24.904C134.678 25.096 133.866 25.192 133.01 25.192C131.626 25.192 130.474 24.9 129.554 24.316C128.634 23.724 127.942 22.92 127.478 21.904C127.014 20.888 126.782 19.74 126.782 18.46ZM138.964 24.148L139.372 21.568C139.5 21.672 139.76 21.808 140.152 21.976C140.544 22.144 141.012 22.3 141.556 22.444C142.1 22.58 142.66 22.648 143.236 22.648C143.964 22.656 144.5 22.56 144.844 22.36C145.188 22.152 145.36 21.844 145.36 21.436C145.36 21.156 145.244 20.912 145.012 20.704C144.788 20.496 144.48 20.304 144.088 20.128C143.696 19.944 143.26 19.756 142.78 19.564C141.916 19.22 141.2 18.844 140.632 18.436C140.072 18.028 139.652 17.564 139.372 17.044C139.1 16.516 138.968 15.9 138.976 15.196C138.984 14.364 139.224 13.672 139.696 13.12C140.176 12.568 140.812 12.156 141.604 11.884C142.404 11.604 143.288 11.464 144.256 11.464C145.24 11.464 146.076 11.556 146.764 11.74C147.46 11.916 147.936 12.08 148.192 12.232L147.796 14.86C147.644 14.732 147.404 14.596 147.076 14.452C146.748 14.308 146.376 14.192 145.96 14.104C145.552 14.008 145.136 13.96 144.712 13.96C143.936 13.96 143.368 14.056 143.008 14.248C142.656 14.432 142.48 14.7 142.48 15.052C142.472 15.508 142.648 15.848 143.008 16.072C143.376 16.288 143.884 16.532 144.532 16.804C145.492 17.196 146.296 17.588 146.944 17.98C147.6 18.364 148.092 18.808 148.42 19.312C148.756 19.808 148.924 20.416 148.924 21.136C148.924 22.464 148.448 23.472 147.496 24.16C146.544 24.848 145.26 25.192 143.644 25.192C142.964 25.192 142.308 25.136 141.676 25.024C141.052 24.92 140.5 24.788 140.02 24.628C139.548 24.468 139.196 24.308 138.964 24.148Z" fill="#27A3F5"/>
</svg>
