<?xml version="1.0" encoding="UTF-8"?>
<svg width="122px" height="326px" viewBox="0 0 122 326" version="1.1" xmlns="http://www.w3.org/2000/svg" xmlns:xlink="http://www.w3.org/1999/xlink">
    <title>Shape</title>
    <g id="[NEW-UPDATE-Landing]" stroke="none" stroke-width="1" fill="none" fill-rule="evenodd">
        <g id="54---Personal-Web-Photographer" transform="translate(-560.000000, -300.000000)">
            <g id="Shape" transform="translate(560.000000, 300.000000)">
                <path d="M118.411765,318.779661 C120.393492,318.779661 122,320.395989 122,322.389831 C122,324.383672 120.393492,326 118.411765,326 C116.430037,326 114.823529,324.383672 114.823529,322.389831 C114.823529,320.395989 116.430037,318.779661 118.411765,318.779661 Z M99.2745098,318.779661 C101.256237,318.779661 102.862745,320.395989 102.862745,322.389831 C102.862745,324.383672 101.256237,326 99.2745098,326 C97.2927822,326 95.6862745,324.383672 95.6862745,322.389831 C95.6862745,320.395989 97.2927822,318.779661 99.2745098,318.779661 Z M80.1372549,318.779661 C82.1189825,318.779661 83.7254902,320.395989 83.7254902,322.389831 C83.7254902,324.383672 82.1189825,326 80.1372549,326 C78.1555273,326 76.5490196,324.383672 76.5490196,322.389831 C76.5490196,320.395989 78.1555273,318.779661 80.1372549,318.779661 Z M61,318.779661 C62.9817276,318.779661 64.5882353,320.395989 64.5882353,322.389831 C64.5882353,324.383672 62.9817276,326 61,326 C59.0182724,326 57.4117647,324.383672 57.4117647,322.389831 C57.4117647,320.395989 59.0182724,318.779661 61,318.779661 Z M41.8627451,318.779661 C43.8444727,318.779661 45.4509804,320.395989 45.4509804,322.389831 C45.4509804,324.383672 43.8444727,326 41.8627451,326 C39.8810175,326 38.2745098,324.383672 38.2745098,322.389831 C38.2745098,320.395989 39.8810175,318.779661 41.8627451,318.779661 Z M22.7254902,318.779661 C24.7072178,318.779661 26.3137255,320.395989 26.3137255,322.389831 C26.3137255,324.383672 24.7072178,326 22.7254902,326 C20.7437626,326 19.1372549,324.383672 19.1372549,322.389831 C19.1372549,320.395989 20.7437626,318.779661 22.7254902,318.779661 Z M3.58823529,318.779661 C5.56996293,318.779661 7.17647059,320.395989 7.17647059,322.389831 C7.17647059,324.383672 5.56996293,326 3.58823529,326 C1.60650766,326 0,324.383672 0,322.389831 C0,320.395989 1.60650766,318.779661 3.58823529,318.779661 Z M118.411765,299.525424 C120.393492,299.525424 122,301.141752 122,303.135593 C122,305.129435 120.393492,306.745763 118.411765,306.745763 C116.430037,306.745763 114.823529,305.129435 114.823529,303.135593 C114.823529,301.141752 116.430037,299.525424 118.411765,299.525424 Z M99.2745098,299.525424 C101.256237,299.525424 102.862745,301.141752 102.862745,303.135593 C102.862745,305.129435 101.256237,306.745763 99.2745098,306.745763 C97.2927822,306.745763 95.6862745,305.129435 95.6862745,303.135593 C95.6862745,301.141752 97.2927822,299.525424 99.2745098,299.525424 Z M80.1372549,299.525424 C82.1189825,299.525424 83.7254902,301.141752 83.7254902,303.135593 C83.7254902,305.129435 82.1189825,306.745763 80.1372549,306.745763 C78.1555273,306.745763 76.5490196,305.129435 76.5490196,303.135593 C76.5490196,301.141752 78.1555273,299.525424 80.1372549,299.525424 Z M61,299.525424 C62.9817276,299.525424 64.5882353,301.141752 64.5882353,303.135593 C64.5882353,305.129435 62.9817276,306.745763 61,306.745763 C59.0182724,306.745763 57.4117647,305.129435 57.4117647,303.135593 C57.4117647,301.141752 59.0182724,299.525424 61,299.525424 Z M41.8627451,299.525424 C43.8444727,299.525424 45.4509804,301.141752 45.4509804,303.135593 C45.4509804,305.129435 43.8444727,306.745763 41.8627451,306.745763 C39.8810175,306.745763 38.2745098,305.129435 38.2745098,303.135593 C38.2745098,301.141752 39.8810175,299.525424 41.8627451,299.525424 Z M22.7254902,299.525424 C24.7072178,299.525424 26.3137255,301.141752 26.3137255,303.135593 C26.3137255,305.129435 24.7072178,306.745763 22.7254902,306.745763 C20.7437626,306.745763 19.1372549,305.129435 19.1372549,303.135593 C19.1372549,301.141752 20.7437626,299.525424 22.7254902,299.525424 Z M3.58823529,299.525424 C5.56996293,299.525424 7.17647059,301.141752 7.17647059,303.135593 C7.17647059,305.129435 5.56996293,306.745763 3.58823529,306.745763 C1.60650766,306.745763 0,305.129435 0,303.135593 C0,301.141752 1.60650766,299.525424 3.58823529,299.525424 Z M118.411765,280.271186 C120.393492,280.271186 122,281.887514 122,283.881356 C122,285.875197 120.393492,287.491525 118.411765,287.491525 C116.430037,287.491525 114.823529,285.875197 114.823529,283.881356 C114.823529,281.887514 116.430037,280.271186 118.411765,280.271186 Z M99.2745098,280.271186 C101.256237,280.271186 102.862745,281.887514 102.862745,283.881356 C102.862745,285.875197 101.256237,287.491525 99.2745098,287.491525 C97.2927822,287.491525 95.6862745,285.875197 95.6862745,283.881356 C95.6862745,281.887514 97.2927822,280.271186 99.2745098,280.271186 Z M80.1372549,280.271186 C82.1189825,280.271186 83.7254902,281.887514 83.7254902,283.881356 C83.7254902,285.875197 82.1189825,287.491525 80.1372549,287.491525 C78.1555273,287.491525 76.5490196,285.875197 76.5490196,283.881356 C76.5490196,281.887514 78.1555273,280.271186 80.1372549,280.271186 Z M61,280.271186 C62.9817276,280.271186 64.5882353,281.887514 64.5882353,283.881356 C64.5882353,285.875197 62.9817276,287.491525 61,287.491525 C59.0182724,287.491525 57.4117647,285.875197 57.4117647,283.881356 C57.4117647,281.887514 59.0182724,280.271186 61,280.271186 Z M41.8627451,280.271186 C43.8444727,280.271186 45.4509804,281.887514 45.4509804,283.881356 C45.4509804,285.875197 43.8444727,287.491525 41.8627451,287.491525 C39.8810175,287.491525 38.2745098,285.875197 38.2745098,283.881356 C38.2745098,281.887514 39.8810175,280.271186 41.8627451,280.271186 Z M22.7254902,280.271186 C24.7072178,280.271186 26.3137255,281.887514 26.3137255,283.881356 C26.3137255,285.875197 24.7072178,287.491525 22.7254902,287.491525 C20.7437626,287.491525 19.1372549,285.875197 19.1372549,283.881356 C19.1372549,281.887514 20.7437626,280.271186 22.7254902,280.271186 Z M3.58823529,280.271186 C5.56996293,280.271186 7.17647059,281.887514 7.17647059,283.881356 C7.17647059,285.875197 5.56996293,287.491525 3.58823529,287.491525 C1.60650766,287.491525 0,285.875197 0,283.881356 C0,281.887514 1.60650766,280.271186 3.58823529,280.271186 Z M118.411765,261.016949 C120.393492,261.016949 122,262.633277 122,264.627119 C122,266.62096 120.393492,268.237288 118.411765,268.237288 C116.430037,268.237288 114.823529,266.62096 114.823529,264.627119 C114.823529,262.633277 116.430037,261.016949 118.411765,261.016949 Z M99.2745098,261.016949 C101.256237,261.016949 102.862745,262.633277 102.862745,264.627119 C102.862745,266.62096 101.256237,268.237288 99.2745098,268.237288 C97.2927822,268.237288 95.6862745,266.62096 95.6862745,264.627119 C95.6862745,262.633277 97.2927822,261.016949 99.2745098,261.016949 Z M80.1372549,261.016949 C82.1189825,261.016949 83.7254902,262.633277 83.7254902,264.627119 C83.7254902,266.62096 82.1189825,268.237288 80.1372549,268.237288 C78.1555273,268.237288 76.5490196,266.62096 76.5490196,264.627119 C76.5490196,262.633277 78.1555273,261.016949 80.1372549,261.016949 Z M61,261.016949 C62.9817276,261.016949 64.5882353,262.633277 64.5882353,264.627119 C64.5882353,266.62096 62.9817276,268.237288 61,268.237288 C59.0182724,268.237288 57.4117647,266.62096 57.4117647,264.627119 C57.4117647,262.633277 59.0182724,261.016949 61,261.016949 Z M41.8627451,261.016949 C43.8444727,261.016949 45.4509804,262.633277 45.4509804,264.627119 C45.4509804,266.62096 43.8444727,268.237288 41.8627451,268.237288 C39.8810175,268.237288 38.2745098,266.62096 38.2745098,264.627119 C38.2745098,262.633277 39.8810175,261.016949 41.8627451,261.016949 Z M22.7254902,261.016949 C24.7072178,261.016949 26.3137255,262.633277 26.3137255,264.627119 C26.3137255,266.62096 24.7072178,268.237288 22.7254902,268.237288 C20.7437626,268.237288 19.1372549,266.62096 19.1372549,264.627119 C19.1372549,262.633277 20.7437626,261.016949 22.7254902,261.016949 Z M3.58823529,261.016949 C5.56996293,261.016949 7.17647059,262.633277 7.17647059,264.627119 C7.17647059,266.62096 5.56996293,268.237288 3.58823529,268.237288 C1.60650766,268.237288 0,266.62096 0,264.627119 C0,262.633277 1.60650766,261.016949 3.58823529,261.016949 Z M118.411765,241.762712 C120.393492,241.762712 122,243.37904 122,245.372881 C122,247.366723 120.393492,248.983051 118.411765,248.983051 C116.430037,248.983051 114.823529,247.366723 114.823529,245.372881 C114.823529,243.37904 116.430037,241.762712 118.411765,241.762712 Z M99.2745098,241.762712 C101.256237,241.762712 102.862745,243.37904 102.862745,245.372881 C102.862745,247.366723 101.256237,248.983051 99.2745098,248.983051 C97.2927822,248.983051 95.6862745,247.366723 95.6862745,245.372881 C95.6862745,243.37904 97.2927822,241.762712 99.2745098,241.762712 Z M80.1372549,241.762712 C82.1189825,241.762712 83.7254902,243.37904 83.7254902,245.372881 C83.7254902,247.366723 82.1189825,248.983051 80.1372549,248.983051 C78.1555273,248.983051 76.5490196,247.366723 76.5490196,245.372881 C76.5490196,243.37904 78.1555273,241.762712 80.1372549,241.762712 Z M61,241.762712 C62.9817276,241.762712 64.5882353,243.37904 64.5882353,245.372881 C64.5882353,247.366723 62.9817276,248.983051 61,248.983051 C59.0182724,248.983051 57.4117647,247.366723 57.4117647,245.372881 C57.4117647,243.37904 59.0182724,241.762712 61,241.762712 Z M41.8627451,241.762712 C43.8444727,241.762712 45.4509804,243.37904 45.4509804,245.372881 C45.4509804,247.366723 43.8444727,248.983051 41.8627451,248.983051 C39.8810175,248.983051 38.2745098,247.366723 38.2745098,245.372881 C38.2745098,243.37904 39.8810175,241.762712 41.8627451,241.762712 Z M22.7254902,241.762712 C24.7072178,241.762712 26.3137255,243.37904 26.3137255,245.372881 C26.3137255,247.366723 24.7072178,248.983051 22.7254902,248.983051 C20.7437626,248.983051 19.1372549,247.366723 19.1372549,245.372881 C19.1372549,243.37904 20.7437626,241.762712 22.7254902,241.762712 Z M3.58823529,241.762712 C5.56996293,241.762712 7.17647059,243.37904 7.17647059,245.372881 C7.17647059,247.366723 5.56996293,248.983051 3.58823529,248.983051 C1.60650766,248.983051 0,247.366723 0,245.372881 C0,243.37904 1.60650766,241.762712 3.58823529,241.762712 Z M118.411765,222.508475 C120.393492,222.508475 122,224.124803 122,226.118644 C122,228.112486 120.393492,229.728814 118.411765,229.728814 C116.430037,229.728814 114.823529,228.112486 114.823529,226.118644 C114.823529,224.124803 116.430037,222.508475 118.411765,222.508475 Z M99.2745098,222.508475 C101.256237,222.508475 102.862745,224.124803 102.862745,226.118644 C102.862745,228.112486 101.256237,229.728814 99.2745098,229.728814 C97.2927822,229.728814 95.6862745,228.112486 95.6862745,226.118644 C95.6862745,224.124803 97.2927822,222.508475 99.2745098,222.508475 Z M80.1372549,222.508475 C82.1189825,222.508475 83.7254902,224.124803 83.7254902,226.118644 C83.7254902,228.112486 82.1189825,229.728814 80.1372549,229.728814 C78.1555273,229.728814 76.5490196,228.112486 76.5490196,226.118644 C76.5490196,224.124803 78.1555273,222.508475 80.1372549,222.508475 Z M61,222.508475 C62.9817276,222.508475 64.5882353,224.124803 64.5882353,226.118644 C64.5882353,228.112486 62.9817276,229.728814 61,229.728814 C59.0182724,229.728814 57.4117647,228.112486 57.4117647,226.118644 C57.4117647,224.124803 59.0182724,222.508475 61,222.508475 Z M41.8627451,222.508475 C43.8444727,222.508475 45.4509804,224.124803 45.4509804,226.118644 C45.4509804,228.112486 43.8444727,229.728814 41.8627451,229.728814 C39.8810175,229.728814 38.2745098,228.112486 38.2745098,226.118644 C38.2745098,224.124803 39.8810175,222.508475 41.8627451,222.508475 Z M22.7254902,222.508475 C24.7072178,222.508475 26.3137255,224.124803 26.3137255,226.118644 C26.3137255,228.112486 24.7072178,229.728814 22.7254902,229.728814 C20.7437626,229.728814 19.1372549,228.112486 19.1372549,226.118644 C19.1372549,224.124803 20.7437626,222.508475 22.7254902,222.508475 Z M3.58823529,222.508475 C5.56996293,222.508475 7.17647059,224.124803 7.17647059,226.118644 C7.17647059,228.112486 5.56996293,229.728814 3.58823529,229.728814 C1.60650766,229.728814 0,228.112486 0,226.118644 C0,224.124803 1.60650766,222.508475 3.58823529,222.508475 Z M118.411765,203.254237 C120.393492,203.254237 122,204.870565 122,206.864407 C122,208.858248 120.393492,210.474576 118.411765,210.474576 C116.430037,210.474576 114.823529,208.858248 114.823529,206.864407 C114.823529,204.870565 116.430037,203.254237 118.411765,203.254237 Z M99.2745098,203.254237 C101.256237,203.254237 102.862745,204.870565 102.862745,206.864407 C102.862745,208.858248 101.256237,210.474576 99.2745098,210.474576 C97.2927822,210.474576 95.6862745,208.858248 95.6862745,206.864407 C95.6862745,204.870565 97.2927822,203.254237 99.2745098,203.254237 Z M80.1372549,203.254237 C82.1189825,203.254237 83.7254902,204.870565 83.7254902,206.864407 C83.7254902,208.858248 82.1189825,210.474576 80.1372549,210.474576 C78.1555273,210.474576 76.5490196,208.858248 76.5490196,206.864407 C76.5490196,204.870565 78.1555273,203.254237 80.1372549,203.254237 Z M61,203.254237 C62.9817276,203.254237 64.5882353,204.870565 64.5882353,206.864407 C64.5882353,208.858248 62.9817276,210.474576 61,210.474576 C59.0182724,210.474576 57.4117647,208.858248 57.4117647,206.864407 C57.4117647,204.870565 59.0182724,203.254237 61,203.254237 Z M41.8627451,203.254237 C43.8444727,203.254237 45.4509804,204.870565 45.4509804,206.864407 C45.4509804,208.858248 43.8444727,210.474576 41.8627451,210.474576 C39.8810175,210.474576 38.2745098,208.858248 38.2745098,206.864407 C38.2745098,204.870565 39.8810175,203.254237 41.8627451,203.254237 Z M22.7254902,203.254237 C24.7072178,203.254237 26.3137255,204.870565 26.3137255,206.864407 C26.3137255,208.858248 24.7072178,210.474576 22.7254902,210.474576 C20.7437626,210.474576 19.1372549,208.858248 19.1372549,206.864407 C19.1372549,204.870565 20.7437626,203.254237 22.7254902,203.254237 Z M3.58823529,203.254237 C5.56996293,203.254237 7.17647059,204.870565 7.17647059,206.864407 C7.17647059,208.858248 5.56996293,210.474576 3.58823529,210.474576 C1.60650766,210.474576 0,208.858248 0,206.864407 C0,204.870565 1.60650766,203.254237 3.58823529,203.254237 Z M118.411765,184 C120.393492,184 122,185.616328 122,187.610169 C122,189.604011 120.393492,191.220339 118.411765,191.220339 C116.430037,191.220339 114.823529,189.604011 114.823529,187.610169 C114.823529,185.616328 116.430037,184 118.411765,184 Z M99.2745098,184 C101.256237,184 102.862745,185.616328 102.862745,187.610169 C102.862745,189.604011 101.256237,191.220339 99.2745098,191.220339 C97.2927822,191.220339 95.6862745,189.604011 95.6862745,187.610169 C95.6862745,185.616328 97.2927822,184 99.2745098,184 Z M80.1372549,184 C82.1189825,184 83.7254902,185.616328 83.7254902,187.610169 C83.7254902,189.604011 82.1189825,191.220339 80.1372549,191.220339 C78.1555273,191.220339 76.5490196,189.604011 76.5490196,187.610169 C76.5490196,185.616328 78.1555273,184 80.1372549,184 Z M61,184 C62.9817276,184 64.5882353,185.616328 64.5882353,187.610169 C64.5882353,189.604011 62.9817276,191.220339 61,191.220339 C59.0182724,191.220339 57.4117647,189.604011 57.4117647,187.610169 C57.4117647,185.616328 59.0182724,184 61,184 Z M41.8627451,184 C43.8444727,184 45.4509804,185.616328 45.4509804,187.610169 C45.4509804,189.604011 43.8444727,191.220339 41.8627451,191.220339 C39.8810175,191.220339 38.2745098,189.604011 38.2745098,187.610169 C38.2745098,185.616328 39.8810175,184 41.8627451,184 Z M22.7254902,184 C24.7072178,184 26.3137255,185.616328 26.3137255,187.610169 C26.3137255,189.604011 24.7072178,191.220339 22.7254902,191.220339 C20.7437626,191.220339 19.1372549,189.604011 19.1372549,187.610169 C19.1372549,185.616328 20.7437626,184 22.7254902,184 Z M3.58823529,184 C5.56996293,184 7.17647059,185.616328 7.17647059,187.610169 C7.17647059,189.604011 5.56996293,191.220339 3.58823529,191.220339 C1.60650766,191.220339 0,189.604011 0,187.610169 C0,185.616328 1.60650766,184 3.58823529,184 Z" id="Pattern" fill="#1565D8" opacity="0.100000001"></path>
                <g id="Elements/Shape/Fill/99-R-Copy" transform="translate(57.000000, 0.000000)">
                    <rect id="Shadow" x="0" y="0" width="30" height="30"></rect>
                    <rect id="Fill" fill="#00B8D9" x="0" y="0" width="30" height="30"></rect>
                </g>
            </g>
        </g>
    </g>
</svg>