<svg xmlns="http://www.w3.org/2000/svg" width="20" height="20" viewBox="0 0 20 20">
    <g fill="none" fill-rule="evenodd">
        <g fill="#5E6C84" fill-rule="nonzero">
            <g>
                <g>
                    <g>
                        <path d="M10 1c-4.97 0-9 4.03-9 9s4.03 9 9 9 9-4.03 9-9c0-2.387-.948-4.676-2.636-6.364C14.676 1.948 12.387 1 10 1zm0 16.2c-3.976 0-7.2-3.224-7.2-7.2S6.024 2.8 10 2.8s7.2 3.224 7.2 7.2c0 1.91-.759 3.74-2.109 5.091C13.741 16.441 11.91 17.2 10 17.2zm2.79-6.633L10.9 9.478V5.5c0-.497-.403-.9-.9-.9s-.9.403-.9.9v4.608c.005.062.02.123.045.18.019.053.043.105.072.153.025.051.055.1.09.144l.144.117.081.081 2.34 1.35c.137.078.292.118.45.117.41.003.77-.272.876-.668.106-.395-.07-.813-.426-1.015h.018z" transform="translate(-321 -1806) translate(150 1452) translate(0 184) translate(171 170)"/>
                    </g>
                </g>
            </g>
        </g>
    </g>
</svg>
