<svg xmlns="http://www.w3.org/2000/svg" width="20" height="20" viewBox="0 0 20 20">
    <g fill="none" fill-rule="evenodd">
        <g fill="#5E6C84" fill-rule="nonzero">
            <g>
                <g>
                    <g>
                        <path d="M10 0C5.582 0 2 3.582 2 8c0 5.4 7.05 11.5 7.35 11.76.374.32.926.32 1.3 0C11 19.5 18 13.4 18 8c0-4.418-3.582-8-8-8zm0 17.65c-2.13-2-6-6.31-6-9.65 0-3.314 2.686-6 6-6s6 2.686 6 6c0 3.34-3.87 7.66-6 9.65zM10 4C7.79 4 6 5.79 6 8s1.79 4 4 4 4-1.79 4-4c0-1.06-.421-2.078-1.172-2.828C12.078 4.422 11.061 4 10 4zm0 6c-1.105 0-2-.895-2-2s.895-2 2-2 2 .895 2 2-.895 2-2 2z" transform="translate(-180 -1806) translate(150 1452) translate(0 184) translate(30 170)"/>
                    </g>
                </g>
            </g>
        </g>
    </g>
</svg>
