<svg xmlns="http://www.w3.org/2000/svg" width="38" height="41" viewBox="0 0 38 41">
    <g fill="none" fill-rule="evenodd" transform="translate(-9 -10)">
        <circle cx="32" cy="32" r="32"/>
        <ellipse cx="16" cy="45" fill="#FFF" rx="6" ry="5"/>
        <ellipse cx="40" cy="41" fill="#FFF" rx="6" ry="5"/>
        <ellipse cx="16" cy="45" fill="#52ABE2" rx="6" ry="5"/>
        <ellipse cx="40" cy="41" fill="#FFC200" rx="6" ry="5"/>
        <path fill="#FFF" d="M17.5 40.158C14.912 40.713 13 42.67 13 45c0 2.33 1.912 4.287 4.5 4.842-.48.103-.982.158-1.5.158-3.314 0-6-2.239-6-5s2.686-5 6-5c.518 0 1.02.055 1.5.158zM41.5 36.158C38.912 36.713 37 38.67 37 41c0 2.33 1.912 4.287 4.5 4.842-.48.103-.982.158-1.5.158-3.314 0-6-2.239-6-5s2.686-5 6-5c.518 0 1.02.055 1.5.158z"/>
        <path fill="#154E84" fill-rule="nonzero" d="M16 51c3.83 0 7-2.642 7-6s-3.17-6-7-6-7 2.642-7 6 3.17 6 7 6zm0-2c-2.798 0-5-1.835-5-4s2.202-4 5-4 5 1.835 5 4-2.202 4-5 4zM40 47c3.83 0 7-2.642 7-6s-3.17-6-7-6-7 2.642-7 6 3.17 6 7 6zm0-2c-2.798 0-5-1.835-5-4s2.202-4 5-4 5 1.835 5 4-2.202 4-5 4z"/>
        <path fill="#154E84" fill-rule="nonzero" d="M23 18.765l22-6.38v28.33c0 .552.448 1 1 1s1-.448 1-1V11.053c0-.666-.639-1.146-1.279-.96l-24 6.96c-.427.125-.721.516-.721.961v26.7c0 .553.448 1 1 1s1-.447 1-1V18.766z"/>
        <path fill="#154E84" fill-rule="nonzero" d="M22.28 24.96c-.64.187-1.28-.293-1.28-.96v-5.986c0-.445.294-.836.721-.96l24-6.961c.64-.186 1.279.294 1.279.96V17c0 .444-.293.836-.72.96l-24 7zM45 16.25v-3.866l-22 6.381v3.902l22-6.417z"/>
    </g>
</svg>
