<svg xmlns="http://www.w3.org/2000/svg" width="42" height="42" viewBox="0 0 42 42">
    <g fill="none" fill-rule="evenodd" transform="translate(-11 -11)">
        <circle cx="32" cy="32" r="32"/>
        <path fill="#FFF" d="M22 52h20c1.105 0 2-.895 2-2V28h6c1.105 0 2-.895 2-2v-8c0-3.314-2.686-6-6-6h-8c0 3.314-2.686 6-6 6s-6-2.686-6-6h-8c-3.314 0-6 2.686-6 6v8c0 1.105.895 2 2 2h6v22c0 1.105.895 2 2 2z"/>
        <path fill="#52ABE2" d="M12 24H20V28H12z" transform="matrix(-1 0 0 1 32 0)"/>
        <path fill="#52ABE2" d="M44 24H52V28H44z" transform="matrix(-1 0 0 1 96 0)"/>
        <path fill="#52ABE2" d="M20 48L44 48 44 52 20 52z" transform="matrix(-1 0 0 1 64 0)"/>
        <path fill="#FFC200" d="M40 23h-7v2.5c0 1.933 1.567 3.5 3.5 3.5s3.5-1.567 3.5-3.5V23z"/>
        <path fill="#154E84" fill-rule="nonzero" d="M43 24v26c0 .552-.448 1-1 1H22c-.552 0-1-.448-1-1V24c0-.552-.448-1-1-1s-1 .448-1 1v26c0 1.657 1.343 3 3 3h20c1.657 0 3-1.343 3-3V24c0-.552-.448-1-1-1s-1 .448-1 1z"/>
        <path fill="#154E84" fill-rule="nonzero" d="M45 29h5c1.657 0 3-1.343 3-3v-8c0-3.866-3.134-7-7-7h-8c-.552 0-1 .448-1 1 0 2.761-2.239 5-5 5s-5-2.239-5-5c0-.552-.448-1-1-1h-8c-3.866 0-7 3.134-7 7v8c0 1.657 1.343 3 3 3h5v21c0 1.657 1.343 3 3 3h20c1.657 0 3-1.343 3-3V29zM32 19c3.526 0 6.444-2.608 6.93-6H46c2.761 0 5 2.239 5 5v8c0 .552-.448 1-1 1h-6c-.552 0-1 .448-1 1v22c0 .552-.448 1-1 1H22c-.552 0-1-.448-1-1V28c0-.552-.448-1-1-1h-6c-.552 0-1-.448-1-1v-8c0-2.761 2.239-5 5-5h7.07c.486 3.392 3.404 6 6.93 6z"/>
    </g>
</svg>
