<svg xmlns="http://www.w3.org/2000/svg" width="64" height="64" viewBox="0 0 64 64">
    <g fill="none" fill-rule="evenodd">
        <circle cx="32" cy="32" r="32" fill="#E6F0FC"/>
        <path fill="#154E84" fill-rule="nonzero" d="M15.106 14.553c.169-.339.515-.553.894-.553h32c.379 0 .725.214.894.553l4 8c.156.311.139.682-.046.977l-20 32c-.392.627-1.304.627-1.696 0l-20-32c-.185-.295-.202-.666-.046-.977l4-8z"/>
        <path fill="#FFF" fill-rule="nonzero" d="M16.618 16L13.145 22.946 32 53.113 50.855 22.946 47.382 16z"/>
        <path fill="#FFF" d="M24 23L32 55 12 23z"/>
        <path fill="#FFF" d="M44 23L52 55 32 23z" transform="matrix(-1 0 0 1 84 0)"/>
        <path fill="#52ABE2" d="M24 23L32 54 15 23z"/>
        <path fill="#52ABE2" d="M41 23L49 54 32 23z" transform="matrix(-1 0 0 1 81 0)"/>
        <path fill="#154E84" fill-rule="nonzero" d="M24 22c.459 0 .859.312.97.757l8 32c.276 1.106-1.214 1.739-1.818.773l-20-32c-.416-.666.063-1.53.848-1.53h12zm-.78 2h-9.416l15.692 25.107L23.219 24z"/>
        <path fill="#154E84" fill-rule="nonzero" d="M40.002 22h12c.786 0 1.265.864.848 1.53l-20 32c-.603.966-2.094.333-1.818-.773l8-32c.111-.445.511-.757.97-.757zm10.196 2h-9.415l-6.277 25.107L50.198 24z"/>
        <path fill="#154E84" fill-rule="nonzero" d="M15.106 14.553c.169-.339.515-.553.894-.553h32c.379 0 .725.214.894.553l4 8c.333.665-.15 1.447-.894 1.447H12c-.743 0-1.227-.782-.894-1.447l4-8z"/>
        <path fill="#FFC200" fill-rule="nonzero" d="M16.618 16L13.618 22 50.382 22 47.382 16z"/>
        <path fill="#154E84" fill-rule="nonzero" d="M24.707 23.707c-.39.39-1.024.39-1.414 0l-8-8c-.63-.63-.184-1.707.707-1.707h32c.89 0 1.337 1.077.707 1.707l-8 8c-.39.39-1.024.39-1.414 0L32 16.414l-7.293 7.293z"/>
        <path fill="#FFF" fill-rule="nonzero" d="M18.414 16L24 21.586 29.586 16zM34.414 16L40 21.586 45.586 16z"/>
    </g>
</svg>
