<svg xmlns="http://www.w3.org/2000/svg" width="64" height="64" viewBox="0 0 64 64">
    <g fill="none" fill-rule="evenodd">
        <circle cx="32" cy="32" r="32" fill="#E6F0FC"/>
        <path fill="#154E84" fill-rule="nonzero" d="M16 12h32c1.657 0 3 1.343 3 3v26c0 1.657-1.343 3-3 3H16c-1.657 0-3-1.343-3-3V15c0-1.657 1.343-3 3-3z"/>
        <path fill="#FFF" fill-rule="nonzero" d="M16 14c-.552 0-1 .448-1 1v26c0 .552.448 1 1 1h32c.552 0 1-.448 1-1V15c0-.552-.448-1-1-1H16z"/>
        <path fill="#154E84" fill-rule="nonzero" d="M11 39c0-.552.448-1 1-1h40c.552 0 1 .448 1 1v2c0 1.657-1.343 3-3 3H14c-1.657 0-3-1.343-3-3v-2z"/>
        <path fill="#52ABE2" fill-rule="nonzero" d="M13 40v1c0 .552.448 1 1 1h36c.552 0 1-.448 1-1v-1H13z"/>
        <path fill="#154E84" fill-rule="nonzero" d="M14 12h36c1.657 0 3 1.343 3 3v2c0 .552-.448 1-1 1H12c-.552 0-1-.448-1-1v-2c0-1.657 1.343-3 3-3z"/>
        <path fill="#52ABE2" fill-rule="nonzero" d="M51 16v-1c0-.552-.448-1-1-1H14c-.552 0-1 .448-1 1v1h38z"/>
        <path fill="#154E84" fill-rule="nonzero" d="M32 42c.743 0 1.227.782.894 1.447l-4 8c-.169.339-.515.553-.894.553h-4c-.743 0-1.227-.782-.894-1.447l4-8c.169-.339.515-.553.894-.553h4z"/>
        <path fill="#FFC200" fill-rule="nonzero" d="M28.618 44L25.618 50 27.382 50 30.382 44z"/>
        <path fill="#154E84" fill-rule="nonzero" d="M32 42c-.743 0-1.227.782-.894 1.447l4 8c.169.339.515.553.894.553h4c.743 0 1.227-.782.894-1.447l-4-8C36.725 42.214 36.38 42 36 42h-4z"/>
        <path fill="#FFC200" fill-rule="nonzero" d="M36.618 44L33.618 50 35.382 50 38.382 44z" transform="matrix(-1 0 0 1 72 0)"/>
        <path fill="#154E84" fill-rule="nonzero" d="M32.375 31.78c.366.293.884.293 1.25 0l10-8c.431-.344.5-.973.156-1.405-.345-.431-.974-.5-1.406-.156L33 29.72l-4.375-3.5c-.356-.285-.86-.293-1.225-.019l-8 6c-.442.331-.531.958-.2 1.4.331.442.958.531 1.4.2l7.38-5.535 4.395 3.516z"/>
        <path fill="#154E84" fill-rule="nonzero" d="M42 24v4c0 .552.448 1 1 1s1-.448 1-1v-5c0-.552-.448-1-1-1h-5c-.552 0-1 .448-1 1s.448 1 1 1h4z"/>
    </g>
</svg>
