<svg xmlns="http://www.w3.org/2000/svg" width="56" height="56" viewBox="0 0 56 56">
    <g fill="none" fill-rule="evenodd">
        <circle cx="28" cy="28" r="28" fill="#E6F0FC"/>
        <path fill="#52ABE2" d="M17.5 23.625L17.5 34.125 38.5 34.125 38.5 23.625z"/>
        <path fill="#154E84" fill-rule="nonzero" d="M16.625 23.625v10.5c0 .483.392.875.875.875h21c.483 0 .875-.392.875-.875v-10.5c0-.483-.392-.875-.875-.875h-21c-.483 0-.875.392-.875.875zm1.75.875h19.25v8.75h-19.25V24.5z"/>
        <path fill="#FFF" d="M24.3 29.876c-3.397-1.442-5.78-4.808-5.78-8.73v-3.792c0-5.235 4.245-9.479 9.48-9.479s9.48 4.244 9.48 9.48v3.79c0 3.923-2.383 7.29-5.78 8.73l1.55 4.25 6.565 1.324c1.333.26 2.396 1.268 2.725 2.586l1.21 4.84h-31.5l1.208-4.834c.33-1.32 1.397-2.33 2.735-2.588l6.557-1.328 1.55-4.25z"/>
        <path fill="#154E84" fill-rule="nonzero" d="M17.646 21.146v-3.792C17.646 11.636 22.282 7 28 7c5.718 0 10.354 4.636 10.354 10.354v3.792c0 3.91-2.187 7.417-5.559 9.18l1.109 3.038 6.078 1.226c1.667.325 2.995 1.585 3.407 3.233l1.21 4.84c.138.552-.28 1.087-.849 1.087h-31.5c-.57 0-.987-.535-.849-1.087l1.209-4.834c.412-1.651 1.746-2.913 3.41-3.233l6.076-1.231 1.109-3.04c-3.372-1.762-5.56-5.27-5.56-9.18zM41.69 38.247c-.247-.988-1.044-1.744-2.05-1.94l-6.564-1.324c-.299-.06-.545-.272-.649-.558l-1.55-4.25c-.16-.437.052-.923.48-1.105 3.154-1.338 5.246-4.438 5.246-7.924v-3.792c0-4.752-3.852-8.604-8.604-8.604-4.752 0-8.604 3.852-8.604 8.604v3.792c0 3.486 2.092 6.586 5.246 7.924.428.182.64.668.48 1.105l-1.55 4.25c-.104.286-.35.497-.648.558l-6.566 1.33c-1.003.192-1.803.95-2.05 1.94L13.37 42h29.258l-.938-3.753z"/>
        <circle cx="29.75" cy="30.625" r="1.75" fill="#FFC200"/>
        <path fill="#154E84" fill-rule="nonzero" d="M29.75 33.25c1.45 0 2.625-1.175 2.625-2.625S31.2 28 29.75 28s-2.625 1.175-2.625 2.625S28.3 33.25 29.75 33.25zm0-1.75c-.483 0-.875-.392-.875-.875s.392-.875.875-.875.875.392.875.875-.392.875-.875.875zM21.875 34.125c0 3.383 2.742 6.125 6.125 6.125s6.125-2.742 6.125-6.125c0-.483-.392-.875-.875-.875s-.875.392-.875.875c0 2.416-1.959 4.375-4.375 4.375s-4.375-1.959-4.375-4.375c0-.483-.392-.875-.875-.875s-.875.392-.875.875z"/>
        <path fill="#FFC200" d="M38.5 16.625h1.75c.966 0 1.75.784 1.75 1.75v3.5c0 .966-.784 1.75-1.75 1.75H38.5v-7zM17.5 16.625v7h-1.75c-.966 0-1.75-.784-1.75-1.75v-3.5c0-.966.784-1.75 1.75-1.75h1.75z"/>
        <path fill="#154E84" fill-rule="nonzero" d="M37.625 16.625c0-.483.392-.875.875-.875h1.75c1.45 0 2.625 1.175 2.625 2.625v3.5c0 1.45-1.175 2.625-2.625 2.625H38.5c-.483 0-.875-.392-.875-.875v-7zm1.75.875v5.25h.875c.483 0 .875-.392.875-.875v-3.5c0-.483-.392-.875-.875-.875h-.875zM18.375 16.625v7c0 .483-.392.875-.875.875h-1.75c-1.45 0-2.625-1.175-2.625-2.625v-3.5c0-1.45 1.175-2.625 2.625-2.625h1.75c.483 0 .875.392.875.875zm-1.75.875h-.875c-.483 0-.875.392-.875.875v3.5c0 .483.392.875.875.875h.875V17.5z"/>
        <path fill="#52ABE2" d="M37.48 17.354c-2.21-.137-5.077-2.102-6.374-5.317-3.896 3.621-8.009 5.353-12.585 5.317l.024-.526c.23-5.01 4.358-8.953 9.373-8.953 5.04 0 9.21 3.916 9.527 8.945l.034.534z"/>
        <path fill="#154E84" fill-rule="nonzero" d="M18.514 18.23c-.496-.005-.89-.42-.867-.916l.024-.526C17.922 11.311 22.436 7 27.918 7c5.5 0 10.054 4.275 10.4 9.765l.034.534c.034.526-.401.961-.927.928-2.446-.151-5.105-2.043-6.607-4.763-3.794 3.231-7.837 4.8-12.304 4.765zm9.404-9.48c-4.41 0-8.065 3.364-8.47 7.71 3.981-.19 7.593-1.84 11.062-5.064.449-.418 1.177-.256 1.407.313.914 2.265 2.798 3.999 4.598 4.573-.564-4.279-4.22-7.532-8.597-7.532z"/>
    </g>
</svg>
