<svg xmlns="http://www.w3.org/2000/svg" width="39" height="42" viewBox="0 0 39 42">
    <g fill="none" fill-rule="evenodd" transform="translate(-15 -13)">
        <circle cx="34" cy="34" r="32"/>
        <path fill="#154E84" fill-rule="nonzero" d="M47 42v2c0 4.97-4.03 9-9 9s-9-4.03-9-9v-6h-2v6c0 6.075 4.925 11 11 11s11-4.925 11-11v-2h-2z"/>
        <path fill="#154E84" fill-rule="nonzero" d="M48 44c3.314 0 6-2.686 6-6s-2.686-6-6-6-6 2.686-6 6 2.686 6 6 6z"/>
        <path fill="#FFF" fill-rule="nonzero" d="M48 42c-2.21 0-4-1.79-4-4s1.79-4 4-4 4 1.79 4 4-1.79 4-4 4z"/>
        <circle cx="48" cy="38" r="2" fill="#FFC200"/>
        <path fill="#154E84" fill-rule="nonzero" d="M34.887 18H33c-.552 0-1-.448-1-1v-3c0-.552.448-1 1-1h4.444c1.657 0 3 1.343 3 3 0 .243-.03.485-.088.721l-4.955 20C35.069 38.06 33.868 39 32.489 39h-8.901c-1.376 0-2.575-.935-2.91-2.27l-5.023-20c-.404-1.606.572-3.236 2.179-3.64.239-.06.484-.09.73-.09H23c.552 0 1 .448 1 1v3c0 .552-.448 1-1 1h-1.887l3.683 16h6.408l3.683-16z"/>
        <path fill="#52ABE2" fill-rule="nonzero" d="M22 15h-3.436c-.082 0-.164.01-.243.03-.536.135-.861.678-.726 1.214l5.023 20c.111.444.511.756.97.756h8.9c.46 0 .861-.313.972-.76l4.955-20c.02-.078.029-.159.029-.24 0-.552-.448-1-1-1H34v1h2.143c.643 0 1.119.598.974 1.224l-4.142 18c-.105.454-.51.776-.975.776h-8c-.466 0-.87-.322-.975-.776l-4.142-18c-.145-.626.331-1.224.974-1.224H22v-1z"/>
        <path fill="#154E84" fill-rule="nonzero" d="M25 38c0-.552.448-1 1-1h4c.552 0 1 .448 1 1v3c0 .552-.448 1-1 1h-4c-.552 0-1-.448-1-1v-3z"/>
        <path fill="#FFF" fill-rule="nonzero" d="M27 39L27 40 29 40 29 39z"/>
    </g>
</svg>
