<svg xmlns="http://www.w3.org/2000/svg" width="26" height="42" viewBox="0 0 26 42">
    <g fill="none" fill-rule="evenodd" stroke-linejoin="round" transform="translate(-19 -11)">
        <circle cx="32" cy="32" r="32"/>
        <path fill="#FFF" d="M44 14v36c0 1.105-.895 2-2 2H22c-1.105 0-2-.895-2-2V14c0-1.105.895-2 2-2h20c1.105 0 2 .895 2 2z"/>
        <path fill="#154E84" fill-rule="nonzero" d="M45 14v36c0 1.657-1.343 3-3 3H22c-1.657 0-3-1.343-3-3V14c0-1.657 1.343-3 3-3h20c1.657 0 3 1.343 3 3zm-2 0c0-.552-.448-1-1-1H22c-.552 0-1 .448-1 1v36c0 .552.448 1 1 1h20c.552 0 1-.448 1-1V14z"/>
        <path fill="#FFC200" fill-rule="nonzero" d="M30 49h4c.552 0 1-.448 1-1s-.448-1-1-1h-4c-.552 0-1 .448-1 1s.448 1 1 1z"/>
        <path fill="#52ABE2" d="M24 15h16c.552 0 1 .448 1 1v28c0 .552-.448 1-1 1H24c-.552 0-1-.448-1-1V16c0-.552.448-1 1-1z"/>
    </g>
</svg>
