<svg xmlns="http://www.w3.org/2000/svg" width="29" height="31" viewBox="0 0 29 31">
    <g fill="none" fill-rule="evenodd">
        <path fill="#154E84" fill-rule="nonzero" d="M6.818 7.09h17.455c1.205 0 2.182.978 2.182 2.183v17.454c0 1.205-.977 2.182-2.182 2.182H6.818c-1.205 0-2.182-.977-2.182-2.182V9.273c0-1.205.977-2.182 2.182-2.182z" transform="translate(-1 -2)"/>
        <path fill="#52ABE2" fill-rule="nonzero" d="M6.818 8.545c-.401 0-.727.326-.727.728v17.454c0 .402.326.728.727.728h17.455c.401 0 .727-.326.727-.728V9.273c0-.402-.326-.728-.727-.728H6.818z" transform="translate(-1 -2)"/>
        <path fill="#154E84" fill-rule="nonzero" d="M7.545 10.727c0-.401.326-.727.728-.727h14.545c.402 0 .727.326.727.727v14.546c0 .401-.325.727-.727.727H8.273c-.402 0-.728-.326-.728-.727V10.727z" transform="translate(-1 -2)"/>
        <path fill="#FFF" fill-rule="nonzero" d="M9 11.455L9 24.545 22.091 24.545 22.091 11.455z" transform="translate(-1 -2)"/>
        <path fill="#FFC200" d="M13.364 15.09h4.363c.402 0 .728.327.728.728v4.364c0 .401-.326.727-.728.727h-4.363c-.402 0-.728-.326-.728-.727v-4.364c0-.401.326-.727.728-.727z" transform="translate(-1 -2)"/>
        <path fill="#154E84" fill-rule="nonzero" d="M16.303 7.624V3.5c0-.402-.326-.728-.727-.728-.402 0-.728.326-.728.728v4.125c0 .402.326.727.728.727.401 0 .727-.325.727-.727zM22.121 7.624V3.5c0-.402-.326-.728-.727-.728-.402 0-.727.326-.727.728v4.125c0 .402.325.727.727.727.401 0 .727-.325.727-.727zM16.273 32.307v-4.125c0-.402-.326-.727-.728-.727-.401 0-.727.325-.727.727v4.125c0 .402.326.728.727.728.402 0 .728-.326.728-.728zM22.09 32.307v-4.125c0-.402-.325-.727-.726-.727-.402 0-.728.325-.728.727v4.125c0 .402.326.728.728.728.401 0 .727-.326.727-.728zM10.455 32.307v-4.125c0-.402-.326-.727-.728-.727-.401 0-.727.325-.727.727v4.125c0 .402.326.728.727.728.402 0 .728-.326.728-.728zM29.126 17.28c.401 0 .727.325.727.726 0 .402-.326.728-.727.728h-2.671c-.402 0-.728-.326-.728-.728 0-.401.326-.727.728-.727h2.67zM29.126 11.46c.401 0 .727.327.727.728 0 .402-.326.727-.727.727h-2.671c-.402 0-.728-.325-.728-.727 0-.401.326-.727.728-.727h2.67zM29.126 23.097c.401 0 .727.326.727.728 0 .401-.326.727-.727.727h-2.671c-.402 0-.728-.326-.728-.727 0-.402.326-.728.728-.728h2.67zM5.126 17.28c.401 0 .727.325.727.726 0 .402-.326.728-.727.728H1.727c-.401 0-.727-.326-.727-.728 0-.401.326-.727.727-.727h3.399zM5.126 11.46c.401 0 .727.327.727.728 0 .402-.326.727-.727.727H1.727c-.401 0-.727-.325-.727-.727 0-.401.326-.727.727-.727h3.399zM5.126 23.097c.401 0 .727.326.727.728 0 .401-.326.727-.727.727H1.727c-.401 0-.727-.326-.727-.727 0-.402.326-.728.727-.728h3.399zM10.485 7.624V3.5c0-.402-.326-.728-.728-.728-.401 0-.727.326-.727.728v4.125c0 .402.326.727.727.727.402 0 .728-.325.728-.727z" transform="translate(-1 -2)"/>
    </g>
</svg>
