<svg xmlns="http://www.w3.org/2000/svg" width="56" height="56" viewBox="0 0 56 56">
    <g fill="none" fill-rule="evenodd">
        <circle cx="28" cy="28" r="28" fill="#E6F0FC"/>
        <path fill="#154E84" fill-rule="nonzero" d="M27.703 9.677c.192-.07.402-.07.594 0l15.75 5.688c.347.125.578.454.578.822V28c0 9.198-5.538 15.351-16.392 18.344-.15.04-.31.041-.46.001C16.915 43.431 11.375 37.276 11.375 28V16.187c0-.368.231-.697.578-.822l15.75-5.688zM28 11.43l-14.875 5.372V28c0 8.358 4.885 13.85 14.872 16.592 9.99-2.816 14.878-8.309 14.878-16.592V16.802L28 11.43z"/>
        <path fill="#52ABE2" d="M28 10.5l15.75 5.688V28c0 8.772-5.25 14.606-15.75 17.5-10.5-2.818-15.75-8.65-15.75-17.5V16.187L28 10.5z"/>
        <path fill="#FFC200" d="M28 10.5v35C17.5 42.682 12.25 36.85 12.25 28V16.187L28 10.5z"/>
        <path fill="#154E84" fill-rule="nonzero" d="M27.695 13.18c.197-.073.413-.073.61 0l12.25 4.55c.343.127.57.454.57.82V28c0 7.437-4.365 12.426-12.886 14.842-.154.043-.317.044-.472.001C19.242 40.491 14.875 35.5 14.875 28v-9.45c0-.366.227-.693.57-.82l12.25-4.55z"/>
        <path fill="#FFF" fill-rule="nonzero" d="M28 14.933l-11.375 4.225V28c0 6.592 3.723 10.913 11.372 13.09C35.65 38.855 39.375 34.532 39.375 28v-8.842L28 14.933z"/>
        <path fill="#154E84" fill-rule="nonzero" d="M24.244 28.256c-.342-.341-.896-.341-1.238 0-.341.342-.341.896 0 1.238l3.5 3.5c.372.372.987.334 1.31-.082l6.125-7.875c.296-.381.228-.931-.154-1.228-.381-.296-.931-.228-1.228.154l-5.516 7.092-2.8-2.799z"/>
        <path fill="#154E84" fill-rule="nonzero" d="M27.703 9.677c.192-.07.402-.07.594 0l15.75 5.688c.347.125.578.454.578.822V28c0 9.198-5.538 15.351-16.392 18.344-.15.04-.31.041-.46.001C16.915 43.431 11.375 37.276 11.375 28V16.187c0-.368.231-.697.578-.822l15.75-5.688zM28 11.43l-14.875 5.372V28c0 8.358 4.885 13.85 14.872 16.592 9.99-2.816 14.878-8.309 14.878-16.592V16.802L28 11.43z"/>
    </g>
</svg>
