<svg xmlns="http://www.w3.org/2000/svg" width="56" height="56" viewBox="0 0 56 56">
    <g fill="none" fill-rule="evenodd">
        <circle cx="28" cy="28" r="28" fill="#E6F0FC"/>
        <path fill="#FFF" d="M33.25 32.375V19.25h6.845c.636 0 1.221.345 1.53.9l3.655 6.579c.144.26.22.552.22.85v10.046c0 .966-.784 1.75-1.75 1.75h-31.5c-.966 0-1.75-.784-1.75-1.75v-5.25h22.75z"/>
        <path fill="#FFC200" d="M42.875 30.625H45.5v3.5h-2.625c-.966 0-1.75-.784-1.75-1.75s.784-1.75 1.75-1.75z"/>
        <path fill="#52ABE2" d="M41.125 19.25L36.75 19.25 36.75 28 45.5 28 45.5 27.125z"/>
        <path fill="#FFC200" d="M10.5 13.125L33.25 13.125 33.25 32.375 10.5 32.375z" transform="matrix(1 0 0 -1 0 45.5)"/>
        <path fill="#FFF" d="M10.5 18.375L33.25 18.375 33.25 25.375 10.5 25.375z" transform="matrix(1 0 0 -1 0 43.75)"/>
        <path fill="#154E84" fill-rule="nonzero" d="M9.625 32.375v-19.25c0-.483.392-.875.875-.875h22.75c.483 0 .875.392.875.875v19.25c0 .483-.392.875-.875.875H10.5c-.483 0-.875-.392-.875-.875zm1.75-.875h21V14h-21v17.5zM37.625 27.125h7c.483 0 .875.392.875.875s-.392.875-.875.875H36.75c-.483 0-.875-.392-.875-.875v-8.75c0-.483.392-.875.875-.875s.875.392.875.875v7.875z"/>
        <path fill="#154E84" fill-rule="nonzero" d="M32.375 31.5V19.25c0-.483.392-.875.875-.875h6.845c.954 0 1.832.517 2.295 1.35l3.655 6.579c.216.39.33.828.33 1.274v10.047c0 1.45-1.175 2.625-2.625 2.625h-31.5c-1.45 0-2.625-1.175-2.625-2.625v-5.25c0-.483.392-.875.875-.875h21.875zm1.75-11.375v12.25c0 .483-.392.875-.875.875H11.375v4.375c0 .483.392.875.875.875h31.5c.483 0 .875-.392.875-.875V27.578c0-.148-.038-.294-.11-.424l-3.655-6.579c-.154-.278-.447-.45-.765-.45h-5.97z"/>
        <path fill="#154E84" fill-rule="nonzero" d="M17.5 43.75c2.416 0 4.375-1.959 4.375-4.375S19.916 35 17.5 35s-4.375 1.959-4.375 4.375 1.959 4.375 4.375 4.375z"/>
        <path fill="#52ABE2" fill-rule="nonzero" d="M17.5 42c-1.45 0-2.625-1.175-2.625-2.625S16.05 36.75 17.5 36.75s2.625 1.175 2.625 2.625S18.95 42 17.5 42z"/>
        <path fill="#154E84" fill-rule="nonzero" d="M38.5 43.75c2.416 0 4.375-1.959 4.375-4.375S40.916 35 38.5 35s-4.375 1.959-4.375 4.375 1.959 4.375 4.375 4.375z"/>
        <path fill="#52ABE2" fill-rule="nonzero" d="M38.5 42c-1.45 0-2.625-1.175-2.625-2.625S37.05 36.75 38.5 36.75s2.625 1.175 2.625 2.625S39.95 42 38.5 42z"/>
        <circle cx="38.5" cy="39.375" r="1" fill="#FFF"/>
        <circle cx="17.5" cy="39.375" r="1" fill="#FFF"/>
    </g>
</svg>
