<svg xmlns="http://www.w3.org/2000/svg" width="64" height="64" viewBox="0 0 64 64">
    <g fill="none" fill-rule="evenodd">
        <circle cx="32" cy="32" r="32" fill="#E6F0FC"/>
        <path fill="#FFF" d="M12 18.667h40.444c1.105 0 2 .895 2 2V52c-10.002-2.716-11.62-4.444-22.222-4.444-10.601 0-12.22 1.728-22.222 4.444V20.667c0-1.105.895-2 2-2z"/>
        <path fill="#52ABE2" d="M54.444 21c0-1.105-.895-2-2-2H12c-1.105 0-2 .895-2 2v-.333c0-1.105.895-2 2-2h40.444c1.105 0 2 .895 2 2V21zm0 28v3c-10.002-2.716-11.62-4.444-22.222-4.444-10.601 0-12.22 1.728-22.222 4.444v-3c10.002-2.444 11.62-4 22.222-4 10.602 0 12.22 1.556 22.222 4z"/>
        <path fill="#154E84" fill-rule="nonzero" d="M44.125 47.874c-3.496-.933-6.744-1.318-11.903-1.318-5.159 0-8.407.385-11.902 1.318-.95.254-6.144 1.885-9.32 2.805V20.667c0-.553.448-1 1-1h4.668v-2H12c-1.657 0-3 1.343-3 3v32.64l1.262-.342c2.854-.775 9.538-2.882 10.574-3.158 3.318-.886 6.394-1.251 11.386-1.251 4.992 0 8.068.365 11.387 1.25 1.035.277 7.72 2.384 10.573 3.16l1.262.342V20.667c0-1.657-1.343-3-3-3H47.82v2h4.625c.553 0 1 .447 1 1v30.012c-3.176-.92-8.37-2.551-9.32-2.805z"/>
        <path fill="#FFF" d="M16.667 12c5.961 0 11.146 1.481 15.555 4.444C36.693 13.481 41.878 12 47.778 12v31.111c-5.88 0-11.065 1.482-15.556 4.445-4.446-2.963-9.63-4.445-15.555-4.445V12z"/>
        <path fill="#154E84" fill-rule="nonzero" d="M47.778 11h1v33.111h-1c-5.689 0-10.682 1.427-15.005 4.28l-.554.364-.551-.367c-4.277-2.85-9.27-4.277-15.001-4.277h-1V38.25 11h1c5.907 0 11.101 1.416 15.559 4.252C36.736 12.417 41.928 11 47.778 11zM17.667 27.556v14.569c5.465.153 10.324 1.566 14.558 4.24 4.268-2.673 9.125-4.086 14.553-4.24v-29.11c-5.293.158-9.954 1.58-14.003 4.263l-.557.369-.554-.373c-3.991-2.682-8.65-4.103-13.997-4.26v14.542z"/>
        <path fill="#154E84" fill-rule="nonzero" d="M31.222 16.444L31.222 47.556 33.222 47.556 33.222 16.444z"/>
        <path fill="#FFC200" fill-rule="nonzero" d="M27.546 21.89c-1.637-.833-3.87-1.472-6.696-1.901-.546-.083-.922-.593-.839-1.14.083-.545.593-.92 1.14-.838 3.02.46 5.453 1.155 7.303 2.098.492.251.688.853.437 1.345-.251.492-.853.688-1.345.437zM36.454 21.89c1.637-.833 3.87-1.472 6.696-1.901.546-.083.922-.593.839-1.14-.083-.545-.593-.92-1.14-.838-3.02.46-5.453 1.155-7.303 2.098-.492.251-.688.853-.437 1.345.251.492.853.688 1.345.437zM27.546 29.89c-1.637-.833-3.87-1.472-6.696-1.901-.546-.083-.922-.593-.839-1.14.083-.545.593-.92 1.14-.838 3.02.46 5.453 1.155 7.303 2.098.492.251.688.853.437 1.345-.251.492-.853.688-1.345.437zM36.454 29.89c1.637-.833 3.87-1.472 6.696-1.901.546-.083.922-.593.839-1.14-.083-.545-.593-.92-1.14-.838-3.02.46-5.453 1.155-7.303 2.098-.492.251-.688.853-.437 1.345.251.492.853.688 1.345.437zM27.546 37.89c-1.637-.833-3.87-1.472-6.696-1.901-.546-.083-.922-.593-.839-1.14.083-.545.593-.92 1.14-.838 3.02.46 5.453 1.155 7.303 2.098.492.251.688.853.437 1.345-.251.492-.853.688-1.345.437zM36.454 37.89c1.637-.833 3.87-1.472 6.696-1.901.546-.083.922-.593.839-1.14-.083-.545-.593-.92-1.14-.838-3.02.46-5.453 1.155-7.303 2.098-.492.251-.688.853-.437 1.345.251.492.853.688 1.345.437z"/>
    </g>
</svg>
