<svg xmlns="http://www.w3.org/2000/svg" width="42" height="38" viewBox="0 0 42 38">
    <g fill="none" fill-rule="evenodd" transform="translate(-11 -13)">
        <circle cx="32" cy="32" r="32"/>
        <path fill="#154E84" fill-rule="nonzero" d="M17 13h30c1.657 0 3 1.343 3 3v21c0 .552-.448 1-1 1H15c-.552 0-1-.448-1-1V16c0-1.657 1.343-3 3-3z"/>
        <path fill="#52ABE2" fill-rule="nonzero" d="M48 36V16c0-.552-.448-1-1-1H17c-.552 0-1 .448-1 1v20h32z"/>
        <path fill="#FFF" d="M19 17h26c.552 0 1 .448 1 1v15c0 .552-.448 1-1 1H19c-.552 0-1-.448-1-1V18c0-.552.448-1 1-1z"/>
        <path fill="#154E84" fill-rule="nonzero" d="M14.204 36h35.592l2.613 11.325c.373 1.615-.634 3.226-2.249 3.598-.22.051-.447.077-.674.077H14.514c-1.657 0-3-1.343-3-3 0-.227.026-.453.077-.675L14.204 36z"/>
        <path fill="#FFF" fill-rule="nonzero" d="M13.54 47.775c-.017.074-.026.15-.026.225 0 .552.448 1 1 1h34.972c.076 0 .151-.009.225-.026.538-.124.873-.66.75-1.199L48.203 38H15.796l-2.256 9.775z"/>
        <path fill="#154E84" fill-rule="nonzero" d="M25.625 42.777c.104-.455.509-.777.975-.777h10.8c.466 0 .87.322.975.777l1.6 7C40.118 50.403 39.642 51 39 51H25c-.642 0-1.118-.597-.975-1.223l1.6-7z"/>
        <path fill="#FFC200" fill-rule="nonzero" d="M26.254 49L37.746 49 36.603 44 27.397 44z"/>
    </g>
</svg>
