<svg xmlns="http://www.w3.org/2000/svg" width="42" height="38" viewBox="0 0 42 38">
    <g fill="none" fill-rule="evenodd" transform="translate(-11 -13)">
        <circle cx="32" cy="32" r="32"/>
        <path fill="#154E84" fill-rule="nonzero" d="M20.42 20l3.136-5.488C24.09 13.577 25.084 13 26.16 13h11.678c1.077 0 2.071.577 2.605 1.512L43.58 20H50c1.657 0 3 1.343 3 3v25c0 1.657-1.343 3-3 3H14c-1.657 0-3-1.343-3-3V23c0-1.657 1.343-3 3-3h6.42z"/>
        <path fill="#FFF" fill-rule="nonzero" d="M21 22h-7c-.552 0-1 .448-1 1v25c0 .552.448 1 1 1h36c.552 0 1-.448 1-1V23c0-.552-.448-1-1-1h-7c-.359 0-.69-.192-.868-.504l-3.424-5.992c-.178-.312-.51-.504-.869-.504H26.161c-.36 0-.69.192-.869.504l-3.424 5.992c-.178.312-.51.504-.868.504z"/>
        <path fill="#52ABE2" d="M24 22h16l-2.709-4.514c-.18-.302-.506-.486-.857-.486h-8.868c-.351 0-.677.184-.857.486L24 22z"/>
        <path fill="#154E84" fill-rule="nonzero" d="M32 46c5.523 0 10-4.477 10-10s-4.477-10-10-10-10 4.477-10 10 4.477 10 10 10z"/>
        <path fill="#52ABE2" fill-rule="nonzero" d="M32 44c-4.418 0-8-3.582-8-8s3.582-8 8-8 8 3.582 8 8-3.582 8-8 8z"/>
        <circle cx="32" cy="36" r="6" fill="#FFF"/>
        <circle cx="18" cy="27" r="2" fill="#FFC200"/>
    </g>
</svg>
