<svg xmlns="http://www.w3.org/2000/svg" width="32" height="32" viewBox="0 0 32 32">
    <g fill="none" fill-rule="evenodd">
        <path fill="#154E84" fill-rule="nonzero" d="M16 18.182c1.205 0 2.182-.977 2.182-2.182s-.977-2.182-2.182-2.182-2.182.977-2.182 2.182.977 2.182 2.182 2.182zm0 13.09C7.565 31.273.727 24.436.727 16S7.565.727 16 .727C24.435.727 31.273 7.565 31.273 16c0 8.435-6.838 15.273-15.273 15.273z"/>
        <path fill="#FFF" fill-rule="nonzero" d="M16 29.818C8.368 29.818 2.182 23.632 2.182 16S8.368 2.182 16 2.182 29.818 8.368 29.818 16 23.632 29.818 16 29.818zm0-11.636c1.205 0 2.182-.977 2.182-2.182s-.977-2.182-2.182-2.182-2.182.977-2.182 2.182.977 2.182 2.182 2.182z"/>
        <path fill="#52ABE2" d="M16 21.818c-3.213 0-5.818-2.605-5.818-5.818 0-3.213 2.605-5.818 5.818-5.818 3.213 0 5.818 2.605 5.818 5.818 0 3.213-2.605 5.818-5.818 5.818zm0-2.909c1.607 0 2.91-1.302 2.91-2.909 0-1.607-1.303-2.91-2.91-2.91-1.607 0-2.91 1.303-2.91 2.91 0 1.607 1.303 2.91 2.91 2.91z"/>
        <path fill="#FFC200" d="M16 10.182c3.213 0 5.818 2.605 5.818 5.818 0 3.213-2.605 5.818-5.818 5.818V18.91c1.607 0 2.91-1.302 2.91-2.909 0-1.607-1.303-2.91-2.91-2.91v-2.908z"/>
        <path fill="#154E84" fill-rule="nonzero" d="M16 22.545c-3.615 0-6.545-2.93-6.545-6.545 0-3.615 2.93-6.545 6.545-6.545 3.615 0 6.545 2.93 6.545 6.545 0 3.615-2.93 6.545-6.545 6.545zm0-1.454c2.812 0 5.09-2.28 5.09-5.091 0-2.812-2.278-5.09-5.09-5.09s-5.09 2.278-5.09 5.09 2.278 5.09 5.09 5.09zm0-1.455c-2.008 0-3.636-1.628-3.636-3.636s1.628-3.636 3.636-3.636 3.636 1.628 3.636 3.636-1.628 3.636-3.636 3.636zm0-1.454c1.205 0 2.182-.977 2.182-2.182s-.977-2.182-2.182-2.182-2.182.977-2.182 2.182.977 2.182 2.182 2.182z"/>
        <path fill="#FFF" fill-rule="nonzero" d="M6.545 17.455c1.205 0 2.182-.977 2.182-2.182S7.75 13.09 6.545 13.09s-2.181.977-2.181 2.182.976 2.182 2.181 2.182z"/>
    </g>
</svg>
