<svg xmlns="http://www.w3.org/2000/svg" width="42" height="42" viewBox="0 0 42 42">
    <g fill="none" fill-rule="evenodd" transform="translate(-11 -11)">
        <circle cx="32" cy="32" r="32"/>
        <path fill="#154E84" fill-rule="nonzero" d="M32 53c11.598 0 21-9.402 21-21s-9.402-21-21-21-21 9.402-21 21 9.402 21 21 21z"/>
        <path fill="#FFF" fill-rule="nonzero" d="M32 51c-10.493 0-19-8.507-19-19s8.507-19 19-19 19 8.507 19 19-8.507 19-19 19z"/>
        <path fill="#154E84" fill-rule="nonzero" d="M48.706 42c.796 0 1.273.886.835 1.55-2.442 3.7-6 6.553-10.155 8.114-.704.265-1.438-.314-1.344-1.06l.966-7.728c.062-.5.488-.876.992-.876h8.706z"/>
        <path fill="#FFC200" fill-rule="nonzero" d="M40.883 44l-.64 5.124c2.51-1.211 4.728-2.965 6.489-5.124h-5.85z"/>
        <path fill="#154E84" fill-rule="nonzero" d="M26 50.74c0 .698-.696 1.182-1.35.938-4.17-1.559-7.742-4.417-10.19-8.127-.44-.665.038-1.551.834-1.551h7.742c.448 0 .842.298.963.73l1.964 7c.024.088.037.179.037.27v.74z"/>
        <path fill="#52ABE2" fill-rule="nonzero" d="M22.278 44h-5.01c1.75 2.145 3.95 3.89 6.441 5.1L22.28 44z"/>
        <path fill="#154E84" fill-rule="nonzero" d="M11 32c0-3.738.979-7.335 2.81-10.5.179-.31.509-.5.866-.5H15c.334 0 .647.167.832.445l4 6c.3.45.188 1.055-.25 1.369l-6.977 4.982c-.644.46-1.542.025-1.58-.765C11.008 32.688 11 32.345 11 32z"/>
        <path fill="#FFC200" fill-rule="nonzero" d="M17.63 27.749l-2.715-4.073c-1.115 2.283-1.762 4.777-1.891 7.363l4.607-3.29z"/>
        <path fill="#154E84" fill-rule="nonzero" d="M53 32c0 .345-.008.688-.025 1.031-.038.79-.936 1.225-1.58.765l-6.976-4.982c-.44-.314-.55-.921-.25-1.37l4-5.976c.186-.277.497-.443.831-.443h.339c.357 0 .687.19.866.5C52.027 24.685 53 28.273 53 32z"/>
        <path fill="#52ABE2" fill-rule="nonzero" d="M49.09 23.687l-2.72 4.063 4.606 3.29c-.128-2.582-.774-5.072-1.886-7.353z"/>
        <path fill="#154E84" fill-rule="nonzero" d="M25.343 13.67c-.59-.514-.388-1.474.357-1.708C27.722 11.327 29.84 11 32 11c2.165 0 4.287.328 6.312.965.746.235.946 1.196.356 1.709l-6.012 5.227c-.377.327-.937.327-1.313-.001l-6-5.23z"/>
        <path fill="#52ABE2" fill-rule="nonzero" d="M32 16.82l3.928-3.414C34.648 13.137 33.333 13 32 13c-1.33 0-2.64.136-3.918.404l3.919 3.416z"/>
        <path fill="#154E84" fill-rule="nonzero" d="M31.4 23.2c.356-.267.844-.267 1.2 0l8 6c.344.258.485.708.349 1.116l-3 9c-.136.409-.519.684-.949.684H27c-.43 0-.813-.275-.949-.684l-3-9c-.136-.408.005-.858.349-1.116l8-6zm-6.223 7.168L27.72 38h8.558l2.544-7.632L32 25.25l-6.823 5.118z"/>
        <path fill="#154E84" fill-rule="nonzero" d="M24.371 29.072L19.371 27.072 18.629 28.928 23.629 30.928zM26.293 38.293L22.293 42.293 23.707 43.707 27.707 39.707zM37.8 38.4L40.8 42.4 39.2 43.6 36.2 39.6zM45.371 28.928L40.371 30.928 39.629 29.072 44.629 27.072zM33.006 24.13L33.006 17.991 31.006 17.991 31.006 24.13z"/>
    </g>
</svg>
