<svg xmlns="http://www.w3.org/2000/svg" width="56" height="56" viewBox="0 0 56 56">
    <g fill="none" fill-rule="evenodd">
        <circle cx="28" cy="28" r="28" fill="#E6F0FC"/>
        <path fill="#FFC200" d="M16.252 21.875h23.494L43.2 32.678c1.766 5.524-1.28 11.433-6.804 13.198-1.034.33-2.112.499-3.197.499H22.8c-5.8 0-10.5-4.701-10.5-10.5 0-1.085.168-2.163.498-3.197l3.453-10.803z"/>
        <path fill="#FFF" d="M18.877 21.875h20.87l3.452 10.803c1.766 5.524-1.28 11.433-6.804 13.198-1.034.33-2.112.499-3.197.499h-7.772c-5.8 0-10.5-4.701-10.5-10.5 0-1.085.168-2.163.498-3.197l3.453-10.803z"/>
        <path fill="#154E84" fill-rule="nonzero" d="M16.625 15.75h22.75c1.933 0 3.5 1.567 3.5 3.5s-1.567 3.5-3.5 3.5h-22.75c-1.933 0-3.5-1.567-3.5-3.5s1.567-3.5 3.5-3.5z"/>
        <path fill="#52ABE2" fill-rule="nonzero" d="M16.625 17.5c-.966 0-1.75.784-1.75 1.75s.784 1.75 1.75 1.75h22.75c.966 0 1.75-.784 1.75-1.75s-.784-1.75-1.75-1.75h-22.75z"/>
        <path fill="#154E84" fill-rule="nonzero" d="M35.875 16.189c0-2.417-1.959-4.375-4.375-4.375s-4.375 1.958-4.375 4.375v.437c.001.483.393.874.876.874H35c.483 0 .875-.392.875-.875v-.436z"/>
        <path fill="#FFC200" fill-rule="nonzero" d="M28.911 15.75c.209-1.24 1.288-2.186 2.589-2.186 1.3 0 2.38.945 2.589 2.186H28.91z"/>
        <path fill="#154E84" fill-rule="nonzero" d="M24.5 11.814c-2.416 0-4.375 1.958-4.375 4.375v.436c0 .483.392.875.875.875h7c.484 0 .876-.393.876-.876l-.001-.436c0-2.416-1.959-4.374-4.375-4.374z"/>
        <path fill="#FFC200" fill-rule="nonzero" d="M27.089 15.75H21.91c.21-1.241 1.289-2.186 2.589-2.186s2.38.945 2.589 2.186z"/>
        <path fill="#154E84" fill-rule="nonzero" d="M15.419 21.609c.116-.363.453-.609.833-.609h23.494c.38 0 .718.246.834.609l3.453 10.803c1.912 5.984-1.388 12.385-7.372 14.298-1.12.358-2.288.54-3.463.54H22.8c-6.283 0-11.375-5.093-11.375-11.375 0-1.175.182-2.344.54-3.463l3.453-10.803zm1.472 1.141l-3.258 10.194c-.303.948-.457 1.936-.457 2.931 0 5.316 4.309 9.625 9.625 9.625h10.397c.994 0 1.983-.154 2.93-.457 5.064-1.618 7.856-7.035 6.238-12.099L39.107 22.75H16.891z"/>
    </g>
</svg>
