<?xml version="1.0" encoding="UTF-8"?>
<svg width="173px" height="58px" viewBox="0 0 173 58" version="1.1" xmlns="http://www.w3.org/2000/svg" xmlns:xlink="http://www.w3.org/1999/xlink">
    <title>Logo</title>
    <g id="[NEW-UPDATE-Landing]" stroke="none" stroke-width="1" fill="none" fill-rule="evenodd">
        <g id="56---Education-02" transform="translate(-150.000000, -521.000000)">
            <g id="Logo" transform="translate(150.000000, 521.000000)">
                <g id="Elements/Shape/Fill/8-R">
                    <rect id="Shadow" x="0" y="0" width="173" height="58" rx="8"></rect>
                    <rect id="Fill" fill="#FFFFFF" x="0" y="0" width="173" height="58" rx="8"></rect>
                </g>
                <g id="download-on-the-app-store-apple-2" transform="translate(30.000000, 14.000000)" fill="#183B56">
                    <path d="M17.8994856,14.0179226 C17.8773641,10.7226928 20.598308,9.10825142 20.731037,9.04190451 C19.1825323,6.78610965 16.7934109,6.47649075 15.9306726,6.45437511 C13.9176166,6.23321875 11.970925,7.67073508 10.9312147,7.67073508 C9.89150449,7.67073508 8.29875685,6.47649075 6.59540175,6.52072202 C4.40537375,6.56495329 2.34807473,7.82554453 1.21987849,9.79383613 C-1.10287848,13.8188819 0.622598125,19.7237566 2.85686911,22.9526395 C3.96294385,24.5449652 5.26811205,26.3142161 6.97146716,26.2478692 C8.63057928,26.1815223 9.24998114,25.1863187 11.2630372,25.1863187 C13.2539717,25.1863187 13.8291306,26.2478692 15.5767287,26.2036379 C17.3685698,26.1815223 18.496766,24.6113122 19.5585978,22.9968707 C20.8416445,21.1833886 21.3504388,19.3699065 21.3725603,19.2814439 C21.3725603,19.2814439 17.9437286,17.9766214 17.8994856,14.0179226 L17.8994856,14.0179226 Z M14.6255044,4.30915843 C15.5103642,3.181261 16.129766,1.67739776 15.9527941,0.129303253 C14.6476259,0.195650161 13.0327568,1.03604432 12.103654,2.11971048 C11.2851587,3.09279846 10.5330278,4.66300861 10.7321213,6.14475621 C12.19214,6.25533439 13.6964016,5.41494023 14.6255044,4.30915843 L14.6255044,4.30915843 Z" id="Shape"></path>
                    <path d="M42.0119151,26.0267129 L39.6891581,26.0267129 L38.4061114,22.0237828 L33.9818124,22.0237828 L32.7651302,26.0267129 L30.5087377,26.0267129 L34.8887937,12.4034812 L37.6097376,12.4034812 L42.0119151,26.0267129 L42.0119151,26.0267129 Z M38.030046,20.3429944 L36.8797283,16.7823771 C36.7469993,16.4285269 36.5257843,15.5660171 36.1939619,14.2169633 L36.1497189,14.2169633 C36.01699,14.7919698 35.795775,15.6544796 35.5081956,16.7823771 L34.3799993,20.3429944 L38.030046,20.3429944 L38.030046,20.3429944 Z M53.271756,20.9843479 C53.271756,22.6651362 52.8072046,23.9699587 51.9002233,24.9430467 C51.081728,25.8055565 50.0862607,26.2478692 48.8695785,26.2478692 C47.5644103,26.2478692 46.6353075,25.7834409 46.0601486,24.8545842 L46.0601486,30.0075273 L43.8922421,30.0075273 L43.8922421,19.4141377 C43.8922421,18.3747028 43.8701207,17.2910367 43.8037562,16.1852549 L45.7283262,16.1852549 L45.8610552,17.7333494 L45.9052982,17.7333494 C46.6353075,16.5612207 47.7413823,15.9640985 49.2235224,15.9640985 C50.3738402,15.9640985 51.3471859,16.4285269 52.1214382,17.335268 C52.8956906,18.2862403 53.271756,19.5026003 53.271756,20.9843479 L53.271756,20.9843479 Z M51.0596065,21.0728104 C51.0596065,20.1218381 50.8383915,19.3256752 50.4180831,18.7064374 C49.9535317,18.0650839 49.3120084,17.7333494 48.5156346,17.7333494 C47.9847187,17.7333494 47.4980458,17.9102745 47.0556159,18.2641247 C46.613186,18.6179748 46.3256066,19.0824032 46.1928776,19.6795254 C46.1265131,19.9006817 46.1043916,20.1218381 46.0822701,20.3429944 L46.0822701,21.9795515 C46.0822701,22.6872518 46.3034851,23.3064896 46.745915,23.7930336 C47.1883449,24.2795776 47.7635038,24.5228496 48.4492701,24.5228496 C49.2677654,24.5228496 49.9092888,24.2132307 50.3738402,23.5718773 C50.8383915,22.9526395 51.0596065,22.1122453 51.0596065,21.0728104 Z M64.5979614,20.9843479 C64.5979614,22.6651362 64.13341,23.9699587 63.2264287,24.9430467 C62.4079334,25.8055565 61.4124661,26.2478692 60.1957839,26.2478692 C58.8906157,26.2478692 57.9615129,25.7834409 57.386354,24.8545842 L57.386354,30.0075273 L55.196326,30.0075273 L55.196326,19.4141377 C55.196326,18.3747028 55.1742045,17.2910367 55.1078401,16.1852549 L57.0324101,16.1852549 L57.1651391,17.7333494 L57.2093821,17.7333494 C57.9393914,16.5612207 59.0454662,15.9640985 60.5276063,15.9640985 C61.677924,15.9640985 62.6512698,16.4285269 63.4255221,17.335268 C64.1997745,18.2862403 64.5979614,19.5026003 64.5979614,20.9843479 L64.5979614,20.9843479 Z M62.3636904,21.0728104 C62.3636904,20.1218381 62.1424754,19.3256752 61.722167,18.7064374 C61.2576156,18.0650839 60.6160923,17.7333494 59.8197185,17.7333494 C59.2888026,17.7333494 58.8021297,17.9102745 58.3596998,18.2641247 C57.9172699,18.6179748 57.6296905,19.0824032 57.4969615,19.6795254 C57.430597,19.944913 57.386354,20.1660693 57.386354,20.3429944 L57.386354,21.9795515 C57.386354,22.6872518 57.607569,23.3064896 58.0499989,23.7930336 C58.4924288,24.2795776 59.0675876,24.5228496 59.753354,24.5228496 C60.5718493,24.5228496 61.2133727,24.2132307 61.677924,23.5718773 C62.1424754,22.9526395 62.3636904,22.1122453 62.3636904,21.0728104 Z M77.229335,22.2007078 C77.229335,23.3507209 76.831148,24.3016933 76.0126527,25.0315092 C75.1277929,25.8276721 73.8889892,26.2257536 72.2962416,26.2257536 C70.8362229,26.2257536 69.6637837,25.9382503 68.7568024,25.3853594 L69.2655968,23.5718773 C70.2168211,24.1468838 71.2786528,24.4122714 72.4289706,24.4122714 C73.2474659,24.4122714 73.8889892,24.2353463 74.3535406,23.8593805 C74.818092,23.4834147 75.039307,22.9968707 75.039307,22.3776329 C75.039307,21.824742 74.8402135,21.3603137 74.4641481,20.9843479 C74.0880827,20.6083821 73.4686808,20.2545319 72.583821,19.9227974 C70.1946996,19.0381719 69.0001389,17.7333494 69.0001389,16.0083298 C69.0001389,14.8804324 69.4204473,13.9736913 70.2610641,13.265991 C71.1016809,12.5582906 72.2298771,12.2044404 73.6014098,12.2044404 C74.8402135,12.2044404 75.8799238,12.4255968 76.6984191,12.8457939 L76.1453817,14.6150447 C75.3711294,14.1948477 74.5083911,13.9958069 73.5350453,13.9958069 C72.760793,13.9958069 72.1635126,14.1948477 71.7210827,14.5708135 C71.3671388,14.902548 71.1680454,15.3227451 71.1680454,15.8092891 C71.1680454,16.3400643 71.3671388,16.8044927 71.7874472,17.1362272 C72.1413911,17.4679618 72.805036,17.7996963 73.7783818,18.1977778 C74.950821,18.6622061 75.8135593,19.215097 76.3665967,19.8564504 C76.963877,20.4756883 77.229335,21.2497355 77.229335,22.2007078 L77.229335,22.2007078 Z M84.4630638,17.8439276 L82.0518208,17.8439276 L82.0518208,22.6209049 C82.0518208,23.8372649 82.4721292,24.4343871 83.3348676,24.4343871 C83.7330545,24.4343871 84.0427554,24.4122714 84.3082133,24.3238089 L84.3745778,25.9824816 C83.9542694,26.137291 83.3791105,26.2257536 82.6712227,26.2257536 C81.8084844,26.2257536 81.1448396,25.9603659 80.6581667,25.4295907 C80.1714938,24.8988154 79.9281573,24.01419 79.9281573,22.7757144 L79.9281573,17.8218119 L78.4902602,17.8218119 L78.4902602,16.1852549 L79.9281573,16.1852549 L79.9281573,14.3938884 L82.0739423,13.7525349 L82.0739423,16.2073705 L84.4851853,16.2073705 L84.4630638,17.8439276 L84.4630638,17.8439276 Z M95.3025963,21.0285791 C95.3025963,22.5324424 94.8601664,23.770918 93.9974281,24.744006 C93.0904468,25.7392096 91.8958861,26.2478692 90.3916244,26.2478692 C88.9537273,26.2478692 87.8034095,25.7613252 86.9406712,24.8103529 C86.0779329,23.8593805 85.6576245,22.6430206 85.6576245,21.1833886 C85.6576245,19.6574097 86.1000544,18.4189341 86.9849142,17.4458461 C87.869774,16.4727582 89.0643347,15.9862142 90.5464749,15.9862142 C91.9843721,15.9862142 93.1568113,16.4727582 94.0195496,17.4237305 C94.8822879,18.3525872 95.3025963,19.5689472 95.3025963,21.0285791 Z M93.0462038,21.0728104 C93.0462038,20.1660693 92.8471104,19.3920221 92.4710449,18.7506687 C92.0064936,17.9766214 91.3649702,17.57854 90.5022319,17.57854 C89.6173721,17.57854 88.9537273,17.9766214 88.4891759,18.7506687 C88.090989,19.3920221 87.914017,20.188185 87.914017,21.1170417 C87.914017,22.0237828 88.1131104,22.79783 88.4891759,23.4391835 C88.9537273,24.2132307 89.6173721,24.6113122 90.4801104,24.6113122 C91.3207272,24.6113122 91.9622506,24.2132307 92.4489234,23.4170678 C92.8471104,22.7535987 93.0462038,21.9795515 93.0462038,21.0728104 L93.0462038,21.0728104 Z M102.403596,18.1093152 C102.182381,18.0650839 101.939045,18.0429683 101.71783,18.0429683 C100.943577,18.0429683 100.346297,18.3304716 99.9481102,18.9054781 C99.5941663,19.4141377 99.3950728,20.0554912 99.3950728,20.8516541 L99.3950728,26.0045972 L97.2050449,26.0045972 L97.2050449,19.2814439 C97.2050449,18.242009 97.1829234,17.2246898 97.1386804,16.1852549 L99.0411289,16.1852549 L99.1296149,18.0650839 L99.1959794,18.0650839 C99.4171943,17.4237305 99.7932598,16.8929552 100.279933,16.5169894 C100.744484,16.1852549 101.297521,15.9862142 101.850559,15.9862142 C102.049652,15.9862142 102.226624,16.0083298 102.403596,16.0304454 L102.403596,18.1093152 L102.403596,18.1093152 Z M112.181297,20.6526133 C112.181297,20.9843479 112.159175,21.3160824 112.092811,21.647817 L105.544848,21.647817 C105.56697,22.6209049 105.876671,23.3728365 106.496073,23.8814962 C107.04911,24.3459245 107.756998,24.5670809 108.641858,24.5670809 C109.615203,24.5670809 110.500063,24.4122714 111.296437,24.1026525 L111.62826,25.6065158 C110.699157,26.0045972 109.593082,26.2036379 108.332157,26.2036379 C106.805774,26.2036379 105.611213,25.7613252 104.748475,24.8545842 C103.885736,23.9478431 103.443306,22.7535987 103.443306,21.2497355 C103.443306,19.7679879 103.841493,18.5295123 104.659989,17.5564243 C105.500605,16.4948738 106.650923,15.9862142 108.08882,15.9862142 C109.504596,15.9862142 110.588549,16.5169894 111.296437,17.5564243 C111.893717,18.3968185 112.181297,19.4141377 112.181297,20.6526133 Z M110.101876,20.0776068 C110.123998,19.4362534 109.969147,18.8612468 109.681568,18.3968185 C109.305503,17.7775807 108.730344,17.4900774 107.93397,17.4900774 C107.226082,17.4900774 106.628802,17.7775807 106.186372,18.3747028 C105.832428,18.8391312 105.611213,19.4141377 105.544848,20.0776068 L110.101876,20.0776068 L110.101876,20.0776068 Z M33.3624106,7.58227254 C32.7651302,7.58227254 32.2342143,7.5601569 31.7917844,7.49381 L31.7917844,0.903350509 C32.4111863,0.814887965 33.0305882,0.770656694 33.64999,0.770656694 C36.1497189,0.770656694 37.3000367,2.0091323 37.3000367,4.02165517 C37.3000367,6.3216813 35.928504,7.58227254 33.3624106,7.58227254 L33.3624106,7.58227254 Z M33.7163545,1.61105086 C33.3845321,1.61105086 33.0969526,1.63316649 32.8536162,1.67739776 L32.8536162,6.67553147 C32.9863452,6.69764711 33.2296816,6.69764711 33.5836255,6.69764711 C35.2206161,6.69764711 36.1497189,5.7687904 36.1497189,4.02165517 C36.1497189,2.47356066 35.3091021,1.61105086 33.7163545,1.61105086 Z M40.8837188,7.62650381 C39.4679432,7.62650381 38.5609619,6.56495329 38.5609619,5.1495526 C38.5609619,3.66780499 39.4900647,2.60625447 40.9722048,2.60625447 C42.365859,2.60625447 43.2949618,3.60145808 43.2949618,5.08320569 C43.2949618,6.56495329 42.321616,7.62650381 40.8837188,7.62650381 Z M40.9279618,3.38030173 C40.1537095,3.38030173 39.6449151,4.11011771 39.6449151,5.12743696 C39.6449151,6.12264057 40.1537095,6.85245656 40.9058403,6.85245656 C41.6579712,6.85245656 42.1667655,6.0784093 42.1667655,5.10532132 C42.188887,4.11011771 41.6800927,3.38030173 40.9279618,3.38030173 L40.9279618,3.38030173 Z M51.3471859,2.69471701 L49.8429243,7.51592563 L48.847457,7.51592563 L48.2280551,5.41494023 C48.0732047,4.9062806 47.9404757,4.37550534 47.8298682,3.84473008 L47.8077467,3.84473008 C47.7192608,4.37550534 47.5865318,4.9062806 47.4095598,5.41494023 L46.745915,7.51592563 L45.7504477,7.51592563 L44.334672,2.69471701 L45.4407468,2.69471701 L45.9937842,4.99474314 C46.1265131,5.54763404 46.2371206,6.05629367 46.3256066,6.54283765 L46.3477281,6.54283765 C46.4362141,6.14475621 46.5468215,5.63609658 46.745915,4.99474314 L47.4316813,2.69471701 L48.3165411,2.69471701 L48.980186,4.95051187 C49.1350364,5.50340277 49.2677654,6.03417803 49.3783729,6.54283765 L49.4004944,6.54283765 C49.4668589,6.05629367 49.5774663,5.5255184 49.7323168,4.95051187 L50.3295972,2.69471701 L51.3471859,2.69471701 L51.3471859,2.69471701 Z M56.8996811,7.51592563 L55.8378494,7.51592563 L55.8378494,4.75147115 C55.8378494,3.88896135 55.506027,3.46876427 54.8645036,3.46876427 C54.2229803,3.46876427 53.7805504,4.02165517 53.7805504,4.64089297 L53.7805504,7.51592563 L52.6965971,7.51592563 L52.6965971,4.06588644 C52.6965971,3.64568936 52.6965971,3.181261 52.6523541,2.69471701 L53.6035784,2.69471701 L53.6478214,3.44664863 L53.6699429,3.44664863 C53.9575223,2.93798901 54.5548027,2.60625447 55.196326,2.60625447 C56.2139148,2.60625447 56.8775597,3.38030173 56.8775597,4.64089297 L56.8996811,7.51592563 L56.8996811,7.51592563 Z M59.8639615,7.51592563 L58.7800082,7.51592563 L58.7800082,0.461037791 L59.8639615,0.461037791 L59.8639615,7.51592563 Z M63.7794661,7.62650381 C62.3636904,7.62650381 61.4567091,6.56495329 61.4567091,5.1495526 C61.4567091,3.66780499 62.3858119,2.60625447 63.867952,2.60625447 C65.2616062,2.60625447 66.190709,3.60145808 66.190709,5.08320569 C66.190709,6.56495329 65.2173632,7.62650381 63.7794661,7.62650381 Z M63.823709,3.38030173 C63.0494567,3.38030173 62.5406623,4.11011771 62.5406623,5.12743696 C62.5406623,6.12264057 63.0494567,6.85245656 63.8015876,6.85245656 C64.5537184,6.85245656 65.0625128,6.0784093 65.0625128,5.10532132 C65.0625128,4.11011771 64.5758399,3.38030173 63.823709,3.38030173 L63.823709,3.38030173 Z M70.4159145,7.51592563 L70.3274285,6.96303474 L70.3053071,6.96303474 C69.9734846,7.40534745 69.5089332,7.62650381 68.8895314,7.62650381 C68.0267931,7.62650381 67.4073912,7.02938164 67.4073912,6.21110312 C67.4073912,5.01685878 68.4471015,4.39762098 70.2389426,4.39762098 L70.2389426,4.30915843 C70.2389426,3.66780499 69.9071201,3.35818609 69.2434753,3.35818609 C68.7568024,3.35818609 68.3586155,3.46876427 67.9825501,3.71203626 L67.7613351,3.00433592 C68.203765,2.71683265 68.7568024,2.58413883 69.4204473,2.58413883 C70.6813725,2.58413883 71.3228958,3.24760791 71.3228958,4.57454606 L71.3228958,6.34379693 C71.3228958,6.83034092 71.3450173,7.20630673 71.3892603,7.49381 L70.4159145,7.51592563 L70.4159145,7.51592563 Z M70.2610641,5.10532132 C69.0665033,5.10532132 68.469223,5.39282459 68.469223,6.0784093 C68.469223,6.58706893 68.7789239,6.83034092 69.1992323,6.83034092 C69.7522697,6.83034092 70.2610641,6.41014384 70.2610641,5.85725294 L70.2610641,5.10532132 Z M76.5214471,7.51592563 L76.4772041,6.74187838 L76.4550826,6.74187838 C76.1453817,7.31688491 75.6365873,7.62650381 74.906578,7.62650381 C73.7341388,7.62650381 72.8714005,6.60918456 72.8714005,5.17166823 C72.8714005,3.66780499 73.7562603,2.60625447 74.995064,2.60625447 C75.6365873,2.60625447 76.1011387,2.82741083 76.3665967,3.26972355 L76.3887182,3.26972355 L76.3887182,0.461037791 L77.4726714,0.461037791 L77.4726714,6.21110312 C77.4726714,6.67553147 77.4947929,7.11784419 77.5169144,7.51592563 L76.5214471,7.51592563 L76.5214471,7.51592563 Z M76.3665967,4.68512424 C76.3665967,3.99953953 75.9241668,3.424533 75.2384004,3.424533 C74.4420266,3.424533 73.9553537,4.13223335 73.9553537,5.12743696 C73.9553537,6.10052494 74.4641481,6.76399401 75.2162789,6.76399401 C75.9020453,6.76399401 76.3665967,6.16687184 76.3665967,5.48128713 L76.3665967,4.68512424 L76.3665967,4.68512424 Z M84.2639703,7.62650381 C82.8481947,7.62650381 81.9412134,6.56495329 81.9412134,5.1495526 C81.9412134,3.66780499 82.8703162,2.60625447 84.3524563,2.60625447 C85.7461105,2.60625447 86.6752133,3.60145808 86.6752133,5.08320569 C86.6752133,6.56495329 85.7018675,7.62650381 84.2639703,7.62650381 Z M84.3082133,3.38030173 C83.533961,3.38030173 83.0472881,4.11011771 83.0472881,5.12743696 C83.0472881,6.12264057 83.5560825,6.85245656 84.3082133,6.85245656 C85.0603442,6.85245656 85.5691385,6.0784093 85.5691385,5.10532132 C85.547017,4.11011771 85.0603442,3.38030173 84.3082133,3.38030173 Z M92.4489234,7.51592563 L91.3649702,7.51592563 L91.3649702,4.75147115 C91.3649702,3.88896135 91.0331478,3.46876427 90.3916244,3.46876427 C89.7501011,3.46876427 89.3297927,4.02165517 89.3297927,4.64089297 L89.3297927,7.51592563 L88.2458394,7.51592563 L88.2458394,4.06588644 C88.2458394,3.64568936 88.2458394,3.181261 88.2015964,2.69471701 L89.1528207,2.69471701 L89.1970637,3.44664863 L89.2191852,3.44664863 C89.5067646,2.93798901 90.104045,2.60625447 90.7455683,2.60625447 C91.7631571,2.60625447 92.426802,3.38030173 92.426802,4.64089297 L92.426802,7.51592563 L92.4489234,7.51592563 Z M99.6605308,3.49087991 L98.4880916,3.49087991 L98.4880916,5.83513731 C98.4880916,6.43225948 98.687185,6.71976274 99.1074934,6.71976274 C99.3065869,6.71976274 99.4614373,6.69764711 99.5941663,6.67553147 L99.6162878,7.49381 C99.4171943,7.58227254 99.1296149,7.60438818 98.775671,7.60438818 C97.9350542,7.60438818 97.4262598,7.13995982 97.4262598,5.92359985 L97.4262598,3.49087991 L96.718372,3.49087991 L96.718372,2.69471701 L97.4262598,2.69471701 L97.4262598,1.81009158 L98.4880916,1.50047268 L98.4880916,2.69471701 L99.6605308,2.69471701 L99.6605308,3.49087991 Z M105.345755,7.51592563 L104.283923,7.51592563 L104.283923,4.77358679 C104.283923,3.91107699 103.952101,3.46876427 103.310577,3.46876427 C102.75754,3.46876427 102.226624,3.84473008 102.226624,4.61877733 L102.226624,7.53804127 L101.164792,7.53804127 L101.164792,0.461037791 L102.226624,0.461037791 L102.226624,3.35818609 L102.248746,3.35818609 C102.580568,2.82741083 103.067241,2.5620232 103.708764,2.5620232 C104.726353,2.5620232 105.345755,3.35818609 105.345755,4.61877733 L105.345755,7.51592563 L105.345755,7.51592563 Z M111.163708,5.37070895 L107.93397,5.37070895 C107.956091,6.27745002 108.553372,6.80822528 109.460353,6.80822528 C109.947026,6.80822528 110.367334,6.71976274 110.765521,6.58706893 L110.942493,7.33900055 C110.477942,7.53804127 109.947026,7.62650381 109.327624,7.62650381 C107.823362,7.62650381 106.916381,6.67553147 106.916381,5.19378387 C106.916381,3.71203626 107.823362,2.60625447 109.194895,2.60625447 C110.433699,2.60625447 111.207951,3.51299554 111.207951,4.9062806 C111.207951,5.03897442 111.207951,5.19378387 111.163708,5.37070895 Z M110.190362,4.5966617 C110.190362,3.84473008 109.814297,3.31395482 109.128531,3.31395482 C108.509129,3.31395482 108.022456,3.84473008 107.956091,4.5966617 L110.190362,4.5966617 L110.190362,4.5966617 Z" id="Shape"></path>
                </g>
            </g>
        </g>
    </g>
</svg>