<?xml version="1.0" encoding="UTF-8"?>
<svg width="173px" height="58px" viewBox="0 0 173 58" version="1.1" xmlns="http://www.w3.org/2000/svg" xmlns:xlink="http://www.w3.org/1999/xlink">
    <title>Logo</title>
    <defs>
        <linearGradient x1="61.024%" y1="4.84%" x2="26.11536%" y2="71.968%" id="linearGradient-1">
            <stop stop-color="#00A0FF" offset="0%"></stop>
            <stop stop-color="#00A1FF" offset="0.7%"></stop>
            <stop stop-color="#00BEFF" offset="26%"></stop>
            <stop stop-color="#00D2FF" offset="51.2%"></stop>
            <stop stop-color="#00DFFF" offset="76%"></stop>
            <stop stop-color="#00E3FF" offset="100%"></stop>
        </linearGradient>
        <linearGradient x1="107.724138%" y1="49.4235294%" x2="-130.669951%" y2="49.4235294%" id="linearGradient-2">
            <stop stop-color="#FFE000" offset="0%"></stop>
            <stop stop-color="#FFBD00" offset="40.9%"></stop>
            <stop stop-color="#FFA500" offset="77.5%"></stop>
            <stop stop-color="#FF9C00" offset="100%"></stop>
        </linearGradient>
        <linearGradient x1="86.3892216%" y1="30.8292932%" x2="-49.8862275%" y2="136.002473%" id="linearGradient-3">
            <stop stop-color="#FF3A44" offset="0%"></stop>
            <stop stop-color="#C31162" offset="100%"></stop>
        </linearGradient>
        <linearGradient x1="-18.5808383%" y1="-11.6832997%" x2="42.2754491%" y2="35.0657182%" id="linearGradient-4">
            <stop stop-color="#32A071" offset="0%"></stop>
            <stop stop-color="#2DA771" offset="6.9%"></stop>
            <stop stop-color="#15CF74" offset="47.6%"></stop>
            <stop stop-color="#06E775" offset="80.1%"></stop>
            <stop stop-color="#00F076" offset="100%"></stop>
        </linearGradient>
    </defs>
    <g id="[NEW-UPDATE-Landing]" stroke="none" stroke-width="1" fill="none" fill-rule="evenodd">
        <g id="56---Education-02" transform="translate(-348.000000, -521.000000)">
            <g id="Logo" transform="translate(348.000000, 521.000000)">
                <g id="Elements/Shape/Fill/8-R">
                    <rect id="Shadow" x="0" y="0" width="173" height="58" rx="8"></rect>
                    <rect id="Fill" fill="#FFFFFF" x="0" y="0" width="173" height="58" rx="8"></rect>
                </g>
                <g id="google-play-badge-(3)" transform="translate(22.000000, 14.000000)">
                    <path d="M42.0969492,4.07728814 C42.0969492,4.9740113 41.8727684,5.75864407 41.3123164,6.31909605 C40.639774,6.99163842 39.8551412,7.3279096 38.8463277,7.3279096 C37.8375141,7.3279096 37.0528814,6.99163842 36.380339,6.31909605 C35.7077966,5.64655367 35.3715254,4.8619209 35.3715254,3.85310734 C35.3715254,2.84429379 35.7077966,2.05966102 36.380339,1.38711864 C37.0528814,0.714576271 37.8375141,0.378305085 38.8463277,0.378305085 C39.2946893,0.378305085 39.7430508,0.49039548 40.1914124,0.714576271 C40.639774,0.938757062 40.9760452,1.16293785 41.200226,1.49920904 L40.639774,2.05966102 C40.1914124,1.49920904 39.6309605,1.27502825 38.8463277,1.27502825 C38.1737853,1.27502825 37.5012429,1.49920904 37.0528814,2.05966102 C36.4924294,2.5080226 36.2682486,3.18056497 36.2682486,3.96519774 C36.2682486,4.74983051 36.4924294,5.42237288 37.0528814,5.87073446 C37.6133333,6.31909605 38.1737853,6.65536723 38.8463277,6.65536723 C39.6309605,6.65536723 40.1914124,6.43118644 40.7518644,5.87073446 C41.0881356,5.53446328 41.3123164,5.08610169 41.3123164,4.52564972 L38.8463277,4.52564972 L38.8463277,3.62892655 L42.0969492,3.62892655 L42.0969492,4.07728814 L42.0969492,4.07728814 Z M47.2531073,1.27502825 L44.2266667,1.27502825 L44.2266667,3.40474576 L47.0289266,3.40474576 L47.0289266,4.18937853 L44.2266667,4.18937853 L44.2266667,6.31909605 L47.2531073,6.31909605 L47.2531073,7.21581921 L43.3299435,7.21581921 L43.3299435,0.49039548 L47.2531073,0.49039548 L47.2531073,1.27502825 Z M50.9520904,7.21581921 L50.0553672,7.21581921 L50.0553672,1.27502825 L48.1498305,1.27502825 L48.1498305,0.49039548 L52.8576271,0.49039548 L52.8576271,1.27502825 L50.9520904,1.27502825 L50.9520904,7.21581921 Z M56.1082486,7.21581921 L56.1082486,0.49039548 L57.0049718,0.49039548 L57.0049718,7.21581921 L56.1082486,7.21581921 Z M60.8160452,7.21581921 L59.919322,7.21581921 L59.919322,1.27502825 L58.0137853,1.27502825 L58.0137853,0.49039548 L62.6094915,0.49039548 L62.6094915,1.27502825 L60.7039548,1.27502825 L60.7039548,7.21581921 L60.8160452,7.21581921 Z M71.4646328,6.31909605 C70.7920904,6.99163842 70.0074576,7.3279096 68.9986441,7.3279096 C67.9898305,7.3279096 67.2051977,6.99163842 66.5326554,6.31909605 C65.860113,5.64655367 65.5238418,4.8619209 65.5238418,3.85310734 C65.5238418,2.84429379 65.860113,2.05966102 66.5326554,1.38711864 C67.2051977,0.714576271 67.9898305,0.378305085 68.9986441,0.378305085 C70.0074576,0.378305085 70.7920904,0.714576271 71.4646328,1.38711864 C72.1371751,2.05966102 72.4734463,2.84429379 72.4734463,3.85310734 C72.4734463,4.8619209 72.1371751,5.64655367 71.4646328,6.31909605 Z M67.2051977,5.75864407 C67.6535593,6.20700565 68.3261017,6.54327684 68.9986441,6.54327684 C69.6711864,6.54327684 70.3437288,6.31909605 70.7920904,5.75864407 C71.240452,5.31028249 71.5767232,4.63774011 71.5767232,3.85310734 C71.5767232,3.06847458 71.3525424,2.3959322 70.7920904,1.94757062 C70.3437288,1.49920904 69.6711864,1.16293785 68.9986441,1.16293785 C68.3261017,1.16293785 67.6535593,1.38711864 67.2051977,1.94757062 C66.7568362,2.3959322 66.420565,3.06847458 66.420565,3.85310734 C66.420565,4.63774011 66.6447458,5.31028249 67.2051977,5.75864407 Z M73.7064407,7.21581921 L73.7064407,0.49039548 L74.7152542,0.49039548 L77.9658757,5.75864407 L77.9658757,0.49039548 L78.8625989,0.49039548 L78.8625989,7.21581921 L77.9658757,7.21581921 L74.4910734,1.72338983 L74.4910734,7.21581921 L73.7064407,7.21581921 L73.7064407,7.21581921 Z" id="Shape" fill="#183B56"></path>
                    <path d="M65.299661,17.079774 C62.6094915,17.079774 60.479774,19.0974011 60.479774,21.899661 C60.479774,24.5898305 62.6094915,26.719548 65.299661,26.719548 C67.9898305,26.719548 70.119548,24.7019209 70.119548,21.899661 C70.119548,18.9853107 67.9898305,17.079774 65.299661,17.079774 Z M65.299661,24.7019209 C63.8424859,24.7019209 62.6094915,23.4689266 62.6094915,21.7875706 C62.6094915,20.1062147 63.8424859,18.8732203 65.299661,18.8732203 C66.7568362,18.8732203 67.9898305,19.9941243 67.9898305,21.7875706 C67.9898305,23.4689266 66.7568362,24.7019209 65.299661,24.7019209 Z M54.8752542,17.079774 C52.1850847,17.079774 50.0553672,19.0974011 50.0553672,21.899661 C50.0553672,24.5898305 52.1850847,26.719548 54.8752542,26.719548 C57.5654237,26.719548 59.6951412,24.7019209 59.6951412,21.899661 C59.6951412,18.9853107 57.5654237,17.079774 54.8752542,17.079774 Z M54.8752542,24.7019209 C53.4180791,24.7019209 52.1850847,23.4689266 52.1850847,21.7875706 C52.1850847,20.1062147 53.4180791,18.8732203 54.8752542,18.8732203 C56.3324294,18.8732203 57.5654237,19.9941243 57.5654237,21.7875706 C57.5654237,23.4689266 56.3324294,24.7019209 54.8752542,24.7019209 Z M42.4332203,18.5369492 L42.4332203,20.5545763 L47.2531073,20.5545763 C47.1410169,21.6754802 46.6926554,22.5722034 46.1322034,23.1326554 C45.459661,23.8051977 44.3387571,24.5898305 42.4332203,24.5898305 C39.4067797,24.5898305 37.1649718,22.2359322 37.1649718,19.2094915 C37.1649718,16.1830508 39.5188701,13.8291525 42.4332203,13.8291525 C44.0024859,13.8291525 45.2354802,14.5016949 46.1322034,15.2863277 L47.5893785,13.8291525 C46.3563842,12.7082486 44.7871186,11.8115254 42.5453107,11.8115254 C38.5100565,11.8115254 35.0352542,15.1742373 35.0352542,19.2094915 C35.0352542,23.2447458 38.5100565,26.6074576 42.5453107,26.6074576 C44.7871186,26.6074576 46.3563842,25.9349153 47.7014689,24.4777401 C49.0465537,23.1326554 49.4949153,21.2271186 49.4949153,19.7699435 C49.4949153,19.3215819 49.4949153,18.8732203 49.3828249,18.5369492 L42.4332203,18.5369492 L42.4332203,18.5369492 Z M93.3222599,20.1062147 C92.8738983,18.9853107 91.7529944,17.079774 89.2870056,17.079774 C86.8210169,17.079774 84.8033898,18.9853107 84.8033898,21.899661 C84.8033898,24.5898305 86.8210169,26.719548 89.5111864,26.719548 C91.640904,26.719548 92.9859887,25.3744633 93.4343503,24.5898305 L91.8650847,23.4689266 C91.3046328,24.2535593 90.6320904,24.8140113 89.5111864,24.8140113 C88.3902825,24.8140113 87.7177401,24.3656497 87.1572881,23.3568362 L93.5464407,20.6666667 L93.3222599,20.1062147 L93.3222599,20.1062147 Z M86.8210169,21.6754802 C86.8210169,19.8820339 88.2781921,18.8732203 89.2870056,18.8732203 C90.0716384,18.8732203 90.8562712,19.3215819 91.080452,19.8820339 L86.8210169,21.6754802 Z M81.5527684,26.2711864 L83.6824859,26.2711864 L83.6824859,12.259887 L81.5527684,12.259887 L81.5527684,26.2711864 Z M78.1900565,18.0885876 C77.6296045,17.5281356 76.7328814,16.9676836 75.6119774,16.9676836 C73.2580791,16.9676836 71.0162712,19.0974011 71.0162712,21.7875706 C71.0162712,24.4777401 73.1459887,26.4953672 75.6119774,26.4953672 C76.7328814,26.4953672 77.6296045,25.9349153 78.0779661,25.3744633 L78.1900565,25.3744633 L78.1900565,26.0470056 C78.1900565,27.840452 77.1812429,28.8492655 75.6119774,28.8492655 C74.3789831,28.8492655 73.4822599,27.9525424 73.2580791,27.1679096 L71.4646328,27.9525424 C72.0250847,29.1855367 73.3701695,30.7548023 75.7240678,30.7548023 C78.1900565,30.7548023 80.2076836,29.2976271 80.2076836,25.8228249 L80.2076836,17.3039548 L78.1900565,17.3039548 L78.1900565,18.0885876 L78.1900565,18.0885876 Z M75.7240678,24.7019209 C74.2668927,24.7019209 73.0338983,23.4689266 73.0338983,21.7875706 C73.0338983,20.1062147 74.2668927,18.8732203 75.7240678,18.8732203 C77.1812429,18.8732203 78.3021469,20.1062147 78.3021469,21.7875706 C78.3021469,23.4689266 77.1812429,24.7019209 75.7240678,24.7019209 Z M103.074124,12.259887 L98.0300565,12.259887 L98.0300565,26.2711864 L100.159774,26.2711864 L100.159774,21.0029379 L103.074124,21.0029379 C105.428023,21.0029379 107.669831,19.3215819 107.669831,16.6314124 C107.669831,13.9412429 105.428023,12.259887 103.074124,12.259887 L103.074124,12.259887 Z M103.186215,18.9853107 L100.159774,18.9853107 L100.159774,14.1654237 L103.186215,14.1654237 C104.75548,14.1654237 105.652203,15.5105085 105.652203,16.519322 C105.540113,17.7523164 104.64339,18.9853107 103.186215,18.9853107 Z M116.07661,16.9676836 C114.507345,16.9676836 112.938079,17.640226 112.377627,19.0974011 L114.283164,19.8820339 C114.731525,19.0974011 115.404068,18.8732203 116.188701,18.8732203 C117.309605,18.8732203 118.318418,19.5457627 118.430508,20.6666667 L118.430508,20.7787571 C118.094237,20.5545763 117.197514,20.2183051 116.300791,20.2183051 C114.283164,20.2183051 112.265537,21.339209 112.265537,23.3568362 C112.265537,25.2623729 113.946893,26.4953672 115.740339,26.4953672 C117.197514,26.4953672 117.870056,25.8228249 118.430508,25.1502825 L118.542599,25.1502825 L118.542599,26.2711864 L120.560226,26.2711864 L120.560226,20.8908475 C120.336045,18.4248588 118.430508,16.9676836 116.07661,16.9676836 L116.07661,16.9676836 Z M115.852429,24.7019209 C115.179887,24.7019209 114.171073,24.3656497 114.171073,23.4689266 C114.171073,22.3480226 115.404068,22.0117514 116.412881,22.0117514 C117.309605,22.0117514 117.757966,22.2359322 118.318418,22.460113 C118.094237,23.8051977 116.973333,24.7019209 115.852429,24.7019209 L115.852429,24.7019209 Z M127.621921,17.3039548 L125.268023,23.3568362 L125.155932,23.3568362 L122.689944,17.3039548 L120.448136,17.3039548 L124.147119,25.8228249 L122.017401,30.5306215 L124.147119,30.5306215 L129.863729,17.3039548 L127.621921,17.3039548 L127.621921,17.3039548 Z M108.790734,26.2711864 L110.920452,26.2711864 L110.920452,12.259887 L108.790734,12.259887 L108.790734,26.2711864 Z" id="Shape" fill="#183B56"></path>
                    <g id="Group" transform="translate(0.175141, 0.611453)" fill-rule="nonzero">
                        <path d="M0.448361582,0.43939435 C0.112090395,0.775665537 -1.72033235e-15,1.33611751 -1.72033235e-15,2.00865989 L-1.72033235e-15,26.7806373 C-1.72033235e-15,27.4531797 0.224180791,28.0136316 0.560451977,28.3499028 L0.672542373,28.4619932 L14.5717514,14.5627842 L14.5717514,14.3386034 L0.448361582,0.43939435 Z" id="Path" fill="url(#linearGradient-1)"></path>
                        <path d="M19.0553672,19.2705808 L14.459661,14.6748746 L14.459661,14.3386034 L19.0553672,9.74289718 L19.1674576,9.85498757 L24.659887,12.9935186 C26.2291525,13.8902418 26.2291525,15.3474169 24.659887,16.2441401 L19.0553672,19.2705808 L19.0553672,19.2705808 Z" id="Path" fill="url(#linearGradient-2)"></path>
                        <path d="M19.1674576,19.1584904 L14.459661,14.4506938 L0.448361582,28.4619932 C1.00881356,29.0224452 1.79344633,29.0224452 2.80225989,28.5740836 L19.1674576,19.1584904" id="Path" fill="url(#linearGradient-3)"></path>
                        <path d="M19.1674576,9.74289718 L2.80225989,0.43939435 C1.79344633,-0.121057627 1.00881356,-0.00896723164 0.448361582,0.551484746 L14.459661,14.4506938 L19.1674576,9.74289718 L19.1674576,9.74289718 Z" id="Path" fill="url(#linearGradient-4)"></path>
                        <path d="M19.0553672,19.0464 L2.80225989,28.2378124 C1.90553672,28.7982644 1.12090395,28.686174 0.560451977,28.2378124 L0.448361582,28.3499028 L0.560451977,28.4619932 C1.12090395,28.9103548 1.90553672,29.0224452 2.80225989,28.4619932 L19.0553672,19.0464 Z" id="Path" fill="#000000" opacity="0.2"></path>
                        <path d="M0.448361582,28.2378124 C0.112090395,27.9015412 -1.88737914e-15,27.3410893 -1.88737914e-15,26.6685469 L-1.88737914e-15,26.7806373 C-1.88737914e-15,27.4531797 0.224180791,28.0136316 0.560451977,28.3499028 L0.560451977,28.2378124 L0.448361582,28.2378124 Z M24.659887,15.9078689 L19.0553672,19.0464 L19.1674576,19.1584904 L24.659887,16.0199593 C25.4445198,15.5715977 25.780791,15.0111458 25.780791,14.4506938 C25.780791,15.0111458 25.3324294,15.4595073 24.659887,15.9078689 L24.659887,15.9078689 Z" id="Shape" fill="#000000" opacity="0.12"></path>
                        <path d="M2.80225989,0.551484746 L24.659887,12.9935186 C25.3324294,13.4418802 25.780791,13.8902418 25.780791,14.4506938 C25.780791,13.8902418 25.4445198,13.3297898 24.659887,12.8814282 L2.80225989,0.43939435 C1.23299435,-0.457328814 -1.72033235e-15,0.215213559 -1.72033235e-15,2.00865989 L-1.72033235e-15,2.12075028 C-1.72033235e-15,0.43939435 1.23299435,-0.345238418 2.80225989,0.551484746 Z" id="Path" fill="#FFFFFF" opacity="0.25"></path>
                    </g>
                </g>
            </g>
        </g>
    </g>
</svg>