<?xml version="1.0" encoding="UTF-8"?>
<svg width="1136px" height="62px" viewBox="0 0 1136 62" version="1.1" xmlns="http://www.w3.org/2000/svg" xmlns:xlink="http://www.w3.org/1999/xlink">
    <title>Combined Shape</title>
    <g id="[NEW-UPDATE-Landing]" stroke="none" stroke-width="1" fill="none" fill-rule="evenodd">
        <g id="59---SaaS-03" transform="translate(-152.000000, -777.000000)" fill="#B3BAC5">
            <path d="M156,831 C158.209139,831 160,832.790861 160,835 C160,837.209139 158.209139,839 156,839 C153.790861,839 152,837.209139 152,835 C152,832.790861 153.790861,831 156,831 Z M250,831 C252.209139,831 254,832.790861 254,835 C254,837.209139 252.209139,839 250,839 C247.790861,839 246,837.209139 246,835 C246,832.790861 247.790861,831 250,831 Z M344,831 C346.209139,831 348,832.790861 348,835 C348,837.209139 346.209139,839 344,839 C341.790861,839 340,837.209139 340,835 C340,832.790861 341.790861,831 344,831 Z M438,831 C440.209139,831 442,832.790861 442,835 C442,837.209139 440.209139,839 438,839 C435.790861,839 434,837.209139 434,835 C434,832.790861 435.790861,831 438,831 Z M532,831 C534.209139,831 536,832.790861 536,835 C536,837.209139 534.209139,839 532,839 C529.790861,839 528,837.209139 528,835 C528,832.790861 529.790861,831 532,831 Z M626,831 C628.209139,831 630,832.790861 630,835 C630,837.209139 628.209139,839 626,839 C623.790861,839 622,837.209139 622,835 C622,832.790861 623.790861,831 626,831 Z M720,831 C722.209139,831 724,832.790861 724,835 C724,837.209139 722.209139,839 720,839 C717.790861,839 716,837.209139 716,835 C716,832.790861 717.790861,831 720,831 Z M814,831 C816.209139,831 818,832.790861 818,835 C818,837.209139 816.209139,839 814,839 C811.790861,839 810,837.209139 810,835 C810,832.790861 811.790861,831 814,831 Z M908,831 C910.209139,831 912,832.790861 912,835 C912,837.209139 910.209139,839 908,839 C905.790861,839 904,837.209139 904,835 C904,832.790861 905.790861,831 908,831 Z M1002,831 C1004.20914,831 1006,832.790861 1006,835 C1006,837.209139 1004.20914,839 1002,839 C999.790861,839 998,837.209139 998,835 C998,832.790861 999.790861,831 1002,831 Z M1096,831 C1098.20914,831 1100,832.790861 1100,835 C1100,837.209139 1098.20914,839 1096,839 C1093.79086,839 1092,837.209139 1092,835 C1092,832.790861 1093.79086,831 1096,831 Z M1190,831 C1192.20914,831 1194,832.790861 1194,835 C1194,837.209139 1192.20914,839 1190,839 C1187.79086,839 1186,837.209139 1186,835 C1186,832.790861 1187.79086,831 1190,831 Z M250,777 C252.209139,777 254,778.790861 254,781 C254,783.209139 252.209139,785 250,785 C247.790861,785 246,783.209139 246,781 C246,778.790861 247.790861,777 250,777 Z M344,777 C346.209139,777 348,778.790861 348,781 C348,783.209139 346.209139,785 344,785 C341.790861,785 340,783.209139 340,781 C340,778.790861 341.790861,777 344,777 Z M438,777 C440.209139,777 442,778.790861 442,781 C442,783.209139 440.209139,785 438,785 C435.790861,785 434,783.209139 434,781 C434,778.790861 435.790861,777 438,777 Z M532,777 C534.209139,777 536,778.790861 536,781 C536,783.209139 534.209139,785 532,785 C529.790861,785 528,783.209139 528,781 C528,778.790861 529.790861,777 532,777 Z M626,777 C628.209139,777 630,778.790861 630,781 C630,783.209139 628.209139,785 626,785 C623.790861,785 622,783.209139 622,781 C622,778.790861 623.790861,777 626,777 Z M720,777 C722.209139,777 724,778.790861 724,781 C724,783.209139 722.209139,785 720,785 C717.790861,785 716,783.209139 716,781 C716,778.790861 717.790861,777 720,777 Z M814,777 C816.209139,777 818,778.790861 818,781 C818,783.209139 816.209139,785 814,785 C811.790861,785 810,783.209139 810,781 C810,778.790861 811.790861,777 814,777 Z M908,777 C910.209139,777 912,778.790861 912,781 C912,783.209139 910.209139,785 908,785 C905.790861,785 904,783.209139 904,781 C904,778.790861 905.790861,777 908,777 Z M1002,777 C1004.20914,777 1006,778.790861 1006,781 C1006,783.209139 1004.20914,785 1002,785 C999.790861,785 998,783.209139 998,781 C998,778.790861 999.790861,777 1002,777 Z M1096,777 C1098.20914,777 1100,778.790861 1100,781 C1100,783.209139 1098.20914,785 1096,785 C1093.79086,785 1092,783.209139 1092,781 C1092,778.790861 1093.79086,777 1096,777 Z M1190,777 C1192.20914,777 1194,778.790861 1194,781 C1194,783.209139 1192.20914,785 1190,785 C1187.79086,785 1186,783.209139 1186,781 C1186,778.790861 1187.79086,777 1190,777 Z M1284,777 C1286.20914,777 1288,778.790861 1288,781 C1288,783.209139 1286.20914,785 1284,785 C1281.79086,785 1280,783.209139 1280,781 C1280,778.790861 1281.79086,777 1284,777 Z" id="Combined-Shape"></path>
        </g>
    </g>
</svg>