<svg xmlns="http://www.w3.org/2000/svg" width="26" height="26" viewBox="0 0 26 26">
    <g fill="none" fill-rule="evenodd">
        <g>
            <g>
                <g>
                    <g>
                        <path d="M0 0L26 0 26 26 0 26z" transform="translate(-601 -2358) translate(150 2169) translate(105 174) translate(346 15)"/>
                        <path fill="#00B8D9" d="M13.325 7.28c.04.327.186.643.436.894l5.105 5.106c.251.251.567.397.894.437l-4.46 8.92c-.078.159-.233.265-.41.28L3.869 23.92l5.578-5.449c.981.59 2.273.462 3.12-.384.996-.997.996-2.613 0-3.61-.998-.998-2.614-.998-3.61 0-.9.9-.988 2.304-.263 3.303L3.12 23.223l1.006-11.072c.016-.176.122-.332.28-.41l8.919-4.461zm-1.482 7.919c.598.598.598 1.568 0 2.166-.598.598-1.567.598-2.165 0-.599-.598-.599-1.568 0-2.166.598-.599 1.567-.599 2.165 0zm6.725-11.927l5.2 5.2c.203.203.203.533 0 .736l-3.12 3.12c-.203.203-.533.203-.736 0l-5.2-5.2c-.203-.203-.203-.533 0-.736l3.12-3.12c.203-.203.533-.203.736 0z" transform="translate(-601 -2358) translate(150 2169) translate(105 174) translate(346 15)"/>
                    </g>
                </g>
            </g>
        </g>
    </g>
</svg>
