<svg xmlns="http://www.w3.org/2000/svg" width="26" height="26" viewBox="0 0 26 26">
    <g fill="none" fill-rule="evenodd">
        <g>
            <g>
                <g>
                    <g>
                        <path d="M0 0L26 0 26 26 0 26z" transform="translate(-389 -2358) translate(150 2169) translate(105 174) translate(134 15)"/>
                        <path fill="#36B37E" d="M4.16 9.36l8.003 5.057c.1.063.207.114.317.153v9.35l-8.075-5.083c-.152-.096-.245-.265-.245-.447V9.36zm17.68 0v9.024c0 .182-.093.351-.245.447L13.52 23.92v-9.361c.101-.037.2-.085.293-.144L21.84 9.36zm-8.576-7.201l8.33 5.204c.328.204.327.68 0 .884l-8.33 5.196c-.169.105-.382.105-.55 0l-8.31-5.196c-.325-.204-.326-.68 0-.884l8.31-5.204c.168-.105.381-.105.55 0z" transform="translate(-389 -2358) translate(150 2169) translate(105 174) translate(134 15)"/>
                    </g>
                </g>
            </g>
        </g>
    </g>
</svg>
