<svg xmlns="http://www.w3.org/2000/svg" width="26" height="26" viewBox="0 0 26 26">
    <g fill="none" fill-rule="evenodd">
        <g>
            <g>
                <g>
                    <g>
                        <path d="M0 0L26 0 26 26 0 26z" transform="translate(-1050 -2358) translate(150 2169) translate(105 174) translate(795 15)"/>
                        <path fill="#1565D8" d="M10.353 5.03l10.183 5.757c.253.144.34.467.192.717l-5.663 9.606c-.998 1.693-3.203 2.272-4.927 1.297L3.89 18.874c-1.731-.978-2.326-3.153-1.324-4.852l.683-1.158c1.425 1.06 3.413 1.696 5.583 1.696 1.844 0 3.596-.438 4.966-1.256.74-.441.982-1.399.54-2.139-.44-.74-1.398-.982-2.138-.54-.868.517-2.07.815-3.368.815-1.715 0-3.171-.552-3.983-1.291l2.178-3.694c.551-.137 1.16-.215 1.805-.215.74 0 1.361-.517 1.52-1.21zm9.955 1.21c2.02 0 3.658 1.63 3.658 3.64v5.72c0 1.149-.935 2.08-2.09 2.08-1.153 0-2.09-.93-2.09-2.08v-.407l1.873-3.16c.445-.752.184-1.721-.579-2.15L14.606 6.24h5.702zM8.833 4.16c.287 0 .52.233.52.52 0 .287-.233.52-.52.52-3.19 0-5.713 1.684-5.713 3.64 0 1.956 2.524 3.64 5.713 3.64 1.486 0 2.87-.347 3.9-.962.247-.147.566-.067.714.18.147.247.066.566-.18.713-1.2.716-2.768 1.109-4.434 1.109-3.696 0-6.753-2.04-6.753-4.68 0-2.64 3.057-4.68 6.753-4.68z" transform="translate(-1050 -2358) translate(150 2169) translate(105 174) translate(795 15)"/>
                    </g>
                </g>
            </g>
        </g>
    </g>
</svg>
