<svg xmlns="http://www.w3.org/2000/svg" width="42" height="42" viewBox="0 0 42 42">
    <g fill="none" fill-rule="evenodd">
        <g>
            <g>
                <g>
                    <g>
                        <path d="M0 0L42 0 42 42 0 42z" transform="translate(-182 -1697) translate(0 1589) translate(150) translate(32 108)"/>
                        <path fill="#FFF" d="M6.72 15.12l12.928 8.168c.163.103.335.186.512.248V38.64L7.117 30.429c-.247-.156-.397-.429-.397-.723V15.12zm28.56 0v14.578c0 .293-.15.566-.396.721L21.84 38.64V23.518c.163-.06.322-.137.473-.232L35.28 15.12zM21.426 3.487l13.458 8.406c.528.33.528 1.1 0 1.43l-13.458 8.393c-.272.17-.617.169-.889 0L7.115 13.321c-.527-.33-.527-1.098 0-1.428l13.422-8.406c.272-.17.617-.17.89 0z" transform="translate(-182 -1697) translate(0 1589) translate(150) translate(32 108)"/>
                    </g>
                </g>
            </g>
        </g>
    </g>
</svg>
