<svg xmlns="http://www.w3.org/2000/svg" width="26" height="26" viewBox="0 0 26 26">
    <g fill="none" fill-rule="evenodd">
        <g>
            <g>
                <g>
                    <g>
                        <path d="M0 0L26 0 26 26 0 26z" transform="translate(-819 -2358) translate(150 2169) translate(105 174) translate(564 15)"/>
                        <path fill="#FAAD13" d="M6.76 2.08c.287 0 .52.233.52.52l-.001 1.559h11.44L18.72 2.6c0-.287.233-.52.52-.52h4.16c.287 0 .52.233.52.52v4.16c0 .287-.233.52-.52.52l-1.561-.001v11.44l1.561.001c.287 0 .52.233.52.52v4.16c0 .287-.233.52-.52.52h-4.16c-.287 0-.52-.233-.52-.52l-.001-1.561H7.279L7.28 23.4c0 .287-.233.52-.52.52H2.6c-.287 0-.52-.233-.52-.52v-4.16c0-.287.233-.52.52-.52l1.559-.001V7.279L2.6 7.28c-.287 0-.52-.233-.52-.52V2.6c0-.287.233-.52.52-.52h4.16zm11.959 3.595H7.279L7.28 6.76c0 .287-.233.52-.52.52l-1.085-.001v11.44l1.085.001c.287 0 .52.233.52.52l-.001 1.084h11.44l.001-1.084c0-.287.233-.52.52-.52l1.084-.001V7.279l-1.084.001c-.287 0-.52-.233-.52-.52l-.001-1.085z" transform="translate(-819 -2358) translate(150 2169) translate(105 174) translate(564 15)"/>
                    </g>
                </g>
            </g>
        </g>
    </g>
</svg>
