<svg xmlns="http://www.w3.org/2000/svg" width="42" height="42" viewBox="0 0 42 42">
    <g fill="none" fill-rule="evenodd">
        <g>
            <g>
                <g>
                    <g>
                        <path d="M0 0L42 0 42 42 0 42z" transform="translate(-972 -1697) translate(0 1589) translate(940) translate(32 108)"/>
                        <path fill="#FFF" d="M10.92 3.36c.464 0 .84.376.84.84l-.001 2.519h18.48L30.24 4.2c0-.464.376-.84.84-.84h6.72c.464 0 .84.376.84.84v6.72c0 .464-.376.84-.84.84l-2.521-.001v18.48l2.521.001c.464 0 .84.376.84.84v6.72c0 .464-.376.84-.84.84h-6.72c-.464 0-.84-.376-.84-.84l-.001-2.521h-18.48l.001 2.521c0 .464-.376.84-.84.84H4.2c-.464 0-.84-.376-.84-.84v-6.72c0-.464.376-.84.84-.84l2.519-.001v-18.48L4.2 11.76c-.464 0-.84-.376-.84-.84V4.2c0-.464.376-.84.84-.84h6.72zm19.319 5.807h-18.48l.001 1.753c0 .464-.376.84-.84.84l-1.753-.001v18.48l1.753.001c.464 0 .84.376.84.84l-.001 1.751h18.48l.001-1.751c0-.464.376-.84.84-.84l1.751-.001v-18.48l-1.751.001c-.464 0-.84-.376-.84-.84l-.001-1.753z" transform="translate(-972 -1697) translate(0 1589) translate(940) translate(32 108)"/>
                    </g>
                </g>
            </g>
        </g>
    </g>
</svg>
