<svg xmlns="http://www.w3.org/2000/svg" xmlns:xlink="http://www.w3.org/1999/xlink" width="626" height="472" viewBox="0 0 626 472">
    <defs>
        <linearGradient id="993fscoitc" x1="50%" x2="50%" y1="0%" y2="100%">
            <stop offset="0%" stop-color="#FDD62B"/>
            <stop offset="100%" stop-color="#FFF"/>
        </linearGradient>
        <filter id="finsjed27a" width="125.4%" height="134.9%" x="-12.7%" y="-13%" filterUnits="objectBoundingBox">
            <feOffset dy="17" in="SourceAlpha" result="shadowOffsetOuter1"/>
            <feGaussianBlur in="shadowOffsetOuter1" result="shadowBlurOuter1" stdDeviation="19.5"/>
            <feColorMatrix in="shadowBlurOuter1" values="0 0 0 0 0 0 0 0 0 0 0 0 0 0 0 0 0 0 0.05 0"/>
        </filter>
        <rect id="cmr5438nbb" width="527" height="384" x="0" y="32" rx="12"/>
    </defs>
    <g fill="none" fill-rule="evenodd">
        <g>
            <g>
                <g>
                    <g transform="translate(-666 -1599) translate(150 1599) translate(555)">
                        <use fill="#000" filter="url(#finsjed27a)" xlink:href="#cmr5438nbb"/>
                        <use fill="#FFF" xlink:href="#cmr5438nbb"/>
                    </g>
                    <text fill="#183B56" font-family="HKGrotesk-Bold, HK Grotesk" font-size="20" font-weight="bold" letter-spacing=".2" transform="translate(-666 -1599) translate(150 1599) translate(555)">
                        <tspan x="30" y="80">Impressions &amp; Reach History</tspan>
                    </text>
                    <g fill="#5A7184" font-family="OpenSans-Regular, Open Sans" font-size="14">
                        <text transform="translate(-666 -1599) translate(150 1599) translate(555) translate(30 166)">
                            <tspan x="0" y="165">1k</tspan>
                        </text>
                        <text transform="translate(-666 -1599) translate(150 1599) translate(555) translate(30 166)">
                            <tspan x="0" y="215">0</tspan>
                        </text>
                        <text transform="translate(-666 -1599) translate(150 1599) translate(555) translate(30 166)">
                            <tspan x="0" y="115">2k</tspan>
                        </text>
                        <text transform="translate(-666 -1599) translate(150 1599) translate(555) translate(30 166)">
                            <tspan x="0" y="65">4k</tspan>
                        </text>
                        <text transform="translate(-666 -1599) translate(150 1599) translate(555) translate(30 166)">
                            <tspan x="0" y="15">6k</tspan>
                        </text>
                    </g>
                    <g transform="translate(-666 -1599) translate(150 1599) translate(555) translate(30 106)">
                        <rect width="126" height="32" fill="#B3BAC5" opacity=".1" rx="4"/>
                        <text fill="#8C98A4" font-family="HKGrotesk-SemiBold, HK Grotesk" font-size="16" font-weight="500" letter-spacing=".2">
                            <tspan x="26" y="20">Impressions</tspan>
                        </text>
                        <circle cx="14" cy="16" r="4" fill="#36B37E"/>
                    </g>
                    <g transform="translate(-666 -1599) translate(150 1599) translate(555) translate(172 106)">
                        <rect width="83" height="32" fill="#B3BAC5" opacity=".1" rx="4"/>
                        <text fill="#8C98A4" font-family="HKGrotesk-SemiBold, HK Grotesk" font-size="16" font-weight="500" letter-spacing=".2">
                            <tspan x="26" y="20">Reach</tspan>
                        </text>
                        <circle cx="14" cy="16" r="4" fill="#FAAD13"/>
                    </g>
                    <g stroke="#EEF0F2" stroke-dasharray="4 4">
                        <path d="M0 .5L426.5.5M0 50.5L426.5 50.5M0 100.5L426.5 100.5M0 150.5L426.5 150.5M0 200.5L426.5 200.5" transform="translate(-666 -1599) translate(150 1599) translate(555) translate(70 175)"/>
                    </g>
                    <g transform="translate(-666 -1599) translate(150 1599) translate(555) translate(70 193)">
                        <path stroke="#36B37E" stroke-linecap="round" stroke-width="3" d="M0 133.388L37 170l38.5-52.16 6.74-3.977m11.03-6.508L135 82.732l53.5 25.579 16.78-7.214m16.99-7.304L248 82.733l14.913-17.284m8.264-9.576L299.5 23.049 355 43.111l15.811 11.362m8.144 5.853l9.545 6.859 31.177-26.243m9.173-7.722L460 7l55 16.05"/>
                        <circle cx="461" cy="7" r="6" fill="#36B37E" stroke="#FFF" stroke-width="2"/>
                        <circle cx="389" cy="67" r="6" fill="#36B37E" stroke="#FFF" stroke-width="2"/>
                        <circle cx="357" cy="44" r="6" fill="#36B37E" stroke="#FFF" stroke-width="2"/>
                        <circle cx="300" cy="23" r="6" fill="#36B37E" stroke="#FFF" stroke-width="2"/>
                        <circle cx="247" cy="82" r="6" fill="#36B37E" stroke="#FFF" stroke-width="2"/>
                        <circle cx="188" cy="108" r="6" fill="#36B37E" stroke="#FFF" stroke-width="2"/>
                        <circle cx="136" cy="82" r="6" fill="#36B37E" stroke="#FFF" stroke-width="2"/>
                        <circle cx="38" cy="170" r="6" fill="#36B37E" stroke="#FFF" stroke-width="2"/>
                    </g>
                    <g transform="translate(-666 -1599) translate(150 1599) translate(555) translate(70 214)">
                        <path stroke="#FAAD13" stroke-linecap="round" stroke-width="3" d="M0 19.5L35 52 75.5 76.5 135.5 137 188.5 110 248 31.5 299.5 52 355 82 388.5 6 460 26 515 72"/>
                        <path fill="url(#993fscoitc)" d="M0 19.5L35 52l40.5 24.5 60 60.5 53-27L248 31.5 299.5 52 355 82l33.5-76L457 27v135H0V19.5z" opacity=".1"/>
                        <circle cx="38" cy="54" r="6" fill="#FAAD13" stroke="#FFF" stroke-width="2"/>
                        <circle cx="136" cy="136" r="6" fill="#FAAD13" stroke="#FFF" stroke-width="2"/>
                        <circle cx="188" cy="110" r="6" fill="#FAAD13" stroke="#FFF" stroke-width="2"/>
                        <circle cx="247" cy="31" r="6" fill="#FAAD13" stroke="#FFF" stroke-width="2"/>
                        <circle cx="301" cy="53" r="6" fill="#FAAD13" stroke="#FFF" stroke-width="2"/>
                        <circle cx="355" cy="82" r="6" fill="#FAAD13" stroke="#FFF" stroke-width="2"/>
                        <circle cx="389" cy="7" r="6" fill="#FAAD13" stroke="#FFF" stroke-width="2"/>
                        <circle cx="461" cy="27" r="6" fill="#FAAD13" stroke="#FFF" stroke-width="2"/>
                    </g>
                    <g transform="translate(-666 -1599) translate(150 1599) translate(555) translate(403)">
                        <circle cx="32" cy="32" r="32" fill="#FDF5E6"/>
                        <g>
                            <path d="M0 0L34 0 34 34 0 34z" transform="translate(15 15)"/>
                            <path fill="#FAAD13" fill-rule="nonzero" d="M15.49 18.663c-1.106-.565-1.862-1.707-1.862-3.023 0-1.878 1.538-3.4 3.436-3.4 1.897 0 3.435 1.522 3.435 3.4 0 1.358-.804 2.53-1.966 3.074l4.405 9.689c.467 1.027.004 2.235-1.034 2.697-.266.119-.554.18-.846.18h-8.117c-1.138 0-2.061-.913-2.061-2.04 0-.289.062-.574.182-.837l4.428-9.74z" transform="translate(15 15)"/>
                            <path fill="#FAAD13" fill-rule="nonzero" d="M17 3.74c6.572 0 11.9 5.328 11.9 11.9 0 3.912-1.907 7.541-5.102 9.769-.463.322-1.098.208-1.42-.254-.323-.462-.21-1.098.253-1.42 2.65-1.847 4.229-4.852 4.229-8.095 0-5.446-4.414-9.86-9.86-9.86s-9.86 4.414-9.86 9.86c0 3.243 1.58 6.248 4.229 8.095.462.322.576.958.253 1.42-.322.462-.957.576-1.42.254C7.007 23.18 5.1 19.552 5.1 15.64c0-6.572 5.328-11.9 11.9-11.9zm0 4.08c4.319 0 7.82 3.501 7.82 7.82 0 2.374-1.068 4.598-2.906 6.084-.438.354-1.08.286-1.435-.152-.354-.438-.286-1.08.152-1.435 1.36-1.1 2.149-2.74 2.149-4.497 0-3.192-2.588-5.78-5.78-5.78s-5.78 2.588-5.78 5.78c0 1.757.789 3.397 2.149 4.497.438.355.506.997.152 1.435-.354.438-.997.506-1.435.152-1.838-1.486-2.906-3.71-2.906-6.084 0-4.319 3.501-7.82 7.82-7.82z" transform="translate(15 15)"/>
                        </g>
                    </g>
                    <g transform="translate(-666 -1599) translate(150 1599) translate(555) translate(267 384)">
                        <circle cx="32" cy="32" r="32" fill="#EAF7F2"/>
                        <g>
                            <path d="M0 0L34 0 34 34 0 34z" transform="translate(15 15)"/>
                            <path d="M0 0L34 0 34 34 0 34z" transform="translate(15 15)"/>
                            <path fill="#36B37E" fill-rule="nonzero" d="M17 10.88c4.94 0 9.352 3.377 11.508 8.58.07.166.07.354 0 .52-2.156 5.203-6.568 8.58-11.508 8.58-4.94 0-9.352-3.377-11.508-8.58-.07-.166-.07-.354 0-.52C7.648 14.257 12.06 10.88 17 10.88zm0 5.44c-1.878 0-3.4 1.522-3.4 3.4s1.522 3.4 3.4 3.4 3.4-1.522 3.4-3.4-1.522-3.4-3.4-3.4z" transform="translate(15 15)"/>
                            <path fill="#36B37E" fill-rule="nonzero" d="M17 17.68c1.127 0 2.04.913 2.04 2.04s-.913 2.04-2.04 2.04-2.04-.913-2.04-2.04.913-2.04 2.04-2.04zM28.601 6.759c.399.398.399 1.044 0 1.442l-2.72 2.72c-.398.399-1.044.399-1.442 0-.399-.398-.399-1.044 0-1.442l2.72-2.72c.398-.399 1.044-.399 1.442 0zm-21.76 0l2.72 2.72c.399.398.399 1.044 0 1.442-.398.399-1.044.399-1.442 0l-2.72-2.72C5 7.803 5 7.157 5.399 6.76c.398-.399 1.044-.399 1.442 0zM17 5.1c.563 0 1.02.457 1.02 1.02v2.72c0 .563-.457 1.02-1.02 1.02s-1.02-.457-1.02-1.02V6.12c0-.563.457-1.02 1.02-1.02z" transform="translate(15 15)"/>
                        </g>
                    </g>
                </g>
            </g>
        </g>
    </g>
</svg>
