<?xml version="1.0" encoding="UTF-8"?>
<svg width="117px" height="33px" viewBox="0 0 117 33" version="1.1" xmlns="http://www.w3.org/2000/svg" xmlns:xlink="http://www.w3.org/1999/xlink">
    <title>netflix</title>
    <g id="Desktop" stroke="none" stroke-width="1" fill="none" fill-rule="evenodd">
        <g id="45---Saas-with-Dashboard" transform="translate(-441.000000, -1392.000000)" fill="#8C98A4" fill-rule="nonzero">
            <g id="Partners" transform="translate(150.000000, 1389.000000)">
                <g id="Item" transform="translate(235.000000, 0.110000)">
                    <g id="netflix" transform="translate(56.870002, 3.766752)">
                        <path d="M16.1809894,28.8092457 C14.4534817,29.0928013 12.7259739,29.2062235 10.8832989,29.4330679 L5.35527408,13.4405339 L5.35527408,30.1136013 C3.62776631,30.2837346 2.07300932,30.5105791 0.403085146,30.7941347 L0.403085146,0.226844454 L5.00977252,0.226844454 L11.2863841,17.5804452 L11.2863841,0.226844454 L16.1809894,0.226844454 L16.1809894,28.8092457 L16.1809894,28.8092457 Z M25.7398657,11.4556449 C27.6401243,11.4556449 30.5193039,11.3422227 32.2468117,11.3422227 L32.2468117,16.1059563 C30.1162187,16.1059563 27.5825407,16.1059563 25.7398657,16.2193785 L25.7398657,23.3082677 C28.5614618,23.1381343 31.4406414,22.9112899 34.319821,22.7978677 L34.319821,27.3914679 L20.902844,28.4122679 L20.902844,0.226844454 L34.319821,0.226844454 L34.319821,4.99057799 L25.7398657,4.99057799 C25.7398657,5.04728911 25.7398657,11.4556449 25.7398657,11.4556449 Z M52.2859018,5.04728911 L47.2761292,5.04728911 L47.2761292,26.9944901 C45.6637886,26.9944901 43.9938645,26.9944901 42.4391075,27.0512012 L42.4391075,5.04728911 L37.429335,5.04728911 L37.429335,0.226844454 L52.3434853,0.226844454 C52.2859018,0.226844454 52.2859018,5.04728911 52.2859018,5.04728911 Z M60.1748539,11.1153783 L66.796967,11.1153783 L66.796967,15.8791118 L60.1748539,15.8791118 L60.1748539,26.7109345 L55.3954157,26.7109345 L55.3954157,0.226844454 L68.9275599,0.226844454 L68.9275599,4.99057799 L60.1748539,4.99057799 C60.1748539,5.04728911 60.1748539,11.1153783 60.1748539,11.1153783 Z M76.816512,22.5143121 C79.5805245,22.5710232 82.3445369,22.7978677 85.0509657,22.9112899 L85.0509657,27.6183123 C80.7321963,27.3347567 76.4134269,27.1079123 71.9794903,26.9944901 L71.9794903,0.226844454 L76.816512,0.226844454 L76.816512,22.5143121 L76.816512,22.5143121 Z M89.1394008,27.958579 C90.6941578,28.0720012 92.3064984,28.1287123 93.9188389,28.2988457 L93.9188389,0.226844454 L89.1394008,0.226844454 L89.1394008,27.958579 Z M115.109601,0.226844454 L108.948157,14.7448895 L115.109601,30.7374236 C113.266926,30.5105791 111.481835,30.1703124 109.63916,29.8867569 L106.184144,21.0398231 L102.613961,29.1495124 C100.886454,28.8659568 99.1589458,28.7525346 97.4314381,28.5256901 L103.650466,14.5747562 L98.007274,0.226844454 L103.189797,0.226844454 L106.356895,8.22311147 L109.754327,0.226844454 L115.109601,0.226844454 L115.109601,0.226844454 Z" id="Shape"></path>
                    </g>
                </g>
            </g>
        </g>
    </g>
</svg>