<?xml version="1.0" encoding="UTF-8"?>
<svg width="117px" height="37px" viewBox="0 0 117 37" version="1.1" xmlns="http://www.w3.org/2000/svg" xmlns:xlink="http://www.w3.org/1999/xlink">
    <title>slack</title>
    <g id="Desktop" stroke="none" stroke-width="1" fill="none" fill-rule="evenodd">
        <g id="45---Saas-with-Dashboard" transform="translate(-213.000000, -1391.000000)" fill="#8C98A4" fill-rule="nonzero">
            <g id="Partners" transform="translate(150.000000, 1389.000000)">
                <g id="Item" transform="translate(15.000000, 0.110000)">
                    <g id="slack" transform="translate(48.400002, 2.556391)">
                        <g id="Group-4" transform="translate(3.465290, 1.164511)">
                            <path d="M17.3264512,2.21257152 C16.8644125,0.698706797 15.2472771,-0.116451133 13.7456513,0.349353399 C12.2440255,0.81515793 11.4354578,2.44547379 11.8974965,3.95933852 L19.2901157,26.9002117 C19.8099092,28.2976253 21.311535,29.1127832 22.7554059,28.7052043 C24.2570317,28.2393997 25.1811091,26.6673094 24.7190704,25.1534447 C24.7190704,25.0952191 17.3264512,2.21257152 17.3264512,2.21257152" id="Fill-1"></path>
                            <path d="M5.89099341,5.99723334 C5.42895471,4.48336862 3.81181927,3.66821069 2.31019349,4.13401522 C0.808567723,4.59981975 2.77555756e-16,6.23013561 0.462038699,7.74400034 L7.85465788,30.6848735 C8.37445142,32.0822871 9.87607719,32.897445 11.3199481,32.4898661 C12.8215739,32.0240615 13.7456513,30.4519712 13.2836126,28.9381065 C13.2836126,28.879881 5.89099341,5.99723334 5.89099341,5.99723334" id="Fill-3"></path>
                        </g>
                        <path d="M30.1480251,22.4168431 C31.6496509,21.9510385 32.4582186,20.3207227 31.9961799,18.806858 C31.5341412,17.2929932 29.9170057,16.4778353 28.41538,16.9436398 L5.60221922,24.3382868 C4.21610313,24.8623169 3.4075354,26.3761816 3.81181927,27.8318208 C4.27385796,29.3456855 5.83323857,30.2772945 7.33486434,29.81149 C7.45037402,29.81149 30.1480251,22.4168431 30.1480251,22.4168431" id="Fill-5"></path>
                        <path d="M10.3381159,28.879881 C11.8397417,28.4140764 13.7456513,27.7735952 15.7670706,27.0748884 C15.3050319,25.5610237 14.6697287,23.63958 13.9766706,21.6016851 L8.54771593,23.4066777 L10.3381159,28.879881" id="Fill-6"></path>
                        <g id="Group-10" transform="translate(0.000000, 4.658045)">
                            <path d="M21.8313285,20.4371738 C23.9105027,19.738467 25.8164123,19.1562114 27.2602832,18.6321813 C26.7982445,17.1183165 26.1629413,15.1968728 25.4698833,13.158978 L20.0409286,14.9639706 L21.8313285,20.4371738" id="Fill-7"></path>
                            <path d="M26.3939607,6.17191004 C27.8955864,5.70610551 28.7041542,4.07578965 28.2421155,2.56192492 C27.7800768,1.0480602 26.1629413,0.232902266 24.6613155,0.698706797 L1.90590963,8.1515793 C0.519793536,8.6756094 -0.288774187,10.1894741 0.115509675,11.6451133 C0.577548374,13.2172036 2.13692898,14.1488126 3.63855475,13.6247825 C3.69630959,13.6247825 26.3939607,6.17191004 26.3939607,6.17191004" id="Fill-9"></path>
                        </g>
                        <path d="M6.6418063,17.2929932 C8.14343207,16.8271887 10.0493417,16.1867075 12.070761,15.4880007 C11.377703,13.3918803 10.8001546,11.4704366 10.280361,10.0147974 L4.85140634,11.81979 L6.6418063,17.2929932" id="Fill-11"></path>
                        <path d="M18.0772641,13.566557 C20.1564382,12.8678502 22.0623479,12.2855945 23.5062188,11.7615644 C22.8131608,9.66544403 22.2356124,7.74400034 21.7158188,6.28836117 L16.2868641,8.09335373 L18.0772641,13.566557" id="Fill-12"></path>
                        <path d="M53.1922052,9.43254176 C54.1740374,9.89834629 54.2895471,10.1894741 53.4809794,11.7033389 C52.6724117,13.2754291 52.4991472,13.3336547 51.4595601,12.9260757 C50.1889537,12.4020457 48.6295731,11.9944667 47.589986,11.9944667 C45.9150957,11.9944667 44.8177538,12.5767223 44.8177538,13.5083314 C44.8177538,16.5360609 54.4628116,14.905745 54.4628116,21.4270084 C54.4628116,24.6876402 51.6905794,26.8419861 47.5322311,26.8419861 C45.3375473,26.8419861 42.62307,26.0850538 40.7749152,25.1534447 C39.8508378,24.6876402 39.7930829,24.3965123 40.6016507,22.824422 C41.2947087,21.485234 41.5257281,21.3105573 42.5075603,21.7181363 C44.1246957,22.4168431 46.0883602,22.9408732 47.4744763,22.9408732 C49.0338569,22.9408732 50.0156891,22.3003919 50.0156891,21.3687829 C50.0156891,18.399279 40.1973668,19.7966926 40.1973668,13.5083314 C40.1973668,10.1894741 42.969599,7.91867703 47.0701924,7.91867703 C49.0338569,8.09335373 51.5173149,8.6756094 53.1922052,9.43254176" id="Fill-13"></path>
                        <path d="M60.9891082,1.74676699 L60.9891082,25.9686026 C60.9891082,26.317956 60.5848244,26.725535 60.0650308,26.725535 L57.523818,26.725535 C56.9462696,26.725535 56.5997406,26.317956 56.5997406,25.9686026 L56.5997406,1.74676699 C56.5997406,0.524030098 56.9462696,0.465804531 58.7944244,0.465804531 C60.8735986,0.407578965 60.9891082,0.582255664 60.9891082,1.74676699" id="Fill-14"></path>
                        <path d="M67.2843855,21.3687829 C67.2843855,22.5915198 68.3239726,23.4066777 69.8833532,23.4066777 C71.7892628,23.4066777 73.5219079,22.4750686 74.5037402,20.9029783 L74.5037402,19.2726625 C73.5219079,18.8650835 72.2513015,18.6904068 71.1539596,18.6904068 C68.8437661,18.6904068 67.2843855,19.8549182 67.2843855,21.3687829 Z M78.8931078,15.313324 L78.8931078,25.7357004 C78.8931078,26.317956 78.488824,26.6673094 77.9690304,26.6673094 L75.4855724,26.6673094 C74.908024,26.6673094 74.5037402,26.2597305 74.561495,25.6774748 L74.6192499,24.571189 C73.2908886,26.0850538 71.3272241,26.9002117 69.3635597,26.9002117 C65.6094952,26.9002117 63.0682824,24.6876402 63.0682824,21.4270084 C63.0682824,17.9334745 65.8982694,15.6044518 70.2298822,15.6044518 C71.8470177,15.6044518 73.3486434,15.8955796 74.561495,16.4196097 L74.561495,15.1968728 C74.561495,13.2754291 73.0598693,12.1109178 70.5186564,12.1109178 C69.3058048,12.1109178 67.8619339,12.5767223 66.7068371,13.2754291 C65.7827597,13.7994592 65.6094952,13.7412337 64.627663,12.2855945 C63.7035856,10.8299554 63.7035856,10.5388275 64.627663,9.95657186 C66.3603081,8.79206053 68.7860113,8.09335373 70.9806951,8.09335373 C75.8321014,8.09335373 78.8931078,10.7717298 78.8931078,15.313324 L78.8931078,15.313324 Z" id="Fill-15"></path>
                        <g id="Group-19" transform="translate(80.856772, 0.000000)">
                            <path d="M15.1895222,9.49076733 C16.1135996,10.0147974 16.1135996,10.3059253 15.1317674,11.8780156 C14.20769,13.3336547 14.0344255,13.4501058 12.9948384,12.9260757 C12.2440255,12.5184968 10.9734191,12.1691434 9.99158686,12.1691434 C6.81507081,12.1691434 4.73589666,14.2652638 4.73589666,17.4676699 C4.73589666,20.7865272 6.81507081,22.9990987 9.99158686,22.9990987 C11.0889288,22.9990987 12.4750449,22.5915198 13.3413674,22.0674897 C14.2654448,21.5434596 14.4387093,21.5434596 15.4205416,22.9990987 C16.2868641,24.3382868 16.2868641,24.6294146 15.4782964,25.2116703 C14.0921803,26.2015049 11.8397417,26.9584373 9.87607719,26.9584373 C4.04283861,26.9584373 0.115509675,23.1737754 0.115509675,17.5258955 C0.115509675,11.8780156 4.04283861,8.1515793 9.93383202,8.1515793 C11.7819868,8.09335373 13.861161,8.6756094 15.1895222,9.49076733" id="Fill-16"></path>
                            <path d="M34.3063734,24.3965123 C35.0571863,25.3281214 34.7684121,25.6774748 32.9202573,26.317956 C31.0721025,27.0166628 30.7833283,26.9584373 30.1480251,26.0850538 L24.8923349,19.0397602 L22.5243866,21.3105573 L22.5243866,25.9103771 C22.5243866,26.2597305 22.1201027,26.6673094 21.6003092,26.6673094 L19.0590963,26.6673094 C18.481548,26.6673094 18.1350189,26.2597305 18.1350189,25.9103771 L18.1350189,1.74676699 C18.1350189,0.524030098 18.481548,0.465804531 20.3297027,0.465804531 C22.4666317,0.465804531 22.5243866,0.640481231 22.5243866,1.74676699 L22.5243866,15.4880007 L29.6859864,8.55915827 C30.4945541,7.8022259 30.898838,7.86045147 32.3427089,8.79206053 C33.9020895,9.78189516 34.0175992,10.073023 33.2667863,10.8299554 L27.9533413,16.0702563 L34.3063734,24.3965123" id="Fill-18"></path>
                        </g>
                    </g>
                </g>
            </g>
        </g>
    </g>
</svg>