<svg xmlns="http://www.w3.org/2000/svg" width="80" height="80" viewBox="0 0 80 80">
    <g fill="none" fill-rule="evenodd">
        <g>
            <g>
                <g>
                    <g>
                        <g transform="translate(-680 -1509) translate(0 1269) translate(567 176) translate(113 64)">
                            <rect width="80" height="80" rx="12"/>
                            <rect width="80" height="80" fill="#B3BAC5" opacity=".1" rx="12"/>
                        </g>
                        <g transform="translate(-680 -1509) translate(0 1269) translate(567 176) translate(113 64) translate(22 28)">
                            <path fill="#154E84" fill-rule="nonzero" d="M2.571 0H33.43C34.849 0 36 1.151 36 2.571V21.43C36 22.849 34.849 24 33.429 24H2.57C1.151 24 0 22.849 0 21.429V2.57C0 1.151 1.151 0 2.571 0z"/>
                            <path fill="#00B8D9" d="M2.571 1.714c-.473 0-.857.384-.857.857V21.43c0 .473.384.857.857.857H33.43c.473 0 .857-.384.857-.857V2.57c0-.473-.384-.857-.857-.857H2.57z"/>
                            <path fill="#154E84" fill-rule="nonzero" d="M4.286 17.143c-.474 0-.857-.384-.857-.857V7.714c0-.473.383-.857.857-.857 1.42 0 2.571-1.151 2.571-2.571 0-.474.384-.857.857-.857h20.572c.473 0 .857.383.857.857 0 1.42 1.151 2.571 2.571 2.571.474 0 .857.384.857.857v8.572c0 .473-.383.857-.857.857-1.42 0-2.571 1.151-2.571 2.571 0 .474-.384.857-.857.857H7.714c-.473 0-.857-.383-.857-.857 0-1.42-1.151-2.571-2.571-2.571z"/>
                            <path fill="#FFF" fill-rule="nonzero" d="M8.486 18.857h19.028c.341-1.68 1.664-3.002 3.343-3.343V8.486c-1.68-.341-3.002-1.664-3.343-3.343H8.486c-.341 1.68-1.664 3.002-3.343 3.343v7.028c1.68.341 3.002 1.664 3.343 3.343z"/>
                            <circle cx="18" cy="12" r="4.286" fill="#FFC200"/>
                            <circle cx="25.714" cy="12" r="1.714" fill="#FFC200"/>
                            <circle cx="10.286" cy="12" r="1.714" fill="#FFC200"/>
                        </g>
                    </g>
                </g>
            </g>
        </g>
    </g>
</svg>
