<?xml version="1.0" encoding="UTF-8"?>
<svg width="96px" height="30px" viewBox="0 0 96 30" version="1.1" xmlns="http://www.w3.org/2000/svg" xmlns:xlink="http://www.w3.org/1999/xlink">
    <title>airbnb</title>
    <g id="[NEW-UPDATE-Landing]" stroke="none" stroke-width="1" fill="none" fill-rule="evenodd">
        <g id="60---SaaS-04" transform="translate(-957.000000, -6514.000000)" fill="#FFFFFF">
            <g id="CTA" transform="translate(50.000000, 6269.000000)">
                <g id="List" transform="translate(100.000000, 243.000000)">
                    <g id="Item" transform="translate(760.000000, 1.000000)">
                        <g id="airbnb" transform="translate(47.000000, 1.000000)">
                            <path d="M50.4835821,7.57142857 C50.4835821,8.66666667 49.6238806,9.52380952 48.5253731,9.52380952 C47.4268657,9.52380952 46.5671642,8.66666667 46.5671642,7.57142857 C46.5671642,6.47619048 47.4268657,5.61904762 48.5253731,5.61904762 C49.6716418,5.66666667 50.4835821,6.52380952 50.4835821,7.57142857 Z M42.5074627,11.4761905 C42.5074627,11.6666667 42.5074627,11.952381 42.5074627,11.952381 C42.5074627,11.952381 41.6,10.7619048 39.5940299,10.7619048 C36.3462687,10.7619048 33.8149254,13.2380952 33.8149254,16.6666667 C33.8149254,20.047619 36.3462687,22.5714286 39.5940299,22.5714286 C41.6,22.5714286 42.5074627,21.3333333 42.5074627,21.3333333 L42.5074627,21.8571429 C42.5074627,22.0952381 42.6985075,22.2857143 42.9373134,22.2857143 L45.3731343,22.2857143 L45.3731343,11.047619 C45.3731343,11.047619 43.1761194,11.047619 42.9373134,11.047619 C42.6507463,11.047619 42.5074627,11.2380952 42.5074627,11.4761905 Z M42.5074627,18.6190476 C42.0776119,19.2857143 41.1701493,19.8571429 40.0716418,19.8571429 C38.161194,19.8571429 36.680597,18.6666667 36.680597,16.6190476 C36.680597,14.5714286 38.161194,13.3809524 40.0716418,13.3809524 C41.1223881,13.3809524 42.0776119,14 42.5074627,14.6190476 L42.5074627,18.6190476 Z M47.0925373,11.047619 L49.958209,11.047619 L49.958209,22.2380952 L47.0925373,22.2380952 L47.0925373,11.047619 Z M89.9343284,10.7619048 C87.9761194,10.7619048 87.0208955,11.952381 87.0208955,11.952381 L87.0208955,5.66666667 L84.1552239,5.66666667 L84.1552239,22.2380952 C84.1552239,22.2380952 86.3522388,22.2380952 86.5910448,22.2380952 C86.8298507,22.2380952 87.0208955,22.047619 87.0208955,21.8095238 L87.0208955,21.2857143 L87.0208955,21.2857143 C87.0208955,21.2857143 87.9283582,22.5238095 89.9343284,22.5238095 C93.1820896,22.5238095 95.7134328,20 95.7134328,16.6190476 C95.7134328,13.2380952 93.1820896,10.7619048 89.9343284,10.7619048 Z M89.4567164,19.8095238 C88.358209,19.8095238 87.4985075,19.2380952 87.0208955,18.5714286 L87.0208955,14.5714286 C87.4507463,13.952381 88.4059701,13.3333333 89.4567164,13.3333333 C91.3671642,13.3333333 92.8477612,14.5238095 92.8477612,16.5714286 C92.8477612,18.6190476 91.3671642,19.8095238 89.4567164,19.8095238 Z M82.6746269,15.6190476 L82.6746269,22.2857143 L79.8089552,22.2857143 L79.8089552,15.952381 C79.8089552,14.0952381 79.1880597,13.3809524 77.6119403,13.3809524 C76.7522388,13.3809524 75.8447761,13.8095238 75.2716418,14.4761905 L75.2716418,22.2857143 L72.4059701,22.2857143 L72.4059701,11.047619 L74.6985075,11.047619 C74.9373134,11.047619 75.1283582,11.2380952 75.1283582,11.4761905 L75.1283582,11.952381 C75.9880597,11.0952381 77.0865672,10.7619048 78.1850746,10.7619048 C79.4268657,10.7619048 80.4776119,11.1428571 81.3373134,11.8571429 C82.2925373,12.6666667 82.6746269,13.7142857 82.6746269,15.6190476 Z M65.4328358,10.7619048 C63.4746269,10.7619048 62.519403,11.952381 62.519403,11.952381 L62.519403,5.66666667 L59.6537313,5.66666667 L59.6537313,22.2380952 C59.6537313,22.2380952 61.8507463,22.2380952 62.0895522,22.2380952 C62.3283582,22.2380952 62.519403,22.047619 62.519403,21.8095238 L62.519403,21.2857143 L62.519403,21.2857143 C62.519403,21.2857143 63.4268657,22.5238095 65.4328358,22.5238095 C68.680597,22.5238095 71.2119403,20 71.2119403,16.6190476 C71.2597015,13.2380952 68.7283582,10.7619048 65.4328358,10.7619048 Z M64.9552239,19.8095238 C63.8567164,19.8095238 62.9970149,19.2380952 62.519403,18.5714286 L62.519403,14.5714286 C62.9492537,13.952381 63.9044776,13.3333333 64.9552239,13.3333333 C66.8656716,13.3333333 68.3462687,14.5238095 68.3462687,16.5714286 C68.3462687,18.6190476 66.8656716,19.8095238 64.9552239,19.8095238 Z M57.2179104,10.7619048 C58.0776119,10.7619048 58.5552239,10.9047619 58.5552239,10.9047619 L58.5552239,13.5714286 C58.5552239,13.5714286 56.1671642,12.7619048 54.6865672,14.4761905 L54.6865672,22.2857143 L51.8208955,22.2857143 L51.8208955,11.047619 C51.8208955,11.047619 54.0179104,11.047619 54.2567164,11.047619 C54.4955224,11.047619 54.6865672,11.2380952 54.6865672,11.4761905 L54.6865672,11.952381 C55.1641791,11.3333333 56.3104478,10.7619048 57.2179104,10.7619048 Z M27.4149254,21.2380952 C27.2716418,20.8571429 27.1283582,20.4761905 26.9850746,20.1428571 C26.7462687,19.6190476 26.5074627,19.0952381 26.3164179,18.6190476 L26.2686567,18.6190476 C24.2149254,14.1428571 22.0179104,9.61904762 19.6776119,5.14285714 L19.5820896,4.95238095 C19.3432836,4.52380952 19.1044776,4.04761905 18.8656716,3.57142857 C18.5791045,3.04761905 18.2447761,2.47619048 17.7671642,1.95238095 C16.8119403,0.761904762 15.4268657,0.0952380952 13.9940299,0.0952380952 C12.5134328,0.0952380952 11.1761194,0.761904762 10.1731343,1.9047619 C9.74328358,2.42857143 9.40895522,3 9.07462687,3.52380952 C8.8358209,4 8.59701493,4.47619048 8.35820896,4.9047619 L8.26268657,5.0952381 C5.97014925,9.57142857 3.77313433,14.0952381 1.67164179,18.5714286 L1.6238806,18.6190476 C1.43283582,19.0952381 1.19402985,19.6190476 0.955223881,20.1428571 C0.811940299,20.4761905 0.668656716,20.8095238 0.525373134,21.2380952 C0.143283582,22.2857143 0,23.3333333 0.143283582,24.4285714 C0.47761194,26.6666667 2.00597015,28.5238095 4.05970149,29.3809524 C4.8238806,29.7142857 5.6358209,29.8571429 6.49552239,29.8571429 C6.73432836,29.8571429 7.02089552,29.8095238 7.25970149,29.8095238 C8.26268657,29.6666667 9.26567164,29.3809524 10.2686567,28.8095238 C11.5104478,28.1428571 12.6567164,27.1428571 13.9940299,25.7142857 C15.3313433,27.1428571 16.5253731,28.1428571 17.719403,28.8095238 C18.7223881,29.3809524 19.7253731,29.7142857 20.7283582,29.8095238 C20.9671642,29.8571429 21.2537313,29.8571429 21.4925373,29.8571429 C22.3522388,29.8571429 23.1641791,29.7142857 23.9283582,29.3809524 C26.0298507,28.5238095 27.4626866,26.6190476 27.7970149,24.4285714 C27.9402985,23.3809524 27.8447761,22.3333333 27.4149254,21.2380952 Z M13.9462687,22.7619048 C12.3223881,20.7142857 11.2716418,18.8095238 10.9373134,17.2380952 C10.7940299,16.5714286 10.7462687,15.952381 10.841791,15.4285714 C10.8895522,14.952381 11.080597,14.5238095 11.319403,14.1904762 C11.8925373,13.3809524 12.8477612,12.8571429 13.9462687,12.8571429 C15.0447761,12.8571429 16.0477612,13.3333333 16.5731343,14.1904762 C16.8119403,14.5714286 17.0029851,14.952381 17.0507463,15.4285714 C17.1462687,15.952381 17.0985075,16.5714286 16.9552239,17.2380952 C16.6208955,18.8095238 15.5701493,20.7142857 13.9462687,22.7619048 Z M25.8865672,24.1904762 C25.6955224,25.7619048 24.6447761,27.0952381 23.1641791,27.6666667 C22.4477612,27.952381 21.6835821,28.047619 20.8716418,27.952381 C20.1074627,27.8571429 19.3910448,27.6190476 18.5791045,27.1904762 C17.480597,26.5714286 16.4298507,25.6666667 15.1880597,24.2857143 C17.1462687,21.8571429 18.3402985,19.6666667 18.8179104,17.7142857 C19.0089552,16.8095238 19.0567164,15.952381 18.961194,15.1904762 C18.8179104,14.4285714 18.5791045,13.7619048 18.1492537,13.1428571 C17.241791,11.8095238 15.6656716,11.047619 13.9462687,11.047619 C12.2268657,11.047619 10.6507463,11.8571429 9.74328358,13.1428571 C9.31343284,13.7619048 9.07462687,14.4285714 8.93134328,15.1904762 C8.7880597,15.952381 8.8358209,16.8095238 9.07462687,17.7142857 C9.50447761,19.6666667 10.7462687,21.9047619 12.7044776,24.3333333 C11.4626866,25.7142857 10.3641791,26.6190476 9.31343284,27.2380952 C8.54925373,27.6666667 7.78507463,27.9047619 7.02089552,28 C6.20895522,28.0952381 5.44477612,27.952381 4.7761194,27.7142857 C3.29552239,27.0952381 2.24477612,25.7619048 2.05373134,24.2380952 C1.95820896,23.4761905 2.00597015,22.7619048 2.34029851,21.9047619 C2.4358209,21.6190476 2.57910448,21.2857143 2.72238806,20.952381 C2.91343284,20.4761905 3.15223881,19.952381 3.39104478,19.4761905 L3.43880597,19.4285714 C5.49253731,15 7.68955224,10.4761905 10.0298507,6.04761905 L10.1253731,5.85714286 C10.3641791,5.42857143 10.6029851,4.95238095 10.841791,4.47619048 C11.080597,4 11.3671642,3.57142857 11.7014925,3.14285714 C12.3223881,2.42857143 13.1820896,2.04761905 14.0895522,2.04761905 C14.9970149,2.04761905 15.8567164,2.42857143 16.4776119,3.14285714 C16.8119403,3.52380952 17.0985075,4 17.3373134,4.47619048 C17.5761194,4.9047619 17.8149254,5.38095238 18.0537313,5.85714286 L18.1492537,6.04761905 C20.441791,10.4761905 22.638806,15 24.6925373,19.4285714 L24.6925373,19.4761905 C24.9313433,19.952381 25.1223881,20.4761905 25.361194,20.952381 C25.5044776,21.3333333 25.6477612,21.6190476 25.7432836,21.9047619 C25.8865672,22.6666667 25.9820896,23.3809524 25.8865672,24.1904762 Z" id="Shape"></path>
                        </g>
                    </g>
                </g>
            </g>
        </g>
    </g>
</svg>