<?xml version="1.0" encoding="UTF-8"?>
<svg width="72px" height="67px" viewBox="0 0 72 67" version="1.1" xmlns="http://www.w3.org/2000/svg" xmlns:xlink="http://www.w3.org/1999/xlink">
    <title>convertkit</title>
    <g id="[NEW-UPDATE-Landing]" stroke="none" stroke-width="1" fill="none" fill-rule="evenodd">
        <g id="60---SaaS-04" transform="translate(-862.000000, -5297.000000)" fill="#FB6970" fill-rule="nonzero">
            <g id="CTA" transform="translate(150.000000, 5190.000000)">
                <g id="Logo" transform="translate(658.000000, 0.000000)">
                    <g id="Item" transform="translate(0.000000, 50.000000)">
                        <g id="convertkit" transform="translate(54.000000, 57.000000)">
                            <path d="M34.7072914,52.6192457 C47.1978514,52.6192457 56.8520229,43.1958857 56.8520229,31.5717943 C56.8520229,20.68128 47.78208,14.0321829 41.7748114,14.0321829 C33.4096457,14.0321829 26.7041829,19.8942171 25.7488457,28.5967543 C25.5719314,30.20832 24.2932114,31.5598629 22.6705371,31.5483429 C19.9732114,31.5290057 16.0510629,31.5059657 13.5685029,31.5146057 C12.4996114,31.5183086 11.6162743,30.6522514 11.6689371,29.5854171 C12.0433371,22.03776 14.5707429,14.9805257 19.3898057,9.55954286 C24.7445486,3.53581714 32.5427657,8.77012748e-15 41.7748114,8.77012748e-15 C57.28608,8.77012748e-15 71.9292343,14.07456 71.9292343,31.5717943 C71.9292343,50.9455543 55.85472,66.6514286 35.0372571,66.6514286 C20.1912686,66.6514286 5.23872,56.9626971 0.0181028571,43.4172343 C-0.000350576338,43.3670578 -0.00523167948,43.3126699 0.00493714286,43.2600686 C0.07488,42.8593371 0.212708571,42.4931657 0.34848,42.1327543 C0.545965714,41.6085943 0.739337143,41.0959543 0.71136,40.5055543 L0.620845714,38.6187429 C0.578309261,37.6845665 1.10584407,36.8177047 1.95510857,36.42624 L2.70966857,36.0752914 C3.56749414,35.6788051 4.17954189,34.8906594 4.35126857,33.9613714 C4.60429714,32.5777371 5.82048,31.5717943 7.24032,31.5717943 C9.45792,31.5717943 11.3858743,33.0442971 12.1099886,35.1376457 C15.5960229,45.2135314 21.1379657,52.6192457 34.7072914,52.6192457 L34.7072914,52.6192457 Z" id="Path"></path>
                        </g>
                    </g>
                </g>
            </g>
        </g>
    </g>
</svg>