<?xml version="1.0" encoding="UTF-8"?>
<svg width="97px" height="25px" viewBox="0 0 97 25" version="1.1" xmlns="http://www.w3.org/2000/svg" xmlns:xlink="http://www.w3.org/1999/xlink">
    <title>fitbit</title>
    <g id="[NEW-UPDATE-Landing]" stroke="none" stroke-width="1" fill="none" fill-rule="evenodd">
        <g id="60---SaaS-04" transform="translate(-577.000000, -6517.000000)" fill="#FFFFFF">
            <g id="CTA" transform="translate(50.000000, 6269.000000)">
                <g id="List" transform="translate(100.000000, 243.000000)">
                    <g id="Item" transform="translate(380.000000, 1.000000)">
                        <g id="fitbit" transform="translate(47.000000, 4.000000)">
                            <g id="blue">
                                <path d="M14.016,1.83962264 C14.016,2.83018868 13.152,3.67924528 12.144,3.67924528 C11.136,3.67924528 10.272,2.83018868 10.272,1.83962264 C10.272,0.849056604 11.136,0 12.144,0 C13.152,0 14.016,0.849056604 14.016,1.83962264 Z M12.144,5.18867925 C11.04,5.18867925 10.176,6.03773585 10.176,7.12264151 C10.176,8.20754717 11.04,9.05660377 12.144,9.05660377 C13.248,9.05660377 14.112,8.20754717 14.112,7.12264151 C14.112,5.99056604 13.248,5.18867925 12.144,5.18867925 Z M12.144,10.3301887 C11.04,10.3301887 10.128,11.2264151 10.128,12.3113208 C10.128,13.3962264 11.04,14.2924528 12.144,14.2924528 C13.248,14.2924528 14.16,13.3962264 14.16,12.3113208 C14.208,11.2264151 13.248,10.3301887 12.144,10.3301887 Z M12.144,15.5660377 C11.04,15.5660377 10.176,16.4150943 10.176,17.5 C10.176,18.5849057 11.04,19.4339623 12.144,19.4339623 C13.248,19.4339623 14.112,18.5849057 14.112,17.5 C14.112,16.4622642 13.248,15.5660377 12.144,15.5660377 Z M12.144,20.8962264 C11.136,20.8962264 10.272,21.745283 10.272,22.7358491 C10.272,23.7264151 11.136,24.5754717 12.144,24.5754717 C13.152,24.5754717 14.016,23.7264151 14.016,22.7358491 C14.016,21.745283 13.2,20.8962264 12.144,20.8962264 Z M17.328,4.95283019 C16.128,4.95283019 15.12,5.94339623 15.12,7.12264151 C15.12,8.30188679 16.128,9.29245283 17.328,9.29245283 C18.528,9.29245283 19.536,8.30188679 19.536,7.12264151 C19.536,5.94339623 18.528,4.95283019 17.328,4.95283019 Z M17.328,10.0943396 C16.08,10.0943396 15.024,11.0849057 15.024,12.3584906 C15.024,13.5849057 16.032,14.6226415 17.328,14.6226415 C18.576,14.6226415 19.632,13.6320755 19.632,12.3584906 C19.632,11.0849057 18.576,10.0943396 17.328,10.0943396 Z M17.328,15.3301887 C16.128,15.3301887 15.12,16.3207547 15.12,17.5 C15.12,18.6792453 16.128,19.6698113 17.328,19.6698113 C18.528,19.6698113 19.536,18.6792453 19.536,17.5 C19.536,16.3207547 18.528,15.3301887 17.328,15.3301887 Z M22.656,9.81132075 C21.312,9.81132075 20.112,10.8962264 20.112,12.3113208 C20.112,13.6320755 21.216,14.8113208 22.656,14.8113208 C24.096,14.8113208 25.2,13.7264151 25.2,12.3113208 C25.104,10.8962264 24,9.81132075 22.656,9.81132075 Z M6.912,5.4245283 C6,5.4245283 5.232,6.17924528 5.232,7.0754717 C5.232,7.97169811 6,8.72641509 6.912,8.72641509 C7.824,8.72641509 8.592,7.97169811 8.592,7.0754717 C8.592,6.17924528 7.872,5.4245283 6.912,5.4245283 Z M6.912,10.5660377 C5.904,10.5660377 5.136,11.3207547 5.136,12.3113208 C5.136,13.3018868 5.904,14.0566038 6.912,14.0566038 C7.92,14.0566038 8.688,13.3018868 8.688,12.3113208 C8.688,11.3207547 7.92,10.5660377 6.912,10.5660377 Z M6.912,15.8018868 C6,15.8018868 5.232,16.5566038 5.232,17.4528302 C5.232,18.3490566 6,19.1037736 6.912,19.1037736 C7.824,19.1037736 8.592,18.3490566 8.592,17.4528302 C8.592,16.5566038 7.872,15.8018868 6.912,15.8018868 Z M1.68,10.8490566 C0.816,10.8490566 0.144,11.509434 0.144,12.3584906 C0.144,13.2075472 0.816,13.8679245 1.68,13.8679245 C2.544,13.8679245 3.216,13.2075472 3.216,12.3584906 C3.216,11.509434 2.544,10.8490566 1.68,10.8490566 Z" id="Shape"></path>
                            </g>
                            <g id="wordmark" transform="translate(32.160000, 1.415094)">
                                <g id="Group" transform="translate(0.000000, 0.471698)">
                                    <path d="M12.144,7.21698113 C11.952,7.21698113 11.808,7.40566038 11.808,7.54716981 L11.808,20.6132075 C11.808,20.8018868 12,20.9433962 12.144,20.9433962 L13.728,20.9433962 C13.92,20.9433962 14.064,20.754717 14.064,20.6132075 L14.064,7.54716981 C14.064,7.35849057 13.872,7.21698113 13.728,7.21698113 L12.144,7.21698113 L12.144,7.21698113 Z" id="Path"></path>
                                    <path d="M13.008,1.69811321 C12.144,1.69811321 11.472,2.35849057 11.472,3.20754717 C11.472,4.05660377 12.144,4.71698113 13.008,4.71698113 C13.872,4.71698113 14.544,4.05660377 14.544,3.20754717 C14.544,2.35849057 13.824,1.69811321 13.008,1.69811321 Z" id="Path"></path>
                                    <path d="M46.224,7.21698113 C46.032,7.21698113 45.888,7.40566038 45.888,7.54716981 L45.888,20.6132075 C45.888,20.8018868 46.08,20.9433962 46.224,20.9433962 L47.808,20.9433962 C48,20.9433962 48.144,20.754717 48.144,20.6132075 L48.144,7.54716981 C48.144,7.35849057 47.952,7.21698113 47.808,7.21698113 L46.224,7.21698113 L46.224,7.21698113 Z" id="Path"></path>
                                    <path d="M46.992,1.69811321 C46.128,1.69811321 45.456,2.35849057 45.456,3.20754717 C45.456,4.05660377 46.128,4.71698113 46.992,4.71698113 C47.856,4.71698113 48.528,4.05660377 48.528,3.20754717 C48.528,2.35849057 47.856,1.69811321 46.992,1.69811321 Z" id="Path"></path>
                                    <path d="M63.106,19.6698113 C63.206,19.5754717 63.206,19.4811321 63.206,19.4339623 L63.206,19.4339623 C63.206,19.3396226 63.206,19.3396226 63.206,19.3396226 C63.206,19.3396226 63.206,19.245283 63.106,19.245283 C63.106,19.245283 63.006,19.1509434 62.906,19.1509434 C62.806,19.1509434 62.806,19.1509434 62.706,19.1509434 L62.256,19.1509434 L62.256,20.3301887 L62.456,20.3301887 L62.456,19.9056604 L62.706,19.9056604 L62.706,19.9056604 L63.056,20.3301887 L63.256,20.3301887 L62.806,19.8113208 C63.006,19.8584906 63.106,19.7641509 63.106,19.6698113 Z M62.506,19.7641509 L62.506,19.3396226 L62.856,19.3396226 C62.956,19.3396226 63.056,19.3396226 63.106,19.4339623 C63.206,19.4339623 63.206,19.5283019 63.206,19.6226415 L63.206,19.6226415 C63.206,19.7169811 63.206,19.8113208 63.106,19.8113208 C63.006,19.8113208 62.906,19.9056604 62.856,19.9056604 L62.506,19.9056604 L62.506,19.7641509 Z" id="Shape"></path>
                                    <path d="M62.736,18.6792453 C62.16,18.6792453 61.632,19.1981132 61.632,19.7641509 C61.632,20.3301887 62.16,20.8490566 62.736,20.8490566 C63.312,20.8490566 63.84,20.3301887 63.84,19.7641509 C63.84,19.1509434 63.36,18.6792453 62.736,18.6792453 Z M62.736,20.754717 C62.16,20.754717 61.728,20.3301887 61.728,19.7641509 C61.728,19.1981132 62.16,18.7735849 62.736,18.7735849 C63.312,18.7735849 63.744,19.1981132 63.744,19.7641509 C63.744,20.3301887 63.264,20.754717 62.736,20.754717 Z" id="Shape"></path>
                                    <path d="M25.344,9.33962264 C25.536,9.33962264 25.68,9.1509434 25.68,9.00943396 L25.68,7.45283019 C25.68,7.26415094 25.488,7.12264151 25.344,7.12264151 L21.936,7.12264151 L21.936,2.12264151 C21.936,1.93396226 21.744,1.79245283 21.6,1.79245283 L20.016,1.79245283 C19.824,1.79245283 19.68,1.98113208 19.68,2.12264151 L19.68,7.12264151 L18,7.12264151 C17.808,7.12264151 17.664,7.31132075 17.664,7.45283019 L17.664,9.00943396 C17.664,9.19811321 17.856,9.33962264 18,9.33962264 L19.68,9.33962264 L19.68,16.8867925 C19.68,19.1981132 21.264,20.7075472 23.568,20.7075472 L25.248,20.7075472 C25.44,20.7075472 25.584,20.5188679 25.584,20.3773585 L25.584,18.8207547 C25.584,18.6320755 25.392,18.490566 25.248,18.490566 L23.808,18.490566 C22.704,18.490566 21.936,17.7358491 21.936,16.5566038 L21.936,9.29245283 L25.344,9.29245283 L25.344,9.33962264 L25.344,9.33962264 Z" id="Path"></path>
                                    <path d="M59.04,9.33962264 C59.232,9.33962264 59.376,9.1509434 59.376,9.00943396 L59.376,7.45283019 C59.376,7.26415094 59.184,7.12264151 59.04,7.12264151 L55.632,7.12264151 L55.632,2.12264151 C55.632,1.93396226 55.44,1.79245283 55.296,1.79245283 L53.712,1.79245283 C53.52,1.79245283 53.376,1.98113208 53.376,2.12264151 L53.376,7.12264151 L51.696,7.12264151 C51.504,7.12264151 51.36,7.31132075 51.36,7.45283019 L51.36,9.00943396 C51.36,9.19811321 51.552,9.33962264 51.696,9.33962264 L53.376,9.33962264 L53.376,16.8867925 C53.376,19.1981132 54.96,20.7075472 57.264,20.7075472 L58.944,20.7075472 C59.136,20.7075472 59.28,20.5188679 59.28,20.3773585 L59.28,18.8207547 C59.28,18.6320755 59.088,18.490566 58.944,18.490566 L57.408,18.490566 C56.304,18.490566 55.536,17.7358491 55.536,16.5566038 L55.536,9.29245283 L58.992,9.29245283 L59.04,9.33962264 L59.04,9.33962264 Z" id="Path"></path>
                                    <path d="M2.064,9.33962264 L2.064,20.4716981 C2.064,20.6603774 2.256,20.8018868 2.4,20.8018868 L3.984,20.8018868 C4.176,20.8018868 4.32,20.6132075 4.32,20.4716981 L4.32,9.33962264 L8.064,9.33962264 C8.256,9.33962264 8.4,9.1509434 8.4,9.00943396 L8.4,7.45283019 C8.4,7.26415094 8.208,7.12264151 8.064,7.12264151 L4.32,7.12264151 L4.32,4.19811321 C4.32,3.01886792 5.184,2.21698113 6.192,2.21698113 L8.064,2.21698113 C8.256,2.21698113 8.4,2.02830189 8.4,1.88679245 L8.4,0.330188679 C8.4,0.141509434 8.208,3.55271368e-15 8.064,3.55271368e-15 L6.288,3.55271368e-15 C3.936,3.55271368e-15 2.064,1.93396226 2.064,4.1509434 L2.064,7.12264151 L0.384,7.12264151 C0.192,7.12264151 0.048,7.31132075 0.048,7.45283019 L0.048,9.00943396 C0.048,9.19811321 0.24,9.33962264 0.384,9.33962264 L2.064,9.33962264 L2.064,9.33962264 Z" id="Path"></path>
                                </g>
                                <path d="M40.848,9.24528302 C39.6,7.9245283 37.824,7.16981132 35.952,7.16981132 C34.176,7.16981132 32.4,7.9245283 31.296,9.00943396 L31.296,0.70754717 C31.296,0.518867925 31.104,0.377358491 30.96,0.377358491 L29.376,0.377358491 C29.184,0.377358491 29.04,0.566037736 29.04,0.70754717 L29.04,14.4339623 C29.04,19.5283019 32.496,21.745283 35.904,21.745283 C39.264,21.745283 42.768,19.4811321 42.768,14.4339623 C42.768,12.4056604 42.096,10.5660377 40.848,9.24528302 Z M35.904,19.6226415 C32.496,19.6226415 31.248,16.9811321 31.248,14.4811321 C31.248,11.4150943 33.12,9.38679245 35.904,9.38679245 C38.688,9.38679245 40.56,11.4622642 40.56,14.4811321 C40.512,16.9811321 39.312,19.6226415 35.904,19.6226415 Z" id="Shape"></path>
                            </g>
                        </g>
                    </g>
                </g>
            </g>
        </g>
    </g>
</svg>