<?xml version="1.0" encoding="UTF-8"?>
<svg width="96px" height="33px" viewBox="0 0 96 33" version="1.1" xmlns="http://www.w3.org/2000/svg" xmlns:xlink="http://www.w3.org/1999/xlink">
    <title>google</title>
    <g id="[NEW-UPDATE-Landing]" stroke="none" stroke-width="1" fill="none" fill-rule="evenodd">
        <g id="60---SaaS-04" transform="translate(-767.000000, -6512.000000)" fill="#FFFFFF">
            <g id="CTA" transform="translate(50.000000, 6269.000000)">
                <g id="List" transform="translate(100.000000, 243.000000)">
                    <g id="Item" transform="translate(570.000000, 0.000000)">
                        <g id="google" transform="translate(47.000000, 0.925561)">
                            <path d="M23.626943,11.2 L12.4352332,11.2 L12.4352332,14.5 L20.3937824,14.5 C19.9958549,19.15 16.1160622,21.2 12.4849741,21.2 C7.80932642,21.2 3.73056995,17.5 3.73056995,12.35 C3.73056995,7.3 7.61036269,3.4 12.4849741,3.4 C16.265285,3.4 18.453886,5.8 18.453886,5.8 L20.7419689,3.4 C20.7419689,3.4 17.757513,0.1 12.3357513,0.1 C5.42176166,0.05 0.0994818653,5.9 0.0994818653,12.25 C0.0994818653,18.45 5.12331606,24.5 12.534715,24.5 C19.0507772,24.5 23.8259067,20.05 23.8259067,13.4 C23.8259067,12 23.626943,11.2 23.626943,11.2 L23.626943,11.2 Z" id="g_1_"></path>
                            <path d="M32.7295337,8.75 C28.1533679,8.75 24.8704663,12.35 24.8704663,16.55 C24.8704663,20.85 28.053886,24.5 32.8290155,24.5 C37.1564767,24.5 40.638342,21.25 40.638342,16.65 C40.588601,11.45 36.5098446,8.75 32.7295337,8.75 L32.7295337,8.75 Z M32.7792746,11.9 C35.0176166,11.9 37.1564767,13.75 37.1564767,16.65 C37.1564767,19.55 35.0673575,21.4 32.7792746,21.4 C30.292228,21.4 28.3523316,19.4 28.3523316,16.6 C28.3025907,13.9 30.242487,11.9 32.7792746,11.9 L32.7792746,11.9 Z" id="o_2_"></path>
                            <path d="M49.8404145,8.75 C45.2642487,8.75 41.9813472,12.35 41.9813472,16.55 C41.9813472,20.85 45.1647668,24.5 49.9398964,24.5 C54.2673575,24.5 57.7492228,21.25 57.7492228,16.65 C57.6994819,11.45 53.6207254,8.75 49.8404145,8.75 L49.8404145,8.75 Z M49.8901554,11.9 C52.1284974,11.9 54.2673575,13.75 54.2673575,16.65 C54.2673575,19.55 52.1782383,21.4 49.8901554,21.4 C47.4031088,21.4 45.4632124,19.4 45.4632124,16.6 C45.4134715,13.9 47.3533679,11.9 49.8901554,11.9 L49.8901554,11.9 Z" id="o_1_"></path>
                            <path d="M66.6031088,8.8 C62.3751295,8.8 59.092228,12.5 59.092228,16.65 C59.092228,21.35 62.9222798,24.55 66.5036269,24.55 C68.7419689,24.55 69.8860104,23.7 70.8310881,22.65 L70.8310881,24.2 C70.8310881,26.9 69.1896373,28.55 66.7025907,28.55 C64.3150259,28.55 63.1212435,26.75 62.6735751,25.75 L59.6393782,27 C60.6839378,29.25 62.8227979,31.6 66.6528497,31.6 C70.8310881,31.6 74.0145078,28.95 74.0145078,23.4 L74.0145078,9.25 L70.7316062,9.25 L70.7316062,10.6 C69.8362694,9.5 68.4435233,8.8 66.6031088,8.8 L66.6031088,8.8 Z M66.9015544,11.9 C68.9409326,11.9 71.0797927,13.7 71.0797927,16.7 C71.0797927,19.8 68.9906736,21.45 66.8518135,21.45 C64.6134715,21.45 62.5243523,19.6 62.5243523,16.75 C62.5740933,13.65 64.7129534,11.9 66.9015544,11.9 L66.9015544,11.9 Z" id="g"></path>
                            <path d="M88.7378238,8.75 C84.7585492,8.75 81.4259067,11.9 81.4259067,16.6 C81.4259067,21.55 85.1564767,24.5 89.0860104,24.5 C92.3689119,24.5 94.4580311,22.65 95.6518135,21.05 L92.9160622,19.2 C92.2196891,20.3 91.0259067,21.35 89.0860104,21.35 C86.8974093,21.35 85.9025907,20.15 85.2559585,18.95 L95.7512953,14.55 L95.2041451,13.25 C94.1595855,10.85 91.8217617,8.75 88.7378238,8.75 L88.7378238,8.75 Z M88.8373057,11.8 C90.2797927,11.8 91.2746114,12.55 91.7720207,13.5 L84.8082902,16.45 C84.4103627,14.15 86.5989637,11.8 88.8373057,11.8 L88.8373057,11.8 Z" id="e"></path>
                            <polygon id="l" points="76.4518135 24.05 79.8839378 24.05 79.8839378 0.85 76.4518135 0.85"></polygon>
                        </g>
                    </g>
                </g>
            </g>
        </g>
    </g>
</svg>