<svg xmlns="http://www.w3.org/2000/svg" width="32" height="32" viewBox="0 0 32 32">
    <g fill="none" fill-rule="evenodd">
        <g>
            <g>
                <g>
                    <g>
                        <path fill="#FFC200" d="M13.114 22.938l-3.048 6.095c-.376.753-.071 1.668.681 2.044.753.377 1.668.071 2.045-.681l3.047-6.095c.377-.753.072-1.669-.681-2.045-.753-.376-1.668-.071-2.044.682z" transform="translate(-775 -2475) translate(217 1947) translate(528 502) translate(30 26)"/>
                        <path fill="#FFC200" d="M16.161 24.3l3.048 6.096c.376.752 1.292 1.058 2.044.681.753-.376 1.058-1.291.682-2.044l-3.048-6.095c-.376-.753-1.292-1.058-2.044-.682-.753.376-1.058 1.292-.682 2.045z" transform="translate(-775 -2475) translate(217 1947) translate(528 502) translate(30 26)"/>
                        <path fill="#154E84" fill-rule="nonzero" d="M12.432 22.597l-3.047 6.095c-.565 1.13-.107 2.502 1.022 3.067 1.129.564 2.502.107 3.066-1.023l3.048-6.095c.564-1.129.107-2.502-1.022-3.066-1.13-.565-2.502-.107-3.067 1.022zm1.363.681c.188-.376.646-.529 1.022-.34.377.188.53.645.341 1.022l-3.048 6.095c-.188.376-.645.529-1.022.34-.376-.187-.529-.645-.34-1.021l3.047-6.096z" transform="translate(-775 -2475) translate(217 1947) translate(528 502) translate(30 26)"/>
                        <path fill="#154E84" fill-rule="nonzero" d="M15.48 24.641l3.047 6.095c.565 1.13 1.938 1.587 3.067 1.023 1.13-.565 1.587-1.938 1.022-3.067l-3.047-6.095c-.565-1.13-1.938-1.587-3.067-1.022-1.13.564-1.587 1.937-1.022 3.066zm1.363-.681c-.189-.377-.036-.834.34-1.022.377-.189.834-.036 1.023.34l3.047 6.096c.188.376.036.834-.34 1.022-.377.188-.835.035-1.023-.341l-3.047-6.095z" transform="translate(-775 -2475) translate(217 1947) translate(528 502) translate(30 26)"/>
                        <path fill="#FFF" d="M2.286 5.333h27.428v16c0 1.263-1.023 2.286-2.285 2.286H4.57c-1.262 0-2.285-1.023-2.285-2.286v-16z" transform="translate(-775 -2475) translate(217 1947) translate(528 502) translate(30 26)"/>
                        <path fill="#154E84" fill-rule="nonzero" d="M1.524 5.333c0-.42.34-.762.762-.762h27.428c.421 0 .762.342.762.762v16c0 1.683-1.364 3.048-3.047 3.048H4.57c-1.683 0-3.047-1.365-3.047-3.048v-16zm1.524.762v15.238c0 .842.682 1.524 1.523 1.524H27.43c.841 0 1.523-.682 1.523-1.524V6.095H3.048z" transform="translate(-775 -2475) translate(217 1947) translate(528 502) translate(30 26)"/>
                        <path stroke="#FFC200" stroke-linecap="round" stroke-width="1.524" d="M12.952 12.571L19.048 12.571M9.905 17.524L22.095 17.524" transform="translate(-775 -2475) translate(217 1947) translate(528 502) translate(30 26)"/>
                        <path fill="#52ABE2" d="M1.524.762h28.952c.421 0 .762.341.762.762v3.81H.762v-3.81c0-.421.341-.762.762-.762z" transform="translate(-775 -2475) translate(217 1947) translate(528 502) translate(30 26)"/>
                        <path fill="#154E84" fill-rule="nonzero" d="M1.524 0h28.952C31.318 0 32 .682 32 1.524v4.571H0V1.524C0 .682.682 0 1.524 0zm28.952 4.571V1.524H1.524V4.57h28.952z" transform="translate(-775 -2475) translate(217 1947) translate(528 502) translate(30 26)"/>
                    </g>
                </g>
            </g>
        </g>
    </g>
</svg>
