<svg xmlns="http://www.w3.org/2000/svg" width="28" height="32" viewBox="0 0 28 32">
    <g fill="none" fill-rule="evenodd">
        <g>
            <g>
                <g>
                    <g transform="translate(-250 -2475) translate(217 1947) translate(0 502) translate(33 26)">
                        <path fill="#154E84" fill-rule="nonzero" d="M2.333 3.048h23.334C26.955 3.048 28 4.07 28 5.333v24.381C28 30.977 26.955 32 25.667 32H2.333C1.045 32 0 30.977 0 29.714V5.334C0 4.07 1.045 3.047 2.333 3.047z"/>
                        <path fill="#52ABE2" fill-rule="nonzero" d="M2.333 4.571c-.43 0-.777.342-.777.762v24.381c0 .421.348.762.777.762h23.334c.43 0 .777-.34.777-.762V5.334c0-.421-.348-.763-.777-.763H2.333z"/>
                        <path fill="#FFF" d="M4.111 6.095H23.89c.552 0 1 .448 1 1v20.857c0 .553-.448 1-1 1H4.11c-.552 0-1-.447-1-1V7.095c0-.552.448-1 1-1z"/>
                        <path fill="#154E84" fill-rule="nonzero" d="M10.111 2.286h7.778c.859 0 1.555.682 1.555 1.524v1.523c0 .842-.696 1.524-1.555 1.524H10.11c-.859 0-1.555-.682-1.555-1.524V3.81c0-.842.696-1.524 1.555-1.524z"/>
                        <path fill="#FFC200" fill-rule="nonzero" d="M10.111 3.81L10.111 5.333 17.889 5.333 17.889 3.81z"/>
                        <path fill="#154E84" fill-rule="nonzero" d="M17.111 3.048C17.111 1.364 15.718 0 14 0c-1.718 0-3.111 1.364-3.111 3.048h1.555c0-.842.697-1.524 1.556-1.524.86 0 1.556.682 1.556 1.524h1.555z"/>
                        <path fill="#52ABE2" fill-rule="nonzero" d="M11.666 12.19l10.082.008c.43 0 .778-.34.779-.761 0-.421-.348-.762-.778-.763l-10.082-.007c-.43 0-.778.34-.778.761 0 .42.348.762.777.762z"/>
                        <ellipse cx="7" cy="11.429" fill="#52ABE2" rx="1.556" ry="1.524"/>
                        <ellipse cx="7" cy="17.524" fill="#52ABE2" rx="1.556" ry="1.524"/>
                        <ellipse cx="7" cy="23.619" fill="#52ABE2" rx="1.556" ry="1.524"/>
                        <path fill="#52ABE2" fill-rule="nonzero" d="M11.666 18.286l10.082.007c.43 0 .778-.34.779-.761 0-.42-.348-.762-.778-.763l-10.082-.007c-.43 0-.778.34-.778.761s.348.762.777.763zM11.666 24.381l10.082.007c.43 0 .778-.34.779-.76 0-.422-.348-.763-.778-.763l-10.082-.008c-.43 0-.778.34-.778.761s.348.763.777.763z"/>
                    </g>
                </g>
            </g>
        </g>
    </g>
</svg>
