<svg xmlns="http://www.w3.org/2000/svg" width="64" height="64" viewBox="0 0 64 64">
    <g fill="none" fill-rule="evenodd">
        <g>
            <g>
                <g>
                    <g transform="translate(-688 -4846) translate(50 2948) translate(442 1898) translate(196)">
                        <circle cx="32" cy="32" r="32" fill="#FAAD13" opacity=".1"/>
                        <path fill="#154E84" fill-rule="nonzero" d="M53 24v3c0 4.418-3.582 8-8 8-.552 0-1-.448-1-1V24c0-.552.448-1 1-1h7c.552 0 1 .448 1 1zm-2 1h-5v7.917c2.838-.476 5-2.944 5-5.917v-2z"/>
                        <path fill="#FFF" d="M19.079 37.894C14.749 39.36 12 41.552 12 44c0 4.418 8.954 8 20 8s20-3.582 20-8c0-2.406-2.654-4.563-6.856-6.03l-26.065-.076z"/>
                        <path fill="#52ABE2" d="M21.37 38C17.475 39.144 14 41.853 14 43.762 14 47.207 22.059 50 32 50s18-2.793 18-6.238c0-1.876-3.389-4.559-7.17-5.702L21.37 38z"/>
                        <path fill="#154E84" fill-rule="nonzero" d="M18.758 36.946C13.937 38.58 11 41.06 11 44c0 5.221 9.448 9 21 9s21-3.779 21-9c0-2.892-2.842-5.339-7.526-6.974l-.159-.055-26.4-.078-.157.053zm26.214 2.024C48.84 40.35 51 42.232 51 44c0 3.616-8.461 7-19 7s-19-3.384-19-7c0-1.803 2.245-3.722 6.244-5.106l25.728.076z"/>
                        <path fill="#FFC200" d="M20 20h24c.552 0 1 .448 1 1v17c0 4.418-3.582 8-8 8H27c-4.418 0-8-3.582-8-8V21c0-.552.448-1 1-1z"/>
                        <path fill="#FFF" d="M23 20h21c.552 0 1 .448 1 1v16c0 4.418-3.582 8-8 8h-7c-4.418 0-8-3.582-8-8V21c0-.552.448-1 1-1z"/>
                        <path fill="#154E84" fill-rule="nonzero" d="M20 19h24c1.105 0 2 .895 2 2v17c0 4.97-4.03 9-9 9H27c-4.97 0-9-4.03-9-9V21c0-1.105.895-2 2-2zm0 2v17c0 3.866 3.134 7 7 7h10c3.866 0 7-3.134 7-7V21H20z"/>
                        <path fill="#52ABE2" fill-rule="nonzero" d="M33 16v-4c0-.552-.448-1-1-1s-1 .448-1 1v4c0 .552.448 1 1 1s1-.448 1-1zM25 16v-4c0-.552-.448-1-1-1s-1 .448-1 1v4c0 .552.448 1 1 1s1-.448 1-1zM41 16v-4c0-.552-.448-1-1-1s-1 .448-1 1v4c0 .552.448 1 1 1s1-.448 1-1z"/>
                    </g>
                </g>
            </g>
        </g>
    </g>
</svg>
