<svg xmlns="http://www.w3.org/2000/svg" width="26" height="33" viewBox="0 0 26 33">
    <g fill="none" fill-rule="evenodd">
        <g>
            <g>
                <g>
                    <g>
                        <path fill="#FFC200" d="M8.25 16.762L15 16.762 15 23.619 8.25 23.619z" transform="translate(-774 -2161) translate(217 1947) translate(528 188) translate(30 26)"/>
                        <path fill="#FFF" d="M12 19.048c-6.3 0-8.25-6.38-8.25-11.429C3.75 2.569 7.444.762 12 .762s8.25 1.808 8.25 6.857c0 5.05-1.95 11.429-8.25 11.429z" transform="translate(-774 -2161) translate(217 1947) translate(528 188) translate(30 26)"/>
                        <path fill="#52ABE2" d="M3.75 8.363V7.62C3.75 3.832 6.772.762 10.5.762h3c3.728 0 6.75 3.07 6.75 6.857v.762h-7.855c-2.259 0-4.324-1.18-5.331-3.048 0 1.674-1.47 3.03-3.314 3.03z" transform="translate(-774 -2161) translate(217 1947) translate(528 188) translate(30 26)"/>
                        <path fill="#FFF" stroke="#154E84" stroke-linecap="round" stroke-linejoin="round" stroke-width="2" d="M15.623 18.523c.477.203.884.378 1.22.525 3.79 1.65 6.407 5.176 6.407 9.26v2.93H.75v-2.93c0-4.075 2.606-7.594 6.38-9.25l1.12-.535L12 23.62l3.623-5.096z" transform="translate(-774 -2161) translate(217 1947) translate(528 188) translate(30 26)"/>
                        <path fill="#154E84" fill-rule="nonzero" d="M12 19.81c5.97 0 9-5.29 9-12.191C21 2.519 17.528 0 12 0 6.472 0 3 2.519 3 7.619c0 6.902 3.03 12.19 9 12.19zm0-1.524c-4.925 0-7.5-4.496-7.5-10.667 0-4.127 2.713-6.095 7.5-6.095s7.5 1.968 7.5 6.095c0 6.171-2.575 10.667-7.5 10.667z" transform="translate(-774 -2161) translate(217 1947) translate(528 188) translate(30 26)"/>
                        <path fill="#154E84" fill-rule="nonzero" d="M12.395 9.143h7.855c.414 0 .75-.341.75-.762v-.762C21 3.411 17.642 0 13.5 0h-3C6.358 0 3 3.411 3 7.619v.744c0 .421.336.762.75.762 1.585 0 2.964-.84 3.633-2.083 1.257 1.32 3.073 2.1 5.012 2.1zM10.5 1.523h3c3.314 0 6 2.73 6 6.096h-7.105c-1.991 0-3.8-1.034-4.674-2.652-.373-.691-1.407-.422-1.407.366 0 1.014-.75 1.886-1.813 2.17.06-3.312 2.723-5.98 5.999-5.98zM11.99 22.332l3.025-4.255c.204-.287.576-.393.898-.256.479.203.888.379 1.226.526C21.287 20.154 24 23.998 24 28.307v2.931c0 .42-.336.762-.75.762H.75c-.414 0-.75-.341-.75-.762v-2.93c0-4.3 2.7-8.137 6.81-9.938l1.12-.536c.323-.154.707-.057.92.233l3.14 4.265zm.618 1.733c-.296.417-.906.422-1.209.01l-3.383-4.598-.588.281c-3.603 1.58-5.928 4.883-5.928 8.55v2.168h21v-2.168c0-3.675-2.336-6.985-5.952-8.56l-.666-.288-3.274 4.605z" transform="translate(-774 -2161) translate(217 1947) translate(528 188) translate(30 26)"/>
                        <path fill="#154E84" fill-rule="nonzero" d="M15.75 25.905h4.5c.414 0 .75-.341.75-.762 0-.42-.336-.762-.75-.762h-4.5c-.414 0-.75.341-.75.762 0 .42.336.762.75.762zM11.246 23.546v7.692c0 .42.336.762.75.762.415 0 .75-.341.75-.762v-7.692c0-.42-.335-.762-.75-.762-.414 0-.75.341-.75.762z" transform="translate(-774 -2161) translate(217 1947) translate(528 188) translate(30 26)"/>
                    </g>
                </g>
            </g>
        </g>
    </g>
</svg>
