<svg xmlns="http://www.w3.org/2000/svg" width="34" height="34" viewBox="0 0 34 34">
    <g fill="none" fill-rule="evenodd">
        <g>
            <g>
                <g>
                    <g transform="translate(-246 -2160) translate(217 1947) translate(0 188) translate(30 26)">
                        <path fill="#FFF" d="M29.446 23.175l1.792 8.063-8.063-1.792c-2.138 1.144-4.58 1.792-7.175 1.792C7.584 31.238.762 24.416.762 16S7.584.762 16 .762 31.238 7.584 31.238 16c0 2.594-.648 5.037-1.792 7.175z"/>
                        <circle cx="9.905" cy="16.762" r="1.524" fill="#00B8D9"/>
                        <circle cx="16" cy="16.762" r="1.524" fill="#00B8D9"/>
                        <circle cx="22.095" cy="16.762" r="1.524" fill="#00B8D9"/>
                        <path fill="#FFC200" d="M17.905 31.12c-.624.078-1.26.118-1.905.118C7.584 31.238.762 24.416.762 16S7.584.762 16 .762c.645 0 1.28.04 1.905.118C10.388 1.817 4.57 8.23 4.57 16s5.817 14.183 13.334 15.12z"/>
                        <path stroke="#154E84" stroke-linecap="round" stroke-linejoin="round" stroke-width="2" d="M29.446 23.175l1.792 8.063-8.063-1.792c-2.138 1.144-4.58 1.792-7.175 1.792C7.584 31.238.762 24.416.762 16S7.584.762 16 .762 31.238 7.584 31.238 16c0 2.594-.648 5.037-1.792 7.175h0z"/>
                        <path fill="#154E84" fill-rule="nonzero" d="M31.982 31.073c.12.544-.365 1.03-.91.909l-7.79-1.731C21.048 31.394 18.567 32 16 32 7.163 32 0 24.837 0 16S7.163 0 16 0s16 7.163 16 16c0 2.567-.606 5.048-1.75 7.282l1.732 7.79zm-3.28-7.732c-.039-.178-.013-.364.073-.525 1.111-2.08 1.701-4.404 1.701-6.816 0-7.995-6.481-14.476-14.476-14.476C8.005 1.524 1.524 8.005 1.524 16c0 7.995 6.481 14.476 14.476 14.476 2.412 0 4.737-.59 6.816-1.701.16-.086.347-.112.525-.072l6.894 1.532-1.532-6.894z"/>
                        <path fill="#154E84" fill-rule="nonzero" d="M31.982 31.073c.12.544-.365 1.03-.91.909l-7.79-1.731C21.048 31.394 18.567 32 16 32 7.163 32 0 24.837 0 16S7.163 0 16 0s16 7.163 16 16c0 2.567-.606 5.048-1.75 7.282l1.732 7.79zm-3.28-7.732c-.039-.178-.013-.364.073-.525 1.111-2.08 1.701-4.404 1.701-6.816 0-7.995-6.481-14.476-14.476-14.476C8.005 1.524 1.524 8.005 1.524 16c0 7.995 6.481 14.476 14.476 14.476 2.412 0 4.737-.59 6.816-1.701.16-.086.347-.112.525-.072l6.894 1.532-1.532-6.894z"/>
                    </g>
                </g>
            </g>
        </g>
    </g>
</svg>
