<?xml version="1.0" encoding="UTF-8"?>
<svg width="72px" height="72px" viewBox="0 0 72 72" version="1.1" xmlns="http://www.w3.org/2000/svg" xmlns:xlink="http://www.w3.org/1999/xlink">
    <title>instagram-2016 (1)</title>
    <defs>
        <radialGradient cx="13.2861314%" cy="100.4724%" fx="13.2861314%" fy="100.4724%" r="130.546822%" gradientTransform="translate(0.132861,1.004724),scale(1.000000,0.999960),translate(-0.132861,-1.004724)" id="radialGradient-1">
            <stop stop-color="#FA8F21" offset="9%"></stop>
            <stop stop-color="#D82D7E" offset="78%"></stop>
        </radialGradient>
        <radialGradient cx="50%" cy="50%" fx="50%" fy="50%" r="241.179827%" gradientTransform="translate(0.500000,0.500000),scale(1.000000,0.999960),translate(-0.500000,-0.500000)" id="radialGradient-2">
            <stop stop-color="#8C3AAA" stop-opacity="0" offset="0%"></stop>
            <stop stop-color="#8C3AAA" offset="100%"></stop>
        </radialGradient>
    </defs>
    <g id="[NEW-UPDATE-Landing]" stroke="none" stroke-width="1" fill="none" fill-rule="evenodd">
        <g id="60---SaaS-04" transform="translate(-862.000000, -5694.000000)" fill-rule="nonzero">
            <g id="CTA" transform="translate(150.000000, 5190.000000)">
                <g id="Logo" transform="translate(658.000000, 0.000000)">
                    <g id="Item" transform="translate(0.000000, 450.000000)">
                        <g id="instagram-2016-(1)" transform="translate(54.000000, 54.000000)">
                            <path d="M24.00192,36 C24.00192,29.372832 29.372832,23.99904 36,23.99904 C42.627168,23.99904 48.00096,29.372832 48.00096,36 C48.00096,42.627168 42.627168,48.00096 36,48.00096 C29.372832,48.00096 24.00192,42.627168 24.00192,36 M17.514432,36 C17.514432,46.2096 25.7904,54.485568 36,54.485568 C46.2096,54.485568 54.485568,46.2096 54.485568,36 C54.485568,25.7904 46.2096,17.514432 36,17.514432 C25.7904,17.514432 17.514432,25.7904 17.514432,36 M50.8973756,16.781472 C50.8964218,19.1673418 52.8297779,21.102245 55.2156478,21.1031997 C57.6015176,21.1041536 59.5364209,19.1707976 59.5373757,16.7849278 C59.5383297,14.3990579 57.6049738,12.4641545 55.219104,12.4632 L55.217376,12.4632 C52.832641,12.4643115 50.8994415,14.3967377 50.8973756,16.781472 M21.456,65.303136 C17.946144,65.143296 16.038432,64.558656 14.770656,64.064736 C13.089888,63.4104 11.890656,62.631072 10.629792,61.371936 C9.368928,60.1128 8.588448,58.91472 7.936992,57.233952 C7.442784,55.966752 6.858144,54.058464 6.698592,50.548608 C6.524064,46.75392 6.489216,45.614016 6.489216,36.000288 C6.489216,26.38656 6.526944,25.249824 6.698592,21.451968 C6.858432,17.942112 7.447392,16.037568 7.936992,14.766624 C8.591328,13.085856 9.370656,11.886624 10.629792,10.62576 C11.888928,9.364896 13.087008,8.584416 14.770656,7.93296 C16.037856,7.438752 17.946144,6.854112 21.456,6.69456 C25.250688,6.520032 26.390592,6.485184 36,6.485184 C45.609408,6.485184 46.750464,6.522912 50.54832,6.69456 C54.058176,6.8544 55.96272,7.44336 57.233664,7.93296 C58.914432,8.584416 60.113664,9.366624 61.374528,10.62576 C62.635392,11.884896 63.412992,13.085856 64.067328,14.766624 C64.561536,16.033824 65.146176,17.942112 65.305728,21.451968 C65.480256,25.249824 65.515104,26.38656 65.515104,36.000288 C65.515104,45.614016 65.480256,46.750752 65.305728,50.548608 C65.145888,54.058464 64.558368,55.966176 64.067328,57.233952 C63.412992,58.91472 62.633664,60.113952 61.374528,61.371936 C60.115392,62.62992 58.914432,63.4104 57.233664,64.064736 C55.966464,64.558944 54.058176,65.143584 50.54832,65.303136 C46.753632,65.477664 45.613728,65.512512 36,65.512512 C26.386272,65.512512 25.249536,65.477664 21.456,65.303136 M21.15792,0.218016 C17.325504,0.392544 14.70672,1.000224 12.419712,1.890144 C10.0512,2.809152 8.046144,4.04208 6.042528,6.042528 C4.038912,8.042976 2.809152,10.0512 1.890144,12.419712 C1.000224,14.70816 0.392544,17.325504 0.218016,21.15792 C0.040608,24.996384 0,26.223552 0,36 C0,45.776448 0.040608,47.003616 0.218016,50.84208 C0.392544,54.674784 1.000224,57.29184 1.890144,59.580288 C2.809152,61.94736 4.0392,63.957888 6.042528,65.957472 C8.045856,67.957056 10.0512,69.188256 12.419712,70.109856 C14.71104,70.999776 17.325504,71.607456 21.15792,71.781984 C24.9984,71.956512 26.223552,72 36,72 C45.776448,72 47.003616,71.959392 50.84208,71.781984 C54.674784,71.607456 57.29184,70.999776 59.580288,70.109856 C61.94736,69.188256 63.953856,67.95792 65.957472,65.957472 C67.961088,63.957024 69.188256,61.94736 70.109856,59.580288 C70.999776,57.29184 71.610336,54.674496 71.781984,50.84208 C71.956512,47.000736 71.99712,45.776448 71.99712,36 C71.99712,26.223552 71.956512,24.996384 71.781984,21.15792 C71.607456,17.325216 70.999776,14.70672 70.109856,12.419712 C69.188256,10.05264 67.95792,8.046144 65.957472,6.042528 C63.957024,4.038912 61.94736,2.809152 59.583168,1.890144 C57.29184,1.000224 54.674496,0.389664 50.84496,0.218016 C47.006496,0.043488 45.779328,0 36.00288,0 C26.226432,0 24.9984,0.040608 21.15792,0.218016" id="Shape" fill="url(#radialGradient-1)"></path>
                            <path d="M24.00192,36 C24.00192,29.372832 29.372832,23.99904 36,23.99904 C42.627168,23.99904 48.00096,29.372832 48.00096,36 C48.00096,42.627168 42.627168,48.00096 36,48.00096 C29.372832,48.00096 24.00192,42.627168 24.00192,36 M17.514432,36 C17.514432,46.2096 25.7904,54.485568 36,54.485568 C46.2096,54.485568 54.485568,46.2096 54.485568,36 C54.485568,25.7904 46.2096,17.514432 36,17.514432 C25.7904,17.514432 17.514432,25.7904 17.514432,36 M50.8973756,16.781472 C50.8964218,19.1673418 52.8297779,21.102245 55.2156478,21.1031997 C57.6015176,21.1041536 59.5364209,19.1707976 59.5373757,16.7849278 C59.5383297,14.3990579 57.6049738,12.4641545 55.219104,12.4632 L55.217376,12.4632 C52.832641,12.4643115 50.8994415,14.3967377 50.8973756,16.781472 M21.456,65.303136 C17.946144,65.143296 16.038432,64.558656 14.770656,64.064736 C13.089888,63.4104 11.890656,62.631072 10.629792,61.371936 C9.368928,60.1128 8.588448,58.91472 7.936992,57.233952 C7.442784,55.966752 6.858144,54.058464 6.698592,50.548608 C6.524064,46.75392 6.489216,45.614016 6.489216,36.000288 C6.489216,26.38656 6.526944,25.249824 6.698592,21.451968 C6.858432,17.942112 7.447392,16.037568 7.936992,14.766624 C8.591328,13.085856 9.370656,11.886624 10.629792,10.62576 C11.888928,9.364896 13.087008,8.584416 14.770656,7.93296 C16.037856,7.438752 17.946144,6.854112 21.456,6.69456 C25.250688,6.520032 26.390592,6.485184 36,6.485184 C45.609408,6.485184 46.750464,6.522912 50.54832,6.69456 C54.058176,6.8544 55.96272,7.44336 57.233664,7.93296 C58.914432,8.584416 60.113664,9.366624 61.374528,10.62576 C62.635392,11.884896 63.412992,13.085856 64.067328,14.766624 C64.561536,16.033824 65.146176,17.942112 65.305728,21.451968 C65.480256,25.249824 65.515104,26.38656 65.515104,36.000288 C65.515104,45.614016 65.480256,46.750752 65.305728,50.548608 C65.145888,54.058464 64.558368,55.966176 64.067328,57.233952 C63.412992,58.91472 62.633664,60.113952 61.374528,61.371936 C60.115392,62.62992 58.914432,63.4104 57.233664,64.064736 C55.966464,64.558944 54.058176,65.143584 50.54832,65.303136 C46.753632,65.477664 45.613728,65.512512 36,65.512512 C26.386272,65.512512 25.249536,65.477664 21.456,65.303136 M21.15792,0.218016 C17.325504,0.392544 14.70672,1.000224 12.419712,1.890144 C10.0512,2.809152 8.046144,4.04208 6.042528,6.042528 C4.038912,8.042976 2.809152,10.0512 1.890144,12.419712 C1.000224,14.70816 0.392544,17.325504 0.218016,21.15792 C0.040608,24.996384 0,26.223552 0,36 C0,45.776448 0.040608,47.003616 0.218016,50.84208 C0.392544,54.674784 1.000224,57.29184 1.890144,59.580288 C2.809152,61.94736 4.0392,63.957888 6.042528,65.957472 C8.045856,67.957056 10.0512,69.188256 12.419712,70.109856 C14.71104,70.999776 17.325504,71.607456 21.15792,71.781984 C24.9984,71.956512 26.223552,72 36,72 C45.776448,72 47.003616,71.959392 50.84208,71.781984 C54.674784,71.607456 57.29184,70.999776 59.580288,70.109856 C61.94736,69.188256 63.953856,67.95792 65.957472,65.957472 C67.961088,63.957024 69.188256,61.94736 70.109856,59.580288 C70.999776,57.29184 71.610336,54.674496 71.781984,50.84208 C71.956512,47.000736 71.99712,45.776448 71.99712,36 C71.99712,26.223552 71.956512,24.996384 71.781984,21.15792 C71.607456,17.325216 70.999776,14.70672 70.109856,12.419712 C69.188256,10.05264 67.95792,8.046144 65.957472,6.042528 C63.957024,4.038912 61.94736,2.809152 59.583168,1.890144 C57.29184,1.000224 54.674496,0.389664 50.84496,0.218016 C47.006496,0.043488 45.779328,0 36.00288,0 C26.226432,0 24.9984,0.040608 21.15792,0.218016" id="Shape" fill="url(#radialGradient-2)"></path>
                        </g>
                    </g>
                </g>
            </g>
        </g>
    </g>
</svg>