<?xml version="1.0" encoding="UTF-8"?>
<svg width="49px" height="39px" viewBox="0 0 49 39" version="1.1" xmlns="http://www.w3.org/2000/svg" xmlns:xlink="http://www.w3.org/1999/xlink">
    <title>Path</title>
    <g id="[NEW-UPDATE-Landing]" stroke="none" stroke-width="1" fill="none" fill-rule="evenodd">
        <g id="60---SaaS-04" transform="translate(-1073.000000, -5460.000000)" fill="#12100E" fill-rule="nonzero">
            <g id="CTA" transform="translate(150.000000, 5190.000000)">
                <g id="Logo" transform="translate(658.000000, 0.000000)">
                    <g id="Item" transform="translate(200.000000, 200.000000)">
                        <g id="monogram-medium-(1)" transform="translate(54.000000, 54.000000)">
                            <path d="M17.1817846,24.0797538 C17.2419039,23.4859558 17.015504,22.8990439 16.5721846,22.4994462 L12.0553846,17.0584615 L12.0553846,16.2461538 L26.0787692,16.2461538 L36.9175385,40.0176 L46.4473846,16.2461538 L59.8153846,16.2461538 L59.8153846,17.0588308 L55.9539692,20.7611077 C55.6210869,21.0148474 55.4559472,21.43196 55.5249231,21.8448 L55.5249231,49.0475077 C55.4559472,49.4603477 55.6210869,49.8774603 55.9539692,50.1312 L59.7249231,53.8334769 L59.7249231,54.6461538 L40.7568,54.6461538 L40.7568,53.8334769 L44.6632615,50.0407385 C45.0472615,49.6567385 45.0472615,49.5441231 45.0472615,48.9574154 L45.0472615,26.9693538 L34.1856,54.5556923 L32.7175385,54.5556923 L20.0721231,26.9693538 L20.0721231,45.4582154 C19.9667558,46.2355571 20.2249409,47.0181466 20.7721846,47.5801846 L25.8528,53.7430154 L25.8528,54.5556923 L11.4461538,54.5556923 L11.4461538,53.7433846 L16.5267692,47.5801846 C17.0700919,47.0172494 17.3132712,46.2294526 17.1817846,45.4582154 L17.1817846,24.0797538 Z" id="Path"></path>
                        </g>
                    </g>
                </g>
            </g>
        </g>
    </g>
</svg>