<?xml version="1.0" encoding="UTF-8"?>
<svg width="60px" height="72px" viewBox="0 0 60 72" version="1.1" xmlns="http://www.w3.org/2000/svg" xmlns:xlink="http://www.w3.org/1999/xlink">
    <title>Shopify</title>
    <g id="[NEW-UPDATE-Landing]" stroke="none" stroke-width="1" fill="none" fill-rule="evenodd">
        <g id="60---SaaS-04" transform="translate(-868.000000, -5494.000000)">
            <g id="CTA" transform="translate(150.000000, 5190.000000)">
                <g id="Logo" transform="translate(658.000000, 0.000000)">
                    <g id="Item" transform="translate(0.000000, 250.000000)">
                        <g id="Shopify" transform="translate(60.000000, 54.000000)">
                            <path d="M51.9453,13.41687 C52.2192,13.41687 52.4931,13.6482 52.548,13.99518 C52.6026,14.4 60,67.2 60,67.2 L38.904,72 L0,64.3083 C0,64.3083 4.9863,23.53734 5.20548,22.14939 C5.42466,20.24097 5.47944,20.18313 7.39725,19.54698 C7.67124,19.43133 10.137,18.62169 13.53426,17.52288 C14.84931,11.6241 19.06848,0 27.8904,0 C29.0412,0 30.3561,0.636144 31.452,2.139759 L31.7808,2.139759 C35.5617,2.139759 37.6986,5.5518 38.904,9.25302 C40.1097,8.8482 40.8768,8.61687 40.9314,8.61687 C41.2056,8.50119 42.0273,8.38554 42.411,8.79036 C42.8493,9.19518 46.4658,13.01205 46.4658,13.01205 C46.4658,13.01205 51.6711,13.41687 51.9453,13.41687 Z M34.74,10.61028 C35.4399,10.37991 36.0975,10.16355 36.7125,9.94722 C35.8905,7.22916 34.6305,4.91589 32.6577,4.68456 C33.096,6.13035 33.4248,7.98096 33.4248,10.2942 L33.4248,11.04603 C33.8781,10.89378 34.3161,10.74969 34.7385,10.61073 L34.7397,10.61028 L34.74,10.61028 Z M30.2466,5.08887 C30.7944,6.53466 31.1232,8.55876 31.1232,11.33466 L31.1232,11.73948 C30.2253,12.03105 29.289,12.33282 28.3338,12.64053 C27.0162,13.06518 25.6632,13.50114 24.3288,13.93707 C25.6437,8.67441 28.1097,6.072 30.2466,5.08887 Z M28.767,2.891391 C28.3833,2.602236 27.9999,2.486571 27.6162,2.486571 C21.31494,2.486571 17.75328,11.2191 16.27383,16.59741 C17.97246,16.07694 19.78068,15.49863 21.64371,14.86248 C22.90398,7.80705 25.9725,4.27935 28.767,2.891391 Z" id="Shape" fill="#95BF47"></path>
                            <path d="M51.9453,13.41687 C51.6714,13.41687 46.4658,13.01205 46.4658,13.01205 C46.4658,13.01205 42.8493,9.19521 42.411,8.79039 C42.2466,8.61687 42.0822,8.55906 41.8629,8.50122 L38.904,72 L60,67.2 C60,67.2 52.6029,14.40003 52.548,14.05302 C52.4931,13.6482 52.1643,13.47471 51.9453,13.41687 Z" id="Path" fill="#5E8E3E" fill-rule="nonzero"></path>
                            <path d="M31.7259,25.73526 L29.1507,33.8895 C29.1507,33.8895 26.8494,32.6172 24.1095,32.6172 C19.99998,32.6172 19.83558,35.3352 19.83558,36.0291 C19.83558,39.7305 29.0412,41.1762 29.0412,49.9089 C29.0412,56.7906 24.9315,61.1859 19.34244,61.1859 C12.65751,61.1859 9.26025,56.7906 9.26025,56.7906 L11.06847,50.5449 C11.06847,50.5449 14.57532,53.7255 17.53422,53.7255 C19.45203,53.7255 20.27394,52.1064 20.27394,50.9496 C20.27394,46.092 12.71229,45.8607 12.71229,37.8798 C12.71229,31.1715 17.26023,24.63648 26.5206,24.63648 C29.9727,24.63648 31.7259,25.73526 31.7259,25.73526 Z" id="Path" fill="#FFFFFF" fill-rule="nonzero"></path>
                        </g>
                    </g>
                </g>
            </g>
        </g>
    </g>
</svg>