<?xml version="1.0" encoding="UTF-8"?>
<svg width="72px" height="72px" viewBox="0 0 72 72" version="1.1" xmlns="http://www.w3.org/2000/svg" xmlns:xlink="http://www.w3.org/1999/xlink">
    <title>slack-new-logo</title>
    <g id="[NEW-UPDATE-Landing]" stroke="none" stroke-width="1" fill="none" fill-rule="evenodd">
        <g id="60---SaaS-04" transform="translate(-1062.000000, -5644.000000)" fill-rule="nonzero">
            <g id="CTA" transform="translate(150.000000, 5190.000000)">
                <g id="Logo" transform="translate(658.000000, 0.000000)">
                    <g id="Item" transform="translate(200.000000, 400.000000)">
                        <g id="slack-new-logo" transform="translate(54.000000, 54.000000)">
                            <path d="M26.340318,-8.8817842e-16 C22.3690175,0.00293518141 19.1549939,3.22576437 19.1579271,7.19706482 C19.1549939,11.1683653 22.3719527,14.3911945 26.3432532,14.3941296 L33.5285793,14.3941296 L33.5285793,7.2 C33.5315124,3.22869955 30.3145536,0.00587036282 26.340318,-8.8817842e-16 C26.3432532,-8.8817842e-16 26.3432532,-8.8817842e-16 26.340318,-8.8817842e-16 M26.340318,19.1960864 L7.18532409,19.1960864 C3.21402364,19.1990216 -0.00293518141,22.4218508 -8.02148709e-06,26.3931512 C-0.00587036282,30.3644517 3.21108846,33.5872809 7.18238891,33.5931512 L26.340318,33.5931512 C30.3116184,33.5902161 33.5285773,30.3673869 33.5256441,26.3960864 C33.5285773,22.4218508 30.3116184,19.1990216 26.340318,19.1960864 Z" id="Shape" fill="#36C5F0"></path>
                            <path d="M71.8415022,26.3931512 C71.8444354,22.4218508 68.6274766,19.1990216 64.6561761,19.1960864 C60.6848757,19.1990216 57.4679168,22.4218508 57.47085,26.3931512 L57.47085,33.5931512 L64.6561761,33.5931512 C68.6274766,33.5902161 71.8444354,30.3673869 71.8415022,26.3931512 Z M52.6835731,26.3931512 L52.6835731,7.19706482 C52.6865063,3.22869955 49.4724827,0.00587036282 45.5011822,0 C41.5298818,0.00293518141 38.312923,3.22576437 38.3158501,7.19706482 L38.3158501,26.3931512 C38.3099878,30.3644517 41.5269466,33.5872809 45.498247,33.5931512 C49.4695475,33.5902161 52.6865063,30.3673869 52.6835731,26.3931512 Z" id="Shape" fill="#2EB67D"></path>
                            <path d="M45.498247,71.9853241 C49.4695475,71.9823889 52.6865063,68.7595597 52.6835731,64.7882593 C52.6865063,60.8169588 49.4695475,57.5941296 45.498247,57.5911945 L38.3129209,57.5911945 L38.3129209,64.7882593 C38.3099878,68.7566245 41.5269466,71.9794537 45.498247,71.9853241 Z M45.498247,52.7863025 L64.6561761,52.7863025 C68.6274766,52.7833673 71.8444354,49.5605381 71.8415082,45.5892377 C71.8473706,41.6179372 68.6304117,38.395108 64.6591113,38.3892377 L45.5011822,38.3892377 C41.5298818,38.3921728 38.312923,41.615002 38.3158561,45.5863025 C38.312923,49.5605381 41.5269466,52.7833673 45.498247,52.7863025 L45.498247,52.7863025 Z" id="Shape" fill="#ECB22E"></path>
                            <path d="M-2.00696648e-06,45.5892377 C-0.00293518141,49.5605381 3.21402364,52.7833673 7.18532409,52.7863025 C11.1566245,52.7833673 14.3735834,49.5605381 14.3706502,45.5892377 L14.3706502,38.3921728 L7.18532409,38.3921728 C3.21402364,38.395108 -0.00293518141,41.6179372 -2.00696648e-06,45.5892377 Z M19.157921,45.5892377 L19.157921,64.7853241 C19.1520587,68.7566245 22.3690175,71.9794537 26.340318,71.9853241 C30.3116184,71.9823889 33.5285773,68.7595597 33.5256501,64.7882593 L33.5256501,45.595108 C33.5315124,41.6238076 30.3145536,38.4009784 26.3432532,38.395108 C22.3690175,38.395108 19.1549939,41.6179372 19.157921,45.5892377 C19.157921,45.5892377 19.157921,45.5921728 19.157921,45.5892377" id="Shape" fill="#E01E5A"></path>
                        </g>
                    </g>
                </g>
            </g>
        </g>
    </g>
</svg>