<?xml version="1.0" encoding="UTF-8"?>
<svg width="93px" height="37px" viewBox="0 0 93 37" version="1.1" xmlns="http://www.w3.org/2000/svg" xmlns:xlink="http://www.w3.org/1999/xlink">
    <title>wix-com-website-logo</title>
    <g id="[NEW-UPDATE-Landing]" stroke="none" stroke-width="1" fill="none" fill-rule="evenodd">
        <g id="60---SaaS-04" transform="translate(-1052.000000, -5262.000000)" fill-rule="nonzero">
            <g id="CTA" transform="translate(150.000000, 5190.000000)">
                <g id="Logo" transform="translate(658.000000, 0.000000)">
                    <g id="Item" transform="translate(200.000000, 0.000000)">
                        <g id="wix-com-website-logo" transform="translate(44.000000, 72.000000)">
                            <path d="M53.337,1.192 C51.485,2.171 50.824,3.785 50.824,8.256 C50.824,8.256 51.75,7.356 53.126,6.854 C54.131,6.51 54.978,5.954 55.48,5.584 C57.041,4.446 57.253,2.99 57.253,0.53 C57.253,0.53 54.713,0.45 53.337,1.192 Z" id="Path" fill="#FFCB29"></path>
                            <path d="M42.49,2.25 C41.008,3.573 40.558,5.663 40.558,5.663 L35.584,24.766 L31.483,9.103 C31.086,7.463 30.345,5.373 29.207,3.996 C27.779,2.25 24.842,2.144 24.524,2.144 C24.206,2.144 21.244,2.25 19.788,4.023 C18.65,5.425 17.91,7.489 17.513,9.129 L13.412,24.792 L8.49,5.663 C8.49,5.663 8.067,3.546 6.56,2.25 C4.125,0.107 0.5,0.557 0.5,0.557 L9.946,36.38 C9.946,36.38 13.068,36.618 14.629,35.798 C16.666,34.766 17.671,33.946 18.915,29.051 C20.026,24.712 23.122,11.959 23.413,11.033 C23.545,10.583 23.73,9.499 24.524,9.499 C25.344,9.499 25.504,10.557 25.635,11.033 C25.926,11.933 28.995,24.713 30.133,29.051 C31.377,33.92 32.356,34.713 34.42,35.798 C35.98,36.618 39.103,36.38 39.103,36.38 L48.548,0.583 C48.548,0.583 44.924,0.133 42.49,2.25 Z M57.253,6.404 C57.253,6.404 56.671,7.304 55.322,8.097 C54.449,8.574 53.628,8.917 52.729,9.341 C51.247,10.055 50.824,10.875 50.824,12.092 L50.824,36.382 C50.824,36.382 53.231,36.672 54.766,35.905 C56.776,34.873 57.226,33.895 57.253,29.423 L57.253,6.404 Z M80.854,18.548 L92.84,0.662 C92.84,0.662 87.786,-0.211 85.273,2.092 C83.659,3.546 81.859,6.166 81.859,6.166 L77.467,12.569 C77.229,12.886 76.991,13.257 76.541,13.257 C76.091,13.257 75.801,12.913 75.615,12.569 L71.17,6.192 C71.17,6.192 69.398,3.572 67.757,2.118 C65.27,-0.184 60.19,0.688 60.19,0.688 L72.202,18.522 L60.19,36.328 C60.19,36.328 65.482,37.016 67.969,34.714 C69.583,33.259 71.144,30.851 71.144,30.851 L75.536,24.475 C75.774,24.157 76.012,23.787 76.462,23.787 C76.912,23.787 77.202,24.131 77.388,24.475 L81.78,30.851 C81.78,30.851 83.42,33.206 85.008,34.714 C87.495,37.016 92.708,36.328 92.708,36.328 L80.854,18.548 Z" id="Shape" fill="#2E3133"></path>
                        </g>
                    </g>
                </g>
            </g>
        </g>
    </g>
</svg>