<svg xmlns="http://www.w3.org/2000/svg" width="237" height="42" viewBox="0 0 237 42">
    <g fill="none" fill-rule="evenodd">
        <g>
            <g>
                <g>
                    <path d="M0 0H237V41.6H0z" transform="translate(-365 -3201) translate(128 3200) translate(237 1)"/>
                    <g fill="#D81F26" fill-rule="nonzero">
                        <path d="M17.534 31.219c-1.872.307-3.744.43-5.74.676l-5.99-17.33v18.067c-1.873.185-3.558.43-5.367.738V.246h4.992L12.23 19.05V.246h5.304v30.973zm10.359-18.805c2.059 0 5.179-.123 7.051-.123v5.162c-2.309 0-5.054 0-7.051.123v7.682c3.057-.185 6.177-.43 9.297-.553v4.978l-14.539 1.106V.246h14.54v5.162h-9.298v7.006zm28.766-6.945H51.23v23.783c-1.747 0-3.556 0-5.241.062V5.469H40.56V.246h16.162c-.063 0-.063 5.223-.063 5.223zm8.549 6.576h7.176v5.162h-7.176v11.738h-5.18V.245h14.665v5.163h-9.485v6.637zm18.034 12.352c2.995.062 5.99.308 8.923.43v5.101c-4.68-.307-9.36-.553-14.165-.676V.246h5.242v24.151zm13.353 5.9c1.685.123 3.432.184 5.18.369V.246h-5.18v30.051zM124.738.246l-6.677 15.732 6.677 17.33c-1.997-.245-3.932-.614-5.928-.921l-3.744-9.587-3.87 8.788c-1.871-.308-3.743-.43-5.615-.676l6.739-15.118L106.205.246h5.616l3.432 8.665 3.681-8.665h5.804z" transform="translate(-365 -3201) translate(128 3200) translate(237 1) translate(56 4)"/>
                    </g>
                </g>
            </g>
        </g>
    </g>
</svg>
