<svg xmlns="http://www.w3.org/2000/svg" width="237" height="43" viewBox="0 0 237 43">
    <g fill="none" fill-rule="evenodd">
        <g>
            <g>
                <path d="M0 0H237V41.6H0z" transform="translate(-128 -3200) translate(128 3200)"/>
                <g fill-rule="nonzero">
                    <g>
                        <path fill="#FAAD13" d="M21.343 2.726C20.774.86 18.783-.144 16.933.43c-1.85.574-2.846 2.582-2.277 4.447l9.106 28.26c.64 1.72 2.49 2.725 4.269 2.223 1.85-.574 2.988-2.51 2.419-4.375 0-.072-9.107-28.26-9.107-28.26" transform="translate(-128 -3200) translate(128 3200) translate(47) translate(4.269 1.434)"/>
                        <path fill="#36B37E" d="M7.257 7.388c-.57-1.865-2.561-2.87-4.411-2.296C.996 5.666 0 7.674.569 9.54L9.676 37.8c.64 1.721 2.49 2.725 4.268 2.223 1.85-.574 2.988-2.51 2.42-4.375 0-.072-9.107-28.26-9.107-28.26" transform="translate(-128 -3200) translate(128 3200) translate(47) translate(4.269 1.434)"/>
                    </g>
                    <path fill="#D81F26" d="M37.137 27.614c1.85-.574 2.846-2.582 2.277-4.447-.57-1.865-2.561-2.87-4.411-2.295L6.901 29.98c-1.707.645-2.703 2.51-2.205 4.303.569 1.865 2.49 3.013 4.34 2.439.142 0 28.101-9.11 28.101-9.11" transform="translate(-128 -3200) translate(128 3200) translate(47)"/>
                    <path fill="#FFF" d="M12.735 35.575c1.85-.574 4.197-1.363 6.687-2.223-.569-1.865-1.351-4.232-2.205-6.742l-6.688 2.223 2.206 6.742" opacity=".2" transform="translate(-128 -3200) translate(128 3200) translate(47)"/>
                    <g>
                        <path fill="#FFF" d="M26.893 25.175c2.56-.86 4.908-1.578 6.687-2.223-.57-1.865-1.352-4.232-2.205-6.742l-6.688 2.223 2.206 6.742" opacity=".2" transform="translate(-128 -3200) translate(128 3200) translate(47) translate(0 5.738)"/>
                        <path fill="#00B8D9" d="M32.513 7.603c1.85-.574 2.846-2.582 2.277-4.447C34.22 1.29 32.228.286 30.379.86L2.348 10.04c-1.708.646-2.704 2.51-2.206 4.304.57 1.936 2.49 3.084 4.34 2.438.071 0 28.03-9.18 28.03-9.18" transform="translate(-128 -3200) translate(128 3200) translate(47) translate(0 5.738)"/>
                    </g>
                    <path fill="#FFF" d="M8.182 21.302c1.85-.574 4.197-1.363 6.687-2.223-.854-2.582-1.565-4.95-2.205-6.742L5.976 14.56l2.206 6.742M22.268 16.712c2.561-.861 4.91-1.578 6.688-2.224-.854-2.582-1.565-4.949-2.206-6.742L20.063 9.97l2.205 6.742" opacity=".2" transform="translate(-128 -3200) translate(128 3200) translate(47)"/>
                    <path fill="#183B56" d="M65.524 11.62c1.21.573 1.352.932.356 2.797-.996 1.936-1.21 2.008-2.49 1.506-1.566-.646-3.487-1.148-4.767-1.148-2.063 0-3.415.717-3.415 1.865 0 3.73 11.881 1.721 11.881 9.754 0 4.017-3.415 6.67-8.537 6.67-2.704 0-6.048-.932-8.324-2.08-1.138-.573-1.21-.932-.214-2.868.854-1.65 1.139-1.865 2.348-1.363 1.992.86 4.411 1.506 6.119 1.506 1.92 0 3.13-.789 3.13-1.936 0-3.658-12.095-1.937-12.095-9.683 0-4.088 3.415-6.886 8.467-6.886 2.418.216 5.478.933 7.54 1.865M75.128 2.152v29.837c0 .43-.498.932-1.138.932h-3.13c-.712 0-1.139-.502-1.139-.932V2.152c0-1.506.427-1.578 2.704-1.578 2.561-.072 2.703.143 2.703 1.578M82.883 26.323c0 1.506 1.28 2.51 3.202 2.51 2.347 0 4.482-1.147 5.691-3.084v-2.008c-1.21-.502-2.775-.718-4.126-.718-2.846 0-4.767 1.435-4.767 3.3zm14.3-7.46v12.84c0 .716-.498 1.147-1.138 1.147h-3.06c-.71 0-1.209-.502-1.138-1.22l.071-1.362c-1.636 1.864-4.055 2.869-6.474 2.869-4.624 0-7.754-2.726-7.754-6.743 0-4.303 3.486-7.172 8.821-7.172 1.992 0 3.842.359 5.336 1.004V18.72c0-2.367-1.85-3.801-4.98-3.801-1.494 0-3.272.573-4.695 1.434-1.139.646-1.352.574-2.562-1.22-1.138-1.792-1.138-2.15 0-2.868 2.135-1.435 5.123-2.295 7.826-2.295 5.976 0 9.747 3.299 9.747 8.893z" transform="translate(-128 -3200) translate(128 3200) translate(47)"/>
                    <g fill="#183B56">
                        <path d="M18.71 11.691c1.14.646 1.14 1.004-.07 2.94-1.139 1.794-1.352 1.937-2.633 1.292-.924-.502-2.49-.933-3.699-.933-3.913 0-6.474 2.582-6.474 6.527 0 4.089 2.561 6.814 6.474 6.814 1.352 0 3.06-.502 4.126-1.148 1.139-.645 1.352-.645 2.562 1.148 1.067 1.65 1.067 2.008.07 2.726-1.707 1.219-4.481 2.151-6.9 2.151C4.98 33.208.142 28.546.142 21.59S4.98 10.041 12.237 10.041c2.276-.071 4.838.646 6.474 1.65M42.26 30.052c.925 1.148.569 1.578-1.708 2.367-2.276.861-2.632.79-3.415-.287l-6.474-8.678-2.917 2.797v5.666c0 .43-.498.933-1.138.933h-3.13c-.712 0-1.139-.502-1.139-.933V2.152c0-1.506.427-1.578 2.704-1.578 2.632 0 2.703.215 2.703 1.578v16.927l8.822-8.536c.996-.932 1.494-.86 3.273.287 1.92 1.22 2.063 1.578 1.138 2.51l-6.545 6.456 7.826 10.256" transform="translate(-128 -3200) translate(128 3200) translate(47) translate(99.602)"/>
                    </g>
                </g>
            </g>
        </g>
    </g>
</svg>
