<?xml version="1.0" encoding="UTF-8"?>
<svg width="136px" height="143px" viewBox="0 0 136 143" version="1.1" xmlns="http://www.w3.org/2000/svg" xmlns:xlink="http://www.w3.org/1999/xlink">
    <title>1B7A3771-5C1A-41E9-8E1C-3A002DA1D8DA</title>
    <g id="[NEW-UPDATE-Landing]" stroke="none" stroke-width="1" fill="none" fill-rule="evenodd">
        <g id="58---SaaS-02" transform="translate(-256.000000, -4418.000000)">
            <g id="Info" transform="translate(241.000000, 4418.000000)">
                <g id="Icon" transform="translate(15.000000, 0.000000)">
                    <path d="M120.021056,22.1282221 C130.443555,35.2136344 135.602165,52.2454409 135.286332,73.950609 C134.970499,95.5519246 129.180222,121.722749 111.493557,134.185047 C93.8068916,146.647344 64.223839,145.401114 40.8521746,133.561932 C17.4805103,121.618897 0.21495642,99.1867614 0.00440088559,78.4162656 C-0.311432417,57.7496223 16.4277326,27.8484709 32.3246755,13.4129764 C48.1163406,-0.918665698 63.1710613,0.31920153 78.5416154,0.00764409378 C93.8068916,-0.303913343 109.598557,8.93895727 120.021056,22.1282221 Z" id="Base" fill="#B3BAC5" opacity="0.100000001" transform="translate(67.650001, 71.500002) scale(1, -1) translate(-67.650001, -71.500002) "></path>
                    <g id="Item" transform="translate(58.368751, 32.106251)">
                        <circle id="Shape" fill="#FFFFFF" cx="12.0312503" cy="8.59375019" r="6.87500015"></circle>
                        <path d="M10.3125002,18.9062504 L13.7500003,18.9062504 C18.4961975,18.9062504 22.3437505,22.7538034 22.3437505,27.5000006 L22.3437505,32.6562507 C22.3437505,34.5547296 20.8047293,36.0937508 18.9062504,36.0937508 L5.15625011,36.0937508 C3.25777124,36.0937508 1.71875004,34.5547296 1.71875004,32.6562507 L1.71875004,27.5000006 C1.71875004,22.7538034 5.56630305,18.9062504 10.3125002,18.9062504 Z" id="Shape" fill="#FFC200"></path>
                        <path d="M12.0312503,17.1875004 C16.7774474,17.1875004 20.6250004,13.3399474 20.6250004,8.59375019 C20.6250004,3.84755301 16.7774474,0 12.0312503,0 C7.28505309,0 3.43750007,3.84755301 3.43750007,8.59375019 C3.43750007,13.3399474 7.28505309,17.1875004 12.0312503,17.1875004 Z M12.0312503,13.7500003 C9.18353196,13.7500003 6.87500015,11.4414685 6.87500015,8.59375019 C6.87500015,5.74603188 9.18353196,3.43750007 12.0312503,3.43750007 C14.8789686,3.43750007 17.1875004,5.74603188 17.1875004,8.59375019 C17.1875004,11.4414685 14.8789686,13.7500003 12.0312503,13.7500003 Z" id="Shape" fill="#154E84" fill-rule="nonzero"></path>
                        <path d="M10.3125002,17.1875004 L13.7500003,17.1875004 C19.4454369,17.1875004 24.0625005,21.804564 24.0625005,27.5000006 L24.0625005,32.6562507 C24.0625005,35.503969 21.7539687,37.8125008 18.9062504,37.8125008 L5.15625011,37.8125008 C2.30853181,37.8125008 0,35.503969 0,32.6562507 L0,27.5000006 C0,21.804564 4.61706362,17.1875004 10.3125002,17.1875004 Z M10.3125002,20.6250004 C6.51554249,20.6250004 3.43750007,23.7030429 3.43750007,27.5000006 L3.43750007,32.6562507 C3.43750007,33.6054901 4.20701068,34.3750007 5.15625011,34.3750007 L18.9062504,34.3750007 C19.8554898,34.3750007 20.6250004,33.6054901 20.6250004,32.6562507 L20.6250004,27.5000006 C20.6250004,23.7030429 17.546958,20.6250004 13.7500003,20.6250004 L10.3125002,20.6250004 Z" id="Shape" fill="#154E84" fill-rule="nonzero"></path>
                    </g>
                    <g id="Item" transform="translate(82.431252, 63.043751)">
                        <circle id="Shape" fill="#FFFFFF" cx="12.0312503" cy="8.59375019" r="6.87500015"></circle>
                        <path d="M10.3125002,18.9062504 L13.7500003,18.9062504 C18.4961975,18.9062504 22.3437505,22.7538034 22.3437505,27.5000006 L22.3437505,32.6562507 C22.3437505,34.5547296 20.8047293,36.0937508 18.9062504,36.0937508 L5.15625011,36.0937508 C3.25777124,36.0937508 1.71875004,34.5547296 1.71875004,32.6562507 L1.71875004,27.5000006 C1.71875004,22.7538034 5.56630305,18.9062504 10.3125002,18.9062504 Z" id="Shape" fill="#52ABE2"></path>
                        <path d="M12.0312503,17.1875004 C16.7774474,17.1875004 20.6250004,13.3399474 20.6250004,8.59375019 C20.6250004,3.84755301 16.7774474,0 12.0312503,0 C7.28505309,0 3.43750007,3.84755301 3.43750007,8.59375019 C3.43750007,13.3399474 7.28505309,17.1875004 12.0312503,17.1875004 Z M12.0312503,13.7500003 C9.18353196,13.7500003 6.87500015,11.4414685 6.87500015,8.59375019 C6.87500015,5.74603188 9.18353196,3.43750007 12.0312503,3.43750007 C14.8789686,3.43750007 17.1875004,5.74603188 17.1875004,8.59375019 C17.1875004,11.4414685 14.8789686,13.7500003 12.0312503,13.7500003 Z" id="Shape" fill="#154E84" fill-rule="nonzero"></path>
                        <path d="M10.3125002,17.1875004 L13.7500003,17.1875004 C19.4454369,17.1875004 24.0625005,21.804564 24.0625005,27.5000006 L24.0625005,32.6562507 C24.0625005,35.503969 21.7539687,37.8125008 18.9062504,37.8125008 L5.15625011,37.8125008 C2.30853181,37.8125008 0,35.503969 0,32.6562507 L0,27.5000006 C0,21.804564 4.61706362,17.1875004 10.3125002,17.1875004 Z M10.3125002,20.6250004 C6.51554249,20.6250004 3.43750007,23.7030429 3.43750007,27.5000006 L3.43750007,32.6562507 C3.43750007,33.6054901 4.20701068,34.3750007 5.15625011,34.3750007 L18.9062504,34.3750007 C19.8554898,34.3750007 20.6250004,33.6054901 20.6250004,32.6562507 L20.6250004,27.5000006 C20.6250004,23.7030429 17.546958,20.6250004 13.7500003,20.6250004 L10.3125002,20.6250004 Z" id="Shape" fill="#154E84" fill-rule="nonzero"></path>
                    </g>
                    <g id="Item" transform="translate(34.306251, 63.043751)">
                        <circle id="Shape" fill="#FFFFFF" cx="12.0312503" cy="8.59375019" r="6.87500015"></circle>
                        <path d="M10.3125002,18.9062504 L13.7500003,18.9062504 C18.4961975,18.9062504 22.3437505,22.7538034 22.3437505,27.5000006 L22.3437505,32.6562507 C22.3437505,34.5547296 20.8047293,36.0937508 18.9062504,36.0937508 L5.15625011,36.0937508 C3.25777124,36.0937508 1.71875004,34.5547296 1.71875004,32.6562507 L1.71875004,27.5000006 C1.71875004,22.7538034 5.56630305,18.9062504 10.3125002,18.9062504 Z" id="Shape" fill="#52ABE2"></path>
                        <path d="M12.0312503,17.1875004 C16.7774474,17.1875004 20.6250004,13.3399474 20.6250004,8.59375019 C20.6250004,3.84755301 16.7774474,0 12.0312503,0 C7.28505309,0 3.43750007,3.84755301 3.43750007,8.59375019 C3.43750007,13.3399474 7.28505309,17.1875004 12.0312503,17.1875004 Z M12.0312503,13.7500003 C9.18353196,13.7500003 6.87500015,11.4414685 6.87500015,8.59375019 C6.87500015,5.74603188 9.18353196,3.43750007 12.0312503,3.43750007 C14.8789686,3.43750007 17.1875004,5.74603188 17.1875004,8.59375019 C17.1875004,11.4414685 14.8789686,13.7500003 12.0312503,13.7500003 Z" id="Shape" fill="#154E84" fill-rule="nonzero"></path>
                        <path d="M10.3125002,17.1875004 L13.7500003,17.1875004 C19.4454369,17.1875004 24.0625005,21.804564 24.0625005,27.5000006 L24.0625005,32.6562507 C24.0625005,35.503969 21.7539687,37.8125008 18.9062504,37.8125008 L5.15625011,37.8125008 C2.30853181,37.8125008 0,35.503969 0,32.6562507 L0,27.5000006 C0,21.804564 4.61706362,17.1875004 10.3125002,17.1875004 Z M10.3125002,20.6250004 C6.51554249,20.6250004 3.43750007,23.7030429 3.43750007,27.5000006 L3.43750007,32.6562507 C3.43750007,33.6054901 4.20701068,34.3750007 5.15625011,34.3750007 L18.9062504,34.3750007 C19.8554898,34.3750007 20.6250004,33.6054901 20.6250004,32.6562507 L20.6250004,27.5000006 C20.6250004,23.7030429 17.546958,20.6250004 13.7500003,20.6250004 L10.3125002,20.6250004 Z" id="Shape" fill="#154E84" fill-rule="nonzero"></path>
                    </g>
                </g>
            </g>
        </g>
    </g>
</svg>