<?xml version="1.0" encoding="UTF-8"?>
<svg width="136px" height="142px" viewBox="0 0 136 142" version="1.1" xmlns="http://www.w3.org/2000/svg" xmlns:xlink="http://www.w3.org/1999/xlink">
    <title>5BE4C2A0-1A07-4C26-A7CF-199ED0E2873F</title>
    <g id="[NEW-UPDATE-Landing]" stroke="none" stroke-width="1" fill="none" fill-rule="evenodd">
        <g id="58---SaaS-02" transform="translate(-652.000000, -4419.000000)">
            <g id="Info" transform="translate(241.000000, 4418.000000)">
                <g id="Icon" transform="translate(367.000000, 1.000000)">
                    <g transform="translate(44.000000, 0.000000)">
                        <path d="M135.286332,72.034008 C134.970499,93.6353236 129.180222,119.806148 111.493557,132.268446 C93.8068916,144.730743 64.223839,143.484513 40.8521746,131.645331 C17.4805103,119.702296 0.21495642,97.2701604 0.00440088558,76.4996646 C-0.311432417,55.8330213 16.4277326,25.9318699 32.3246755,11.4963754 C48.1163406,-2.8352667 58.1916149,0.291043136 84.1500018,0.283399043 C110.108389,0.275754949 135.602165,50.3288399 135.286332,72.034008 Z" id="Base" fill="#B3BAC5" opacity="0.100000001" transform="translate(67.644618, 70.541701) scale(1, -1) translate(-67.644618, -70.541701) "></path>
                        <g id="Item" transform="translate(31.900001, 35.200001)" fill-rule="nonzero">
                            <path d="M65.3125014,36.0937508 L65.3125014,55.0000012 C65.3125014,59.7461984 61.4649484,63.5937508 56.7187512,63.5937508 L36.0937508,63.5937508 L36.0937508,67.0312515 L56.7187512,67.0312515 C63.3634273,67.0312515 68.7500015,61.6446772 68.7500015,55.0000012 L68.7500015,36.0937508 L65.3125014,36.0937508 Z" id="Shape" fill="#154E84"></path>
                            <path d="M68.7500015,49.8437511 L68.7500015,32.6562507 C68.7500015,14.6207015 54.1293,0 36.0937508,0 C18.0582015,0 3.43750007,14.6207015 3.43750007,32.6562507 L3.43750007,49.8437511 L13.7500003,49.8437511 L13.7500003,32.6562507 C13.7500003,20.3161381 23.7536381,10.3125002 36.0937508,10.3125002 C48.4338634,10.3125002 58.4375001,20.3161381 58.4375001,32.6562507 L58.4375001,49.8437511 L68.7500015,49.8437511 Z" id="Shape" fill="#154E84"></path>
                            <path d="M65.3125014,46.406251 L61.8750001,46.406251 L61.8750001,32.6562507 C61.8750001,18.4176592 50.3323423,6.87500015 36.0937508,6.87500015 C21.8551593,6.87500015 10.3125002,18.4176592 10.3125002,32.6562507 L10.3125002,46.406251 L6.87500015,46.406251 L6.87500015,32.6562507 C6.87500015,16.5191803 19.9566804,3.43750007 36.0937508,3.43750007 C52.2308212,3.43750007 65.3125014,16.5191803 65.3125014,32.6562507 L65.3125014,46.406251 Z" id="Shape" fill="#FFFFFF"></path>
                            <path d="M61.8750013,32.6562507 C61.8750013,31.5380815 62.925826,30.7176224 64.0106095,30.9888182 L70.8856096,32.7075683 C71.6507404,32.898851 72.1875016,33.586322 72.1875016,34.3750007 L72.1875016,48.125001 C72.1875016,48.9136798 71.6507404,49.6011508 70.8856096,49.7924335 L64.0106095,51.5111835 C62.925826,51.7823794 61.8750013,50.9619203 61.8750013,49.8437511 L61.8750013,32.6562507 Z" id="Shape" fill="#154E84"></path>
                            <polygon id="Shape" fill="#FFC200" points="65.3125014 34.8575852 65.3125014 47.6424166 68.7500015 46.7830416 68.7500015 35.7169602"></polygon>
                            <path d="M12.0312503,27.5000006 L15.4687503,27.5000006 C18.3164686,27.5000006 20.6250004,29.8085324 20.6250004,32.6562507 L20.6250004,49.8437511 C20.6250004,52.6914694 18.3164686,55.0000006 15.4687503,55.0000006 L12.0312503,55.0000006 C9.18353196,55.0000006 6.87500015,52.6914694 6.87500015,49.8437511 L6.87500015,32.6562507 C6.87500015,29.8085324 9.18353196,27.5000006 12.0312503,27.5000006 Z" id="Shape" fill="#154E84"></path>
                            <path d="M12.0312503,30.9375007 C11.0820108,30.9375007 10.3125002,31.7070113 10.3125002,32.6562507 L10.3125002,49.8437511 C10.3125002,50.7929905 11.0820108,51.5625011 12.0312503,51.5625011 L15.4687503,51.5625011 C16.4179898,51.5625011 17.1875004,50.7929905 17.1875004,49.8437511 L17.1875004,32.6562507 C17.1875004,31.7070113 16.4179898,30.9375007 15.4687503,30.9375007 L12.0312503,30.9375007 Z" id="Shape" fill="#52ABE2"></path>
                            <path d="M0,32.6562507 C0,31.5380815 1.05082469,30.7176224 2.13560815,30.9888182 L9.0106083,32.7075683 C9.7757391,32.898851 10.3125002,33.586322 10.3125002,34.3750007 L10.3125002,48.125001 C10.3125002,48.9136798 9.7757391,49.6011508 9.0106083,49.7924335 L2.13560815,51.5111835 C1.05082469,51.7823794 0,50.9619203 0,49.8437511 L0,32.6562507 Z" id="Shape" fill="#154E84" transform="translate(5.156250, 41.250001) scale(-1, 1) translate(-5.156250, -41.250001) "></path>
                            <polygon id="Shape" fill="#FFC200" transform="translate(5.156250, 41.250001) scale(-1, 1) translate(-5.156250, -41.250001) " points="3.43750007 47.6424166 6.87500015 46.7830416 6.87500015 35.7169602 3.43750007 34.8575852"></polygon>
                            <path d="M56.7187512,27.5000006 L60.1562513,27.5000006 C63.0039696,27.5000006 65.3125014,29.8085324 65.3125014,32.6562507 L65.3125014,49.8437511 C65.3125014,52.6914694 63.0039696,55.0000006 60.1562513,55.0000006 L56.7187512,55.0000006 C53.8710329,55.0000006 51.5625011,52.6914694 51.5625011,49.8437511 L51.5625011,32.6562507 C51.5625011,29.8085324 53.8710329,27.5000006 56.7187512,27.5000006 Z" id="Shape" fill="#154E84" transform="translate(58.437501, 41.250001) scale(-1, 1) translate(-58.437501, -41.250001) "></path>
                            <path d="M56.7187512,30.9375007 C55.7695118,30.9375007 55.0000012,31.7070113 55.0000012,32.6562507 L55.0000012,49.8437511 C55.0000012,50.7929905 55.7695118,51.5625011 56.7187512,51.5625011 L60.1562513,51.5625011 C61.1054907,51.5625011 61.8750013,50.7929905 61.8750013,49.8437511 L61.8750013,32.6562507 C61.8750013,31.7070113 61.1054907,30.9375007 60.1562513,30.9375007 L56.7187512,30.9375007 Z" id="Shape" fill="#52ABE2" transform="translate(58.437501, 41.250001) scale(-1, 1) translate(-58.437501, -41.250001) "></path>
                            <path d="M34.3750007,58.4375013 L41.2500009,58.4375013 C45.0469586,58.4375013 48.125001,61.5155437 48.125001,65.3125014 C48.125001,69.1094592 45.0469586,72.1875016 41.2500009,72.1875016 L34.3750007,72.1875016 C30.578043,72.1875016 27.5000006,69.1094592 27.5000006,65.3125014 C27.5000006,61.5155437 30.578043,58.4375013 34.3750007,58.4375013 Z" id="Shape" fill="#154E84"></path>
                            <path d="M34.3750007,61.8750013 C32.4765219,61.8750013 30.9375007,63.4140225 30.9375007,65.3125014 C30.9375007,67.2109803 32.4765219,68.7500015 34.3750007,68.7500015 L41.2500009,68.7500015 C43.1484798,68.7500015 44.687501,67.2109803 44.687501,65.3125014 C44.687501,63.4140225 43.1484798,61.8750013 41.2500009,61.8750013 L34.3750007,61.8750013 Z" id="Shape" fill="#FFFFFF"></path>
                        </g>
                    </g>
                </g>
            </g>
        </g>
    </g>
</svg>