<?xml version="1.0" encoding="UTF-8"?>
<svg width="137px" height="137px" viewBox="0 0 137 137" version="1.1" xmlns="http://www.w3.org/2000/svg" xmlns:xlink="http://www.w3.org/1999/xlink">
    <title>DE02D7ED-DDCD-49BC-99A2-D86568A61A06</title>
    <g id="[NEW-UPDATE-Landing]" stroke="none" stroke-width="1" fill="none" fill-rule="evenodd">
        <g id="58---SaaS-02" transform="translate(-1047.000000, -4421.000000)">
            <g id="Info" transform="translate(241.000000, 4418.000000)">
                <g id="Icon" transform="translate(788.500000, 3.000000)">
                    <g transform="translate(18.500000, 0.000000)">
                        <path d="M134.191554,66.7671998 C133.874472,88.3685154 129.184195,114.53934 111.49753,127.001638 C93.8108654,139.463935 64.2278128,139.317705 40.8561484,127.478523 C17.484484,115.535488 0.218930187,92.0033521 0.00837465176,71.2328564 C-0.30745865,50.5662131 6.36412016,19.4629765 40.5894461,3.30000007 C74.8147721,-12.8629764 134.506139,45.0620317 134.191554,66.7671998 Z" id="Base-Copy-2" fill="#B3BAC5" opacity="0.100000001" transform="translate(67.094724, 68.422432) scale(-1, 1) translate(-67.094724, -68.422432) "></path>
                        <g id="Item" transform="translate(33.306250, 35.406251)" fill-rule="nonzero">
                            <path d="M36.0937513,72.1875016 C56.0277794,72.1875016 72.1875021,56.0277789 72.1875021,36.0937508 C72.1875021,16.1597227 56.0277794,0 36.0937513,0 C16.1597232,0 4.96322365e-07,16.1597227 4.96322365e-07,36.0937508 C4.96322365e-07,56.0277789 16.1597232,72.1875016 36.0937513,72.1875016 Z" id="Shape" fill="#154E84"></path>
                            <path d="M36.0937513,68.7500015 C18.058202,68.7500015 3.43750057,54.1293 3.43750057,36.0937508 C3.43750057,18.0582015 18.058202,3.43750007 36.0937513,3.43750007 C54.1293005,3.43750007 68.750002,18.0582015 68.750002,36.0937508 C68.750002,54.1293 54.1293005,68.7500015 36.0937513,68.7500015 Z" id="Shape" fill="#FFFFFF"></path>
                            <path d="M49.7191155,4.05254786 C50.2182073,3.45675379 51.0550174,3.27002952 51.760044,3.59713883 C60.1094307,7.47098092 66.5801312,14.7009093 70.0025502,23.6786961 C70.5131493,25.0181143 69.2562958,26.3572415 67.8872336,25.9324817 C66.2414062,25.4218537 64.9304739,24.7236525 62.5287681,23.2308709 C61.0589538,22.317307 60.7116215,22.1065615 60.0651135,21.7532194 C57.1036682,20.1346728 55.2525043,20.0856171 52.9836839,22.0040983 C48.9507121,25.4143196 45.9099517,26.1319833 44.897555,22.7446922 C44.4143814,21.1280833 44.7054593,19.1454825 45.7200414,14.7652065 C45.7701533,14.5491283 45.7701533,14.5491283 45.8202498,14.3338402 C46.3787339,11.9348011 46.5498219,11.1540452 46.7089752,10.1741119 C47.0619843,8.00057679 48.1217325,5.95943455 49.7191155,4.05254786 Z" id="Shape" fill="#154E84"></path>
                            <path d="M50.1020161,10.7251838 C49.9251279,11.8143137 49.7475759,12.6245682 49.1682275,15.1132324 C49.1184223,15.3272686 49.1184223,15.3272686 49.0688821,15.5408822 C48.384484,18.4956481 48.0771021,20.2908228 48.1182455,21.2556404 C48.718794,20.9678045 49.6146494,20.3512035 50.7641273,19.379222 C54.2727294,16.4123999 57.6231434,16.5011855 61.7136892,18.73683 C62.4403658,19.1339874 62.8090445,19.357685 64.343392,20.3113595 C64.5080912,20.4137284 64.6667824,20.5117796 64.819991,20.6057523 C61.7136901,14.8727132 57.1299933,10.2341003 51.5472185,7.32295737 C50.780893,8.44887476 50.2866361,9.58844812 50.1020161,10.7251838 Z" id="Shape" fill="#52ABE2"></path>
                            <path d="M31.031444,0.372761309 C32.0542597,0.226975386 32.9736368,1.01005367 32.9924383,2.04303582 C33.0270347,3.94381257 32.6268888,5.29992169 31.4933511,7.89734238 C29.9825303,11.3592804 30.3807813,13.2805339 32.6191222,15.9202247 C33.1681913,16.5677455 35.626793,19.1641796 36.1930284,19.8054552 C36.9368441,20.647845 37.5838225,21.4493767 38.1805539,22.2851451 C40.9143373,26.11402 39.3127079,29.9833528 35.1718981,31.6198704 C31.4575946,33.0878255 26.7449112,32.4230321 23.6223202,29.6205948 C18.9600018,25.4362956 16.3786527,27.1621809 17.8769255,34.752019 C18.9652295,40.2650682 17.080245,43.4749518 12.8115009,42.9083964 C9.83880554,42.513855 5.78351581,40.1292961 1.35598921,36.3993578 C1.06493664,36.1541626 0.783446881,35.8974081 0.51158889,35.6291723 C0.175722684,35.2977813 -0.00913895751,34.8428883 -4.4160232e-13,34.371151 C0.34753881,17.1070577 13.5727983,2.86121024 31.031444,0.372761309 Z" id="Shape" fill="#154E84"></path>
                            <path d="M3.46189087,33.6775233 C3.49797589,33.7087219 3.53425376,33.7396878 3.57072515,33.7704129 C7.53338068,37.1087238 11.1168255,39.2158322 13.2637661,39.500778 C14.7389354,39.6965651 15.1956422,38.9188529 14.5045069,35.4177517 C12.3977994,24.7457507 18.6668174,20.5542969 25.9183109,27.0623075 C28.0320934,28.9593676 31.3625224,29.4291738 33.9084357,28.4229861 C36.1194102,27.5491718 36.7050602,26.1343158 35.3829555,24.282606 C34.8605631,23.550955 34.2864212,22.8396594 33.6162662,22.0806922 C33.1126075,21.5102862 30.621604,18.879634 29.9973128,18.1434031 C26.9559024,14.556647 26.2734273,11.2642315 28.3427993,6.52241333 C28.7708148,5.54164629 29.0642161,4.80505203 29.2552013,4.1752908 C14.8211804,7.22480748 4.10924564,19.2221227 3.46189087,33.6775233 Z" id="Shape" fill="#52ABE2"></path>
                            <path d="M34.2782515,72.129644 L32.4826459,72.0284075 L32.665121,70.2392313 C33.0269002,66.6919703 34.7161954,64.3671525 37.6581672,63.6894548 C42.1950212,62.644368 43.7795925,60.7256424 42.4969567,57.4904443 C41.3316688,54.5512332 41.0399783,51.5907615 41.9825741,49.6012871 C43.2990273,46.8227369 46.3603717,46.5072226 50.1866489,48.5319445 C57.7805053,52.5503273 57.6754677,52.51723 59.2077337,50.9258911 C59.8675132,50.2406754 60.5703183,49.1529792 61.3321062,47.594757 C61.9798865,46.2697349 63.7482848,42.1921892 63.9525222,41.7566843 C65.6737587,38.0864111 67.3665174,36.3245089 70.3385343,36.0986907 L72.2629654,35.9524697 L72.1861398,37.8809182 C71.4239841,57.0122764 55.6107397,72.1875016 36.3359819,72.1875016 C35.6476717,72.1875016 34.9615808,72.1681702 34.2782515,72.129644 Z" id="Shape" fill="#154E84"></path>
                            <path d="M68.4931802,40.7370837 C68.0375404,41.3084792 67.5821616,42.1129876 67.0647779,43.2162291 C66.8940864,43.5802025 65.1105482,47.6926576 64.4203101,49.1045263 C63.5143426,50.9576651 62.6273992,52.3303429 61.6839389,53.310176 C59.8361051,55.2292486 57.7385513,55.6787569 55.2591985,54.8975128 C54.3444975,54.6092905 53.3927373,54.173484 52.0952319,53.4834174 C51.661464,53.2527219 49.3098591,51.9570871 48.5788768,51.5702788 C46.2671598,50.3470052 45.3902439,50.4373836 45.0890442,51.0731059 C44.6407587,52.0192724 44.8441805,54.0838737 45.6924782,56.2235389 C47.898593,61.7880322 44.767603,65.579285 38.4298041,67.0392284 C37.5242704,67.2478225 36.8864263,67.7765854 36.4944009,68.7496236 C52.8352316,68.6716534 66.387347,56.5367257 68.4931802,40.7370837 Z" id="Shape" fill="#FFC200"></path>
                        </g>
                    </g>
                </g>
            </g>
        </g>
    </g>
</svg>