<?xml version="1.0" encoding="UTF-8"?>
<svg width="36px" height="36px" viewBox="0 0 36 36" version="1.1" xmlns="http://www.w3.org/2000/svg" xmlns:xlink="http://www.w3.org/1999/xlink">
    <title>iconspace_Bill_25px</title>
    <g id="[NEW-UPDATE-Landing]" stroke="none" stroke-width="1" fill="none" fill-rule="evenodd">
        <g id="57---SaaS-01" transform="translate(-178.000000, -3605.000000)">
            <g id="Section" transform="translate(150.000000, 3401.000000)">
                <g id="Item" transform="translate(0.000000, 176.000000)">
                    <g id="iconspace_Bill_25px" transform="translate(28.000000, 28.000000)">
                        <polygon id="path" points="0 0 36 0 36 36 0 36"></polygon>
                        <path d="M28.8,3.60065516 L28.8,25.9206552 L29.52,25.9206552 C31.5082251,25.9206552 33.12,27.5324301 33.12,29.5206552 C33.12,31.5088803 31.5082251,33.1206552 29.52,33.1206552 L9.36,33.1206552 C6.57648486,33.1206552 4.32,30.8641703 4.32,28.0806552 L4.32,3.60065516 C4.32,3.09915066 4.81988819,2.75126859 5.29015145,2.92550758 L10.9006069,5.00425837 L16.3017159,2.9285768 C16.4654587,2.86564938 16.6465421,2.86466465 16.8109595,2.92580754 L22.3546297,4.98736465 L27.8262569,2.92684921 C28.2971092,2.74953481 28.8,3.09752274 28.8,3.60065516 Z M29.52,27.3606552 L12.2883728,27.3606552 C12.7321185,28.0784397 12.96,28.8071118 12.96,29.5456161 C12.96,30.2737768 12.7385059,30.9860699 12.3073763,31.6806552 L29.52,31.6806552 C30.7129351,31.6806552 31.68,30.7135902 31.68,29.5206552 C31.68,28.3277201 30.7129351,27.3606552 29.52,27.3606552 Z M16.5641858,4.37038517 L11.1635365,6.44589006 C11.0000709,6.50871098 10.8193131,6.50980214 10.655101,6.44895929 L5.76,4.63525717 L5.76,28.0806552 C5.76,30.0688803 7.3717749,31.6806552 9.36,31.6806552 L10.4952052,31.6806552 C11.1908309,30.9310614 11.52,30.2213107 11.52,29.5456161 C11.52,28.8037818 11.1237157,28.004344 10.2843918,27.1431968 C9.83977775,26.6870224 10.162994,25.9206552 10.8,25.9206552 L27.36,25.9206552 L27.36,4.64115506 L22.6099594,6.42993406 C22.4473615,6.49116549 22.2681061,6.49153546 22.1052568,6.43097573 L16.5641858,4.37038517 Z M16.56,10.0806552 C16.957645,10.0806552 17.28,10.4030101 17.28,10.8006552 L17.28,11.5206552 L19.4400071,11.5206552 C19.8376521,11.5206552 20.1600071,11.8430101 20.1600071,12.2406552 L20.1600071,12.7857528 C20.1600071,13.1833978 19.8376521,13.5057528 19.4400071,13.5057528 C19.1026828,13.5057528 18.8195389,13.2737793 18.7413981,12.9606552 L15.1400811,12.9606552 C14.7424361,12.9606552 14.4200811,13.2830101 14.4200811,13.6806552 L14.4200811,14.4017448 C14.4200811,14.7993898 14.7424361,15.1217448 15.1400811,15.1217448 L18.0000071,15.1217448 C19.1929421,15.1217448 20.1600071,16.0888097 20.1600071,17.2817448 L20.1600071,18.0006552 C20.1600071,19.1935902 19.1929421,20.1606552 18.0000071,20.1606552 L17.28,20.1606552 L17.28,20.8806552 C17.28,21.2783002 16.957645,21.6006552 16.56,21.6006552 C16.162355,21.6006552 15.84,21.2783002 15.84,20.8806552 L15.84,20.1606552 L13.6800071,20.1606552 C13.2737862,20.1606552 12.9479913,19.8248014 12.9603398,19.4187683 L12.9804138,18.7587097 C12.9925016,18.3612484 13.3245067,18.0488415 13.721968,18.0609293 C14.0918086,18.0721771 14.3880054,18.3604233 14.4176476,18.7206552 L18.0000071,18.7206552 C18.3976521,18.7206552 18.7200071,18.3983002 18.7200071,18.0006552 L18.7200071,17.2817448 C18.7200071,16.8840998 18.3976521,16.5617448 18.0000071,16.5617448 L15.1400811,16.5617448 C13.947146,16.5617448 12.9800811,15.5946798 12.9800811,14.4017448 L12.9800811,13.6806552 C12.9800811,12.4877201 13.947146,11.5206552 15.1400811,11.5206552 L15.84,11.5206552 L15.84,10.8006552 C15.84,10.4030101 16.162355,10.0806552 16.56,10.0806552 Z" id="Combined-Shape" fill="#2E2E2E" fill-rule="nonzero"></path>
                    </g>
                </g>
            </g>
        </g>
    </g>
</svg>