<?xml version="1.0" encoding="UTF-8"?>
<svg width="38px" height="38px" viewBox="0 0 38 38" version="1.1" xmlns="http://www.w3.org/2000/svg" xmlns:xlink="http://www.w3.org/1999/xlink">
    <title>iconspace_Delivery_25px</title>
    <g id="[NEW-UPDATE-Landing]" stroke="none" stroke-width="1" fill="none" fill-rule="evenodd">
        <g id="57---SaaS-01" transform="translate(-175.000000, -3747.000000)">
            <g id="Section" transform="translate(150.000000, 3401.000000)">
                <g id="Item" transform="translate(0.000000, 176.000000)">
                    <g transform="translate(0.000000, 145.000000)" id="iconspace_Delivery_25px">
                        <g transform="translate(25.000000, 25.000000)">
                            <polygon id="path" points="0 0 38 0 38 38 0 38"></polygon>
                            <path d="M31.8439862,28.88 L32.68,28.88 C33.0997364,28.88 33.44,28.5397364 33.44,28.12 L33.44,24.32 L4.56,24.32 L4.56,28.12 C4.56,28.5397364 4.90026359,28.88 5.32,28.88 L6.15601377,28.88 C6.50809922,27.1454974 8.04159199,25.84 9.88,25.84 C11.718408,25.84 13.2519008,27.1454974 13.6039862,28.88 L24.3960138,28.88 C24.7480992,27.1454974 26.281592,25.84 28.12,25.84 C29.958408,25.84 31.4919008,27.1454974 31.8439862,28.88 L31.8439862,28.88 Z M31.8439862,30.4 C31.4919008,32.1345026 29.958408,33.44 28.12,33.44 C26.281592,33.44 24.7480992,32.1345026 24.3960138,30.4 L13.6039862,30.4 C13.2519008,32.1345026 11.718408,33.44 9.88,33.44 C8.04159199,33.44 6.50809922,32.1345026 6.15601377,30.4 L5.32,30.4 C4.06079077,30.4 3.04,29.3792092 3.04,28.12 L3.04,9.88 C3.04,6.94184513 5.42184513,4.56 8.36,4.56 L19,4.56 C21.6801187,4.56 23.8973499,6.54185645 24.2661245,9.12 L26.6497778,9.12 C28.2914789,9.12 29.8412247,9.87795553 30.8491316,11.1738359 L33.8393538,15.0184073 C34.5656699,15.9522422 34.96,17.1015317 34.96,18.2845713 L34.96,28.12 C34.96,29.3792092 33.9392092,30.4 32.68,30.4 L31.8439862,30.4 L31.8439862,30.4 Z M24.32,22.8 L33.44,22.8 L33.44,18.2845713 C33.44,18.2697065 33.44,18.2548492 33.4397388,18.24 L24.32,18.24 L24.32,22.8 Z M24.32,16.72 L33.1029665,16.72 C32.9801494,16.4481522 32.8249953,16.1900415 32.6395384,15.951597 L29.6493163,12.1070257 C28.9293827,11.1813968 27.8224215,10.64 26.6497778,10.64 L24.32,10.64 L24.32,16.72 Z M4.56,22.8 L22.8,22.8 L22.8,9.88 C22.8,7.78131795 21.098682,6.08 19,6.08 L8.36,6.08 C6.26131795,6.08 4.56,7.78131795 4.56,9.88 L4.56,22.8 Z M9.88,31.92 C11.1392092,31.92 12.16,30.8992092 12.16,29.64 C12.16,28.3807908 11.1392092,27.36 9.88,27.36 C8.62079077,27.36 7.6,28.3807908 7.6,29.64 C7.6,30.8992092 8.62079077,31.92 9.88,31.92 Z M28.12,31.92 C29.3792092,31.92 30.4,30.8992092 30.4,29.64 C30.4,28.3807908 29.3792092,27.36 28.12,27.36 C26.8607908,27.36 25.84,28.3807908 25.84,29.64 C25.84,30.8992092 26.8607908,31.92 28.12,31.92 Z" id="Combined-Shape" fill="#2E2E2E" fill-rule="nonzero"></path>
                        </g>
                    </g>
                </g>
            </g>
        </g>
    </g>
</svg>