<?xml version="1.0" encoding="UTF-8"?>
<svg width="36px" height="36px" viewBox="0 0 36 36" version="1.1" xmlns="http://www.w3.org/2000/svg" xmlns:xlink="http://www.w3.org/1999/xlink">
    <title>iconspace_Money_25px</title>
    <g id="[NEW-UPDATE-Landing]" stroke="none" stroke-width="1" fill="none" fill-rule="evenodd">
        <g id="57---SaaS-01" transform="translate(-175.000000, -3892.000000)">
            <g id="Section" transform="translate(150.000000, 3401.000000)">
                <g id="Item" transform="translate(0.000000, 176.000000)">
                    <g transform="translate(0.000000, 290.000000)" id="iconspace_Money_25px">
                        <g transform="translate(25.000000, 25.000000)">
                            <polygon id="path" points="0 0 36 0 36 36 0 36"></polygon>
                            <path d="M18.72,8.64 L20.8800071,8.64 C21.2776521,8.64 21.6000071,8.96235498 21.6000071,9.36 L21.6000071,9.90509766 C21.6000071,10.3027427 21.2776521,10.6250977 20.8800071,10.6250977 C20.5426828,10.6250977 20.2595389,10.3931242 20.1813981,10.08 L16.5800811,10.08 C16.1824361,10.08 15.8600811,10.402355 15.8600811,10.8 L15.8600811,11.5210896 C15.8600811,11.9187346 16.1824361,12.2410896 16.5800811,12.2410896 L19.4400071,12.2410896 C20.6329421,12.2410896 21.6000071,13.2081546 21.6000071,14.4010896 L21.6000071,15.12 C21.6000071,16.3129351 20.6329421,17.28 19.4400071,17.28 L18.72,17.28 L18.72,17.9873877 C18.72,18.3850327 18.397645,18.7073877 18,18.7073877 C17.602355,18.7073877 17.28,18.3850327 17.28,17.9873877 L17.28,17.28 L15.1200071,17.28 C14.7137862,17.28 14.3879913,16.9441463 14.4003398,16.5381131 L14.4204138,15.8780545 C14.4325016,15.4805933 14.7645067,15.1681864 15.161968,15.1802741 C15.5318086,15.1915219 15.8280054,15.4797681 15.8576476,15.84 L19.4400071,15.84 C19.8376521,15.84 20.1600071,15.517645 20.1600071,15.12 L20.1600071,14.4010896 C20.1600071,14.0034446 19.8376521,13.6810896 19.4400071,13.6810896 L16.5800811,13.6810896 C15.387146,13.6810896 14.4200811,12.7140247 14.4200811,11.5210896 L14.4200811,10.8 C14.4200811,9.60706494 15.387146,8.64 16.5800811,8.64 L17.28,8.64 L17.28,7.92 C17.28,7.52235498 17.602355,7.2 18,7.2 C18.397645,7.2 18.72,7.52235498 18.72,7.92 L18.72,8.64 L18.72,8.64 Z M2.88,28.08 L2.88,7.92 C2.88,5.13648486 5.13648486,2.88 7.92,2.88 L28.08,2.88 C30.8635151,2.88 33.12,5.13648486 33.12,7.92 L33.12,28.08 C33.12,30.8635151 30.8635151,33.12 28.08,33.12 L7.92,33.12 C5.13648486,33.12 2.88,30.8635151 2.88,28.08 Z M7.92,4.32 C5.9317749,4.32 4.32,5.9317749 4.32,7.92 L4.32,18 C4.32,19.9882251 5.9317749,21.6 7.92,21.6 L28.08,21.6 C30.0682251,21.6 31.68,19.9882251 31.68,18 L31.68,7.92 C31.68,5.9317749 30.0682251,4.32 28.08,4.32 L7.92,4.32 Z M4.32,27.2872676 L4.32,28.08 C4.32,30.0682251 5.9317749,31.68 7.92,31.68 L28.08,31.68 C30.0682251,31.68 31.68,30.0682251 31.68,28.08 L31.68,27.2872676 C30.7652277,28.2207836 29.4902555,28.8 28.08,28.8 L7.92,28.8 C6.50974451,28.8 5.23477227,28.2207836 4.32,27.2872676 Z M4.32,21.5272676 L4.32,23.76 C4.32,25.7482251 5.9317749,27.36 7.92,27.36 L28.08,27.36 C30.0682251,27.36 31.68,25.7482251 31.68,23.76 L31.68,21.5272676 C30.7652277,22.4607836 29.4902555,23.04 28.08,23.04 L7.92,23.04 C6.50974451,23.04 5.23477227,22.4607836 4.32,21.5272676 Z" id="path" fill="#2E2E2E" fill-rule="nonzero"></path>
                        </g>
                    </g>
                </g>
            </g>
        </g>
    </g>
</svg>