<?xml version="1.0" encoding="UTF-8"?>
<svg width="20px" height="20px" viewBox="0 0 20 20" version="1.1" xmlns="http://www.w3.org/2000/svg" xmlns:xlink="http://www.w3.org/1999/xlink">
    <title>Path</title>
    <g id="[NEW-UPDATE-Landing]" stroke="none" stroke-width="1" fill="none" fill-rule="evenodd">
        <g id="57---SaaS-01" transform="translate(-837.000000, -4415.000000)" fill="#2E2E2E" fill-rule="nonzero">
            <g id="Section" transform="translate(150.000000, 4137.000000)">
                <g id="Text" transform="translate(663.000000, 84.000000)">
                    <g id="Item" transform="translate(0.000000, 170.000000)">
                        <g id="iconspace_Approve-1_25px" transform="translate(20.000000, 20.000000)">
                            <path d="M19.6,4.48 C21.7649562,4.48 23.52,6.23504378 23.52,8.4 L23.52,19.6 C23.52,21.7649562 21.7649562,23.52 19.6,23.52 L8.4,23.52 C6.23504378,23.52 4.48,21.7649562 4.48,19.6 L4.48,8.4 C4.48,6.23504378 6.23504378,4.48 8.4,4.48 L19.6,4.48 Z M17.7071896,10.2006375 C17.4645238,10.00889 17.1123622,10.0501675 16.9206148,10.2928334 L16.9206148,10.2928334 L12.8821424,15.4037193 L11.0321342,13.5891322 C10.8113371,13.3725626 10.4567812,13.3759896 10.2402116,13.5967868 C10.0236419,13.8175839 10.027069,14.1721397 10.2478661,14.3887094 L10.2478661,14.3887094 L12.5429101,16.6398114 C12.7806063,16.8729566 13.1680063,16.8484509 13.3744295,16.5872123 L13.3744295,16.5872123 L17.7993855,10.9872123 C17.991133,10.7445464 17.9498554,10.3923849 17.7071896,10.2006375 Z" id="Path"></path>
                        </g>
                    </g>
                </g>
            </g>
        </g>
    </g>
</svg>