<svg xmlns="http://www.w3.org/2000/svg" width="28" height="28" viewBox="0 0 28 28">
    <g fill="none" fill-rule="evenodd">
        <g>
            <g>
                <g>
                    <path d="M0 0L28 0 28 28 0 28z" transform="translate(-583 -1445) translate(545 1407) translate(38 38)"/>
                    <path fill="#183B56" d="M22.993 11.72V22.3c0 1.91-1.549 3.459-3.459 3.459h-2.777c-.382 0-.692-.31-.692-.692V21.64c0-.777-.62-1.404-1.383-1.404h-1.374c-.762 0-1.383.627-1.383 1.404v3.428c0 .382-.31.692-.692.692H8.466c-1.91 0-3.459-1.549-3.459-3.459V11.72l-1.62 1.417c-.287.252-.724.223-.976-.065-.251-.288-.222-.725.065-.976L13.544 2.41c.261-.228.65-.228.912 0l11.068 9.685c.287.251.316.688.065.976-.252.288-.689.317-.976.065l-1.62-1.417z" transform="translate(-583 -1445) translate(545 1407) translate(38 38)"/>
                </g>
            </g>
        </g>
    </g>
</svg>
