<?xml version="1.0" encoding="UTF-8"?>
<svg width="96px" height="26px" viewBox="0 0 96 26" version="1.1" xmlns="http://www.w3.org/2000/svg" xmlns:xlink="http://www.w3.org/1999/xlink">
    <title>netflix</title>
    <g id="[NEW-UPDATE-Landing]" stroke="none" stroke-width="1" fill="none" fill-rule="evenodd">
        <g id="55---Education-01" transform="translate(-365.000000, -3560.000000)" fill="#8C98A4" fill-rule="nonzero">
            <g id="Company" transform="translate(128.000000, 3464.000000)">
                <g id="List" transform="translate(0.000000, 92.000000)">
                    <g id="Item" transform="translate(190.000000, 1.000000)">
                        <g id="netflix" transform="translate(47.000000, 3.000000)">
                            <path d="M13.488,24.0145455 C12.048,24.2509091 10.608,24.3454545 9.072,24.5345455 L4.464,11.2036364 L4.464,25.1018182 C3.024,25.2436364 1.728,25.4327273 0.336,25.6690909 L0.336,0.189090909 L4.176,0.189090909 L9.408,14.6545455 L9.408,0.189090909 L13.488,0.189090909 L13.488,24.0145455 L13.488,24.0145455 Z M21.456,9.54909091 C23.04,9.54909091 25.44,9.45454545 26.88,9.45454545 L26.88,13.4254545 C25.104,13.4254545 22.992,13.4254545 21.456,13.52 L21.456,19.4290909 C23.808,19.2872727 26.208,19.0981818 28.608,19.0036364 L28.608,22.8327273 L17.424,23.6836364 L17.424,0.189090909 L28.608,0.189090909 L28.608,4.16 L21.456,4.16 C21.456,4.20727273 21.456,9.54909091 21.456,9.54909091 Z M43.584,4.20727273 L39.408,4.20727273 L39.408,22.5018182 C38.064,22.5018182 36.672,22.5018182 35.376,22.5490909 L35.376,4.20727273 L31.2,4.20727273 L31.2,0.189090909 L43.632,0.189090909 C43.584,0.189090909 43.584,4.20727273 43.584,4.20727273 Z M50.16,9.26545455 L55.68,9.26545455 L55.68,13.2363636 L50.16,13.2363636 L50.16,22.2654545 L46.176,22.2654545 L46.176,0.189090909 L57.456,0.189090909 L57.456,4.16 L50.16,4.16 C50.16,4.20727273 50.16,9.26545455 50.16,9.26545455 Z M64.032,18.7672727 C66.336,18.8145455 68.64,19.0036364 70.896,19.0981818 L70.896,23.0218182 C67.296,22.7854545 63.696,22.5963636 60,22.5018182 L60,0.189090909 L64.032,0.189090909 L64.032,18.7672727 L64.032,18.7672727 Z M74.304,23.3054545 C75.6,23.4 76.944,23.4472727 78.288,23.5890909 L78.288,0.189090909 L74.304,0.189090909 L74.304,23.3054545 Z M95.952,0.189090909 L90.816,12.2909091 L95.952,25.6218182 C94.416,25.4327273 92.928,25.1490909 91.392,24.9127273 L88.512,17.5381818 L85.536,24.2981818 C84.096,24.0618182 82.656,23.9672727 81.216,23.7781818 L86.4,12.1490909 L81.696,0.189090909 L86.016,0.189090909 L88.656,6.85454545 L91.488,0.189090909 L95.952,0.189090909 L95.952,0.189090909 Z" id="Shape"></path>
                        </g>
                    </g>
                </g>
            </g>
        </g>
    </g>
</svg>