<?xml version="1.0" encoding="UTF-8"?>
<svg width="64px" height="64px" viewBox="0 0 64 64" version="1.1" xmlns="http://www.w3.org/2000/svg" xmlns:xlink="http://www.w3.org/1999/xlink">
    <title>iconspace_Tshirt B</title>
    <g id="[NEW-UPDATE-Landing]" stroke="none" stroke-width="1" fill="none" fill-rule="evenodd">
        <g id="51---E-Commerce" transform="translate(-201.000000, -2819.000000)">
            <g id="Ccategories" transform="translate(150.000000, 2787.000000)">
                <g id="iconspace_Tshirt-B" transform="translate(51.000000, 32.000000)">
                    <circle id="Shape" cx="32" cy="32" r="32"></circle>
                    <path d="M22,52 L42,52 C43.1045695,52 44,51.1045695 44,50 L44,28 L44,28 L50,28 C51.1045695,28 52,27.1045695 52,26 L52,18 C52,14.6862915 49.3137085,12 46,12 L38,12 C38,15.3137085 35.3137085,18 32,18 C28.6862915,18 26,15.3137085 26,12 L18,12 C14.6862915,12 12,14.6862915 12,18 L12,26 C12,27.1045695 12.8954305,28 14,28 L20,28 L20,50 C20,51.1045695 20.8954305,52 22,52 Z" id="Shape" fill="#FFFFFF"></path>
                    <rect id="Shape" fill="#36B37E" transform="translate(16.000000, 26.000000) scale(-1, 1) translate(-16.000000, -26.000000) " x="12" y="24" width="8" height="4"></rect>
                    <rect id="Shape" fill="#36B37E" transform="translate(48.000000, 26.000000) scale(-1, 1) translate(-48.000000, -26.000000) " x="44" y="24" width="8" height="4"></rect>
                    <polygon id="Shape" fill="#36B37E" transform="translate(32.000000, 50.000000) scale(-1, 1) translate(-32.000000, -50.000000) " points="20 48 44 48 44 52 20 52"></polygon>
                    <path d="M33,23 L40,23 L40,25.5 C40,27.4329966 38.4329966,29 36.5,29 C34.5670034,29 33,27.4329966 33,25.5 L33,23 L33,23 Z" id="Shape" fill="#FFC200" transform="translate(36.500000, 26.000000) scale(-1, 1) translate(-36.500000, -26.000000) "></path>
                    <path d="M43,24 L43,50 C43,50.5522847 42.5522847,51 42,51 L22,51 C21.4477153,51 21,50.5522847 21,50 L21,24 C21,23.4477153 20.5522847,23 20,23 C19.4477153,23 19,23.4477153 19,24 L19,50 C19,51.6568542 20.3431458,53 22,53 L42,53 C43.6568542,53 45,51.6568542 45,50 L45,24 C45,23.4477153 44.5522847,23 44,23 C43.4477153,23 43,23.4477153 43,24 Z" id="Shape" fill="#183B56" fill-rule="nonzero"></path>
                    <path d="M45,29 L50,29 C51.6568542,29 53,27.6568542 53,26 L53,18 C53,14.1340068 49.8659932,11 46,11 L38,11 C37.4477153,11 37,11.4477153 37,12 C37,14.7614237 34.7614237,17 32,17 C29.2385763,17 27,14.7614237 27,12 C27,11.4477153 26.5522847,11 26,11 L18,11 C14.1340068,11 11,14.1340068 11,18 L11,26 C11,27.6568542 12.3431458,29 14,29 L19,29 L19,50 C19,51.6568542 20.3431458,53 22,53 L42,53 C43.6568542,53 45,51.6568542 45,50 L45,29 Z M32,19 C35.5264719,19 38.4438815,16.3922941 38.9291111,13 L46,13 C48.7614237,13 51,15.2385763 51,18 L51,26 C51,26.5522847 50.5522847,27 50,27 L44,27 C43.4477153,27 43,27.4477153 43,28 L43,50 C43,50.5522847 42.5522847,51 42,51 L22,51 C21.4477153,51 21,50.5522847 21,50 L21,28 C21,27.4477153 20.5522847,27 20,27 L14,27 C13.4477153,27 13,26.5522847 13,26 L13,18 C13,15.2385763 15.2385763,13 18,13 L25.0708889,13 C25.5561185,16.3922941 28.4735281,19 32,19 Z" id="Shape" fill="#183B56" fill-rule="nonzero"></path>
                </g>
            </g>
        </g>
    </g>
</svg>