<?xml version="1.0" encoding="UTF-8"?>
<svg width="64px" height="64px" viewBox="0 0 64 64" version="1.1" xmlns="http://www.w3.org/2000/svg" xmlns:xlink="http://www.w3.org/1999/xlink">
    <title>iconspace_Gold Bar</title>
    <g id="[NEW-UPDATE-Landing]" stroke="none" stroke-width="1" fill="none" fill-rule="evenodd">
        <g id="51---E-Commerce" transform="translate(-785.000000, -3022.000000)">
            <g id="Ccategories" transform="translate(150.000000, 2787.000000)">
                <g id="Item" transform="translate(585.000000, 202.000000)">
                    <g id="iconspace_Gold-Bar" transform="translate(50.000000, 33.000000)">
                        <circle id="Shape" cx="32" cy="32" r="32"></circle>
                        <polygon id="Shape" fill="#FFC200" points="16.1458333 32 27.8541667 32 32 46 12 46"></polygon>
                        <polygon id="Shape" fill="#FFFFFF" points="19.1458333 32 27.8541667 32 32 46 15 46"></polygon>
                        <path d="M15.186992,31.7160574 C15.3127567,31.2913646 15.7029103,31 16.1458333,31 L27.8541667,31 C28.2970897,31 28.6872433,31.2913646 28.813008,31.7160574 L32.9588413,45.7160574 C33.1486228,46.3569275 32.6683798,47 32,47 L12,47 C11.3316202,47 10.8513772,46.3569275 11.0411587,45.7160574 L15.186992,31.7160574 Z M16.8926279,33 L13.3390564,45 L30.6609436,45 L27.1073721,33 L16.8926279,33 Z" id="Shape" fill="#183B56" fill-rule="nonzero"></path>
                        <polygon id="Shape" fill="#FFFFFF" points="36.1458333 32 47.8541667 32 52 46 32 46"></polygon>
                        <polygon id="Shape" fill="#36B37E" points="39.1458333 32 47.8541667 32 52 46 35 46"></polygon>
                        <path d="M35.186992,31.7160574 C35.3127567,31.2913646 35.7029103,31 36.1458333,31 L47.8541667,31 C48.2970897,31 48.6872433,31.2913646 48.813008,31.7160574 L52.9588413,45.7160574 C53.1486228,46.3569275 52.6683798,47 52,47 L32,47 C31.3316202,47 30.8513772,46.3569275 31.0411587,45.7160574 L35.186992,31.7160574 Z M33.3390564,45 L50.6609436,45 L47.1073721,33 L36.8926279,33 L33.3390564,45 Z" id="Shape" fill="#183B56" fill-rule="nonzero"></path>
                        <polygon id="Shape" fill="#FFFFFF" points="26.1458333 18 37.8541667 18 42 32 22 32"></polygon>
                        <polygon id="Shape" fill="#FFC200" points="29.1458333 18 37.8541667 18 42 32 25 32"></polygon>
                        <path d="M25.186992,17.7160574 C25.3127567,17.2913646 25.7029103,17 26.1458333,17 L37.8541667,17 C38.2970897,17 38.6872433,17.2913646 38.813008,17.7160574 L42.9588413,31.7160574 C43.1486228,32.3569275 42.6683798,33 42,33 L22,33 C21.3316202,33 20.8513772,32.3569275 21.0411587,31.7160574 L25.186992,17.7160574 Z M26.8926279,19 L23.3390564,31 L40.6609436,31 L37.1073721,19 L26.8926279,19 Z" id="Shape" fill="#183B56" fill-rule="nonzero"></path>
                    </g>
                </g>
            </g>
        </g>
    </g>
</svg>