<?xml version="1.0" encoding="UTF-8"?>
<svg width="64px" height="64px" viewBox="0 0 64 64" version="1.1" xmlns="http://www.w3.org/2000/svg" xmlns:xlink="http://www.w3.org/1999/xlink">
    <title>iconspace_Ticket</title>
    <g id="[NEW-UPDATE-Landing]" stroke="none" stroke-width="1" fill="none" fill-rule="evenodd">
        <g id="51---E-Commerce" transform="translate(-980.000000, -3021.000000)">
            <g id="Ccategories" transform="translate(150.000000, 2787.000000)">
                <g id="Item" transform="translate(780.000000, 202.000000)">
                    <g id="iconspace_Ticket" transform="translate(50.000000, 32.000000)">
                        <circle id="Shape" cx="32" cy="32" r="32"></circle>
                        <path d="M16,17 L48,17 C50.7614237,17 53,19.2385763 53,22 L53,40 C53,42.7614237 50.7614237,45 48,45 L16,45 C13.2385763,45 11,42.7614237 11,40 L11,22 C11,19.2385763 13.2385763,17 16,17 Z" id="Shape" fill="#183B56" fill-rule="nonzero"></path>
                        <path d="M16,19 C14.3431458,19 13,20.3431458 13,22 L13,40 C13,41.6568542 14.3431458,43 16,43 L48,43 C49.6568542,43 51,41.6568542 51,40 L51,22 C51,20.3431458 49.6568542,19 48,19 L16,19 Z" id="Shape" fill="#FFFFFF" fill-rule="nonzero"></path>
                        <path d="M44.8047529,35.3508091 L46.7240735,36.8960858 C47.1835915,37.2660513 47.3238659,37.9088014 47.0606941,38.4385114 C46.8115097,38.9400676 46.2054981,39.1433634 45.7071294,38.8925853 L43,37.5303637 L40.2928706,38.8925853 C39.7945019,39.1433634 39.1884903,38.9400676 38.9393059,38.4385114 C38.6761341,37.9088014 38.8164085,37.2660513 39.2759265,36.8960858 L41.1952471,35.3508091 L41.1952471,31.5365887 L38.5224698,32.6125372 C37.9930008,32.8256794 37.3895791,32.5947915 37.134553,32.0814773 C36.8701961,31.549382 37.0043026,30.9041709 37.4584137,30.5233247 L41.1952471,27.3893807 L41.1952471,24.8162955 C41.1952471,23.8131832 42.0032625,23 43,23 C43.9967375,23 44.8047529,23.8131832 44.8047529,24.8162955 L44.8047529,27.3893807 L48.5415863,30.5233247 C48.9956974,30.9041709 49.1298039,31.549382 48.865447,32.0814773 C48.6104209,32.5947915 48.0069992,32.8256794 47.4775302,32.6125372 L44.8047529,31.5365887 L44.8047529,35.3508091 Z" id="Shape" fill="#FFC200"></path>
                        <path d="M17,31 L23,31 C23.5522847,31 24,30.5522847 24,30 C24,29.4477153 23.5522847,29 23,29 L17,29 C16.4477153,29 16,29.4477153 16,30 C16,30.5522847 16.4477153,31 17,31 Z" id="Shape" fill="#36B37E" fill-rule="nonzero"></path>
                        <path d="M17,35 L29,35 C29.5522847,35 30,34.5522847 30,34 C30,33.4477153 29.5522847,33 29,33 L17,33 C16.4477153,33 16,33.4477153 16,34 C16,34.5522847 16.4477153,35 17,35 Z" id="Shape" fill="#36B37E" fill-rule="nonzero"></path>
                        <path d="M17,39 L34,39 C34.5522847,39 35,38.5522847 35,38 C35,37.4477153 34.5522847,37 34,37 L17,37 C16.4477153,37 16,37.4477153 16,38 C16,38.5522847 16.4477153,39 17,39 Z" id="Shape" fill="#36B37E" fill-rule="nonzero"></path>
                        <path d="M47.8149549,42.9992739 C48.4809307,42.9973537 48.962675,43.6347317 48.7791064,44.2749115 L47.546337,48.5740894 C46.7851854,51.2285402 44.0162926,52.7633626 41.3618417,52.0022111 L17.1112874,45.0484765 C15.9987626,44.7294652 16.2266809,43.0905636 17.3840349,43.087219 L47.8149549,42.9992739 Z" id="Shape" fill="#183B56" fill-rule="nonzero"></path>
                        <path d="M24.431315,45.0668618 L41.9131164,50.0796877 C43.5057869,50.5363786 45.1671227,49.6154852 45.6238136,48.0228147 L46.4896981,45.0031164 L24.431315,45.0668618 Z" id="Shape" fill="#36B37E" fill-rule="nonzero"></path>
                        <path d="M22,21 L22,22 C22,23.1045695 21.1045695,24 20,24 C18.8954305,24 18,23.1045695 18,22 L18,15 C18,13.8954305 18.8954305,13 20,13 C21.1045695,13 22,13.8954305 22,15 L22,18 C22,18.5522847 22.4477153,19 23,19 C23.5522847,19 24,18.5522847 24,18 L24,15 C24,12.790861 22.209139,11 20,11 C17.790861,11 16,12.790861 16,15 L16,22 C16,24.209139 17.790861,26 20,26 C22.209139,26 24,24.209139 24,22 L24,21 C24,20.4477153 23.5522847,20 23,20 C22.4477153,20 22,20.4477153 22,21 Z" id="Shape" fill="#183B56" fill-rule="nonzero"></path>
                    </g>
                </g>
            </g>
        </g>
    </g>
</svg>