<?xml version="1.0" encoding="UTF-8"?>
<svg width="64px" height="64px" viewBox="0 0 64 64" version="1.1" xmlns="http://www.w3.org/2000/svg" xmlns:xlink="http://www.w3.org/1999/xlink">
    <title>iconspace_Apps</title>
    <g id="[NEW-UPDATE-Landing]" stroke="none" stroke-width="1" fill="none" fill-rule="evenodd">
        <g id="51---E-Commerce" transform="translate(-1176.000000, -3021.000000)">
            <g id="Ccategories" transform="translate(150.000000, 2787.000000)">
                <g id="Item" transform="translate(975.000000, 202.000000)">
                    <g id="iconspace_Apps" transform="translate(51.000000, 32.000000)">
                        <circle id="Oval" cx="32" cy="32" r="32"></circle>
                        <path d="M16,14 L26,14 C27.6568542,14 29,15.3431458 29,17 L29,27 C29,28.6568542 27.6568542,30 26,30 L16,30 C14.3431458,30 13,28.6568542 13,27 L13,17 C13,15.3431458 14.3431458,14 16,14 Z" id="Shape" fill="#183B56" fill-rule="nonzero"></path>
                        <path d="M16,16 C15.4477153,16 15,16.4477153 15,17 L15,27 C15,27.5522847 15.4477153,28 16,28 L26,28 C26.5522847,28 27,27.5522847 27,27 L27,17 C27,16.4477153 26.5522847,16 26,16 L16,16 Z" id="Shape" fill="#FFC200" fill-rule="nonzero"></path>
                        <path d="M38,14 L48,14 C49.6568542,14 51,15.3431458 51,17 L51,27 C51,28.6568542 49.6568542,30 48,30 L38,30 C36.3431458,30 35,28.6568542 35,27 L35,17 C35,15.3431458 36.3431458,14 38,14 Z" id="Shape" fill="#183B56" fill-rule="nonzero"></path>
                        <path d="M38,16 C37.4477153,16 37,16.4477153 37,17 L37,27 C37,27.5522847 37.4477153,28 38,28 L48,28 C48.5522847,28 49,27.5522847 49,27 L49,17 C49,16.4477153 48.5522847,16 48,16 L38,16 Z" id="Shape" fill="#FFFFFF" fill-rule="nonzero"></path>
                        <path d="M16,35 L26,35 C27.6568542,35 29,36.3431458 29,38 L29,48 C29,49.6568542 27.6568542,51 26,51 L16,51 C14.3431458,51 13,49.6568542 13,48 L13,38 C13,36.3431458 14.3431458,35 16,35 Z" id="Shape" fill="#183B56" fill-rule="nonzero"></path>
                        <path d="M16,37 C15.4477153,37 15,37.4477153 15,38 L15,48 C15,48.5522847 15.4477153,49 16,49 L26,49 C26.5522847,49 27,48.5522847 27,48 L27,38 C27,37.4477153 26.5522847,37 26,37 L16,37 Z" id="Shape" fill="#FFFFFF" fill-rule="nonzero"></path>
                        <path d="M38,35 L48,35 C49.6568542,35 51,36.3431458 51,38 L51,48 C51,49.6568542 49.6568542,51 48,51 L38,51 C36.3431458,51 35,49.6568542 35,48 L35,38 C35,36.3431458 36.3431458,35 38,35 Z" id="Shape" fill="#183B56" fill-rule="nonzero"></path>
                        <path d="M38,37 C37.4477153,37 37,37.4477153 37,38 L37,48 C37,48.5522847 37.4477153,49 38,49 L48,49 C48.5522847,49 49,48.5522847 49,48 L49,38 C49,37.4477153 48.5522847,37 48,37 L38,37 Z" id="Shape" fill="#36B37E" fill-rule="nonzero"></path>
                    </g>
                </g>
            </g>
        </g>
    </g>
</svg>