<?xml version="1.0" encoding="UTF-8"?>
<svg width="64px" height="64px" viewBox="0 0 64 64" version="1.1" xmlns="http://www.w3.org/2000/svg" xmlns:xlink="http://www.w3.org/1999/xlink">
    <title>iconspace_Notebook</title>
    <g id="[NEW-UPDATE-Landing]" stroke="none" stroke-width="1" fill="none" fill-rule="evenodd">
        <g id="51---E-Commerce" transform="translate(-591.000000, -2819.000000)">
            <g id="Ccategories" transform="translate(150.000000, 2787.000000)">
                <g id="Item" transform="translate(390.000000, 0.000000)">
                    <g id="iconspace_Notebook" transform="translate(51.000000, 32.000000)">
                        <circle id="Shape" cx="32" cy="32" r="32"></circle>
                        <path d="M17,13 L47,13 C48.6568542,13 50,14.3431458 50,16 L50,37 C50,37.5522847 49.5522847,38 49,38 L15,38 C14.4477153,38 14,37.5522847 14,37 L14,16 C14,14.3431458 15.3431458,13 17,13 Z" id="Shape" fill="#183B56" fill-rule="nonzero"></path>
                        <path d="M48,36 L48,16 C48,15.4477153 47.5522847,15 47,15 L17,15 C16.4477153,15 16,15.4477153 16,16 L16,36 L48,36 Z" id="Shape" fill="#36B37E" fill-rule="nonzero"></path>
                        <path d="M19,17 L45,17 C45.5522847,17 46,17.4477153 46,18 L46,33 C46,33.5522847 45.5522847,34 45,34 L19,34 C18.4477153,34 18,33.5522847 18,33 L18,18 C18,17.4477153 18.4477153,17 19,17 Z" id="Shape" fill="#FFFFFF"></path>
                        <path d="M14.2044874,36 L49.7955126,36 L52.4090714,47.3254215 C52.7816309,48.9398457 51.7749005,50.5506142 50.1604764,50.9231736 C49.9392484,50.9742262 49.71294,51 49.4858978,51 L14.5141022,51 C12.8572479,51 11.5141022,49.6568542 11.5141022,48 C11.5141022,47.7729578 11.539876,47.5466494 11.5909286,47.3254215 L14.2044874,36 Z" id="Shape" fill="#183B56" fill-rule="nonzero"></path>
                        <path d="M13.539711,47.7751405 C13.5226934,47.8488831 13.5141022,47.9243193 13.5141022,48 C13.5141022,48.5522847 13.9618174,49 14.5141022,49 L49.4858978,49 C49.5615786,49 49.6370147,48.9914087 49.7107573,48.9743912 C50.2488987,48.8502047 50.5844755,48.3132819 50.460289,47.7751405 L48.2044874,38 L15.7955126,38 L13.539711,47.7751405 Z" id="Shape" fill="#FFFFFF" fill-rule="nonzero"></path>
                        <path d="M25.6251415,42.7771752 C25.7290752,42.3224652 26.1335631,42 26.6,42 L37.4,42 C37.8664369,42 38.2709248,42.3224652 38.3748585,42.7771752 L39.9748585,49.7771752 C40.1179627,50.4032561 39.6422275,51 39,51 L25,51 C24.3577725,51 23.8820373,50.4032561 24.0251415,49.7771752 L25.6251415,42.7771752 Z" id="Shape" fill="#183B56" fill-rule="nonzero"></path>
                        <polygon id="Shape" fill="#FFC200" fill-rule="nonzero" points="26.2543613 49 37.7456387 49 36.6027815 44 27.3972185 44"></polygon>
                    </g>
                </g>
            </g>
        </g>
    </g>
</svg>