<?xml version="1.0" encoding="UTF-8"?>
<svg width="64px" height="64px" viewBox="0 0 64 64" version="1.1" xmlns="http://www.w3.org/2000/svg" xmlns:xlink="http://www.w3.org/1999/xlink">
    <title>iconspace_Not C</title>
    <g id="[NEW-UPDATE-Landing]" stroke="none" stroke-width="1" fill="none" fill-rule="evenodd">
        <g id="51---E-Commerce" transform="translate(-786.000000, -2819.000000)">
            <g id="Ccategories" transform="translate(150.000000, 2787.000000)">
                <g id="Item" transform="translate(585.000000, 0.000000)">
                    <g id="iconspace_Not-C" transform="translate(51.000000, 32.000000)">
                        <circle id="Shape" cx="32" cy="32" r="32"></circle>
                        <ellipse id="Shape" fill="#FFFFFF" cx="16" cy="45" rx="6" ry="5"></ellipse>
                        <ellipse id="Shape" fill="#FFFFFF" cx="40" cy="41" rx="6" ry="5"></ellipse>
                        <ellipse id="Shape" fill="#36B37E" cx="16" cy="45" rx="6" ry="5"></ellipse>
                        <ellipse id="Shape" fill="#FFC200" cx="40" cy="41" rx="6" ry="5"></ellipse>
                        <path d="M17.5,40.1575219 C14.9121592,40.7125753 13,42.6702007 13,45 C13,47.3297993 14.9121592,49.2874247 17.5,49.8424781 C17.0205701,49.9453087 16.5179494,50 16,50 C12.6862915,50 10,47.7614237 10,45 C10,42.2385763 12.6862915,40 16,40 C16.5179494,40 17.0205701,40.0546913 17.5,40.1575219 L17.5,40.1575219 Z" id="Path" fill="#FFFFFF"></path>
                        <path d="M41.5,36.1575219 C38.9121592,36.7125753 37,38.6702007 37,41 C37,43.3297993 38.9121592,45.2874247 41.5,45.8424781 C41.0205701,45.9453087 40.5179494,46 40,46 C36.6862915,46 34,43.7614237 34,41 C34,38.2385763 36.6862915,36 40,36 C40.5179494,36 41.0205701,36.0546913 41.5,36.1575219 L41.5,36.1575219 Z" id="Shape" fill="#FFFFFF"></path>
                        <path d="M16,51 C19.8297751,51 23,48.3581459 23,45 C23,41.6418541 19.8297751,39 16,39 C12.1702249,39 9,41.6418541 9,45 C9,48.3581459 12.1702249,51 16,51 Z M16,49 C13.2023581,49 11,47.1647016 11,45 C11,42.8352984 13.2023581,41 16,41 C18.7976419,41 21,42.8352984 21,45 C21,47.1647016 18.7976419,49 16,49 Z" id="Shape" fill="#183B56" fill-rule="nonzero"></path>
                        <path d="M40,47 C43.8297751,47 47,44.3581459 47,41 C47,37.6418541 43.8297751,35 40,35 C36.1702249,35 33,37.6418541 33,41 C33,44.3581459 36.1702249,47 40,47 Z M40,45 C37.2023581,45 35,43.1647016 35,41 C35,38.8352984 37.2023581,37 40,37 C42.7976419,37 45,38.8352984 45,41 C45,43.1647016 42.7976419,45 40,45 Z" id="Shape" fill="#183B56" fill-rule="nonzero"></path>
                        <path d="M23,18.7652289 L45,12.3843666 L45,40.7148438 C45,41.2671285 45.4477153,41.7148438 46,41.7148438 C46.5522847,41.7148438 47,41.2671285 47,40.7148438 L47,11.0531153 C47,10.3870737 46.3611198,9.90716424 45.7214408,10.0926962 L21.7214408,17.0536369 C21.2940541,17.1775958 21,17.5690557 21,18.0140559 L21,44.7148438 C21,45.2671285 21.4477153,45.7148438 22,45.7148438 C22.5522847,45.7148438 23,45.2671285 23,44.7148438 L23,18.7652289 Z" id="Shape" fill="#183B56" fill-rule="nonzero"></path>
                        <path d="M22.28,24.96 C21.64,25.1466667 21,24.6666667 21,24 L21,18.0140559 C21,17.5690557 21.2940541,17.1775958 21.7214408,17.0536369 L45.7214408,10.0926962 C46.3611198,9.90716424 47,10.3870737 47,11.0531153 L47,17 C47,17.4444444 46.7066667,17.8355556 46.28,17.96 L22.28,24.96 Z M45,16.25 L45,12.3843666 L23,18.7652289 L23,22.6666667 L45,16.25 Z" id="Shape" fill="#154E84" fill-rule="nonzero"></path>
                    </g>
                </g>
            </g>
        </g>
    </g>
</svg>