<?xml version="1.0" encoding="UTF-8"?>
<svg width="64px" height="64px" viewBox="0 0 64 64" version="1.1" xmlns="http://www.w3.org/2000/svg" xmlns:xlink="http://www.w3.org/1999/xlink">
    <title>iconspace_Camera </title>
    <g id="[NEW-UPDATE-Landing]" stroke="none" stroke-width="1" fill="none" fill-rule="evenodd">
        <g id="51---E-Commerce" transform="translate(-981.000000, -2819.000000)">
            <g id="Ccategories" transform="translate(150.000000, 2787.000000)">
                <g id="Item" transform="translate(780.000000, 0.000000)">
                    <g id="iconspace_Camera-" transform="translate(51.000000, 32.000000)">
                        <circle id="Shape" cx="32" cy="32" r="32"></circle>
                        <path d="M20.4196775,20 L23.5559156,14.5115832 C24.0900442,13.5768582 25.0840745,13 26.1606451,13 L37.8393549,13 C38.9159255,13 39.9099558,13.5768582 40.4440844,14.5115832 L43.5803225,20 L50,20 C51.6568542,20 53,21.3431458 53,23 L53,48 C53,49.6568542 51.6568542,51 50,51 L14,51 C12.3431458,51 11,49.6568542 11,48 L11,23 C11,21.3431458 12.3431458,20 14,20 L20.4196775,20 Z" id="Shape" fill="#183B56" fill-rule="nonzero"></path>
                        <path d="M21,22 L14,22 C13.4477153,22 13,22.4477153 13,23 L13,48 C13,48.5522847 13.4477153,49 14,49 L50,49 C50.5522847,49 51,48.5522847 51,48 L51,23 C51,22.4477153 50.5522847,22 50,22 L43,22 C42.6411432,22 42.3097997,21.8077139 42.1317569,21.4961389 L38.7075981,15.5038611 C38.5295552,15.1922861 38.1982118,15 37.8393549,15 L26.1606451,15 C25.8017882,15 25.4704448,15.1922861 25.2924019,15.5038611 L21.8682431,21.4961389 C21.6902003,21.8077139 21.3588568,22 21,22 Z" id="Shape" fill="#FFFFFF" fill-rule="nonzero"></path>
                        <path d="M24,17 L40,17 L37.2913025,21.5144958 C37.1105793,21.8157012 36.7850725,22 36.4338096,22 L27.5661904,22 C27.2149275,22 26.8894207,21.8157012 26.7086975,21.5144958 L24,17 L24,17 Z" id="Shape" fill="#36B37E" transform="translate(31.999924, 19.500000) scale(1, -1) translate(-31.999924, -19.500000) "></path>
                        <path d="M32,46 C37.5228475,46 42,41.5228475 42,36 C42,30.4771525 37.5228475,26 32,26 C26.4771525,26 22,30.4771525 22,36 C22,41.5228475 26.4771525,46 32,46 Z" id="Shape" fill="#183B56" fill-rule="nonzero"></path>
                        <path d="M32,44 C27.581722,44 24,40.418278 24,36 C24,31.581722 27.581722,28 32,28 C36.418278,28 40,31.581722 40,36 C40,40.418278 36.418278,44 32,44 Z" id="Shape" fill="#36B37E" fill-rule="nonzero"></path>
                        <circle id="Shape" fill="#FFFFFF" cx="32" cy="36" r="6"></circle>
                        <circle id="Shape" fill="#FFC200" cx="18" cy="27" r="2"></circle>
                    </g>
                </g>
            </g>
        </g>
    </g>
</svg>