<?xml version="1.0" encoding="UTF-8"?>
<svg width="66px" height="66px" viewBox="0 0 66 66" version="1.1" xmlns="http://www.w3.org/2000/svg" xmlns:xlink="http://www.w3.org/1999/xlink">
    <title>iconspace_Stethoscope B</title>
    <g id="[NEW-UPDATE-Landing]" stroke="none" stroke-width="1" fill="none" fill-rule="evenodd">
        <g id="51---E-Commerce" transform="translate(-201.000000, -3021.000000)">
            <g id="Ccategories" transform="translate(150.000000, 2787.000000)">
                <g id="Item" transform="translate(0.000000, 202.000000)">
                    <g id="iconspace_Stethoscope-B" transform="translate(51.000000, 32.000000)">
                        <circle id="Shape" cx="34" cy="34" r="32"></circle>
                        <path d="M47,42 L47,44 C47,48.9705627 42.9705627,53 38,53 C33.0294373,53 29,48.9705627 29,44 L29,38 L27,38 L27,44 C27,50.0751322 31.9248678,55 38,55 C44.0751322,55 49,50.0751322 49,44 L49,42 L47,42 Z" id="Shape" fill="#183B56" fill-rule="nonzero"></path>
                        <path d="M48,44 C51.3137085,44 54,41.3137085 54,38 C54,34.6862915 51.3137085,32 48,32 C44.6862915,32 42,34.6862915 42,38 C42,41.3137085 44.6862915,44 48,44 Z" id="Shape" fill="#183B56" fill-rule="nonzero"></path>
                        <path d="M48,42 C45.790861,42 44,40.209139 44,38 C44,35.790861 45.790861,34 48,34 C50.209139,34 52,35.790861 52,38 C52,40.209139 50.209139,42 48,42 Z" id="Shape" fill="#FFFFFF" fill-rule="nonzero"></path>
                        <circle id="Shape" fill="#FFC200" cx="48" cy="38" r="2"></circle>
                        <path d="M34.8865537,18 L33,18 C32.4477153,18 32,17.5522847 32,17 L32,14 C32,13.4477153 32.4477153,13 33,13 L37.4440167,13 C39.100871,13 40.4440167,14.3431458 40.4440167,16 C40.4440167,16.2431653 40.4144524,16.4854288 40.3559746,16.7214578 L35.4008354,36.7214578 C35.0692135,38.0599545 33.8678433,39 32.4888775,39 L23.5875149,39 C22.2121269,39 21.0129095,38.0647274 20.6778795,36.7307682 L15.6547879,16.7307682 C15.2511958,15.123821 16.2267078,13.4939568 17.833655,13.0903647 C18.0726097,13.0303501 18.3180474,13 18.5644232,13 L23,13 C23.5522847,13 24,13.4477153 24,14 L24,17 C24,17.5522847 23.5522847,18 23,18 L21.1134463,18 L24.795986,34 L31.204014,34 L34.8865537,18 Z" id="Shape" fill="#183B56" fill-rule="nonzero"></path>
                        <path d="M22,15 L18.5644232,15 C18.4822979,15 18.4004854,15.0101167 18.3208338,15.0301216 C17.7851848,15.1646523 17.4600141,15.7079403 17.5945448,16.2435894 L22.6176364,36.2435894 C22.7293131,36.6882425 23.1290522,37 23.5875149,37 L32.4888775,37 C32.9485328,37 33.3489895,36.6866515 33.4595302,36.2404859 L38.4146693,16.2404859 C38.4341619,16.1618096 38.4440167,16.0810551 38.4440167,16 C38.4440167,15.4477153 37.9963015,15 37.4440167,15 L34,15 L34,16 L36.1428571,16 C36.785704,16 37.2615656,16.5978266 37.1173785,17.2242946 L32.9745214,35.2242946 C32.8700286,35.6782976 32.4658728,36 32,36 L24,36 C23.5341272,36 23.1299714,35.6782976 23.0254786,35.2242946 L18.8826215,17.2242946 C18.7384344,16.5978266 19.214296,16 19.8571429,16 L22,16 L22,15 Z" id="Shape" fill="#36B37E" fill-rule="nonzero"></path>
                        <path d="M25,38 C25,37.4477153 25.4477153,37 26,37 L30,37 C30.5522847,37 31,37.4477153 31,38 L31,41 C31,41.5522847 30.5522847,42 30,42 L26,42 C25.4477153,42 25,41.5522847 25,41 L25,38 Z" id="Shape" fill="#183B56" fill-rule="nonzero"></path>
                        <polygon id="Shape" fill="#FFFFFF" fill-rule="nonzero" points="27 39 27 40 29 40 29 39"></polygon>
                    </g>
                </g>
            </g>
        </g>
    </g>
</svg>