<?xml version="1.0" encoding="UTF-8"?>
<svg width="64px" height="64px" viewBox="0 0 64 64" version="1.1" xmlns="http://www.w3.org/2000/svg" xmlns:xlink="http://www.w3.org/1999/xlink">
    <title>iconspace_Soccer Ball</title>
    <g id="[NEW-UPDATE-Landing]" stroke="none" stroke-width="1" fill="none" fill-rule="evenodd">
        <g id="51---E-Commerce" transform="translate(-396.000000, -3021.000000)">
            <g id="Ccategories" transform="translate(150.000000, 2787.000000)">
                <g id="Item" transform="translate(195.000000, 202.000000)">
                    <g id="iconspace_Soccer-Ball" transform="translate(51.000000, 32.000000)">
                        <circle id="Shape" cx="32" cy="32" r="32"></circle>
                        <path d="M32,53 C43.5979797,53 53,43.5979797 53,32 C53,20.4020203 43.5979797,11 32,11 C20.4020203,11 11,20.4020203 11,32 C11,43.5979797 20.4020203,53 32,53 Z" id="Shape" fill="#183B56" fill-rule="nonzero"></path>
                        <path d="M32,51 C21.5065898,51 13,42.4934102 13,32 C13,21.5065898 21.5065898,13 32,13 C42.4934102,13 51,21.5065898 51,32 C51,42.4934102 42.4934102,51 32,51 Z" id="Shape" fill="#FFFFFF" fill-rule="nonzero"></path>
                        <path d="M48.7059542,42 C49.5024842,42 49.9793083,42.8858541 49.5406486,43.5507133 C47.0994915,47.2506791 43.5403903,50.1029717 39.385745,51.6641399 C38.6816054,51.9287306 37.9484161,51.3504135 38.0417163,50.6040115 L39.0077221,42.8759653 C39.0702757,42.3755364 39.4956767,42 40,42 L48.7059542,42 Z" id="Shape" fill="#183B56" fill-rule="nonzero"></path>
                        <path d="M40.8827822,44 L40.2422567,49.124204 C42.7537339,47.9129448 44.9708933,46.1591792 46.7317964,44 L40.8827822,44 Z" id="Shape" fill="#FFC200" fill-rule="nonzero"></path>
                        <path d="M26,50.7407846 C26,51.4384989 25.303535,51.9217468 24.6499614,51.6775199 C20.4802105,50.1193704 16.9076378,47.2614848 14.4593514,43.5507133 C14.0206917,42.8858541 14.4975158,42 15.2940458,42 L23.0362412,42 C23.4844992,42 23.8779923,42.2982947 23.9990709,42.7298907 L25.9628297,49.7298907 C25.9874937,49.8178078 26,49.9086888 26,50 L26,50.7407846 Z" id="Shape" fill="#183B56" fill-rule="nonzero"></path>
                        <path d="M22.2781729,44 L17.2682022,44 C19.0177903,46.1453084 21.2177141,47.8903001 23.7090947,49.1006535 L22.2781729,44 Z" id="Shape" fill="#36B37E" fill-rule="nonzero"></path>
                        <path d="M11,32 C11,28.2624655 11.9785887,24.6653039 13.810038,21.499274 C13.9887802,21.1902821 14.3186779,21 14.6756439,21 L15,21 C15.3343532,21 15.6465845,21.1671011 15.8320503,21.4452998 L19.8320503,27.4452998 C20.1314487,27.8943975 20.02043,28.5000507 19.5812067,28.813756 L12.6049249,33.7964068 C11.9609147,34.2563764 11.0631309,33.8214555 11.0248865,33.0309756 C11.008312,32.6883948 11,32.3446702 11,32 Z" id="Shape" fill="#183B56" fill-rule="nonzero"></path>
                        <path d="M17.6308337,27.7490262 L14.915392,23.6758637 C13.800341,25.9594476 13.1526088,28.4531835 13.023858,31.039454 L17.6308337,27.7490262 Z" id="Shape" fill="#FFC200" fill-rule="nonzero"></path>
                        <path d="M53,32 C53,32.3446702 52.991688,32.6883948 52.9751135,33.0309756 C52.9368691,33.8214555 52.0390853,34.2563764 51.3950751,33.7964068 L44.4187933,28.813756 C43.9789725,28.4996239 43.8683447,27.8928668 44.1690008,27.4437263 L48.1690008,21.4682564 C48.3546198,21.1909662 48.6663172,21.02453 49,21.02453 L49.3385227,21.02453 C49.6959953,21.02453 50.0262808,21.215348 50.2048377,21.5250319 C52.0267819,24.6849586 53,28.2727146 53,32 Z" id="Shape" fill="#183B56" fill-rule="nonzero"></path>
                        <path d="M49.0902359,23.6874058 L46.3706594,27.7500927 L50.9761422,31.0394542 C50.8476124,28.4575986 50.2018718,25.9679244 49.0902359,23.6874058 Z" id="Shape" fill="#36B37E" fill-rule="nonzero"></path>
                        <path d="M25.3428988,13.6694069 C24.7539098,13.1559761 24.954897,12.1956886 25.7003504,11.9615552 C27.7218892,11.3266266 29.83954,11 32,11 C34.1649081,11 36.2868179,11.3279734 38.3120872,11.9654659 C39.0576944,12.2001602 39.2578482,13.1611483 38.6679397,13.6740026 L32.6560988,18.900573 C32.2794723,19.2280044 31.7190898,19.227632 31.3428988,18.8997004 L25.3428988,13.6694069 Z" id="Shape" fill="#183B56" fill-rule="nonzero"></path>
                        <path d="M32.000881,16.8200583 L35.9276429,13.4062125 C34.6472611,13.1371698 33.3331491,13 32,13 C30.6702929,13 29.3595206,13.1364621 28.0822593,13.4041348 L32.000881,16.8200583 Z" id="Shape" fill="#36B37E" fill-rule="nonzero"></path>
                        <path d="M31.4,23.2 C31.7555556,22.9333333 32.2444444,22.9333333 32.6,23.2 L40.6,29.2 C40.9443443,29.4582582 41.0847973,29.9078856 40.9486833,30.3162278 L37.9486833,39.3162278 C37.8125693,39.7245699 37.4304304,40 37,40 L27,40 C26.5695696,40 26.1874307,39.7245699 26.0513167,39.3162278 L23.0513167,30.3162278 C22.9152027,29.9078856 23.0556557,29.4582582 23.4,29.2 L31.4,23.2 Z M25.1766074,30.3675445 L27.7207592,38 L36.2792408,38 L38.8233926,30.3675445 L32,25.25 L25.1766074,30.3675445 Z" id="Shape" fill="#183B56" fill-rule="nonzero"></path>
                        <polygon id="Shape" fill="#183B56" fill-rule="nonzero" points="24.3713907 29.0715233 19.3713907 27.0715233 18.6286093 28.9284767 23.6286093 30.9284767"></polygon>
                        <polygon id="Shape" fill="#183B56" fill-rule="nonzero" points="26.2928932 38.2928932 22.2928932 42.2928932 23.7071068 43.7071068 27.7071068 39.7071068"></polygon>
                        <polygon id="Path" fill="#183B56" fill-rule="nonzero" points="37.8 38.4 40.8 42.4 39.2 43.6 36.2 39.6"></polygon>
                        <polygon id="Path" fill="#183B56" fill-rule="nonzero" points="45.3713907 28.9284767 40.3713907 30.9284767 39.6286093 29.0715233 44.6286093 27.0715233"></polygon>
                        <polygon id="Shape" fill="#183B56" fill-rule="nonzero" points="33.0058594 24.1298828 33.0058594 17.9907433 31.0058594 17.9907433 31.0058594 24.1298828"></polygon>
                    </g>
                </g>
            </g>
        </g>
    </g>
</svg>