<?xml version="1.0" encoding="UTF-8"?>
<svg width="64px" height="64px" viewBox="0 0 64 64" version="1.1" xmlns="http://www.w3.org/2000/svg" xmlns:xlink="http://www.w3.org/1999/xlink">
    <title>iconspace_Controller 2</title>
    <g id="[NEW-UPDATE-Landing]" stroke="none" stroke-width="1" fill="none" fill-rule="evenodd">
        <g id="51---E-Commerce" transform="translate(-590.000000, -3022.000000)">
            <g id="Ccategories" transform="translate(150.000000, 2787.000000)">
                <g id="Item" transform="translate(390.000000, 202.000000)">
                    <g id="iconspace_Controller-2" transform="translate(50.000000, 33.000000)">
                        <circle id="Shape" cx="32" cy="32" r="32"></circle>
                        <path d="M31.0209961,12.0443115 L31.0209961,22.0443115 C31.0209961,22.5965963 31.4687113,23.0443115 32.0209961,23.0443115 C32.5732808,23.0443115 33.0209961,22.5965963 33.0209961,22.0443115 L33.0209961,12.0443115 C33.0209961,11.4920268 32.5732808,11.0443115 32.0209961,11.0443115 C31.4687113,11.0443115 31.0209961,11.4920268 31.0209961,12.0443115 Z" id="Shape" fill="#183B56" fill-rule="nonzero"></path>
                        <path d="M31,15 L33,15 C34.6568542,15 36,16.3431458 36,18 L36,24 L28,24 L28,18 C28,16.3431458 29.3431458,15 31,15 Z" id="Shape" fill="#183B56" fill-rule="nonzero"></path>
                        <path d="M34,22 L34,18 C34,17.4477153 33.5522847,17 33,17 L31,17 C30.4477153,17 30,17.4477153 30,18 L30,22 L34,22 Z" id="Shape" fill="#36B37E" fill-rule="nonzero"></path>
                        <path d="M22.8195508,44.7494838 L21.7650452,48.2737934 C21.2154277,51.0218811 18.8025105,53 16,53 C13.2385763,53 11,50.7614237 11.0031813,47.9202548 L12.2679701,32.1104376 C12.7399863,26.2102349 17.0049664,21.3078359 22.7830695,20.0238129 L23.1058512,19.9520837 C28.9638344,18.6503096 35.0361656,18.6503096 40.8941488,19.9520837 L41.2169305,20.0238129 C46.9950336,21.3078359 51.2600137,26.2102349 51.7320299,32.1104376 L53,48 C53,50.7614237 50.7614237,53 48,53 C45.1974895,53 42.7845723,51.0218811 42.2572082,48.3633499 L41.179863,44.7492505 C35.2813469,42.4206481 28.7180234,42.4207251 22.8195508,44.7494838 Z" id="Shape" fill="#183B56" fill-rule="nonzero"></path>
                        <path d="M42.9583273,43.7143274 L44.1961161,47.8815612 C44.558764,49.6948004 46.1508515,51 48,51 C49.6568542,51 51,49.6568542 51.0031847,48.0797452 L49.7383993,32.269928 C49.3364002,27.2449389 45.7040709,23.0697429 40.7830695,21.9761871 L40.4602879,21.9044578 C34.8880599,20.6661849 29.1119401,20.6661849 23.5397121,21.9044578 L23.2169305,21.9761871 C18.2959291,23.0697429 14.6635998,27.2449389 14.2616007,32.269928 L13,48 C13,49.6568542 14.3431458,51 16,51 C17.8491485,51 19.441236,49.6948004 19.8261373,47.7920047 L21.0416727,43.7143274 C21.1289089,43.4216818 21.3450793,43.1849353 21.6286093,43.0715233 L21.9724517,42.9339863 C28.4095496,40.3591472 35.5904504,40.3591472 42.0275483,42.9339863 L42.3713907,43.0715233 C42.6549207,43.1849353 42.8710911,43.4216818 42.9583273,43.7143274 Z" id="Shape" fill="#FFFFFF" fill-rule="nonzero"></path>
                        <path d="M25.967218,30.967218 L27.967218,30.967218 C29.0717875,30.967218 29.967218,31.8626485 29.967218,32.967218 C29.967218,34.0717875 29.0717875,34.967218 27.967218,34.967218 L25.967218,34.967218 L25.967218,36.967218 C25.967218,38.0717875 25.0717875,38.967218 23.967218,38.967218 C22.8626485,38.967218 21.967218,38.0717875 21.967218,36.967218 L21.967218,34.967218 L20.0335922,34.967218 C18.9235656,34.967218 18.0186096,34.0770931 18.0002686,32.967218 C18,32.9563826 18,32.945546 18,32.9347091 C18,31.8480938 18.8808758,30.967218 19.9674911,30.967218 L21.967218,30.967218 L21.967218,29.0335922 C21.967218,27.9235656 22.8573429,27.0186096 23.967218,27.0002686 C23.9780534,27 23.9888901,27 23.9997269,27 C25.0863423,27 25.967218,27.8808758 25.967218,28.9674911 L25.967218,30.967218 Z" id="Shape" fill="#36B37E"></path>
                        <circle id="Shape" fill="#FFC200" cx="41" cy="28" r="2"></circle>
                        <circle id="Shape" fill="#FFC200" cx="41" cy="36" r="2"></circle>
                        <circle id="Shape" fill="#FFC200" cx="37" cy="32" r="2"></circle>
                        <circle id="Shape" fill="#FFC200" cx="45" cy="32" r="2"></circle>
                    </g>
                </g>
            </g>
        </g>
    </g>
</svg>