<svg xmlns="http://www.w3.org/2000/svg" width="18" height="18" viewBox="0 0 18 18">
    <g fill="none" fill-rule="evenodd">
        <path d="M0 0L18 0 18 18 0 18z"/>
        <path fill="#5A7184" d="M4.206 4.41l-.13-1.083c-.047-.458-.434-.807-.895-.807H2.7c-.298 0-.54-.242-.54-.54 0-.298.242-.54.54-.54h.481c1.015 0 1.865.768 1.969 1.778l.098.96H16.2c.227 0 .397.208.353.43l-.957 4.88c-.231 1.182-1.267 2.035-2.47 2.035H7.39c.165.73.818 1.259 1.578 1.259h4.517c.027 0 .053.002.04.004.04-.003.08-.004.12-.004.893 0 1.618.725 1.618 1.619s-.725 1.619-1.619 1.619-1.619-.725-1.619-1.62c0-.185.032-.367.093-.539h-1.983c.06.172.092.354.092.54 0 .894-.724 1.619-1.618 1.619-.894 0-1.62-.725-1.62-1.62 0-.393.143-.765.392-1.055-.613-.447-1.018-1.136-1.096-1.905l-.009-.082c-.878-.334-1.526-1.147-1.613-2.134l-.217-2.488c-.004-.015-.006-.031-.008-.047l-.233-2.28zM8.61 15.12c.397 0 .719-.322.719-.72 0-.397-.322-.719-.72-.719-.397 0-.719.322-.719.72 0 .397.322.72.72.72zm5.035 0c.397 0 .72-.322.72-.72 0-.397-.323-.719-.72-.719-.397 0-.72.322-.72.72 0 .397.323.72.72.72z"/>
    </g>
</svg>
