<?xml version="1.0" encoding="UTF-8"?>
<svg width="134px" height="41px" viewBox="0 0 134 41" version="1.1" xmlns="http://www.w3.org/2000/svg" xmlns:xlink="http://www.w3.org/1999/xlink">
    <title>slack</title>
    <g id="[NEW-UPDATE-Landing]" stroke="none" stroke-width="1" fill="none" fill-rule="evenodd">
        <g id="53---Personal-Web-Designer" transform="translate(-213.000000, -805.000000)" fill="#8C98A4" fill-rule="nonzero">
            <g id="Partners" transform="translate(150.000000, 805.000000)">
                <g id="Item" transform="translate(15.000000, 0.110000)">
                    <g id="slack" transform="translate(48.400002, 0.000000)">
                        <g id="Group-4" transform="translate(3.973135, 1.335172)">
                            <path d="M19.8656725,2.5368277 C19.3359212,0.801103483 17.4817918,-0.133517247 15.7601002,0.400551742 C14.0384086,0.93462073 13.1113439,2.80386219 13.6410951,4.5395864 L22.1171154,30.8424841 C22.7130856,32.4446911 24.4347772,33.3793118 26.0902499,32.9120014 C27.8119415,32.3779324 28.871444,30.5754496 28.3416928,28.8397254 C28.3416928,28.7729668 19.8656725,2.5368277 19.8656725,2.5368277" id="Fill-1"></path>
                            <path d="M6.75432865,6.87613823 C6.22457738,5.14041402 4.37044795,4.20579329 2.64875633,4.73986227 C0.927064717,5.27393126 3.33066907e-16,7.14317272 0.529751267,8.87889694 L9.00577153,35.1817946 C9.60174171,36.7840016 11.3234333,37.7186223 12.978906,37.251312 C14.7005977,36.717243 15.7601002,34.9147601 15.2303489,33.1790359 C15.2303489,33.1122773 6.75432865,6.87613823 6.75432865,6.87613823" id="Fill-3"></path>
                        </g>
                        <path d="M34.5662702,25.7020701 C36.2879618,25.1680011 37.2150265,23.2987596 36.6852752,21.5630354 C36.155524,19.8273112 34.3013945,18.8926905 32.5797029,19.4267595 L6.42323411,27.9051047 C4.83398031,28.5059323 3.90691559,30.2416565 4.37044795,31.9106221 C4.90019922,33.6463463 6.68810974,34.7144843 8.40980136,34.1804153 C8.54223918,34.1804153 34.5662702,25.7020701 34.5662702,25.7020701" id="Fill-5"></path>
                        <path d="M11.8531846,33.1122773 C13.5748762,32.5782083 15.7601002,31.8438634 18.077762,31.04276 C17.5480107,29.3070358 16.8196027,27.1040012 16.0249758,24.7674493 L9.80039843,26.8369667 L11.8531846,33.1122773" id="Fill-6"></path>
                        <g id="Group-10" transform="translate(0.000000, 5.340690)">
                            <path d="M25.0307474,23.4322769 C27.4146281,22.6311734 29.599852,21.9635872 31.2553247,21.3627595 C30.7255735,19.6270353 29.9971655,17.4240008 29.2025386,15.0874489 L22.9779612,17.1569663 L25.0307474,23.4322769" id="Fill-7"></path>
                            <path d="M30.2620411,7.0764141 C31.9837327,6.54234511 32.9107974,4.67310365 32.3810462,2.93737944 C31.8512949,1.20165522 29.9971655,0.267034494 28.2754739,0.801103483 L2.18522398,9.3462073 C0.595970175,9.94703491 -0.331094542,11.6827591 0.132437817,13.3517247 C0.662189083,15.1542076 2.45009961,16.2223455 4.17179123,15.6215179 C4.23801013,15.6215179 30.2620411,7.0764141 30.2620411,7.0764141" id="Fill-9"></path>
                        </g>
                        <path d="M7.61517446,19.8273112 C9.33686608,19.2932422 11.5220901,18.5588974 13.8397518,17.7577939 C13.0451249,15.3544834 12.3829359,13.1514488 11.7869657,11.4824833 L5.5623883,13.5520006 L7.61517446,19.8273112" id="Fill-11"></path>
                        <path d="M20.7265183,15.5547593 C23.110399,14.7536558 25.295623,14.0860696 26.9510957,13.485242 C26.1564688,11.0819315 25.4942797,8.87889694 24.8983095,7.20993135 L18.6737322,9.27944868 L20.7265183,15.5547593" id="Fill-12"></path>
                        <path d="M60.9876146,10.814897 C62.113336,11.348966 62.2457738,11.6827591 61.3187091,13.4184833 C60.3916444,15.2209662 60.1929877,15.2877248 59.0010473,14.8204144 C57.5442314,14.2195868 55.7563208,13.7522765 54.5643805,13.7522765 C52.6440321,13.7522765 51.3858729,14.4198627 51.3858729,15.4880007 C51.3858729,18.9594491 62.4444306,17.0902076 62.4444306,24.5671735 C62.4444306,28.3056564 59.265923,30.7757255 54.4981616,30.7757255 C51.981843,30.7757255 48.8695544,29.9078634 46.7505493,28.8397254 C45.6910468,28.3056564 45.6248278,27.9718633 46.5518926,26.1693804 C47.3465195,24.6339321 47.6113951,24.4336562 48.7371165,24.9009666 C50.591246,25.7020701 52.8426889,26.3028977 54.4319427,26.3028977 C56.2198532,26.3028977 57.3455746,25.5685528 57.3455746,24.5004149 C57.3455746,21.0957251 46.0883602,22.697932 46.0883602,15.4880007 C46.0883602,11.6827591 49.2668678,9.07917281 53.9684103,9.07917281 C56.2198532,9.27944868 59.0672662,9.94703491 60.9876146,10.814897" id="Fill-13"></path>
                        <path d="M69.9271672,2.00275871 L69.9271672,29.7743461 C69.9271672,30.1748979 69.4636349,30.6422082 68.8676647,30.6422082 L65.9540327,30.6422082 C65.2918436,30.6422082 64.8945302,30.1748979 64.8945302,29.7743461 L64.8945302,2.00275871 C64.8945302,0.600827612 65.2918436,0.534068989 67.4108487,0.534068989 C69.7947294,0.467310365 69.9271672,0.667586236 69.9271672,2.00275871" id="Fill-14"></path>
                        <path d="M77.1450282,24.5004149 C77.1450282,25.902346 78.3369686,26.8369667 80.1248791,26.8369667 C82.3101031,26.8369667 84.2966703,25.7688287 85.4223918,23.9663459 L85.4223918,22.0971044 C84.2966703,21.629794 82.8398543,21.4295182 81.5816951,21.4295182 C78.9329387,21.4295182 77.1450282,22.7646906 77.1450282,24.5004149 Z M90.4550288,17.557518 L90.4550288,29.5073116 C90.4550288,30.1748979 89.9914964,30.5754496 89.3955263,30.5754496 L86.5481132,30.5754496 C85.8859241,30.5754496 85.4223918,30.1081392 85.4886107,29.440553 L85.5548296,28.1721392 C84.0317947,29.9078634 81.7803518,30.8424841 79.5289089,30.8424841 C75.2246799,30.8424841 72.3110479,28.3056564 72.3110479,24.5671735 C72.3110479,20.5616561 75.5557744,17.8913111 80.5221925,17.8913111 C82.376322,17.8913111 84.0980136,18.2251042 85.4886107,18.8259319 L85.4886107,17.4240008 C85.4886107,15.2209662 83.7669191,13.8857937 80.8532871,13.8857937 C79.46269,13.8857937 77.8072173,14.4198627 76.4828391,15.2209662 C75.4233366,15.8217938 75.2246799,15.7550352 74.0989584,14.0860696 C73.0394559,12.417104 73.0394559,12.0833109 74.0989584,11.4157246 C76.0855257,10.0805522 78.8667198,9.27944868 81.3830384,9.27944868 C86.9454267,9.27944868 90.4550288,12.3503454 90.4550288,17.557518 L90.4550288,17.557518 Z" id="Fill-15"></path>
                        <g id="Group-19" transform="translate(92.706472, 0.000000)">
                            <path d="M17.4155729,10.8816556 C18.4750754,11.4824833 18.4750754,11.8162764 17.349354,13.6187592 C16.2898515,15.2877248 16.0911947,15.421242 14.8992544,14.8204144 C14.0384086,14.3531041 12.5815926,13.9525523 11.4558711,13.9525523 C7.81383118,13.9525523 5.42995048,16.3558628 5.42995048,20.0275871 C5.42995048,23.8328286 7.81383118,26.3696563 11.4558711,26.3696563 C12.7140304,26.3696563 14.3032842,25.902346 15.2965678,25.3015183 C16.3560704,24.7006907 16.5547271,24.7006907 17.6804485,26.3696563 C18.6737322,27.9051047 18.6737322,28.2388978 17.7466674,28.906484 C16.1574136,30.0413806 13.5748762,30.9092427 11.3234333,30.9092427 C4.63532358,30.9092427 0.132437817,26.5699322 0.132437817,20.0943457 C0.132437817,13.6187592 4.63532358,9.3462073 11.3896522,9.3462073 C13.5086573,9.27944868 15.892538,9.94703491 17.4155729,10.8816556" id="Fill-16"></path>
                            <path d="M39.3340316,27.9718633 C40.1948774,29.0400013 39.8637828,29.440553 37.7447778,30.1748979 C35.6257727,30.9760013 35.2946781,30.9092427 34.5662702,29.9078634 L28.5403495,21.8300699 L25.8253743,24.4336562 L25.8253743,29.7075875 C25.8253743,30.1081392 25.3618419,30.5754496 24.7658717,30.5754496 L21.8522398,30.5754496 C21.1900507,30.5754496 20.7927372,30.1081392 20.7927372,29.7075875 L20.7927372,2.00275871 C20.7927372,0.600827612 21.1900507,0.534068989 23.3090557,0.534068989 C25.7591553,0.534068989 25.8253743,0.734344859 25.8253743,2.00275871 L25.8253743,17.7577939 L34.0365189,9.81351767 C34.9635836,8.94565556 35.427116,9.01241418 37.0825887,10.0805522 C38.8704992,11.2154488 39.002937,11.5492419 38.1420912,12.417104 L32.0499516,18.4253801 L39.3340316,27.9718633" id="Fill-18"></path>
                        </g>
                    </g>
                </g>
            </g>
        </g>
    </g>
</svg>