<?xml version="1.0" encoding="UTF-8"?>
<svg width="81px" height="81px" viewBox="0 0 81 81" version="1.1" xmlns="http://www.w3.org/2000/svg" xmlns:xlink="http://www.w3.org/1999/xlink">
    <title>Icon</title>
    <g id="[NEW-UPDATE-Landing]" stroke="none" stroke-width="1" fill="none" fill-rule="evenodd">
        <g id="55---Education-01" transform="translate(-538.000000, -116.000000)">
            <g id="Icon" transform="translate(538.000000, 116.000000)">
                <g id="Elements/Shape/Fill/99-R">
                    <rect id="Shadow" x="0" y="0" width="81" height="81"></rect>
                    <rect id="Fill" fill="#FAAD13" x="0" y="0" width="81" height="81"></rect>
                </g>
                <g id="iconspace_Bulb_25px" transform="translate(20.000000, 20.000000)">
                    <polygon id="Path" points="0 0 42 0 42 42 0 42"></polygon>
                    <path d="M26.88,33.6 L26.88,34.44 C26.88,35.8317576 25.7517576,36.96 24.36,36.96 L17.64,36.96 C16.2482424,36.96 15.12,35.8317576 15.12,34.44 L15.12,33.6 L26.88,33.6 Z M26.04,28.56 C26.5039192,28.56 26.88,28.9360808 26.88,29.4 L26.88,31.92 L15.12,31.92 L15.12,29.4 C15.12,28.9360808 15.4960808,28.56 15.96,28.56 L26.04,28.56 Z M21,5.04 C27.018493,5.04 31.92,9.61473983 31.92,15.288 C31.92,17.5544478 30.5367051,21.0126407 27.7851549,25.7631872 C27.5797212,26.1178692 27.4077374,26.4920431 27.2707713,26.88 L23.52,26.88 L23.52,22.68 C23.52,21.2882424 24.6482424,20.16 26.04,20.16 C26.5039192,20.16 26.88,19.7839192 26.88,19.32 C26.88,18.8560808 26.5039192,18.48 26.04,18.48 C23.7204041,18.48 21.84,20.3604041 21.84,22.68 L21.84,26.88 L20.16,26.88 L20.16,22.68 C20.16,20.3604041 18.2795959,18.48 15.96,18.48 C15.4960808,18.48 15.12,18.8560808 15.12,19.32 C15.12,19.7839192 15.4960808,20.16 15.96,20.16 C17.3517576,20.16 18.48,21.2882424 18.48,22.68 L18.48,26.88 L14.7292308,26.88 C14.5922649,26.4920446 14.4202811,26.117872 14.2148474,25.7631911 C11.4632954,21.0126422 10.08,17.5544483 10.08,15.288 C10.08,9.61473983 14.981507,5.04 21,5.04 Z" id="Combined-Shape" fill="#FFFFFF"></path>
                </g>
            </g>
        </g>
    </g>
</svg>