<?xml version="1.0" encoding="UTF-8"?>
<svg width="72px" height="72px" viewBox="0 0 72 72" version="1.1" xmlns="http://www.w3.org/2000/svg" xmlns:xlink="http://www.w3.org/1999/xlink">
    <title>Icon</title>
    <g id="[NEW-UPDATE-Landing]" stroke="none" stroke-width="1" fill="none" fill-rule="evenodd">
        <g id="55---Education-01" transform="translate(-1146.000000, -3810.000000)">
            <g id="Testimonial" transform="translate(0.000000, 3735.000000)">
                <g id="Image" transform="translate(822.000000, 0.000000)">
                    <g id="Icon" transform="translate(324.000000, 75.000000)">
                        <g id="Elements/Shape/Fill/99-R">
                            <rect id="Shadow" x="0" y="0" width="72" height="72"></rect>
                            <rect id="Fill" fill="#36B37E" x="0" y="0" width="72" height="72"></rect>
                        </g>
                        <g id="iconspace_Camera-1_25px" transform="translate(21.000000, 21.000000)">
                            <polygon id="Path" points="0 0 30 0 30 30 0 30"></polygon>
                            <path d="M18.6,3.6 C18.7685681,3.6 18.9301661,3.64264957 19.0844488,3.71789716 C19.372374,3.85832559 19.6285383,4.10515993 19.8817579,4.43377493 C20.0781862,4.68868919 20.2325528,4.93863091 20.3366563,5.13167184 L21.3708204,7.2 L23.4,7.2 C25.7195959,7.2 27.6,9.08040405 27.6,11.4 L27.6,22.2 C27.6,24.5195959 25.7195959,26.4 23.4,26.4 L6.6,26.4 C4.28040405,26.4 2.4,24.5195959 2.4,22.2 L2.4,11.4 C2.4,9.08040405 4.28040405,7.2 6.6,7.2 L8.6292278,7.2 L9.67230679,5.11444813 C9.76744717,4.93863091 9.92181375,4.68868919 10.1182421,4.43377493 C10.3714617,4.10515993 10.627626,3.85832559 10.9155512,3.71789716 C11.0698339,3.64264957 11.2314319,3.6 11.4,3.6 L18.6,3.6 Z M15,10.8 C12.0176624,10.8 9.6,13.2176624 9.6,16.2 C9.6,19.1823376 12.0176624,21.6 15,21.6 C17.9823376,21.6 20.4,19.1823376 20.4,16.2 C20.4,13.2176624 17.9823376,10.8 15,10.8 Z M15,12 C17.3195959,12 19.2,13.8804041 19.2,16.2 C19.2,18.5195959 17.3195959,20.4 15,20.4 C12.6804041,20.4 10.8,18.5195959 10.8,16.2 C10.8,13.8804041 12.6804041,12 15,12 Z M7.2,10.8 C6.5372583,10.8 6,11.3372583 6,12 C6,12.6627417 6.5372583,13.2 7.2,13.2 C7.8627417,13.2 8.4,12.6627417 8.4,12 C8.4,11.3372583 7.8627417,10.8 7.2,10.8 Z" id="Combined-Shape" fill="#FFFFFF"></path>
                        </g>
                    </g>
                </g>
            </g>
        </g>
    </g>
</svg>