<?xml version="1.0" encoding="UTF-8"?>
<svg width="32px" height="32px" viewBox="0 0 32 32" version="1.1" xmlns="http://www.w3.org/2000/svg" xmlns:xlink="http://www.w3.org/1999/xlink">
    <title>iconspace_Recomended</title>
    <g id="[NEW-UPDATE-Landing]" stroke="none" stroke-width="1" fill="none" fill-rule="evenodd">
        <g id="55---Education-01" transform="translate(-467.000000, -1833.000000)">
            <g id="Section" transform="translate(150.000000, 1547.000000)">
                <g id="iconspace_Recomended" transform="translate(317.000000, 286.000000)">
                    <circle id="Shape" fill="#36B37E" opacity="0.100000001" cx="16" cy="16" r="16"></circle>
                    <path d="M16,26.5 C21.7989899,26.5 26.5,21.7989899 26.5,16 C26.5,10.2010101 21.7989899,5.5 16,5.5 C10.2010101,5.5 5.5,10.2010101 5.5,16 C5.5,21.7989899 10.2010101,26.5 16,26.5 Z" id="Shape" fill="#183B56"></path>
                    <path d="M16,25.5 C10.7532949,25.5 6.5,21.2467051 6.5,16 C6.5,10.7532949 10.7532949,6.5 16,6.5 C21.2467051,6.5 25.5,10.7532949 25.5,16 C25.5,21.2467051 21.2467051,25.5 16,25.5 Z" id="Shape" fill="#36B37E" fill-rule="nonzero"></path>
                    <path d="M16,24.5 C20.6944204,24.5 24.5,20.6944204 24.5,16 C24.5,11.3055796 20.6944204,7.5 16,7.5 C11.3055796,7.5 7.5,11.3055796 7.5,16 C7.5,20.6944204 11.3055796,24.5 16,24.5 Z" id="Shape" fill="#183B56"></path>
                    <path d="M16,23.5 C11.8578644,23.5 8.5,20.1421356 8.5,16 C8.5,11.8578644 11.8578644,8.5 16,8.5 C20.1421356,8.5 23.5,11.8578644 23.5,16 C23.5,20.1421356 20.1421356,23.5 16,23.5 Z" id="Shape" fill="#FFFFFF" fill-rule="nonzero"></path>
                    <path d="M14.2139769,20.8547826 C13.6228331,21.1789681 12.8914015,20.9417995 12.5862609,20.3363567 C12.4672317,20.1001856 12.4263509,19.8309426 12.4693868,19.5692024 L12.8151858,17.4660901 L11.3538926,15.9802518 C10.8904252,15.5089997 10.8810484,14.7437482 11.3324642,14.2606712 C11.515793,14.0644842 11.7580195,13.9357409 12.021535,13.8957986 L14.0239291,13.5922854 L14.9232839,11.6914048 C15.2131982,11.0786407 15.9380422,10.8222385 16.5371243,11.1306541 C16.7729,11.2520346 16.9621478,11.449444 17.0766256,11.6914048 L17.9759805,13.5922854 L19.9783746,13.8957986 C20.6343292,13.995225 21.0803877,14.6187327 20.9878873,15.2827659 C20.951125,15.5466715 20.8314229,15.7917317 20.6460169,15.9802518 L19.1847237,17.4660901 L19.5305227,19.5692024 C19.639226,20.230324 19.2090794,20.8647999 18.5563518,20.9815795 C18.2926752,21.028754 18.021456,20.9839445 17.7859327,20.8547826 L15.9999548,19.8753453 L14.2139769,20.8547826 Z" id="Shape" fill="#183B56"></path>
                    <path d="M16.2403767,18.8666908 L18.2667766,19.9779764 C18.3024707,19.9975512 18.3419095,20.0040671 18.380238,19.9972097 C18.4859259,19.9783011 18.5651472,19.8614479 18.543772,19.7314464 L18.1567641,17.3777056 C18.1308664,17.2201987 18.1817281,17.0597927 18.2936538,16.9459869 L19.9330458,15.2790585 C19.9670594,15.2444736 19.9901511,15.1971991 19.9974507,15.1447971 C20.0156016,15.0144975 19.9340491,14.9005022 19.8285112,14.8845053 L17.5629273,14.5410991 C17.3983995,14.5161608 17.2570603,14.4110035 17.1858924,14.2605826 L16.1726924,12.1190785 C16.1515615,12.0744162 16.1184028,12.0398274 16.0794052,12.0197509 C15.988458,11.9729301 15.8778527,12.012055 15.8272171,12.1190785 L14.8140172,14.2605826 C14.7428492,14.4110035 14.60151,14.5161608 14.4369822,14.5410991 L12.1713983,14.8845053 C12.1316834,14.8905251 12.0936613,14.9107338 12.063109,14.943429 C11.977412,15.0351366 11.97931,15.190034 12.0668638,15.2790585 L13.7062557,16.9459869 C13.8181815,17.0597927 13.8690431,17.2201987 13.8431455,17.3777056 L13.4561375,19.7314464 C13.4473756,19.7847355 13.4556981,19.839548 13.4792563,19.8862909 C13.532191,19.991321 13.6431771,20.0273085 13.7331329,19.9779764 L15.7595328,18.8666908 C15.9092932,18.7845615 16.0906163,18.7845615 16.2403767,18.8666908 Z" id="Shape" fill="#FAAD13"></path>
                </g>
            </g>
        </g>
    </g>
</svg>