<?xml version="1.0" encoding="UTF-8"?>
<svg width="64px" height="64px" viewBox="0 0 64 64" version="1.1" xmlns="http://www.w3.org/2000/svg" xmlns:xlink="http://www.w3.org/1999/xlink">
    <title>iconspace_Debit Card</title>
    <g id="[NEW-UPDATE-Landing]" stroke="none" stroke-width="1" fill="none" fill-rule="evenodd">
        <g id="55---Education-01" transform="translate(-833.000000, -2399.000000)">
            <g id="How-to-Join" transform="translate(0.000000, 2083.000000)">
                <g id="Item" transform="translate(734.000000, 316.000000)">
                    <g id="iconspace_Debit-Card" transform="translate(99.000000, 0.000000)">
                        <circle id="Shape" fill="#EAF7F2" cx="32" cy="32" r="32"></circle>
                        <path d="M14,17 L50,17 C51.6568542,17 53,18.3431458 53,20 L53,44 C53,45.6568542 51.6568542,47 50,47 L14,47 C12.3431458,47 11,45.6568542 11,44 L11,20 C11,18.3431458 12.3431458,17 14,17 Z" id="Shape" fill="#183B56"></path>
                        <path d="M14,19 C13.4477153,19 13,19.4477153 13,20 L13,44 C13,44.5522847 13.4477153,45 14,45 L50,45 C50.5522847,45 51,44.5522847 51,44 L51,20 C51,19.4477153 50.5522847,19 50,19 L14,19 Z" id="Shape" fill="#FFFFFF" fill-rule="nonzero"></path>
                        <path d="M11,23 C11,22.4477153 11.4477153,22 12,22 L52,22 C52.5522847,22 53,22.4477153 53,23 L53,29 C53,29.5522847 52.5522847,30 52,30 L12,30 C11.4477153,30 11,29.5522847 11,29 L11,23 Z" id="Shape" fill="#183B56"></path>
                        <polygon id="Shape" fill="#36B37E" points="13 24 13 28 51 28 51 24"></polygon>
                        <path d="M17,38 L25,38 C25.5522847,38 26,38.4477153 26,39 C26,39.5522847 25.5522847,40 25,40 L17,40 C16.4477153,40 16,39.5522847 16,39 C16,38.4477153 16.4477153,38 17,38 Z" id="Shape" fill="#FFC200"></path>
                        <path d="M29,38 L34,38 C34.5522847,38 35,38.4477153 35,39 C35,39.5522847 34.5522847,40 34,40 L29,40 C28.4477153,40 28,39.5522847 28,39 C28,38.4477153 28.4477153,38 29,38 Z" id="Shape" fill="#FFC200"></path>
                        <path d="M17,34 L21,34 C21.5522847,34 22,34.4477153 22,35 C22,35.5522847 21.5522847,36 21,36 L17,36 C16.4477153,36 16,35.5522847 16,35 C16,34.4477153 16.4477153,34 17,34 Z" id="Shape" fill="#FFC200"></path>
                        <path d="M25,34 L28,34 C28.5522847,34 29,34.4477153 29,35 C29,35.5522847 28.5522847,36 28,36 L25,36 C24.4477153,36 24,35.5522847 24,35 C24,34.4477153 24.4477153,34 25,34 Z" id="Shape" fill="#FFC200"></path>
                    </g>
                </g>
            </g>
        </g>
    </g>
</svg>