<?xml version="1.0" encoding="UTF-8"?>
<svg width="64px" height="64px" viewBox="0 0 64 64" version="1.1" xmlns="http://www.w3.org/2000/svg" xmlns:xlink="http://www.w3.org/1999/xlink">
    <title>iconspace_Note</title>
    <g id="[NEW-UPDATE-Landing]" stroke="none" stroke-width="1" fill="none" fill-rule="evenodd">
        <g id="55---Education-01" transform="translate(-542.000000, -2399.000000)">
            <g id="How-to-Join" transform="translate(0.000000, 2083.000000)">
                <g id="Item" transform="translate(442.000000, 316.000000)">
                    <g id="iconspace_Note" transform="translate(100.000000, 0.000000)">
                        <circle id="Shape" fill="#EAF7F2" cx="32" cy="32" r="32"></circle>
                        <path d="M15,16 L49,16 C49.5522847,16 50,16.4477153 50,17 L50,49 C50,50.6568542 48.6568542,52 47,52 L17,52 C15.3431458,52 14,50.6568542 14,49 L14,17 C14,16.4477153 14.4477153,16 15,16 Z" id="Shape" fill="#FFFFFF"></path>
                        <path d="M15,15 L49,15 C50.1045695,15 51,15.8954305 51,17 L51,49 C51,51.209139 49.209139,53 47,53 L17,53 C14.790861,53 13,51.209139 13,49 L13,17 C13,15.8954305 13.8954305,15 15,15 Z M15,17 L15,49 C15,50.1045695 15.8954305,51 17,51 L47,51 C48.1045695,51 49,50.1045695 49,49 L49,17 L15,17 Z" id="Shape" fill="#183B56"></path>
                        <path d="M22,37 L42,37 C42.5522847,37 43,36.5522847 43,36 C43,35.4477153 42.5522847,35 42,35 L22,35 C21.4477153,35 21,35.4477153 21,36 C21,36.5522847 21.4477153,37 22,37 Z" id="Shape" fill="#36B37E"></path>
                        <path d="M22,29 L42,29 C42.5522847,29 43,28.5522847 43,28 C43,27.4477153 42.5522847,27 42,27 L22,27 C21.4477153,27 21,27.4477153 21,28 C21,28.5522847 21.4477153,29 22,29 Z" id="Shape" fill="#36B37E"></path>
                        <path d="M22,45 L38,45 C38.5522847,45 39,44.5522847 39,44 C39,43.4477153 38.5522847,43 38,43 L22,43 C21.4477153,43 21,43.4477153 21,44 C21,44.5522847 21.4477153,45 22,45 Z" id="Shape" fill="#36B37E"></path>
                        <polygon id="Shape" fill="#FFC200" points="20 12.3333333 20 18.6666667 24 18.6666667 24 12.3333333"></polygon>
                        <polygon id="Shape" fill="#FFC200" points="30 12.3333333 30 18.6666667 34 18.6666667 34 12.3333333"></polygon>
                        <polygon id="Shape" fill="#FFC200" points="40 12.3333333 40 18.6666667 44 18.6666667 44 12.3333333"></polygon>
                        <path d="M19,12.3333333 L19,18.6666667 C19,19.2189514 19.4477153,19.6666667 20,19.6666667 L24,19.6666667 C24.5522847,19.6666667 25,19.2189514 25,18.6666667 L25,12.3333333 C25,11.7810486 24.5522847,11.3333333 24,11.3333333 L20,11.3333333 C19.4477153,11.3333333 19,11.7810486 19,12.3333333 Z M23,13.3333333 L23,17.6666667 L21,17.6666667 L21,13.3333333 L23,13.3333333 Z" id="Shape" fill="#183B56"></path>
                        <path d="M29,12.3333333 L29,18.6666667 C29,19.2189514 29.4477153,19.6666667 30,19.6666667 L34,19.6666667 C34.5522847,19.6666667 35,19.2189514 35,18.6666667 L35,12.3333333 C35,11.7810486 34.5522847,11.3333333 34,11.3333333 L30,11.3333333 C29.4477153,11.3333333 29,11.7810486 29,12.3333333 Z M33,13.3333333 L33,17.6666667 L31,17.6666667 L31,13.3333333 L33,13.3333333 Z" id="Shape" fill="#183B56"></path>
                        <path d="M39,12.3333333 L39,18.6666667 C39,19.2189514 39.4477153,19.6666667 40,19.6666667 L44,19.6666667 C44.5522847,19.6666667 45,19.2189514 45,18.6666667 L45,12.3333333 C45,11.7810486 44.5522847,11.3333333 44,11.3333333 L40,11.3333333 C39.4477153,11.3333333 39,11.7810486 39,12.3333333 Z M43,13.3333333 L43,17.6666667 L41,17.6666667 L41,13.3333333 L43,13.3333333 Z" id="Shape" fill="#183B56"></path>
                    </g>
                </g>
            </g>
        </g>
    </g>
</svg>