<?xml version="1.0" encoding="UTF-8"?>
<svg width="32px" height="32px" viewBox="0 0 32 32" version="1.1" xmlns="http://www.w3.org/2000/svg" xmlns:xlink="http://www.w3.org/1999/xlink">
    <title>iconspace_Flash On</title>
    <g id="[NEW-UPDATE-Landing]" stroke="none" stroke-width="1" fill="none" fill-rule="evenodd">
        <g id="55---Education-01" transform="translate(-200.000000, -1751.000000)">
            <g id="Section" transform="translate(150.000000, 1547.000000)">
                <g id="iconspace_Flash-On" transform="translate(50.000000, 204.000000)">
                    <circle id="Shape" fill="#36B37E" opacity="0.100000001" cx="16" cy="16" r="16"></circle>
                    <path d="M17.5,14.5 L17.5,6 C17.5,5.47238779 16.7887418,5.30448249 16.5527864,5.7763932 L10.5527864,17.7763932 C10.3865611,18.1088437 10.628309,18.5 11,18.5 L14.5,18.5 L14.5,26 C14.5,26.5180033 15.1909008,26.6941789 15.4389478,26.2394261 L21.4389478,15.2394261 C21.6206863,14.9062387 21.3795296,14.5 21,14.5 L17.5,14.5 Z" id="Shape" fill="#FFFFFF" fill-rule="nonzero"></path>
                    <polygon id="Shape" fill="#FAAD13" points="17 22 16.5 24 15 24.5 15 22"></polygon>
                    <polygon id="Shape" fill="#FAAD13" points="17 10.5 15 10.5 16.5 7 17 7.5"></polygon>
                    <polygon id="Shape" fill="#36B37E" points="17 12.5 14 12.5 15 10 17 10"></polygon>
                    <polygon id="Shape" fill="#36B37E" points="17 22 18 20 15 20 15 22"></polygon>
                    <path d="M17.5,14.5 L17.5,6 C17.5,5.47238779 16.7887418,5.30448249 16.5527864,5.7763932 L10.5527864,17.7763932 C10.3865611,18.1088437 10.628309,18.5 11,18.5 L14.5,18.5 L14.5,26 C14.5,26.5180033 15.1909008,26.6941789 15.4389478,26.2394261 L21.4389478,15.2394261 C21.6206863,14.9062387 21.3795296,14.5 21,14.5 L17.5,14.5 Z M15.5,24.0391697 L15.5,18 C15.5,17.7238576 15.2761424,17.5 15,17.5 L11.809017,17.5 L16.5,8.11803399 L16.5,15 C16.5,15.2761424 16.7238576,15.5 17,15.5 L20.1577289,15.5 L15.5,24.0391697 Z" id="Shape" fill="#183B56" fill-rule="nonzero"></path>
                </g>
            </g>
        </g>
    </g>
</svg>