<?xml version="1.0" encoding="UTF-8"?>
<svg width="64px" height="64px" viewBox="0 0 64 64" version="1.1" xmlns="http://www.w3.org/2000/svg" xmlns:xlink="http://www.w3.org/1999/xlink">
    <title>iconspace_Receipt</title>
    <g id="[NEW-UPDATE-Landing]" stroke="none" stroke-width="1" fill="none" fill-rule="evenodd">
        <g id="55---Education-01" transform="translate(-250.000000, -2399.000000)">
            <g id="How-to-Join" transform="translate(0.000000, 2083.000000)">
                <g id="Item" transform="translate(150.000000, 316.000000)">
                    <g id="iconspace_Receipt" transform="translate(100.000000, 0.000000)">
                        <circle id="Shape" fill="#EAF7F2" cx="32" cy="32" r="32"></circle>
                        <path d="M51,52 L25,52 C21.6862915,52 19,49.3137085 19,46 L19,12 L23,13.9937124 L27,12 L31,14.018273 L35,12 L39,14.018273 L43,12 L47,13.9937124 L51,12 L51,43.340332 L51,52 Z" id="Shape" fill="#FFFFFF" transform="translate(35.000000, 32.000000) scale(-1, 1) translate(-35.000000, -32.000000) "></path>
                        <path d="M23,12.8981886 L26.5495266,11.1072102 C26.8328319,10.9642633 27.1671681,10.9642633 27.4504734,11.1072102 L31,12.8981886 L34.5495266,11.1072102 C34.8328319,10.9642633 35.1671681,10.9642633 35.4504734,11.1072102 L39,12.8981886 L42.5495266,11.1072102 C42.8316851,10.9648419 43.1645376,10.9642348 43.4472136,11.1055728 L47,12.881966 L50.5527864,11.1055728 C51.2176875,10.7731223 52,11.256618 52,12 L52,47 C52,50.3137085 49.3137085,53 46,53 L19,53 C18.4477153,53 18,52.5522847 18,52 L18,12 C18,11.2550232 18.7853657,10.7716179 19.4504734,11.1072102 L23,12.8981886 Z M20,13.6246527 L20,51 L46,51 C48.209139,51 50,49.209139 50,47 L50,13.618034 L47.4472136,14.8944272 C47.1656861,15.0351909 46.8343139,15.0351909 46.5527864,14.8944272 L43.0020411,13.1190545 L39.4504734,14.9110628 C39.1671681,15.0540097 38.8328319,15.0540097 38.5495266,14.9110628 L35,13.1200844 L31.4504734,14.9110628 C31.1671681,15.0540097 30.8328319,15.0540097 30.5495266,14.9110628 L27,13.1200844 L23.4504734,14.9110628 C23.1671681,15.0540097 22.8328319,15.0540097 22.5495266,14.9110628 L20,13.6246527 Z" id="Shape" fill="#183B56"></path>
                        <path d="M16,44 C16,43.4480983 16.4471177,43.0005418 16.9990191,43.0000005 L40.9990211,42.9764571 C43.7582777,42.9737531 45.9972911,45.2083785 46,47.9676351 L46,47.9725356 C46,50.7341793 43.7625024,52.9735981 41.0008597,52.9759683 L13.0008583,53 C12.4482385,53.0004739 12,52.55262 12,52 L12,51.9725356 C12,51.4627725 12.3834482,51.0346005 12.8901249,50.9785902 C14.6519074,50.783835 16,49.2880279 16,47.5 L16,44 Z" id="Shape" fill="#183B56" transform="translate(29.000000, 47.988229) scale(-1, 1) translate(-29.000000, -47.988229) "></path>
                        <path d="M15.2546466,44.9990196 L15.2546466,47.5 C15.2546466,48.8225981 14.7855997,50.0431859 14,50.9967851 L38.2537898,50.975969 C39.9115337,50.9745462 41.2546466,49.6302801 41.2546466,47.9725356 L41.2546466,47.9695968 C41.2530221,46.3149092 39.910317,44.9748356 38.2556293,44.9764571 L15.2546466,44.9990196 Z" id="Shape" fill="#FFC200" fill-rule="nonzero" transform="translate(27.627323, 47.986621) scale(-1, 1) translate(-27.627323, -47.986621) "></path>
                        <polygon id="Shape" fill="#154E84" fill-rule="nonzero" transform="translate(44.500000, 51.986268) scale(-1, 1) translate(-44.500000, -51.986268) " points="44 51.9725356 45 51.9725356 45 52 44.003036 52"></polygon>
                        <path d="M24,20 L36,20 C36.5522847,20 37,19.5522847 37,19 C37,18.4477153 36.5522847,18 36,18 L24,18 C23.4477153,18 23,18.4477153 23,19 C23,19.5522847 23.4477153,20 24,20 Z" id="Shape" fill="#36B37E"></path>
                        <path d="M24,25 L46,25 C46.5522847,25 47,24.5522847 47,24 C47,23.4477153 46.5522847,23 46,23 L24,23 C23.4477153,23 23,23.4477153 23,24 C23,24.5522847 23.4477153,25 24,25 Z" id="Shape" fill="#36B37E"></path>
                        <path d="M24,30 L42,30 C42.5522847,30 43,29.5522847 43,29 C43,28.4477153 42.5522847,28 42,28 L24,28 C23.4477153,28 23,28.4477153 23,29 C23,29.5522847 23.4477153,30 24,30 Z" id="Shape" fill="#36B37E"></path>
                        <path d="M24,35 L46,35 C46.5522847,35 47,34.5522847 47,34 C47,33.4477153 46.5522847,33 46,33 L24,33 C23.4477153,33 23,33.4477153 23,34 C23,34.5522847 23.4477153,35 24,35 Z" id="Shape" fill="#36B37E"></path>
                        <path d="M24,40 L43,40 C43.5522847,40 44,39.5522847 44,39 C44,38.4477153 43.5522847,38 43,38 L24,38 C23.4477153,38 23,38.4477153 23,39 C23,39.5522847 23.4477153,40 24,40 Z" id="Shape" fill="#36B37E"></path>
                    </g>
                </g>
            </g>
        </g>
    </g>
</svg>