<?xml version="1.0" encoding="UTF-8"?>
<svg width="32px" height="32px" viewBox="0 0 32 32" version="1.1" xmlns="http://www.w3.org/2000/svg" xmlns:xlink="http://www.w3.org/1999/xlink">
    <title>iconspace_HDMI</title>
    <g id="[NEW-UPDATE-Landing]" stroke="none" stroke-width="1" fill="none" fill-rule="evenodd">
        <g id="55---Education-01" transform="translate(-467.000000, -1751.000000)">
            <g id="Section" transform="translate(150.000000, 1547.000000)">
                <g id="iconspace_HDMI" transform="translate(317.000000, 204.000000)">
                    <circle id="Shape" fill="#36B37E" opacity="0.100000001" cx="16" cy="16" r="16"></circle>
                    <path d="M7,10.5 L25,10.5 C25.8284271,10.5 26.5,11.1715729 26.5,12 L26.5,17 C26.5,18.3807119 25.3807119,19.5 24,19.5 L8,19.5 C6.61928813,19.5 5.5,18.3807119 5.5,17 L5.5,12 C5.5,11.1715729 6.17157288,10.5 7,10.5 Z" id="Shape" fill="#183B56"></path>
                    <path d="M7,11.5 C6.72385763,11.5 6.5,11.7238576 6.5,12 L6.5,17 C6.5,17.8284271 7.17157288,18.5 8,18.5 L24,18.5 C24.8284271,18.5 25.5,17.8284271 25.5,17 L25.5,12 C25.5,11.7238576 25.2761424,11.5 25,11.5 L7,11.5 Z" id="Shape" fill="#FFFFFF" fill-rule="nonzero"></path>
                    <path d="M13.5,21 C13.5,20.7238576 13.7238576,20.5 14,20.5 L18,20.5 C18.2761424,20.5 18.5,20.7238576 18.5,21 L18.5,27 C18.5,27.2761424 18.2761424,27.5 18,27.5 L14,27.5 C13.7238576,27.5 13.5,27.2761424 13.5,27 L13.5,21 Z" id="Shape" fill="#183B56"></path>
                    <polygon id="Shape" fill="#FFFFFF" fill-rule="nonzero" points="14.5 21.5 14.5 26.5 17.5 26.5 17.5 21.5"></polygon>
                    <path d="M10,6.5 L22,6.5 C22.8284271,6.5 23.5,7.17157288 23.5,8 L23.5,11.5 L8.5,11.5 L8.5,8 C8.5,7.17157288 9.17157288,6.5 10,6.5 Z" id="Shape" fill="#183B56"></path>
                    <path d="M22.5,10.5 L22.5,8 C22.5,7.72385763 22.2761424,7.5 22,7.5 L10,7.5 C9.72385763,7.5 9.5,7.72385763 9.5,8 L9.5,10.5 L22.5,10.5 Z" id="Shape" fill="#FFFFFF" fill-rule="nonzero"></path>
                    <path d="M11.5,18.5 L20.5,18.5 L20.5,20 C20.5,21.9329966 18.9329966,23.5 17,23.5 L15,23.5 C13.0670034,23.5 11.5,21.9329966 11.5,20 L11.5,18.5 Z" id="Shape" fill="#183B56"></path>
                    <path d="M12.5,19.5 L12.5,20 C12.5,21.3807119 13.6192881,22.5 15,22.5 L17,22.5 C18.3807119,22.5 19.5,21.3807119 19.5,20 L19.5,19.5 L12.5,19.5 Z" id="Shape" fill="#36B37E"></path>
                    <path d="M7.5,19 L7.5,20 C7.5,20.8284271 8.17157288,21.5 9,21.5 C9.82842712,21.5 10.5,20.8284271 10.5,20 L10.5,19 C10.5,18.7238576 10.2761424,18.5 10,18.5 L8,18.5 C7.72385763,18.5 7.5,18.7238576 7.5,19 Z" id="Shape" fill="#183B56"></path>
                    <path d="M8.5,19.5 L9.5,19.5 L9.5,20 C9.5,20.2761424 9.27614237,20.5 9,20.5 C8.72385763,20.5 8.5,20.2761424 8.5,20 L8.5,19.5 Z" id="Shape" fill="#FAAD13"></path>
                    <path d="M21.5,19 L21.5,20 C21.5,20.8284271 22.1715729,21.5 23,21.5 C23.8284271,21.5 24.5,20.8284271 24.5,20 L24.5,19 C24.5,18.7238576 24.2761424,18.5 24,18.5 L22,18.5 C21.7238576,18.5 21.5,18.7238576 21.5,19 Z" id="Shape" fill="#183B56"></path>
                    <path d="M22.5,19.5 L23.5,19.5 L23.5,20 C23.5,20.2761424 23.2761424,20.5 23,20.5 C22.7238576,20.5 22.5,20.2761424 22.5,20 L22.5,19.5 Z" id="Shape" fill="#FAAD13"></path>
                    <path d="M10,16 L22,16 C22.5522847,16 23,15.5522847 23,15 C23,14.4477153 22.5522847,14 22,14 L10,14 C9.44771525,14 9,14.4477153 9,15 C9,15.5522847 9.44771525,16 10,16 Z" id="Shape" fill="#FAAD13"></path>
                </g>
            </g>
        </g>
    </g>
</svg>