<?xml version="1.0" encoding="UTF-8"?>
<svg width="32px" height="32px" viewBox="0 0 32 32" version="1.1" xmlns="http://www.w3.org/2000/svg" xmlns:xlink="http://www.w3.org/1999/xlink">
    <title>iconspace_Headset A</title>
    <g id="[NEW-UPDATE-Landing]" stroke="none" stroke-width="1" fill="none" fill-rule="evenodd">
        <g id="55---Education-01" transform="translate(-200.000000, -1833.000000)">
            <g id="Section" transform="translate(150.000000, 1547.000000)">
                <g id="iconspace_Headset-A" transform="translate(50.000000, 286.000000)">
                    <circle id="Shape" fill="#36B37E" opacity="0.100000001" cx="16" cy="16" r="16"></circle>
                    <path d="M24.5,16 L24.5,21.5 C24.5,22.8807119 23.3807119,24 22,24 L16,24 L16,25 L22,25 C23.9329966,25 25.5,23.4329966 25.5,21.5 L25.5,16 L24.5,16 Z" id="Shape" fill="#183B56" fill-rule="nonzero"></path>
                    <path d="M25.5,20 L25.5,15 C25.5,9.75329488 21.2467051,5.5 16,5.5 C10.7532949,5.5 6.5,9.75329488 6.5,15 L6.5,20 L9.5,20 L9.5,15 C9.5,11.4101491 12.4101491,8.5 16,8.5 C19.5898509,8.5 22.5,11.4101491 22.5,15 L22.5,20 L25.5,20 Z" id="Shape" fill="#183B56" fill-rule="nonzero"></path>
                    <path d="M24.5,19 L23.5,19 L23.5,15 C23.5,10.8578644 20.1421356,7.5 16,7.5 C11.8578644,7.5 8.5,10.8578644 8.5,15 L8.5,19 L7.5,19 L7.5,15 C7.5,10.3055796 11.3055796,6.5 16,6.5 C20.6944204,6.5 24.5,10.3055796 24.5,15 L24.5,19 Z" id="Shape" fill="#FFFFFF" fill-rule="nonzero"></path>
                    <path d="M23.5,15 C23.5,14.6747144 23.8056944,14.4360354 24.1212678,14.5149287 L26.1212678,15.0149287 C26.3438513,15.0705746 26.5,15.2705662 26.5,15.5 L26.5,19.5 C26.5,19.7294338 26.3438513,19.9294254 26.1212678,19.9850713 L24.1212678,20.4850713 C23.8056944,20.5639646 23.5,20.3252856 23.5,20 L23.5,15 Z" id="Shape" fill="#183B56" fill-rule="nonzero"></path>
                    <polygon id="Shape" fill="#FAAD13" points="24.5 15.6403882 24.5 19.3596118 25.5 19.1096118 25.5 15.8903882"></polygon>
                    <path d="M9,13.5 L10,13.5 C10.8284271,13.5 11.5,14.1715729 11.5,15 L11.5,20 C11.5,20.8284271 10.8284271,21.5 10,21.5 L9,21.5 C8.17157288,21.5 7.5,20.8284271 7.5,20 L7.5,15 C7.5,14.1715729 8.17157288,13.5 9,13.5 Z" id="Shape" fill="#183B56" fill-rule="nonzero"></path>
                    <path d="M9,14.5 C8.72385763,14.5 8.5,14.7238576 8.5,15 L8.5,20 C8.5,20.2761424 8.72385763,20.5 9,20.5 L10,20.5 C10.2761424,20.5 10.5,20.2761424 10.5,20 L10.5,15 C10.5,14.7238576 10.2761424,14.5 10,14.5 L9,14.5 Z" id="Shape" fill="#36B37E"></path>
                    <path d="M5.5,15 C5.5,14.6747144 5.80569445,14.4360354 6.12126781,14.5149287 L8.12126781,15.0149287 C8.34385131,15.0705746 8.5,15.2705662 8.5,15.5 L8.5,19.5 C8.5,19.7294338 8.34385131,19.9294254 8.12126781,19.9850713 L6.12126781,20.4850713 C5.80569445,20.5639646 5.5,20.3252856 5.5,20 L5.5,15 Z" id="Shape" fill="#183B56" fill-rule="nonzero" transform="translate(7.000000, 17.500000) scale(-1, 1) translate(-7.000000, -17.500000) "></path>
                    <polygon id="Shape" fill="#FAAD13" transform="translate(7.000000, 17.500000) scale(-1, 1) translate(-7.000000, -17.500000) " points="6.5 19.3596118 7.5 19.1096118 7.5 15.8903882 6.5 15.6403882"></polygon>
                    <path d="M22,13.5 L23,13.5 C23.8284271,13.5 24.5,14.1715729 24.5,15 L24.5,20 C24.5,20.8284271 23.8284271,21.5 23,21.5 L22,21.5 C21.1715729,21.5 20.5,20.8284271 20.5,20 L20.5,15 C20.5,14.1715729 21.1715729,13.5 22,13.5 Z" id="Shape" fill="#183B56" fill-rule="nonzero" transform="translate(22.500000, 17.500000) scale(-1, 1) translate(-22.500000, -17.500000) "></path>
                    <path d="M22,14.5 C21.7238576,14.5 21.5,14.7238576 21.5,15 L21.5,20 C21.5,20.2761424 21.7238576,20.5 22,20.5 L23,20.5 C23.2761424,20.5 23.5,20.2761424 23.5,20 L23.5,15 C23.5,14.7238576 23.2761424,14.5 23,14.5 L22,14.5 Z" id="Shape" fill="#36B37E" transform="translate(22.500000, 17.500000) scale(-1, 1) translate(-22.500000, -17.500000) "></path>
                    <path d="M15.5,22.5 L17.5,22.5 C18.6045695,22.5 19.5,23.3954305 19.5,24.5 C19.5,25.6045695 18.6045695,26.5 17.5,26.5 L15.5,26.5 C14.3954305,26.5 13.5,25.6045695 13.5,24.5 C13.5,23.3954305 14.3954305,22.5 15.5,22.5 Z" id="Shape" fill="#183B56" fill-rule="nonzero"></path>
                    <path d="M15.5,23.5 C14.9477153,23.5 14.5,23.9477153 14.5,24.5 C14.5,25.0522847 14.9477153,25.5 15.5,25.5 L17.5,25.5 C18.0522847,25.5 18.5,25.0522847 18.5,24.5 C18.5,23.9477153 18.0522847,23.5 17.5,23.5 L15.5,23.5 Z" id="Shape" fill="#FFFFFF" fill-rule="nonzero"></path>
                </g>
            </g>
        </g>
    </g>
</svg>