<?xml version="1.0" encoding="UTF-8"?>
<svg width="64px" height="64px" viewBox="0 0 64 64" version="1.1" xmlns="http://www.w3.org/2000/svg" xmlns:xlink="http://www.w3.org/1999/xlink">
    <title>iconspace_Happy 2</title>
    <g id="[NEW-UPDATE-Landing]" stroke="none" stroke-width="1" fill="none" fill-rule="evenodd">
        <g id="55---Education-01" transform="translate(-1125.000000, -2399.000000)">
            <g id="How-to-Join" transform="translate(0.000000, 2083.000000)">
                <g id="Item" transform="translate(1026.000000, 316.000000)">
                    <g id="iconspace_Happy-2" transform="translate(99.000000, 0.000000)">
                        <circle id="Shape" fill="#EAF7F2" cx="32" cy="32" r="32"></circle>
                        <path d="M32,53 C43.5979797,53 53,43.5979797 53,32 C53,20.4020203 43.5979797,11 32,11 C20.4020203,11 11,20.4020203 11,32 C11,43.5979797 20.4020203,53 32,53 Z" id="Shape" fill="#183B56"></path>
                        <path d="M32,51 C21.5065898,51 13,42.4934102 13,32 C13,21.5065898 21.5065898,13 32,13 C42.4934102,13 51,21.5065898 51,32 C51,42.4934102 42.4934102,51 32,51 Z" id="Shape" fill="#FFFFFF" fill-rule="nonzero"></path>
                        <path d="M21,34 C21,40.0751322 25.9248678,45 32,45 C38.0751322,45 43,40.0751322 43,34 C43,33.4477153 42.5522847,33 42,33 L22,33 C21.4477153,33 21,33.4477153 21,34 Z" id="Shape" fill="#183B56"></path>
                        <path d="M40.9450712,35 C40.4476269,39.4999505 36.6325537,43 32,43 C27.3674463,43 23.5523731,39.4999505 23.0549288,35 L40.9450712,35 Z" id="Shape" fill="#FFC200" fill-rule="nonzero"></path>
                        <path d="M29,25 C29,22.790861 27.209139,21 25,21 C22.790861,21 21,22.790861 21,25 C21,25.5522847 21.4477153,26 22,26 C22.5522847,26 23,25.5522847 23,25 C23,23.8954305 23.8954305,23 25,23 C26.1045695,23 27,23.8954305 27,25 C27,25.5522847 27.4477153,26 28,26 C28.5522847,26 29,25.5522847 29,25 Z" id="Shape" fill="#36B37E"></path>
                        <path d="M43,25 C43,22.790861 41.209139,21 39,21 C36.790861,21 35,22.790861 35,25 C35,25.5522847 35.4477153,26 36,26 C36.5522847,26 37,25.5522847 37,25 C37,23.8954305 37.8954305,23 39,23 C40.1045695,23 41,23.8954305 41,25 C41,25.5522847 41.4477153,26 42,26 C42.5522847,26 43,25.5522847 43,25 Z" id="Shape" fill="#36B37E"></path>
                    </g>
                </g>
            </g>
        </g>
    </g>
</svg>