<?xml version="1.0" encoding="UTF-8"?>
<svg width="72px" height="72px" viewBox="0 0 72 72" version="1.1" xmlns="http://www.w3.org/2000/svg" xmlns:xlink="http://www.w3.org/1999/xlink">
    <title>Icon</title>
    <g id="[NEW-UPDATE-Landing]" stroke="none" stroke-width="1" fill="none" fill-rule="evenodd">
        <g id="55---Education-01" transform="translate(-136.000000, -272.000000)">
            <g id="Icon" transform="translate(136.000000, 272.000000)">
                <g id="Elements/Shape/Fill/99-R">
                    <rect id="Shadow" x="0" y="0" width="72" height="72"></rect>
                    <rect id="Fill" fill="#36B37E" x="0" y="0" width="72" height="72"></rect>
                </g>
                <g id="iconspace_get-money_25px" transform="translate(17.000000, 17.000000)">
                    <polygon id="path" points="0 0 38 0 38 38 0 38"></polygon>
                    <g id="Donation" transform="translate(3.944762, 4.560000)" fill="#FFFFFF">
                        <path d="M4.0352381,25.84 L4.0352381,28.12 C4.0352381,28.7496046 3.52484271,29.26 2.8952381,29.26 L1.3752381,29.26 C0.74563348,29.26 0.235238095,28.7496046 0.235238095,28.12 C0.235238095,27.4903954 0.74563348,26.98 1.3752381,26.98 L1.7552381,26.98 L1.7552381,12.54 L1.3752381,12.54 C0.74563348,12.54 0.235238095,12.0296046 0.235238095,11.4 C0.235238095,10.7703954 0.74563348,10.26 1.3752381,10.26 L2.8952381,10.26 C3.52484271,10.26 4.0352381,10.7703954 4.0352381,11.4 L4.0352381,13.1750746 L6.08085158,11.4995078 C7.16226894,10.6137163 8.64248416,10.393909 9.93434631,10.9272761 L13.9219021,12.5737566 C16.3287846,13.6218982 17.2001298,15.3141787 16.2546989,17.3680948 C16.0558576,17.8000707 15.7998297,18.1486207 15.4893647,18.4163493 L17.8972757,19.1820684 L26.4606445,14.8268171 C28.2213363,14.0296957 29.6419091,14.1582169 30.484251,15.3629532 C31.5263707,16.8534164 30.9505619,18.365419 29.4880134,19.7253248 C28.8847106,20.2862874 24.9009563,23.3124207 18.9387047,27.7939851 C17.9898726,28.5071279 16.7624616,28.7354315 15.6209454,28.4110874 L6.57210818,25.84 L4.0352381,25.84 Z M22.6552373,1.52166595 L24.4839486,1.52166595 C25.1136461,1.52166595 25.6239479,2.03252748 25.6239479,2.66249892 L25.6239479,3.23851041 C25.6239479,3.86848185 25.1136461,4.37934338 24.4839486,4.37934338 C24.0646853,4.37934338 23.6913019,4.15108028 23.4931797,3.80333189 L20.0164362,3.80333189 C19.8066617,3.80333189 19.6364369,3.97374342 19.6364369,4.18416487 L19.6364369,4.94614926 C19.6364369,5.15657071 19.8066617,5.32698223 20.0164362,5.32698223 L23.035244,5.32698223 C24.5044135,5.32698223 25.6952418,6.51911681 25.6952418,7.98948115 L25.6952418,8.74916271 C25.6952418,10.2195271 24.5044135,11.4116616 23.035244,11.4116616 L22.6552373,11.4116616 L22.6552373,11.779167 C22.6552373,12.4091385 22.1449356,12.92 21.515238,12.92 C20.8855405,12.92 20.3752388,12.4091385 20.3752388,11.779167 L20.3752388,11.4116616 L18.4752485,11.4116616 C17.8319736,11.4116616 17.3162341,10.8794155 17.3357757,10.2361618 L17.3569649,9.53866962 C17.3760944,8.90897905 17.9016885,8.41386804 18.5311045,8.43303115 C18.9883192,8.44695144 19.3784185,8.72976563 19.5471757,9.12999568 L23.035244,9.12999568 C23.2450185,9.12999568 23.4152432,8.95958416 23.4152432,8.74916271 L23.4152432,7.98948115 C23.4152432,7.7790597 23.2450185,7.60864818 23.035244,7.60864818 L20.0164362,7.60864818 C18.5472667,7.60864818 17.3564384,6.4165136 17.3564384,4.94614926 L17.3564384,4.18416487 C17.3564384,2.71380053 18.5472667,1.52166595 20.0164362,1.52166595 L20.3752388,1.52166595 L20.3752388,1.14083297 C20.3752388,0.51086153 20.8855405,0 21.515238,0 C22.1449356,0 22.6552373,0.51086153 22.6552373,1.14083297 L22.6552373,1.52166595 Z" id="path"></path>
                    </g>
                </g>
            </g>
        </g>
    </g>
</svg>